<svg width="64" height="64" viewBox="0 0 64 64" fill="none" xmlns="http://www.w3.org/2000/svg">
<path d="M50.9129 6.44338C54.9768 8.73945 50.5877 12.0145 48.5831 15.6596C46.5786 19.3048 42.8623 22.5029 42.0427 21.9823C41.2231 21.4616 42.0963 17.0517 44.1009 13.4066C46.1054 9.76146 47.8657 5.13197 50.9129 6.44338Z" fill="#50AE16"/>
<path d="M58.0473 16.2503C60.1936 20.6124 54.8506 20.6498 51.2805 22.4404C47.7104 24.2309 42.9629 24.6135 42.5603 23.6862C42.1576 22.7589 45.1962 19.6504 48.7663 17.8598C52.3364 16.0692 56.2223 13.3181 58.0473 16.2503Z" fill="#50AE16"/>
<path d="M57.9157 7.49164C61.3635 10.75 56.3812 12.8245 53.6356 15.8611C50.89 18.8977 46.5784 21.0675 45.8956 20.3544C45.2128 19.6413 47.026 15.5755 49.7716 12.5389C52.5173 9.50229 55.2406 5.44718 57.9157 7.49164Z" fill="#61BF26"/>
<path d="M40.7953 36.3058C31.4623 43.9725 9.17014 61.0948 4.41448 59.9448C0.788287 56.0476 22.0295 34.1974 26.3499 29.4696C32.889 22.314 38.4174 12.2834 47.2154 17.9696C52.9222 25.7002 46.9182 30.6835 40.7953 36.3058Z" fill="#E3751B"/>
<path d="M40.7952 24.8696C40.5654 25.2136 40.3042 23.4749 39.1307 22.5696C37.9571 21.6643 36.5231 21.8275 36.7529 21.4835C36.9826 21.1395 38.3138 21.1532 39.4874 22.0585C40.6609 22.9638 41.0249 24.5256 40.7952 24.8696Z" fill="#C26112"/>
<path d="M37.3345 33.6768C37.1047 34.0207 36.8435 32.2821 35.67 31.3767C34.4964 30.4714 33.0624 30.6346 33.2922 30.2906C33.5219 29.9466 34.8531 29.9603 36.0267 30.8656C37.2002 31.7709 37.5642 33.3328 37.3345 33.6768Z" fill="#C26112"/>
<path d="M28.4177 35.9768C28.188 36.3208 27.9268 34.5821 26.7532 33.6768C25.5797 32.7715 24.1457 32.9346 24.3754 32.5907C24.6052 32.2467 25.9364 32.2603 27.1099 33.1657C28.2835 34.071 28.6475 35.6328 28.4177 35.9768Z" fill="#C26112"/>
<path d="M30.809 42.6645C30.5793 43.0085 30.5297 41.433 29.6207 40.7318C28.7117 40.0306 27.4748 40.3458 27.7045 40.0018C27.9343 39.6578 29.0661 39.5177 29.9751 40.2189C30.8841 40.9201 31.0387 42.3205 30.809 42.6645Z" fill="#C26112"/>
<path d="M19.0978 43.9725C18.868 44.3165 18.4465 43.1639 17.4412 42.3884C16.436 41.6129 15.1274 41.8728 15.3571 41.5289C15.5868 41.1849 16.7912 41.1007 17.7964 41.8762C18.8017 42.6516 19.3275 43.6285 19.0978 43.9725Z" fill="#C26112"/>
<path d="M16.4907 53.0447C16.261 53.3887 15.9147 52.2942 15.0057 51.593C14.0967 50.8917 12.8598 51.207 13.0895 50.863C13.3193 50.519 14.4511 50.3789 15.3601 51.0801C16.2691 51.7813 16.7204 52.7008 16.4907 53.0447Z" fill="#C26112"/>
<path d="M49.0339 47.1031C49.0339 48.1561 48.4475 49.1534 47.4118 49.9061C46.3765 50.6585 44.9216 51.1392 43.2921 51.1392C41.6626 51.1392 40.2077 50.6585 39.1724 49.9061C38.1367 49.1534 37.5503 48.1561 37.5503 47.1031C37.5503 46.05 38.1367 45.0527 39.1724 44.3C40.2077 43.5476 41.6626 43.0669 43.2921 43.0669C44.9216 43.0669 46.3765 43.5476 47.4118 44.3C48.4475 45.0527 49.0339 46.05 49.0339 47.1031Z" fill="#F4882F" stroke="#E3751B"/>
<path d="M45.7051 47.167C45.7051 47.474 45.5157 47.8159 45.0771 48.1046C44.6426 48.3905 44.013 48.5836 43.2922 48.5836C42.5715 48.5836 41.9419 48.3905 41.5074 48.1046C41.0687 47.8159 40.8794 47.474 40.8794 47.167C40.8794 46.8599 41.0687 46.518 41.5074 46.2293C41.9419 45.9434 42.5715 45.7503 43.2922 45.7503C44.013 45.7503 44.6426 45.9434 45.0771 46.2293C45.5157 46.518 45.7051 46.8599 45.7051 47.167Z" fill="#FCA157" stroke="#E3751B"/>
<path d="M43.2085 52.4698C43.2085 53.5228 42.6221 54.5201 41.5863 55.2728C40.5511 56.0252 39.0962 56.5059 37.4667 56.5059C35.8371 56.5059 34.3822 56.0252 33.347 55.2728C32.3112 54.5201 31.7249 53.5228 31.7249 52.4698C31.7249 51.4167 32.3112 50.4194 33.347 49.6667C34.3822 48.9143 35.8371 48.4336 37.4667 48.4336C39.0962 48.4336 40.5511 48.9143 41.5863 49.6667C42.6221 50.4194 43.2085 51.4167 43.2085 52.4698Z" fill="#F4882F" stroke="#E3751B"/>
<path d="M39.8792 52.5336C39.8792 52.8406 39.6898 53.1826 39.2512 53.4712C38.8166 53.7572 38.187 53.9503 37.4663 53.9503C36.7456 53.9503 36.116 53.7572 35.6815 53.4712C35.2428 53.1826 35.0535 52.8406 35.0535 52.5336C35.0535 52.2266 35.2428 51.8846 35.6815 51.596C36.116 51.3101 36.7456 51.1169 37.4663 51.1169C38.187 51.1169 38.8166 51.3101 39.2512 51.596C39.6898 51.8846 39.8792 52.2266 39.8792 52.5336Z" fill="#FCA157" stroke="#E3751B"/>
<path d="M52.8383 54.3864C52.8383 55.4395 52.252 56.4368 51.2162 57.1895C50.181 57.9418 48.7261 58.4226 47.0965 58.4226C45.467 58.4226 44.0121 57.9418 42.9769 57.1895C41.9411 56.4368 41.3547 55.4395 41.3547 54.3864C41.3547 53.3333 41.9411 52.3361 42.9769 51.5834C44.0121 50.831 45.467 50.3503 47.0965 50.3503C48.7261 50.3503 50.181 50.831 51.2162 51.5834C52.252 52.3361 52.8383 53.3333 52.8383 54.3864Z" fill="#F4882F" stroke="#E3751B"/>
<path d="M49.5095 54.4503C49.5095 54.7574 49.3202 55.0993 48.8815 55.388C48.447 55.6739 47.8174 55.867 47.0967 55.867C46.376 55.867 45.7464 55.6739 45.3118 55.388C44.8732 55.0993 44.6838 54.7574 44.6838 54.4503C44.6838 54.1433 44.8732 53.8014 45.3118 53.5127C45.7464 53.2268 46.376 53.0337 47.0967 53.0337C47.8174 53.0337 48.447 53.2268 48.8815 53.5127C49.3202 53.8014 49.5095 54.1433 49.5095 54.4503Z" fill="#FCA157" stroke="#E3751B"/>
</svg>
