<svg width="64" height="64" viewBox="0 0 64 64" fill="none" xmlns="http://www.w3.org/2000/svg">
<path d="M24.9302 50.637C24.0516 46.4457 20.0715 39.9342 20.0715 39.9342L31.7895 35.5658L41.7927 40.7351C41.7927 40.7351 38.8911 46.5718 38.3631 50.637C37.8901 54.2786 39.0061 59.3012 38.8632 60.0293C38.7203 60.7573 34.6523 61.9363 31.7895 61.9951C29.048 62.0513 24.9302 61.631 24.9302 60.4661C24.9302 59.3012 25.7171 54.3908 24.9302 50.637Z" fill="#ECEBE1"/>
<path d="M27.1182 45.4878C28.0856 49.0952 27.6002 51.6182 27.3718 51.6818C27.1434 51.7454 27.2585 49.3255 26.2911 45.7181C25.3238 42.1108 23.4408 40.7 23.6692 40.6364C23.8976 40.5728 26.1509 41.8805 27.1182 45.4878Z" fill="#F7F5E4"/>
<path d="M32.1691 42.2187C32.8913 38.5522 34.4351 36.5186 34.6672 36.5661C34.8993 36.6135 33.7319 38.7242 33.0097 42.3907C32.2875 46.0571 31.8822 47.9385 31.65 47.891C31.4179 47.8435 31.4468 45.8852 32.1691 42.2187Z" fill="#F7F5E4"/>
<path d="M33.7451 55.5732C34.0014 51.8428 35.2772 49.6246 35.5134 49.6415C35.7496 49.6583 34.8567 51.9037 34.6005 55.6342C34.3442 59.3647 35.6642 61.33 35.4281 61.3132C35.1919 61.2963 33.4889 59.3037 33.7451 55.5732Z" fill="#F7F5E4"/>
<path d="M23.0725 5.86008C19.0712 8.84521 21.7149 12.6312 21.7149 12.6312C21.7149 12.6312 18.0115 11.0093 17.2135 15.1067C16.4155 19.2041 20.0192 21.9066 19.7857 20.2033L26.4307 27.5569L40.1494 26.756L47.0801 22C47.0801 22 50.5098 20.5673 50.7956 16.126C51.0814 11.6847 47.0801 11.6847 47.0801 11.6847C47.0801 11.6847 49.5095 9.35487 46.2227 4.62234C42.936 -0.110187 39.2919 5.05919 39.2919 5.05919C39.2919 5.05919 38.8632 1.92844 34.5047 2.00125C30.1462 2.07406 29.5746 5.86008 29.5746 5.86008C29.5746 5.86008 27.0738 2.87495 23.0725 5.86008Z" fill="#E4E3D3"/>
<path d="M9.85386 24.863C13.7122 21.077 17.1991 24.0621 17.4277 24.0621C17.4277 24.0621 16.4988 19.2568 20.7145 19.4752C24.9301 19.6936 25.7161 22.2419 25.7161 22.2419C25.7161 22.2419 28.5027 18.019 32.5754 23.2612C36.6481 28.5034 32.5754 29.2315 32.5754 29.2315C32.5754 29.2315 36.2908 38.6237 34.1473 39.9342C32.0038 41.2448 29.7316 37.8082 29.503 37.75C29.2743 37.6918 28.717 41.6816 25.4303 42.3369C22.1435 42.9922 20.4287 40.2255 20.4287 40.2255C20.4287 40.2255 19.214 43.6475 15.3556 43.2106C11.4973 42.7738 12.4261 39.5702 12.4261 39.5702C12.4261 39.5702 9.92531 41.7544 7.06727 38.2597C4.20923 34.7649 7.99614 31.4157 7.99614 31.4157C7.99614 31.4157 5.99548 28.649 9.85386 24.863Z" fill="#EFEEDC"/>
<path d="M39.2204 21.2226C35.2906 22.97 36.3624 26.6832 36.3624 26.6832C36.3624 26.6832 31.7895 24.7902 30.5034 30.178C29.2173 35.5658 33.5043 36.221 33.5043 36.221C33.5043 36.221 30.4319 41.4632 35.4335 43.065C40.4351 44.6668 42.1499 40.6623 42.1499 40.6623C42.1499 40.6623 43.2932 46.4142 48.9378 44.6668C54.5825 42.9194 52.5104 37.9684 52.5104 37.9684C52.5104 37.9684 57.2976 38.6965 57.9407 33.3815C58.5838 28.0665 53.7965 27.9937 53.7965 27.9937C53.7965 27.9937 56.7975 24.3533 52.5104 21.805C48.2233 19.2568 45.5082 22.8972 45.5082 22.8972C45.5082 22.8972 43.1503 19.4752 39.2204 21.2226Z" fill="#F7F6E4"/>
</svg>
