<svg width="64" height="64" viewBox="0 0 64 64" fill="none" xmlns="http://www.w3.org/2000/svg">
<path d="M10 18.7647H40.8L47.4 7.73529H16.6L10 18.7647Z" fill="#6BB8FE"/>
<path d="M16.6 7.73529H47.4V2H16.6V7.73529Z" fill="#85C4FF"/>
<path d="M40.8 18.7647H54L47.4 7.73529L40.8 18.7647Z" fill="#46A1F5"/>
<path d="M54 18.7647H40.8V25.0093C41.1376 24.6807 41.5594 24.3399 42.12 24.0588C43.6363 23.2986 44.2817 24.285 45.1401 25.5967C45.7761 26.5687 46.5291 27.7195 47.84 28.4706C50.8104 30.1725 51.7346 27.3607 52.1913 25.9712C52.2081 25.92 52.2243 25.8706 52.24 25.8235C52.68 24.5 54 18.7647 54 18.7647Z" fill="#3999F1"/>
<path d="M40.8 18.7647H10C10 18.7647 12.2 23.6176 14.4 24.0588C15.424 24.2642 16.162 23.4182 16.9246 22.5441C17.8004 21.5401 18.7087 20.4989 20.12 20.9706C21.2704 21.3551 21.9195 22.4935 22.5406 23.5827C23.3448 24.9933 24.1021 26.3214 25.84 25.8235C28.0684 25.1851 29.6059 23.8539 30.7856 22.8324C31.2364 22.442 31.635 22.0969 32 21.8529C33.32 20.9706 35.52 20.9706 37.72 24.5C39.1641 26.8168 39.4707 26.4722 40.2577 25.5875C40.4149 25.4107 40.5914 25.2123 40.8 25.0093V18.7647Z" fill="#5FAEF7"/>
<path d="M10 62H40.8V44.2016C40.7333 44.2638 40.6667 44.3266 40.6 44.3894C39.64 45.2936 38.68 46.1979 37.72 45.2353C37.06 44.5735 36.95 44.1324 36.84 43.6912C36.73 43.25 36.62 42.8088 35.96 42.1471C34.64 40.8235 32.44 40.8235 31.12 40.8235C29.8 40.8235 27.82 42.5882 27.6 43.4706C27.38 44.3529 27.16 45.2353 28.04 47C28.2135 47.348 28.37 47.6445 28.5093 47.9065L28.568 48.0168C29.096 49.0084 29.36 49.5042 29.36 50.5294C29.36 51.8529 28.92 53.1765 27.6 53.6176C26.28 54.0588 24.96 53.1765 24.52 52.7353C24.08 52.2941 23.64 51.4118 24.52 49.2059C25.4 47 25.2404 46.3598 24.96 45.2353C24.6796 44.1108 23.2 43.1765 22.76 43.0294C22.32 42.8823 21 42.5882 19.68 43.4706C19.1603 43.818 18.7089 44.5072 18.245 45.2154C17.5307 46.3059 16.7871 47.4412 15.72 47.4412C14.8107 47.4412 14.4886 46.1459 14.147 44.772C13.8274 43.4866 13.4907 42.1324 12.64 41.7059C10.88 40.8235 10 42.5882 10 42.5882V62Z" fill="#5FAEF7"/>
<path d="M40.8 62L54 59.0968V43.9118C54 43.9118 52.24 42.5882 51.36 42.5882C50.48 42.5882 49.16 43.9118 49.16 45.6765C49.16 47.4412 48.72 49.2059 46.52 49.2059C44.32 49.2059 44.32 47.4412 44.32 45.2353C44.32 43.0294 43 42.5882 41.68 43.4706C41.3867 43.6667 41.0933 43.9281 40.8 44.2016V62Z" fill="#3999F1"/>
<path d="M14.4 24.0588C12.2 23.6176 10 18.7647 10 18.7647V42.5882C10 42.5882 10.88 40.8235 12.64 41.7059C13.4907 42.1324 13.8274 43.4866 14.147 44.772C14.4886 46.1459 14.8107 47.4412 15.72 47.4412C16.7871 47.4412 17.5307 46.3059 18.245 45.2154C18.7089 44.5072 19.1603 43.818 19.68 43.4706C21 42.5882 22.32 42.8823 22.76 43.0294C23.2 43.1765 24.6796 44.1108 24.96 45.2353C25.2404 46.3598 25.4 47 24.52 49.2059C23.64 51.4118 24.08 52.2941 24.52 52.7353C24.96 53.1765 26.28 54.0588 27.6 53.6176C28.92 53.1765 29.36 51.8529 29.36 50.5294C29.36 49.5042 29.096 49.0084 28.568 48.0168L28.5093 47.9065C28.37 47.6445 28.2135 47.348 28.04 47C27.16 45.2353 27.38 44.3529 27.6 43.4706C27.82 42.5882 29.8 40.8235 31.12 40.8235C32.44 40.8235 34.64 40.8235 35.96 42.1471C36.62 42.8088 36.73 43.25 36.84 43.6912C36.95 44.1324 37.06 44.5735 37.72 45.2353C38.68 46.1979 39.64 45.2936 40.6 44.3894C40.6667 44.3266 40.7333 44.2638 40.8 44.2016V25.0093C40.5914 25.2123 40.4149 25.4107 40.2577 25.5875C39.4707 26.4722 39.1641 26.8168 37.72 24.5C35.52 20.9706 33.32 20.9706 32 21.8529C31.635 22.0969 31.2364 22.442 30.7856 22.8324C29.6059 23.8539 28.0684 25.1851 25.84 25.8235C24.1021 26.3214 23.3448 24.9933 22.5406 23.5827C21.9195 22.4935 21.2704 21.3551 20.12 20.9706C18.7087 20.4989 17.8004 21.5401 16.9246 22.5441C16.162 23.4182 15.424 24.2642 14.4 24.0588Z" fill="white"/>
<path d="M54 18.7647C54 18.7647 52.68 24.5 52.24 25.8235C52.2243 25.8706 52.2081 25.92 52.1913 25.9712C51.7346 27.3607 50.8104 30.1725 47.84 28.4706C46.5291 27.7195 45.7761 26.5687 45.1401 25.5967C44.2817 24.285 43.6363 23.2986 42.12 24.0588C41.5594 24.3399 41.1376 24.6807 40.8 25.0093V44.2016C41.0933 43.9281 41.3867 43.6667 41.68 43.4706C43 42.5882 44.32 43.0294 44.32 45.2353C44.32 47.4412 44.32 49.2059 46.52 49.2059C48.72 49.2059 49.16 47.4412 49.16 45.6765C49.16 43.9118 50.48 42.5882 51.36 42.5882C52.24 42.5882 54 43.9118 54 43.9118V18.7647Z" fill="#E7E7E7"/>
<path d="M14.8889 37.625V28.25L17.3334 32.9375L19.7778 28.25V37.625" stroke="black" stroke-linecap="round" stroke-linejoin="round"/>
<path d="M22.7109 28.25V37.625" stroke="black" stroke-linecap="round" stroke-linejoin="round"/>
<path d="M25.6445 28.25V37.625H29.5556" stroke="black" stroke-linecap="round" stroke-linejoin="round"/>
<path d="M32.4888 37.625V28.25" stroke="black" stroke-linecap="round" stroke-linejoin="round"/>
<path d="M36.3999 28.25L33.4666 32.9375L36.3999 37.625" stroke="black" stroke-linecap="round" stroke-linejoin="round"/>
</svg>
