<svg width="64" height="64" viewBox="0 0 64 64" fill="none" xmlns="http://www.w3.org/2000/svg">
<path d="M62.0001 38.6188C62.0001 49.5855 54.4221 54 43.4569 54C32.4916 54 23.6025 45.1098 23.6025 34.1432C23.6025 24.3041 30.7577 16.1364 40.1478 14.5608C41.2239 14.3803 39.6234 10.3174 42.4579 10.2519C43.1261 10.2365 46.0167 9.49543 46.3289 10.6301C46.0791 13.0255 46.5786 14.2233 47.3903 14.6759C56.4714 16.5013 62.0001 28.999 62.0001 38.6188Z" fill="url(#paint0_linear_192_880)"/>
<path d="M47.5777 15.7992C47.5777 15.7992 53.7672 20.7065 56.1937 25.0027C59.1088 30.164 60.953 34.0277 59.6276 39.8165C58.5554 44.4998 56.6653 47.1915 52.8222 50.0286C50.0043 52.109 44.5183 53.3696 44.5183 53.3696C44.5183 53.3696 49.3466 52.1299 51.3238 49.3983C53.3009 46.6666 56.1285 44.5379 57.2551 40.51C58.8523 34.7992 55.4237 30.3189 54.5079 25.57C53.5922 20.8212 45.8919 15.7992 45.8919 15.7992L52.8222 25.57C52.8222 25.57 55.986 34.4158 54.5079 39.8165C53.4444 43.7029 51.962 45.7288 49.201 48.6418C47.4001 50.5418 43.9564 52.8023 43.9564 52.8023C45.1635 50.9952 47.5777 46.4985 47.5777 46.4985C47.5777 46.4985 50.6179 41.635 51.3238 38.1145C52.2923 33.2837 51.4991 30.2441 49.9502 25.57C48.575 21.4204 46.0792 18.867 44.5183 15.7992L46.6411 23.3007C47.4944 27.209 49.7449 31.0674 49.201 36.1604C48.7851 40.0542 45.8919 45.616 45.8919 45.616C45.8919 45.616 44.6016 51.0793 43.9564 53.3696C44.1437 50.596 44.5183 44.4813 44.5183 44.4813C44.5183 44.4813 46.6411 38.7449 46.6411 37.0429C46.6411 35.3409 44.5183 24.0571 44.5183 24.0571C44.5183 24.0571 44.1437 17.9005 43.9564 15.7992C43.4153 18.2997 42.5829 23.3007 42.5829 23.3007C42.5829 23.3007 43.9564 30.6761 43.9564 32.9454C43.9564 35.2148 42.5829 44.4813 42.5829 44.4813C42.5829 44.4813 42.9991 50.7851 43.2072 53.3696C43.2072 53.3696 41.5197 48.7238 41.022 45.616C40.3409 41.3631 41.022 38.8925 41.022 34.5844C41.022 30.1778 40.4849 27.6738 41.022 23.3007C41.3868 20.33 42.5829 15.7992 42.5829 15.7992C42.5829 15.7992 40.7742 18.2979 39.9606 20.0858C38.3052 23.7232 38.4205 25.9903 38.15 30.1718C37.8794 34.3533 36.9208 38.5042 38.15 43.5988C39.1338 47.6766 41.3758 50.4069 42.5829 53.3696C42.5829 53.3696 38.3044 48.3427 36.7764 44.4813C35.1002 40.2456 35.0658 37.5056 34.9658 32.9454C34.8746 28.7896 34.371 26.1609 36.0272 22.3551C37.3141 19.3979 41.022 15.7992 41.022 15.7992L38.6494 15.484C36.4642 19.2242 33.1289 22.3023 32.0938 27.5872C30.9264 33.5472 32.143 37.3382 34.4039 42.9684C36.2005 47.4426 39.0032 50.1127 41.022 53.3696L38.6494 52.1719M38.6494 52.1719C36.4642 49.5664 33.7964 47.0482 32.0938 42.9684C30.1523 38.3164 30.2831 31.5586 30.2831 30.1718C30.2831 28.785 29.9948 24.7126 31.5318 21.7878C32.9867 19.0192 35.5485 17.8374 37.2759 16.2405C37.2759 16.2405 34.4039 17.5012 32.0938 18.888C29.7837 20.2749 27.4111 29.1127 27.4111 30.1718C27.4111 31.4956 28.3401 40.2651 31.5318 45.616C33.0799 48.2113 34.9241 49.9446 36.3393 51.6676L38.6494 52.1719Z" stroke="url(#paint1_radial_192_880)" stroke-linejoin="round"/>
<path d="M32.0911 37.6797C32.0911 41.9458 30.6362 45.3237 28.3544 47.627C26.0703 49.9325 22.8107 51.3109 18.9199 51.3109C11.0681 51.3109 4.5 45.787 4.5 37.6797C4.5 34.1185 5.91465 31.4289 8.23937 28.9988C10.4996 26.6362 13.4859 24.6478 16.7959 22.4439C16.9553 22.3378 17.1154 22.2312 17.2762 22.124C18.1269 21.7113 18.5254 20.9536 18.6762 20.5728C18.8671 20.0904 18.9224 19.6088 18.9474 19.3408C18.9756 19.0389 18.9868 18.7151 18.9956 18.4622L18.9959 18.4525L18.9965 18.4348C19.006 18.1612 19.014 17.9308 19.0303 17.707C19.0315 17.6907 19.0327 17.6747 19.0339 17.6592C19.0868 17.6546 19.1415 17.65 19.1984 17.6453C19.5805 17.6136 20.0067 17.5843 20.4193 17.5737C20.5283 18.4599 20.7242 19.3296 20.9352 20.065C21.1355 20.7628 21.3795 21.4456 21.6486 22.0208C21.7818 22.3056 21.9434 22.6121 22.1359 22.8969C22.2534 23.0707 22.4826 23.3912 22.8392 23.6836C23.8302 24.6516 24.8341 25.5388 25.7505 26.3487C26.0079 26.5762 26.2584 26.7975 26.4998 27.0129C27.6692 28.0562 28.6583 28.9866 29.4834 29.9805C31.0348 31.8492 32.0911 34.0344 32.0911 37.6797ZM21.5731 17.6292C21.5729 17.6293 21.5682 17.6282 21.5596 17.6256C21.5689 17.6278 21.5732 17.6291 21.5731 17.6292Z" fill="#FEF9ED" stroke="url(#paint2_linear_192_880)" stroke-width="5"/>
<path d="M33.8418 38.6188C33.8418 45.9995 26.411 53.4327 18.9823 53.4327C11.5536 53.4327 3.12378 45.9995 3.12378 38.6188C3.12378 31.2381 11.1479 21.0944 18.5766 21.0944C26.0053 21.0944 33.8418 31.2381 33.8418 38.6188Z" fill="url(#paint3_radial_192_880)"/>
<mask id="mask0_192_880" style="mask-type:alpha" maskUnits="userSpaceOnUse" x="7" y="27" width="23" height="22">
<ellipse cx="18.2331" cy="38.871" rx="0.49948" ry="0.504301" fill="white"/>
<ellipse cx="19.4819" cy="38.3666" rx="0.49948" ry="0.504301" fill="white"/>
<ellipse cx="18.2331" cy="37.358" rx="0.49948" ry="0.504301" fill="white"/>
<ellipse cx="19.4819" cy="36.8537" rx="0.49948" ry="0.504301" fill="white"/>
<ellipse cx="20.7307" cy="36.3494" rx="0.49948" ry="0.504301" fill="white"/>
<ellipse cx="19.4819" cy="35.3408" rx="0.49948" ry="0.504301" fill="white"/>
<ellipse cx="20.8554" cy="39.2492" rx="0.49948" ry="0.504301" fill="white"/>
<ellipse cx="22.104" cy="38.7449" rx="0.49948" ry="0.504301" fill="white"/>
<ellipse cx="20.8554" cy="37.7363" rx="0.49948" ry="0.504301" fill="white"/>
<ellipse cx="19.3571" cy="41.3925" rx="0.49948" ry="0.504301" fill="white"/>
<ellipse cx="20.6057" cy="40.8882" rx="0.49948" ry="0.504301" fill="white"/>
<ellipse cx="19.3571" cy="39.8795" rx="0.49948" ry="0.504301" fill="white"/>
<ellipse cx="16.4851" cy="40.8882" rx="0.49948" ry="0.504301" fill="white"/>
<ellipse cx="17.7336" cy="40.3839" rx="0.49948" ry="0.504301" fill="white"/>
<ellipse cx="16.4851" cy="39.3752" rx="0.49948" ry="0.504301" fill="white"/>
<ellipse cx="15.4861" cy="38.2406" rx="0.49948" ry="0.504301" fill="white"/>
<ellipse cx="16.7346" cy="37.7363" rx="0.49948" ry="0.504301" fill="white"/>
<ellipse cx="15.4861" cy="36.7277" rx="0.49948" ry="0.504301" fill="white"/>
<ellipse cx="17.1093" cy="36.2234" rx="0.49948" ry="0.504301" fill="white"/>
<ellipse cx="18.3581" cy="35.7191" rx="0.49948" ry="0.504301" fill="white"/>
<ellipse cx="17.1093" cy="34.7105" rx="0.49948" ry="0.504301" fill="white"/>
<ellipse cx="20.2309" cy="32.189" rx="0.49948" ry="0.504301" fill="white"/>
<ellipse cx="21.4797" cy="31.6847" rx="0.49948" ry="0.504301" fill="white"/>
<ellipse cx="20.2309" cy="30.6761" rx="0.49948" ry="0.504301" fill="white"/>
<ellipse cx="21.4797" cy="30.1718" rx="0.49948" ry="0.504301" fill="white"/>
<ellipse cx="22.7282" cy="29.6675" rx="0.49948" ry="0.504301" fill="white"/>
<ellipse cx="21.4797" cy="28.6589" rx="0.49948" ry="0.504301" fill="white"/>
<ellipse cx="22.8532" cy="32.5672" rx="0.49948" ry="0.504301" fill="white"/>
<ellipse cx="24.102" cy="32.0629" rx="0.49948" ry="0.504301" fill="white"/>
<ellipse cx="22.8532" cy="31.0543" rx="0.49948" ry="0.504301" fill="white"/>
<ellipse cx="21.3549" cy="34.7105" rx="0.49948" ry="0.504301" fill="white"/>
<ellipse cx="22.6035" cy="34.2062" rx="0.49948" ry="0.504301" fill="white"/>
<ellipse cx="21.3549" cy="33.1976" rx="0.49948" ry="0.504301" fill="white"/>
<ellipse cx="18.4826" cy="34.2062" rx="0.49948" ry="0.504301" fill="white"/>
<ellipse cx="19.7314" cy="33.7019" rx="0.49948" ry="0.504301" fill="white"/>
<ellipse cx="18.4826" cy="32.6933" rx="0.49948" ry="0.504301" fill="white"/>
<ellipse cx="17.4836" cy="31.5586" rx="0.49948" ry="0.504301" fill="white"/>
<ellipse cx="18.7321" cy="31.0543" rx="0.49948" ry="0.504301" fill="white"/>
<ellipse cx="17.4836" cy="30.0457" rx="0.49948" ry="0.504301" fill="white"/>
<ellipse cx="19.1074" cy="29.5414" rx="0.49948" ry="0.504301" fill="white"/>
<ellipse cx="20.3559" cy="29.0371" rx="0.49948" ry="0.504301" fill="white"/>
<ellipse cx="19.1074" cy="28.0285" rx="0.49948" ry="0.504301" fill="white"/>
<ellipse cx="25.3506" cy="37.8624" rx="0.49948" ry="0.504301" fill="white"/>
<ellipse cx="26.5991" cy="37.358" rx="0.49948" ry="0.504301" fill="white"/>
<ellipse cx="25.3506" cy="36.3494" rx="0.49948" ry="0.504301" fill="white"/>
<ellipse cx="26.5991" cy="35.8451" rx="0.49948" ry="0.504301" fill="white"/>
<ellipse cx="27.8476" cy="35.3408" rx="0.49948" ry="0.504301" fill="white"/>
<ellipse cx="26.5991" cy="34.3322" rx="0.49948" ry="0.504301" fill="white"/>
<ellipse cx="27.9731" cy="38.2406" rx="0.49948" ry="0.504301" fill="white"/>
<ellipse cx="29.2216" cy="37.7363" rx="0.49948" ry="0.504301" fill="white"/>
<ellipse cx="27.9731" cy="36.7277" rx="0.49948" ry="0.504301" fill="white"/>
<ellipse cx="26.4746" cy="40.3839" rx="0.49948" ry="0.504301" fill="white"/>
<ellipse cx="27.7231" cy="39.8795" rx="0.49948" ry="0.504301" fill="white"/>
<ellipse cx="26.4746" cy="38.871" rx="0.49948" ry="0.504301" fill="white"/>
<ellipse cx="23.6025" cy="39.8795" rx="0.49948" ry="0.504301" fill="white"/>
<ellipse cx="24.851" cy="39.3752" rx="0.49948" ry="0.504301" fill="white"/>
<ellipse cx="23.6025" cy="38.3666" rx="0.49948" ry="0.504301" fill="white"/>
<ellipse cx="22.6035" cy="37.232" rx="0.49948" ry="0.504301" fill="white"/>
<ellipse cx="23.8523" cy="36.7277" rx="0.49948" ry="0.504301" fill="white"/>
<ellipse cx="22.6035" cy="35.7191" rx="0.49948" ry="0.504301" fill="white"/>
<ellipse cx="24.2268" cy="35.2148" rx="0.49948" ry="0.504301" fill="white"/>
<ellipse cx="25.4753" cy="34.7105" rx="0.49948" ry="0.504301" fill="white"/>
<ellipse cx="24.2268" cy="33.7019" rx="0.49948" ry="0.504301" fill="white"/>
<ellipse cx="23.2278" cy="44.5443" rx="0.49948" ry="0.504301" fill="white"/>
<ellipse cx="24.4768" cy="44.04" rx="0.49948" ry="0.504301" fill="white"/>
<ellipse cx="23.2278" cy="43.0314" rx="0.49948" ry="0.504301" fill="white"/>
<ellipse cx="24.4768" cy="42.5271" rx="0.49948" ry="0.504301" fill="white"/>
<ellipse cx="25.7256" cy="42.0228" rx="0.49948" ry="0.504301" fill="white"/>
<ellipse cx="24.4768" cy="41.0142" rx="0.49948" ry="0.504301" fill="white"/>
<ellipse cx="25.8501" cy="44.9226" rx="0.49948" ry="0.504301" fill="white"/>
<ellipse cx="27.0986" cy="44.4183" rx="0.49948" ry="0.504301" fill="white"/>
<ellipse cx="25.8501" cy="43.4097" rx="0.49948" ry="0.504301" fill="white"/>
<ellipse cx="24.3518" cy="47.0658" rx="0.49948" ry="0.504301" fill="white"/>
<ellipse cx="25.6003" cy="46.5615" rx="0.49948" ry="0.504301" fill="white"/>
<ellipse cx="24.3518" cy="45.5529" rx="0.49948" ry="0.504301" fill="white"/>
<ellipse cx="21.4797" cy="46.5615" rx="0.49948" ry="0.504301" fill="white"/>
<ellipse cx="22.7282" cy="46.0573" rx="0.49948" ry="0.504301" fill="white"/>
<ellipse cx="21.4797" cy="45.0487" rx="0.49948" ry="0.504301" fill="white"/>
<ellipse cx="20.4812" cy="43.914" rx="0.49948" ry="0.504301" fill="white"/>
<ellipse cx="21.7297" cy="43.4097" rx="0.49948" ry="0.504301" fill="white"/>
<ellipse cx="20.4812" cy="42.4011" rx="0.49948" ry="0.504301" fill="white"/>
<ellipse cx="22.104" cy="41.8968" rx="0.49948" ry="0.504301" fill="white"/>
<ellipse cx="23.353" cy="41.3925" rx="0.49948" ry="0.504301" fill="white"/>
<ellipse cx="22.104" cy="40.3839" rx="0.49948" ry="0.504301" fill="white"/>
<ellipse cx="16.2351" cy="45.5529" rx="0.49948" ry="0.504301" fill="white"/>
<ellipse cx="17.4836" cy="45.0487" rx="0.49948" ry="0.504301" fill="white"/>
<ellipse cx="16.2351" cy="44.04" rx="0.49948" ry="0.504301" fill="white"/>
<ellipse cx="17.4836" cy="43.5357" rx="0.49948" ry="0.504301" fill="white"/>
<ellipse cx="18.7321" cy="43.0314" rx="0.49948" ry="0.504301" fill="white"/>
<ellipse cx="17.4836" cy="42.0228" rx="0.49948" ry="0.504301" fill="white"/>
<ellipse cx="18.8579" cy="45.9312" rx="0.49948" ry="0.504301" fill="white"/>
<ellipse cx="20.1064" cy="45.4269" rx="0.49948" ry="0.504301" fill="white"/>
<ellipse cx="18.8579" cy="44.4183" rx="0.49948" ry="0.504301" fill="white"/>
<ellipse cx="17.3589" cy="48.0744" rx="0.49948" ry="0.504301" fill="white"/>
<ellipse cx="18.6076" cy="47.5702" rx="0.49948" ry="0.504301" fill="white"/>
<ellipse cx="17.3589" cy="46.5615" rx="0.49948" ry="0.504301" fill="white"/>
<ellipse cx="14.4868" cy="47.5702" rx="0.49948" ry="0.504301" fill="white"/>
<ellipse cx="15.7356" cy="47.0658" rx="0.49948" ry="0.504301" fill="white"/>
<ellipse cx="14.4868" cy="46.0573" rx="0.49948" ry="0.504301" fill="white"/>
<ellipse cx="13.488" cy="44.9226" rx="0.49948" ry="0.504301" fill="white"/>
<ellipse cx="14.7365" cy="44.4183" rx="0.49948" ry="0.504301" fill="white"/>
<ellipse cx="13.488" cy="43.4097" rx="0.49948" ry="0.504301" fill="white"/>
<ellipse cx="15.1113" cy="42.9054" rx="0.49948" ry="0.504301" fill="white"/>
<ellipse cx="16.3598" cy="42.4011" rx="0.49948" ry="0.504301" fill="white"/>
<ellipse cx="15.1113" cy="41.3925" rx="0.49948" ry="0.504301" fill="white"/>
<ellipse cx="13.2382" cy="33.1976" rx="0.49948" ry="0.504301" fill="white"/>
<ellipse cx="14.4868" cy="32.6933" rx="0.49948" ry="0.504301" fill="white"/>
<ellipse cx="13.2382" cy="31.6847" rx="0.49948" ry="0.504301" fill="white"/>
<ellipse cx="14.4868" cy="31.1804" rx="0.49948" ry="0.504301" fill="white"/>
<ellipse cx="15.7356" cy="30.6761" rx="0.49948" ry="0.504301" fill="white"/>
<ellipse cx="14.4868" cy="29.6675" rx="0.49948" ry="0.504301" fill="white"/>
<ellipse cx="15.8603" cy="33.5758" rx="0.49948" ry="0.504301" fill="white"/>
<ellipse cx="17.1093" cy="33.0715" rx="0.49948" ry="0.504301" fill="white"/>
<ellipse cx="15.8603" cy="32.0629" rx="0.49948" ry="0.504301" fill="white"/>
<ellipse cx="14.3623" cy="35.7191" rx="0.49948" ry="0.504301" fill="white"/>
<ellipse cx="15.6108" cy="35.2148" rx="0.49948" ry="0.504301" fill="white"/>
<ellipse cx="14.3623" cy="34.2062" rx="0.49948" ry="0.504301" fill="white"/>
<ellipse cx="11.4902" cy="35.2148" rx="0.49948" ry="0.504301" fill="white"/>
<ellipse cx="12.7387" cy="34.7105" rx="0.49948" ry="0.504301" fill="white"/>
<ellipse cx="11.4902" cy="33.7019" rx="0.49948" ry="0.504301" fill="white"/>
<ellipse cx="10.4914" cy="32.5672" rx="0.49948" ry="0.504301" fill="white"/>
<ellipse cx="11.74" cy="32.0629" rx="0.49948" ry="0.504301" fill="white"/>
<ellipse cx="10.4914" cy="31.0543" rx="0.49948" ry="0.504301" fill="white"/>
<ellipse cx="12.1145" cy="30.55" rx="0.49948" ry="0.504301" fill="white"/>
<ellipse cx="13.3632" cy="30.0457" rx="0.49948" ry="0.504301" fill="white"/>
<ellipse cx="12.1145" cy="29.0371" rx="0.49948" ry="0.504301" fill="white"/>
<ellipse cx="11.1154" cy="40.0056" rx="0.49948" ry="0.504301" fill="white"/>
<ellipse cx="12.364" cy="39.5013" rx="0.49948" ry="0.504301" fill="white"/>
<ellipse cx="11.1154" cy="38.4927" rx="0.49948" ry="0.504301" fill="white"/>
<ellipse cx="12.364" cy="37.9884" rx="0.49948" ry="0.504301" fill="white"/>
<ellipse cx="13.6128" cy="37.4841" rx="0.49948" ry="0.504301" fill="white"/>
<ellipse cx="12.364" cy="36.4755" rx="0.49948" ry="0.504301" fill="white"/>
<ellipse cx="13.7378" cy="40.3839" rx="0.49948" ry="0.504301" fill="white"/>
<ellipse cx="14.9863" cy="39.8795" rx="0.49948" ry="0.504301" fill="white"/>
<ellipse cx="13.7378" cy="38.871" rx="0.49948" ry="0.504301" fill="white"/>
<ellipse cx="12.2395" cy="42.5271" rx="0.49948" ry="0.504301" fill="white"/>
<ellipse cx="13.488" cy="42.0228" rx="0.49948" ry="0.504301" fill="white"/>
<ellipse cx="12.2395" cy="41.0142" rx="0.49948" ry="0.504301" fill="white"/>
<ellipse cx="9.3674" cy="42.0228" rx="0.49948" ry="0.504301" fill="white"/>
<ellipse cx="10.6159" cy="41.5185" rx="0.49948" ry="0.504301" fill="white"/>
<ellipse cx="9.3674" cy="40.5099" rx="0.49948" ry="0.504301" fill="white"/>
<ellipse cx="8.36838" cy="39.3752" rx="0.49948" ry="0.504301" fill="white"/>
<ellipse cx="9.61691" cy="38.871" rx="0.49948" ry="0.504301" fill="white"/>
<ellipse cx="8.36838" cy="37.8624" rx="0.49948" ry="0.504301" fill="white"/>
<ellipse cx="9.99167" cy="37.358" rx="0.49948" ry="0.504301" fill="white"/>
<ellipse cx="11.2404" cy="36.8537" rx="0.49948" ry="0.504301" fill="white"/>
<ellipse cx="9.99167" cy="35.8451" rx="0.49948" ry="0.504301" fill="white"/>
</mask>
<g mask="url(#mask0_192_880)">
<ellipse cx="18.5453" cy="37.9884" rx="11.5505" ry="11.5989" fill="url(#paint4_radial_192_880)"/>
</g>
<defs>
<linearGradient id="paint0_linear_192_880" x1="43.4569" y1="11.2607" x2="43.7115" y2="54" gradientUnits="userSpaceOnUse">
<stop stop-color="#BC7D51"/>
<stop offset="0.049101" stop-color="#9C5E6B"/>
<stop offset="0.131097" stop-color="#7F5D80"/>
<stop offset="1" stop-color="#826787"/>
</linearGradient>
<radialGradient id="paint1_radial_192_880" cx="0" cy="0" r="1" gradientUnits="userSpaceOnUse" gradientTransform="translate(43.7379 34.4268) rotate(90) scale(18.9428 16.3268)">
<stop stop-color="#AB96B3"/>
<stop offset="1" stop-color="#826285"/>
</radialGradient>
<linearGradient id="paint2_linear_192_880" x1="21.4797" y1="16.1774" x2="18.2342" y2="53.8056" gradientUnits="userSpaceOnUse">
<stop stop-color="#BC7D51"/>
<stop offset="0.0760626" stop-color="#9C5E6B"/>
<stop offset="0.121326" stop-color="#75587A"/>
</linearGradient>
<radialGradient id="paint3_radial_192_880" cx="0" cy="0" r="1" gradientUnits="userSpaceOnUse" gradientTransform="translate(18.6392 37.8624) rotate(90.4923) scale(14.5622 14.6569)">
<stop stop-color="#C84437"/>
<stop offset="0.635" stop-color="#D67265"/>
<stop offset="0.83" stop-color="#E49F93"/>
<stop offset="1" stop-color="#FFFAEF"/>
</radialGradient>
<radialGradient id="paint4_radial_192_880" cx="0" cy="0" r="1" gradientUnits="userSpaceOnUse" gradientTransform="translate(18.5453 37.9884) rotate(90) scale(11.5989 11.5505)">
<stop offset="0.301666" stop-color="#E84524"/>
<stop offset="1" stop-color="#F59A8A"/>
</radialGradient>
</defs>
</svg>
