<svg width="64" height="64" viewBox="0 0 64 64" fill="none" xmlns="http://www.w3.org/2000/svg">
<path d="M32.9084 13.488C33.2773 17.394 32.9084 20.2932 32.9084 23.5317L35.3518 24.7133C35.3518 24.7133 36.929 17.0363 35.8269 12.3063C34.8052 7.92209 30.533 2 30.533 2C31.3248 5.71991 32.4781 8.93176 32.9084 13.488Z" fill="#479652"/>
<path d="M37.6593 14.1444C37.6593 14.1444 35.8811 22.7571 35.8268 23.0722L33.9943 23.7943C33.9943 23.7943 32.9506 13.9508 36.0304 8.8928C37.583 6.34286 41.2564 3.24728 41.2564 3.24728L37.6593 14.1444Z" fill="#53AB5F"/>
<path d="M55.0797 44.2101C56.8443 49.79 56.9249 59.2429 47.423 59.8337C39.6858 59.046 45.9171 55.8645 45.9171 45.7856C42.3426 38.1051 32.0263 30.5558 36.0307 22.4158C37.1845 33.7724 51.0074 35.3479 55.0797 44.2101Z" fill="#D9D9D9"/>
<path d="M27.886 41.5842C32.3528 52.3501 23.0401 58.5208 13.5382 59.1116C5.80099 58.3239 6.73843 47.8206 12.8468 42.7659C21.6021 34.6258 23.4744 37.0547 33.655 21.2341C37.4558 28.5864 27.0037 31.8031 27.886 41.5842Z" fill="#D9D9D9"/>
<path d="M48.2472 45.4573C50.0119 51.0372 50.0925 60.4902 40.5906 61.081C32.8534 60.2932 39.0847 57.1117 39.0847 47.0328C41.053 36.7921 31.5511 30.5558 35.5555 22.4158C36.7093 33.7724 44.175 36.5952 48.2472 45.4573Z" fill="#DFDFDF"/>
<path d="M27.0845 44.1444C31.5512 54.9103 27.2881 60.4901 17.7863 61.0809C10.049 60.2932 10.9865 49.7899 17.0948 44.7352C25.8501 36.5952 25.2393 37.7768 35.4198 21.9562C33.1801 27.9299 26.2022 34.3632 27.0845 44.1444Z" fill="#DFDFDF"/>
<path d="M40.578 45.0634C40.578 55.1423 40.7816 61.4092 31.2798 62C23.5425 61.2122 24.8321 53.7638 24.8321 43.6849C26.8003 33.4442 26.3931 36.4639 36.5737 20.6433C34.3339 26.6171 39.6957 35.2823 40.578 45.0634Z" fill="#ECECEC"/>
</svg>
