<?xml version="1.0" encoding="iso-8859-1"?>
<!-- Uploaded to: SVG Repo, www.svgrepo.com, Generator: SVG Repo Mixer Tools -->
<svg height="800px" width="800px" version="1.1" id="Layer_1" xmlns="http://www.w3.org/2000/svg" xmlns:xlink="http://www.w3.org/1999/xlink" 
	 viewBox="0 0 512.001 512.001" xml:space="preserve">
<path style="fill:#F8A16E;" d="M391.258,46.362l0.234-0.234c8.462-8.467,8.46-22.192-0.007-30.656
	c-8.467-8.462-22.194-8.46-30.655,0.007l-0.211,0.211C344.68,5.49,326.156,0,306.777,0c-26.762,0-51.921,10.422-70.841,29.346
	L32.424,232.854c-33.844,33.85-38.338,86.081-13.528,124.842c-0.725,0.562-1.434,1.155-2.1,1.821l-1.542,1.54
	c-8.47,8.461-8.475,22.185-0.014,30.655c4.233,4.238,9.783,6.356,15.334,6.356c5.545,0,11.088-2.114,15.321-6.343l1.542-1.54
	c0.666-0.666,1.262-1.374,1.824-2.1c15.977,10.27,34.564,15.798,54.009,15.798c26.76,0,51.919-10.422,70.841-29.346L377.62,171.031
	C411.419,137.231,415.949,85.103,391.258,46.362z"/>
<path style="fill:#9A4149;" d="M197.045,218.604c-0.487,0-0.974-0.014-1.462-0.042c-6.65-0.377-12.87-3.312-17.38-8.145
	c-10.062-10.568-23.627-16.383-38.216-16.383c-10.425,0-19.824-6.28-23.814-15.912s-1.783-20.718,5.588-28.09l90.227-90.229
	c4.834-4.834,11.39-7.551,18.226-7.551c28.538,0,56.158,11.893,75.779,32.629c9.594,10.14,9.373,26.072-0.497,35.942l-90.227,90.229
	C210.424,215.902,203.86,218.604,197.045,218.604z"/>
<path style="fill:#F8A16E;" d="M493.213,255.835l0.241-0.24c8.46-8.471,8.451-22.195-0.022-30.656
	c-8.471-8.46-22.197-8.451-30.655,0.022l-0.205,0.207c-15.938-10.201-34.463-15.689-53.841-15.689
	c-26.762,0-51.921,10.421-70.843,29.344l-101.57,101.568c-4.065,4.065-6.35,9.578-6.35,15.327c0,5.749,2.285,11.263,6.35,15.327
	l111.031,111.031c4.233,4.234,9.779,6.348,15.327,6.348c5.546,0,11.095-2.117,15.328-6.348l101.57-101.569
	C513.373,346.706,517.902,294.577,493.213,255.835z"/>
<path style="fill:#9A4149;" d="M306.842,512c-55.367,0-100.414-45.047-100.414-100.415s45.045-100.412,100.414-100.412
	c55.367,0,100.412,45.045,100.412,100.412C407.254,466.953,362.209,512,306.842,512z"/>
<path style="fill:#CD855C;" d="M391.258,46.362l0.234-0.234c8.462-8.467,8.46-22.192-0.007-30.656
	c-8.467-8.462-22.194-8.46-30.655,0.007l-0.211,0.211C344.68,5.49,326.156,0,306.777,0c-18.108,0-35.476,4.788-50.679,13.736
	v278.817L377.621,171.03C411.419,137.231,415.949,85.103,391.258,46.362z"/>
<g>
	<path style="fill:#80343B;" d="M305.994,84.883c-13.581-14.353-30.999-24.461-49.896-29.328v114.673l49.401-49.402
		C315.366,110.956,315.588,95.024,305.994,84.883z"/>
	<path style="fill:#80343B;" d="M306.842,311.171c-18.504,0-35.843,5.052-50.745,13.819v173.192
		c14.903,8.766,32.24,13.819,50.745,13.819c55.367,0,100.412-45.047,100.412-100.415
		C407.254,356.216,362.209,311.171,306.842,311.171z"/>
</g>
<g>
	<circle style="fill:#CD855C;" cx="305.811" cy="411.577" r="21.139"/>
	<path style="fill:#CD855C;" d="M493.213,255.835l0.241-0.24c8.46-8.471,8.451-22.195-0.022-30.656
		c-8.471-8.46-22.197-8.451-30.655,0.022l-0.205,0.207c-15.938-10.201-34.463-15.689-53.841-15.689
		c-26.762,0-51.921,10.421-70.843,29.344l-81.792,81.791v4.379c14.903-8.766,32.24-13.819,50.745-13.819
		c55.367,0,100.412,45.045,100.412,100.412c0,25.512-9.578,48.817-25.308,66.548l97.628-97.626
		C513.373,346.706,517.902,294.577,493.213,255.835z"/>
</g>
</svg>