<svg width="64" height="64" viewBox="0 0 64 64" fill="none" xmlns="http://www.w3.org/2000/svg">
<path d="M31.8879 60.1988C31.8879 61.1936 30.9554 61.8137 30.8161 61.8137C30.6768 61.8137 31.3835 61.1936 31.3835 60.1988C31.3835 59.204 30.5507 58.2112 30.69 58.2112C30.8293 58.2112 31.8879 59.204 31.8879 60.1988Z" fill="#5F4434"/>
<path d="M32.2046 60.0745C32.2046 61.0693 33.1356 61.6894 33.2749 61.6894C33.4142 61.6894 32.7075 61.0693 32.7075 60.0745C32.7075 59.0797 33.5403 58.087 33.401 58.087C33.2617 58.087 32.2046 59.0797 32.2046 60.0745Z" fill="#5F4434"/>
<path d="M31.5726 60.0124C31.5726 61.0072 32.0638 62 32.2031 62C32.3424 62 32.4071 60.2619 32.4071 59.2671C32.4071 58.2723 31.5858 58.0248 31.4465 58.0248C31.3073 58.0248 31.5726 59.0176 31.5726 60.0124Z" fill="#5F4434"/>
<path d="M36.9947 19.205C36.9947 27.6436 34.3584 30.6335 33.662 30.6335C32.9657 30.6335 33.662 27.6436 33.662 19.205C33.662 10.7663 41.4139 2 42.1103 2C42.8067 2 36.9947 10.7663 36.9947 19.205Z" fill="#368939"/>
<path d="M33.9056 19.7019C33.9056 26.837 33.4257 32.6211 32.8338 32.6211C32.2418 32.6211 31.762 26.837 31.762 19.7019C31.762 12.5668 27.3872 7.40375 27.9791 7.40375C28.5711 7.40375 33.9056 12.5668 33.9056 19.7019Z" fill="#4CA94F"/>
<path d="M35.6707 23.2422C35.3555 28.3975 35.3309 29.8261 35.9229 29.8261C36.5148 29.8261 36.0463 29.1428 38.0034 22.1242C41.0927 15.6025 44.837 11.1304 44.2451 11.1304C43.6531 11.1304 36.4903 16.0373 35.6707 23.2422Z" fill="#4CA94F"/>
<path d="M41.3449 42.7454C41.3449 51.0811 31.4465 55.9752 32.7705 60.0745C35.4185 57.4037 48 54.8572 48 41.8137C45.2259 31.0062 37.436 33.8634 36.6164 24.9814C32.6444 31.0062 41.3449 34.4096 41.3449 42.7454Z" fill="#C47C4C"/>
<path d="M24.4483 44.4845C24.4483 52.8202 32.6444 56.0994 31.3204 60.1987C28.6724 57.5279 16 54.8571 16 41.8137C18.7741 31.0062 30.816 32.4348 31.6356 23.5528C35.6076 29.5776 24.4483 36.1487 24.4483 44.4845Z" fill="#C47C4C"/>
<path d="M35.3554 44.0497C35.3554 52.3854 31.1312 55.6646 32.4552 59.764C33.527 56.5963 42.5427 50.5221 42.5427 42.1863C40.4622 33.118 35.3554 30.1367 35.3554 26.5342C32.9596 30.7578 35.3554 35.714 35.3554 44.0497Z" fill="#C78864"/>
<path d="M31.0684 44.4224C31.0684 52.7581 32.8337 55.1056 31.5097 59.205C30.438 56.0373 22.8723 51.578 22.8723 43.2422C24.9529 34.1739 32.7707 30.0745 32.7707 26.472C35.1665 30.6956 31.0684 36.0866 31.0684 44.4224Z" fill="#C78864"/>
<path d="M36.1119 44.4224C36.1119 52.7581 33.4009 55.0435 32.0769 59.1429C31.0051 55.9752 28.105 51.019 28.105 42.6832C30.1855 33.6149 33.2748 31.8758 34.1575 28.646C34.788 30.7578 36.1119 36.0866 36.1119 44.4224Z" fill="#CE926C"/>
</svg>
