<svg width="64" height="64" viewBox="0 0 64 64" fill="none" xmlns="http://www.w3.org/2000/svg">
<path d="M25.6093 56.3527C38.6483 56.3527 49.2186 45.3406 49.2186 31.7566C49.2186 27.0068 47.9262 22.5714 45.6878 18.8113C45.6878 18.8113 47.1707 24.8461 46.7606 28.7145C46.3173 32.896 45.3403 35.256 43.2031 38.8765C41.3886 41.9501 39.9871 43.4997 37.3169 45.867C34.1423 48.6815 32.0376 50.07 28.0672 51.5629C24.552 52.8847 22.3777 53.4647 18.6235 53.3752C16.3757 53.3217 12.9314 52.5093 12.9314 52.5093C16.5938 54.9426 20.9435 56.3527 25.6093 56.3527Z" fill="#EA880F"/>
<path fill-rule="evenodd" clip-rule="evenodd" d="M12.9314 52.5093C6.35894 48.1424 2 40.4798 2 31.7566C2 29.2571 2.35787 26.8447 3.02315 24.572C3.02315 24.572 5.48787 21.8831 7.30401 20.4295C9.9665 18.2985 11.7053 17.3793 14.8072 15.9634C17.0847 14.9237 18.773 14.4649 20.7449 13.9289C21.6172 13.6918 22.5451 13.4396 23.6041 13.1154C24.7227 12.7729 25.6676 12.4055 26.5586 12.059C28.3713 11.354 29.9609 10.7358 32.3363 10.5911C34.7409 10.4445 38.4812 11.1343 38.4812 11.1343C41.3905 13.1092 43.856 15.7341 45.6878 18.8113C45.6878 18.8113 47.1707 24.8461 46.7606 28.7145C46.3173 32.896 45.3403 35.256 43.2031 38.8765C41.3886 41.9501 39.9871 43.4997 37.3169 45.867C34.1423 48.6815 32.0376 50.07 28.0672 51.5629C24.552 52.8847 22.3777 53.4647 18.6235 53.3752C16.3757 53.3217 12.9314 52.5093 12.9314 52.5093Z" fill="url(#paint0_linear_192_875)"/>
<path d="M25.6093 7.16057C14.9694 7.16057 5.97347 14.493 3.02315 24.572C3.02315 24.572 5.48787 21.8831 7.30401 20.4295C9.9665 18.2985 11.7053 17.3793 14.8072 15.9634C17.0847 14.9237 18.773 14.4649 20.7449 13.9289C21.6172 13.6918 22.5451 13.4396 23.6041 13.1154C24.7227 12.7729 25.6676 12.4055 26.5586 12.059C28.3713 11.354 29.9609 10.7358 32.3363 10.5911C34.7409 10.4445 38.4812 11.1343 38.4812 11.1343C34.7788 8.62101 30.3578 7.16057 25.6093 7.16057Z" fill="#EA880F"/>
<ellipse cx="2.32879" cy="1.61802" rx="2.32879" ry="1.61802" transform="matrix(0.933019 0.359828 -0.359408 0.933181 26.1902 11.6914)" fill="#859B18"/>
<path d="M30.0726 8.06674C28.474 10.0155 27.2913 13.8921 27.2913 13.8921L28.0675 14.4747C28.0675 14.4747 30.4096 11.6379 32.2072 10.138C33.601 8.97492 36.0235 7.4842 36.0235 7.4842C36.0235 7.4842 35.8941 4.83042 35.4413 4.11843C34.9885 3.40644 31.7235 6.05424 30.0726 8.06674Z" fill="#4C8526"/>
<path d="M31.0428 7.61386C31.0428 7.61386 27.7605 6.58906 25.9328 6.44879C22.2381 6.16521 19.9717 6.68286 16.6185 8.26113C13.6053 9.67936 12.126 11.0336 9.89145 13.504C7.23994 16.4352 4.78149 22.242 4.78149 22.242C4.78149 22.242 7.74762 16.9944 10.4736 14.3454C12.7319 12.1509 14.1492 10.9421 17.0066 9.62038C20.2447 8.12255 22.3694 7.51223 25.9328 7.67859C27.4139 7.74773 30.6547 8.58476 30.6547 8.58476L31.0428 7.61386Z" fill="#4C8526"/>
<path d="M10.4736 14.3454C7.74762 16.9944 4.78149 22.242 4.78149 22.242C4.78149 22.242 8.55724 18.4152 11.5085 16.7403C15.1499 14.6738 15.3248 15.381 21.7284 13.504C28.1321 11.6269 25.9328 7.67859 25.9328 7.67859C22.3694 7.51223 20.2447 8.12255 17.0066 9.62038C14.1492 10.9421 12.7319 12.1509 10.4736 14.3454Z" fill="#559C2D"/>
<path d="M16.6185 8.26113C19.9717 6.68286 22.2381 6.16521 25.9328 6.44879C25.9328 6.44879 20.0675 3.4276 16.2951 4.24809C12.3437 5.10749 10.5458 7.41797 8.20969 10.7207C5.49937 14.5526 4.78149 22.242 4.78149 22.242C4.78149 22.242 7.23994 16.4352 9.89145 13.504C12.126 11.0336 13.6053 9.67936 16.6185 8.26113Z" fill="#67A235"/>
<path d="M59.6972 33.5042C58.2838 31.4553 54.9106 29.297 54.9106 29.297L54.3285 30.2679C54.3285 30.2679 57.6291 32.5417 58.921 34.4751C60.6816 37.1102 60.6707 39.5281 60.7968 42.6954C60.9032 45.3676 60.9338 47.4175 59.8912 49.88C58.6424 52.8297 57.0074 54.34 54.3285 56.0938C51.9211 57.6698 49.6958 58.7517 46.8253 58.9417C43.9328 59.1332 42.0525 58.4689 39.5161 57.0647C37.852 56.1434 36.4036 55.4684 35.247 53.9578C33.8092 52.0798 32.8537 48.2619 32.8537 48.2619L31.6248 48.7797C31.6248 48.7797 32.3841 52.1832 33.6299 53.9578C35.1403 56.1093 36.5894 56.9133 38.9339 58.1003C41.7604 59.5312 43.6612 60.1278 46.8253 59.9773C50.1774 59.8179 52.1183 58.9273 54.9106 57.0647C58.132 54.9158 60.0415 53.1504 61.3143 49.4917C62.1894 46.9759 62.0258 45.3561 61.8964 42.6954C61.7171 39.0089 61.7925 36.5417 59.6972 33.5042Z" fill="#F7B317"/>
<path d="M32.8537 48.2619C32.8537 48.2619 33.8092 52.0798 35.247 53.9578C36.4036 55.4684 37.852 56.1434 39.5161 57.0647C42.0525 58.4689 43.9328 59.1332 46.8253 58.9417C49.6958 58.7517 51.9211 57.6698 54.3285 56.0938C57.0074 54.34 58.6424 52.8297 59.8912 49.88C60.9338 47.4175 60.9032 45.3676 60.7968 42.6954C60.6707 39.5281 60.6816 37.1102 58.921 34.4751C57.6291 32.5417 54.3285 30.2679 54.3285 30.2679L53.2442 31.6919C53.2442 31.6919 57.3702 32.7702 58.2095 34.9282C58.7317 36.2709 58.2095 38.6176 58.2095 38.6176C58.2095 38.6176 59.6219 40.0742 59.8912 41.2714C60.245 42.8445 58.921 45.2844 58.921 45.2844C58.921 45.2844 59.9931 48.8185 58.921 50.592C57.9702 52.1647 54.9106 53.0516 54.9106 53.0516C54.9106 53.0516 53.8802 55.2093 52.7114 56.0938C50.8532 57.4999 46.8253 57.0647 46.8253 57.0647C46.8253 57.0647 44.1274 58.103 42.5562 57.5177C40.8435 56.8798 39.5161 53.9578 39.5161 53.9578C39.5161 53.9578 36.4129 53.6365 35.247 52.2749C34.0044 50.8238 34.3414 47.4661 34.3414 47.4661L32.8537 48.2619Z" fill="#F5E8C0"/>
<path d="M45.9844 42.9543C44.9894 42.7664 44.5614 42.1128 44.5614 42.1128L34.3414 47.4661C34.3414 47.4661 34.0044 50.8238 35.247 52.2749C36.4129 53.6365 39.5161 53.9578 39.5161 53.9578C39.5161 53.9578 40.8435 56.8798 42.5562 57.5177C44.1274 58.103 46.8253 57.0647 46.8253 57.0647C46.8253 57.0647 50.8532 57.4999 52.7114 56.0938C53.8802 55.2093 54.9106 53.0516 54.9106 53.0516C54.9106 53.0516 57.9702 52.1647 58.921 50.592C59.9931 48.8185 58.921 45.2844 58.921 45.2844C58.921 45.2844 60.245 42.8445 59.8912 41.2714C59.6219 40.0742 58.2095 38.6176 58.2095 38.6176C58.2095 38.6176 58.7317 36.2709 58.2095 34.9282C57.3702 32.7702 53.2442 31.6919 53.2442 31.6919L46.8253 40.0416C46.8253 40.0416 47.8802 41.5303 47.6015 42.1128C47.2298 42.8896 46.3272 43.019 45.9844 42.9543Z" fill="#F5A22F"/>
<path d="M45.9844 41.2714C45.5182 41.7182 44.5614 42.1128 44.5614 42.1128C44.5614 42.1128 44.9894 42.7664 45.9844 42.9543C46.3272 43.019 47.2298 42.8896 47.6015 42.1128C47.8802 41.5303 46.8253 40.0416 46.8253 40.0416C46.8253 40.0416 46.4044 40.8689 45.9844 41.2714Z" fill="#F6EDD6"/>
<path d="M46.502 42.0481L39.9043 53.1163M46.502 42.0481L46.7607 56.2232M46.502 42.0481L54.5227 52.4691M46.502 42.0481L57.9509 45.155M46.502 42.0481L57.304 38.8765" stroke="#F6EDD6" stroke-width="0.3" stroke-linejoin="round"/>
<ellipse cx="15.2691" cy="30.2785" rx="4.26908" ry="6.27847" fill="#FDD582"/>
<ellipse cx="21.8022" cy="27.2363" rx="1.48771" ry="2.2007" fill="#FDD582"/>
<ellipse cx="0.128991" cy="0.452998" rx="0.128991" ry="0.452998" transform="matrix(0.974235 0.225537 -0.22525 0.974301 44.1492 51.8043)" fill="#EFDFA7"/>
<ellipse cx="45.0784" cy="53.9578" rx="0.128966" ry="0.453085" fill="#EFDFA7"/>
<ellipse cx="0.129002" cy="0.452961" rx="0.129002" ry="0.452961" transform="matrix(0.962832 0.270099 -0.269763 0.962927 43.1362 53.0982)" fill="#EFDFA7"/>
<ellipse cx="0.129088" cy="0.452655" rx="0.129088" ry="0.452655" transform="matrix(0.864954 0.501851 -0.501347 0.865246 43.3831 50.9118)" fill="#EFDFA7"/>
<ellipse cx="0.129036" cy="0.45284" rx="0.129036" ry="0.45284" transform="matrix(0.925309 0.379215 -0.37878 0.925487 42.1553 52.3244)" fill="#EFDFA7"/>
<ellipse cx="0.129144" cy="0.452458" rx="0.129144" ry="0.452458" transform="matrix(0.795463 -0.606003 0.605488 0.795855 49.2427 49.425)" fill="#EFDFA7"/>
<ellipse cx="0.129417" cy="0.452905" rx="0.129417" ry="0.452905" transform="matrix(0.6384 -0.769705 0.769283 0.638908 51.0613 49.8948)" fill="#EFDFA7"/>
<ellipse cx="0.129123" cy="0.452533" rx="0.129123" ry="0.452533" transform="matrix(0.822479 -0.568796 0.568279 0.822836 49.5906 51.0316)" fill="#EFDFA7"/>
<ellipse cx="0.129024" cy="0.452881" rx="0.129024" ry="0.452881" transform="matrix(0.938402 -0.345546 0.345137 0.938552 48.0671 49.4451)" fill="#EFDFA7"/>
<ellipse cx="0.129073" cy="0.452708" rx="0.129073" ry="0.452708" transform="matrix(0.882514 -0.470286 0.469794 0.882776 48.3691 51.2925)" fill="#EFDFA7"/>
<ellipse cx="0.129144" cy="0.452458" rx="0.129144" ry="0.452458" transform="matrix(0.795463 -0.606003 0.605488 0.795855 49.1755 53.1565)" fill="#EFDFA7"/>
<ellipse cx="0.129417" cy="0.452905" rx="0.129417" ry="0.452905" transform="matrix(0.6384 -0.769705 0.769283 0.638908 50.9941 53.6264)" fill="#EFDFA7"/>
<ellipse cx="0.129123" cy="0.452533" rx="0.129123" ry="0.452533" transform="matrix(0.822479 -0.568796 0.568279 0.822836 49.5234 54.7631)" fill="#EFDFA7"/>
<ellipse cx="0.129024" cy="0.452881" rx="0.129024" ry="0.452881" transform="matrix(0.938402 -0.345546 0.345137 0.938552 48 53.1767)" fill="#EFDFA7"/>
<ellipse cx="0.129073" cy="0.452708" rx="0.129073" ry="0.452708" transform="matrix(0.882514 -0.470286 0.469794 0.882776 48.302 55.0241)" fill="#EFDFA7"/>
<ellipse cx="0.129144" cy="0.452458" rx="0.129144" ry="0.452458" transform="matrix(0.538476 -0.842641 0.842292 0.539021 52.7898 45.492)" fill="#EFDFA7"/>
<ellipse cx="0.129417" cy="0.452905" rx="0.129417" ry="0.452905" transform="matrix(0.334688 -0.942329 0.942108 0.33531 54.6589 45.3076)" fill="#EFDFA7"/>
<ellipse cx="0.129123" cy="0.452533" rx="0.129123" ry="0.452533" transform="matrix(0.576641 -0.816998 0.816635 0.577154 53.6689 46.8809)" fill="#EFDFA7"/>
<ellipse cx="0.129024" cy="0.452881" rx="0.129024" ry="0.452881" transform="matrix(0.762282 -0.647244 0.646913 0.762564 51.6929 45.9152)" fill="#EFDFA7"/>
<ellipse cx="0.129073" cy="0.452708" rx="0.129073" ry="0.452708" transform="matrix(0.666898 -0.745149 0.744778 0.667313 52.6118 47.546)" fill="#EFDFA7"/>
<ellipse cx="0.129144" cy="0.452458" rx="0.129144" ry="0.452458" transform="matrix(-0.254198 -0.967152 0.967316 -0.253572 56.4326 42.1492)" fill="#EFDFA7"/>
<ellipse cx="0.129417" cy="0.452905" rx="0.129417" ry="0.452905" transform="matrix(-0.465653 -0.884968 0.885275 -0.465068 57.5647 40.6503)" fill="#EFDFA7"/>
<ellipse cx="0.129123" cy="0.452533" rx="0.129123" ry="0.452533" transform="matrix(-0.209471 -0.977815 0.977946 -0.208857 58.0496 42.4448)" fill="#EFDFA7"/>
<ellipse cx="0.129024" cy="0.452881" rx="0.129024" ry="0.452881" transform="matrix(0.0411748 -0.999152 0.999134 0.0416096 56 43.2424)" fill="#EFDFA7"/>
<ellipse cx="0.129073" cy="0.452708" rx="0.129073" ry="0.452708" transform="matrix(-0.0954624 -0.995433 0.995486 -0.0949078 57.8218 43.6728)" fill="#EFDFA7"/>
<ellipse cx="0.129144" cy="0.452458" rx="0.129144" ry="0.452458" transform="matrix(-0.543778 -0.839229 0.839581 -0.543235 49.5823 38.4569)" fill="#EFDFA7"/>
<ellipse cx="0.129417" cy="0.452905" rx="0.129417" ry="0.452905" transform="matrix(-0.718947 -0.695065 0.695539 -0.718488 50.189 36.6793)" fill="#EFDFA7"/>
<ellipse cx="0.129123" cy="0.452533" rx="0.129123" ry="0.452533" transform="matrix(-0.504626 -0.863338 0.863655 -0.504084 51.2104 38.2323)" fill="#EFDFA7"/>
<ellipse cx="0.129024" cy="0.452881" rx="0.129024" ry="0.452881" transform="matrix(-0.273209 -0.961955 0.962073 -0.272791 49.5129 39.6306)" fill="#EFDFA7"/>
<ellipse cx="0.129073" cy="0.452708" rx="0.129073" ry="0.452708" transform="matrix(-0.401837 -0.915711 0.915935 -0.401327 51.3779 39.47)" fill="#EFDFA7"/>
<ellipse cx="0.129144" cy="0.452458" rx="0.129144" ry="0.452458" transform="matrix(0.685003 0.72854 -0.728984 0.684531 38.699 48.1672)" fill="#EFDFA7"/>
<ellipse cx="0.129417" cy="0.452905" rx="0.129417" ry="0.452905" transform="matrix(0.831588 0.555393 -0.555942 0.831221 38.4197 50.0246)" fill="#EFDFA7"/>
<ellipse cx="0.129123" cy="0.452533" rx="0.129123" ry="0.452533" transform="matrix(0.650789 0.759259 -0.759667 0.650312 37.137 48.6791)" fill="#EFDFA7"/>
<ellipse cx="0.129024" cy="0.452881" rx="0.129024" ry="0.452881" transform="matrix(0.440722 0.897644 -0.897836 0.440331 38.5574 47)" fill="#EFDFA7"/>
<ellipse cx="0.129073" cy="0.452708" rx="0.129073" ry="0.452708" transform="matrix(0.559014 0.829158 -0.829469 0.558553 36.751 47.4913)" fill="#EFDFA7"/>
<ellipse cx="0.129144" cy="0.452458" rx="0.129144" ry="0.452458" transform="matrix(0.995515 0.0946077 -0.0952519 0.995453 45.1392 47.7829)" fill="#EFDFA7"/>
<ellipse cx="0.129417" cy="0.452905" rx="0.129417" ry="0.452905" transform="matrix(0.991221 -0.132215 0.131561 0.991308 46.156 49.362)" fill="#EFDFA7"/>
<ellipse cx="0.129123" cy="0.452533" rx="0.129123" ry="0.452533" transform="matrix(0.990113 0.14027 -0.140891 0.990025 44.3044 49.1989)" fill="#EFDFA7"/>
<ellipse cx="0.129024" cy="0.452881" rx="0.129024" ry="0.452881" transform="matrix(0.923782 0.38292 -0.383322 0.923615 44.262 47)" fill="#EFDFA7"/>
<ellipse cx="0.129073" cy="0.452708" rx="0.129073" ry="0.452708" transform="matrix(0.96737 0.253368 -0.253907 0.967229 43.23 48.562)" fill="#EFDFA7"/>
<ellipse cx="0.129424" cy="0.452881" rx="0.129424" ry="0.452881" transform="matrix(0.574232 -0.818693 0.81833 0.574749 56 47.9942)" fill="#EFDFA7"/>
<ellipse cx="0.129441" cy="0.452824" rx="0.129441" ry="0.452824" transform="matrix(0.375004 -0.927023 0.926848 0.375437 57.8755 47.89)" fill="#EFDFA7"/>
<ellipse cx="0.12942" cy="0.452895" rx="0.12942" ry="0.452895" transform="matrix(0.611244 -0.791442 0.791045 0.611758 56.8186 49.4196)" fill="#EFDFA7"/>
<ellipse cx="0.129399" cy="0.452971" rx="0.129399" ry="0.452971" transform="matrix(0.789354 -0.613939 0.613425 0.789753 54.886 48.3702)" fill="#EFDFA7"/>
<ellipse cx="0.129411" cy="0.452929" rx="0.129411" ry="0.452929" transform="matrix(0.698294 -0.715811 0.715342 0.698775 55.7339 50.0388)" fill="#EFDFA7"/>
<ellipse cx="0.129452" cy="0.452783" rx="0.129452" ry="0.452783" transform="matrix(-0.0851877 -0.996365 0.996355 -0.0853014 52.887 41.8508)" fill="#EFDFA7"/>
<ellipse cx="0.129445" cy="0.45281" rx="0.129445" ry="0.45281" transform="matrix(-0.307437 -0.951568 0.951447 -0.307811 54.2576 40.5659)" fill="#EFDFA7"/>
<ellipse cx="0.129453" cy="0.452781" rx="0.129453" ry="0.452781" transform="matrix(-0.0393367 -0.999226 0.999224 -0.0393895 54.429 42.4176)" fill="#EFDFA7"/>
<ellipse cx="0.129449" cy="0.452795" rx="0.129449" ry="0.452795" transform="matrix(0.211014 -0.977483 0.977424 0.211285 52.2742 42.8551)" fill="#EFDFA7"/>
<ellipse cx="0.129452" cy="0.452783" rx="0.129452" ry="0.452783" transform="matrix(0.0758939 -0.997116 0.997108 0.0759953 53.9949 43.5894)" fill="#EFDFA7"/>
<ellipse cx="0.129406" cy="0.452946" rx="0.129406" ry="0.452946" transform="matrix(-0.736449 -0.676493 0.676 -0.736902 53.1785 37.4233)" fill="#EFDFA7"/>
<ellipse cx="0.129084" cy="0.45267" rx="0.129084" ry="0.45267" transform="matrix(-0.869999 -0.493054 0.492553 -0.870282 53.3198 35.5491)" fill="#EFDFA7"/>
<ellipse cx="0.12941" cy="0.452932" rx="0.12941" ry="0.452932" transform="matrix(-0.704579 -0.709625 0.709152 -0.705056 54.6975 36.7971)" fill="#EFDFA7"/>
<ellipse cx="0.129431" cy="0.452859" rx="0.129431" ry="0.452859" transform="matrix(-0.505317 -0.862934 0.862638 -0.505822 53.406 38.5778)" fill="#EFDFA7"/>
<ellipse cx="0.12942" cy="0.452897" rx="0.12942" ry="0.452897" transform="matrix(-0.618199 -0.786022 0.785619 -0.618711 55.1699 37.9541)" fill="#EFDFA7"/>
<ellipse cx="0.129402" cy="0.45296" rx="0.129402" ry="0.45296" transform="matrix(0.766159 0.642651 -0.642145 0.766583 42.6982 45.4123)" fill="#EFDFA7"/>
<ellipse cx="0.129066" cy="0.452734" rx="0.129066" ry="0.452734" transform="matrix(0.89132 0.453375 -0.452891 0.891566 42.6416 47.2909)" fill="#EFDFA7"/>
<ellipse cx="0.129406" cy="0.452946" rx="0.129406" ry="0.452946" transform="matrix(0.735811 0.677187 -0.676694 0.736264 41.209 46.1063)" fill="#EFDFA7"/>
<ellipse cx="0.129427" cy="0.452871" rx="0.129427" ry="0.452871" transform="matrix(0.54364 0.839319 -0.838985 0.544154 42.4194 44.2692)" fill="#EFDFA7"/>
<ellipse cx="0.129416" cy="0.452911" rx="0.129416" ry="0.452911" transform="matrix(0.652952 0.757399 -0.756966 0.653455 40.6853 44.9717)" fill="#EFDFA7"/>
<defs>
<linearGradient id="paint0_linear_192_875" x1="15.5" y1="30.5" x2="20.5" y2="55" gradientUnits="userSpaceOnUse">
<stop stop-color="#F5B10F"/>
<stop offset="1" stop-color="#EA860F"/>
</linearGradient>
</defs>
</svg>
