<svg width="64" height="64" viewBox="0 0 64 64" fill="none" xmlns="http://www.w3.org/2000/svg">
<path d="M17.8205 13.6455C15.4383 16.3297 13.0837 16.8063 11.0688 17.2141C10.7606 17.2765 10.4604 17.3373 10.1692 17.4041C10.2301 16.8377 10.2694 16.3236 10.3055 15.8504C10.3132 15.7506 10.3207 15.6527 10.3282 15.5565C10.3866 14.8085 10.4467 14.1711 10.5837 13.5502C10.8511 12.3374 11.4234 11.1355 12.9753 9.38679C14.488 7.68219 16.1132 6.92605 17.7166 6.48925C18.513 6.27229 19.3014 6.13473 20.0841 5.99813L20.1245 5.99108C20.6029 5.90759 21.082 5.82354 21.5499 5.72058C21.4266 6.14786 21.3187 6.56245 21.2124 6.97072C20.6651 9.07298 20.1614 11.0078 17.8205 13.6455Z" fill="#729826" stroke="#9EAB71" stroke-linecap="round" stroke-linejoin="round"/>
<path d="M23.5375 5.79766C21.6381 7.94862 22.036 11.2077 21.6381 11.2077C21.2402 11.2077 21.0486 8.27453 21.6381 5.79766C22.8825 3.77707 23.8649 2.47346 24.7819 2.73418C26.5452 3.23556 24.3234 4.49405 23.5375 5.79766Z" fill="#572F1F"/>
<path d="M32.7723 31.3484C37.1605 38.1272 37.75 55.7912 19.7386 57.2903C13.517 57.2903 0.220816 47.2525 8.80081 30.7618C13.713 19.3552 14.1719 8.33971 20.3936 8.33971C26.6152 8.33971 27.6636 22.3535 32.7723 31.3484Z" fill="url(#paint0_linear_191_872)"/>
<path fill-rule="evenodd" clip-rule="evenodd" d="M31.0209 18.7686C30.9931 18.7831 30.9664 18.7987 30.9408 18.8154C29.7007 19.6214 31.0209 22.875 31.0209 22.875C31.0209 22.875 28.4011 20.3329 27.2222 20.9847C26.0433 21.6365 25.7813 26.0688 27.2222 28.3501C28.6631 30.6315 29.9865 35.0004 31.0209 39.6916C31.4901 41.819 31.4389 43.6736 31.3895 45.4676C31.3243 47.8311 31.2621 50.0893 32.3964 52.7277C34.0055 56.4704 35.4056 58.8879 39.0115 60.8101C43.4307 63.1658 51.2592 61.3967 51.8487 60.8101C52.4381 60.2234 52.5691 59.3109 52.5691 59.3109C52.5691 59.3109 53.2241 59.5064 54.3375 59.1154C55.451 58.7243 57.3503 55.2045 57.8088 54.0313C58.2673 52.858 57.9196 47.2063 56.5644 43.1461C55.388 39.6219 53.9606 37.3649 51.2592 34.803C49.6955 33.3201 48.163 32.6166 46.6717 31.932C45.5566 31.4201 44.4645 30.9187 43.3997 30.11C42.1135 29.1332 40.8973 27.3209 39.6698 25.4916C38.5218 23.7811 37.364 22.0556 36.1296 20.9847C33.5753 18.7686 32.3963 18.0516 31.0209 18.7686Z" fill="#F7F0E6"/>
<path d="M27.2222 20.9847C28.4011 20.3329 31.0209 22.875 31.0209 22.875C31.0209 22.875 29.7007 19.6214 30.9408 18.8154L27.2222 20.9847Z" fill="#EBD737"/>
<path d="M31.0209 18.7686C32.3963 18.0516 33.5753 18.7686 36.1296 20.9847C37.364 22.0556 38.5218 23.7811 39.6698 25.4916C40.8973 27.3209 42.1135 29.1332 43.3997 30.11C44.4645 30.9187 45.5566 31.4201 46.6717 31.932C48.163 32.6166 49.6955 33.3201 51.2592 34.803C53.9606 37.3649 55.388 39.6219 56.5644 43.1461C57.9196 47.2063 58.2673 52.858 57.8088 54.0313C57.3503 55.2045 55.451 58.7243 54.3375 59.1154C53.2241 59.5064 52.5691 59.3109 52.5691 59.3109C52.5691 59.3109 52.4381 60.2234 51.8487 60.8101C51.2592 61.3967 43.4307 63.1658 39.0115 60.8101C35.4056 58.8879 34.0055 56.4704 32.3964 52.7277C31.2621 50.0893 31.3243 47.8311 31.3895 45.4676C31.4389 43.6736 31.4901 41.819 31.0209 39.6916C29.9865 35.0004 28.6631 30.6315 27.2222 28.3501C25.7813 26.0688 26.0433 21.6365 27.2222 20.9847M31.0209 18.7686C30.9931 18.7831 30.9664 18.7987 30.9408 18.8154M31.0209 18.7686L30.9408 18.8154M27.2222 20.9847C28.4011 20.3329 31.0209 22.875 31.0209 22.875C31.0209 22.875 29.7007 19.6214 30.9408 18.8154M27.2222 20.9847L30.9408 18.8154" stroke="#EBD737"/>
<path d="M28.4012 19.0945L30.9555 22.9402L31.0865 22.8098L29.3836 18.8338C29.3836 18.8338 27.3532 14.7274 27.0258 14.7274C26.6983 14.7274 26.0433 15.314 26.1743 15.5747C26.3053 15.8355 28.4012 19.0945 28.4012 19.0945Z" fill="#474326"/>
<path d="M47.7605 51.2285C47.7605 51.2285 42.2109 50.6644 40.5177 48.0998C38.6893 45.3306 40.9598 39.6264 40.9598 39.6264C40.9598 39.6264 46.5166 39.0843 48.5737 41.3211C51.2074 44.1847 47.7605 51.2285 47.7605 51.2285Z" fill="#F5EDCB"/>
<path d="M31.2173 23.0053L40.9598 39.6264M52.5035 59.2457L47.7605 51.2285M47.7605 51.2285C47.7605 51.2285 42.2109 50.6644 40.5177 48.0998C38.6893 45.3306 40.9598 39.6264 40.9598 39.6264M47.7605 51.2285L40.9598 39.6264M47.7605 51.2285C47.7605 51.2285 51.2074 44.1847 48.5737 41.3211C46.5166 39.0843 40.9598 39.6264 40.9598 39.6264" stroke="#F5EDCB"/>
<ellipse cx="0.457767" cy="1.82789" rx="0.457767" ry="1.82789" transform="matrix(0.825947 -0.563747 0.567461 0.8234 41.4604 45.0278)" fill="#4B2812"/>
<ellipse cx="0.457767" cy="1.82789" rx="0.457767" ry="1.82789" transform="matrix(0.825947 -0.563747 0.567461 0.8234 45.0371 42.489)" fill="#4B2812"/>
<defs>
<linearGradient id="paint0_linear_191_872" x1="34.2787" y1="37.9317" x2="5.6867" y2="42.8655" gradientUnits="userSpaceOnUse">
<stop offset="0.525" stop-color="#F6D550"/>
<stop offset="1" stop-color="#D7784C"/>
</linearGradient>
</defs>
</svg>
