<svg width="64" height="64" viewBox="0 0 64 64" fill="none" xmlns="http://www.w3.org/2000/svg">
<path d="M2 34.7423C2 47.8786 10.1769 58.5278 20.2636 58.5278C25.1459 58.5278 29.5807 56.0328 32.8574 51.9685C32.8574 51.9685 33.163 43.5983 32.0001 38.4525C30.7445 32.8971 29.7356 29.5776 26.4143 25.069C24.0064 21.8004 22.1586 20.3548 18.9456 17.9798C16.2988 16.0232 11.7281 13.7088 11.7281 13.7088C5.94192 17.6996 2 25.6214 2 34.7423Z" fill="url(#paint0_linear_192_879)"/>
<path d="M38.5273 34.7423C38.5273 21.6059 30.3504 10.9568 20.2636 10.9568C17.1803 10.9568 14.2755 11.9518 11.7281 13.7088C11.7281 13.7088 16.2988 16.0232 18.9456 17.9798C22.1586 20.3548 24.0064 21.8004 26.4143 25.069C29.7356 29.5776 30.7445 32.8971 32.0001 38.4525C33.163 43.5983 32.8574 51.9685 32.8574 51.9685C36.3504 47.636 38.5273 41.5202 38.5273 34.7423Z" fill="url(#paint1_linear_192_879)"/>
<path d="M18.6947 17.8473C18.6947 17.8473 18.6328 12.9946 18.0671 9.96294C17.6233 7.58474 16.4353 4 16.4353 4L19.0713 4.59629C19.0713 4.59629 19.7595 8.17266 19.7617 10.493C19.7639 12.9229 19.3161 16.7636 19.0713 17.8473C19.0234 18.0594 18.6947 17.8473 18.6947 17.8473Z" fill="#6B2B0F"/>
<path d="M27.795 6.18641C24.5795 5.96564 19.7615 8.17406 19.7615 8.17406C19.7615 8.17406 24.7621 8.29123 27.795 9.23414C31.2228 10.2998 33.7272 10.6567 35.954 13.607C37.5879 15.7717 38.463 17.4676 38.3389 20.2324C38.2786 21.577 37.5544 23.5783 37.5544 23.5783C37.5544 23.5783 39.7158 20.6664 39.9707 18.4436C40.3194 15.4041 39.1871 13.4986 37.3975 11.0893C34.8271 7.62881 31.9518 6.47182 27.795 6.18641Z" fill="#649142"/>
<path d="M35.954 22.6839C36.2433 25.0426 35.1381 28.7131 35.1381 28.7131L37.5544 23.5783C37.5544 23.5783 38.2786 21.577 38.3389 20.2324C38.463 17.4676 37.5879 15.7717 35.954 13.607C33.7272 10.6567 31.2228 10.2998 27.795 9.23414C24.7621 8.29123 19.7615 8.17406 19.7615 8.17406C19.7615 8.17406 21.9602 13.4675 25.5983 15.1308C28.5516 16.4811 30.7879 14.642 33.3807 16.6547C35.3516 18.1845 35.6398 20.1228 35.954 22.6839Z" fill="#60A12A"/>
<path fill-rule="evenodd" clip-rule="evenodd" d="M60.0544 39.0488C60.0544 39.0488 57.9131 35.3433 55.8494 33.7484C52.2418 30.9604 48.8971 31.3353 44.7411 31.8011C44.0535 31.8781 43.3436 31.9577 42.6067 32.0258C37.049 32.5396 33.0151 35.6305 29.8387 38.0642C29.7848 38.1055 29.7312 38.1466 29.6778 38.1875C26.7912 40.3982 26.4386 43.2424 26.6653 46.9994C26.9552 51.8043 28.4727 53.637 32.0627 56.6064C36.0823 59.931 39.6348 60.0652 44.7406 59.9854C49.2104 59.9155 52.136 59.6975 55.8494 57.0702C58.9881 54.8494 62 49.1858 62 49.1858L56.6025 44.1505L60.0544 39.0488Z" fill="url(#paint2_radial_192_879)"/>
<path d="M60.0544 39.0488L56.6025 44.1505L62 49.1858C59.7312 45.0945 59.2178 42.8674 60.0544 39.0488Z" fill="#221631"/>
<path d="M60.0544 39.0488L56.6025 44.1505L62 49.1858M60.0544 39.0488C60.0544 39.0488 57.9131 35.3433 55.8494 33.7484C52.2418 30.9604 48.8971 31.3353 44.7411 31.8011C44.0535 31.8781 43.3436 31.9577 42.6067 32.0258C37.049 32.5396 33.0151 35.6305 29.8387 38.0642C29.7848 38.1055 29.7312 38.1466 29.6778 38.1875C26.7912 40.3982 26.4386 43.2424 26.6653 46.9994C26.9552 51.8043 28.4727 53.637 32.0627 56.6064C36.0823 59.931 39.6348 60.0652 44.7406 59.9854C49.2104 59.9155 52.136 59.6975 55.8494 57.0702C58.9881 54.8494 62 49.1858 62 49.1858M60.0544 39.0488C59.2178 42.8674 59.7312 45.0945 62 49.1858" stroke="#221631" stroke-width="0.5" stroke-linejoin="round"/>
<path d="M57.6066 43.0904V44.813C57.6066 44.813 54.4444 48.9279 51.6443 50.3122C48.4699 51.8814 46.1367 52.3191 42.7321 51.4385C39.6283 50.6357 35.8284 46.8006 35.8284 46.8006C35.8284 46.8006 39.4263 41.9652 42.7321 40.7052C46.0057 39.4575 48.2414 39.934 51.6443 40.7052C54.0788 41.257 57.6066 43.0904 57.6066 43.0904Z" fill="url(#paint3_linear_192_879)"/>
<defs>
<linearGradient id="paint0_linear_192_879" x1="11" y1="40.5" x2="27" y2="33.5" gradientUnits="userSpaceOnUse">
<stop stop-color="#230138"/>
<stop offset="1" stop-color="#36154B"/>
</linearGradient>
<linearGradient id="paint1_linear_192_879" x1="31.5" y1="30.5" x2="22" y2="32" gradientUnits="userSpaceOnUse">
<stop stop-color="#230138"/>
<stop offset="1" stop-color="#36154B"/>
</linearGradient>
<radialGradient id="paint2_radial_192_879" cx="0" cy="0" r="1" gradientUnits="userSpaceOnUse" gradientTransform="translate(48 46) rotate(175.486) scale(19.0591 11.1114)">
<stop stop-color="#FEE59C"/>
<stop offset="1" stop-color="#DABF4D"/>
</radialGradient>
<linearGradient id="paint3_linear_192_879" x1="46.6861" y1="44.813" x2="48.0796" y2="51.875" gradientUnits="userSpaceOnUse">
<stop stop-color="#F59F5A"/>
<stop offset="1" stop-color="#974D07"/>
</linearGradient>
</defs>
</svg>
