<svg width="64" height="64" viewBox="0 0 64 64" fill="none" xmlns="http://www.w3.org/2000/svg">
<ellipse cx="5.16964" cy="6.57801" rx="5.16964" ry="6.57801" transform="matrix(0.850094 0.526632 -0.498322 0.866992 19.7974 10.6039)" fill="#B67112"/>
<ellipse cx="5.16964" cy="6.57801" rx="5.16964" ry="6.57801" transform="matrix(0.850094 0.526632 -0.498322 0.866992 28.8206 9.76501)" fill="#A46611"/>
<ellipse cx="5.18957" cy="6.55344" rx="5.18957" ry="6.55344" transform="matrix(0.786512 -0.617575 0.588829 0.808258 35.0586 17.0138)" fill="#A46611"/>
<ellipse cx="5.18957" cy="6.55344" rx="5.18957" ry="6.55344" transform="matrix(0.786512 -0.617575 0.588829 0.808258 40.8499 20.0898)" fill="#B67112"/>
<path fill-rule="evenodd" clip-rule="evenodd" d="M32.0284 14.8681C31.5122 16.5226 28.2576 19.3422 28.2576 19.3422V22.9774C28.2576 22.9774 34.9259 18.1963 36.4054 13.4699C37.0375 11.4504 36.6048 10.1348 37.1461 8.08699C37.8085 5.58091 39.7722 2.0167 39.7722 2.0167C38.8847 1.99328 37.8892 2.05687 37.1461 2.21471C35.2668 2.61387 32.8365 4.17213 32.8365 4.66149C32.8365 4.81439 32.919 5.16092 33.0292 5.62408C33.2719 6.64323 33.6489 8.22708 33.5772 9.55506C33.4958 11.0635 33.0263 12.2464 32.5745 13.3849C32.3781 13.8799 32.1849 14.3666 32.0284 14.8681Z" fill="#446624"/>
<path d="M39.0315 6.96846C39.6489 5.02707 41.4556 3.26333 41.8597 2.63416C42.0978 2.26329 41.0464 2.05033 39.7722 2.0167C39.7722 2.0167 37.8085 5.58091 37.1461 8.08699C36.6048 10.1348 37.0375 11.4504 36.4054 13.4699C34.9259 18.1963 28.2576 22.9774 28.2576 22.9774L36.4054 25.2844L41.4556 19.3422C41.4556 19.3422 39.4822 15.611 39.0315 12.9806C38.6354 10.669 38.3225 9.19795 39.0315 6.96846Z" fill="#39591C"/>
<path d="M2.00006 36.9593C2.00006 47.8857 2.80321 55.9743 11.0183 57.0928C16.6747 55.9043 19.7954 47.5361 19.7954 36.6097C19.7954 25.6833 20.8734 18.5035 15.0586 18.5035C9.40224 18.5035 2.00006 24.3758 2.00006 36.9593Z" fill="#C67E1B"/>
<path d="M61.956 38.5671C61.3201 49.7524 54.6537 57.722 48.8975 57.1627C43.2412 55.9743 44.1607 49.144 44.1607 38.2176C44.1607 27.2912 43.0826 20.1114 48.8975 20.1114C54.5538 20.1114 62.6701 26.0056 61.956 38.5671Z" fill="#C67E1B"/>
<path d="M53.9396 37.3088C53.9396 48.2352 49.4013 59.3298 42.6002 58.8405C35.3278 58.8405 37.3746 48.2352 37.3746 37.3088C37.3746 26.3824 37.0786 17.6646 43.0043 17.6646C49.1993 17.6646 54.7882 24.9351 53.9396 37.3088Z" fill="#D78E28"/>
<path d="M12.0966 36.7496C12.0966 47.676 10.5478 58.8405 21.7931 60.1688C29.0656 60.1688 29.8919 47.3264 29.8919 36.4C29.8919 25.4736 30.592 16.6161 24.6663 16.6161C18.4713 16.6161 12.0966 24.1661 12.0966 36.7496Z" fill="#D78E28"/>
<path d="M42.7352 38.7769C42.7352 49.7033 39.4357 62.4757 32.6346 61.9864C25.3622 61.9864 26.1703 49.7033 26.1703 38.7769C26.1703 27.8505 29.4698 16.8257 35.3955 16.8257C41.5905 16.8257 42.7352 27.8505 42.7352 38.7769Z" fill="#E89A2D"/>
<path d="M29.9411 33.7435C29.9411 41.89 29.301 45.3482 28.5944 45.3482C27.8878 45.3482 27.3823 41.89 27.3823 33.7435C27.3823 25.5969 31.928 19.8318 32.6346 19.8318C33.3412 19.8318 29.9411 25.5969 29.9411 33.7435Z" fill="#F0B158"/>
<path d="M39.1659 2.73143C39.2512 3.02724 37.8879 3.49848 36.3203 3.98528C34.7527 4.47208 33.3257 5.05445 33.2405 4.75864C33.1552 4.46283 34.444 3.40085 36.0117 2.91405C37.5793 2.42725 39.0807 2.43562 39.1659 2.73143Z" fill="#567935"/>
</svg>
