<svg width="64" height="64" viewBox="0 0 64 64" fill="none" xmlns="http://www.w3.org/2000/svg">
<path d="M32.2719 19.4461C32.2719 28.003 29.4753 31.0349 28.7365 31.0349C27.9978 31.0349 28.7365 28.003 28.7365 19.4461C28.7365 10.8892 36.96 2 37.6987 2C38.4375 2 32.2719 10.8892 32.2719 19.4461Z" fill="#368939"/>
<path d="M28.995 19.95C28.995 27.1851 28.486 33.0503 27.858 33.0503C27.2301 33.0503 26.721 27.1851 26.721 19.95C26.721 12.7149 22.0801 7.47949 22.7081 7.47949C23.336 7.47949 28.995 12.7149 28.995 19.95Z" fill="#4CA94F"/>
<path d="M30.8672 23.54C30.5328 28.7675 30.5068 30.2161 31.1348 30.2161C31.7627 30.2161 31.2657 29.5233 33.3419 22.4063C36.6191 15.7932 40.5912 11.2584 39.9632 11.2584C39.3353 11.2584 31.7367 16.234 30.8672 23.54Z" fill="#4CA94F"/>
<path d="M36.8866 43.3165C36.8866 51.769 25.8298 56.7981 27.2343 60.9549C30.0434 58.2467 43.9465 55.598 43.9465 42.3717C41.0037 31.4128 32.7399 34.31 31.8704 25.3035C27.6568 31.4128 36.8866 34.8639 36.8866 43.3165Z" fill="#701E53"/>
<path d="M18.9622 45.0799C18.9622 53.5325 28.1167 56.7981 26.7122 60.9549C23.9031 58.2467 10 55.598 10 42.3717C12.9428 31.4128 25.7173 32.8614 26.5868 23.8549C30.8004 29.9642 18.9622 36.6274 18.9622 45.0799Z" fill="#701E53"/>
<path d="M30.5327 44.6391C30.5327 53.0916 25.6993 56.7366 27.1038 60.8934C28.2408 57.6813 38.1572 51.2022 38.1572 42.7496C35.9501 33.5542 30.5327 30.531 30.5327 26.8781C27.9911 31.1609 30.5327 36.1865 30.5327 44.6391Z" fill="#8E3276"/>
<path d="M25.985 45.017C25.985 53.4695 28.182 56.7981 26.7775 60.9549C25.6405 57.7428 17.2903 52.2729 17.2903 43.8203C19.4974 34.6249 27.7908 30.468 27.7908 26.8151C30.3323 31.0979 25.985 36.5644 25.985 45.017Z" fill="#8E3276"/>
<path d="M31.3353 45.017C31.3353 53.4696 28.3777 56.7981 26.9731 60.9549C25.8361 57.7428 22.8413 51.706 22.8413 43.2535C25.0484 34.0581 28.3256 32.2946 29.262 29.0195C29.9308 31.1609 31.3353 36.5644 31.3353 45.017Z" fill="#993C8B"/>
<ellipse cx="40.7478" cy="49.7664" rx="13.2522" ry="12.2336" fill="#742142"/>
<ellipse cx="40.7476" cy="49.7664" rx="12.5994" ry="11.7418" fill="#7E275E"/>
<ellipse cx="40.813" cy="50.1352" rx="11.2285" ry="10.6352" fill="#D3CEE5"/>
<ellipse cx="40.8128" cy="50.0123" rx="10.3145" ry="9.89754" fill="#AC85B2"/>
<ellipse cx="41.0089" cy="49.8279" rx="9.33531" ry="8.97541" fill="#CFC8E7"/>
<ellipse cx="41.0091" cy="49.8279" rx="8.16024" ry="8.11475" fill="#874F82"/>
<ellipse cx="40.8133" cy="49.8279" rx="7.31157" ry="7.0082" fill="#DBD0ED"/>
<ellipse cx="40.7477" cy="49.8279" rx="4.89614" ry="4.54918" fill="#874F82"/>
<ellipse cx="40.748" cy="49.8278" rx="2.93769" ry="2.70492" fill="#C3B0D8"/>
<ellipse cx="40.7478" cy="49.7664" rx="1.50148" ry="1.53689" fill="#DBD9E1"/>
</svg>
