<svg width="64" height="64" viewBox="0 0 64 64" fill="none" xmlns="http://www.w3.org/2000/svg">
<path d="M42.9024 25.0892C40.9925 26.2145 38.3674 28.5269 38.3674 28.5269C38.3674 28.5269 42.3738 32.0844 45.528 32.666C47.2827 32.9896 50.0518 34.4622 50.0883 32.6347C50.1055 31.7714 49.1101 30.6587 49.1101 30.6587C49.1101 30.6587 51.3251 32.3801 52.9332 32.2772C54.0827 32.2038 55.9346 32.3022 55.6655 31.1508C55.4558 30.2539 53.6022 30.1001 53.6022 30.1001C53.6022 30.1001 57.4742 30.1815 58.9004 28.5288C59.6051 27.7123 60.3802 27.0786 60.1022 26.0209C59.7852 24.8149 58.4898 24.897 57.3082 24.5981C56.0319 24.2752 53.9466 24.583 53.9466 24.583C53.9466 24.583 54.9921 23.5267 55.0884 22.6467C55.3091 20.6302 51.9733 22.8972 50.1065 23.5579C48.4161 24.1562 46.0329 25.6981 46.0329 25.6981C46.0329 25.6981 47.4695 24.1971 47.2979 23.0582C47.0095 21.143 44.5345 24.1275 42.9024 25.0892Z" fill="#318421"/>
<path d="M48.7629 28.9037C53.1189 28.1 58.1141 26.5206 58.1141 26.5206L48.0315 27.9064C48.0315 27.9064 46.9229 28.0803 46.2086 28.1569C44.4228 28.3485 43.4084 28.2478 41.6141 28.3061L33.7222 28.5624L33.5793 30.3044L43.6021 29.4877C43.6021 29.4877 45.326 29.3787 46.4262 29.2575C47.1583 29.1769 47.9495 29.0538 48.7629 28.9037Z" fill="#6C274C"/>
<path d="M41.6141 28.3061C38.5321 28.4062 33.7222 28.5624 33.7222 28.5624L33.5793 30.3044L43.6021 29.4877M41.6141 28.3061C43.4084 28.2478 44.4228 28.3485 46.2086 28.1569C46.9229 28.0803 48.0315 27.9064 48.0315 27.9064M41.6141 28.3061C43.8179 27.8351 45.1789 26.08 44.492 25.7429M48.0315 27.9064L58.1141 26.5206C58.1141 26.5206 51.0791 28.7449 46.4262 29.2575C45.326 29.3787 43.6021 29.4877 43.6021 29.4877M48.0315 27.9064C49.3306 25.9862 50.2045 25.2987 52.0239 24.794M43.6021 29.4877C45.7126 29.8804 46.4082 30.1738 46.6187 30.8547M48.524 28.7663C49.7348 29.4726 50.4839 29.7795 52.095 29.9757" stroke="#6C274C" stroke-linecap="round" stroke-linejoin="round"/>
<path d="M33.2696 17.056C32.5306 19.4886 32.0724 23.4807 32.0724 23.4807C32.0724 23.4807 37.9336 23.3912 40.9317 21.4409C42.5995 20.356 45.9323 19.4587 44.6309 17.8823C44.016 17.1376 42.3932 16.966 42.3932 16.966C42.3932 16.966 45.4548 16.7086 46.6925 15.376C47.5771 14.4234 49.1603 13.0725 48.1019 12.3055C47.2775 11.7081 45.6526 13.0135 45.6526 13.0135C45.6526 13.0135 48.8722 10.0835 48.8324 7.57881C48.8127 6.34128 48.9837 5.20411 47.9864 4.52347C46.8492 3.74731 45.8517 4.8203 44.6697 5.48219C43.3928 6.19718 41.915 8.07309 41.915 8.07309C41.915 8.07309 41.9988 6.36848 41.4364 5.54838C40.1477 3.66921 39.0765 8.17339 38.0341 10.179C37.0902 11.9951 36.2683 15.1471 36.2683 15.1471C36.2683 15.1471 36.3474 12.763 35.3778 11.931C33.7474 10.532 33.9012 14.9772 33.2696 17.056Z" fill="#348524"/>
<path d="M40.8022 15.6434C43.7727 11.5913 46.7002 6.38798 46.7002 6.38798L39.4788 15.3655C39.4788 15.3655 38.7005 16.3709 38.1733 16.9886C36.855 18.5331 35.9536 19.2332 34.5314 20.6715L28.2759 26.9974L29.4277 28.5822L37.0146 20.1325C37.0146 20.1325 38.3426 18.7058 39.1523 17.7516C39.6912 17.1166 40.2475 16.4001 40.8022 15.6434Z" fill="#6A264A"/>
<path d="M34.5314 20.6715C32.0885 23.1419 28.2759 26.9974 28.2759 26.9974L29.4277 28.5822L37.0146 20.1325M34.5314 20.6715C35.9536 19.2332 36.855 18.5331 38.1733 16.9886C38.7005 16.3709 39.4788 15.3655 39.4788 15.3655M34.5314 20.6715C35.9875 18.5669 35.8204 16.0281 35.0141 16.2746M39.4788 15.3655L46.7002 6.38798C46.7002 6.38798 42.5772 13.7161 39.1523 17.7516C38.3426 18.7058 37.0146 20.1325 37.0146 20.1325M39.4788 15.3655C39.141 12.7349 39.3539 11.4767 40.4715 9.64124M37.0146 20.1325C39.0234 18.8312 39.8049 18.541 40.4724 18.9542M40.5071 15.712C42.0097 15.3725 42.8447 15.0523 44.3028 13.9712" stroke="#6A264A" stroke-linecap="round" stroke-linejoin="round"/>
<path d="M40.346 18.0347C38.7819 20.4459 37.0508 24.6399 37.0508 24.6399C37.0508 24.6399 43.5681 26.3836 47.4857 25.206C49.665 24.551 53.6304 24.6227 52.6726 22.501C52.2201 21.4988 50.4758 20.8026 50.4758 20.8026C50.4758 20.8026 53.9448 21.4845 55.7237 20.4251C56.9953 19.6679 59.1624 18.6972 58.2257 17.5314C57.496 16.6233 55.2966 17.5314 55.2966 17.5314C55.2966 17.5314 59.7598 15.3588 60.4835 12.6247C60.8411 11.2738 61.3791 10.0918 60.4835 9.03901C59.4622 7.83841 58.0288 8.69105 56.517 9.03901C54.884 9.41487 52.6726 10.9891 52.6726 10.9891C52.6726 10.9891 53.288 9.16319 52.9167 8.09541C52.0658 5.64869 49.4989 10.2066 47.7298 12.0585C46.1279 13.7355 44.2515 16.9023 44.2515 16.9023C44.2515 16.9023 45.07 14.3365 44.2515 13.1279C42.875 11.0956 41.6826 15.9742 40.346 18.0347Z" fill="#429F2F"/>
<path d="M49.1163 18.9108C53.6699 15.454 58.5304 10.7375 58.5304 10.7375L47.7294 18.196C47.7294 18.196 46.5537 19.0407 45.7767 19.5444C43.834 20.8039 42.6154 21.2797 40.5897 22.3916L31.6804 27.282L32.4737 29.3579L43.5188 22.5851C43.5188 22.5851 45.436 21.4562 46.631 20.6768C47.4263 20.158 48.2659 19.5564 49.1163 18.9108Z" fill="#6C274C"/>
<path d="M40.5897 22.3916C37.1104 24.3014 31.6804 27.282 31.6804 27.282L32.4737 29.3579L43.5188 22.5851M40.5897 22.3916C42.6154 21.2797 43.834 20.8039 45.7767 19.5444C46.5537 19.0407 47.7294 18.196 47.7294 18.196M40.5897 22.3916C42.8583 20.569 43.4545 17.7685 42.4814 17.783M47.7294 18.196L58.5304 10.7375C58.5304 10.7375 51.6851 17.3799 46.631 20.6768C45.436 21.4562 43.5188 22.5851 43.5188 22.5851M47.7294 18.196C48.1639 15.2427 48.7884 13.9473 50.5975 12.3102M43.5188 22.5851C46.1549 21.805 47.1139 21.7353 47.7294 22.3916M48.7668 18.8928C50.5434 18.9954 51.5711 18.9101 53.5266 18.196" stroke="#6C274C" stroke-linecap="round" stroke-linejoin="round"/>
<path d="M37.905 38.1019C37.905 47.0655 30.4737 54.3319 21.3068 54.3319C16.448 54.3319 7.45466 52.256 3 54.7722C5.92909 48.9219 4.70863 42.3144 4.70863 38.1019C4.70863 29.1384 12.1399 21.872 21.3068 21.872C30.4737 21.872 37.905 29.1384 37.905 38.1019Z" fill="#572638"/>
<ellipse cx="41" cy="48.5" rx="13" ry="12.5" fill="#6A142F"/>
<ellipse cx="41" cy="48.5" rx="12" ry="11.5" fill="#891D3F"/>
<ellipse cx="41" cy="48" rx="11" ry="10" fill="#731432"/>
<circle cx="41" cy="48" r="9" fill="#8D1E41"/>
<ellipse cx="41.5" cy="48" rx="7.5" ry="7" fill="#7B1636"/>
<circle cx="41.5" cy="47.5" r="4.5" fill="#8E1C40"/>
<circle cx="41" cy="48" r="3" fill="#7B1737"/>
</svg>
