<svg width="40" height="40" viewBox="0 0 40 40" fill="none" xmlns="http://www.w3.org/2000/svg">
<path d="M30 8.57143V36H10V4H25M30 8.57143L25 4M30 8.57143H25V4M12.5 9.71429L13.75 10.8571L16.25 8.57143M12.5 15.4286L13.75 16.5714L16.25 14.2857M12.5 21.1429L13.75 22.2857L16.25 20M12.5 26.8571L13.75 28L16.25 25.7143M12.5 32L13.75 33.1429L16.25 30.8571M18.125 33.1429H27.5M18.125 27.4286H27.5M18.125 21.7143H27.5M18.125 16H27.5M18.125 10.2857H27.5" stroke="#393A3B" stroke-linecap="round" stroke-linejoin="round"/>
</svg>
