<svg width="64" height="64" viewBox="0 0 64 64" fill="none" xmlns="http://www.w3.org/2000/svg">
<path d="M8 16.1333V40.6667H18.6667M8 16.1333H18.6667M8 16.1333L10.6667 13.0667M18.6667 16.1333V40.6667M18.6667 16.1333L21.3333 13.0667M18.6667 40.6667L21.3333 39.1333M10.6667 13.0667H21.3333M10.6667 13.0667V10H21.3333V13.0667M21.3333 13.0667L22.6667 14.6M21.3333 16.1333V40.6667H32V16.1333M21.3333 16.1333H32M21.3333 16.1333L22.6667 14.6M32 16.1333L34.6667 13.0667M24 13.0667H34.6667M24 13.0667V10H34.6667V13.0667M24 13.0667L22.6667 14.6M34.6667 13.0667L37.3333 16.1333V18.1778M4 42.2H32M60 42.2H56.4444M32 24.3111V48.8444H43.5556M32 24.3111H43.5556M32 24.3111L34.6667 21.2444M43.5556 24.3111L46.2222 21.2444M43.5556 24.3111V33.2407M43.5556 48.8444L48.8889 45.7778L49.3333 45.6289M43.5556 48.8444V36.3062M34.6667 21.2444H46.2222M34.6667 21.2444V18.1778H37.3333M46.2222 21.2444L48.8889 24.3111V27.3778M46.2222 21.2444V18.1778H37.3333M46.2222 34.5333C46.4315 34.6536 46.6407 34.7173 46.8441 34.7377M46.2222 34.5333C45.9005 34.3484 44.822 33.8286 43.5556 33.2407M46.2222 34.5333L46.8441 34.7377M46.8441 34.7377C47.505 34.8038 48.1046 34.413 48.4444 34.0222C48.5678 33.8803 48.7255 33.6596 48.8889 33.4038M46.8441 34.7377L49.3333 35.5556M48.8889 29.9333C48.8889 29.9333 49.7778 30.9556 49.7778 31.4667C49.7778 31.8359 49.314 32.7385 48.8889 33.4038M48.8889 29.9333V27.3778M48.8889 29.9333V33.4038M57.3333 56L51.5556 46.8C51.5556 46.8 50.6703 46.3956 49.3333 45.6289M48.8889 27.3778C48.8889 27.3778 51.3489 29.5926 52.4444 31.4667C54.0677 34.2435 54.6667 39.6444 54.6667 39.6444L56.4444 42.2M60 47.3111L56.4444 42.2M43.5556 33.2407C41.3228 32.2041 38.5058 30.9556 38.2222 30.9556C37.7778 30.9556 37.7778 33 39.1111 34.0222C39.9508 34.666 42.0242 35.5124 43.5556 36.3062M43.5556 36.3062C44.4559 36.773 45.1688 37.2215 45.3333 37.6C45.6734 38.3822 46.0281 40.4126 46.7622 42.2C46.9874 42.7483 47.2484 43.2738 47.5556 43.7333C48.0713 44.5049 48.4816 45.1404 49.3333 45.6289" stroke="#393A3B" stroke-linecap="round" stroke-linejoin="round"/>
</svg>
