<svg width="40" height="40" viewBox="0 0 40 40" fill="none" xmlns="http://www.w3.org/2000/svg">
<path d="M10 30V4H27.5M10 30H27.5M10 30L12.6432 33.5H13.5242M27.5 30V4M27.5 30L30 33.5M27.5 4L30 8.5V33.5M30 33.5H16M23.5 26V18M23.5 18V8L21.7379 9.5V16L23.5 18ZM13.5242 31.5V33.5M16 31.5V33.5M13.5242 33.5V36L14.8458 35L16 36V33.5M16 26V14M16 8V14M16 14L14 13V8M16 14L18 13V8" stroke="url(#paint0_linear_533_666)" stroke-linecap="round" stroke-linejoin="round"/>
<defs>
<linearGradient id="paint0_linear_533_666" x1="20" y1="4" x2="20" y2="36" gradientUnits="userSpaceOnUse">
<stop offset="0.35" stop-color="#F5A230"/>
<stop offset="1" stop-color="#3AB97C"/>
</linearGradient>
</defs>
</svg>
