<svg width="64" height="64" viewBox="0 0 64 64" fill="none" xmlns="http://www.w3.org/2000/svg">
<path d="M29.048 12.7157L19.6072 13.2362C19.7282 13.2921 19.8493 13.3487 19.9702 13.4053C21.3778 14.0634 22.8015 14.729 24.6715 14.5827C26.3443 14.4518 27.5449 13.6805 28.7207 12.9251L28.7227 12.9239C28.831 12.8543 28.9397 12.7845 29.048 12.7157Z" fill="#7D0F1D"/>
<path d="M42.1774 50.0765C42.1774 50.0765 46.218 39.5219 46.0538 32.4872C46.0393 31.8676 46.0302 31.2668 46.0214 30.6835C45.9471 25.7537 45.8908 22.0267 42.7401 17.861C41.0984 15.6903 39.5984 13.874 37.6861 12.7157C36.4175 11.9472 34.9675 11.4683 33.1744 11.3675C31.4643 11.2713 30.2474 11.9534 29.048 12.7157C28.9397 12.7845 28.831 12.8543 28.7227 12.9239L28.7207 12.9251C27.5449 13.6805 26.3443 14.4518 24.6715 14.5827C22.8015 14.729 21.3778 14.0634 19.9702 13.4053C19.8493 13.3487 19.7282 13.2921 19.6072 13.2362C18.2375 12.6031 16.8482 12.0439 15.0432 12.3131C7.21087 13.4813 4.83324 21.5746 4.10194 29.5242C3.47646 36.3233 5.78844 40.402 9.41625 46.1678C11.2936 49.1516 13.6678 52.1562 15.9864 54.3635C17.9756 56.2572 19.9239 57.5641 21.4829 57.7679C23.6141 58.0465 24.2754 57.0438 24.8822 56.1238C25.2367 55.5863 25.5726 55.0771 26.172 54.8679C27.0497 54.5615 27.4477 55.0056 27.8379 55.441C28.1704 55.812 28.4973 56.1768 29.1105 56.0657C29.6687 55.9646 30.1106 55.5846 30.5471 55.2093C31.0423 54.7834 31.5306 54.3635 32.174 54.3635C33.0771 54.3635 33.638 54.6814 34.1895 54.994C34.8217 55.3523 35.4416 55.7036 36.5505 55.5614C39.5824 55.1724 42.1774 50.0765 42.1774 50.0765Z" fill="url(#paint0_linear_191_870)"/>
<path d="M24.1713 9.35004C23.5363 11.6763 23.5461 13.1957 24.1088 14.3936C24.6715 15.5914 25.4294 12.21 26.422 10.1696C27.2691 8.42847 28.7978 5.81957 28.7978 5.81957L26.422 5C25.6718 6.32393 24.6755 7.50262 24.1713 9.35004Z" fill="#6A3611"/>
<path fill-rule="evenodd" clip-rule="evenodd" d="M50.6805 28.0741C50.2234 28.0705 49.7427 28.0741 49.1175 28.1372C47.4816 30.3037 44.9286 33.685 44.9286 33.685C44.9286 33.685 44.6618 30.3037 44.4909 28.1372C44.1158 26.5611 41.2164 25.529 38.739 25.4263C34.1147 25.2346 32.0701 29.428 30.1735 33.685C28.5969 37.224 28.8884 39.8371 29.2922 43.4576C29.3353 43.8444 29.3797 44.2426 29.4233 44.6547C29.482 45.21 29.5305 45.7396 29.5771 46.2486C29.8584 49.3215 30.0711 51.6452 32.0492 54.3635C32.2104 54.5851 32.3671 54.8043 32.5212 55.0198C33.9878 57.0715 35.2124 58.7847 37.8011 58.9657C38.9923 59.049 39.7948 58.3495 40.5918 57.6548C41.4065 56.9447 42.2155 56.2395 43.4281 56.3809C44.3919 56.4933 44.9736 57.0829 45.5556 57.6728C46.1365 58.2617 46.7177 58.8508 47.6795 58.9657C50.0974 59.2546 51.4188 57.6732 52.9108 55.8876C53.3322 55.3834 53.7671 54.8628 54.2443 54.3635C56.9235 51.5597 58.1951 49.4903 59.1834 45.7265C60.1521 42.0374 60.3864 39.5728 59.1834 35.9546C58.1134 32.7361 57.2933 30.2695 54.2443 28.8306C52.9022 28.1973 51.9389 28.0842 50.6805 28.0741Z" fill="#FAEFCA"/>
<path d="M49.1175 28.1372C46.6167 28.7046 46.179 28.7046 44.4909 28.1372C44.6618 30.3037 44.9286 33.685 44.9286 33.685C44.9286 33.685 47.4816 30.3037 49.1175 28.1372Z" fill="#A10F0F"/>
<path d="M49.1175 28.1372C46.6167 28.7046 46.179 28.7046 44.4909 28.1372M49.1175 28.1372C47.4816 30.3037 44.9286 33.685 44.9286 33.685C44.9286 33.685 44.6618 30.3037 44.4909 28.1372M49.1175 28.1372C49.7427 28.0741 50.2234 28.0705 50.6805 28.0741C51.9389 28.0842 52.9022 28.1973 54.2443 28.8306C57.2933 30.2695 58.1134 32.7361 59.1834 35.9546C60.3864 39.5728 60.1521 42.0374 59.1834 45.7265C58.1951 49.4903 56.9235 51.5597 54.2443 54.3635C53.7671 54.8628 53.3322 55.3834 52.9108 55.8876C51.4188 57.6732 50.0974 59.2546 47.6795 58.9657C46.7177 58.8508 46.1365 58.2617 45.5556 57.6728C44.9736 57.0829 44.3919 56.4933 43.4281 56.3809C42.2155 56.2395 41.4065 56.9447 40.5918 57.6548C39.7948 58.3495 38.9923 59.049 37.8011 58.9657C35.2124 58.7847 33.9878 57.0715 32.5212 55.0198C32.3671 54.8043 32.2104 54.5851 32.0492 54.3635C30.0711 51.6452 29.8584 49.3215 29.5771 46.2486C29.5305 45.7396 29.482 45.21 29.4233 44.6547C29.3797 44.2426 29.3353 43.8444 29.2922 43.4576C28.8884 39.8371 28.5969 37.224 30.1735 33.685C32.0701 29.428 34.1147 25.2346 38.739 25.4263C41.2164 25.529 44.1158 26.5611 44.4909 28.1372" stroke="#A10F0F" stroke-linejoin="round"/>
<path d="M43.5754 49.32C43.5754 49.32 40.1681 46.1315 40.5519 43.646C40.8998 41.3923 44.4282 39.3061 44.4282 39.3061C44.4282 39.3061 47.69 42.0082 47.6168 44.3395C47.5379 46.8513 43.5754 49.32 43.5754 49.32Z" fill="#F7E6A0"/>
<path d="M45 35C44.8047 37.2937 44.6235 37.0125 44.4282 39.3061M43 55.5L43.5754 49.32M43.5754 49.32C43.5754 49.32 40.1681 46.1315 40.5519 43.646C40.8998 41.3923 44.4282 39.3061 44.4282 39.3061M43.5754 49.32L44.4282 39.3061M43.5754 49.32C43.5754 49.32 47.5379 46.8513 47.6168 44.3395C47.69 42.0082 44.4282 39.3061 44.4282 39.3061" stroke="#F7E6A0" stroke-linecap="round" stroke-linejoin="round"/>
<ellipse cx="42.6779" cy="44.3395" rx="0.562692" ry="1.82828" fill="#653D14"/>
<ellipse cx="0.56291" cy="1.82758" rx="0.56291" ry="1.82758" transform="matrix(0.97627 0.216556 -0.213144 0.977021 45.895 42.3851)" fill="#653D14"/>
<path d="M12.4577 24.3307C11.6193 28.6001 11.0506 32.391 9.66187 32.1137C8.27311 31.8365 6.59022 27.596 7.42858 23.3266C8.26695 19.0572 11.7743 15.6972 13.1631 15.9745C14.5518 16.2517 13.2961 20.0614 12.4577 24.3307Z" fill="#DE989D"/>
<defs>
<linearGradient id="paint0_linear_191_870" x1="14.5" y1="14.5" x2="44" y2="34" gradientUnits="userSpaceOnUse">
<stop stop-color="#971B2B"/>
<stop offset="1" stop-color="#31090E"/>
</linearGradient>
</defs>
</svg>
