<svg width="64" height="64" viewBox="0 0 64 64" fill="none" xmlns="http://www.w3.org/2000/svg">
<path d="M43.16 16L45.144 17L47.128 15.5C47.128 15.5 44.3885 13.438 44.152 11.5C43.9813 10.1016 45.02 8 45.02 8L43.16 5.5L40.68 5C40.68 5 40.1271 8.72411 40.68 11C41.1951 13.1204 43.16 16 43.16 16Z" fill="#6F5332"/>
<path d="M50.104 15.5L51.096 13C51.096 13 48.2641 11.9428 47.128 10.5C45.8708 8.90325 45.64 5.5 45.64 5.5L45.02 8C45.02 8 43.9813 10.1016 44.152 11.5C44.3885 13.438 47.128 15.5 47.128 15.5H50.104Z" fill="#5E4529"/>
<path d="M39.688 15.5L43.16 16C43.16 16 41.1951 13.1204 40.68 11C40.1271 8.72411 40.68 5 40.68 5C40.68 5 37.9221 7.73351 37.704 10C37.4851 12.2748 39.688 15.5 39.688 15.5Z" fill="#513719"/>
<path d="M51.096 21C50.0665 18.5553 47.128 15.5 47.128 15.5L45.144 17L43.16 16C43.16 16 41.5522 21.8621 40.184 25.5C38.8314 29.0964 38.37 31.3253 36.216 34.5C33.6631 38.2625 31.5828 40.0272 27.784 42.5C23.9161 45.0178 16.872 47 16.872 47H12.904L11.912 50.5L16.376 53C16.376 53 25.5048 54.3607 31.256 53.5C36.4931 52.7163 38.6938 50.6191 42.168 48C43.9113 46.4379 45.1529 45.818 46.632 44C48.6428 41.5284 50.1926 38.2349 51.592 32.5C52.6877 28.0095 52.7985 25.0431 51.096 21Z" fill="#FBDC3C"/>
<path d="M57.048 16C54.8956 14.5319 51.096 13 51.096 13L50.104 15.5H47.128C47.128 15.5 50.0665 18.5553 51.096 21C52.7985 25.0431 52.6877 28.0095 51.592 32.5C50.1926 38.2349 48.6428 41.5284 46.632 44C45.1529 45.818 43.9113 46.4379 42.168 48C41.2477 50.3709 40.4368 51.6555 38.696 53.5C37.6533 54.6049 35.72 56 35.72 56L36.216 59H39.688C39.688 59 48.0091 57.2266 51.096 55C57.0728 50.6889 60.024 43 60.024 43C60.024 43 63.0006 33.9739 63 28C62.9995 22.8277 61.9877 19.3693 57.048 16Z" fill="#EAC81A"/>
<path d="M12.904 47H16.872C16.872 47 23.9161 45.0178 27.784 42.5C31.5828 40.0272 33.6631 38.2625 36.216 34.5C38.37 31.3253 38.8314 29.0964 40.184 25.5C41.5522 21.8621 43.16 16 43.16 16L39.688 15.5C39.688 15.5 36.3264 23.1789 32.744 27C28.9064 31.0934 26.0276 32.9082 20.84 35C15.9016 36.9913 7.448 37.5 7.448 37.5L2.488 37L1 40L3.976 42.5C3.976 42.5 6.54986 44.5887 8.44 45.5C10.0978 46.2992 12.904 47 12.904 47Z" fill="#ECC026"/>
<path d="M13.6365 48.0007L15.9998 49.0003L15.5 51.5L12.9997 50L13.6365 48.0007Z" fill="#2B1F0D"/>
<path d="M13.6365 48.0007L15.9998 49.0003L15.5 51.5L12.9997 50L13.6365 48.0007Z" fill="#2B1F0D"/>
<path d="M13.6365 48.0007L15.9998 49.0003L15.5 51.5L12.9997 50L13.6365 48.0007Z" fill="#2B1F0D"/>
<path d="M2.99966 37.9996L5.49992 37.9987L4.00008 41.4998L1.99957 39.9998L2.99966 37.9996Z" fill="#2B1F0D"/>
<path d="M2.99966 37.9996L5.49992 37.9987L4.00008 41.4998L1.99957 39.9998L2.99966 37.9996Z" fill="#2B1F0D"/>
<path d="M2.99966 37.9996L5.49992 37.9987L4.00008 41.4998L1.99957 39.9998L2.99966 37.9996Z" fill="#2B1F0D"/>
<path d="M36.4999 56.4991L37.9999 54.9991L38.4998 57.9996L36.9997 58L36.4999 56.4991Z" fill="#2B1F0D"/>
<path d="M36.4999 56.4991L37.9999 54.9991L38.4998 57.9996L36.9997 58L36.4999 56.4991Z" fill="#2B1F0D"/>
<path d="M36.4999 56.4991L37.9999 54.9991L38.4998 57.9996L36.9997 58L36.4999 56.4991Z" fill="#2B1F0D"/>
<path d="M52.5 26C51.7331 21.435 47 15.5 47 15.5H50C50 15.5 55.7261 20.2335 57 24.5C58.0056 27.8678 57.6434 30.0447 57 33.5C56.3892 36.7803 55.5647 38.553 54 41.5C51.912 45.4327 50.2743 47.4825 47 50.5C43.8937 53.3626 38 56.5 38 56.5V54.5C38 54.5 40.2125 50.6761 42 48.5C43.7528 46.3662 45.2803 45.6606 47 43.5C49.5039 40.3541 50.9611 38.3842 52 34.5C52.8592 31.2877 53.0509 29.2792 52.5 26Z" fill="#D7B713"/>
<path d="M53 28.0002C53 22.3442 47.8762 15.2584 47.0004 15.5002L45.0004 17.0002C45.0004 17.0002 47.3086 23.6449 47.0004 28.0002C46.6471 32.9926 45.4837 35.9815 42.5004 40.0002C39.6828 43.7954 37.144 45.2257 33.0004 47.5002C26.4824 51.078 14.5004 52.0002 14.5004 52.0002C14.4596 52.1711 17.7203 53.3831 20.0004 53.5002C22.8303 53.6455 26.3892 54.8173 35.5004 52.5002C37.6835 51.945 42.4362 48.9448 47.5004 43.0002C52.6785 36.9218 53 33 53 28.0002Z" fill="#F0D12F"/>
<path d="M39 29C41.2597 24.1929 43 16 43 16L39.5 15.5C39.5 15.5 39.0369 22.119 37.5 26C36.3407 28.9273 35.5652 30.6234 33.5 33C31.3994 35.4173 30.0718 36.5916 27.5 38.5C24.8022 40.5019 22.8557 41.2306 20 43C17.1783 44.7484 12.5 47 12.5 47C12.5 47 15.2572 47.226 17 47C19.8787 46.6267 21.3783 45.7462 24 44.5C28.0599 42.5701 30.4349 41.2883 33.5 38C36.3086 34.9869 37.2477 32.7277 39 29Z" fill="#D7AF21"/>
</svg>
