<svg width="64" height="64" viewBox="0 0 64 64" fill="none" xmlns="http://www.w3.org/2000/svg">
<path d="M10.8609 49.4142L12.9353 45.9264C14.0336 45.698 16.2911 45.2163 16.5352 45.1167C16.7792 45.017 23.1044 39.3037 26.2364 36.4595L19.6469 22.3837C16.1894 25.3525 9.22568 31.4021 9.03043 31.8506C8.78637 32.4111 3.96625 43.3728 4.33233 44.2447C4.6252 44.9423 8.80671 47.9817 10.8609 49.4142Z" fill="#19440A" stroke="black"/>
<path d="M10.3727 48.9782L11.0439 49.3519L12.2065 46.3001L12.3252 45.9887L10.7998 42.6254L8.05411 40.1341L7.19991 41.2552L9.51851 42.6254L9.94561 42.9991L4.94238 43.7465L5.4305 45.2413L9.51851 43.9334L10.1286 44.6185C8.80664 44.9091 6.12612 45.4904 5.97968 45.4904C5.83325 45.4904 5.91867 46.0302 5.97968 46.3001L10.3727 45.4904C9.80324 46.3209 8.66431 48.0066 8.66431 48.1063C8.66431 48.2059 8.94904 48.4384 9.09141 48.5423C9.6202 47.7949 10.7022 46.3001 10.7998 46.3001C10.8974 46.3001 9.98628 47.9194 9.51851 48.7291L9.94561 48.9782L11.654 46.3001L10.3727 48.9782Z" fill="#466C26"/>
<path d="M31.7887 52.5906C33.192 51.2827 38.1342 48.4177 38.1342 48.4177C36.9342 47.006 35.4432 46.086 34.2293 44.1825C33.1878 42.5495 32.7853 41.1514 32.2158 39.6359L25.3822 37.2069C25.3822 37.2069 23.7019 36.73 23.0637 35.899C22.2195 34.7997 22.6366 32.3489 22.6366 32.3489L19.8909 30.2936C19.8909 30.2936 20.16 34.2329 21.3553 36.3349C22.0251 37.5128 23.4278 38.8911 23.9862 39.417L24.2229 39.6359C24.2229 39.6359 24.1342 39.5564 23.9862 39.417L19.0367 34.8402C19.0367 34.8402 18.9737 31.6295 18.3046 29.733C17.7077 28.0413 16.047 25.7469 16.047 25.7469C16.047 25.7469 17.3654 28.0872 17.8164 29.733C18.3197 31.5696 18.3046 34.591 18.3046 34.591L14.6437 27.6154L13.1183 30.7295L16.5962 35.1516L13.1183 31.5392L12.3252 33.3454L15.4369 36.3349L12.0201 34.591L9.51851 37.456L15.4369 39.6359L9.09141 38.328L8.66431 39.6359L16.047 40.321C16.6848 40.6257 17.4877 40.9351 18.3087 41.2513L18.3188 41.2552C19.9558 41.8859 21.6618 42.5441 22.2705 43.2483C23.1857 44.3071 22.962 45.3451 23.0637 46.3001C23.0637 46.3001 19.5248 44.9714 18.3046 44.1825C17.2092 43.4743 15.612 43.4058 14.6437 42.2545C14.5333 42.1232 14.431 41.9778 14.3386 41.8158C14.0314 41.277 13.8709 40.8193 13.7895 40.321H9.94561L11.839 42.6254L13.1183 44.1825L16.047 45.7171L22.2705 48.9782L19.4638 48.1063C19.0776 48.2323 18.8878 48.5165 18.6096 49.3519C18.6096 49.3519 19.9875 50.0896 20.9282 50.4107C22.9295 51.0939 24.3677 50.1617 26.2974 51.0335C28.3373 51.9552 30.5227 54.9573 30.5227 54.9573C30.5028 54.1995 30.9324 53.3887 31.7887 52.5906Z" fill="url(#paint0_linear_186_52)"/>
<path d="M38.1342 48.4177C38.1342 48.4177 33.192 51.2827 31.7887 52.5906C30.9324 53.3887 30.5028 54.1995 30.5227 54.9573C30.5355 55.4414 30.7318 55.9039 31.1175 56.3275C31.8302 57.1102 32.948 57.0749 33.7412 56.8881C34.5343 56.7012 40.2697 52.5906 40.2697 52.5906L38.1342 48.4177Z" fill="url(#paint1_radial_186_52)"/>
<path d="M18.3046 44.1825C19.5248 44.9714 23.0637 46.3001 23.0637 46.3001C22.962 45.3451 23.1857 44.3071 22.2705 43.2483C21.6618 42.5441 19.9558 41.8859 18.3188 41.2552L14.6437 42.2545C15.612 43.4058 17.2092 43.4743 18.3046 44.1825Z" fill="#4B7026"/>
<path d="M36.4874 51.7186C36.6338 51.8183 41.0149 55.7224 44.1752 54.9573C46.0014 54.5152 47.714 53.0266 48.2021 52.2792C48.6902 51.5318 45.3675 45.594 46.3107 41.3798C47.1717 37.5326 51.8019 32.9717 51.8019 32.9717L47.653 30.7918C47.653 30.7918 44.6633 38.4525 44.1752 38.328C43.687 38.2034 42.7718 31.9129 42.7718 31.9129L32.3994 35.7121C32.3994 35.7121 35.76 40.5705 36.4874 44.1825C37.0679 47.0653 36.4874 51.7186 36.4874 51.7186Z" fill="url(#paint2_linear_186_52)"/>
<path d="M33.3547 26.7212C33.3677 29.4749 34.6455 31.2709 37.5037 32.3266C38.9953 32.8775 41.9236 32.4026 44.5203 31.6063C46.8992 30.8768 48.9998 29.8775 49.4625 29.1502C50.4303 27.6289 51.9715 24.7633 50.4998 21.9877C48.7208 18.6326 45.4332 18.5923 41.7747 19.3719C39.2754 19.9044 36.5384 20.8553 34.884 22.6728C33.9386 23.7114 33.3468 25.033 33.3547 26.7212Z" fill="#507E48"/>
<path d="M34.884 22.6728C36.5384 20.8553 39.2754 19.9044 41.7747 19.3719C41.7747 19.3719 41.2855 17.9305 40.4315 16.5692C39.6982 15.4 38.6959 14.2899 37.5037 14.2024C36.5045 14.1291 35.4932 14.783 34.6522 15.5726C33.4687 16.6839 32.6226 18.0639 32.6226 18.0639C34.2219 19.2417 34.884 22.6728 34.884 22.6728Z" fill="#67945F"/>
<path d="M33.3547 26.7212C33.3468 25.033 33.9386 23.7114 34.884 22.6728C34.884 22.6728 34.2219 19.2417 32.6226 18.0639C31.3912 17.1571 30.026 16.8502 28.6943 17.0674C27.6821 17.2325 26.6892 17.7003 25.789 18.4376C25.2211 18.9028 24.7633 19.4789 24.4191 20.1192C23.0738 22.622 23.4631 26.1059 25.789 27.78C28.2263 29.5342 33.3547 26.7212 33.3547 26.7212Z" fill="#406A3A"/>
<path d="M37.5037 32.3266C34.6455 31.2709 33.3677 29.4749 33.3547 26.7212C33.3547 26.7212 28.2263 29.5342 25.789 27.78C25.789 27.78 22.777 33.4874 23.796 35.9389C25.083 39.0354 28.2837 41.497 31.4838 40.6947C31.9502 40.5777 33.2541 39.315 33.6803 39.0131C35.8877 37.449 37.5037 32.3266 37.5037 32.3266Z" fill="#335D2B"/>
<path d="M37.5037 32.3266C37.5037 32.3266 35.8877 37.449 33.6803 39.0131C33.8267 38.9049 38.2829 40.4581 40.9815 39.3022C42.4192 38.6864 43.2917 36.8925 43.8105 35.1915C44.374 33.3441 44.5203 31.6063 44.5203 31.6063C41.9236 32.4026 38.9953 32.8775 37.5037 32.3266Z" fill="#577F4D"/>
<path d="M56.174 31.2678C53.4953 31.8722 49.6577 29.1502 49.4625 29.1502C48.9998 29.8775 46.8992 30.8768 44.5203 31.6063C44.5203 31.6063 44.374 33.3441 43.8105 35.1915C43.8105 35.1915 48.3579 36.8694 51.0488 35.9389C53.5902 35.0602 56.174 31.2678 56.174 31.2678Z" fill="#2B631F"/>
<path d="M50.4998 21.9877C51.9715 24.7633 50.4303 27.6289 49.4625 29.1502C49.6577 29.1502 53.4953 31.8722 56.174 31.2678C58.891 30.6547 60.4757 29.0188 61.4213 26.3475C62.2914 23.8891 62.2511 21.8447 60.8111 19.6833C60.2013 18.768 59.1176 18.1722 57.9435 17.7847C55.5927 17.0088 52.8793 17.0674 52.8793 17.0674C53.076 19.2009 50.4998 21.9877 50.4998 21.9877Z" fill="#234B29"/>
<path d="M41.7747 19.3719C45.4332 18.5923 48.7208 18.6326 50.4998 21.9877C50.4998 21.9877 53.076 19.2009 52.8793 17.0674C52.6054 14.0982 49.8773 12.5739 46.9609 12.3962C45.559 12.3108 44.0431 13.2145 42.8252 14.2024C41.434 15.3308 40.4315 16.5692 40.4315 16.5692C41.2855 17.9305 41.7747 19.3719 41.7747 19.3719Z" fill="#80B083"/>
<path d="M46.9609 12.3962C49.8773 12.5739 52.6054 14.0982 52.8793 17.0674C52.8793 17.0674 55.5927 17.0088 57.9435 17.7847C57.9435 17.7847 55.9377 12.1374 52.8793 10.8392C52.0064 10.4687 50.9016 10.3904 49.8286 10.4469C47.7883 10.5544 45.8626 11.1491 45.8626 11.1491C46.5244 11.8264 46.9609 12.3962 46.9609 12.3962Z" fill="#72A073"/>
<path d="M37.5037 14.2024C38.6959 14.2899 39.6982 15.4 40.4315 16.5692C40.4315 16.5692 41.434 15.3308 42.8252 14.2024C42.8252 14.2024 39.9059 11.4816 36.8325 10.2786C35.9488 9.93268 35.0524 9.71227 34.2089 9.71811C32.626 9.72906 31.2729 9.9375 30.0599 10.4418C29.585 10.6392 29.1316 10.882 28.6943 11.1761C27.9526 11.6749 27.2573 12.3211 26.5821 13.1436C24.7843 15.3338 24.4191 20.1192 24.4191 20.1192C24.7633 19.4789 25.2211 18.9028 25.789 18.4376C26.6892 17.7003 27.6821 17.2325 28.6943 17.0674C30.026 16.8502 31.3912 17.1571 32.6226 18.0639C32.6226 18.0639 33.4687 16.6839 34.6522 15.5726C35.4932 14.783 36.5045 14.1291 37.5037 14.2024Z" fill="#4E764F"/>
<path d="M23.796 35.9389C22.777 33.4874 25.789 27.78 25.789 27.78C23.4631 26.1059 23.0738 22.622 24.4191 20.1192C24.4191 20.1192 22.7624 20.3575 21.3349 21.0114C20.7729 21.2688 20.2464 21.5906 19.8705 21.9877C17.9482 24.0186 18.0179 26.4716 18.8943 29.1502C19.8616 32.1065 23.796 35.9389 23.796 35.9389Z" fill="#477642"/>
<path d="M24.4191 20.1192C24.4191 20.1192 24.7843 15.3338 26.5821 13.1436C27.2573 12.3211 27.9526 11.6749 28.6943 11.1761C28.6943 11.1761 25.3008 10.4469 22.7992 14.9498C20.2977 19.4527 21.3349 21.0114 21.3349 21.0114C22.7624 20.3575 24.4191 20.1192 24.4191 20.1192Z" fill="#6B9B64"/>
<path d="M42.8252 14.2024C44.0431 13.2145 45.559 12.3108 46.9609 12.3962C46.9609 12.3962 46.5244 11.8264 45.8626 11.1491C45.0571 10.3248 43.9178 9.34143 42.8252 9.033C40.5233 8.3832 37.0766 10.1292 36.8325 10.2786C39.9059 11.4816 42.8252 14.2024 42.8252 14.2024Z" fill="#78A475"/>
<path d="M34.2089 9.71811C35.0524 9.71227 35.9488 9.93268 36.8325 10.2786C37.0766 10.1292 40.5233 8.3832 42.8252 9.033C42.8252 9.033 42.2814 8.67415 41.5089 8.25845C40.5857 7.76168 39.3358 7.18371 38.2969 7.03997C34.8835 6.56771 30.067 10.4361 30.0599 10.4418C31.2729 9.9375 32.626 9.72906 34.2089 9.71811Z" fill="#8EBC73"/>
<path d="M42.8252 9.033C43.9178 9.34143 45.0571 10.3248 45.8626 11.1491C45.8626 11.1491 47.7883 10.5544 49.8286 10.4469C49.8286 10.4469 47.4519 8.28545 45.5576 7.91192C43.9997 7.60475 41.5089 8.25845 41.5089 8.25845C42.2814 8.67415 42.8252 9.033 42.8252 9.033Z" fill="#6B9D6E"/>
<path d="M12.6306 25.311C11.75 25.0446 10.835 25.2698 9.94594 25.8118C8.8525 26.4784 7.79812 27.624 6.89465 28.9233C6.39492 29.642 5.94136 30.4078 5.55291 31.1655C5.17404 31.9045 4.81613 32.7654 4.51691 33.6568C4.26016 34.4217 4.04663 35.2091 3.90017 35.9612C3.48427 38.0971 3.60913 39.9491 4.82072 40.1964C6.0533 40.4481 7.8584 39.8419 9.5497 38.7017C10.7887 37.8663 11.9666 36.7444 12.8136 35.463C14.1354 33.4633 14.4886 30.6514 14.2141 28.4874C14.0037 26.829 13.4247 25.5512 12.6306 25.311Z" fill="#2C6228"/>
<path d="M9.94594 25.8118C10.835 25.2698 11.75 25.0446 12.6306 25.311C13.4247 25.5512 14.0037 26.829 14.2141 28.4874C14.2141 28.4874 17.9883 27.3628 18.671 25.311C18.7536 25.0627 18.8247 24.8127 18.8815 24.5636C19.2161 23.0953 19.053 21.657 17.8168 20.7644C17.2902 20.3841 16.699 20.195 16.1084 20.1702C15.1642 20.1306 14.2214 20.5107 13.5458 21.2003C12.4475 22.3214 11.0849 24.2747 9.94594 25.8118Z" fill="#538D50"/>
<path d="M16.1084 20.1702C16.699 20.195 17.2902 20.3841 17.8168 20.7644C19.053 21.657 19.2161 23.0953 18.8815 24.5636C18.8815 24.5636 20.9507 24.9884 21.7827 24.1899C22.74 23.2712 22.5939 21.9743 22.0268 20.7644C21.4899 19.619 20.7078 18.8573 19.4642 18.8336C18.8815 18.8225 18.1081 19.1152 17.4507 19.4295C16.705 19.786 16.1084 20.1702 16.1084 20.1702Z" fill="#92CE63"/>
<path d="M9.94594 25.8118C11.0849 24.2747 12.4475 22.3214 13.5458 21.2003C14.2214 20.5107 15.1642 20.1306 16.1084 20.1702C16.1084 20.1702 16.705 19.786 17.4507 19.4295C17.4507 19.4295 15.2132 18.7037 13.8509 19.0827C11.9327 19.6165 10.9369 20.8525 10.251 22.7574C10.1391 23.0682 10.0657 23.4403 10.0182 23.8162C9.89348 24.8012 9.94594 25.8118 9.94594 25.8118Z" fill="#558C5E"/>
<path d="M9.94594 25.8118C9.94594 25.8118 9.89348 24.8012 10.0182 23.8162C10.0182 23.8162 8.03473 24.6856 7.38335 25.8118C7.00798 26.4608 6.90909 27.4819 6.88882 28.176C6.87599 28.6151 6.89465 28.9233 6.89465 28.9233C7.79812 27.624 8.8525 26.4784 9.94594 25.8118Z" fill="#82B97E"/>
<path d="M5.55291 31.1655C5.94136 30.4078 6.39492 29.642 6.89465 28.9233C6.89465 28.9233 6.87599 28.6151 6.88882 28.176C6.88882 28.176 4.85779 29.3147 4.39365 30.605C4.23262 31.0526 4.22004 31.6301 4.26295 32.162C4.32738 32.9607 4.51691 33.6568 4.51691 33.6568C4.81613 32.7654 5.17404 31.9045 5.55291 31.1655Z" fill="#669E60"/>
<path d="M4.51691 33.6568C4.51691 33.6568 4.32738 32.9607 4.26295 32.162C4.26295 32.162 2.82828 33.0304 2.50221 33.9682C2.24717 34.7017 1.88225 35.5081 2.50221 35.9612C2.94609 36.2857 3.90017 35.9612 3.90017 35.9612C4.04663 35.2091 4.26016 34.4217 4.51691 33.6568Z" fill="#63925B"/>
<path d="M4.82072 40.1964C3.60913 39.9491 3.48427 38.0971 3.90017 35.9612C3.90017 35.9612 2.94609 36.2857 2.50221 35.9612C2.50221 35.9612 1.76782 37.8134 2.07518 38.9508C2.29882 39.7783 2.67541 40.3487 3.23435 40.8036C3.52613 41.0412 3.8676 41.2472 4.26295 41.4421C4.9081 41.76 5.47333 41.9345 6.06255 41.9403C6.47865 41.9444 6.90672 41.8643 7.38335 41.6912C8.26345 41.3715 8.85959 41.0506 9.27486 40.1964C9.53352 39.6644 9.5497 38.7017 9.5497 38.7017C7.8584 39.8419 6.0533 40.4481 4.82072 40.1964Z" fill="#89BB75"/>
<path d="M3.23435 47.4212C4.06498 48.941 6.34607 49.6633 7.13926 49.4142C7.62529 49.2615 7.74374 48.2225 7.56657 47.1098C7.45461 46.4065 7.22458 45.6738 6.89465 45.1167C6.51296 44.4722 6.0743 43.8164 5.55948 43.3728C5.01837 42.9066 4.39313 42.6747 3.66145 42.9368C3.38636 43.0354 3.16809 43.1849 2.99934 43.3728C2.17039 44.2958 2.53663 46.1445 3.23435 47.4212Z" fill="#6CA43B"/>
<path d="M7.13926 49.4142C7.13926 49.4142 8.17735 51.8583 9.5497 52.0923C10.8845 52.32 12.3343 51.8209 12.6306 50.473C12.9412 49.0598 11.5085 48.3413 10.251 47.6703C9.30271 47.1643 7.56657 47.1098 7.56657 47.1098C7.74374 48.2225 7.62529 49.2615 7.13926 49.4142Z" fill="#5F9837"/>
<path d="M11.8374 47.1098C10.5094 47.5441 9.24481 46.4812 8.84766 45.1167C8.65289 44.4476 8.62876 43.794 8.84766 43.2324C8.98302 42.8851 9.21133 42.5729 9.5497 42.314C10.7412 41.4023 12.5481 42.2802 13.1187 43.6842C13.6561 45.0069 13.1732 46.6728 11.8374 47.1098Z" fill="#91B96B"/>
<path d="M2.99934 43.3728C3.16809 43.1849 3.38636 43.0354 3.66145 42.9368C4.39313 42.6747 5.01837 42.9066 5.55948 43.3728C6.23648 42.8077 6.25451 42.4951 6.06255 41.9403C5.47333 41.9345 4.9081 41.76 4.26295 41.4421C3.8676 41.2472 3.52613 41.0412 3.23435 40.8036C2.62297 41.7496 2.5558 42.3104 2.99934 43.3728Z" fill="#739C62"/>
<defs>
<linearGradient id="paint0_linear_186_52" x1="16.291" y1="29.0479" x2="34.7921" y2="50.8462" gradientUnits="userSpaceOnUse">
<stop stop-color="#325517"/>
<stop offset="1" stop-color="#658D27"/>
</linearGradient>
<radialGradient id="paint1_radial_186_52" cx="0" cy="0" r="1" gradientUnits="userSpaceOnUse" gradientTransform="translate(35.6325 52.7152) rotate(143.243) scale(3.12235 1.66223)">
<stop stop-color="#BCC4A2"/>
<stop offset="1" stop-color="#A4C47D"/>
</radialGradient>
<linearGradient id="paint2_linear_186_52" x1="42.1007" y1="30.7918" x2="42.1007" y2="55.0566" gradientUnits="userSpaceOnUse">
<stop stop-color="#4E8204"/>
<stop offset="1" stop-color="#9CBE67"/>
</linearGradient>
</defs>
</svg>
