<svg width="64" height="64" viewBox="0 0 64 64" fill="none" xmlns="http://www.w3.org/2000/svg">
<path d="M25.4026 59.6851H32.973C33.2708 59.6851 35.8839 59.0032 37.1925 57.7324C38.2526 56.703 38.9395 55.9353 39.1161 54.4569C39.3395 52.5874 37.6074 51.8832 37.1925 50.0477C36.7048 47.8898 37.1925 44.3786 37.1925 44.3786C37.1925 44.3786 36.7612 40.7496 35.5171 38.8985C34.3034 37.0928 32.1725 37.3393 31.2355 35.3711C30.276 33.3556 31.0493 31.6547 31.2355 29.6391C31.4216 27.6234 31.7502 26.3594 30.8011 24.6629C30.1522 23.503 29.2516 22.9056 28.257 22.3981C27.8355 22.183 27.3971 21.9841 26.9539 21.7654C25.4646 21.0305 23.5467 20.9368 22.2379 19.3088C21.1186 17.9165 21.014 16.7393 20.7486 14.9625C20.4095 12.6923 22.4529 11.0459 21.245 9.10449C20.9743 8.66931 20.6901 8.30744 20.3763 8.00931C19.7376 7.40244 18.9763 7.0596 17.9563 6.89986C15.3553 6.49253 14.4399 9.12711 12.5577 10.9942C8.7825 14.7389 7.90375 18.9518 5.73192 22.8362C3.56008 26.7206 3.85406 31.0113 4.36676 36.253C4.8674 41.3713 5.24569 44.6375 8.15196 48.8509C10.6548 52.4794 13.0243 53.861 16.7577 56.0377L16.9634 56.1576L16.9947 56.1759C20.0737 57.9717 23.0113 59.6851 25.4026 59.6851Z" fill="#3E8D44"/>
<path d="M31.2355 35.3711C32.1725 37.3393 34.3034 37.0928 35.5171 38.8985C36.7612 40.7496 37.1925 44.3786 37.1925 44.3786C37.1925 44.3786 36.7048 47.8898 37.1925 50.0477C37.6074 51.8832 39.3395 52.5874 39.1161 54.4569C38.9395 55.9353 38.2526 56.703 37.1925 57.7324C39.6953 57.0395 42.2733 57.0162 45.1353 55.5278C48.5884 53.7318 50.8441 51.4334 52.5816 48.8509C54.319 46.2683 56.4797 42.6757 57.9181 38.2686C59.5811 33.1732 60.3588 28.1063 59.8417 24.6629C59.3246 21.2195 60.1617 17.6123 57.9181 14.0807C56.6736 12.1219 55.5601 9.86036 53.7605 9.86036C53.2317 9.86036 52.8565 10.0278 52.5689 10.3013C51.8776 10.9585 51.6915 12.2285 51.0923 13.2618C49.0405 16.7999 51.9983 20.6585 49.1687 23.5921C47.075 25.7626 43.9061 24.0578 42.0326 26.4266C40.9086 27.8479 41.753 29.6264 40.3572 30.7729C38.8758 31.9897 37.2674 30.6378 35.5171 31.4028C33.4375 32.3117 31.2355 35.3711 31.2355 35.3711Z" fill="#49A44F"/>
<path d="M30.8011 24.6629C31.7502 26.3594 31.4216 27.6234 31.2355 29.6391C31.0493 31.6547 30.276 33.3556 31.2355 35.3711C31.2355 35.3711 33.4375 32.3117 35.5171 31.4028C37.2674 30.6378 38.8758 31.9897 40.3572 30.7729C41.753 29.6264 40.9086 27.8479 42.0326 26.4266C43.9061 24.0578 47.075 25.7626 49.1687 23.5921C51.9983 20.6585 49.0405 16.7999 51.0923 13.2618C51.6915 12.2285 51.8776 10.9585 52.5689 10.3013C51.2493 8.78954 50.7782 5.4113 48.424 5.76605C46.9753 5.98435 46.4177 7.36178 45.5076 8.15965C44.5975 8.95751 41.6342 8.37181 40.1711 10.0493C38.8692 11.542 40.0059 13.3844 38.8059 14.9625C36.9985 17.3395 33.8949 15.4519 31.6078 17.3561C29.7986 18.8624 28.257 22.3981 28.257 22.3981C29.2516 22.9056 30.1522 23.503 30.8011 24.6629Z" fill="#59C260"/>
<path d="M21.245 9.10449C22.4529 11.0459 20.4095 12.6923 20.7486 14.9625C21.014 16.7393 21.1186 17.9165 22.2379 19.3088C23.5467 20.9368 25.4646 21.0305 26.9539 21.7654C27.3971 21.9841 27.8355 22.183 28.257 22.3981C28.257 22.3981 29.7986 18.8624 31.6078 17.3561C33.8949 15.4519 36.9985 17.3395 38.8059 14.9625C38.8059 14.9625 34.9982 16.1184 33.4073 14.7106C32.3279 13.7553 33.1263 12.0893 31.9181 11.3091C31.7099 11.1747 31.5034 11.1077 31.2975 11.0873C30.2053 10.9792 29.1329 12.186 27.9467 11.6241C25.9627 10.6842 28.2628 7.77048 28.2474 5.76605C28.2431 5.21568 28.0644 4.73386 27.5744 4.38027C25.0163 2.53422 20.3763 8.00931 20.3763 8.00931C20.6901 8.30744 20.9743 8.66931 21.245 9.10449Z" fill="#75DC7C"/>
<path d="M38.8059 14.9625C40.0059 13.3844 38.8692 11.542 40.1711 10.0493C41.6342 8.37181 44.5975 8.95751 45.5076 8.15965C45.5076 8.15965 43.2394 4.616 41.1018 4.8212C39.4468 4.98009 39.3472 7.52285 37.689 7.40377C36.716 7.3339 36.4224 6.39699 35.4551 6.26996C34.9663 6.20577 34.5067 6.36002 34.0841 6.6479C32.3944 7.79913 31.2975 11.0873 31.2975 11.0873C31.5034 11.1077 31.7099 11.1747 31.9181 11.3091C33.1263 12.0893 32.3279 13.7553 33.4073 14.7106C34.9982 16.1184 38.8059 14.9625 38.8059 14.9625Z" fill="#68F872"/>
<path d="M27.9467 11.6241C29.1329 12.186 30.2053 10.9792 31.2975 11.0873C31.2975 11.0873 32.3944 7.79913 34.0841 6.6479C34.0841 6.6479 33.0143 4.50022 31.7319 4.19131C30.2826 3.84217 28.2474 5.76605 28.2474 5.76605C28.2628 7.77048 25.9627 10.6842 27.9467 11.6241Z" fill="#8AF391"/>
<path d="M29.5 59C29.5 59 27.2638 56.852 25.7129 54.8349M25.7129 54.8349C28.0635 50.9974 31.7941 52.0633 31.732 45.0085M25.7129 54.8349C24.5255 52.1536 23.8598 50.6503 22.6723 47.969M22.6723 47.969C17.123 47.1818 13.7988 50.9925 8.46232 45.9534M22.6723 47.969C22.1759 45.0085 19.6846 45.0129 17.7702 43.1188M17.7702 43.1188C18.2791 39.798 17.7668 37.7033 19.0733 34.6152C20.3031 31.7085 23.8513 28.1273 23.8513 28.1273M17.7702 43.1188C15.2984 41.1263 13.11 40.736 11.4408 38.0167C9.93341 35.5608 9.47322 33.7244 9.64132 30.8359M9.64132 30.8359C10.5379 25.9407 9.93586 22.8467 11.9373 18.301C13.3633 15.062 16.9015 10.7422 16.9015 10.7422M9.64132 30.8359C8.64777 28.3268 7.09717 24.4109 7.09717 24.4109" stroke="#49A44F" stroke-linecap="round" stroke-linejoin="round"/>
<path d="M39.5 56C38.321 57.4488 41.8314 51.3432 43.77 48.6619M43.77 48.6619C44.8419 47.3089 45.4428 46.5504 46.5146 45.1975M43.77 48.6619C42.7151 39.3394 38.3714 40.6622 38.8058 34.1743M50.906 39.6544C53.2598 36.1573 54.1788 33.989 55.2497 29.828M50.906 39.6544C48.486 34.9932 49.5409 31.5917 46.9347 29.0721M50.906 39.6544C49.1911 41.8191 48.2296 43.0328 46.5146 45.1975M55.2497 29.828C53.472 23.9114 55.4458 23.0792 54.0707 14.7105M55.2497 29.828C57.3696 29.2369 57.8641 28.4739 58.3523 26.8675M46.5146 45.1975C50.1515 46.1993 51.4068 45.2313 53.5122 43.2448" stroke="#59C260" stroke-linecap="round" stroke-linejoin="round"/>
<path d="M31.5 34C30.8857 33.1972 34.2154 28.4402 36.7581 26.4896M36.7581 26.4896C38.4335 25.2088 41.8091 22.6472 41.9084 22.6472M36.7581 26.4896C38.7694 24.9891 39.8971 24.1478 41.9084 22.6472M36.7581 26.4896C37.3677 23.7334 37.2341 22.2944 35.2067 20.1277M41.9084 22.6472C42.1916 23.0221 44.3492 20.5075 45.1351 18.6789M41.9084 22.6472C43.3866 22.6718 43.77 23.6551 45.6936 22.7102M45.1351 18.6789C47.7542 15.9331 48.418 13.816 47.8655 8.78955M45.1351 18.6789C45.8395 14.5964 45.8469 12.6908 44.2664 10.8682" stroke="#75DC7C" stroke-linecap="round" stroke-linejoin="round"/>
<path d="M28.5 20L26.5815 18.049M26.5815 18.049C27.1339 15.3083 27.6946 14.2681 29.1878 13.3878M26.5815 18.049C25.0871 16.8278 24.3629 16.0221 23.603 14.0177C23.2405 12.4925 23.1706 11.6374 23.603 10.1123M23.603 10.1123C22.5408 9.89699 22.2352 9.50586 22.1138 8.41159M23.603 10.1123C25.565 9.22888 25.8569 8.41762 25.7128 6.71088" stroke="#68F872" stroke-linecap="round" stroke-linejoin="round"/>
<path d="M36.3861 14.5846L37.8133 11.687M37.8133 11.687C38.4193 10.5305 38.4033 9.88237 38.0615 8.72653M37.8133 11.687C35.8176 11.6666 35.154 11.0277 34.4004 9.29344" stroke="#8AF391" stroke-linecap="round" stroke-linejoin="round"/>
</svg>
