<svg width="64" height="64" viewBox="0 0 64 64" fill="none" xmlns="http://www.w3.org/2000/svg">
<path d="M16.0076 16.7068C16.0076 16.7068 17.8653 16.1441 18.976 15.5922C20.2097 14.9792 20.7053 14.2743 21.9443 13.6726C23.2485 13.0393 24.0737 12.9161 25.4579 12.4961C27.8397 11.7734 29.1599 11.1449 31.637 10.948C33.8115 10.7752 35.0684 10.8983 37.2102 11.3195C40.2475 11.9169 41.7572 12.9861 44.6008 14.2299C47.0238 15.2897 48.5971 15.543 50.7193 17.1403C51.7983 17.9524 53.2636 19.4933 53.2636 19.4933L54.5055 20.9485L53.2636 17.9453L48.0538 12.4961L35.7563 8.28534L23.8829 9.95725L16.0076 16.7068Z" fill="#37581B"/>
<path d="M50.7193 34.912C50.4086 35.4421 51.5068 36.2743 51.5068 36.2743L52.4155 37.0174L55.7473 22.4037L54.5055 20.9485L53.2636 19.4933C53.2636 19.4933 51.7983 17.9524 50.7193 17.1403C48.5971 15.543 47.0238 15.2897 44.6008 14.2299C41.7572 12.9861 40.2475 11.9169 37.2102 11.3195C35.0684 10.8983 33.8115 10.7752 31.637 10.948C29.1599 11.1449 27.8397 11.7734 25.4579 12.4961C24.0737 12.9161 23.2485 13.0393 21.9443 13.6726C20.7053 14.2743 20.2097 14.9792 18.976 15.5922C17.8653 16.1441 16.0076 16.7068 16.0076 16.7068L13.6451 18.9979C13.6451 18.9979 16.0441 18.7608 17.5827 18.8122C18.484 18.8423 18.983 19.0115 19.8847 18.9979C21.4715 18.974 22.3135 18.4958 23.8829 18.2549C26.539 17.847 28.1395 16.8419 30.7283 17.5737C33.2278 18.2803 34.0093 19.9962 36.1198 21.5368C38.1497 23.0185 39.3839 23.7186 41.3296 25.314C42.6507 26.3973 43.0464 27.5371 44.6008 28.2244C45.3645 28.5621 46.6605 28.7817 46.6605 28.7817C46.6605 28.7817 46.2451 29.8721 46.5393 30.4536C46.8946 31.1559 48.3567 31.2586 48.3567 31.2586L50.7799 33.364C50.7799 33.364 50.6411 33.827 50.7193 34.107C50.7805 34.3264 51.0222 34.6024 51.0222 34.6024C51.0222 34.6024 50.8052 34.7654 50.7193 34.912Z" fill="url(#paint0_radial_185_378)"/>
<path d="M51.5068 36.2743C51.5068 36.2743 50.4086 35.4421 50.7193 34.912C50.8052 34.7654 51.0222 34.6024 51.0222 34.6024C51.0222 34.6024 50.7805 34.3264 50.7193 34.107C50.6411 33.827 50.7799 33.364 50.7799 33.364L48.3567 31.2586C48.3567 31.2586 46.8946 31.1559 46.5393 30.4536C46.2451 29.8721 46.6605 28.7817 46.6605 28.7817C46.6605 28.7817 45.3645 28.5621 44.6008 28.2244C43.0464 27.5371 42.6507 26.3973 41.3296 25.314C39.3839 23.7186 38.1497 23.0185 36.1198 21.5368C34.0093 19.9962 33.2278 18.2803 30.7283 17.5737C28.1395 16.8419 26.539 17.847 23.8829 18.2549C22.3135 18.4958 21.4715 18.974 19.8847 18.9979C18.983 19.0115 18.484 18.8423 17.5827 18.8122C16.0441 18.7608 13.6451 18.9979 13.6451 18.9979L9.82859 22.4037L7.10254 39.6181L12.4335 48.2873L41.3296 57.8234L43.995 56.9565C43.9916 57.3777 44.0606 57.5691 44.4191 57.7615C45.4776 57.6153 45.9175 57.2727 46.6819 56.6774L46.7211 56.6469L48.2961 55.0988L52.4155 37.0174L51.5068 36.2743Z" fill="url(#paint1_radial_185_378)"/>
<path d="M27.8857 51.4934C28.0352 49.9271 27.9905 48.3564 27.9905 46.7839C27.9905 45.0839 28.2373 43.4171 28.4617 41.7354C28.9192 38.306 29.2382 34.8252 29.98 31.4423C30.5273 28.9462 31.4521 26.5478 32.7548 24.3601C33.0552 23.8558 33.2734 23.3164 33.5635 22.8081C33.7543 22.4738 33.9724 22.1111 34.0637 21.7378" stroke="#F2EFBA" stroke-width="0.7" stroke-linecap="round"/>
<path d="M27.7295 52.0286C28.563 50.4175 29.3093 48.6695 30.3589 47.1883C30.6911 46.7195 31.0213 46.2587 31.3915 45.8206C31.7248 45.4261 32.0874 45.1451 32.4764 44.8097C33.0627 44.3043 33.5786 43.8147 34.242 43.4123C34.9284 42.996 35.5625 42.4966 36.2461 42.0744C37.4927 41.3044 38.6615 40.4318 39.8005 39.5055C40.9467 38.5734 42.062 37.5899 43.2734 36.7464C44.1889 36.109 45.0934 35.461 45.9901 34.796C46.6593 34.2998 47.3367 33.9182 48.096 33.5948C48.3485 33.4873 48.6476 33.411 48.8726 33.25C48.9512 33.1937 48.9989 33.1905 49.0907 33.1905" stroke="#F2EFBA" stroke-width="0.7" stroke-linecap="round"/>
<path d="M32.4404 53.3131C33.4726 52.5421 34.8307 52.3182 35.9163 51.6303C36.8265 51.0534 37.6496 50.3349 38.4963 49.6679C39.3972 48.9583 40.3106 48.2771 41.1461 47.4856C41.8955 46.7756 42.613 46.0374 43.3276 45.2914C44.3552 44.2187 45.4645 43.2096 46.4486 42.0982C46.8769 41.6144 47.3537 41.2 47.8854 40.8376C48.1193 40.6782 48.3146 40.5654 48.5137 40.3619" stroke="#F2EFBA" stroke-width="0.7" stroke-linecap="round"/>
<path d="M35.6348 55.4537C35.9937 55.1346 36.4716 54.9121 36.8855 54.6925C37.5321 54.3495 38.1868 54.031 38.8576 53.7411C39.6125 53.4148 40.2808 53.0304 40.9751 52.5875C41.6772 52.1397 42.4336 51.7853 43.1508 51.3625C43.7611 51.0027 44.3512 50.5965 44.9716 50.2565C46.2276 49.5683 47.381 48.723 48.5143 47.8542" stroke="#F2EFBA" stroke-width="0.7" stroke-linecap="round"/>
<path d="M12.127 21.9518C12.1636 22.9813 12.2262 23.9476 12.4411 24.9518C12.6096 25.7392 12.7339 26.5334 12.8832 27.3244C13.0322 28.1134 13.2686 28.8026 13.6453 29.5097C13.9885 30.1539 14.5225 30.7072 14.9425 31.3055C15.3156 31.8368 15.5409 32.4432 15.9518 32.9497C16.4969 33.6216 17.1895 34.1124 17.8018 34.7128C18.2861 35.1877 18.7328 35.6913 19.2066 36.1756C19.7633 36.7446 20.3809 37.2458 20.9402 37.8108C21.4642 38.3401 22.0447 38.8542 22.4905 39.455C22.8956 40.0008 23.2628 40.5812 23.6802 41.117C24.1091 41.6675 24.6479 42.1097 25.088 42.6512C25.4021 43.0376 25.6227 43.5945 25.7802 44.0664C26.1456 45.1611 26.8033 46.1754 27.0222 47.3191C27.2033 48.265 27.5655 49.1937 27.6243 50.1555" stroke="#F2EFBA" stroke-width="0.7" stroke-linecap="round"/>
<path d="M10.1895 30.247C10.9238 32.0183 11.6869 33.7064 12.1383 35.569C12.3002 36.2371 12.5217 36.8623 12.8073 37.4867C13.1232 38.1776 13.6235 38.7211 14.1249 39.2736C15.9781 41.316 18.2968 42.8096 20.2156 44.771C20.8772 45.4473 21.6578 46.0178 22.2022 46.8047C22.5115 47.2516 22.9099 47.7242 23.2785 48.1218C23.4628 48.3208 23.619 48.5711 23.7787 48.7937C23.9196 48.99 24.2732 49.3826 24.2732 49.6203" stroke="#F2EFBA" stroke-width="0.7" stroke-linecap="round"/>
<path d="M16.8562 46.4296C16.5168 47.397 16.5332 47.9392 16.8562 48.9065C18.3695 50.3229 19.4115 50.9262 21.5207 51.755C24.023 51.7882 25.3224 51.3994 27.6392 50.7023C28.276 51.1969 28.6661 51.2824 29.396 51.2596C30.3217 51.7656 30.7042 51.5896 31.4556 51.5073C31.4556 51.5073 29.2986 49.7323 27.6392 49.5257C27.0521 49.4526 26.1247 49.5257 26.1247 49.5257C26.1247 49.5257 25.5213 48.8966 25.0343 48.9065C24.7048 48.9133 24.2468 49.2161 24.2468 49.2161C23.4599 48.6772 22.8795 48.4898 21.763 48.2254C21.2564 47.4362 20.817 47.3628 20.0063 47.2965C19.3623 46.9017 18.9281 46.8459 18.1283 46.8012C17.5969 46.885 17.3337 46.7231 16.8753 46.4414L16.8562 46.4296Z" fill="url(#paint2_linear_185_378)"/>
<path d="M12.6156 49.5257C12.5827 49.2575 12.7367 48.8446 12.7367 48.8446C12.7367 48.8446 13.2272 48.4806 13.5243 48.2254C13.5243 48.2254 13.4703 47.5129 13.282 47.1108C12.9857 46.4782 12.0098 45.8723 12.0098 45.8723C11.7959 44.4846 11.5202 43.7897 10.6165 42.7762C10.3816 41.5257 10.1461 40.8734 9.52608 39.8039C9.50458 38.1195 9.30563 37.217 8.73855 35.6551C8.94362 34.2684 9.02478 33.4935 8.98087 32.1255C7.83811 30.0038 7.04015 29.7708 5.52788 29.8963L4.92209 30.2059C4.92209 30.2059 3.68402 29.9551 3.22588 30.4536C2.91855 30.788 2.86241 31.5682 2.86241 31.5682C2.86241 31.5682 2.53613 32.1578 2.37778 32.559C1.77423 34.088 2.07489 36.7697 2.07489 36.7697L2.37778 37.327C2.37778 37.327 2.35833 37.5173 2.37778 37.6366C2.43068 37.9611 2.86241 38.3178 2.86241 38.3178C2.86241 38.3178 2.61149 38.9901 2.86241 39.2466C2.97463 39.3613 3.22588 39.4324 3.22588 39.4324L4.07399 40.4231C4.07399 40.4231 4.09283 40.855 4.19514 41.1043C4.35705 41.4988 4.92209 41.9093 4.92209 41.9093C4.92209 41.9093 4.75081 42.6969 4.92209 43.1477C5.09781 43.6102 5.77019 44.0766 5.77019 44.0766L6.43656 44.6339C6.43656 44.6339 6.33076 45.0368 6.43656 45.2531C6.54236 45.4694 6.92119 45.6246 6.92119 45.6246C6.92119 45.6246 6.84012 46.1264 6.92119 46.4296C7.09368 47.0748 7.6764 47.1342 8.19335 47.5442C9.55887 48.6274 11.5252 49.7734 12.0098 49.8354C12.4944 49.8973 12.6156 49.5257 12.6156 49.5257Z" fill="url(#paint3_linear_185_378)"/>
<path d="M16.8562 48.9065C16.5332 47.9392 16.5168 47.397 16.8562 46.4296C16.8562 46.4296 16.2331 46.4429 15.8868 46.6154C15.5106 46.8028 15.4763 47.1726 15.0993 47.3585C14.7942 47.5089 14.5549 47.3908 14.2512 47.5442C13.906 47.7187 13.8191 47.9721 13.5243 48.2254C13.2272 48.4806 12.7367 48.8446 12.7367 48.8446C12.7367 48.8446 12.5827 49.2575 12.6156 49.5257C12.6956 50.1785 13.6372 49.9407 13.9483 50.5165C14.137 50.8656 13.9904 51.165 14.1906 51.5073C14.3883 51.8451 14.6348 51.9212 14.9176 52.1884C16.0233 53.2335 16.3624 54.2142 17.7042 54.913C18.3508 55.2498 18.9646 54.9911 19.461 55.5322C19.636 55.723 19.6512 55.897 19.8245 56.0895C20.5799 56.9291 21.6056 56 22.6717 56.3372C23.9198 56.732 24.2344 57.8888 25.5189 58.133C26.1701 58.2568 26.5754 57.957 27.2151 58.133C27.563 58.2287 27.708 58.4424 28.0632 58.5045C28.5846 58.5958 28.8673 58.2774 29.396 58.2568C30.4969 58.214 31.0202 58.9921 32.122 58.9999C32.9896 59.006 33.4404 58.6637 34.3028 58.5664C35.455 58.4365 36.1255 58.7469 37.2712 58.5664C38.0197 58.4485 38.3923 58.0404 39.1491 58.0711C39.711 58.0938 39.9801 58.4356 40.5424 58.4426C41.496 58.4545 42.7838 57.4518 42.7838 57.4518C42.7838 57.4518 42.5413 57.2639 42.3598 57.2041C41.9226 57.0602 41.2088 57.4518 41.2088 57.4518C41.2088 57.4518 41.1098 56.9413 40.9665 56.6468C40.7423 56.1866 40.6185 55.7106 40.1184 55.6561C39.8501 55.6269 39.7216 55.8488 39.452 55.8418C39.2051 55.8355 39.0929 55.6682 38.8462 55.6561C38.4118 55.6348 37.8164 56.0895 37.8164 56.0895C37.8164 56.0895 37.7901 54.8561 37.2712 54.4176C36.8904 54.0959 36.0596 54.0461 36.0596 54.0461C36.0596 54.0461 35.6562 53.2955 35.2115 53.0553C34.8091 52.838 34.0605 52.8696 34.0605 52.8696C34.0605 52.8696 33.3773 52.2124 32.8489 51.9407C32.3408 51.6795 31.4556 51.5073 31.4556 51.5073C30.7042 51.5896 30.3217 51.7656 29.396 51.2596C28.6661 51.2824 28.276 51.1969 27.6392 50.7023C25.3224 51.3994 24.023 51.7882 21.5207 51.755C19.4115 50.9262 18.3695 50.3229 16.8562 48.9065Z" fill="url(#paint4_linear_185_378)"/>
<path d="M54.8394 22.4037C54.8394 22.4037 54.1907 23.9149 53.9913 24.9426C53.8158 25.8467 53.9953 26.3936 53.8095 27.2956C53.0165 31.146 51.0106 37.2218 51.3258 37.389L50.3565 41.2901C50.3565 41.2901 49.6464 43.3307 49.5084 44.6958C49.4112 45.658 49.639 46.2147 49.5084 47.1727C49.3546 48.3015 48.7932 48.8277 48.6603 49.9593C48.5729 50.7036 48.6603 51.8789 48.6603 51.8789C48.6603 51.8789 49.25 50.4688 49.5084 49.5258C49.8578 48.251 49.6743 47.4478 50.0536 46.182C50.6836 44.0798 52.7797 41.2901 52.7797 41.2901C52.7797 41.2901 53.537 40.7878 53.9913 40.4232C54.6496 39.8947 55.2524 39.7303 55.5663 38.937C55.7195 38.5501 55.748 37.8844 55.748 37.8844C55.748 37.8844 57.1525 37.0952 57.2625 36.2125C57.2864 36.0206 57.2625 35.7171 57.2625 35.7171C57.2625 35.7171 58.2624 34.4166 58.3529 33.4259C58.4367 32.5091 57.8077 31.1348 57.8077 31.1348C57.8077 31.1348 58.328 30.3863 58.3529 29.8344C58.3809 29.2153 57.8077 28.3483 57.8077 28.3483C57.8077 28.3483 57.918 27.5802 57.8077 27.1098C57.6225 26.3197 56.5961 25.4379 56.5961 25.4379C56.5961 25.4379 56.5873 24.7634 56.4144 24.3852C56.2089 23.9358 55.5663 23.4564 55.5663 23.4564C55.5663 23.4564 55.5933 22.8934 55.3846 22.6514C55.2717 22.5206 54.8394 22.4037 54.8394 22.4037Z" fill="url(#paint5_linear_185_378)"/>
<path d="M54.4759 10.8242C53.6115 10.9239 53.022 11.1957 52.4162 11.9388C51.9209 12.5463 51.9541 14.1695 52.2127 15.8399C52.2705 16.2127 52.3394 16.5878 52.4162 16.9545C52.4999 17.3542 52.6269 17.7782 52.7797 18.2062C52.9188 18.5957 53.0792 18.9886 53.248 19.3695C53.9683 20.9956 54.8394 22.4037 54.8394 22.4037C54.8394 22.4037 55.2619 21.8686 55.5663 21.7226C55.8661 21.5787 56.1315 21.8986 56.4144 21.7226C56.7409 21.5194 56.5859 21.1315 56.7779 20.7937C57.0306 20.3492 57.5377 20.3091 57.626 19.803C57.7281 19.2174 56.9596 18.4407 56.9596 18.4407L56.7779 18.0691C56.7779 18.0691 57.1497 17.4008 57.0808 16.9545C57.0091 16.4908 56.4851 16.4277 56.4144 15.9638C56.3419 15.4877 56.7143 15.2647 56.7779 14.7873C56.858 14.1863 56.6783 13.8453 56.6567 13.2392C56.6387 12.7317 56.9493 12.3492 56.6567 11.9388C56.4751 11.684 56.228 11.7063 55.9904 11.5054C55.7194 11.2762 55.7059 10.9703 55.3846 10.8242C55.0603 10.6768 54.8285 10.7836 54.4759 10.8242Z" fill="url(#paint6_linear_185_378)"/>
<path d="M57.626 19.803C57.5377 20.3091 57.0306 20.3492 56.7779 20.7937C56.5859 21.1315 56.7409 21.5194 56.4144 21.7226C56.1315 21.8986 55.8661 21.5787 55.5663 21.7226C55.2619 21.8686 54.8394 22.4037 54.8394 22.4037C54.8394 22.4037 55.2717 22.5206 55.3846 22.6514C55.5933 22.8934 55.5663 23.4564 55.5663 23.4564C55.5663 23.4564 56.2089 23.9358 56.4144 24.3852C56.5873 24.7634 56.5961 25.4379 56.5961 25.4379C56.5961 25.4379 57.6225 26.3197 57.8077 27.1098C57.918 27.5802 57.8077 28.3483 57.8077 28.3483C57.8077 28.3483 58.3809 29.2153 58.3529 29.8344C58.328 30.3863 57.8077 31.1348 57.8077 31.1348C57.8077 31.1348 58.4367 32.5091 58.3529 33.4259C58.2624 34.4166 57.2625 35.7171 57.2625 35.7171C57.2625 35.7171 57.2864 36.0206 57.2625 36.2125C57.1525 37.0952 55.748 37.8844 55.748 37.8844C55.748 37.8844 55.7195 38.5501 55.5663 38.937C55.2524 39.7303 54.6496 39.8947 53.9913 40.4232C53.537 40.7878 52.7797 41.2901 52.7797 41.2901C52.7797 41.2901 50.6836 44.0798 50.0536 46.182C49.6743 47.4478 49.8578 48.251 49.5084 49.5258C49.25 50.4688 48.6603 51.8789 48.6603 51.8789C48.6603 51.8789 48.4257 52.0324 48.3574 52.1885C48.2495 52.4353 48.4786 52.8696 48.4786 52.8696C48.4786 52.8696 48.1892 53.0062 48.1151 53.1792C48.0487 53.3343 48.1411 53.4455 48.1151 53.6127C48.0258 54.1879 47.3885 54.2004 47.1459 54.7273C46.9797 55.0882 46.9035 55.7181 46.9035 55.7181L45.9343 57.0184C45.9343 57.0184 46.6072 56.3644 47.1459 56.1515C47.7015 55.9319 48.1506 56.2809 48.6603 55.9658C48.8755 55.8327 49.145 55.5323 49.145 55.5323C49.145 55.5323 49.3671 55.5458 49.5084 55.5323C50.1307 55.4729 50.9017 54.7273 50.9017 54.7273C50.9017 54.7273 52.1503 54.0641 52.7797 53.4269C53.3581 52.8414 53.9913 51.6931 53.9913 51.6931C53.9913 51.6931 55.0817 51.5073 55.4451 51.0739C55.8086 50.6404 57.2625 47.6681 57.2625 47.6681C61.8208 44.6911 62.8896 42.3836 61.3213 36.7698C61.8583 32.6946 61.6083 30.3738 60.352 26.181L59.2616 23.2706C58.8108 22.152 58.6704 21.5142 58.5952 20.3603C58.1116 19.3329 57.7603 18.9065 56.9596 18.4407C56.9596 18.4407 57.7281 19.2174 57.626 19.803Z" fill="url(#paint7_linear_185_378)"/>
<path d="M52.4162 16.9545C52.3394 16.5878 52.2705 16.2127 52.2127 15.8399C52.2127 15.8399 51.5206 15.2633 51.2046 14.7873C50.7926 14.1666 50.9033 13.6422 50.5383 12.9915C49.964 11.9679 49.4348 11.4853 48.4786 10.8242C47.8652 10.4001 46.7824 9.95729 46.7824 9.95729C46.7824 9.95729 46.7714 9.58264 46.6006 9.52384C46.4863 9.48446 46.2978 9.58576 46.2978 9.58576C46.2978 9.58576 45.8385 8.95387 45.4496 8.65692C44.8971 8.23498 43.814 7.97577 43.814 7.97577C43.814 7.97577 42.7878 6.98473 41.9967 7.04693C41.7792 7.06403 41.4514 7.17078 41.4514 7.17078L40.1793 6.36579C40.1793 6.36579 39.3962 6.45508 38.9071 6.36579C38.1572 6.22886 37.1504 5.49887 37.1504 5.49887L36.3628 5.8704C36.3628 5.8704 35.8989 5.60114 35.5753 5.49887C34.5492 5.17459 32.8493 5.8704 32.8493 5.8704C32.8493 5.8704 31.8525 5.05758 31.0925 5.00349C30.2939 4.94665 29.9504 5.60198 29.1539 5.68464C28.8009 5.72128 28.2453 5.68464 28.2453 5.68464L28.0635 5.8704C28.0635 5.8704 27.6864 5.80841 27.4577 5.8704C26.7271 6.06851 26.7914 7.72808 26.7914 7.72808C26.7914 7.72808 25.1126 6.59236 23.8836 6.42771C21.955 6.16933 20.87 7.09308 19.1584 8.03769C17.8468 8.76159 16.0689 10.3288 16.0689 10.3288C16.0689 10.3288 15.1332 10.4867 14.8574 10.9481C14.7403 11.1438 14.6756 11.5054 14.6756 11.5054C14.6756 11.5054 14.1417 11.6669 13.9487 11.9388C13.8429 12.0879 13.7669 12.3723 13.7669 12.3723C13.7669 12.3723 11.6729 13.5123 10.9803 14.7873C10.7329 15.2427 10.4957 16.0257 10.4957 16.0257C10.4957 16.0257 8.3274 17.3828 7.76963 18.8122C7.59744 19.2535 7.46674 19.9887 7.46674 19.9887C7.46674 19.9887 5.94919 21.2986 5.5888 22.4657C5.27545 23.4803 5.5888 25.1902 5.5888 25.1902C5.5888 25.1902 6.01639 26.2859 5.89169 26.986C5.75649 27.7451 5.04564 27.9096 4.86185 28.6579C4.71785 29.2443 4.86185 30.206 4.86185 30.206L8.98121 32.1875C8.98121 32.1875 9.24092 30.4445 9.46584 29.3391C9.65397 28.4145 10.0111 26.986 10.0111 26.986C10.0111 26.986 10.3769 26.1766 10.4957 25.6237C10.6885 24.7262 10.2896 24.1651 10.4957 23.2706C10.783 22.0231 12.1919 20.4841 12.1919 20.4841L13.9487 18.6265L15.7055 17.0784L17.8257 15.8399L20.0066 14.168L21.2181 12.9296C21.2181 12.9296 21.675 13.0189 21.9451 12.9296C22.265 12.8238 22.6114 12.3723 22.6114 12.3723L23.5807 11.9388C23.5807 11.9388 24.2509 11.6493 24.6711 11.4434C25.8566 10.8626 26.2697 9.83179 27.5789 9.7096C28.4429 9.62897 28.8938 10.0884 29.7597 10.1431C31.169 10.2321 31.9443 9.33016 33.3339 9.58576C33.8201 9.67518 34.5455 9.95729 34.5455 9.95729C34.5455 9.95729 36.1484 9.94905 37.1504 10.1431C37.8496 10.2785 38.9071 10.6384 38.9071 10.6384C38.9071 10.6384 39.41 11.2978 39.8764 11.4434C40.2384 11.5565 40.8457 11.4434 40.8457 11.4434C40.8457 11.4434 43.552 12.9251 45.4496 13.3011C46.5683 13.5228 47.3229 13.0604 48.3574 13.5488C49.7836 14.222 49.5959 15.7763 50.7806 16.8307C51.4903 17.4624 52.7797 18.2062 52.7797 18.2062C52.6269 17.7782 52.4999 17.3542 52.4162 16.9545Z" fill="url(#paint8_linear_185_378)"/>
<path d="M17.833 20.0252C18.0349 20.9322 18.2298 21.8243 18.4962 22.713C18.7326 23.5017 19.0435 24.2723 19.299 25.0558C19.7625 26.4772 20.2561 27.9247 20.8958 29.2748C21.362 30.2586 22.0612 31.1154 22.4927 32.1201C22.7538 32.7282 23.0528 33.3038 23.278 33.9278C23.5384 34.6493 23.7667 35.3866 24.0517 36.0983C24.2476 36.5874 24.3975 37.0998 24.6131 37.5789C24.8375 38.0775 25.117 38.5396 25.349 39.0328C25.5974 39.561 25.7966 40.1021 26.1053 40.5997C26.3793 41.0414 26.6638 41.4821 26.911 41.9406C27.2964 42.6556 27.5218 43.5116 27.6876 44.3042C27.8467 45.0655 27.9377 45.74 27.9377 46.5163" stroke="#F2EFBA" stroke-width="0.4" stroke-linecap="round"/>
<path d="M27.8857 48.4429C28.1498 47.4768 28.3314 46.5022 28.7758 45.6065C29.241 44.6688 29.8835 43.8637 30.4279 42.9782C31.5625 41.1326 32.6876 39.3157 34.087 37.6621C35.3485 36.1716 36.7712 34.8618 38.3046 33.6781C39.107 33.0586 39.8513 32.3675 40.6082 31.692C41.2268 31.14 41.7154 30.4532 42.2836 29.8724" stroke="#F2EFBA" stroke-width="0.4" stroke-linecap="round"/>
<path d="M37.7283 30.5146C37.1319 31.0734 36.7932 31.9503 36.3205 32.6196C35.947 33.1484 35.5612 33.667 35.1163 34.1359C33.9616 35.3531 32.5017 36.2729 31.2478 37.3826C30.4552 38.0842 29.7129 38.8362 29.0285 39.6482C28.6089 40.146 27.9657 40.7006 27.833 41.3786" stroke="#F2EFBA" stroke-width="0.4" stroke-linecap="round"/>
<path d="M29.457 34.9031C30.1958 33.5864 31.1261 32.3897 32.1272 31.2698C33.1305 30.1475 34.4065 29.2709 35.571 28.3323C36.4407 27.6315 37.284 26.9152 38.2238 26.3165C38.5503 26.1085 38.8461 25.891 39.0905 25.5911" stroke="#F2EFBA" stroke-width="0.4" stroke-linecap="round"/>
<path d="M35.8433 24.3067C35.0413 25.0542 34.3597 26.0014 33.6327 26.8339C33.0269 27.5276 32.3472 28.1341 31.8003 28.8795C31.4113 29.4095 30.9788 29.9065 30.5553 30.4077C30.3618 30.6368 30.3337 31.0337 30.2412 31.3175" stroke="#F2EFBA" stroke-width="0.4" stroke-linecap="round"/>
<path d="M29.7705 18.5267C30.1801 19.7938 30.7809 21.1909 30.8583 22.5524C30.9032 23.3409 30.8416 24.134 30.7769 24.9191C30.7012 25.8379 30.8866 26.671 30.9747 27.5712" stroke="#F2EFBA" stroke-width="0.4" stroke-linecap="round"/>
<path d="M24.0107 19.5971C24.233 20.8631 24.3454 22.1263 24.5314 23.3939C24.685 24.4406 24.6076 25.5585 24.639 26.6168C24.6814 28.0468 24.9571 29.507 25.2935 30.8952C25.5187 31.8246 25.9743 32.6607 26.4133 33.4997C27.4065 35.3978 28.461 37.1921 28.461 39.3985" stroke="#F2EFBA" stroke-width="0.4" stroke-linecap="round"/>
<path d="M27.9382 40.79C27.6878 41.2165 27.7287 42.0749 27.7287 42.556C27.7287 42.7934 27.7063 43.0463 27.7404 43.2815C27.7655 43.4546 27.8334 43.6294 27.8334 43.8048C27.8334 44.1714 27.9391 43.0794 27.9905 42.7166C28.0639 42.1991 28.2255 41.6897 28.3308 41.1765C28.4087 40.7967 28.7521 39.6855 28.6479 40.0586C28.5203 40.515 28.2476 40.9159 28.0778 41.3578C28.0233 41.4996 28.0429 41.6538 28.0429 41.8038C28.0429 42.3206 27.9928 40.7583 28.1069 40.2548C28.1889 39.8924 28.2176 39.4373 28.357 39.0952C28.3764 39.0476 28.3649 39.2011 28.3483 39.2498C28.2625 39.5019 28.148 39.7439 28.0545 39.9931C27.7364 40.8409 27.624 41.8604 27.624 42.7701" stroke="#F2EFBA" stroke-width="0.4" stroke-linecap="round"/>
<path d="M48.2227 30.2284C48.8993 29.4497 49.5557 28.4934 50.3768 27.856C50.9201 27.4342 51.5306 27.0949 52.0848 26.6846C52.5709 26.3248 53.4262 25.9959 53.7058 25.4243" stroke="#B4C258" stroke-width="0.4" stroke-linecap="round"/>
<path d="M54.2926 22.4885C53.864 22.9024 53.299 23.3121 52.958 23.8156C52.742 24.1345 52.5186 24.4641 52.2654 24.7534C51.8069 25.2772 51.3218 25.8125 50.6661 26.0768C50.0798 26.3131 49.4967 26.3478 48.9726 26.7625C48.4726 27.1582 47.9512 27.5694 47.5039 28.0266" stroke="#B4C258" stroke-width="0.4" stroke-linecap="round"/>
<path d="M43.9141 25.5578C44.2177 25.1658 44.8903 24.9903 45.3175 24.772C45.8758 24.4867 46.449 24.234 46.9965 23.9268C47.4259 23.6859 47.9132 23.4601 48.2948 23.141C48.6701 22.8271 48.9901 22.4525 49.3464 22.1179C49.9628 21.5392 50.6737 21.0529 51.3265 20.5165C51.6306 20.2666 52.0303 20.079 52.3999 19.9531" stroke="#B4C258" stroke-width="0.4" stroke-linecap="round"/>
<path d="M48.6144 17.8178C48.0286 18.0459 47.5372 18.4732 47.0841 18.9002C46.3366 19.6047 45.5449 20.1773 44.687 20.7277C43.9751 21.1844 43.1681 21.5515 42.4785 22.0214" stroke="#B4C258" stroke-width="0.4" stroke-linecap="round"/>
<path d="M39.8027 19.2857C40.5019 18.1028 41.5876 17.1265 42.5951 16.2165C43.359 15.5264 44.2343 15.183 45.1553 14.7485" stroke="#B4C258" stroke-width="0.4" stroke-linecap="round"/>
<path d="M40.1938 13.5475C39.1775 14.1362 38.2334 15.0611 37.4015 15.8977C37.1638 16.1367 36.6689 16.5043 36.6689 16.8837" stroke="#B4C258" stroke-width="0.4" stroke-linecap="round"/>
<path d="M35.4288 12.7468C34.5968 13.172 33.8058 13.7194 33.0317 14.2444C32.8407 14.3739 32.6565 14.4776 32.5566 14.6818" stroke="#B4C258" stroke-width="0.4" stroke-linecap="round"/>
<path d="M33.3402 11.6793C31.967 12.1727 30.5748 12.5505 29.2061 13.0509C28.2091 13.4153 27.1653 13.5881 26.149 13.8849C24.6322 14.3279 23.2358 14.9175 21.917 15.8162" stroke="#B4C258" stroke-width="0.4" stroke-linecap="round"/>
<path d="M9.05859 47.7497C9.2091 47.5454 9.34575 47.3449 9.5347 47.178C9.67086 47.0577 9.787 46.9313 9.90218 46.7905C10.1216 46.5224 10.3651 46.2815 10.6036 46.0322C10.7721 45.8561 10.8663 45.8522 11.1075 45.8125C11.261 45.7872 11.4249 45.7673 11.5755 45.7274C11.6741 45.7013 11.7636 45.666 11.8667 45.666" stroke="#B1C769" stroke-width="0.2" stroke-linecap="round"/>
<path d="M11.4719 45.4109C11.2505 45.331 11.0426 45.2212 10.8328 45.1156C10.5832 44.99 10.2817 44.9539 10.0204 44.8486C9.86957 44.7878 9.70795 44.739 9.5894 44.6242C9.52104 44.558 9.48918 44.5179 9.39294 44.5179C9.25735 44.5179 9.13301 44.5868 9.01738 44.6549C8.76695 44.8023 8.53846 44.9845 8.28589 45.1309C8.12572 45.2238 7.95283 45.314 7.81556 45.4416C7.70346 45.5458 7.67711 45.7131 7.64453 45.8574" stroke="#B1C769" stroke-width="0.2" stroke-linecap="round"/>
<path d="M8.62207 46.4528C8.74131 46.3028 8.81073 46.1074 8.91328 45.9448C8.9768 45.8441 9.06804 45.7613 9.14902 45.6755C9.30013 45.5155 9.57209 45.4077 9.77535 45.3353C9.98133 45.262 10.1449 45.1786 10.3277 45.0613C10.4157 45.0048 10.4795 44.934 10.5773 44.9006" stroke="#B1C769" stroke-width="0.2" stroke-linecap="round"/>
<path d="M9.4541 44.4329C9.57843 44.1115 9.58698 43.8376 9.9695 43.8376C10.1442 43.8376 10.3087 43.8835 10.4849 43.8801C10.5905 43.8781 10.6687 43.8343 10.7645 43.795" stroke="#B1C769" stroke-width="0.2" stroke-linecap="round"/>
<path d="M9.78758 43.8376C9.30166 43.8635 8.82009 43.8801 8.33385 43.8801C8.16256 43.8801 8.01922 43.8906 7.87161 43.9911C7.65004 44.1421 7.47866 44.3432 7.30306 44.544C7.21249 44.6475 7.10187 44.7956 6.97949 44.8582" stroke="#B1C769" stroke-width="0.2" stroke-linecap="round"/>
<path d="M6.12695 43.8588C6.38724 43.4981 6.63291 43.0553 7.05605 42.8713C7.27955 42.7741 7.51989 42.7169 7.75172 42.6445C8.16183 42.5164 8.4775 42.2429 8.9258 42.2429C9.31121 42.2429 9.65495 42.2983 9.93463 42.5842C10.0862 42.7392 10.2948 42.8014 10.4327 42.9658" stroke="#B1C769" stroke-width="0.2" stroke-linecap="round"/>
<path d="M9.57967 42.3067C9.35519 42.0808 9.13096 41.8486 8.88515 41.6476C8.75488 41.541 8.62728 41.3969 8.52692 41.2601C8.44247 41.145 8.40065 41.026 8.26691 40.9672C8.04331 40.8688 7.81397 40.8821 7.57587 40.8821C7.28958 40.8821 7.00426 40.8749 6.7346 40.9884C6.47069 41.0995 6.19068 41.1951 5.94186 41.3393C5.66847 41.4976 5.41216 41.6538 5.16992 41.8602" stroke="#B1C769" stroke-width="0.2" stroke-linecap="round"/>
<path d="M4.3584 40.1166C4.6934 39.8937 5.01519 39.6534 5.40074 39.5331C5.64111 39.4581 5.88032 39.3881 6.12183 39.3205C6.33036 39.2621 6.517 39.2548 6.73199 39.2354C7.03863 39.2078 7.34325 39.1364 7.65068 39.1197C8.14645 39.0926 8.80422 39.2364 9.10095 39.6914" stroke="#B1C769" stroke-width="0.2" stroke-linecap="round"/>
<path d="M9.53737 40.6056C9.48235 40.4522 9.3519 40.3357 9.26696 40.1993C9.2162 40.1177 9.18596 40.0152 9.15141 39.9252C9.06544 39.7016 8.98443 39.4835 8.84055 39.2874C8.62757 38.9971 8.44828 38.6967 8.15875 38.4747C7.77319 38.1791 7.40831 37.8737 6.98929 37.6289C6.8371 37.54 6.68051 37.4482 6.51665 37.3832C6.29218 37.2942 6.04633 37.2742 5.81636 37.2037C5.55257 37.1228 5.28714 37.0292 5.00976 37.0336C4.80311 37.0369 4.66739 37.166 4.50361 37.284C4.34283 37.3999 4.18602 37.5132 4.03444 37.6407C3.91742 37.7393 3.81783 37.8567 3.72474 37.9786C3.64548 38.0823 3.54187 38.1705 3.48438 38.2881" stroke="#B1C769" stroke-width="0.2" stroke-linecap="round"/>
<path d="M5.10673 36.9912C4.91115 36.8949 4.75533 36.7861 4.59365 36.6415C4.47577 36.5361 4.36803 36.4187 4.2331 36.3344C4.10452 36.2541 3.97223 36.1956 3.83789 36.1407" stroke="#B1C769" stroke-width="0.2" stroke-linecap="round"/>
<path d="M8.85065 37.6502C8.68075 37.3029 8.53532 36.9528 8.26823 36.6722C8.17747 36.5768 8.10136 36.4685 8.00938 36.3745C7.83795 36.1993 7.63138 36.0816 7.44198 35.9304C7.13679 35.6867 6.75979 35.5472 6.38924 35.439C6.22705 35.3916 6.08974 35.3082 5.93856 35.2358C5.87701 35.2063 5.81683 35.1964 5.75135 35.1815C5.652 35.1589 5.57086 35.1046 5.48094 35.0586C4.88964 34.7564 4.21991 34.6569 3.56728 34.7539C3.28781 34.7954 2.9901 34.8474 2.72485 34.95C2.56419 35.0121 2.41731 35.1029 2.25684 35.1626" stroke="#B1C769" stroke-width="0.2" stroke-linecap="round"/>
<path d="M3.7959 34.9287C3.99176 35.1421 4.18906 35.4401 4.48463 35.5075C4.66878 35.5495 4.85658 35.5819 5.04163 35.6197C5.44779 35.7028 5.88517 35.6476 6.28274 35.7627C6.64857 35.8685 6.97724 36.2112 7.20952 36.5056C7.34417 36.6763 7.50602 36.9113 7.68563 37.0337" stroke="#B1C769" stroke-width="0.2" stroke-linecap="round"/>
<path d="M8.49714 36.0343C8.14464 35.548 7.84607 35.0223 7.4051 34.6098C7.22367 34.44 7.04996 34.2851 6.83309 34.1633C6.49554 33.9736 6.10948 33.8786 5.75838 33.7191C5.50545 33.6042 5.26731 33.4906 5.02458 33.3553C4.90365 33.2879 4.78965 33.203 4.66057 33.1521C4.52983 33.1006 4.39313 33.0666 4.26189 33.0151C3.9788 32.9041 3.67599 32.8655 3.38248 32.793C3.17246 32.7412 2.95304 32.6749 2.73535 32.6749" stroke="#B1C769" stroke-width="0.2" stroke-linecap="round"/>
<path d="M4.5038 33.1852C4.30243 33.2211 4.06029 33.23 3.87284 33.3234C3.8107 33.3543 3.75368 33.3801 3.68795 33.4025C3.51677 33.4609 3.34232 33.4998 3.16562 33.5372C2.9169 33.5898 2.51165 33.567 2.36133 33.823" stroke="#B1C769" stroke-width="0.2" stroke-linecap="round"/>
<path d="M3.56836 33.4829C3.81034 33.6792 4.03998 33.8829 4.27096 34.0912C4.39533 34.2034 4.54569 34.278 4.65924 34.4019C4.82073 34.5782 5.04118 34.6977 5.27402 34.7374" stroke="#B1C769" stroke-width="0.2" stroke-linecap="round"/>
<path d="M7.95692 34.5035C7.60765 33.8218 7.30451 33.1623 6.73892 32.6466C6.40606 32.3431 6.08471 32.0279 5.69195 31.8056C5.3717 31.6243 5.0203 31.4846 4.66347 31.3992C4.49747 31.3595 4.30828 31.3362 4.15039 31.2717" stroke="#B1C769" stroke-width="0.2" stroke-linecap="round"/>
<path d="M7.62371 34.4184C7.17051 33.9423 6.7293 33.4529 6.22313 33.034C5.90294 32.769 5.50496 32.5825 5.11839 32.441C4.83043 32.3357 4.57556 32.1982 4.27134 32.1434C4.08461 32.1097 3.88254 32.037 3.69238 32.037" stroke="#B1C769" stroke-width="0.2" stroke-linecap="round"/>
<path d="M6.29169 33.1428C5.91328 32.6047 5.55717 32.0861 5.06445 31.6544" stroke="#B1C769" stroke-width="0.2" stroke-linecap="round"/>
<path d="M21.546 48.4584C21.4942 48.6225 21.4324 48.7871 21.3936 48.9552C21.3824 49.0035 21.3677 49.0593 21.3724 49.1095C21.3812 49.2023 21.4197 49.2552 21.4615 49.3362C21.5033 49.4174 21.5459 49.5299 21.5233 49.6232C21.4922 49.7518 21.4061 49.859 21.3619 49.9826C21.2687 50.2433 21.2607 50.565 21.2607 50.8388C21.2607 51.0702 21.3859 51.2831 21.4509 51.4991" stroke="#B1C769" stroke-width="0.2" stroke-linecap="round"/>
<path d="M21.5723 49.1388C21.5991 49.2529 21.6394 49.3959 21.7217 49.4828C21.7614 49.5248 21.814 49.5326 21.8681 49.5414C21.9633 49.5569 22.0579 49.5761 22.1533 49.59C22.4428 49.6323 22.7206 49.662 22.9924 49.7806C23.0994 49.8272 23.2059 49.8818 23.3003 49.9518C23.378 50.0093 23.4432 50.077 23.5305 50.1207C23.5764 50.1437 23.6241 50.1531 23.6746 50.1585C23.7262 50.164 23.8165 50.1475 23.8625 50.1747C23.9212 50.2095 23.907 50.3446 23.907 50.3992C23.907 50.5364 23.9012 50.6772 23.8784 50.8126C23.8551 50.9509 23.8162 51.0942 23.735 51.2099C23.7056 51.2517 23.5564 51.4585 23.5282 51.4297" stroke="#B1C769" stroke-width="0.2" stroke-linecap="round"/>
<path d="M23.9229 50.1523C24.1859 50.1331 24.4462 50.1327 24.7092 50.123C24.8574 50.1175 24.9975 50.0706 25.1468 50.069C25.4183 50.0661 25.7217 50.1172 25.989 50.0551C26.049 50.0412 26.1127 50.052 26.1641 50.0135C26.2235 49.9688 26.2153 49.8486 26.2018 49.7821C26.1925 49.7362 26.1186 49.6809 26.0909 49.6417C26.0683 49.6097 26.0897 49.6517 26.0946 49.6594C26.1356 49.7231 26.1753 49.7847 26.201 49.8569C26.2703 50.0516 26.1529 50.1687 26.0833 50.3436C26.0349 50.4653 26.0158 50.5957 26.0146 50.7262C26.0144 50.755 26.0141 50.8414 26.0146 50.8126C26.0164 50.724 26.021 50.6353 26.0312 50.5472C26.0446 50.4319 26.0555 50.1895 26.161 50.1137C26.2766 50.0307 26.4857 50.069 26.6161 50.069C26.7246 50.069 26.8296 50.0968 26.9383 50.0968" stroke="#B1C769" stroke-width="0.2" stroke-linecap="round"/>
<path d="M21.3556 48.9444C21.2555 48.8543 21.1262 48.7882 21.0108 48.7238C20.8787 48.6502 20.7237 48.5493 20.5693 48.5279C20.416 48.5066 20.2441 48.5271 20.0894 48.5279C20.0087 48.5283 19.9244 48.5281 19.8479 48.5587C19.7487 48.5985 19.6614 48.6804 19.5679 48.7331C19.4271 48.8125 19.3128 48.9576 19.1944 49.0678C19.1264 49.1312 19.066 49.2041 18.9922 49.2607C18.9452 49.2967 18.8237 49.3905 18.7582 49.3548C18.6505 49.2961 18.5639 49.1487 18.4798 49.0601C18.398 48.974 18.3219 48.882 18.2398 48.7963C18.102 48.6525 17.8748 48.6385 17.7456 48.4724C17.6745 48.381 17.6867 48.2356 17.6912 48.1268C17.6986 47.9498 17.7313 47.7746 17.7629 47.6007C17.8032 47.3791 17.883 47.2071 18.0142 47.0284" stroke="#B1C769" stroke-width="0.2" stroke-linecap="round"/>
<path d="M20.0521 47.6392C19.9205 47.9125 19.7763 48.2115 19.6989 48.5062C19.6682 48.6231 19.6804 48.7688 19.6921 48.888C19.7013 48.9824 19.707 49.0817 19.6755 49.1727C19.6384 49.2799 19.5607 49.364 19.5057 49.4612C19.3873 49.6706 19.315 49.97 19.4197 50.1993C19.4443 50.2532 19.4951 50.3275 19.4951 50.3883" stroke="#B1C769" stroke-width="0.2" stroke-linecap="round"/>
<path d="M54.2949 26.4362C54.7891 25.9759 55.3977 25.4242 56.11 25.4242" stroke="#96A855" stroke-width="0.2" stroke-linecap="round"/>
<path d="M53.6357 29.1348C53.9008 28.8693 54.1541 28.6917 54.4589 28.4901C54.6439 28.3678 54.8205 28.1167 54.9484 27.9354C55.0893 27.7356 55.2198 27.5466 55.3023 27.3132C55.3495 27.1796 55.3926 26.9342 55.4838 26.8409" stroke="#96A855" stroke-width="0.2" stroke-linecap="round"/>
<path d="M53.5029 29.978C53.5644 29.9351 53.999 29.5444 54.0969 29.6445C54.1556 29.7044 54.173 29.7576 54.2656 29.7681C54.6429 29.811 55.0393 29.6488 55.4096 29.592C55.7978 29.5325 56.1853 29.4527 56.5793 29.4795C56.8556 29.4984 57.2045 29.5013 57.463 29.607" stroke="#96A855" stroke-width="0.2" stroke-linecap="round"/>
<path d="M56.9023 29.6744C57.2684 29.8366 57.4417 30.1659 57.6284 30.484" stroke="#96A855" stroke-width="0.2" stroke-linecap="round"/>
<path d="M54.1641 30.4504C54.4691 30.7192 54.6663 31.1137 54.9891 31.3612" stroke="#96A855" stroke-width="0.2" stroke-linecap="round"/>
<path d="M53.1738 33.8573C53.3348 33.455 53.6207 32.9783 53.9255 32.6729C54.0992 32.4989 54.3706 32.3813 54.5782 32.2531C54.981 32.0044 55.3703 31.9265 55.8432 31.9046C56.394 31.879 57.1116 31.9117 57.5299 32.3394" stroke="#96A855" stroke-width="0.2" stroke-linecap="round"/>
<path d="M55.418 32.3057C55.903 32.6546 56.4099 32.9475 56.936 33.2164" stroke="#96A855" stroke-width="0.2" stroke-linecap="round"/>
<path d="M53.0088 34.3296C53.236 34.2057 53.615 34.2637 53.8595 34.2696C54.1599 34.2769 54.4414 34.31 54.7285 34.3989C54.9141 34.4564 55.1439 34.4881 55.2858 34.6332" stroke="#96A855" stroke-width="0.2" stroke-linecap="round"/>
<path d="M55.1865 34.7681C54.9197 34.9903 54.6261 35.3286 54.4789 35.6489C54.4115 35.7952 54.1616 36.1738 54.257 36.3329C54.3088 36.4193 54.4677 36.4636 54.4605 36.5784C54.4443 36.8389 54.1875 36.9757 53.9875 37.0806C53.6945 37.2343 53.3698 37.2916 53.0745 37.4329C52.9193 37.5072 52.896 37.6517 52.9315 37.8115C53.0137 38.181 53.3145 38.4143 53.4045 38.7822" stroke="#96A855" stroke-width="0.2" stroke-linecap="round"/>
<path d="M51.3252 41.211C51.7162 40.8015 52.1705 40.1386 52.8176 40.2065C52.9666 40.2221 53.1065 40.3332 53.2062 40.4351" stroke="#96A855" stroke-width="0.2" stroke-linecap="round"/>
<path d="M55.0781 21.1213C55.288 20.5147 55.5476 19.8767 56.0896 19.5074" stroke="#96A855" stroke-width="0.2" stroke-linecap="round"/>
<path d="M54.7812 20.1378C54.8151 19.6188 54.8116 19.0529 54.9704 18.5547C55.1024 18.1403 55.3152 17.7065 55.5899 17.3722C55.7856 17.134 56.0462 16.9687 56.2533 16.7446C56.3677 16.6207 56.1946 16.6325 56.1135 16.6325" stroke="#96A855" stroke-width="0.2" stroke-linecap="round"/>
<path d="M54.313 11.816C54.051 12.3274 53.7152 12.8548 53.529 13.4047C53.5034 13.4802 53.4957 13.5747 53.5044 13.6541C53.5317 13.9057 53.7728 14.1939 53.9375 14.3728C54.2516 14.7139 54.6952 14.8446 55.0517 15.1223C55.1745 15.2179 55.3089 15.3213 55.404 15.4473C55.4384 15.4929 55.5067 15.6083 55.5219 15.6238" stroke="#96A855" stroke-width="0.2" stroke-linecap="round"/>
<path d="M53.4986 14.1865C53.284 14.2413 52.9861 14.3768 52.8818 14.5899" stroke="#96A855" stroke-width="0.2" stroke-linecap="round"/>
<path d="M55.7434 12.6986L55.3486 13.4551" stroke="#96A855" stroke-width="0.2" stroke-linecap="round"/>
<path d="M54.5842 15.9013C54.1813 16.3569 53.8792 16.9471 53.7865 17.5545C53.7301 17.924 53.7207 18.3018 53.7207 18.6753" stroke="#96A855" stroke-width="0.2" stroke-linecap="round"/>
<path d="M43.4404 11.9476C43.8904 11.7501 44.3661 11.5753 44.8001 11.3404C44.8871 11.2934 44.9591 11.2149 45.0278 11.1448C45.1997 10.969 45.3979 10.8009 45.5508 10.6084C45.716 10.4006 45.9075 10.1829 46.0244 9.94391" stroke="#A4CD61" stroke-width="0.2" stroke-linecap="round"/>
<path d="M46.5 10.551C46.5098 10.6918 46.5788 10.8521 46.6238 10.9794C46.6795 11.1373 46.7351 11.363 46.8663 11.482C46.9864 11.591 47.3381 11.6375 47.3877 11.8025C47.478 12.1024 47.348 12.3637 47.1237 12.5547" stroke="#A4CD61" stroke-width="0.2" stroke-linecap="round"/>
<path d="M45.6084 13.0406C45.9414 12.738 46.4072 12.4771 46.8591 12.5009C47.2245 12.5201 47.715 12.6539 48.0603 12.4806C48.2127 12.4042 48.3379 12.2857 48.496 12.2175C48.6695 12.1427 48.8668 12.1018 49.0537 12.0826C49.228 12.0647 49.4468 12.0686 49.5586 12.2209" stroke="#A4CD61" stroke-width="0.2" stroke-linecap="round"/>
<path d="M49.5293 14.1334C49.768 14.126 50.0255 14.0969 50.2636 14.1385C50.3461 14.1529 50.368 14.2079 50.4385 14.236C50.5529 14.2816 50.7027 14.1757 50.8064 14.1334" stroke="#A4CD61" stroke-width="0.2" stroke-linecap="round"/>
<path d="M50.8364 14.1335C50.7313 14.48 50.7353 14.6531 50.9024 14.9667C51.0582 15.2591 51.1932 15.6011 51.2671 15.9264C51.3162 16.1429 51.4321 16.2933 51.5047 16.4931C51.576 16.6894 51.5999 16.8051 51.8165 16.8051" stroke="#A4CD61" stroke-width="0.2" stroke-linecap="round"/>
<path d="M39.8467 10.369C40.1385 9.93373 40.575 9.44459 40.7443 8.93194C40.803 8.75416 40.8167 8.54463 40.8268 8.35849C40.8347 8.21365 40.7867 7.79902 40.8862 7.69733" stroke="#A4CD61" stroke-width="0.2" stroke-linecap="round"/>
<path d="M42.6384 8.72955C42.8075 8.96527 42.959 9.21422 43.1136 9.45987C43.2651 9.70047 43.5125 9.99678 43.602 10.2796C43.6884 10.5526 43.4955 10.5906 43.2786 10.7333C43.0765 10.8663 42.8998 11.0958 42.678 11.1853C42.3286 11.3263 41.7507 11.4471 41.5098 11.6441" stroke="#A4CD61" stroke-width="0.2" stroke-linecap="round"/>
<path d="M43.5596 10.8547C43.8107 10.8901 44.5586 11.0183 44.3054 11.0065C44.158 10.9997 44.0149 10.9647 43.8797 10.9037C43.7023 10.8236 43.3626 10.6561 43.2741 10.4601C43.2284 10.3589 43.4033 10.2279 43.4606 10.1733C43.6747 9.96933 43.8788 9.73772 44.114 9.55941C44.4891 9.27505 44.9738 9.21533 45.401 9.21533" stroke="#A4CD61" stroke-width="0.2" stroke-linecap="round"/>
<path d="M37.8867 9.70105C38.1517 8.95889 38.4093 8.22372 38.7183 7.50168C38.8248 7.25293 38.9214 6.98851 38.9856 6.72583" stroke="#A4CD61" stroke-width="0.2" stroke-linecap="round"/>
<path d="M36.4312 6.42224C36.3521 6.71204 36.3078 7.02913 36.1276 7.2723C36.0037 7.43943 35.9659 7.568 36.1243 7.70914C36.3664 7.92486 36.5897 8.3097 36.6935 8.62161C36.7889 8.90801 36.7987 9.01972 37.0846 9.15459" stroke="#A4CD61" stroke-width="0.2" stroke-linecap="round"/>
<path d="M36.1338 7.51516C35.8141 7.57138 35.5098 7.57303 35.1867 7.57588C35.0476 7.57711 34.8279 7.65554 34.695 7.60118C34.5553 7.54406 34.4599 7.20742 34.3485 7.0935C34.2695 7.01281 34.1804 6.95472 34.0779 6.91135C34.0092 6.88231 33.9851 6.82532 34.0779 6.90123C34.3651 7.1361 34.7951 7.46071 34.629 7.88116C34.4047 8.4489 33.832 8.681 33.4014 9.03313" stroke="#A4CD61" stroke-width="0.2" stroke-linecap="round"/>
<path d="M30.6992 5.69354C30.9279 5.73419 31.2079 6.07666 31.3625 6.24338C31.4551 6.34316 31.5084 6.50342 31.5424 6.63468C31.6101 6.89598 31.5183 7.20855 31.4945 7.47125C31.4564 7.89221 31.4424 8.1481 31.6463 8.53889C31.7388 8.71609 31.7684 8.81172 31.7684 9.00272" stroke="#A4CD61" stroke-width="0.2" stroke-linecap="round"/>
<path d="M31.6494 8.85094C31.6176 8.59096 31.5364 8.30955 31.3409 8.12906C31.2249 8.02195 31.029 8.05841 30.8838 8.06328C30.6218 8.07206 30.2633 8.19339 30.0143 8.08858C29.8083 8.00189 29.6818 7.86732 29.5621 7.67704C29.4897 7.56189 29.4154 7.44048 29.3328 7.33297C29.1774 7.13081 28.924 7.13917 28.719 7.01588C28.5004 6.88447 28.266 6.92983 28.0557 6.7865" stroke="#A4CD61" stroke-width="0.2" stroke-linecap="round"/>
<path d="M28.0557 6.72588C28.072 6.47995 28.0953 6.24041 28.0557 5.99725" stroke="#A4CD61" stroke-width="0.2" stroke-linecap="round"/>
<path d="M27.9958 6.72583C27.7674 6.78567 27.5742 6.87461 27.3721 6.99818" stroke="#A4CD61" stroke-width="0.2" stroke-linecap="round"/>
<path d="M28.501 7.87952C28.5597 8.31194 28.6838 8.76761 28.5307 9.18497" stroke="#A4CD61" stroke-width="0.2" stroke-linecap="round"/>
<path d="M31.2922 7.97056C31.1966 7.72463 31.117 7.44436 30.9061 7.2723C30.8013 7.1868 30.6781 7.12341 30.5695 7.04292C30.4551 6.95815 30.4454 6.79643 30.3418 6.72583" stroke="#A4CD61" stroke-width="0.2" stroke-linecap="round"/>
<path d="M25.5312 7.45447C25.5817 8.02445 25.5302 8.61165 26.0923 8.89485C26.3178 9.00851 26.4354 9.08726 26.5708 9.3047C26.6458 9.42514 26.7077 9.54981 26.7787 9.6707" stroke="#A4CD61" stroke-width="0.2" stroke-linecap="round"/>
<path d="M26.7193 9.5796C26.4499 9.3908 26.0948 9.19678 25.7755 9.3401C25.4521 9.48521 25.1497 9.63799 24.8349 9.79886C24.6684 9.88396 24.4792 9.90644 24.3168 9.98945C24.1636 10.0677 24.1736 10.3407 24.1667 10.4904C24.1563 10.7131 24.1571 10.8979 24.0759 11.1077C24.0313 11.223 23.9345 11.4723 24.0875 11.2139C24.2354 10.9641 24.1388 10.6408 24.1353 10.3689C24.1311 10.0446 24.2804 9.76503 24.2838 9.44467C24.2869 9.15972 24.21 8.84691 24.1353 8.57436C24.0513 8.2675 24.053 7.95094 24.0231 7.6366C24.0207 7.61158 24.0378 7.39408 24.0446 7.49829C24.0554 7.66447 24.0409 7.82986 24.0627 7.99585C24.1013 8.28915 24.2999 8.51099 24.3548 8.80375C24.3966 9.02683 24.3821 10.2696 23.9076 10.1328C23.5241 10.0223 23.2963 9.48306 23.1024 9.16806C22.8873 8.81844 22.7418 8.43085 22.5612 8.06163C22.4302 7.79381 22.2661 7.5529 22.147 7.27903C22.1265 7.23178 21.9923 6.95393 22.0035 7.02604C22.0504 7.32988 22.1742 7.67315 21.9045 7.90646C21.8176 7.98164 21.7133 8.02421 21.6273 8.10379C21.5898 8.13845 21.5423 8.17474 21.4903 8.18138C21.349 8.19943 21.1489 7.98766 21.0696 7.87947C21.0426 7.84276 20.8156 7.62459 20.9359 7.76647C21.0703 7.92494 21.3955 8.20624 21.4029 8.43269C21.4113 8.69182 21.0622 8.763 20.8683 8.71604C20.5597 8.64135 20.3308 8.56374 20.1406 8.3045C20.1292 8.289 19.9763 8.09881 19.997 8.08187C20.028 8.05652 20.378 8.34242 20.4096 8.36522C20.5756 8.48529 20.7453 8.57016 20.8831 8.71098C20.9749 8.80478 21.4456 8.11973 21.5233 8.03464C21.5999 7.95079 21.6983 7.87559 21.7956 7.81875C21.8326 7.79712 21.9695 7.77648 21.9903 7.74454C22.1867 7.44333 21.5736 8.33309 21.327 8.59292C20.9528 8.9872 20.5629 9.39271 20.3931 9.91355" stroke="#A4CD61" stroke-width="0.2" stroke-linecap="round"/>
<path d="M21.9076 12.0387C21.6189 11.4174 21.028 11.0312 20.6024 10.5275C20.4826 10.3857 20.3848 10.2552 20.2872 10.0957C20.2122 9.97297 20.1487 9.81028 20.0529 9.70439C19.8104 9.43643 19.4871 9.31827 19.2378 9.06347C19.1286 8.95183 19.0394 8.8033 18.9375 8.69916" stroke="#A4CD61" stroke-width="0.2" stroke-linecap="round"/>
<path d="M19.1156 9.24561C18.7594 9.33773 18.3843 9.41433 18.0398 9.5492C17.8328 9.63025 17.7675 9.78205 17.6735 9.97423C17.4828 10.3641 17.1489 10.5881 16.8584 10.885" stroke="#A4CD61" stroke-width="0.2" stroke-linecap="round"/>
<path d="M16.3242 10.7029C16.6103 10.8198 16.9439 10.9886 17.1707 11.2055C17.3146 11.3431 17.4048 11.5254 17.5485 11.6609C17.6976 11.8014 17.8796 11.9103 18.0469 12.0252C18.2801 12.1854 18.4834 12.385 18.7102 12.5548C18.9876 12.7626 19.2406 12.9792 19.4857 13.2227C19.5642 13.3007 19.6319 13.342 19.6969 13.4369C19.7869 13.5684 19.794 13.6174 19.9477 13.6174" stroke="#A4CD61" stroke-width="0.2" stroke-linecap="round"/>
<path d="M20.4823 13.0102C20.2719 12.5851 20.0701 12.1522 19.8322 11.7419C19.7951 11.6778 19.7368 11.6114 19.7101 11.5395C19.6653 11.4187 19.5688 11.2315 19.7085 11.1549C19.9454 11.025 20.1657 10.8684 20.4031 10.74C20.5265 10.6733 20.6945 10.6364 20.7793 10.5208" stroke="#A4CD61" stroke-width="0.2" stroke-linecap="round"/>
<path d="M19.4124 13.6781C19.2475 13.5576 18.8829 13.6444 18.6947 13.6629C18.4524 13.6866 18.2127 13.7322 17.9703 13.7556C17.7844 13.7736 17.5972 13.7716 17.4109 13.7843C17.2775 13.7934 17.154 13.8145 17.0364 13.7388C16.8539 13.6213 16.7299 13.4171 16.5744 13.2665C16.3803 13.0785 16.0984 12.9939 15.8583 12.8887C15.614 12.7817 15.3511 12.7017 15.1719 12.4907C15.1017 12.4081 14.9688 12.3267 14.9342 12.2208C14.9125 12.154 14.8482 11.9818 14.8814 11.9172C14.9365 11.8103 15.08 11.7278 15.162 11.644C15.233 11.5713 15.2966 11.4941 15.3732 11.4315" stroke="#A4CD61" stroke-width="0.2" stroke-linecap="round"/>
<path d="M14.9877 12.3727C14.9139 12.5867 14.806 12.7399 14.6379 12.8888C14.5493 12.9673 14.5719 13.0502 14.5719 13.1637C14.5719 13.3586 14.6354 13.5353 14.6759 13.7237C14.6998 13.8352 14.7052 14.0572 14.7798 14.1335" stroke="#A4CD61" stroke-width="0.2" stroke-linecap="round"/>
<path d="M13.7402 12.828C14.0542 12.9147 14.338 13.0096 14.661 13.0096" stroke="#A4CD61" stroke-width="0.2" stroke-linecap="round"/>
<path d="M12.8193 13.7388C13.1307 13.8693 13.4663 14.1214 13.717 14.3528C13.7875 14.4179 13.8602 14.4816 13.948 14.5214C14.0348 14.5609 14.2018 14.3456 14.2615 14.2988C14.4861 14.1226 14.6763 14.0424 14.9611 14.0424C15.3684 14.0424 15.7765 14.0096 16.1821 13.9783C16.3283 13.9671 16.4521 13.921 16.6029 13.921C16.7372 13.921 16.7988 13.8304 16.8883 13.7388" stroke="#A4CD61" stroke-width="0.2" stroke-linecap="round"/>
<path d="M16.2051 14.1639C16.3708 14.5028 16.7221 14.7319 16.9311 15.0426C17.0858 15.2727 17.0345 15.4068 16.8288 15.5908" stroke="#A4CD61" stroke-width="0.2" stroke-linecap="round"/>
<path d="M13.8281 14.6496C14.1334 15.0114 14.436 15.376 14.7472 15.7324C14.805 15.7987 14.8625 15.866 14.9336 15.9179C15.0756 16.0216 15.2539 16.0922 15.4254 16.117C15.6652 16.1516 15.9304 16.1676 16.1745 16.1676" stroke="#A4CD61" stroke-width="0.2" stroke-linecap="round"/>
<path d="M15.4035 16.2891C14.8954 16.3273 14.3667 16.3346 13.8657 16.4409C13.6381 16.4891 13.4282 16.5945 13.1974 16.6314C13.0308 16.6581 12.8529 16.6689 12.6842 16.677C12.5462 16.6836 12.4389 16.6254 12.308 16.5977C12.1431 16.5628 11.9655 16.6658 11.8328 16.7512C11.5832 16.912 11.3567 17.0768 11.0969 17.2133C10.9648 17.2828 11.315 17.5424 11.3774 17.6013C11.5966 17.8081 11.8582 17.9706 12.0935 18.1562C12.5257 18.497 12.9938 18.6126 13.5324 18.4749" stroke="#A4CD61" stroke-width="0.2" stroke-linecap="round"/>
<path d="M12.315 16.714C12.0594 16.3208 11.7207 15.8698 11.5774 15.412C11.5016 15.1699 11.5523 14.897 11.5724 14.6496" stroke="#A4CD61" stroke-width="0.2" stroke-linecap="round"/>
<path d="M11.0078 17.4427C10.7422 17.3458 10.4383 17.0784 10.1465 17.0784" stroke="#A4CD61" stroke-width="0.2" stroke-linecap="round"/>
<path d="M12.9296 18.856C12.3044 19.0427 11.6107 19.3115 10.9427 19.2224C10.6908 19.1888 10.4134 19.185 10.1783 19.0796C10.0767 19.034 9.97593 18.9234 9.86722 18.9032C9.74828 18.8811 9.56257 18.9311 9.48928 19.0348C9.46297 19.0721 9.46826 19.1367 9.45526 19.1789C9.42679 19.2714 9.27665 19.4518 9.31065 19.5491C9.35272 19.6695 9.56353 19.7893 9.65334 19.8621C9.85649 20.0269 10.0658 20.2045 10.3059 20.3106C10.5506 20.4186 10.8649 20.4153 11.1262 20.4062C11.409 20.3964 11.6911 20.4169 11.9453 20.287" stroke="#A4CD61" stroke-width="0.2" stroke-linecap="round"/>
<path d="M9.56035 18.9007C9.54197 18.6472 9.52843 18.3943 9.5166 18.1405" stroke="#A4CD61" stroke-width="0.2" stroke-linecap="round"/>
<path d="M9.03611 19.6385C8.92393 19.5428 8.80344 19.3883 8.66668 19.328C8.57616 19.2881 8.4762 19.2748 8.37988 19.2584" stroke="#A4CD61" stroke-width="0.2" stroke-linecap="round"/>
<path d="M7.9209 19.9963C7.97469 20.116 8.04339 20.2302 8.10926 20.3429C8.19424 20.4883 8.27413 20.6715 8.43373 20.7454C8.69101 20.8645 9.01386 20.8343 9.28925 20.8472C9.67418 20.8653 10.0512 20.9745 10.4073 21.1242C10.718 21.2549 10.9886 21.4748 11.2895 21.6286" stroke="#A4CD61" stroke-width="0.2" stroke-linecap="round"/>
<path d="M8.57634 20.9131C8.39516 21.1789 8.22258 21.4558 8.02949 21.7131C8.00873 21.7407 7.99145 21.7486 7.96387 21.7627" stroke="#A4CD61" stroke-width="0.2" stroke-linecap="round"/>
<path d="M7.02344 21.3156C7.64171 21.5417 8.25682 21.7875 8.88274 21.9913C9.14518 22.0768 9.42019 22.1206 9.67993 22.2137C9.86398 22.2796 10.0971 22.3818 10.2171 22.5453" stroke="#A4CD61" stroke-width="0.2" stroke-linecap="round"/>
<path d="M9.31981 23.2384C8.57314 23.2201 7.82292 23.1765 7.0765 23.2223C6.89933 23.2331 6.74676 23.2433 6.60742 23.3498" stroke="#A4CD61" stroke-width="0.2" stroke-linecap="round"/>
<path d="M9.6262 23.8645C9.26834 23.8537 8.92177 23.8987 8.56652 23.9452C8.42559 23.9637 7.98705 24.0226 7.80458 24.0595C7.68195 24.0843 7.69336 24.0797 7.61257 24.1452C7.41415 24.3062 7.14893 24.4703 7.07301 24.729C6.95584 25.1283 6.72845 25.446 6.46904 25.7625C6.25079 26.0288 5.86595 26.0961 5.55762 26.2122" stroke="#A4CD61" stroke-width="0.2" stroke-linecap="round"/>
<path d="M8.07357 26.5253C7.61952 27.2277 6.97673 27.818 6.41113 28.4258" stroke="#A4CD61" stroke-width="0.2" stroke-linecap="round"/>
<path d="M5.49219 29.1637C6.10796 28.9505 6.7253 28.7059 7.36364 28.5699C7.54268 28.5318 7.68765 28.489 7.85459 28.4258" stroke="#A4CD61" stroke-width="0.2" stroke-linecap="round"/>
<path d="M8.6416 27.3525C8.84551 26.926 8.96859 26.4571 9.12283 26.011" stroke="#A4CD61" stroke-width="0.2" stroke-linecap="round"/>
<path d="M9.21126 24.8484C9.02969 24.757 8.80207 24.8532 8.62309 24.908C8.38749 24.9802 8.10014 25.0618 7.90367 25.226C7.6773 25.4152 7.56321 25.7514 7.43945 26.0111" stroke="#A4CD61" stroke-width="0.2" stroke-linecap="round"/>
<defs>
<radialGradient id="paint0_radial_185_378" cx="0" cy="0" r="1" gradientUnits="userSpaceOnUse" gradientTransform="translate(36.4227 24.7567) rotate(-76.3803) scale(13.6348 24.735)">
<stop stop-color="#C6D26A"/>
<stop offset="1" stop-color="#5B7F12"/>
</radialGradient>
<radialGradient id="paint1_radial_185_378" cx="0" cy="0" r="1" gradientUnits="userSpaceOnUse" gradientTransform="translate(28.8503 36.8936) rotate(35.1118) scale(25.6228 25.916)">
<stop stop-color="#CCD77C"/>
<stop offset="1" stop-color="#A8B545"/>
</radialGradient>
<linearGradient id="paint2_linear_185_378" x1="22.3688" y1="47.73" x2="20.1784" y2="51.4035" gradientUnits="userSpaceOnUse">
<stop stop-color="#97AE48"/>
<stop offset="1" stop-color="#9EB850"/>
</linearGradient>
<linearGradient id="paint3_linear_185_378" x1="5.64904" y1="29.8963" x2="12.4494" y2="48.1915" gradientUnits="userSpaceOnUse">
<stop stop-color="#6F972E"/>
<stop offset="1" stop-color="#9FB03B"/>
</linearGradient>
<linearGradient id="paint4_linear_185_378" x1="23.3381" y1="49.4019" x2="36.9785" y2="58.7189" gradientUnits="userSpaceOnUse">
<stop stop-color="#7E932F"/>
<stop offset="1" stop-color="#B0B668"/>
</linearGradient>
<linearGradient id="paint5_linear_185_378" x1="58.2318" y1="34.1071" x2="52.6515" y2="33.1577" gradientUnits="userSpaceOnUse">
<stop stop-color="#7A9525"/>
<stop offset="1" stop-color="#5E7F21"/>
</linearGradient>
<linearGradient id="paint6_linear_185_378" x1="56.7779" y1="12.558" x2="53.4574" y2="18.5032" gradientUnits="userSpaceOnUse">
<stop stop-color="#5A771B"/>
<stop offset="1" stop-color="#638232"/>
</linearGradient>
<linearGradient id="paint7_linear_185_378" x1="61.9877" y1="40.7328" x2="55.1621" y2="38.0499" gradientUnits="userSpaceOnUse">
<stop stop-color="#73823D"/>
<stop offset="1" stop-color="#546928"/>
</linearGradient>
<linearGradient id="paint8_linear_185_378" x1="48.3574" y1="10.0192" x2="6.41463" y2="22.0911" gradientUnits="userSpaceOnUse">
<stop stop-color="#5F9328"/>
<stop offset="0.463732" stop-color="#246C14"/>
<stop offset="1" stop-color="#B3C256"/>
</linearGradient>
</defs>
</svg>
