<svg width="64" height="64" viewBox="0 0 64 64" fill="none" xmlns="http://www.w3.org/2000/svg">
<path d="M11.1084 31.3875C10.569 31.6939 8.57735 32.7917 7.09223 33.9003C5.15146 35.349 3.15252 35.7544 2.53656 38.1292C2.34082 38.8839 2.27027 39.5778 2.32647 40.2353L3.31579 38.7421C3.31579 38.7421 4.92022 39.5989 5.05417 40.7646C5.16665 41.7436 4.69445 42.7259 4.39476 42.8484C4.24575 42.9094 3.75585 42.8794 3.30091 42.8339C3.41574 43.0022 3.54058 43.1703 3.67548 43.3388C5.13003 45.1551 6.90876 45.1588 9.19024 45.4226C11.9823 45.7454 13.5276 44.7292 16.2635 44.0742C20.8049 42.987 27.6527 40.3969 27.6527 40.3969L48.393 32.1842L47.6137 29.2424C47.6137 29.2424 11.6479 31.081 11.1084 31.3875Z" fill="url(#paint0_linear_185_170)"/>
<path d="M2.05699 40.6421C1.91502 41.5794 2.03955 42.0162 2.41664 42.7259C2.41664 42.7259 2.84091 42.7878 3.30091 42.8339C3.75585 42.8794 4.24575 42.9094 4.39476 42.8484C4.69445 42.7259 5.16665 41.7436 5.05417 40.7646C4.92022 39.5989 3.31579 38.7421 3.31579 38.7421L2.32647 40.2353L2.05699 40.6421Z" fill="#CA8150"/>
<path d="M22.0776 20.7232C22.0776 20.7232 19.9658 21.0988 18.6009 21.091C17.3057 21.0836 16.5989 20.6954 15.304 20.7232C14.2183 20.7466 13.6308 21.0271 12.5466 21.091C11.6819 21.1419 11.1866 20.9692 10.3287 21.091C8.83035 21.3037 7.81504 21.4819 6.73215 22.5619C6.16512 23.1274 6.11231 23.6662 5.59323 24.278C5.17005 24.7767 4.39437 25.4425 4.39437 25.4425C5.23448 26.6195 5.22405 27.3425 4.75403 28.6908C4.75403 28.6908 5.84504 30.0938 6.73215 30.7746C9.29934 32.7446 11.6184 32.0871 14.8245 32.2455C16.0403 32.3056 16.7314 32.1101 17.9415 32.2455C19.0597 32.3706 19.6445 32.701 20.7588 32.8584C22.869 33.1565 26.2136 32.8584 26.2136 32.8584L37.2431 31.7552H39.2812C39.4011 31.7552 41.7389 31.3875 42.0985 31.0197C42.4582 30.652 44.9758 30.5294 45.2156 30.7746C45.4553 31.0197 48.3566 31.0953 50.3707 31.0197C51.4974 30.9775 52.4886 30.7746 53.2479 30.7746C54.0072 30.7746 55.1285 30.6273 56.1851 30.1004C57.7176 29.3362 58.9368 28.6285 59.2422 26.9134C59.5042 25.4425 57.6483 22.7596 56.8445 22.5006C56.0407 22.2416 54.6866 22.5006 54.6866 22.5006C54.6866 22.5006 54.3742 22.1878 54.0272 22.1329C53.741 22.0876 53.2479 22.1329 53.2479 22.1329C53.2479 22.1329 52.139 21.394 51.3297 21.2748C50.6081 21.1685 49.4715 21.4587 49.4715 21.4587C49.4715 21.4587 48.5984 21.2457 48.0329 21.2748C47.6293 21.2956 47.0138 21.4587 47.0138 21.4587C47.0138 21.4587 44.64 21.2253 43.1175 21.2748C41.6112 21.3239 39.2812 21.7039 39.2812 21.7039C39.2812 21.7039 38.4958 21.3643 37.9625 21.2748C36.6668 21.0576 34.6656 21.949 34.6656 21.949L22.0776 20.7232Z" fill="url(#paint1_linear_185_170)"/>
<path d="M4.75403 28.6908C5.22405 27.3425 5.23448 26.6195 4.39437 25.4425C4.39437 25.4425 3.67501 25.4425 3.735 27.036C3.79498 28.6295 4.75403 28.6908 4.75403 28.6908Z" fill="#BB8A58"/>
<path d="M17.9421 41.6839C17.0907 42.0415 17.2658 43.2155 17.6424 44.0742C17.9988 44.8867 18.6328 45.7549 19.4407 45.4225C20.2548 45.0877 20.1113 43.9938 19.8004 43.1549C19.4751 42.2774 18.7911 41.3275 17.9421 41.6839Z" fill="url(#paint2_radial_185_170)"/>
<path fill-rule="evenodd" clip-rule="evenodd" d="M18.062 37.9453C16.6916 40.3466 16.4086 41.6434 16.5634 43.8903C17.8476 46.6212 19.0555 47.2981 21.5387 47.9354C24.7912 47.855 26.5072 47.4093 29.5111 46.4032L40.7205 42.7258C40.7205 42.7258 42.7981 42.4454 44.0173 41.4388C45.2554 41.1634 46.3551 40.5195 46.3551 40.5195C47.6226 40.5827 48.3499 40.4318 49.652 39.9066C51.5227 39.7006 52.332 39.4568 53.4883 38.8647C54.8078 38.8191 55.4816 38.6969 56.6053 38.3744L60.0221 37.5776C61.6664 36.6084 61.8674 36.1144 62.0002 35.2486C61.4924 34.4018 61.0694 34.0784 60.0221 33.839C57.758 32.398 56.5247 32.0427 54.3275 31.4487L46.7747 31.0197C45.5309 31.0431 44.791 31.0802 42.9383 31.4487C40.4589 31.6646 39.2031 31.8167 37.9031 32.3068L26.8736 33.839L21.5387 35.9841L18.062 37.9453ZM17.6424 44.0742C17.2658 43.2155 17.0907 42.0415 17.9421 41.6839C18.7911 41.3275 19.4751 42.2774 19.8004 43.1549C20.1113 43.9938 20.2548 45.0877 19.4407 45.4225C18.6328 45.7549 17.9988 44.8867 17.6424 44.0742Z" fill="url(#paint3_linear_185_170)"/>
<path d="M21.7185 13.9202C21.2752 15.2829 21.7185 16.1614 21.7185 17.5975C21.7185 18.2677 21.6781 18.6447 21.7185 19.3136C21.8629 21.7025 22.671 22.9218 23.3969 25.1973C25.0508 30.3821 26.1256 33.2726 28.552 38.1292C29.7632 40.5536 31.1238 41.5954 31.9088 44.1968C32.108 44.8569 32.1166 45.2569 32.3284 45.9128C32.8011 47.3768 33.6107 47.9577 34.1267 49.4063C34.426 50.2466 34.284 50.621 34.8459 51.3063C35.4661 52.0624 36.0628 52.3812 36.884 52.8998C37.5777 53.3377 37.8217 53.7846 38.6224 53.9417C39.2807 54.0708 39.8391 54.0096 40.3008 53.5126C41.4397 52.2869 41.5292 50.7621 41.4397 49.0386C41.3839 47.9649 41.1088 47.8353 40.9602 46.7709C40.8212 45.7757 41.136 45.0766 40.6604 44.1968C40.6604 44.1968 40.5318 42.6903 40.3008 42.3581C39.1166 40.6553 39.9411 41.0711 39.3417 39.1098C39.2133 38.6898 39.0912 37.6437 38.8621 37.2712C38.314 36.3795 38.3674 35.8931 38.0829 34.8809C37.8455 34.0363 37.9807 33.2189 37.6033 32.4294C36.0068 29.089 36.6295 26.9319 35.6253 23.3586C34.4918 19.3254 33.5272 15.5137 31.9088 13.3073C30.2904 11.1009 29.4822 10.6066 27.2931 10.4267C27.1117 10.4118 26.9318 10.4072 26.7537 10.412C25.8676 10.4359 25.0293 10.6945 24.2961 11.0908C23.0115 11.7851 22.0497 12.902 21.7185 13.9202Z" fill="url(#paint4_linear_185_170)"/>
<path d="M25.2552 10.059C24.416 10.3042 24.2961 11.0908 24.2961 11.0908C25.0293 10.6945 25.8676 10.4359 26.7537 10.412C26.7537 10.412 26.0944 9.81384 25.2552 10.059Z" fill="#C89669"/>
<path d="M22.916 16.9861C23.1039 16.8442 23.367 16.5522 23.6233 16.5522" stroke="#F48B47" stroke-width="0.3" stroke-linecap="round"/>
<path d="M29.5645 16.1182L30.201 15.6843" stroke="#F48B47" stroke-width="0.3" stroke-linecap="round"/>
<path d="M29.4238 20.9637C29.9649 20.7194 30.4969 20.5089 31.0507 20.3129" stroke="#F48B47" stroke-width="0.3" stroke-linecap="round"/>
<path d="M27.0186 27.6895L29.282 25.9538" stroke="#F48B47" stroke-width="0.3" stroke-linecap="round"/>
<path d="M29.9893 31.2332L30.838 30.5823" stroke="#F48B47" stroke-width="0.3" stroke-linecap="round"/>
<path d="M35.3652 32.4626H36.0018" stroke="#F48B47" stroke-width="0.3" stroke-linecap="round"/>
<path d="M35.7891 37.8866L37.9818 37.6697" stroke="#F48B47" stroke-width="0.3" stroke-linecap="round"/>
<path d="M37.0625 42.7322L38.1942 42.5875" stroke="#F48B47" stroke-width="0.3" stroke-linecap="round"/>
<path d="M30.2012 37.9589L32.2524 36.6572" stroke="#F48B47" stroke-width="0.3" stroke-linecap="round"/>
<path d="M35.8604 47.9391L37.275 47.2159" stroke="#F48B47" stroke-width="0.3" stroke-linecap="round"/>
<path d="M38.9727 48.8794C39.5514 48.6642 40.2106 48.6262 40.8117 48.5178" stroke="#F48B47" stroke-width="0.3" stroke-linecap="round"/>
<path d="M37.1328 23.2056L37.2743 24.869" stroke="#F48B47" stroke-width="0.3" stroke-linecap="round"/>
<path d="M40.7402 26.0984L41.3061 28.5573" stroke="#F48B47" stroke-width="0.3" stroke-linecap="round"/>
<path d="M44.2773 23.4949L44.3481 25.1582" stroke="#F48B47" stroke-width="0.3" stroke-linecap="round"/>
<path d="M48.168 22.7717C48.4274 23.0015 48.5678 23.4177 48.7338 23.7118" stroke="#F48B47" stroke-width="0.3" stroke-linecap="round"/>
<path d="M55.3818 23.4225L55.8062 26.5323" stroke="#F48B47" stroke-width="0.3" stroke-linecap="round"/>
<path d="M50.5017 27.4002L50.2188 28.3404" stroke="#F48B47" stroke-width="0.3" stroke-linecap="round"/>
<path d="M10.043 23.4949L10.5381 25.0859" stroke="#F48B47" stroke-width="0.3" stroke-linecap="round"/>
<path d="M14.0039 22.6271C14.1513 23.1923 14.3785 23.7403 14.5698 24.2904" stroke="#F48B47" stroke-width="0.3" stroke-linecap="round"/>
<path d="M19.875 22.3378C20.0871 23.2673 20.2108 24.2186 20.3701 25.1583" stroke="#F48B47" stroke-width="0.3" stroke-linecap="round"/>
<path d="M17.5402 27.2556L16.6914 29.7144" stroke="#F48B47" stroke-width="0.3" stroke-linecap="round"/>
<path d="M10.3252 30.293L10.9618 27.8341" stroke="#F48B47" stroke-width="0.3" stroke-linecap="round"/>
<path d="M57.7875 37.2358L57.7168 35.934" stroke="#E96235" stroke-width="0.3" stroke-linecap="round"/>
<path d="M52.6943 37.6697L52.7651 36.3679" stroke="#E96235" stroke-width="0.3" stroke-linecap="round"/>
<path d="M45.5508 32.8965L45.763 34.6322" stroke="#E96235" stroke-width="0.3" stroke-linecap="round"/>
<path d="M38.9014 34.1984C39.11 34.5336 39.2384 34.9225 39.3965 35.2832" stroke="#E96235" stroke-width="0.3" stroke-linecap="round"/>
<path d="M41.3066 40.7072L41.3774 39.6947" stroke="#E96235" stroke-width="0.3" stroke-linecap="round"/>
<path d="M49.0159 37.8143L48.8037 36.5126" stroke="#E96235" stroke-width="0.3" stroke-linecap="round"/>
<path d="M24.4727 36.0786L25.4629 37.5973" stroke="#E96235" stroke-width="0.3" stroke-linecap="round"/>
<path d="M21.6426 39.1161L22.3499 40.3455" stroke="#E96235" stroke-width="0.3" stroke-linecap="round"/>
<path d="M28.1507 45.2633L27.4434 43.6" stroke="#E96235" stroke-width="0.3" stroke-linecap="round"/>
<path d="M7.07227 36.5126L7.21373 37.5974" stroke="#E96235" stroke-width="0.3" stroke-linecap="round"/>
<path d="M8.13285 43.9615C8.11201 43.4013 8.10936 42.8505 8.13285 42.2982" stroke="#E96235" stroke-width="0.3" stroke-linecap="round"/>
<path d="M12.0234 42.6598L12.66 40.9964" stroke="#E96235" stroke-width="0.3" stroke-linecap="round"/>
<path d="M12.8721 34.343C13.2069 34.5772 13.4568 34.978 13.7209 35.2831" stroke="#E96235" stroke-width="0.3" stroke-linecap="round"/>
<path d="M18.5303 34.4876L18.601 34.7046" stroke="#E96235" stroke-width="0.3" stroke-linecap="round"/>
<defs>
<linearGradient id="paint0_linear_185_170" x1="25.1965" y1="29.2424" x2="25.1965" y2="45.4843" gradientUnits="userSpaceOnUse">
<stop stop-color="#F01F06"/>
<stop offset="1" stop-color="#FF8343"/>
</linearGradient>
<linearGradient id="paint1_linear_185_170" x1="31.4886" y1="32.1229" x2="31.4886" y2="21.949" gradientUnits="userSpaceOnUse">
<stop stop-color="#FE3414"/>
<stop offset="0.338063" stop-color="#FC622C"/>
<stop offset="0.625308" stop-color="#FF8F50"/>
<stop offset="1" stop-color="#F4934D"/>
</linearGradient>
<radialGradient id="paint2_radial_185_170" cx="0" cy="0" r="1" gradientUnits="userSpaceOnUse" gradientTransform="translate(18.8413 43.7678) rotate(-16.2846) scale(1.31142 1.71732)">
<stop stop-color="#D7B16E"/>
<stop offset="1" stop-color="#B68C50"/>
</radialGradient>
<linearGradient id="paint3_linear_185_170" x1="36.2847" y1="32.981" x2="38.1619" y2="43.0175" gradientUnits="userSpaceOnUse">
<stop stop-color="#FD340A"/>
<stop offset="0.347162" stop-color="#FF804F"/>
<stop offset="0.667314" stop-color="#F9613C"/>
<stop offset="1" stop-color="#FB623E"/>
</linearGradient>
<linearGradient id="paint4_linear_185_170" x1="37.6634" y1="33.0422" x2="27.7908" y2="36.2216" gradientUnits="userSpaceOnUse">
<stop stop-color="#FC9B69"/>
<stop offset="0.277478" stop-color="#FF8348"/>
<stop offset="0.589916" stop-color="#FCA364"/>
<stop offset="1" stop-color="#F28135"/>
</linearGradient>
</defs>
</svg>
