<svg width="64" height="64" viewBox="0 0 64 64" fill="none" xmlns="http://www.w3.org/2000/svg">
<path d="M28.2369 34.9625L7.87769 56.143L8.24124 58.2542L27.8128 39.4574L43.264 25.4279L42.2945 22.7037L28.2369 34.9625Z" fill="#5C9F57"/>
<path d="M20.4813 36.5289L4 57.9818L7.15084 60.0249L25.0258 36.5289L40.8405 21.614L40.477 19.2985L20.4813 36.5289Z" fill="#70B06C"/>
<path d="M47.0211 31.4892C45.7055 30.9358 43.9915 29.3099 43.9915 29.3099L51.3232 23.3848L56.7766 22.4995C56.7766 22.4995 59.7692 23.1047 59.988 24.7469C60.1777 26.1708 58.0879 26.9155 56.8775 27.225C57.4604 27.1458 58.2127 27.1449 58.655 27.5392C59.9612 28.7036 56.7498 29.7736 55.1406 30.2634C53.4428 30.7801 50.6567 29.7866 50.6567 29.7866C50.6567 29.7866 51.8734 30.8442 52.0503 31.8298C52.4395 33.9976 48.8638 32.2645 47.0211 31.4892Z" fill="#41813A"/>
<path d="M8.42357 62L4.90918 59.2077C4.90918 59.2077 17.5088 50.2334 25.2078 43.8842C30.5774 39.4561 33.8997 37.3378 38.6595 32.1022C40.6459 29.9172 43.5069 26.2452 43.5069 26.2452V27.6754L44.6582 27.0625V28.9694C44.6582 28.9694 36.0096 38.3355 30.1159 43.8842C22.0253 51.5012 8.42357 62 8.42357 62Z" fill="#83C67E"/>
<path d="M37.8112 16.5666C38.4673 18.1284 40.2206 20.0632 40.2206 20.0632L43.8938 14.6276L47.3112 5.02534C47.3112 5.02534 47.1978 3.4693 46.5863 2.91316C45.4238 1.85583 44.4255 4.05107 43.3582 5.22849C42.452 6.22832 41.4732 8.2066 41.4732 8.2066C41.4732 8.2066 41.1829 6.46566 40.4205 5.98182C39.0069 5.08474 38.9944 8.42431 38.6446 10.206C38.4382 11.2578 38.4351 12.9539 38.4351 12.9539C38.4351 12.9539 37.6915 11.7546 36.9646 11.4417C35.2733 10.7137 37.0378 14.7259 37.8112 16.5666Z" fill="#41813A"/>
<path d="M43.651 24.3445C42.2217 23.7104 40.3898 21.87 40.3898 21.87L44.9763 17.396L53.2787 12.9375C53.2787 12.9375 54.6675 12.9633 55.2011 13.6129C56.2156 14.8479 54.3316 16.1106 53.3558 17.3843C52.5272 18.4659 50.8346 19.6926 50.8346 19.6926C50.8346 19.6926 52.3992 19.9048 52.8784 20.7283C53.767 22.2553 50.8029 22.4869 49.2438 22.9953C48.3235 23.2954 46.8178 23.4093 46.8178 23.4093C46.8178 23.4093 47.9311 24.1652 48.2562 24.9601C49.0127 26.8096 45.3357 25.0919 43.651 24.3445Z" fill="#31712A"/>
<path d="M42.9006 22.0908C42.8274 23.816 43.5671 26.4495 43.5671 26.4495L49.0811 23.5891L56.1099 16.9149C56.1099 16.9149 56.6598 15.4812 56.3522 14.6674C55.7676 13.1204 53.969 14.5317 52.5349 15.008C51.317 15.4124 49.6264 16.6425 49.6264 16.6425C49.6264 16.6425 50.0974 14.9522 49.6264 14.1226C48.7532 12.5845 47.3469 15.5264 46.2938 16.9149C45.6721 17.7345 44.9608 19.2304 44.9608 19.2304C44.9608 19.2304 44.8053 17.7791 44.2942 17.1192C43.1051 15.5838 42.9869 20.0575 42.9006 22.0908Z" fill="#41813A"/>
<path d="M39.9316 20.1158C39.9316 20.1158 39.3065 16.0247 39.9316 13.7821C40.4821 11.8075 41.6931 7.88912 42.7795 9.55962C43.2892 10.3432 43.1431 12.0114 43.1431 12.0114C43.1431 12.0114 43.7233 8.80813 44.8397 7.24407C45.8467 5.83321 47.6474 2.81008 48.1723 4.51989C48.4388 5.38791 47.8087 6.83544 47.8087 6.83544C47.8087 6.83544 49.301 5.56245 50.4142 5.13283C52.2718 4.41592 55.1505 2.95003 55.4435 5.13283C55.6335 6.54906 54.6098 7.21176 53.7468 8.26563C52.9104 9.28721 51.2019 10.3769 51.2019 10.3769C51.2019 10.3769 52.6531 9.78589 53.2621 10.3769C54.1672 11.2553 52.7099 12.4865 51.8685 13.4416C50.9948 14.4333 49.2647 14.7983 48.1917 14.9319C48.8329 14.9309 49.6412 15.0436 50.0507 15.5528C51.2513 17.0457 48.3541 18.4132 46.8392 19.2304C45.3244 20.0477 40.4164 22.0908 40.4164 22.0908L40.7193 20.5244L39.9316 20.1158Z" fill="#5FA657"/>
<path d="M43.4461 27.7435C43.4461 27.7435 43.3855 24.2021 44.355 22.4994C45.108 21.177 45.5057 18.3864 46.5969 19.3666C47.199 19.9075 47.2028 21.4779 47.2028 21.4779C47.2028 21.4779 48.3874 19.5341 49.3842 18.5494C50.509 17.4382 52.0503 15.689 52.6562 16.3019C53.2621 16.9149 52.4138 18.1953 52.6562 18.1408C52.9592 18.0727 55.5647 16.3019 55.5647 16.3019C55.5647 16.3019 57.7853 15.1898 58.8973 15.9614C60.7232 17.2285 55.0193 20.5925 55.2617 20.5925C55.5041 20.5925 56.3775 20.2341 56.9583 20.5925C58.1651 21.3372 56.8371 23.7253 55.2617 24.0659C53.7694 24.3884 51.6246 25.0776 51.4025 25.1494C51.5742 25.0949 52.8801 24.7022 53.5651 25.1555C54.9793 26.0915 52.1449 27.7193 50.7172 28.6288C48.6149 29.9682 44.5367 28.9694 44.5367 28.9694V27.1987L43.4461 27.7435Z" fill="#4D8C46"/>
<path d="M44.5369 27.403L45.5366 26.4155M56.4737 18.0046L49.869 22.5379M49.869 22.5379L48.536 23.4529L46.5364 25.428M49.869 22.5379L55.9283 22.0908M49.869 22.5379L51.3233 18.3451M46.5364 25.428L46.1729 21.0012M46.5364 25.428L45.5366 26.4155M45.5366 26.4155L51.0809 26.9263" stroke="#5FA457" stroke-linecap="round" stroke-linejoin="round"/>
<path d="M40.8403 20.5925L42.4763 18.0727M42.4763 18.0727L42.0522 11.2622M42.4763 18.0727L48.475 16.7787M42.4763 18.0727C43.6074 16.529 45.918 13.4416 46.1119 13.4416M46.1119 13.4416C46.3058 13.4416 50.5958 11.9887 52.7166 11.2622M46.1119 13.4416L46.8996 6.01819M46.1119 13.4416L52.4742 6.56302" stroke="#66B55D" stroke-linecap="round" stroke-linejoin="round"/>
</svg>
