<svg width="64" height="64" viewBox="0 0 64 64" fill="none" xmlns="http://www.w3.org/2000/svg">
<path d="M22.5698 45.4632C22.5698 45.4632 23.5095 45.2541 23.7436 44.8269C23.9112 44.5209 24.1192 44.2075 23.8163 43.9215C23.4494 43.5751 22.9422 43.9333 22.6488 44.2481C22.3246 44.596 22.5698 45.4632 22.5698 45.4632Z" fill="url(#paint0_radial_185_167)"/>
<path d="M22.0812 45.4075C22.0812 45.4075 22.5355 44.7 22.3411 44.2188C22.2303 43.9447 22.1649 43.6685 21.8459 43.5877C21.4037 43.4757 21.4218 44.0765 21.4655 44.4638C21.5105 44.863 22.0812 45.4075 22.0812 45.4075Z" fill="url(#paint1_radial_185_167)"/>
<path d="M21.5546 45.4394C21.5546 45.4394 21.5899 44.7524 21.3036 44.3936C21.1061 44.146 20.9156 43.8046 20.6245 43.891C20.32 43.9813 20.5528 44.3575 20.6819 44.6446C20.8565 45.0331 21.5546 45.4394 21.5546 45.4394Z" fill="url(#paint2_radial_185_167)"/>
<path d="M20.9391 45.3807C20.9391 45.3807 20.7722 44.9246 20.5169 44.7292C20.3193 44.578 19.9925 44.2786 19.9235 44.4719C19.8696 44.6232 20.0766 44.7159 20.206 44.8547C20.4396 45.1052 20.9391 45.3807 20.9391 45.3807Z" fill="url(#paint3_radial_185_167)"/>
<path d="M18.5461 42.6254C18.5461 42.6254 19.4119 42.7856 19.6598 43.1604C19.7874 43.3532 19.9329 43.5311 19.8123 43.6949C19.6526 43.9119 19.2712 43.6799 19 43.4989C18.6518 43.2665 18.5461 42.6254 18.5461 42.6254Z" fill="url(#paint4_radial_185_167)"/>
<path d="M19.098 42.2401C19.098 42.2401 19.8261 42.3996 20.1959 42.6641C20.4436 42.8412 20.7979 42.9663 20.729 43.2075C20.6532 43.4731 20.2139 43.3229 19.8946 43.2101C19.4087 43.0385 19.098 42.2401 19.098 42.2401Z" fill="url(#paint5_radial_185_167)"/>
<path d="M20.1925 41.9338C20.2754 41.9273 20.3655 41.9212 20.457 41.9135C20.5338 41.9427 20.6036 41.9818 20.6621 42.0333C20.8647 42.2117 21.1329 42.4139 20.9954 42.5943C20.9222 42.6902 20.8169 42.6907 20.6845 42.7197C20.1022 42.8477 19.2312 41.9334 19.2312 41.9334C19.2312 41.9334 19.4054 41.8865 19.6393 41.8584C19.8318 41.9137 20.0251 41.947 20.1925 41.9338Z" fill="url(#paint6_radial_185_167)"/>
<path d="M18.625 41.4104C18.625 41.4104 19.5713 40.8944 20.2652 41.0284C20.6662 41.1059 21.1039 41.1062 21.2362 41.4494C21.3713 41.7999 20.8975 41.8761 20.457 41.9135C20.21 41.8195 19.8903 41.8281 19.6393 41.8584C19.1292 41.7117 18.625 41.4104 18.625 41.4104Z" fill="url(#paint7_radial_185_167)"/>
<path d="M23.016 42.0194C22.7412 41.9924 22.4485 41.9904 22.2182 42.0536C22.1296 42.0378 22.0452 42.0127 21.9692 41.9755C21.7993 41.8921 21.5848 41.8598 21.5757 41.7007C21.5668 41.5452 21.7666 41.5411 21.9247 41.4877C22.4182 41.3209 23.3303 41.941 23.3303 41.941C23.3303 41.941 23.2021 41.9824 23.016 42.0194Z" fill="url(#paint8_radial_185_167)"/>
<path d="M23.8697 42.1749C23.8697 42.1749 23.0945 42.6097 22.4992 42.6738C22.0949 42.7173 21.5791 42.9828 21.43 42.6266C21.2915 42.2955 21.7819 42.2247 22.112 42.0894C22.1456 42.0757 22.1811 42.0638 22.2182 42.0536C22.4866 42.1015 22.7929 42.0637 23.016 42.0194C23.4669 42.0636 23.8697 42.1749 23.8697 42.1749Z" fill="url(#paint9_radial_185_167)"/>
<path d="M23.8254 42.5721C23.8254 42.5721 22.6942 42.474 22.3502 42.8694C22.2009 43.041 22.0361 43.1659 22.1219 43.3951C22.2607 43.7659 22.8404 43.4564 23.1942 43.2874C23.5523 43.1165 23.8254 42.5721 23.8254 42.5721Z" fill="url(#paint10_radial_185_167)"/>
<path fill-rule="evenodd" clip-rule="evenodd" d="M21.3052 38.9287C24.5831 39.3874 27.9871 41.3131 28.0201 44.1306C28.0538 47.0061 24.8833 47.6635 21.13 47.5977C17.5499 47.5349 14.8607 44.2117 14.7933 42.3539C14.79 42.264 14.7929 42.1776 14.8021 42.0952C15.0014 40.3077 18.1062 38.4811 21.3052 38.9287ZM22.3411 44.2188C22.5355 44.7 22.0812 45.4075 22.0812 45.4075C22.0812 45.4075 21.5105 44.863 21.4655 44.4638C21.4218 44.0765 21.4037 43.4757 21.8459 43.5877C22.1649 43.6685 22.2303 43.9447 22.3411 44.2188ZM23.7436 44.8269C23.5095 45.2541 22.5698 45.4632 22.5698 45.4632C22.5698 45.4632 22.3246 44.596 22.6488 44.2481C22.9422 43.9333 23.4494 43.5751 23.8163 43.9215C24.1192 44.2075 23.9112 44.5209 23.7436 44.8269ZM21.3036 44.3936C21.5899 44.7524 21.5546 45.4394 21.5546 45.4394C21.5546 45.4394 20.8565 45.0331 20.6819 44.6446C20.5528 44.3575 20.32 43.9813 20.6245 43.891C20.9156 43.8046 21.1061 44.146 21.3036 44.3936ZM20.5169 44.7292C20.7722 44.9246 20.9391 45.3807 20.9391 45.3807C20.9391 45.3807 20.4396 45.1052 20.206 44.8547C20.0766 44.7159 19.8696 44.6232 19.9235 44.4719C19.9925 44.2786 20.3193 44.578 20.5169 44.7292ZM22.4992 42.6738C23.0945 42.6097 23.8697 42.1749 23.8697 42.1749C23.8697 42.1749 23.4669 42.0636 23.016 42.0194C23.2021 41.9824 23.3303 41.941 23.3303 41.941C23.3303 41.941 22.4182 41.3209 21.9247 41.4877C21.7666 41.5411 21.5668 41.5452 21.5757 41.7007C21.5848 41.8598 21.7993 41.8921 21.9692 41.9755C22.0452 42.0127 22.1296 42.0378 22.2182 42.0536C22.1811 42.0638 22.1456 42.0757 22.112 42.0894C21.7819 42.2247 21.2915 42.2955 21.43 42.6266C21.5791 42.9828 22.0949 42.7173 22.4992 42.6738ZM22.3502 42.8694C22.6942 42.474 23.8254 42.5721 23.8254 42.5721C23.8254 42.5721 23.5523 43.1165 23.1942 43.2874C22.8404 43.4564 22.2607 43.7659 22.1219 43.3951C22.0361 43.1659 22.2009 43.041 22.3502 42.8694ZM20.2652 41.0284C19.5713 40.8944 18.625 41.4104 18.625 41.4104C18.625 41.4104 19.1292 41.7117 19.6393 41.8584C19.4054 41.8865 19.2312 41.9334 19.2312 41.9334C19.2312 41.9334 20.1022 42.8477 20.6845 42.7197C20.8169 42.6907 20.9222 42.6902 20.9954 42.5943C21.1329 42.4139 20.8647 42.2117 20.6621 42.0333C20.6036 41.9818 20.5338 41.9427 20.457 41.9135C20.8975 41.8761 21.3713 41.7999 21.2362 41.4494C21.1039 41.1062 20.6662 41.1059 20.2652 41.0284ZM20.1959 42.6641C19.8261 42.3996 19.098 42.2401 19.098 42.2401C19.098 42.2401 19.4087 43.0385 19.8946 43.2101C20.2139 43.3229 20.6532 43.4731 20.729 43.2075C20.7979 42.9663 20.4436 42.8412 20.1959 42.6641ZM19.6598 43.1604C19.4119 42.7856 18.5461 42.6254 18.5461 42.6254C18.5461 42.6254 18.6518 43.2665 19 43.4989C19.2712 43.6799 19.6526 43.9119 19.8123 43.6949C19.9329 43.5311 19.7874 43.3532 19.6598 43.1604Z" fill="url(#paint11_radial_185_167)"/>
<path d="M21.13 47.5977C24.8833 47.6635 28.0538 47.0061 28.0201 44.1306C28.0201 44.1306 28.3871 45.3519 28.319 46.3943C28.2508 47.4368 25.3943 49.5225 22.1268 49.4353C19.1472 49.3558 16.6476 48.2687 15.0888 45.8632C14.7408 45.3262 14.7717 43.1149 14.7933 42.3539C14.8607 44.2117 17.5499 47.5349 21.13 47.5977Z" fill="url(#paint12_linear_185_167)"/>
<path d="M6.82865 27.4842C5.09541 29.0305 3.45124 32.2539 4.60021 35.1538C5.73408 38.0156 8.74761 39.236 11.3474 39.236C13.9473 39.236 24.5829 33.3788 33.3843 30.5149C41.6301 27.8318 47.8073 24.2679 49.9119 23.2782C51.8617 22.3614 56.893 21.71 57.2782 17.9305C57.3088 17.6304 57.3101 17.3106 57.2782 16.9693C57.2541 16.7112 57.2159 16.4638 57.1642 16.2271C56.5945 13.6225 54.3741 12.3047 51.0262 12.0212C47.374 11.7119 37.7141 14.8442 29.4845 17.6497C20.3548 20.7621 8.5619 25.9379 6.82865 27.4842Z" fill="url(#paint13_linear_185_167)"/>
<path d="M57.1642 16.2271C57.2159 16.4638 57.2541 16.7112 57.2782 16.9693C57.3101 17.3106 57.3088 17.6304 57.2782 17.9305L60.8065 18.7012C60.8065 18.7012 61.8329 18.8423 61.9827 18.3919C62.1122 18.0022 61.4874 17.4642 61.4874 17.4642L57.1642 16.2271Z" fill="#657837"/>
<path d="M52.6975 19.3816C50.6548 19.8145 35.0557 29.2779 35.0557 29.2779L40.5649 41.8956C40.5649 41.8956 56.0082 32.989 58.0829 29.8345C60.1577 26.6801 61.2399 24.4534 59.6924 21.7319C59.5651 21.5082 59.4253 21.3024 59.2748 21.1134C58.9547 20.7115 58.5859 20.3855 58.1857 20.1238C56.4846 19.0113 54.2152 19.0599 52.6975 19.3816Z" fill="url(#paint14_linear_185_167)"/>
<path d="M58.8876 19.2578L58.1857 20.1238C58.5859 20.3855 58.9547 20.7115 59.2748 21.1134C59.2748 21.1134 59.5211 20.5084 59.4448 20.1238C59.3665 19.7294 58.8876 19.2578 58.8876 19.2578Z" fill="url(#paint15_linear_185_167)"/>
<path d="M6.76643 34.9064C6.65448 34.5113 5.83791 34.4116 5.83791 34.4116C5.83791 34.4116 6.3597 34.0167 6.33312 33.6694C6.29354 33.1523 5.15699 34.2879 5.15699 34.2879C5.15699 34.2879 4.85769 34.6733 4.66178 35.0339C4.48882 35.3523 4.39645 35.6513 4.66178 35.6486C4.86832 35.6466 5.15699 35.4631 5.15699 35.4631C5.15699 35.4631 5.5042 35.7533 5.83791 35.8279C5.92335 35.8469 6.0079 35.8519 6.08551 35.8342C6.52391 35.7343 6.88892 35.3387 6.76643 34.9064Z" fill="#D1AF80"/>
<path d="M5.15699 35.4631C5.15699 35.4631 4.86832 35.6466 4.66178 35.6486C4.39645 35.6513 4.48882 35.3523 4.66178 35.0339C4.66178 35.0339 3.18953 35.4376 2.61901 36.1435C1.99275 36.9182 2 38.6175 2 38.6175L2.49521 37.9372C2.49521 37.9372 2.9327 38.3704 3.17612 38.6794C3.51217 39.1059 3.91894 39.8546 3.91894 39.8546C3.91894 39.8546 3.55682 39.1606 3.54753 38.6794C3.53939 38.2576 3.4044 37.7876 3.79514 37.6279C4.09945 37.5035 4.27845 37.9446 4.59985 37.8753C4.82278 37.8272 5.09506 37.566 5.09506 37.566C5.09506 37.566 5.36235 37.8832 5.59027 37.8753C5.89967 37.8646 6.1343 37.5623 6.08551 37.2568C6.05804 37.0848 5.83791 36.8857 5.83791 36.8857V35.8279C5.5042 35.7533 5.15699 35.4631 5.15699 35.4631Z" fill="url(#paint16_linear_185_167)"/>
<path d="M36.2315 36.6383C35.9778 36.1322 35.1173 35.7105 35.1173 35.7105C35.1173 35.7105 34.9735 36.6783 35.2411 37.1949C35.493 37.6813 35.7838 38.3244 36.2934 38.1227C36.4223 38.0717 36.501 37.99 36.5425 37.888C36.5449 37.7551 36.5362 37.6246 36.5662 37.517C36.5199 37.2322 36.365 36.9045 36.2315 36.6383Z" fill="url(#paint17_radial_185_167)"/>
<path d="M36.541 37.9372C36.5107 38.6231 37.6552 39.2979 37.6552 39.2979C37.6552 39.2979 37.6734 38.3401 37.3457 37.8753C37.1584 37.6096 37.0167 37.1715 36.7267 37.3186C36.6352 37.365 36.5893 37.4343 36.5662 37.517C36.5886 37.6546 36.5856 37.7822 36.5425 37.888C36.5422 37.9044 36.5417 37.9208 36.541 37.9372Z" fill="url(#paint18_radial_185_167)"/>
<path d="M37.7171 38.1846C37.7171 38.1846 36.9992 37.5932 36.9743 37.0712C36.9626 36.8252 36.8561 36.4995 37.0981 36.4527C37.2573 36.422 37.3402 36.5405 37.4695 36.6383C37.9575 37.0074 37.7171 38.1846 37.7171 38.1846Z" fill="url(#paint19_radial_185_167)"/>
<path d="M38.7075 38.9886C38.7075 38.9886 38.1276 38.1712 37.9647 37.566C37.8822 37.2592 37.6515 37.0172 37.8409 36.762C38.1053 36.4058 38.5758 36.9561 38.8313 37.3186C39.2082 37.8533 38.7075 38.9886 38.7075 38.9886Z" fill="url(#paint20_radial_185_167)"/>
<path d="M39.2647 36.4527C39.7377 36.0034 39.2647 34.7827 39.2647 34.7827C39.2647 34.7827 39.0198 34.9217 38.7597 35.1382C38.6304 35.4253 38.439 35.7416 38.1916 35.8546C38.1656 35.9292 38.1507 36.0051 38.1504 36.0816C38.1493 36.357 38.1186 36.5929 38.3361 36.762C38.6378 36.9965 38.9876 36.7159 39.2647 36.4527Z" fill="url(#paint21_radial_185_167)"/>
<path d="M37.4695 35.7105C37.5487 35.9011 37.7589 35.879 37.9647 35.896C38.0449 35.9027 38.1206 35.887 38.1916 35.8546C38.2863 35.5833 38.529 35.3303 38.7597 35.1382C38.888 34.8533 38.9552 34.5972 38.9552 34.5972C38.9552 34.5972 38.5141 34.6564 38.124 34.8353C38.0238 34.9193 37.9155 34.9887 37.8031 35.0276C37.7139 35.0995 37.6403 35.1824 37.5933 35.2775C37.5155 35.4352 37.4021 35.5481 37.4695 35.7105Z" fill="url(#paint22_radial_185_167)"/>
<path d="M37.2838 35.0301C37.3781 35.1408 37.5102 35.0714 37.6552 35.0596C37.7051 35.0555 37.7545 35.0444 37.8031 35.0276C37.897 34.9519 38.0083 34.8883 38.124 34.8353C38.462 34.5517 38.7075 34.1023 38.7075 34.1023C38.7075 34.1023 37.7645 34.1684 37.4695 34.5972C37.3652 34.7487 37.1645 34.89 37.2838 35.0301Z" fill="url(#paint23_radial_185_167)"/>
<path d="M38.4599 33.6075C38.4599 33.6075 38.0813 34.1388 37.7171 34.2879C37.6464 34.3169 37.603 34.3767 37.5314 34.3498C37.4382 34.3146 37.4729 34.2019 37.4695 34.1023C37.4549 33.6705 38.4599 33.6075 38.4599 33.6075Z" fill="url(#paint24_radial_185_167)"/>
<path d="M35.4887 33.6075C35.4887 33.6075 36.1996 34.1249 36.7267 34.2879C36.9396 34.3537 37.076 34.492 37.2838 34.4116C37.6473 34.271 37.3979 33.7305 37.16 33.422C36.7592 32.9022 35.4887 33.6075 35.4887 33.6075Z" fill="url(#paint25_radial_185_167)"/>
<path d="M36.541 34.4116C36.1585 34.057 35.2411 34.1023 35.2411 34.1023C35.2411 34.1023 35.5724 34.9083 36.0195 35.1993C36.2349 35.275 36.47 35.3851 36.6302 35.5378C36.7477 35.5667 36.8628 35.5535 36.9743 35.4631C37.3194 35.1833 36.8668 34.7136 36.541 34.4116Z" fill="url(#paint26_radial_185_167)"/>
<path d="M36.9743 36.329C37.124 36.0891 36.8892 35.8801 36.7267 35.6486C36.6992 35.6094 36.6666 35.5725 36.6302 35.5378C36.4406 35.491 36.2445 35.3347 36.0458 35.2157C36.037 35.2104 36.0283 35.2049 36.0195 35.1993C35.737 35.0999 35.4887 35.0596 35.4887 35.0596C35.4887 35.0596 35.743 36.5321 36.4172 36.5146C36.6465 36.5086 36.853 36.5235 36.9743 36.329Z" fill="url(#paint27_radial_185_167)"/>
<path fill-rule="evenodd" clip-rule="evenodd" d="M37.16 29.0305C33.5697 27.9172 32.7031 31.899 32.7031 34.7209C32.7031 37.1331 34.8078 40.1638 37.16 41.5246C39.5123 42.8853 42.1077 42.4344 41.9264 37.9372C41.7451 33.4399 40.7503 30.1438 37.16 29.0305ZM35.2411 34.1023C35.2411 34.1023 36.1585 34.057 36.541 34.4116C36.8668 34.7136 37.3194 35.1833 36.9743 35.4631C36.8628 35.5535 36.7477 35.5667 36.6302 35.5378C36.6666 35.5725 36.6992 35.6094 36.7267 35.6486C36.8892 35.8801 37.124 36.0891 36.9743 36.329C36.853 36.5235 36.6465 36.5086 36.4172 36.5146C35.743 36.5321 35.4887 35.0596 35.4887 35.0596C35.4887 35.0596 35.737 35.0999 36.0195 35.1993C35.5724 34.9083 35.2411 34.1023 35.2411 34.1023ZM36.7267 34.2879C36.1996 34.1249 35.4887 33.6075 35.4887 33.6075C35.4887 33.6075 36.7592 32.9022 37.16 33.422C37.3979 33.7305 37.6473 34.271 37.2838 34.4116C37.076 34.492 36.9396 34.3537 36.7267 34.2879ZM35.1173 35.7105C35.1173 35.7105 35.9778 36.1322 36.2315 36.6383C36.365 36.9045 36.5199 37.2322 36.5662 37.517C36.5893 37.4343 36.6352 37.365 36.7267 37.3186C37.0167 37.1715 37.1584 37.6096 37.3457 37.8753C37.6734 38.3401 37.6552 39.2979 37.6552 39.2979C37.6552 39.2979 36.5107 38.6231 36.541 37.9372C36.5417 37.9208 36.5422 37.9044 36.5425 37.888C36.501 37.99 36.4223 38.0717 36.2934 38.1227C35.7838 38.3244 35.493 37.6813 35.2411 37.1949C34.9735 36.6783 35.1173 35.7105 35.1173 35.7105ZM36.9743 37.0712C36.9992 37.5932 37.7171 38.1846 37.7171 38.1846C37.7171 38.1846 37.9575 37.0074 37.4695 36.6383C37.3402 36.5405 37.2573 36.422 37.0981 36.4527C36.8561 36.4995 36.9626 36.8252 36.9743 37.0712ZM37.9647 37.566C38.1276 38.1712 38.7075 38.9886 38.7075 38.9886C38.7075 38.9886 39.2082 37.8533 38.8313 37.3186C38.5758 36.9561 38.1053 36.4058 37.8409 36.762C37.6515 37.0172 37.8822 37.2592 37.9647 37.566ZM39.2647 34.7827C39.2647 34.7827 39.7377 36.0034 39.2647 36.4527C38.9876 36.7159 38.6378 36.9965 38.3361 36.762C38.1186 36.5929 38.1493 36.357 38.1504 36.0816C38.1507 36.0051 38.1656 35.9292 38.1916 35.8546C38.1206 35.887 38.0449 35.9027 37.9647 35.896C37.7589 35.879 37.5487 35.9011 37.4695 35.7105C37.4021 35.5481 37.5155 35.4352 37.5933 35.2775C37.6403 35.1824 37.7139 35.0995 37.8031 35.0276C37.7545 35.0444 37.7051 35.0555 37.6552 35.0596C37.5102 35.0714 37.3781 35.1408 37.2838 35.0301C37.1645 34.89 37.3652 34.7487 37.4695 34.5972C37.7645 34.1684 38.7075 34.1023 38.7075 34.1023C38.7075 34.1023 38.462 34.5517 38.124 34.8353C38.5141 34.6564 38.9552 34.5972 38.9552 34.5972C38.9552 34.5972 38.888 34.8533 38.7597 35.1382C39.0198 34.9217 39.2647 34.7827 39.2647 34.7827ZM37.7171 34.2879C38.0813 34.1388 38.4599 33.6075 38.4599 33.6075C38.4599 33.6075 37.4549 33.6705 37.4695 34.1023C37.4729 34.2019 37.4382 34.3146 37.5314 34.3498C37.603 34.3767 37.6464 34.3169 37.7171 34.2879Z" fill="url(#paint28_radial_185_167)"/>
<path d="M28.7801 39.5385C28.7801 39.5385 29.6621 39.4025 29.8135 39.0876C29.9219 38.862 30.0684 38.6317 29.7197 38.4106C29.2974 38.1429 28.8661 38.4002 28.6361 38.6297C28.3821 38.8832 28.7801 39.5385 28.7801 39.5385Z" fill="url(#paint29_radial_185_167)"/>
<path d="M28.2915 39.486C28.2915 39.486 28.6075 38.9658 28.3294 38.6009C28.1711 38.393 28.0567 38.1845 27.7297 38.1169C27.2762 38.0232 27.4034 38.4739 27.5168 38.7651C27.6336 39.0653 28.2915 39.486 28.2915 39.486Z" fill="url(#paint30_radial_185_167)"/>
<path d="M27.7817 39.4982C27.7817 39.4982 27.6911 38.9841 27.3455 38.709C27.107 38.519 26.8583 38.2589 26.589 38.3172C26.3073 38.3782 26.6038 38.6653 26.7824 38.8833C27.0242 39.1783 27.7817 39.4982 27.7817 39.4982Z" fill="url(#paint31_radial_185_167)"/>
<path d="M27.1684 39.4407C27.1684 39.4407 26.9219 39.0951 26.6363 38.9431C26.4153 38.8254 26.0408 38.5937 26.0085 38.7371C25.9832 38.8493 26.2028 38.9233 26.3548 39.0302C26.6292 39.2231 27.1684 39.4407 27.1684 39.4407Z" fill="url(#paint32_radial_185_167)"/>
<path d="M24.3234 37.3228C24.3234 37.3228 25.2004 37.462 25.5114 37.7484C25.6714 37.8957 25.8463 38.0322 25.758 38.1524C25.6412 38.3114 25.2255 38.1291 24.927 37.9875C24.5437 37.8056 24.3234 37.3228 24.3234 37.3228Z" fill="url(#paint33_radial_185_167)"/>
<path d="M24.7936 37.0462C24.7936 37.0462 25.5356 37.1819 25.9458 37.3882C26.2206 37.5265 26.5904 37.628 26.5669 37.8073C26.541 38.0047 26.0835 37.8824 25.7503 37.7908C25.2433 37.6515 24.7936 37.0462 24.7936 37.0462Z" fill="url(#paint34_radial_185_167)"/>
<path d="M25.8095 36.8409C25.8894 36.8378 25.9765 36.8353 26.0647 36.8315C26.1453 36.8551 26.2207 36.886 26.2874 36.9259C26.5182 37.064 26.8177 37.2215 26.7159 37.3536C26.6618 37.4239 26.5587 37.4219 26.4344 37.4408C25.8875 37.5238 24.8681 36.8194 24.8681 36.8194C24.8681 36.8194 25.0302 36.7881 25.2541 36.7721C25.4526 36.8178 25.648 36.8471 25.8095 36.8409Z" fill="url(#paint35_radial_185_167)"/>
<path d="M24.1794 36.414C24.1794 36.414 25.0119 36.0481 25.7157 36.1639C26.1225 36.2309 26.5511 36.2408 26.7431 36.5009C26.9393 36.7666 26.4892 36.8132 26.0647 36.8315C25.8058 36.7556 25.4943 36.755 25.2541 36.7721C24.7279 36.6509 24.1794 36.414 24.1794 36.414Z" fill="url(#paint36_radial_185_167)"/>
<path d="M28.5896 36.9674C28.3157 36.9412 28.0287 36.9332 27.8147 36.9755C27.7251 36.9617 27.6379 36.941 27.5567 36.9114C27.3752 36.8451 27.1593 36.8162 27.1214 36.6968C27.0843 36.58 27.2792 36.5813 27.4242 36.5448C27.8771 36.4307 28.8831 36.9156 28.8831 36.9156C28.8831 36.9156 28.7651 36.9438 28.5896 36.9674Z" fill="url(#paint37_radial_185_167)"/>
<path d="M29.4539 37.1028C29.4539 37.1028 28.7741 37.4116 28.2029 37.4464C27.8149 37.4701 27.3582 37.6577 27.1474 37.3874C26.9514 37.1362 27.4187 37.094 27.7173 36.9999C27.7476 36.9904 27.7802 36.9823 27.8147 36.9755C28.0862 37.0172 28.3792 36.9957 28.5896 36.9674C29.0392 37.0105 29.4539 37.1028 29.4539 37.1028Z" fill="url(#paint38_radial_185_167)"/>
<path d="M29.4828 37.3995C29.4828 37.3995 28.3573 37.301 28.0926 37.5897C27.9777 37.715 27.8391 37.805 27.9648 37.9787C28.1682 38.2596 28.6795 38.0405 28.9952 37.9217C29.3146 37.8015 29.4828 37.3995 29.4828 37.3995Z" fill="url(#paint39_radial_185_167)"/>
<path fill-rule="evenodd" clip-rule="evenodd" d="M26.3515 34.6133C29.6446 35.0295 33.3283 36.5479 33.8739 38.6602C34.4307 40.8161 31.4461 41.2387 27.7592 41.1064C24.2423 40.9802 21.0039 38.4302 20.5994 37.0364C20.5799 36.969 20.5669 36.9043 20.5609 36.8427C20.4305 35.5075 23.1378 34.2071 26.3515 34.6133ZM28.3294 38.6009C28.6075 38.9658 28.2915 39.486 28.2915 39.486C28.2915 39.486 27.6336 39.0653 27.5168 38.7651C27.4034 38.4739 27.2762 38.0232 27.7297 38.1169C28.0567 38.1845 28.1711 38.393 28.3294 38.6009ZM29.8135 39.0876C29.6621 39.4025 28.7801 39.5385 28.7801 39.5385C28.7801 39.5385 28.3821 38.8832 28.6361 38.6297C28.8661 38.4002 29.2974 38.1429 29.7197 38.4106C30.0684 38.6317 29.9219 38.862 29.8135 39.0876ZM27.3455 38.709C27.6911 38.9841 27.7817 39.4982 27.7817 39.4982C27.7817 39.4982 27.0242 39.1783 26.7824 38.8833C26.6038 38.6653 26.3073 38.3782 26.589 38.3172C26.8583 38.2589 27.107 38.519 27.3455 38.709ZM26.6363 38.9431C26.9219 39.0951 27.1684 39.4407 27.1684 39.4407C27.1684 39.4407 26.6292 39.2231 26.3548 39.0302C26.2028 38.9233 25.9832 38.8493 26.0085 38.7371C26.0408 38.5937 26.4153 38.8254 26.6363 38.9431ZM28.2029 37.4464C28.7741 37.4116 29.4539 37.1028 29.4539 37.1028C29.4539 37.1028 29.0392 37.0105 28.5896 36.9674C28.7651 36.9438 28.8831 36.9156 28.8831 36.9156C28.8831 36.9156 27.8771 36.4307 27.4242 36.5448C27.2792 36.5813 27.0843 36.58 27.1214 36.6968C27.1593 36.8162 27.3752 36.8451 27.5567 36.9114C27.6379 36.941 27.7251 36.9617 27.8147 36.9755C27.7802 36.9823 27.7476 36.9904 27.7173 36.9999C27.4187 37.094 26.9514 37.1362 27.1474 37.3874C27.3582 37.6577 27.8149 37.4701 28.2029 37.4464ZM28.0926 37.5897C28.3573 37.301 29.4828 37.3995 29.4828 37.3995C29.4828 37.3995 29.3146 37.8015 28.9952 37.9217C28.6795 38.0405 28.1682 38.2596 27.9648 37.9787C27.8391 37.805 27.9777 37.715 28.0926 37.5897ZM25.7157 36.1639C25.0119 36.0481 24.1794 36.414 24.1794 36.414C24.1794 36.414 24.7279 36.6509 25.2541 36.7721C25.0302 36.7881 24.8681 36.8194 24.8681 36.8194C24.8681 36.8194 25.8875 37.5238 26.4344 37.4408C26.5587 37.4219 26.6618 37.4239 26.7159 37.3536C26.8177 37.2215 26.5182 37.064 26.2874 36.9259C26.2207 36.886 26.1453 36.8551 26.0647 36.8315C26.4892 36.8132 26.9393 36.7666 26.7431 36.5009C26.5511 36.2408 26.1225 36.2309 25.7157 36.1639ZM25.9458 37.3882C25.5356 37.1819 24.7936 37.0462 24.7936 37.0462C24.7936 37.0462 25.2433 37.6515 25.7503 37.7908C26.0835 37.8824 26.541 38.0047 26.5669 37.8073C26.5904 37.628 26.2206 37.5265 25.9458 37.3882ZM25.5114 37.7484C25.2004 37.462 24.3234 37.3228 24.3234 37.3228C24.3234 37.3228 24.5437 37.8056 24.927 37.9875C25.2255 38.1291 25.6412 38.3114 25.758 38.1524C25.8463 38.0322 25.6714 37.8957 25.5114 37.7484Z" fill="url(#paint40_radial_185_167)"/>
<path d="M27.7592 41.1064C31.4461 41.2387 34.4307 40.8161 33.8739 38.6602C33.8739 38.6602 34.3745 41.2153 33.5698 41.7101C32.7651 42.205 31.8048 43.6414 28.5896 43.5038C25.6576 43.3784 22.2874 41.3757 20.3229 39.5385C19.8844 39.1284 20.7169 37.6062 20.5994 37.0364C21.0039 38.4302 24.2423 40.9802 27.7592 41.1064Z" fill="url(#paint41_linear_185_167)"/>
<path d="M32.2701 46.0397C32.2701 46.0397 31.4504 45.3071 31.4035 44.679C31.3699 44.229 31.3006 43.7495 31.713 43.5657C32.2126 43.343 32.5521 44.0301 32.7034 44.5553C32.8706 45.1356 32.2701 46.0397 32.2701 46.0397Z" fill="url(#paint42_radial_185_167)"/>
<path d="M32.7654 46.2253C32.7654 46.2253 32.6234 45.1507 33.0129 44.679C33.2349 44.4103 33.4139 44.1159 33.7558 44.1842C34.2299 44.2789 33.9604 44.9835 33.7558 45.4212C33.5448 45.8724 32.7654 46.2253 32.7654 46.2253Z" fill="url(#paint43_radial_185_167)"/>
<path d="M33.2606 46.5346C33.2606 46.5346 33.5146 45.7 33.9415 45.4212C34.2361 45.2288 34.5632 44.9212 34.8081 45.1738C35.0643 45.4381 34.6817 45.7651 34.4367 46.0397C34.1051 46.4115 33.2606 46.5346 33.2606 46.5346Z" fill="url(#paint44_radial_185_167)"/>
<path d="M33.8796 46.782C33.8796 46.782 34.232 46.3259 34.5605 46.2253C34.8147 46.1474 35.2559 45.96 35.2414 46.2253C35.2301 46.4328 34.9913 46.4363 34.8081 46.5346C34.4774 46.7119 33.8796 46.782 33.8796 46.782Z" fill="url(#paint45_radial_185_167)"/>
<path d="M37.346 44.7408C37.346 44.7408 36.4427 44.4851 36.0461 44.8027C35.8421 44.9661 35.6269 45.1025 35.6747 45.3594C35.7379 45.6994 36.2035 45.6203 36.5413 45.5449C36.9751 45.4482 37.346 44.7408 37.346 44.7408Z" fill="url(#paint46_radial_185_167)"/>
<path d="M36.9746 43.9986C36.9746 43.9986 36.2046 43.813 35.7366 43.9368C35.4231 44.0197 35.0284 43.9857 34.9938 44.3079C34.9556 44.6625 35.4429 44.7104 35.7985 44.7408C36.3398 44.7873 36.9746 43.9986 36.9746 43.9986Z" fill="url(#paint47_radial_185_167)"/>
<path d="M36.0461 43.0708C35.9688 43.0204 35.8844 42.9667 35.7992 42.9104C35.7128 42.9055 35.629 42.9161 35.5509 42.9471C35.2805 43.0547 34.9366 43.1568 34.9938 43.442C35.0242 43.5936 35.1257 43.6484 35.2414 43.7512C35.7501 44.2033 36.9746 43.5657 36.9746 43.5657C36.9746 43.5657 36.826 43.4202 36.612 43.2662C36.4029 43.2328 36.2022 43.1728 36.0461 43.0708Z" fill="url(#paint48_radial_185_167)"/>
<path d="M37.7793 43.2564C37.7793 43.2564 37.0819 42.1557 36.3556 41.9575C35.9359 41.843 35.5131 41.6179 35.2414 41.9575C34.9639 42.3044 35.3895 42.639 35.7992 42.9104C36.0772 42.926 36.3823 43.101 36.612 43.2662C37.1661 43.3547 37.7793 43.2564 37.7793 43.2564Z" fill="url(#paint49_radial_185_167)"/>
<path d="M33.2836 41.7178C33.5602 41.8274 33.8437 41.9757 34.0397 42.1695C34.1318 42.1964 34.2239 42.2101 34.3129 42.2049C34.5119 42.1934 34.7326 42.2656 34.8081 42.0812C34.8819 41.901 34.6907 41.7931 34.5605 41.6483C34.1538 41.1958 33.0129 41.4627 33.0129 41.4627C33.0129 41.4627 33.1194 41.578 33.2836 41.7178Z" fill="url(#paint50_radial_185_167)"/>
<path d="M32.3939 41.4627C32.3939 41.4627 32.9602 42.3788 33.5082 42.7616C33.8804 43.0216 34.2671 43.6029 34.5605 43.2564C34.8332 42.9344 34.3892 42.5975 34.1272 42.2668C34.1005 42.2332 34.0712 42.2008 34.0397 42.1695C33.7604 42.0881 33.4805 41.8854 33.2836 41.7178C32.8296 41.538 32.3939 41.4627 32.3939 41.4627Z" fill="url(#paint51_radial_185_167)"/>
<path d="M32.2701 41.9575C32.2701 41.9575 33.4037 42.4238 33.5701 43.0708C33.6422 43.3516 33.749 43.5849 33.5701 43.8131C33.2805 44.1822 32.8505 43.5157 32.5796 43.1327C32.3056 42.7451 32.2701 41.9575 32.2701 41.9575Z" fill="url(#paint52_radial_185_167)"/>
<path fill-rule="evenodd" clip-rule="evenodd" d="M36.2319 38.9268C32.874 37.783 28.7792 38.3174 27.5657 41.6483C26.3272 45.0477 29.1133 47.4623 32.7654 49.3179C36.2491 51.0879 40.2397 48.5245 41.084 46.3517C41.1248 46.2466 41.1583 46.1424 41.184 46.0397C41.7412 43.8131 39.5089 40.043 36.2319 38.9268ZM33.0129 44.679C32.6234 45.1507 32.7654 46.2253 32.7654 46.2253C32.7654 46.2253 33.5448 45.8724 33.7558 45.4212C33.9604 44.9835 34.2299 44.2789 33.7558 44.1842C33.4139 44.1159 33.2349 44.4103 33.0129 44.679ZM31.4035 44.679C31.4504 45.3071 32.2701 46.0397 32.2701 46.0397C32.2701 46.0397 32.8706 45.1356 32.7034 44.5553C32.5521 44.0301 32.2126 43.343 31.713 43.5657C31.3006 43.7495 31.3699 44.229 31.4035 44.679ZM33.9415 45.4212C33.5146 45.7 33.2606 46.5346 33.2606 46.5346C33.2606 46.5346 34.1051 46.4115 34.4367 46.0397C34.6817 45.7651 35.0643 45.4381 34.8081 45.1738C34.5632 44.9212 34.2361 45.2288 33.9415 45.4212ZM34.5605 46.2253C34.232 46.3259 33.8796 46.782 33.8796 46.782C33.8796 46.782 34.4774 46.7119 34.8081 46.5346C34.9913 46.4363 35.2301 46.4328 35.2414 46.2253C35.2559 45.96 34.8147 46.1474 34.5605 46.2253ZM33.5082 42.7616C32.9602 42.3788 32.3939 41.4627 32.3939 41.4627C32.3939 41.4627 32.8296 41.538 33.2836 41.7178C33.1194 41.578 33.0129 41.4627 33.0129 41.4627C33.0129 41.4627 34.1538 41.1958 34.5605 41.6483C34.6907 41.7931 34.8819 41.901 34.8081 42.0812C34.7326 42.2656 34.5119 42.1934 34.3129 42.2049C34.2239 42.2101 34.1318 42.1964 34.0397 42.1695C34.0712 42.2008 34.1005 42.2332 34.1272 42.2668C34.3892 42.5975 34.8332 42.9344 34.5605 43.2564C34.2671 43.6029 33.8804 43.0216 33.5082 42.7616ZM33.5701 43.0708C33.4037 42.4238 32.2701 41.9575 32.2701 41.9575C32.2701 41.9575 32.3056 42.7451 32.5796 43.1327C32.8505 43.5157 33.2805 44.1822 33.5701 43.8131C33.749 43.5849 33.6422 43.3516 33.5701 43.0708ZM36.3556 41.9575C37.0819 42.1557 37.7793 43.2564 37.7793 43.2564C37.7793 43.2564 37.1661 43.3547 36.612 43.2662C36.826 43.4202 36.9746 43.5657 36.9746 43.5657C36.9746 43.5657 35.7501 44.2033 35.2414 43.7512C35.1257 43.6484 35.0242 43.5936 34.9938 43.442C34.9366 43.1568 35.2805 43.0547 35.5509 42.9471C35.629 42.9161 35.7128 42.9055 35.7992 42.9104C35.3895 42.639 34.9639 42.3044 35.2414 41.9575C35.5131 41.6179 35.9359 41.843 36.3556 41.9575ZM35.7366 43.9368C36.2046 43.813 36.9746 43.9986 36.9746 43.9986C36.9746 43.9986 36.3398 44.7873 35.7985 44.7408C35.4429 44.7104 34.9556 44.6625 34.9938 44.3079C35.0284 43.9857 35.4231 44.0197 35.7366 43.9368ZM36.0461 44.8027C36.4427 44.4851 37.346 44.7408 37.346 44.7408C37.346 44.7408 36.9751 45.4482 36.5413 45.5449C36.2035 45.6203 35.7379 45.6994 35.6747 45.3594C35.6269 45.1025 35.8421 44.9661 36.0461 44.8027Z" fill="url(#paint53_radial_185_167)"/>
<path d="M32.7654 49.3179C29.1133 47.4623 26.3272 45.0477 27.5657 41.6483C27.5657 41.6483 26.6991 42.9104 26.3277 44.1842C25.9562 45.458 27.8401 49.4081 31.0321 50.9879C33.9429 52.4285 36.8127 52.4246 39.3269 50.3694C39.8881 49.9106 40.7857 47.2671 41.084 46.3517C40.2397 48.5245 36.2491 51.0879 32.7654 49.3179Z" fill="url(#paint54_linear_185_167)"/>
<defs>
<radialGradient id="paint0_radial_185_167" cx="0" cy="0" r="1" gradientUnits="userSpaceOnUse" gradientTransform="translate(23.2041 44.593) rotate(124.198) scale(0.631948 0.263857)">
<stop stop-color="#E3E0BA"/>
<stop offset="1" stop-color="#C9CF70"/>
</radialGradient>
<radialGradient id="paint1_radial_185_167" cx="0" cy="0" r="1" gradientUnits="userSpaceOnUse" gradientTransform="translate(22.0727 45.4328) rotate(81.6779) scale(0.597209 0.21633)">
<stop stop-color="#E3E0BA"/>
<stop offset="1" stop-color="#C9CF70"/>
</radialGradient>
<radialGradient id="paint2_radial_185_167" cx="0" cy="0" r="1" gradientUnits="userSpaceOnUse" gradientTransform="translate(21.0524 45.7284) rotate(56.0835) scale(0.522979 0.172458)">
<stop stop-color="#E3E0BA"/>
<stop offset="1" stop-color="#C9CF70"/>
</radialGradient>
<radialGradient id="paint3_radial_185_167" cx="0" cy="0" r="1" gradientUnits="userSpaceOnUse" gradientTransform="translate(20.308 46.0205) rotate(40.081) scale(0.197021 0.061862)">
<stop stop-color="#E3E0BA"/>
<stop offset="1" stop-color="#C9CF70"/>
</radialGradient>
<radialGradient id="paint4_radial_185_167" cx="0" cy="0" r="1" gradientUnits="userSpaceOnUse" gradientTransform="translate(19.2563 44.3346) rotate(-139.919) scale(0.591063 0.185586)">
<stop stop-color="#E3E0BA"/>
<stop offset="1" stop-color="#C9CF70"/>
</radialGradient>
<radialGradient id="paint5_radial_185_167" cx="0" cy="0" r="1" gradientUnits="userSpaceOnUse" gradientTransform="translate(19.9751 43.7854) rotate(29.8353) scale(0.506593 0.156383)">
<stop stop-color="#E3E0BA"/>
<stop offset="1" stop-color="#C9CF70"/>
</radialGradient>
<radialGradient id="paint6_radial_185_167" cx="0" cy="0" r="1" gradientUnits="userSpaceOnUse" gradientTransform="translate(20.2897 43.0609) rotate(17.7531) scale(0.569245 0.17557)">
<stop stop-color="#E3E0BA"/>
<stop offset="1" stop-color="#C9CF70"/>
</radialGradient>
<radialGradient id="paint7_radial_185_167" cx="0" cy="0" r="1" gradientUnits="userSpaceOnUse" gradientTransform="translate(20.1424 42.1361) rotate(179.303) scale(0.965753 0.309198)">
<stop stop-color="#E3E0BA"/>
<stop offset="1" stop-color="#C9CF70"/>
</radialGradient>
<radialGradient id="paint8_radial_185_167" cx="0" cy="0" r="1" gradientUnits="userSpaceOnUse" gradientTransform="translate(22.664 42.4915) rotate(-173.194) scale(0.394168 0.123684)">
<stop stop-color="#E3E0BA"/>
<stop offset="1" stop-color="#C9CF70"/>
</radialGradient>
<radialGradient id="paint9_radial_185_167" cx="0" cy="0" r="1" gradientUnits="userSpaceOnUse" gradientTransform="translate(22.6702 43.1091) rotate(170.818) scale(0.523256 0.172367)">
<stop stop-color="#E3E0BA"/>
<stop offset="1" stop-color="#C9CF70"/>
</radialGradient>
<radialGradient id="paint10_radial_185_167" cx="0" cy="0" r="1" gradientUnits="userSpaceOnUse" gradientTransform="translate(23.2186 43.9004) rotate(156.369) scale(0.462312 0.160817)">
<stop stop-color="#E3E0BA"/>
<stop offset="1" stop-color="#C9CF70"/>
</radialGradient>
<radialGradient id="paint11_radial_185_167" cx="0" cy="0" r="1" gradientUnits="userSpaceOnUse" gradientTransform="translate(21.3984 43.2896) rotate(-170.8) scale(6.79478 4.38825)">
<stop offset="0.54026" stop-color="#DEE09C"/>
<stop offset="0.890125" stop-color="#CEDA92"/>
<stop offset="1" stop-color="#9EBC2F"/>
</radialGradient>
<linearGradient id="paint12_linear_185_167" x1="15.3457" y1="45.7143" x2="27.8088" y2="44.3291" gradientUnits="userSpaceOnUse">
<stop stop-color="#67882D"/>
<stop offset="1" stop-color="#3C5512"/>
</linearGradient>
<linearGradient id="paint13_linear_185_167" x1="4.22878" y1="34.7208" x2="56.8974" y2="16.077" gradientUnits="userSpaceOnUse">
<stop stop-color="#9AAF37"/>
<stop offset="0.37463" stop-color="#60793F"/>
<stop offset="1" stop-color="#304519"/>
</linearGradient>
<linearGradient id="paint14_linear_185_167" x1="45.3932" y1="39.1123" x2="39.3341" y2="28.5933" gradientUnits="userSpaceOnUse">
<stop stop-color="#82996A"/>
<stop offset="1" stop-color="#5E7633"/>
</linearGradient>
<linearGradient id="paint15_linear_185_167" x1="45.3932" y1="39.1123" x2="39.3341" y2="28.5933" gradientUnits="userSpaceOnUse">
<stop stop-color="#82996A"/>
<stop offset="1" stop-color="#5E7633"/>
</linearGradient>
<linearGradient id="paint16_linear_185_167" x1="5.89978" y1="36.0198" x2="2.74479" y2="38.5581" gradientUnits="userSpaceOnUse">
<stop stop-color="#DAA224"/>
<stop offset="1" stop-color="#EED169"/>
</linearGradient>
<radialGradient id="paint17_radial_185_167" cx="0" cy="0" r="1" gradientUnits="userSpaceOnUse" gradientTransform="translate(35.7982 37.0094) rotate(67.3639) scale(0.804169 0.207655)">
<stop stop-color="#CFD090"/>
<stop offset="1" stop-color="#B2BB46"/>
</radialGradient>
<radialGradient id="paint18_radial_185_167" cx="0" cy="0" r="1" gradientUnits="userSpaceOnUse" gradientTransform="translate(37.0362 38.1227) rotate(-108.449) scale(0.586825 0.151543)">
<stop stop-color="#CFD090"/>
<stop offset="1" stop-color="#B2BB46"/>
</radialGradient>
<radialGradient id="paint19_radial_185_167" cx="0" cy="0" r="1" gradientUnits="userSpaceOnUse" gradientTransform="translate(37.4076 37.1949) rotate(75.953) scale(0.510068 0.13173)">
<stop stop-color="#CFD090"/>
<stop offset="1" stop-color="#B2BB46"/>
</radialGradient>
<radialGradient id="paint20_radial_185_167" cx="0" cy="0" r="1" gradientUnits="userSpaceOnUse" gradientTransform="translate(38.4599 37.566) rotate(71.5513) scale(0.782434 0.202058)">
<stop stop-color="#CFD090"/>
<stop offset="1" stop-color="#B2BB46"/>
</radialGradient>
<radialGradient id="paint21_radial_185_167" cx="0" cy="0" r="1" gradientUnits="userSpaceOnUse" gradientTransform="translate(38.8313 35.8342) rotate(119.074) scale(0.636924 0.164445)">
<stop stop-color="#CFD090"/>
<stop offset="1" stop-color="#B2BB46"/>
</radialGradient>
<radialGradient id="paint22_radial_185_167" cx="0" cy="0" r="1" gradientUnits="userSpaceOnUse" gradientTransform="translate(38.1504 35.2775) rotate(150.275) scale(0.498966 0.12872)">
<stop stop-color="#CFD090"/>
<stop offset="1" stop-color="#B2BB46"/>
</radialGradient>
<radialGradient id="paint23_radial_185_167" cx="0" cy="0" r="1" gradientUnits="userSpaceOnUse" gradientTransform="translate(37.9028 34.5972) rotate(135.023) scale(0.350027 0.0903342)">
<stop stop-color="#CFD090"/>
<stop offset="1" stop-color="#B2BB46"/>
</radialGradient>
<radialGradient id="paint24_radial_185_167" cx="0" cy="0" r="1" gradientUnits="userSpaceOnUse" gradientTransform="translate(37.9028 33.9786) rotate(146.331) scale(0.223133 0.0575681)">
<stop stop-color="#CFD090"/>
<stop offset="1" stop-color="#B2BB46"/>
</radialGradient>
<radialGradient id="paint25_radial_185_167" cx="0" cy="0" r="1" gradientUnits="userSpaceOnUse" gradientTransform="translate(36.6648 33.7931) rotate(-161.579) scale(0.5872 0.151447)">
<stop stop-color="#CFD090"/>
<stop offset="1" stop-color="#B2BB46"/>
</radialGradient>
<radialGradient id="paint26_radial_185_167" cx="0" cy="0" r="1" gradientUnits="userSpaceOnUse" gradientTransform="translate(36.2315 34.8446) rotate(39.7831) scale(0.483306 0.124713)">
<stop stop-color="#CFD090"/>
<stop offset="1" stop-color="#B2BB46"/>
</radialGradient>
<radialGradient id="paint27_radial_185_167" cx="0" cy="0" r="1" gradientUnits="userSpaceOnUse" gradientTransform="translate(36.1696 35.9579) rotate(35.516) scale(0.532352 0.137353)">
<stop stop-color="#CFD090"/>
<stop offset="1" stop-color="#B2BB46"/>
</radialGradient>
<radialGradient id="paint28_radial_185_167" cx="0" cy="0" r="1" gradientUnits="userSpaceOnUse" gradientTransform="translate(37.5314 35.7105) rotate(66.1772) scale(6.89648 3.93483)">
<stop stop-color="#DADE8E"/>
<stop offset="0.840099" stop-color="#CCD498"/>
<stop offset="1" stop-color="#B4CD4C"/>
</radialGradient>
<radialGradient id="paint29_radial_185_167" cx="0" cy="0" r="1" gradientUnits="userSpaceOnUse" gradientTransform="translate(29.2426 38.9004) rotate(123.342) scale(0.459508 0.264819)">
<stop stop-color="#E3E0BA"/>
<stop offset="1" stop-color="#C9CF70"/>
</radialGradient>
<radialGradient id="paint30_radial_185_167" cx="0" cy="0" r="1" gradientUnits="userSpaceOnUse" gradientTransform="translate(27.9987 38.8031) rotate(60.2354) scale(0.498764 0.195212)">
<stop stop-color="#E3E0BA"/>
<stop offset="1" stop-color="#C9CF70"/>
</radialGradient>
<radialGradient id="paint31_radial_185_167" cx="0" cy="0" r="1" gradientUnits="userSpaceOnUse" gradientTransform="translate(27.0702 38.9268) rotate(44.9771) scale(0.437533 0.129025)">
<stop stop-color="#E3E0BA"/>
<stop offset="1" stop-color="#C9CF70"/>
</radialGradient>
<radialGradient id="paint32_radial_185_167" cx="0" cy="0" r="1" gradientUnits="userSpaceOnUse" gradientTransform="translate(26.5131 39.0505) rotate(30.9436) scale(0.360867 0.0935273)">
<stop stop-color="#E3E0BA"/>
<stop offset="1" stop-color="#C9CF70"/>
</radialGradient>
<radialGradient id="paint33_radial_185_167" cx="0" cy="0" r="1" gradientUnits="userSpaceOnUse" gradientTransform="translate(25.0894 37.8135) rotate(-153.453) scale(0.553573 0.143457)">
<stop stop-color="#E3E0BA"/>
<stop offset="1" stop-color="#C9CF70"/>
</radialGradient>
<radialGradient id="paint34_radial_185_167" cx="0" cy="0" r="1" gradientUnits="userSpaceOnUse" gradientTransform="translate(25.6465 37.5661) rotate(18.4213) scale(0.391466 0.0972521)">
<stop stop-color="#E3E0BA"/>
<stop offset="1" stop-color="#C9CF70"/>
</radialGradient>
<radialGradient id="paint35_radial_185_167" cx="0" cy="0" r="1" gradientUnits="userSpaceOnUse" gradientTransform="translate(26.0179 37.1331) rotate(21.7856) scale(0.333312 0.0826815)">
<stop stop-color="#E3E0BA"/>
<stop offset="1" stop-color="#C9CF70"/>
</radialGradient>
<radialGradient id="paint36_radial_185_167" cx="0" cy="0" r="1" gradientUnits="userSpaceOnUse" gradientTransform="translate(25.7084 36.4527) rotate(174.294) scale(0.622096 0.169788)">
<stop stop-color="#E3E0BA"/>
<stop offset="1" stop-color="#C9CF70"/>
</radialGradient>
<radialGradient id="paint37_radial_185_167" cx="0" cy="0" r="1" gradientUnits="userSpaceOnUse" gradientTransform="translate(27.9368 36.762) rotate(-171.876) scale(0.437701 0.113397)">
<stop stop-color="#E3E0BA"/>
<stop offset="1" stop-color="#C9CF70"/>
</radialGradient>
<radialGradient id="paint38_radial_185_167" cx="0" cy="0" r="1" gradientUnits="userSpaceOnUse" gradientTransform="translate(28.1225 37.2568) rotate(167.481) scale(0.57068 0.168167)">
<stop stop-color="#E3E0BA"/>
<stop offset="1" stop-color="#C9CF70"/>
</radialGradient>
<radialGradient id="paint39_radial_185_167" cx="0" cy="0" r="1" gradientUnits="userSpaceOnUse" gradientTransform="translate(28.6177 37.7516) rotate(153.453) scale(0.41518 0.143254)">
<stop stop-color="#E3E0BA"/>
<stop offset="1" stop-color="#C9CF70"/>
</radialGradient>
<radialGradient id="paint40_radial_185_167" cx="0" cy="0" r="1" gradientUnits="userSpaceOnUse" gradientTransform="translate(26.9422 38.1601) rotate(-173.337) scale(6.66881 3.52791)">
<stop offset="0.54026" stop-color="#DEE09C"/>
<stop offset="0.890125" stop-color="#CEDA92"/>
<stop offset="1" stop-color="#9EBC2F"/>
</radialGradient>
<linearGradient id="paint41_linear_185_167" x1="21.4372" y1="39.4835" x2="29.1705" y2="39.6539" gradientUnits="userSpaceOnUse">
<stop stop-color="#67882D"/>
<stop offset="1" stop-color="#3C5512"/>
</linearGradient>
<radialGradient id="paint42_radial_185_167" cx="0" cy="0" r="1" gradientUnits="userSpaceOnUse" gradientTransform="translate(32.0226 44.679) rotate(81.2469) scale(0.813549 0.279474)">
<stop stop-color="#E3E0BA"/>
<stop offset="1" stop-color="#C9CF70"/>
</radialGradient>
<radialGradient id="paint43_radial_185_167" cx="0" cy="0" r="1" gradientUnits="userSpaceOnUse" gradientTransform="translate(32.7629 46.2598) rotate(116.738) scale(0.736363 0.239236)">
<stop stop-color="#E3E0BA"/>
<stop offset="1" stop-color="#C9CF70"/>
</radialGradient>
<radialGradient id="paint44_radial_185_167" cx="0" cy="0" r="1" gradientUnits="userSpaceOnUse" gradientTransform="translate(33.6243 47.1366) rotate(141.773) scale(0.590428 0.208294)">
<stop stop-color="#E3E0BA"/>
<stop offset="1" stop-color="#C9CF70"/>
</radialGradient>
<radialGradient id="paint45_radial_185_167" cx="0" cy="0" r="1" gradientUnits="userSpaceOnUse" gradientTransform="translate(34.2206 47.8673) rotate(159.817) scale(0.211783 0.078473)">
<stop stop-color="#E3E0BA"/>
<stop offset="1" stop-color="#C9CF70"/>
</radialGradient>
<radialGradient id="paint46_radial_185_167" cx="0" cy="0" r="1" gradientUnits="userSpaceOnUse" gradientTransform="translate(35.9434 46.4059) rotate(-20.183) scale(0.635351 0.235419)">
<stop stop-color="#E3E0BA"/>
<stop offset="1" stop-color="#C9CF70"/>
</radialGradient>
<radialGradient id="paint47_radial_185_167" cx="0" cy="0" r="1" gradientUnits="userSpaceOnUse" gradientTransform="translate(35.4796 45.3829) rotate(172.151) scale(0.53509 0.201883)">
<stop stop-color="#E3E0BA"/>
<stop offset="1" stop-color="#C9CF70"/>
</radialGradient>
<radialGradient id="paint48_radial_185_167" cx="0" cy="0" r="1" gradientUnits="userSpaceOnUse" gradientTransform="translate(35.4796 44.36) rotate(-173.014) scale(0.600797 0.226829)">
<stop stop-color="#E3E0BA"/>
<stop offset="1" stop-color="#C9CF70"/>
</radialGradient>
<radialGradient id="paint49_radial_185_167" cx="0" cy="0" r="1" gradientUnits="userSpaceOnUse" gradientTransform="translate(36.0096 43.337) rotate(28.8718) scale(1.0593 0.384377)">
<stop stop-color="#E3E0BA"/>
<stop offset="1" stop-color="#C9CF70"/>
</radialGradient>
<radialGradient id="paint50_radial_185_167" cx="0" cy="0" r="1" gradientUnits="userSpaceOnUse" gradientTransform="translate(33.4255 42.4602) rotate(20.183) scale(0.423567 0.156946)">
<stop stop-color="#E3E0BA"/>
<stop offset="1" stop-color="#C9CF70"/>
</radialGradient>
<radialGradient id="paint51_radial_185_167" cx="0" cy="0" r="1" gradientUnits="userSpaceOnUse" gradientTransform="translate(33.1605 43.1909) rotate(38.2274) scale(0.590428 0.208294)">
<stop stop-color="#E3E0BA"/>
<stop offset="1" stop-color="#C9CF70"/>
</radialGradient>
<radialGradient id="paint52_radial_185_167" cx="0" cy="0" r="1" gradientUnits="userSpaceOnUse" gradientTransform="translate(32.2991 43.8485) rotate(52.9228) scale(0.549516 0.184485)">
<stop stop-color="#E3E0BA"/>
<stop offset="1" stop-color="#C9CF70"/>
</radialGradient>
<radialGradient id="paint53_radial_185_167" cx="0" cy="0" r="1" gradientUnits="userSpaceOnUse" gradientTransform="translate(34.3129 44.0605) rotate(17.341) scale(7.26306 5.59787)">
<stop offset="0.54026" stop-color="#DEE09C"/>
<stop offset="0.890125" stop-color="#CEDA92"/>
<stop offset="1" stop-color="#9EBC2F"/>
</radialGradient>
<linearGradient id="paint54_linear_185_167" x1="39.1412" y1="50.0601" x2="26.6407" y2="44.2384" gradientUnits="userSpaceOnUse">
<stop stop-color="#67882D"/>
<stop offset="1" stop-color="#3C5512"/>
</linearGradient>
</defs>
</svg>
