<svg width="64" height="64" viewBox="0 0 64 64" fill="none" xmlns="http://www.w3.org/2000/svg">
<ellipse cx="6.83736" cy="6.85699" rx="6.83736" ry="6.85699" transform="matrix(-0.973035 -0.230659 -0.122365 0.992485 24.7773 48.3891)" fill="#41A12E"/>
<ellipse cx="6.83736" cy="6.33373" rx="6.83736" ry="6.33373" transform="matrix(-0.973035 -0.230659 -0.122365 0.992485 24.8228 48.184)" fill="#66CF51"/>
<path d="M14.1745 48.0472C14.0775 48.8339 16.4921 51.0826 17.1807 51.2458C17.8693 51.409 20.482 49.9697 20.579 49.183C20.676 48.3963 18.3122 47.817 17.6236 47.6537C16.935 47.4905 14.2715 47.2605 14.1745 48.0472Z" fill="#77E561"/>
<path d="M14.6152 57.0158C15.5474 56.8201 16.7015 53.7043 16.4973 52.9906C16.293 52.277 13.2208 50.3223 12.2885 50.518C11.3563 50.7137 12.0364 53.1705 12.2406 53.8842C12.4449 54.5979 13.6829 57.2115 14.6152 57.0158Z" fill="#77E561"/>
<path d="M22.6983 51.4391C21.8849 50.7961 18.2693 52.2876 17.7608 53.0307C17.2522 53.7738 17.5731 57.9619 18.3865 58.6049C19.1999 59.2478 20.9664 56.7095 21.4749 55.9663C21.9835 55.2232 23.5118 52.082 22.6983 51.4391Z" fill="#77E561"/>
<ellipse cx="0.302538" cy="1.39836" rx="0.302538" ry="1.39836" transform="matrix(-0.973035 -0.230659 -0.122365 0.992485 18.0073 48.4169)" fill="#AAF59B"/>
<ellipse cx="0.302538" cy="1.39836" rx="0.302538" ry="1.39836" transform="matrix(-0.973035 -0.230659 -0.122365 0.992485 17.3601 54.6493)" fill="#AAF59B"/>
<ellipse cx="0.407828" cy="1.03895" rx="0.407828" ry="1.03895" transform="matrix(-0.498154 -0.867089 -0.876392 0.481598 14.7783 54.2041)" fill="#AAF59B"/>
<ellipse cx="0.407828" cy="1.03895" rx="0.407828" ry="1.03895" transform="matrix(-0.498154 -0.867089 -0.876392 0.481598 21.3733 51.014)" fill="#AAF59B"/>
<ellipse cx="0.370301" cy="1.14671" rx="0.370301" ry="1.14671" transform="matrix(0.567007 -0.823713 -0.783109 -0.621885 20.604 56.5522)" fill="#AAF59B"/>
<ellipse cx="0.370301" cy="1.14671" rx="0.370301" ry="1.14671" transform="matrix(0.567007 -0.823713 -0.783109 -0.621885 14.551 51.1562)" fill="#AAF59B"/>
<ellipse cx="6.83736" cy="7.04376" rx="6.83736" ry="7.04376" transform="matrix(-0.973035 -0.230659 -0.122365 0.992485 33.4783 44.9525)" fill="#41A12E"/>
<ellipse cx="6.80288" cy="6.23904" rx="6.80288" ry="6.23904" transform="matrix(-0.997789 -0.0664637 -0.034624 0.9994 18.0078 39.6396)" fill="#41A12E"/>
<path fill-rule="evenodd" clip-rule="evenodd" d="M19.1484 41.0381C17.3071 40.6263 15.7312 39.1932 14.3869 36.3257C12.5572 27.5311 17.3576 24.9189 31.0702 17.4574C31.8089 17.0554 32.5734 16.6394 33.3642 16.2076C36.0837 14.507 38.551 12.7119 40.7985 11.0768C45.7392 7.48228 49.6175 4.66069 52.7765 5.31439C52.7765 5.31439 54.4247 6.54889 55.106 7.84249C56.0938 9.71805 56.246 11.3317 56.0617 13.6401C55.7004 18.1651 49.9692 21.6738 49.9692 21.6738C49.9692 21.6738 43.219 26.0714 38.9191 28.9622C37.2951 30.0541 35.9655 31.0187 34.698 31.9382C32.6768 33.4046 30.8138 34.7562 28.1677 36.3257C24.707 38.3784 19.1484 41.0381 19.1484 41.0381Z" fill="#41A12E"/>
<path d="M38.6971 31.2869L38.4412 31.4469C30.0021 36.7243 23.7473 42.0666 19.1484 41.0381C19.1484 41.0381 24.707 38.3784 28.1677 36.3257C30.8138 34.7562 32.6768 33.4046 34.698 31.9382C35.9655 31.0187 37.2951 30.0541 38.9191 28.9622C43.219 26.0714 49.9692 21.6738 49.9692 21.6738C49.9692 21.6738 55.7004 18.1651 56.0617 13.6401C56.246 11.3317 56.0938 9.71805 55.106 7.84249C54.4247 6.54889 52.7765 5.31439 52.7765 5.31439C54.4254 5.6556 55.8782 6.94364 57.1839 9.56281C59.8649 18.0507 50.3978 23.9705 38.6971 31.2869Z" fill="#399027"/>
<ellipse cx="6.3314" cy="8.1166" rx="6.3314" ry="8.1166" transform="matrix(-1 0 0 1 26.6145 25.1523)" fill="#66CF51"/>
<path d="M16.8189 28.0512C16.8189 29.1032 19.3248 31.2812 19.9846 31.2812C20.6444 31.2812 22.9114 28.6063 22.9114 27.5542C22.9114 26.5022 20.6444 26.4775 19.9846 26.4775C19.3248 26.4775 16.8189 26.9991 16.8189 28.0512Z" fill="#77E561"/>
<path d="M18.1833 39.2678C19.0229 38.7451 19.7349 34.493 19.4646 33.6584C19.1944 32.8238 16.1309 31.2853 15.2912 31.808C14.4515 32.3307 15.3604 35.2107 15.6307 36.0453C15.9009 36.8798 17.3436 39.7906 18.1833 39.2678Z" fill="#77E561"/>
<path d="M25.0218 29.8677C24.1963 29.303 21.0232 32.2493 20.6377 33.3328C20.2522 34.4162 21.0263 39.575 21.8518 40.1396C22.6772 40.7043 24.0212 36.9946 24.4067 35.9111C24.7922 34.8276 25.8472 30.4323 25.0218 29.8677Z" fill="#77E561"/>
<ellipse cx="0.358381" cy="1.82209" rx="0.358381" ry="1.82209" transform="matrix(-1 0 0 1 20.4028 27.4714)" fill="#AAF59B"/>
<ellipse cx="0.358381" cy="1.82209" rx="0.358381" ry="1.82209" transform="matrix(-1 0 0 1 20.5222 35.4224)" fill="#AAF59B"/>
<ellipse cx="0.445994" cy="1.19302" rx="0.445994" ry="1.19302" transform="matrix(-0.511585 -0.859232 -0.657883 0.753121 18.0137 35.6919)" fill="#AAF59B"/>
<ellipse cx="0.445994" cy="1.19302" rx="0.445994" ry="1.19302" transform="matrix(-0.511585 -0.859232 -0.657883 0.753121 23.7476 29.7287)" fill="#AAF59B"/>
<ellipse cx="0.472768" cy="1.10675" rx="0.472768" ry="1.10675" transform="matrix(0.337094 -0.941471 -0.823688 -0.567043 23.668 36.9052)" fill="#AAF59B"/>
<ellipse cx="0.472768" cy="1.10675" rx="0.472768" ry="1.10675" transform="matrix(0.337094 -0.941471 -0.823688 -0.567043 17.4558 31.9358)" fill="#AAF59B"/>
<ellipse cx="6.74951" cy="5.63193" rx="6.74951" ry="5.63193" transform="matrix(-1 0 0 1 17.7747 39.0666)" fill="#66CF51"/>
<path d="M7.26203 41.1457C7.26203 41.8713 9.91538 43.3734 10.6139 43.3734C11.3125 43.3734 13.7129 41.5286 13.7129 40.803C13.7129 40.0774 11.3125 40.0605 10.6139 40.0605C9.91538 40.0605 7.26203 40.4202 7.26203 41.1457Z" fill="#77E561"/>
<path d="M8.78646 48.8609C9.68158 48.4982 10.4405 45.5478 10.1525 44.9687C9.86438 44.3896 6.59857 43.322 5.70344 43.6847C4.80831 44.0474 5.77722 46.0458 6.06529 46.6249C6.35337 47.204 7.89133 49.2237 8.78646 48.8609Z" fill="#77E561"/>
<path d="M16.0762 42.3384C15.1962 41.9466 11.8136 43.991 11.4026 44.7428C10.9917 45.4946 11.8169 49.0741 12.6969 49.4659C13.5768 49.8577 15.0095 47.2836 15.4205 46.5318C15.8314 45.78 16.9561 42.7302 16.0762 42.3384Z" fill="#77E561"/>
<ellipse cx="0.298651" cy="1.24234" rx="0.298651" ry="1.24234" transform="matrix(-1 0 0 1 11.0847 40.723)" fill="#AAF59B"/>
<ellipse cx="0.298651" cy="1.24234" rx="0.298651" ry="1.24234" transform="matrix(-1 0 0 1 11.2041 46.1893)" fill="#AAF59B"/>
<ellipse cx="0.360369" cy="1.04343" rx="0.360369" ry="1.04343" transform="matrix(-0.674951 -0.737862 -0.801874 0.597493 8.60547 46.3797)" fill="#AAF59B"/>
<ellipse cx="0.360369" cy="1.04343" rx="0.360369" ry="1.04343" transform="matrix(-0.674951 -0.737862 -0.801874 0.597493 14.7183 42.2419)" fill="#AAF59B"/>
<ellipse cx="0.352487" cy="1.06492" rx="0.352487" ry="1.06492" transform="matrix(0.48198 -0.876182 -0.912573 -0.408913 14.6333 47.2216)" fill="#AAF59B"/>
<ellipse cx="0.352487" cy="1.06492" rx="0.352487" ry="1.06492" transform="matrix(0.48198 -0.876182 -0.912573 -0.408913 8.01099 43.7734)" fill="#AAF59B"/>
<ellipse cx="6.83736" cy="6.33373" rx="6.83736" ry="6.33373" transform="matrix(-0.973035 -0.230659 -0.122365 0.992485 33.3857 44.876)" fill="#66CF51"/>
<path d="M22.7373 44.7393C22.6403 45.526 25.0549 47.7746 25.7435 47.9379C26.432 48.1011 29.0447 46.6617 29.1417 45.875C29.2387 45.0883 26.8749 44.509 26.1863 44.3458C25.4978 44.1826 22.8343 43.9526 22.7373 44.7393Z" fill="#77E561"/>
<path d="M23.1779 53.7078C24.1101 53.5121 25.2643 50.3963 25.06 49.6826C24.8557 48.9689 21.7835 47.0142 20.8513 47.2099C19.919 47.4056 20.5991 49.8625 20.8034 50.5761C21.0076 51.2898 22.2457 53.9035 23.1779 53.7078Z" fill="#77E561"/>
<path d="M31.2616 48.1311C30.4481 47.4882 26.8325 48.9796 26.324 49.7227C25.8155 50.4658 26.1363 54.654 26.9497 55.2969C27.7632 55.9398 29.5296 53.4015 30.0382 52.6584C30.5467 51.9153 32.075 48.774 31.2616 48.1311Z" fill="#77E561"/>
<ellipse cx="0.302538" cy="1.39836" rx="0.302538" ry="1.39836" transform="matrix(-0.973035 -0.230659 -0.122365 0.992485 26.5701 45.1089)" fill="#AAF59B"/>
<ellipse cx="0.302538" cy="1.39836" rx="0.302538" ry="1.39836" transform="matrix(-0.973035 -0.230659 -0.122365 0.992485 25.9231 51.3413)" fill="#AAF59B"/>
<ellipse cx="0.407828" cy="1.03895" rx="0.407828" ry="1.03895" transform="matrix(-0.498154 -0.867089 -0.876392 0.481598 23.3413 50.8961)" fill="#AAF59B"/>
<ellipse cx="0.407828" cy="1.03895" rx="0.407828" ry="1.03895" transform="matrix(-0.498154 -0.867089 -0.876392 0.481598 29.936 47.706)" fill="#AAF59B"/>
<ellipse cx="0.370301" cy="1.14671" rx="0.370301" ry="1.14671" transform="matrix(0.567007 -0.823713 -0.783109 -0.621885 29.167 53.2442)" fill="#AAF59B"/>
<ellipse cx="0.370301" cy="1.14671" rx="0.370301" ry="1.14671" transform="matrix(0.567007 -0.823713 -0.783109 -0.621885 23.114 47.8482)" fill="#AAF59B"/>
<path d="M22.5289 24.7935C22.7771 25.5937 29.4989 21.3601 37.8636 16.3728C46.2283 11.3854 53.0684 7.53293 52.8202 6.73272C52.6311 6.12304 45.8502 10.1661 37.4855 15.1534C29.1208 20.1408 22.2808 23.9933 22.5289 24.7935Z" fill="#58C443"/>
<path d="M26.2589 28.4897C26.507 29.2899 32.8753 25.2672 40.8038 20.5399C48.7323 15.8127 55.2188 12.171 54.9706 11.3708C54.7815 10.7611 48.3542 14.5933 40.4257 19.3206C32.4971 24.0478 26.0107 27.6895 26.2589 28.4897Z" fill="#58C443"/>
<path d="M25.064 26.3364C25.3122 27.1366 31.6804 23.1139 39.609 18.3866C47.5375 13.6593 54.0239 10.0176 53.7758 9.21743C53.5867 8.60775 47.1594 12.44 39.2308 17.1672C31.3023 21.8945 24.8159 25.5362 25.064 26.3364Z" fill="#409A2E"/>
<path d="M26.617 31.3057C26.8652 32.1059 33.2334 28.0832 41.162 23.3559C49.0905 18.6286 55.5769 14.9869 55.3288 14.1867C55.1397 13.577 48.7124 17.4093 40.7838 22.1365C32.8553 26.8638 26.3689 30.5055 26.617 31.3057Z" fill="#409A2E"/>
<path d="M27.1521 34.5114C27.4002 35.3116 33.1139 31.893 41.0424 27.1658C48.971 22.4385 54.8761 17.5876 54.628 16.7873C54.4389 16.1777 48.5928 21.2191 40.6643 25.9464C32.7358 30.6737 26.9039 33.7111 27.1521 34.5114Z" fill="#409A2E"/>
<ellipse cx="0.358381" cy="0.496935" rx="0.358381" ry="0.496935" transform="matrix(-1 0 0 1 23.6282 32.2751)" fill="#C0FEB3"/>
<ellipse cx="0.358381" cy="0.496935" rx="0.358381" ry="0.496935" transform="matrix(-1 0 0 1 19.208 31.2812)" fill="#C0FEB3"/>
<ellipse cx="0.358381" cy="0.496935" rx="0.358381" ry="0.496935" transform="matrix(-1 0 0 1 18.73 36.9132)" fill="#C0FEB3"/>
<ellipse cx="0.358381" cy="0.496935" rx="0.358381" ry="0.496935" transform="matrix(-1 0 0 1 12.8767 40.8887)" fill="#C0FEB3"/>
<ellipse cx="0.358381" cy="0.496935" rx="0.358381" ry="0.496935" transform="matrix(-1 0 0 1 16.2217 45.3611)" fill="#C0FEB3"/>
<ellipse cx="0.358381" cy="0.496935" rx="0.358381" ry="0.496935" transform="matrix(-1 0 0 1 6.78442 44.5329)" fill="#C0FEB3"/>
<ellipse cx="0.358381" cy="0.496935" rx="0.358381" ry="0.496935" transform="matrix(-1 0 0 1 25.1812 48.3427)" fill="#C0FEB3"/>
<ellipse cx="0.358381" cy="0.496935" rx="0.358381" ry="0.496935" transform="matrix(-1 0 0 1 31.6321 50.3304)" fill="#C0FEB3"/>
<ellipse cx="0.358381" cy="0.496935" rx="0.358381" ry="0.496935" transform="matrix(-1 0 0 1 27.0925 53.6433)" fill="#C0FEB3"/>
</svg>
