<svg width="64" height="64" viewBox="0 0 64 64" fill="none" xmlns="http://www.w3.org/2000/svg">
<path fill-rule="evenodd" clip-rule="evenodd" d="M54.4842 13.6826C54.5508 11.4547 54.0198 9.7858 52.7463 8.92059C47.0147 6.03656 43.6348 10.7602 39.0025 17.2341C36.4641 20.7816 33.5497 24.8547 29.6662 28.4896C26.9123 30.0496 23.7857 31.205 20.6855 32.3507C12.5769 35.3471 4.64821 38.2771 4.0377 48.2074C4.0377 48.2074 6.4451 54.9504 9.5835 56.6898C12.0413 58.0519 13.5447 57.867 15.8781 57.1362C16.2378 56.7642 17.6765 56.6898 18.6357 56.3177C23.6296 54.3807 26.3051 52.9076 30.7452 49.4723C34.739 46.3824 36.6979 44.0641 40.0372 39.9482C43.1724 36.0839 44.7785 33.6925 47.3509 29.2337C50.6289 23.5518 54.4842 13.6826 54.4842 13.6826Z" fill="#482243"/>
<path d="M4.96748 56.6898C10.123 68.1484 28.5272 59.294 38.2388 46.8681C46.8171 35.8921 54.2528 21.4179 54.4842 13.6826C54.4842 13.6826 50.6289 23.5518 47.3509 29.2337C44.7785 33.6925 43.1724 36.0839 40.0372 39.9482C36.6979 44.0641 34.739 46.3824 30.7452 49.4723C26.3051 52.9076 23.6296 54.3807 18.6357 56.3177C17.6765 56.6898 16.2378 56.7642 15.8781 57.1362C13.5447 57.867 12.0413 58.0519 9.5835 56.6898C6.4451 54.9504 4.0377 48.2074 4.0377 48.2074C3.8908 50.5967 4.16758 53.3914 4.96748 56.6898Z" fill="#300628"/>
<path d="M50.1683 24.8437C50.1683 24.8437 53.5348 21.6362 54.7244 18.7423C55.6071 16.5947 56.2259 15.19 56.0432 12.7898C55.9067 10.9952 54.7244 8.47417 54.7244 8.47417C54.7244 8.47417 54.5589 11.6278 54.2448 13.6082C53.8185 16.2955 53.5437 17.8494 52.5662 20.3049C51.8098 22.2052 50.1683 24.8437 50.1683 24.8437Z" fill="#9DAA3E"/>
<path fill-rule="evenodd" clip-rule="evenodd" d="M52.5662 7.20926C52.5662 7.20926 48.5549 8.40215 46.2717 9.96231C44.2659 11.3329 41.5957 14.3523 41.5957 14.3523C41.5957 14.3523 43.7899 13.2569 45.2525 12.7898C46.7025 12.3267 49.0293 11.9713 49.0293 11.9713C49.0293 11.9713 46.9827 13.0604 46.0918 14.3523C45.4175 15.3301 44.8329 17.2542 44.8329 17.2542C44.8329 17.2542 47.0334 17.3429 48.3099 16.7333C49.9103 15.9691 51.727 13.3106 51.727 13.3106C51.727 13.3106 51.564 16.9602 51.2474 19.2632C50.9436 21.4724 50.1683 24.8437 50.1683 24.8437C50.1683 24.8437 51.8098 22.2052 52.5662 20.3049C53.5437 17.8494 53.8185 16.2955 54.2448 13.6082C54.5589 11.6278 54.7244 8.47417 54.7244 8.47417C54.7244 8.47417 58.8009 4.67943 58.8009 4.08417C58.8009 3.48891 57.3021 2.07518 56.7626 2.00078C56.2231 1.92637 52.5662 7.20926 52.5662 7.20926Z" fill="#A4BA3C"/>
<path d="M52.5662 7.20926C52.4224 7.20926 48.3099 7.45728 46.2717 7.58129C44.2334 7.7053 41.5957 14.3523 41.5957 14.3523C41.5957 14.3523 44.2659 11.3329 46.2717 9.96231C48.5549 8.40215 52.5662 7.20926 52.5662 7.20926Z" fill="#CCE576"/>
<ellipse cx="44.4732" cy="52.5974" rx="8.21291" ry="8.11034" fill="#482243"/>
<ellipse cx="44.6532" cy="51.7789" rx="8.03307" ry="6.69661" fill="#D4DBC2"/>
<ellipse cx="44.4733" cy="47.761" rx="0.179845" ry="0.595254" fill="#F9F8D0"/>
<ellipse cx="44.8931" cy="55.5737" rx="0.239793" ry="0.520848" fill="#E1B488"/>
<ellipse cx="0.240441" cy="0.544523" rx="0.240441" ry="0.544523" transform="matrix(0.842734 0.53833 -0.383031 0.923735 43.5767 51.6626)" fill="#E1B488"/>
<ellipse cx="0.229752" cy="0.56268" rx="0.229752" ry="0.56268" transform="matrix(0.976709 0.21457 -0.141176 0.989985 46.2297 49.2098)" fill="#F9F8D0"/>
<ellipse cx="0.250336" cy="0.526385" rx="0.250336" ry="0.526385" transform="matrix(0.715406 -0.698709 0.535439 0.844574 48.1233 53.2982)" fill="#E1B488"/>
<ellipse cx="0.250336" cy="0.526385" rx="0.250336" ry="0.526385" transform="matrix(0.715406 -0.698709 0.535439 0.844574 41.0642 48.4021)" fill="#E1B488"/>
<ellipse cx="0.257887" cy="0.511596" rx="0.257887" ry="0.511596" transform="matrix(-0.612797 -0.790241 0.641882 -0.766804 40.6965 55.0429)" fill="#E1B488"/>
<ellipse cx="0.257887" cy="0.511596" rx="0.257887" ry="0.511596" transform="matrix(-0.612797 -0.790241 0.641882 -0.766804 48.3308 49.103)" fill="#F9F8D0"/>
<ellipse cx="0.282203" cy="0.457382" rx="0.282203" ry="0.457382" transform="matrix(0.0922623 -0.995735 0.989965 0.14131 50.0732 51.4104)" fill="#F9F8D0"/>
<ellipse cx="0.282203" cy="0.457382" rx="0.282203" ry="0.457382" transform="matrix(0.0922623 -0.995735 0.989965 0.14131 38.3293 50.7357)" fill="#E1B488"/>
<ellipse cx="51.1878" cy="44.115" rx="8.45271" ry="8.25916" fill="#511F6A"/>
<ellipse cx="51.1878" cy="42.9245" rx="8.45271" ry="7.06865" fill="#E7E6C3"/>
<ellipse cx="51.1874" cy="43.8918" rx="8.8124" ry="8.48238" fill="#482243"/>
<ellipse cx="51.1878" cy="42.9245" rx="8.45271" ry="7.06865" fill="#D4DBC2"/>
<ellipse cx="51.0079" cy="38.6833" rx="0.239793" ry="0.595254" fill="#E1B488"/>
<ellipse cx="51.4874" cy="46.8681" rx="0.239793" ry="0.595254" fill="#E1B488"/>
<ellipse cx="0.253001" cy="0.572969" rx="0.253001" ry="0.572969" transform="matrix(0.842734 0.53833 -0.383031 0.923735 50.0549 42.7799)" fill="#E1B488"/>
<ellipse cx="0.241754" cy="0.592074" rx="0.241754" ry="0.592074" transform="matrix(0.976709 0.21457 -0.141176 0.989985 52.8467 40.1989)" fill="#E1B488"/>
<ellipse cx="0.263413" cy="0.553882" rx="0.263413" ry="0.553882" transform="matrix(0.715406 -0.698709 0.535439 0.844574 54.8391 44.5009)" fill="#E1B488"/>
<ellipse cx="0.263413" cy="0.553882" rx="0.263413" ry="0.553882" transform="matrix(0.715406 -0.698709 0.535439 0.844574 47.4111 39.3491)" fill="#E1B488"/>
<ellipse cx="0.271358" cy="0.538321" rx="0.271358" ry="0.538321" transform="matrix(-0.612797 -0.790241 0.641882 -0.766804 47.0242 46.3368)" fill="#E1B488"/>
<ellipse cx="0.271358" cy="0.538321" rx="0.271358" ry="0.538321" transform="matrix(-0.612797 -0.790241 0.641882 -0.766804 55.0574 40.0866)" fill="#E1B488"/>
<ellipse cx="0.296945" cy="0.481275" rx="0.296945" ry="0.481275" transform="matrix(0.0922623 -0.995735 0.989965 0.14131 56.8906 42.5145)" fill="#E1B488"/>
<ellipse cx="0.296945" cy="0.481275" rx="0.296945" ry="0.481275" transform="matrix(0.0922623 -0.995735 0.989965 0.14131 44.5332 41.8045)" fill="#E1B488"/>
<ellipse cx="49.109" cy="41.2661" rx="0.210904" ry="0.523541" transform="rotate(-37.6781 49.109 41.2661)" fill="#E1B488"/>
<ellipse cx="53.8426" cy="46.7058" rx="0.210904" ry="0.523541" transform="rotate(-37.6781 53.8426 46.7058)" fill="#E1B488"/>
<ellipse cx="0.22252" cy="0.50394" rx="0.22252" ry="0.50394" transform="matrix(0.996028 -0.0890341 0.261457 0.965215 50.6477 44.63)" fill="#E1B488"/>
<ellipse cx="0.212628" cy="0.520743" rx="0.212628" ry="0.520743" transform="matrix(0.904174 -0.427165 0.493368 0.869821 51.2036 41.3326)" fill="#E1B488"/>
<ellipse cx="0.231678" cy="0.487153" rx="0.231678" ry="0.487153" transform="matrix(0.139145 -0.990272 0.940001 0.341171 54.9033 43.2561)" fill="#E1B488"/>
<ellipse cx="0.231678" cy="0.487153" rx="0.231678" ry="0.487153" transform="matrix(0.139145 -0.990272 0.940001 0.341171 46.9631 43.6631)" fill="#E1B488"/>
<ellipse cx="0.238666" cy="0.473466" rx="0.238666" ry="0.473466" transform="matrix(-0.968017 -0.250885 0.0393331 -0.999226 50.4502 48.7353)" fill="#E1B488"/>
<ellipse cx="0.238666" cy="0.473466" rx="0.238666" ry="0.473466" transform="matrix(-0.968017 -0.250885 0.0393331 -0.999226 52.6821 40.0659)" fill="#E1B488"/>
<ellipse cx="0.26117" cy="0.423293" rx="0.26117" ry="0.423293" transform="matrix(-0.535596 -0.844475 0.869887 -0.49325 55.2637 40.7705)" fill="#E1B488"/>
<ellipse cx="0.26117" cy="0.423293" rx="0.26117" ry="0.423293" transform="matrix(-0.535596 -0.844475 0.869887 -0.49325 46.2798 46.9195)" fill="#E1B488"/>
<path d="M23.4318 35.9303C23.7899 36.9469 19.9144 38.5651 15.6979 40.8538C11.4814 43.1426 8.02355 44.9828 7.66537 43.9662C7.30719 42.9497 10.1843 39.4612 14.4008 37.1725C18.6173 34.8838 23.0736 34.9137 23.4318 35.9303Z" fill="#B39FAD"/>
</svg>
