<svg width="64" height="64" viewBox="0 0 64 64" fill="none" xmlns="http://www.w3.org/2000/svg">
<path d="M21.8445 16.19C18.6344 16.9016 13.9075 19.3311 13.918 19.8801V28.6226L28.9278 32.7668L45.343 30.4393C49.3178 29.8342 51.4681 28.8294 55.0685 25.1597C57.7914 21.3027 57.6378 19.3718 55.462 16.19C51.9068 12.6709 49.642 11.9468 45.343 11.8755L32.863 13.4083C32.863 13.4083 26.1768 15.2296 21.8445 16.19Z" fill="url(#paint0_linear_186_72)"/>
<path d="M43.8192 46.1851C41.1155 44.8544 39.1955 42.6431 38.372 40.2484C37.7241 38.3642 37.7551 36.3665 38.6174 34.5948C40.5755 30.5714 46.0793 29.2373 50.9104 31.615C52.9686 32.628 54.5726 34.1512 55.5845 35.8771C56.9478 38.2026 57.2363 40.896 56.1123 43.2054C54.1541 47.2288 48.6503 48.5628 43.8192 46.1851Z" fill="url(#paint1_radial_186_72)"/>
<path d="M56.1123 43.2054C54.1541 47.2288 48.6503 48.5628 43.8192 46.1851C41.1155 44.8544 39.1955 42.6431 38.372 40.2484C38.94 42.3915 39.4272 43.5538 40.7588 45.5277C43.2978 47.7027 44.921 48.5286 48.2711 49.1079C50.7966 49.1611 52.1714 48.7731 54.5755 47.5834C55.8968 46.4089 57.0801 45.2226 57.6615 43.2277C58.2429 41.2328 58.0066 40.1209 57.2625 38.3635C56.8059 37.2851 55.5845 35.8771 55.5845 35.8771C56.9478 38.2026 57.2363 40.896 56.1123 43.2054Z" fill="#2A101F"/>
<path d="M49.6759 42.3822C49.7962 42.4349 49.6869 42.713 49.7891 42.7434" stroke="#BD9E81" stroke-width="0.5" stroke-linecap="round"/>
<path d="M50.0073 41.0609C50.0854 40.9769 50.1692 40.8462 50.2799 40.8022C50.3209 40.7859 50.3908 40.7655 50.4236 40.7357C50.4825 40.6824 50.5757 40.7317 50.6532 40.6766C50.7284 40.6231 50.8204 40.6221 50.9085 40.5917C50.9693 40.5707 51.1413 40.612 51.1794 40.5782C51.2856 40.4839 51.4408 40.7082 51.5444 40.7519C51.6302 40.7881 51.7111 40.8302 51.8005 40.8568C51.8683 40.877 51.8636 40.954 51.9168 40.9733C51.9739 40.994 52.0344 41.0082 52.0927 41.0255C52.2337 41.0675 52.2193 41.0868 52.2956 41.2193C52.3853 41.3753 52.5059 41.5022 52.6653 41.59C52.7609 41.6427 52.8947 41.6394 52.9481 41.7439C52.9792 41.8045 53.0594 42.3752 52.96 42.3328C52.7701 42.2517 52.6718 42.2235 52.6126 42.4267C52.5964 42.4822 52.5766 42.667 52.5217 42.6969C52.481 42.7191 52.3565 42.6326 52.3108 42.6191C52.1296 42.5652 52.1211 42.5397 52.1173 42.3462C52.1141 42.1792 52.1171 42.0831 52.1599 41.919C52.1922 41.7949 52.2296 41.55 52.1944 41.4258C52.1743 41.3549 52.1464 41.3397 52.2131 41.3616C52.287 41.3859 52.3755 41.3957 52.4372 41.4464C52.5425 41.5329 52.8765 42.2629 52.5416 42.1083C52.314 42.0033 52.3147 41.8363 52.3213 41.6152C52.3252 41.4831 52.43 41.8669 52.4233 41.9989C52.4187 42.0895 52.4295 42.2013 52.404 42.2888C52.3887 42.3415 52.3216 42.3497 52.2964 42.3979C52.2722 42.4442 52.2522 42.541 52.1763 42.5184C52.1099 42.4987 52.0832 42.3943 52.093 42.3359C52.1023 42.2804 52.0614 42.0798 52.0128 42.2363C51.9871 42.3191 51.9763 42.4237 51.9878 42.5094C51.9967 42.575 52.0987 42.7406 52.099 42.6744C52.0997 42.5517 51.9141 42.4141 51.9422 42.2911C51.9546 42.2372 51.9719 42.1816 51.9894 42.1292C52.0187 42.0418 52.0997 42.0393 52.1578 41.973C52.247 41.8713 52.3933 41.7923 52.4488 41.6773" stroke="#BD9E81" stroke-width="0.5" stroke-linecap="round"/>
<path d="M53.1886 38.9492C53.127 38.821 53.1377 38.6748 53.0756 38.5456C53.0446 38.4811 52.9804 38.313 53.0902 38.277C53.1707 38.2505 53.2125 38.3396 53.2807 38.279C53.3027 38.2595 53.3295 38.2953 53.3515 38.2758C53.3778 38.2523 53.3912 38.2247 53.4082 38.1956" stroke="#BD9E81" stroke-width="0.5" stroke-linecap="round"/>
<path d="M51.7501 39.013C51.7087 39.1913 51.7279 39.4737 51.5388 39.5508" stroke="#BD9E81" stroke-width="0.5" stroke-linecap="round"/>
<path d="M50.4205 38.8909C50.4135 39.0445 50.3598 39.0674 50.2372 38.9577C50.1589 38.8877 50.1516 38.7804 50.1584 38.6765C50.1606 38.6429 50.1956 38.5905 50.1778 38.5579C50.1549 38.516 50.081 38.5381 50.0559 38.4974C49.9934 38.396 50.0564 38.2103 50.103 38.1171C50.202 37.9191 50.4361 37.9143 50.5968 37.7968C50.6695 37.7436 50.7313 37.591 50.816 37.5859C50.9056 37.5805 50.9857 37.5162 51.0713 37.501" stroke="#BD9E81" stroke-width="0.5" stroke-linecap="round"/>
<path d="M49.1991 35.962C49.2556 35.7229 49.0884 36.0134 49.0319 36.0776C49.0079 36.1048 48.9117 36.2663 48.9384 36.3152C49.0052 36.4375 49.138 36.2691 49.1644 36.2216C49.2129 36.134 49.3501 35.741 49.2347 36.0271" stroke="#BD9E81" stroke-width="0.5" stroke-linecap="round"/>
<path d="M47.8984 35.7392C47.8645 35.5799 47.9781 36.1382 47.963 36.1527C47.8996 36.2137 47.642 36.1544 47.5656 36.1317C47.3874 36.0787 47.3297 35.9899 47.3041 35.8113C47.2796 35.6411 47.5077 35.4606 47.6061 35.3369C47.6715 35.2548 47.7422 35.7173 47.7583 35.7931C47.7713 35.8541 47.6753 36.1668 47.6281 36.1048C47.5294 35.9752 47.5485 35.7253 47.535 35.5706C47.52 35.3985 47.5666 35.2847 47.5833 35.1239C47.6008 34.9557 47.5944 34.8159 47.6967 34.6723C47.8335 34.4802 47.9152 34.1109 48.1621 34.0433C48.2415 34.0215 48.3137 34.0255 48.394 34.0181C48.4927 34.0091 48.4809 34.0169 48.5129 34.1202C48.5557 34.2587 48.6637 34.3423 48.8144 34.3296C49.0021 34.3138 49.1316 34.0167 49.2777 33.9108C49.4273 33.8023 49.6698 33.7509 49.8542 33.7545C50.0389 33.7582 50.1962 33.8305 50.3774 33.8433C50.4442 33.848 50.6779 33.8327 50.6942 33.9223" stroke="#BD9E81" stroke-width="0.5" stroke-linecap="round"/>
<path d="M45.3817 34.4453C45.4211 34.6328 45.4412 34.8747 45.5921 35.0143C45.6596 35.0769 45.7489 35.1086 45.8109 35.1795C45.8978 35.2787 45.938 35.4676 45.9184 35.5966C45.8933 35.7617 45.8785 35.9387 45.8868 36.1059C45.8913 36.1985 45.9861 36.2728 45.9704 36.3551C45.9544 36.4389 45.9806 36.5119 45.8704 36.4953C45.6349 36.4599 45.4377 36.3363 45.2596 36.1864C45.1863 36.1247 45.0994 36.1047 45.0251 36.0439C44.9444 35.9778 44.7859 35.9592 44.6898 35.9867C44.6413 36.0006 44.5447 36.0057 44.5284 36.0616C44.4983 36.1652 44.7313 36.2859 44.8008 36.3139C45.1388 36.4498 45.5578 36.6093 45.7409 36.1899C45.8113 36.0287 45.8493 35.9626 45.98 35.8485C46.1478 35.7018 45.9589 35.4249 45.8526 35.3071C45.7167 35.1564 45.5725 34.9748 45.43 34.8418" stroke="#BD9E81" stroke-width="0.5" stroke-linecap="round"/>
<path d="M44.5886 37.5399C44.6543 37.6601 44.7075 37.7921 44.782 37.9068C44.8245 37.9721 44.8895 37.9964 44.9367 38.0528C45.0315 38.1663 45.0165 38.3448 44.9972 38.4803" stroke="#BD9E81" stroke-width="0.5" stroke-linecap="round"/>
<path d="M43.9931 38.1816C44.0368 38.355 44.1022 38.5358 44.0503 38.7142C44.0161 38.8314 43.9596 38.9416 43.9282 39.0601C43.897 39.1779 44.1237 39.2226 44.2095 39.2711C44.2359 39.286 44.4943 39.4169 44.4964 39.411C44.5271 39.3249 44.375 39.2387 44.3221 39.2075" stroke="#BD9E81" stroke-width="0.5" stroke-linecap="round"/>
<path d="M43.666 38.7397C43.5134 38.7404 43.3582 38.7532 43.2096 38.7133C43.1058 38.6854 42.9832 38.6821 42.8812 38.7158C42.7044 38.7742 42.6366 38.8725 42.4483 38.848C42.3636 38.8369 41.97 38.7894 41.9387 38.6813C41.872 38.4515 42.0296 38.1955 41.9552 37.9583" stroke="#BD9E81" stroke-width="0.5" stroke-linecap="round"/>
<path d="M43.8746 40.2755C44.1681 40.3938 44.5607 40.6185 44.5047 40.9966C44.4872 41.1148 44.1384 41.0596 44.0774 40.9848C44.0327 40.9301 43.9379 40.7766 43.8861 40.9022C43.8296 41.0389 43.8045 41.2154 43.8597 41.3569C43.8908 41.4365 44.0902 41.729 43.846 41.685C43.6125 41.6429 43.5506 41.5483 43.5176 41.3129C43.4992 41.1812 43.5844 40.7711 43.4116 40.74C43.2935 40.7187 43.2104 40.9213 43.0928 40.8864C43.0187 40.8643 43.0351 40.7293 43.0348 40.6689C43.0344 40.5789 43.0486 40.5152 43.0602 40.634" stroke="#BD9E81" stroke-width="0.5" stroke-linecap="round"/>
<path d="M45.681 41.8499C45.7409 41.666 45.7784 41.645 45.9546 41.7129C46.0551 41.7516 45.9924 41.9666 45.9782 42.0429C45.9497 42.1962 45.6961 42.1731 45.6497 42.332" stroke="#BD9E81" stroke-width="0.5" stroke-linecap="round"/>
<path d="M39.1855 43.8867C36.4606 42.6284 34.4749 40.6425 33.5654 38.5432C32.8497 36.8914 32.8003 35.1694 33.5814 33.6763C35.3552 30.2856 40.7401 29.3595 45.6089 31.6079C47.6831 32.5657 49.329 33.9451 50.398 35.4753C51.8382 37.5369 52.2311 39.872 51.2129 41.8182C49.4392 45.2089 44.0543 46.135 39.1855 43.8867Z" fill="url(#paint2_radial_186_72)"/>
<path d="M51.2129 41.8182C49.4392 45.2089 44.0543 46.135 39.1855 43.8867C36.4606 42.6284 34.4749 40.6425 33.5654 38.5432C34.2124 40.415 34.7403 41.4375 36.1351 43.1946C38.731 45.1745 40.3679 45.9532 43.7014 46.5897C46.1989 46.7387 47.5419 46.4602 49.8697 45.5321C51.1283 44.5729 52.25 43.5979 52.7446 41.9008C53.2392 40.2037 52.9612 39.2349 52.1556 37.6885C51.6612 36.7397 50.398 35.4753 50.398 35.4753C51.8382 37.5369 52.2311 39.872 51.2129 41.8182Z" fill="#2A101F"/>
<path d="M44.8214 40.8453C44.9424 40.8957 44.8455 41.1312 44.9477 41.1615" stroke="#BD9E81" stroke-width="0.5" stroke-linecap="round"/>
<path d="M45.0951 39.7191C45.1689 39.6499 45.2464 39.5405 45.3541 39.5071C45.394 39.4947 45.4622 39.48 45.4934 39.4557C45.5495 39.412 45.6436 39.4584 45.7179 39.414C45.7901 39.3709 45.881 39.3738 45.9668 39.3512C46.026 39.3356 46.1977 39.3782 46.234 39.3506C46.3351 39.2736 46.4974 39.4734 46.6016 39.5153C46.6877 39.5501 46.7694 39.5897 46.8588 39.6163C46.9266 39.6365 46.925 39.7027 46.9783 39.7215C47.0356 39.7417 47.096 39.7565 47.1542 39.7738C47.2953 39.8157 47.2819 39.8318 47.3625 39.9492C47.4574 40.0875 47.5816 40.2018 47.7427 40.2841C47.8393 40.3335 47.9713 40.3361 48.0283 40.4283C48.0614 40.4819 48.1635 40.9775 48.0636 40.9368C47.8727 40.8592 47.7745 40.8308 47.7241 41.0037C47.7103 41.0509 47.6982 41.2095 47.6451 41.233C47.6057 41.2505 47.4793 41.1709 47.4336 41.1573C47.2524 41.1034 47.2429 41.0811 47.2315 40.914C47.2216 40.7698 47.2208 40.6871 47.2564 40.5473C47.2834 40.4415 47.3105 40.2318 47.2708 40.1232C47.2481 40.0612 47.2199 40.047 47.2867 40.0686C47.3606 40.0925 47.4485 40.1047 47.5115 40.1509C47.6191 40.2298 47.9783 40.8732 47.6412 40.7261C47.4121 40.6262 47.4061 40.4823 47.4037 40.2917C47.4023 40.178 47.5213 40.5133 47.5199 40.6269C47.519 40.7049 47.5342 40.8018 47.5125 40.8762C47.4994 40.9211 47.4334 40.9254 47.4105 40.9659C47.3885 41.0048 47.3726 41.0875 47.2967 41.065C47.2302 41.0452 47.1997 40.9541 47.207 40.9042C47.214 40.8567 47.1655 40.6819 47.1238 40.8149C47.1018 40.8853 47.0952 40.9751 47.1101 41.0495C47.1215 41.1065 47.2288 41.2534 47.2265 41.1964C47.2223 41.0906 47.0334 40.9643 47.0563 40.8594C47.0663 40.8134 47.0812 40.7661 47.0964 40.7216C47.1219 40.6474 47.2018 40.6486 47.2565 40.5938C47.3406 40.5097 47.482 40.4475 47.5322 40.3506" stroke="#BD9E81" stroke-width="0.5" stroke-linecap="round"/>
<path d="M48.1549 38.0274C48.089 37.9143 48.0937 37.7887 48.0272 37.6747C47.994 37.6177 47.9238 37.4702 48.0308 37.4435C48.1093 37.424 48.1542 37.5026 48.2192 37.4531C48.2401 37.4371 48.268 37.4691 48.2889 37.4532C48.314 37.434 48.3261 37.4107 48.3418 37.3863" stroke="#BD9E81" stroke-width="0.5" stroke-linecap="round"/>
<path d="M46.7354 38.0238C46.7017 38.1759 46.7319 38.4203 46.5482 38.4791" stroke="#BD9E81" stroke-width="0.5" stroke-linecap="round"/>
<path d="M45.4175 37.8641C45.4167 37.9964 45.3646 38.0139 45.239 37.9143C45.1589 37.8507 45.1474 37.7579 45.1499 37.6685C45.1507 37.6396 45.1832 37.5958 45.1643 37.567C45.14 37.5298 45.0679 37.546 45.0414 37.5098C44.9756 37.4198 45.0304 37.2621 45.0728 37.1837C45.1627 37.0169 45.3938 37.0223 45.5479 36.9275C45.6176 36.8846 45.6726 36.7555 45.756 36.7546C45.8443 36.7536 45.9209 36.7013 46.0049 36.6918" stroke="#BD9E81" stroke-width="0.5" stroke-linecap="round"/>
<path d="M44.0934 35.2876C44.1397 35.0837 43.9861 35.3275 43.9329 35.3805C43.9103 35.4031 43.8216 35.5384 43.85 35.5817C43.9209 35.6899 44.0454 35.5501 44.0695 35.5102C44.114 35.4366 44.2339 35.1032 44.1312 35.3453" stroke="#BD9E81" stroke-width="0.5" stroke-linecap="round"/>
<path d="M42.7999 35.0425C42.76 34.9037 42.8946 35.3899 42.8802 35.4018C42.82 35.4518 42.5631 35.3901 42.4867 35.3674C42.3085 35.3145 42.248 35.2355 42.2155 35.0804C42.1845 34.9326 42.4026 34.7862 42.4949 34.6835C42.5563 34.6153 42.6446 35.0172 42.6636 35.0833C42.6789 35.1364 42.5965 35.4022 42.5474 35.3468C42.4447 35.2309 42.4536 35.0162 42.434 34.8822C42.4123 34.7331 42.4537 34.6368 42.4638 34.4988C42.4744 34.3544 42.4625 34.2336 42.5578 34.1139C42.6853 33.9537 42.7513 33.6385 42.9925 33.5903C43.0701 33.5748 43.1416 33.5812 43.2206 33.5781C43.3178 33.5743 43.3065 33.5805 43.3422 33.671C43.3901 33.7922 43.5001 33.8687 43.6485 33.8639C43.8333 33.8579 43.9494 33.607 44.0895 33.5215C44.233 33.4341 44.4705 33.3996 44.6529 33.4103C44.8355 33.421 44.9938 33.4898 45.1734 33.5082C45.2396 33.515 45.4699 33.5114 45.4896 33.5893" stroke="#BD9E81" stroke-width="0.5" stroke-linecap="round"/>
<path d="M40.2607 33.8235C40.307 33.9869 40.3366 34.1963 40.4913 34.323C40.5605 34.3797 40.65 34.4107 40.7141 34.4744C40.804 34.5635 40.8512 34.7281 40.837 34.8386C40.8188 34.9799 40.8113 35.132 40.8262 35.2766C40.8344 35.3567 40.931 35.4246 40.9187 35.495C40.9063 35.5666 40.9351 35.6306 40.8255 35.6118C40.5915 35.5717 40.3917 35.4571 40.2097 35.3204C40.1348 35.2642 40.0481 35.2434 39.9722 35.1879C39.8899 35.1277 39.7325 35.1051 39.6387 35.1249C39.5913 35.1349 39.4961 35.1354 39.4822 35.1829C39.4565 35.271 39.6916 35.3847 39.7614 35.4117C40.1008 35.5427 40.5212 35.6974 40.6854 35.3431C40.7485 35.2069 40.7834 35.1515 40.908 35.0583C41.0679 34.9387 40.8701 34.6921 40.7604 34.5862C40.6201 34.4506 40.4703 34.288 40.3242 34.1675" stroke="#BD9E81" stroke-width="0.5" stroke-linecap="round"/>
<path d="M39.6013 36.4606C39.671 36.567 39.7289 36.6831 39.8071 36.785C39.8517 36.843 39.9169 36.8667 39.9658 36.9173C40.064 37.019 40.0563 37.1724 40.0426 37.2885" stroke="#BD9E81" stroke-width="0.5" stroke-linecap="round"/>
<path d="M39.0371 36.9898C39.0872 37.1412 39.1591 37.2998 39.1148 37.4515C39.0858 37.5513 39.0344 37.644 39.0081 37.7449C38.982 37.8452 39.2077 37.8931 39.2945 37.9384C39.3211 37.9523 39.5817 38.0758 39.5836 38.0708C39.6105 37.9978 39.4568 37.9173 39.4032 37.8882" stroke="#BD9E81" stroke-width="0.5" stroke-linecap="round"/>
<path d="M38.7375 37.4579C38.5867 37.4522 38.4339 37.457 38.2854 37.4164C38.1818 37.3881 38.0605 37.3803 37.9611 37.4052C37.7887 37.4484 37.7256 37.5304 37.5386 37.5015C37.4544 37.4885 37.0637 37.4315 37.0284 37.337C36.9533 37.136 37.0987 36.9217 37.0158 36.714" stroke="#BD9E81" stroke-width="0.5" stroke-linecap="round"/>
<path d="M39.0035 38.7912C39.2983 38.9053 39.6952 39.1151 39.655 39.439C39.6424 39.5402 39.2955 39.4783 39.2323 39.4114C39.1859 39.3623 39.0861 39.2261 39.0399 39.3323C38.9896 39.4479 38.9719 39.5991 39.0321 39.7234C39.066 39.7933 39.2747 40.0538 39.0317 40.0059C38.7992 39.96 38.7343 39.8759 38.6923 39.6715C38.6688 39.5571 38.7366 39.2069 38.5646 39.1729C38.4471 39.1498 38.3731 39.3211 38.2555 39.2862C38.1813 39.2642 38.1922 39.1484 38.1895 39.0963C38.1855 39.0186 38.197 38.9643 38.2131 39.0672" stroke="#BD9E81" stroke-width="0.5" stroke-linecap="round"/>
<path d="M40.853 40.2231C40.9048 40.0669 40.941 40.0503 41.1178 40.116C41.2187 40.1535 41.1653 40.3365 41.1544 40.4017C41.1323 40.5328 40.8808 40.5024 40.8414 40.6377" stroke="#BD9E81" stroke-width="0.5" stroke-linecap="round"/>
<path d="M48.9106 47.9075C48.3553 50.9025 46.6271 53.3869 44.3624 54.8607C42.5805 56.0203 40.4664 56.5544 38.3302 56.2192C33.4789 55.4582 30.3506 50.503 31.3428 45.1515C31.7655 42.8716 32.8678 40.8877 34.3691 39.4201C36.3918 37.4428 39.1387 36.4029 41.9232 36.8398C46.7745 37.6008 49.9028 42.556 48.9106 47.9075Z" fill="url(#paint3_radial_186_72)"/>
<path d="M41.9232 36.8398C46.7745 37.6008 49.9028 42.556 48.9106 47.9075C48.3553 50.9025 46.6271 53.3869 44.3624 54.8607C46.442 53.7054 47.5138 52.9053 49.1762 51.058C50.6725 47.9842 51.0343 46.1785 50.5957 42.7695C49.861 40.3079 49.022 39.0856 47.0161 37.0925C45.3652 36.1441 43.7452 35.3327 41.4618 35.3327C39.1783 35.3327 38.0811 35.8755 36.4628 37.0925C35.4699 37.8393 34.3691 39.4201 34.3691 39.4201C36.3918 37.4428 39.1387 36.4029 41.9232 36.8398Z" fill="#2A101F"/>
<path d="M43.0703 43.3066C43.0882 43.1752 43.4154 43.2026 43.4154 43.095" stroke="#BD9E81" stroke-width="0.5" stroke-linecap="round"/>
<path d="M41.5749 43.3595C41.462 43.3076 41.2981 43.2633 41.2171 43.1685C41.187 43.1333 41.1437 43.0714 41.1021 43.048C41.0274 43.006 41.0502 42.9018 40.9679 42.8423C40.888 42.7845 40.8582 42.6957 40.7985 42.6189C40.7574 42.566 40.7471 42.3876 40.6995 42.3603C40.5669 42.2841 40.7546 42.0704 40.7682 41.9576C40.7795 41.8643 40.7985 41.7741 40.7985 41.6799C40.7985 41.6086 40.8812 41.5914 40.8848 41.5344C40.8887 41.4732 40.8848 41.4105 40.8848 41.3493C40.8848 41.2008 40.9097 41.2092 41.0254 41.098C41.1616 40.967 41.2575 40.8144 41.3002 40.6351C41.3257 40.5276 41.2804 40.399 41.3736 40.3177C41.4278 40.2705 42.0038 40.0317 41.9903 40.1399C41.9643 40.3468 41.9654 40.45 42.1979 40.45C42.2615 40.45 42.4624 40.417 42.511 40.4617C42.5472 40.4949 42.4951 40.6399 42.4951 40.688C42.4951 40.8788 42.4709 40.8942 42.2682 40.9525C42.0933 41.0028 41.9912 41.027 41.805 41.0319C41.6641 41.0356 41.3944 41.0685 41.2746 41.1377C41.2062 41.1772 41.1989 41.2085 41.2011 41.1377C41.2035 41.0593 41.1862 40.9707 41.2203 40.8967C41.2785 40.7702 41.9428 40.2405 41.8848 40.6087C41.8454 40.8588 41.6694 40.9053 41.4343 40.9613C41.294 40.9948 41.6654 40.7849 41.8066 40.7541C41.9035 40.733 42.0178 40.6909 42.1181 40.6909C42.1784 40.6909 42.208 40.7536 42.2666 40.7644C42.3229 40.7748 42.4312 40.7668 42.4312 40.8467C42.4312 40.9167 42.3295 40.972 42.265 40.979C42.2036 40.9856 42.0051 41.0819 42.1852 41.0848C42.2805 41.0863 42.3941 41.0673 42.4807 41.0319C42.5471 41.0047 42.6895 40.8592 42.6197 40.8776C42.4902 40.9116 42.4033 41.1302 42.265 41.1377C42.2044 41.1409 42.1404 41.1399 42.0797 41.1377C41.9785 41.1339 41.9505 41.0562 41.8625 41.0186C41.7274 40.961 41.5984 40.8415 41.4599 40.8203" stroke="#BD9E81" stroke-width="0.5" stroke-linecap="round"/>
<path d="M38.3548 40.8732C38.239 40.969 38.0817 40.9999 37.965 41.0965C37.9068 41.1448 37.7499 41.2544 37.6775 41.1582C37.6245 41.0878 37.7052 41.0221 37.62 40.9731C37.5925 40.9573 37.6219 40.9213 37.5944 40.9055C37.5615 40.8866 37.5282 40.8814 37.4922 40.8732" stroke="#BD9E81" stroke-width="0.5" stroke-linecap="round"/>
<path d="M38.8721 42.2483C39.0728 42.2381 39.3643 42.1408 39.5047 42.3006" stroke="#BD9E81" stroke-width="0.5" stroke-linecap="round"/>
<path d="M39.16 43.5711C39.324 43.5345 39.3649 43.5801 39.2878 43.7298C39.2385 43.8255 39.1278 43.8628 39.0162 43.8856C38.9801 43.893 38.9139 43.8739 38.8852 43.9003C38.8482 43.9343 38.8947 43.9997 38.8596 44.0355C38.7724 44.1246 38.557 44.1161 38.4443 44.0972C38.2047 44.0571 38.1264 43.8317 37.9523 43.7093C37.8734 43.6538 37.6934 43.637 37.6615 43.5564C37.6278 43.4712 37.5349 43.4117 37.4922 43.3331" stroke="#BD9E81" stroke-width="0.5" stroke-linecap="round"/>
<path d="M36.4562 45.5813C36.1867 45.594 36.545 45.674 36.6303 45.7106C36.6665 45.7262 36.8667 45.7739 36.9099 45.7342C37.0178 45.6349 36.7989 45.5537 36.7405 45.5417C36.633 45.5194 36.1761 45.4974 36.5137 45.5284" stroke="#BD9E81" stroke-width="0.5" stroke-linecap="round"/>
<path d="M36.6291 46.9039C36.4719 46.9817 37.0244 46.7141 37.0444 46.7246C37.1285 46.7688 37.1467 47.0351 37.1467 47.1155C37.1467 47.3031 37.0711 47.3841 36.8911 47.4593C36.7195 47.5311 36.4579 47.3611 36.2968 47.3006C36.1898 47.2605 36.6549 47.0614 36.7297 47.0244C36.7899 46.9946 37.1493 46.9994 37.0987 47.0626C36.9931 47.1947 36.7239 47.2468 36.5652 47.3036C36.3886 47.3667 36.2541 47.3537 36.0795 47.3829C35.8969 47.4135 35.7516 47.4591 35.5683 47.4006C35.3231 47.3222 34.9085 47.3473 34.76 47.1272C34.7123 47.0565 34.6939 46.9854 34.661 46.9098C34.6205 46.8167 34.6324 46.8259 34.7313 46.7658C34.8638 46.6851 34.918 46.557 34.8575 46.4146C34.782 46.2372 34.4286 46.1956 34.2712 46.0839C34.1101 45.9696 33.98 45.7493 33.9261 45.5696C33.8722 45.3896 33.8991 45.2168 33.8558 45.0377C33.8399 44.9716 33.7506 44.7495 33.8399 44.7085" stroke="#BD9E81" stroke-width="0.5" stroke-linecap="round"/>
<path d="M36.0547 49.7077C36.2399 49.6166 36.4884 49.5288 36.5882 49.3432C36.633 49.2601 36.6385 49.1647 36.6937 49.0846C36.771 48.9724 36.9575 48.8801 37.0994 48.8627C37.2812 48.8404 37.4723 48.8047 37.6458 48.7496C37.742 48.719 37.7905 48.6062 37.8822 48.5982C37.9754 48.59 38.0441 48.5441 38.0611 48.6555C38.0975 48.8936 38.0292 49.1195 37.9269 49.3344C37.8849 49.4228 37.8911 49.5127 37.8503 49.6019C37.806 49.6986 37.836 49.8574 37.895 49.9428C37.9248 49.9859 37.9604 50.078 38.0244 50.078C38.143 50.078 38.1972 49.8181 38.2049 49.7429C38.2423 49.3771 38.2791 48.9262 37.78 48.8671C37.5881 48.8444 37.5067 48.8263 37.3455 48.7319C37.1384 48.6107 36.9059 48.872 36.8151 49.0082C36.6989 49.1824 36.5527 49.3734 36.4573 49.549" stroke="#BD9E81" stroke-width="0.5" stroke-linecap="round"/>
<path d="M39.5625 49.6019C39.6686 49.5043 39.7909 49.4155 39.8884 49.3109C39.9439 49.2514 39.9491 49.1816 39.9938 49.1199C40.0836 48.996 40.2764 48.9602 40.4251 48.9406" stroke="#BD9E81" stroke-width="0.5" stroke-linecap="round"/>
<path d="M40.4248 49.9986C40.5938 49.9073 40.7637 49.7929 40.968 49.7929C41.1021 49.7929 41.2358 49.8165 41.3705 49.8135C41.5043 49.8104 41.4805 49.5782 41.5047 49.4814C41.5121 49.4516 41.5691 49.1643 41.5622 49.1639C41.462 49.1585 41.4188 49.3302 41.4025 49.3902" stroke="#BD9E81" stroke-width="0.5" stroke-linecap="round"/>
<path d="M41.1157 50.1573C41.1642 50.305 41.2263 50.4517 41.2307 50.6069C41.2338 50.7154 41.2687 50.8351 41.3361 50.9244C41.453 51.0792 41.5778 51.1171 41.6109 51.3064C41.6258 51.3916 41.699 51.7863 41.5949 51.8472C41.3737 51.9767 41.0548 51.8963 40.8281 52.0353" stroke="#BD9E81" stroke-width="0.5" stroke-linecap="round"/>
<path d="M42.668 49.5225C42.7007 49.2047 42.8144 48.7609 43.2303 48.7084C43.3603 48.692 43.4113 49.0456 43.3517 49.1258C43.308 49.1845 43.176 49.3197 43.3245 49.3344C43.4862 49.3505 43.68 49.325 43.8118 49.2316C43.8859 49.179 44.1316 48.9033 44.1616 49.1522C44.1904 49.3904 44.1101 49.4771 43.8725 49.5754C43.7395 49.6305 43.2809 49.6637 43.3022 49.8399C43.3167 49.9603 43.5562 49.9836 43.5562 50.1074C43.5562 50.1854 43.4088 50.2076 43.3453 50.2249C43.2506 50.2508 43.1791 50.2549 43.3006 50.2102" stroke="#BD9E81" stroke-width="0.5" stroke-linecap="round"/>
<path d="M43.7609 47.3271C43.5484 47.321 43.5146 47.2906 43.5309 47.1008C43.5402 46.9925 43.7863 46.9925 43.8712 46.9847C44.0416 46.969 44.0966 47.2213 44.2785 47.2213" stroke="#BD9E81" stroke-width="0.5" stroke-linecap="round"/>
<path d="M2 28.282C4.75461 26.9574 10.2863 24.2854 10.3763 24.1946C10.3763 24.1946 11.2582 21.367 12.7374 20.5613C13.3057 20.2517 14.0641 19.653 14.199 19.653C14.3676 19.653 15.3737 18.8358 15.5482 18.8014C15.9048 18.7311 15.7466 19.3217 15.3795 19.653C15.964 19.2626 16.1971 19.2267 16.4477 19.4826C15.5662 20.1339 15.3162 20.622 15.3795 21.7534V27.8846L9.75789 27.7143C8.82403 28.1497 8.2013 28.2614 6.94706 28.282L2.56217 29.5309L2 28.282Z" fill="url(#paint4_linear_186_72)"/>
<path d="M39.1027 12.4432C39.1027 12.4432 37.5287 11.5349 34.6616 11.8187C31.7946 12.1026 24.0452 17.3032 18.134 22.0941C12.5404 26.6276 6.77826 31.8585 5.26037 35.3215C3.74248 38.7845 2.61122 43.1976 5.26037 46.7891C7.55448 49.8992 10.528 50.6208 14.3675 50.5359C19.0392 50.4325 24.7113 44.4615 24.7113 44.4615C24.7113 44.4615 28.5955 39.6438 31 36.5C35.4037 30.7425 41.1827 26.8628 43.4876 23.0024C45.7926 19.1421 45.5677 17.3254 45.5677 17.3254L39.1027 12.4432Z" fill="url(#paint5_linear_186_72)"/>
<path d="M14.4805 27.4873C14.4805 26.3519 20.9266 20.6938 24.2622 17.9499C27.5977 15.206 30.697 12.3366 35.3931 11.8187C36.768 11.6671 39.1596 13.1245 39.1596 13.1245C39.1596 13.1245 37.4596 15.1772 36.2363 16.3603C32.288 20.1789 28.366 21.7346 25.1054 24.4784C21.8449 27.2223 15.8941 36.0878 14.4805 31.4044C14.0388 29.9411 14.4805 28.6227 14.4805 27.4873Z" fill="url(#paint6_radial_186_72)"/>
<path d="M36.1795 11.8187C36.8728 11.2132 38.1553 11.0063 39.2151 10.6265C39.944 10.3653 40.5831 10.4751 41.1827 10.3994C41.1827 10.3994 45.1928 6.42555 46.0173 5.574C46.8418 4.72245 48.5397 3.05694 48.7157 3.01935C49.2975 2.89509 50.5889 3.39616 50.852 3.75736C50.852 3.75736 48.4159 6.21739 47.76 7.67449C47.1042 9.13158 45.6919 12.1419 45.7925 12.4432C45.9252 12.8406 45.946 17.155 45.7925 17.1551C45.9171 17.3576 45.0722 19.8452 44.4995 20.7316C44.4995 20.7316 43.6748 18.9137 43.4876 17.666C43.3231 16.57 43.4876 14.8275 43.4876 14.8275C43.4876 14.8275 43.1505 15.757 42.6443 15.8494C42.309 15.9106 41.8011 15.6223 41.8011 15.6223C41.8011 15.6223 38.5405 17.4389 37.9221 17.1551C37.3037 16.8712 37.1913 16.3035 37.1913 16.3035C37.1913 16.3035 38.2594 16.682 38.2594 16.3035C38.2594 15.9251 38.192 15.2135 37.9221 15.3952C37.6523 15.5769 36.5355 16.6441 36.0108 17.1551C35.4861 17.666 35.0551 18.9149 35.0551 18.9149C35.0551 18.9149 34.967 17.2592 35.3362 16.3035C35.8114 15.0736 36.3481 13.3515 36.3481 13.3515L36.1795 11.8187Z" fill="url(#paint7_linear_186_72)"/>
<path d="M39.2538 51.0754C38.748 54.0703 37.1738 56.5547 35.1109 58.0285C33.4877 59.1882 31.562 59.7222 29.6161 59.3871C25.1971 58.626 22.3475 53.6708 23.2513 48.3193C23.6364 46.0395 24.6405 44.0555 26.008 42.588C27.8505 40.6107 30.3526 39.5708 32.889 40.0076C37.308 40.7687 40.1576 45.7239 39.2538 51.0754Z" fill="url(#paint8_radial_186_72)"/>
<path d="M32.889 40.0076C37.308 40.7687 40.1576 45.7239 39.2538 51.0754C38.748 54.0703 37.1738 56.5547 35.1109 58.0285C37.0052 56.8733 37.9815 56.0731 39.4958 54.2258C40.8587 51.1521 41.1882 49.3464 40.7887 45.9374C40.1195 43.4758 39.3552 42.2534 37.5281 40.2604C36.0243 39.3119 34.5487 38.5005 32.4687 38.5005C30.3887 38.5005 29.3892 39.0433 27.9151 40.2604C27.0107 41.0072 26.008 42.588 26.008 42.588C27.8505 40.6107 30.3526 39.5708 32.889 40.0076Z" fill="#2A101F"/>
<path d="M33.9346 46.4744C33.9508 46.343 34.2489 46.3704 34.2489 46.2628" stroke="#BD9E81" stroke-width="0.5" stroke-linecap="round"/>
<path d="M32.5728 46.5274C32.47 46.4754 32.3206 46.4312 32.2468 46.3363C32.2195 46.3011 32.18 46.2392 32.1421 46.2158C32.0741 46.1739 32.0949 46.0696 32.0198 46.0101C31.9471 45.9524 31.9199 45.8635 31.8656 45.7867C31.8282 45.7338 31.8187 45.5555 31.7754 45.5281C31.6546 45.4519 31.8255 45.2382 31.8379 45.1255C31.8482 45.0322 31.8656 44.9419 31.8656 44.8477C31.8656 44.7764 31.9409 44.7592 31.9442 44.7023C31.9477 44.6411 31.9442 44.5784 31.9442 44.5171C31.9442 44.3687 31.9669 44.3771 32.0722 44.2658C32.1963 44.1348 32.2837 43.9822 32.3225 43.803C32.3458 43.6955 32.3045 43.5668 32.3894 43.4855C32.4388 43.4383 32.9635 43.1996 32.9511 43.3077C32.9275 43.5146 32.9285 43.6178 33.1403 43.6178C33.1982 43.6178 33.3812 43.5848 33.4255 43.6296C33.4584 43.6628 33.411 43.8077 33.411 43.8559C33.411 44.0467 33.389 44.0621 33.2043 44.1204C33.045 44.1706 32.952 44.1948 32.7823 44.1997C32.654 44.2034 32.4083 44.2364 32.2992 44.3055C32.2369 44.345 32.2303 44.3764 32.2323 44.3055C32.2345 44.2271 32.2187 44.1386 32.2498 44.0645C32.3027 43.938 32.9079 43.4084 32.8551 43.7765C32.8192 44.0266 32.6588 44.0731 32.4447 44.1292C32.3169 44.1627 32.6552 43.9527 32.7838 43.922C32.8721 43.9009 32.9763 43.8588 33.0675 43.8588C33.1225 43.8588 33.1495 43.9215 33.2029 43.9323C33.2542 43.9426 33.3528 43.9347 33.3528 44.0146C33.3528 44.0845 33.2602 44.1398 33.2014 44.1468C33.1455 44.1535 32.9647 44.2498 33.1287 44.2526C33.2155 44.2541 33.319 44.2351 33.3979 44.1997C33.4583 44.1726 33.5881 44.0271 33.5245 44.0454C33.4066 44.0794 33.3274 44.298 33.2014 44.3055C33.1462 44.3088 33.0879 44.3077 33.0326 44.3055C32.9404 44.3018 32.9149 44.2241 32.8347 44.1865C32.7117 44.1288 32.5942 44.0093 32.468 43.9881" stroke="#BD9E81" stroke-width="0.5" stroke-linecap="round"/>
<path d="M29.6393 44.041C29.5338 44.1368 29.3905 44.1677 29.2842 44.2643C29.2312 44.3126 29.0882 44.4222 29.0223 44.326C28.974 44.2556 29.0476 44.1899 28.9699 44.1409C28.9449 44.1251 28.9716 44.0891 28.9466 44.0733C28.9167 44.0544 28.8863 44.0492 28.8535 44.041" stroke="#BD9E81" stroke-width="0.5" stroke-linecap="round"/>
<path d="M30.1113 45.416C30.2942 45.4059 30.5597 45.3086 30.6876 45.4684" stroke="#BD9E81" stroke-width="0.5" stroke-linecap="round"/>
<path d="M30.3727 46.7389C30.5221 46.7023 30.5593 46.7479 30.4891 46.8976C30.4442 46.9932 30.3434 47.0306 30.2417 47.0534C30.2089 47.0607 30.1486 47.0417 30.1224 47.0681C30.0887 47.1021 30.1311 47.1674 30.0991 47.2033C30.0197 47.2924 29.8235 47.2838 29.7208 47.265C29.5026 47.2249 29.4312 46.9995 29.2726 46.877C29.2008 46.8216 29.0368 46.8048 29.0078 46.7242C28.9771 46.639 28.8925 46.5795 28.8535 46.5009" stroke="#BD9E81" stroke-width="0.5" stroke-linecap="round"/>
<path d="M27.9103 48.7492C27.6648 48.7619 27.9912 48.8419 28.0689 48.8785C28.1019 48.894 28.2842 48.9417 28.3235 48.902C28.4218 48.8027 28.2224 48.7216 28.1693 48.7095C28.0714 48.6873 27.6552 48.6652 27.9626 48.6963" stroke="#BD9E81" stroke-width="0.5" stroke-linecap="round"/>
<path d="M28.0675 50.0717C27.9243 50.1496 28.4276 49.8819 28.4458 49.8925C28.5224 49.9366 28.539 50.203 28.539 50.2833C28.539 50.471 28.4702 50.5519 28.3061 50.6272C28.1498 50.6989 27.9116 50.529 27.7648 50.4685C27.6673 50.4283 28.091 50.2293 28.1592 50.1922C28.214 50.1624 28.5413 50.1672 28.4953 50.2304C28.3991 50.3626 28.1539 50.4146 28.0093 50.4714C27.8485 50.5346 27.726 50.5216 27.5669 50.5508C27.4005 50.5813 27.2682 50.6269 27.1013 50.5684C26.8779 50.4901 26.5003 50.5152 26.365 50.2951C26.3215 50.2244 26.3047 50.1533 26.2748 50.0776C26.2379 49.9845 26.2488 49.9937 26.3388 49.9336C26.4595 49.853 26.5089 49.7248 26.4537 49.5824C26.385 49.405 26.0631 49.3635 25.9197 49.2518C25.773 49.1375 25.6545 48.9171 25.6054 48.7375C25.5562 48.5575 25.5808 48.3847 25.5414 48.2055C25.5268 48.1394 25.4455 47.9174 25.5268 47.8763" stroke="#BD9E81" stroke-width="0.5" stroke-linecap="round"/>
<path d="M27.5439 52.8755C27.7126 52.7845 27.939 52.6967 28.03 52.5111C28.0707 52.428 28.0757 52.3326 28.126 52.2525C28.1964 52.1402 28.3663 52.048 28.4956 52.0306C28.6611 52.0083 28.8352 51.9726 28.9933 51.9174C29.0809 51.8868 29.1251 51.7741 29.2086 51.7661C29.2935 51.7579 29.3561 51.7119 29.3716 51.8234C29.4048 52.0615 29.3425 52.2874 29.2494 52.5023C29.2111 52.5907 29.2167 52.6805 29.1795 52.7697C29.1392 52.8665 29.1665 53.0253 29.2203 53.1106C29.2474 53.1537 29.2799 53.2458 29.3381 53.2458C29.4461 53.2458 29.4956 52.986 29.5026 52.9108C29.5366 52.545 29.5701 52.094 29.1155 52.035C28.9408 52.0123 28.8665 51.9941 28.7197 51.8998C28.5311 51.7786 28.3194 52.0398 28.2366 52.176C28.1307 52.3502 27.9976 52.5412 27.9106 52.7168" stroke="#BD9E81" stroke-width="0.5" stroke-linecap="round"/>
<path d="M30.7393 52.7697C30.8359 52.6721 30.9473 52.5833 31.0361 52.4787C31.0866 52.4192 31.0914 52.3494 31.1321 52.2877C31.214 52.1638 31.3896 52.1279 31.525 52.1084" stroke="#BD9E81" stroke-width="0.5" stroke-linecap="round"/>
<path d="M31.5254 53.1664C31.6793 53.0751 31.8341 52.9607 32.0201 52.9607C32.1424 52.9607 32.2642 52.9843 32.3868 52.9812C32.5087 52.9782 32.487 52.746 32.5091 52.6491C32.5158 52.6194 32.5677 52.3321 32.5615 52.3317C32.4701 52.3263 32.4308 52.4979 32.4159 52.558" stroke="#BD9E81" stroke-width="0.5" stroke-linecap="round"/>
<path d="M32.1535 53.3251C32.1977 53.4729 32.2543 53.6196 32.2583 53.7748C32.2611 53.8832 32.2929 54.0029 32.3543 54.0922C32.4608 54.2471 32.5745 54.2849 32.6046 54.4743C32.6182 54.5595 32.6849 54.9541 32.5901 55.015C32.3886 55.1445 32.098 55.0641 31.8916 55.2031" stroke="#BD9E81" stroke-width="0.5" stroke-linecap="round"/>
<path d="M33.5684 52.6903C33.5982 52.3725 33.7018 51.9287 34.0806 51.8762C34.199 51.8598 34.2455 52.2134 34.1912 52.2936C34.1514 52.3523 34.0312 52.4875 34.1664 52.5022C34.3137 52.5183 34.4902 52.4928 34.6102 52.3994C34.6777 52.3468 34.9015 52.0711 34.9289 52.32C34.9551 52.5582 34.882 52.6448 34.6655 52.7432C34.5444 52.7983 34.1267 52.8315 34.1461 53.0077C34.1593 53.1281 34.3774 53.1514 34.3774 53.2752C34.3774 53.3532 34.2432 53.3754 34.1853 53.3927C34.099 53.4185 34.0339 53.4227 34.1446 53.378" stroke="#BD9E81" stroke-width="0.5" stroke-linecap="round"/>
<path d="M34.5634 50.4949C34.3698 50.4888 34.339 50.4584 34.3538 50.2686C34.3623 50.1602 34.5865 50.1603 34.6638 50.1525C34.819 50.1368 34.8691 50.3891 35.0348 50.3891" stroke="#BD9E81" stroke-width="0.5" stroke-linecap="round"/>
<defs>
<linearGradient id="paint0_linear_186_72" x1="35.5107" y1="11.8755" x2="35.5107" y2="32.7668" gradientUnits="userSpaceOnUse">
<stop stop-color="#48445A"/>
<stop offset="1" stop-color="#0C020A"/>
</linearGradient>
<radialGradient id="paint1_radial_186_72" cx="0" cy="0" r="1" gradientUnits="userSpaceOnUse" gradientTransform="translate(47.5852 38.5925) rotate(-159.984) scale(9.86591 8.26537)">
<stop stop-color="#DFD8D2"/>
<stop offset="1" stop-color="#CFCDBA"/>
</radialGradient>
<radialGradient id="paint2_radial_186_72" cx="0" cy="0" r="1" gradientUnits="userSpaceOnUse" gradientTransform="translate(42.6026 37.4909) rotate(-160.5) scale(9.86046 7.03537)">
<stop stop-color="#DFD8D2"/>
<stop offset="1" stop-color="#CFCDBA"/>
</radialGradient>
<radialGradient id="paint3_radial_186_72" cx="0" cy="0" r="1" gradientUnits="userSpaceOnUse" gradientTransform="translate(39.7337 46.4028) rotate(93.773) scale(9.95538 9.08277)">
<stop stop-color="#DFD8D2"/>
<stop offset="1" stop-color="#CFCDBA"/>
</radialGradient>
<linearGradient id="paint4_linear_186_72" x1="3.89331" y1="28.728" x2="15.353" y2="24.271" gradientUnits="userSpaceOnUse">
<stop stop-color="#A8B678"/>
<stop offset="1" stop-color="#9C9685"/>
</linearGradient>
<linearGradient id="paint5_linear_186_72" x1="21.8442" y1="19.0853" x2="31.6458" y2="33.7571" gradientUnits="userSpaceOnUse">
<stop stop-color="#461A35"/>
<stop offset="1" stop-color="#28142F"/>
</linearGradient>
<radialGradient id="paint6_radial_186_72" cx="0" cy="0" r="1" gradientUnits="userSpaceOnUse" gradientTransform="translate(25.9487 20.391) rotate(50.9854) scale(2.41113 15.2533)">
<stop stop-color="#C8C0D8"/>
<stop offset="1" stop-color="#3C1732"/>
</radialGradient>
<linearGradient id="paint7_linear_186_72" x1="49.559" y1="3.64382" x2="38.756" y2="16.2559" gradientUnits="userSpaceOnUse">
<stop stop-color="#6F8145"/>
<stop offset="1" stop-color="#A6987B"/>
</linearGradient>
<radialGradient id="paint8_radial_186_72" cx="0" cy="0" r="1" gradientUnits="userSpaceOnUse" gradientTransform="translate(30.8946 49.5707) rotate(93.4377) scale(9.95171 8.27652)">
<stop stop-color="#DFD8D2"/>
<stop offset="1" stop-color="#CFCDBA"/>
</radialGradient>
</defs>
</svg>
