<?xml version="1.0" encoding="iso-8859-1"?>
<!-- Uploaded to: SVG Repo, www.svgrepo.com, Generator: SVG Repo Mixer Tools -->
<svg height="800px" width="800px" version="1.1" id="Layer_1" xmlns="http://www.w3.org/2000/svg" xmlns:xlink="http://www.w3.org/1999/xlink" 
	 viewBox="0 0 512 512" xml:space="preserve">
<g>
	<path style="fill:#5F938D;" d="M260.199,161.328c-14.557-33.216,11.692-76.818,11.692-76.818s49.85,10.251,64.407,43.466
		s-11.692,76.818-11.692,76.818S274.756,194.543,260.199,161.328z"/>
	<path style="fill:#5F938D;" d="M355.698,128.22c31.197-18.493,77.669,2.252,77.669,2.252s-4.106,50.727-35.303,69.22
		s-77.669-2.252-77.669-2.252S324.501,146.713,355.698,128.22z"/>
</g>
<path style="fill:#88D1CB;" d="M310.04,128.322c13.194-33.78,62.585-46.052,62.585-46.052s28.001,42.498,14.807,76.279
	c-13.194,33.78-62.585,46.052-62.585,46.052S296.846,162.103,310.04,128.322z"/>
<g>
	<path style="fill:#5F938D;" d="M277.82,350.672c14.557,33.216-11.691,76.818-11.691,76.818s-49.85-10.251-64.407-43.467
		c-14.557-33.216,11.692-76.818,11.692-76.818S263.262,317.456,277.82,350.672z"/>
	<path style="fill:#5F938D;" d="M180.285,378.689c-31.197,18.492-77.669-2.252-77.669-2.252s4.106-50.727,35.303-69.22
		c31.197-18.492,77.669,2.252,77.669,2.252S211.481,360.196,180.285,378.689z"/>
</g>
<path style="fill:#88D1CB;" d="M227.979,383.678c-13.194,33.78-62.585,46.052-62.585,46.052s-28.001-42.498-14.807-76.279
	s62.585-46.052,62.585-46.052S241.173,349.897,227.979,383.678z"/>
<path style="fill:#71BCB5;" d="M496.879,242.348c-0.909-2.686-0.909-5.597,0-8.283l14.404-42.6
	c3.832-11.333-8.458-21.344-18.782-15.3l-38.05,22.277l0,0c-6.382,3.737-14.306,3.555-20.518-0.457
	c-44.623-28.823-113.322-62.571-190.395-62.571c-52.514,0-101.147,15.67-140.923,34.773c12.945,19.49,20.502,42.868,20.502,68.019
	s-7.558,48.529-20.502,68.019c39.777,19.103,88.408,34.773,140.923,34.773c77.073,0,145.772-33.748,190.395-62.571
	c6.213-4.012,14.136-4.194,20.518-0.457l0,0l38.05,22.277c10.324,6.044,22.614-3.967,18.782-15.3L496.879,242.348z"/>
<path style="fill:#88D1CB;" d="M102.615,170.188C40.514,200.013,0,238.206,0,238.206s40.514,38.194,102.615,68.019
	c12.945-19.49,20.502-42.868,20.502-68.019S115.56,189.677,102.615,170.188z"/>
<g>
	<path style="fill:#5F938D;" d="M211.259,270.991c-4.217,0-7.636-3.418-7.636-7.636v-60.226c0-4.217,3.418-7.636,7.636-7.636
		c4.217,0,7.636,3.418,7.636,7.636v60.227C218.895,267.574,215.477,270.991,211.259,270.991z"/>
	<path style="fill:#5F938D;" d="M239.243,270.991c-4.217,0-7.636-3.418-7.636-7.636v-60.226c0-4.217,3.418-7.636,7.636-7.636
		s7.636,3.418,7.636,7.636v60.227C246.878,267.574,243.461,270.991,239.243,270.991z"/>
	<path style="fill:#5F938D;" d="M268.467,270.991c-4.217,0-7.636-3.418-7.636-7.636v-60.226c0-4.217,3.418-7.636,7.636-7.636
		s7.636,3.418,7.636,7.636v60.227C276.102,267.574,272.684,270.991,268.467,270.991z"/>
	<path style="fill:#5F938D;" d="M86.222,233.034l5.389-5.389c2.982-2.982,2.982-7.817,0-10.799c-2.983-2.981-7.817-2.981-10.799,0
		l-5.389,5.389l-5.389-5.389c-2.982-2.981-7.817-2.981-10.799,0c-2.982,2.982-2.982,7.817,0,10.799l5.389,5.389l-5.389,5.389
		c-2.982,2.983-2.982,7.817,0,10.799c1.492,1.49,3.446,2.236,5.4,2.236c1.954,0,3.908-0.745,5.4-2.236l5.389-5.389l5.389,5.389
		c1.492,1.49,3.446,2.236,5.4,2.236s3.908-0.745,5.4-2.236c2.982-2.983,2.982-7.817,0-10.799L86.222,233.034z"/>
</g>
</svg>