<svg width="64" height="64" viewBox="0 0 64 64" fill="none" xmlns="http://www.w3.org/2000/svg">
<path d="M20.6294 14.9454C19.7298 17.3782 15.8159 18.8287 15.8159 18.8287C15.8159 18.8287 16.4239 19.438 16.7786 19.8688C19.0049 22.5733 20.6294 16.2629 21.4116 15.9162C21.5807 15.8413 25.0819 19.1754 25.0819 19.1754L25.5633 18.3433C25.5633 18.3433 22.9228 17.1455 22.3142 15.4308C21.8515 14.1275 21.2129 12.4351 22.3142 11.8249C22.8436 11.5316 23.2397 11.7081 23.8184 11.8249C25.4632 12.1568 27.1277 14.9454 27.1277 14.9454L27.4285 13.4892C27.4285 13.4892 25.6623 10.9908 24.059 10.438C23.5113 10.2492 22.615 10.1607 22.615 10.1607L20.6294 6.48541L19.3659 7.80295C19.3659 7.80295 20.5634 9.43984 20.8701 10.7154C21.2537 12.3108 21.1926 13.4225 20.6294 14.9454Z" fill="#A08A3E"/>
<ellipse cx="3.49476" cy="5.70679" rx="3.49476" ry="5.70679" transform="matrix(0.860847 0.508863 -0.406592 0.91361 18.9524 28.1901)" fill="#6E702D"/>
<ellipse cx="3.49476" cy="5.70679" rx="3.49476" ry="5.70679" transform="matrix(0.860847 0.508863 -0.406592 0.91361 26.4133 21.2557)" fill="#6E702D"/>
<ellipse cx="3.49476" cy="5.70679" rx="3.49476" ry="5.70679" transform="matrix(0.860847 0.508863 -0.406592 0.91361 34.2354 35.1246)" fill="#6E702D"/>
<ellipse cx="3.49476" cy="5.70679" rx="3.49476" ry="5.70679" transform="matrix(0.860847 0.508863 -0.406592 0.91361 34.4761 20.0075)" fill="#6E702D"/>
<ellipse cx="3.49476" cy="5.70679" rx="3.49476" ry="5.70679" transform="matrix(0.860847 0.508863 -0.406592 0.91361 14.7405 19.8688)" fill="#6E702D"/>
<ellipse cx="3.49476" cy="5.70679" rx="3.49476" ry="5.70679" transform="matrix(0.860847 0.508863 -0.406592 0.91361 29.1812 11.2702)" fill="#6E702D"/>
<ellipse cx="5.89757" cy="6.54114" rx="5.89757" ry="6.54114" transform="matrix(0.483927 -0.875108 0.805954 0.591978 38.1384 45.8036)" fill="#6E702D"/>
<ellipse cx="3.43743" cy="5.78499" rx="3.43743" ry="5.78499" transform="matrix(0.931907 -0.362699 0.281196 0.95965 10.7017 34.7056)" fill="#A6AF42"/>
<ellipse cx="3.63553" cy="5.50435" rx="3.63553" ry="5.50435" transform="matrix(-0.673369 -0.739307 0.637115 -0.770768 40.5073 58)" fill="#AAB442"/>
<ellipse cx="3.63867" cy="5.49966" rx="3.63867" ry="5.49966" transform="matrix(0.668874 -0.743376 0.641722 0.766938 36.3335 29.8553)" fill="#798947"/>
<ellipse cx="3.32557" cy="4.07163" rx="3.32557" ry="4.07163" transform="matrix(0.631519 -0.775361 0.678788 0.734334 31.7607 30.0187)" fill="#CCDF58"/>
<ellipse cx="3.49409" cy="4.7333" rx="3.49409" ry="4.7333" transform="matrix(0.1243 -0.992245 0.986438 0.164134 27.188 22.9196)" fill="#B8D36C"/>
<ellipse cx="3.39375" cy="4.07323" rx="3.39375" ry="4.07323" transform="matrix(0.446322 -0.894872 0.833662 0.552274 33.2051 20.2566)" fill="#C2CF59"/>
<ellipse cx="3.46786" cy="3.96821" rx="3.46786" ry="3.96821" transform="matrix(-0.248883 -0.968533 0.946392 -0.32302 34.2092 19.8578)" fill="#DAE065"/>
<ellipse cx="3.31164" cy="4.18394" rx="3.31164" ry="4.18394" transform="matrix(0.601776 -0.798665 0.706824 0.70739 24.2998 11.2898)" fill="#E6F279"/>
<ellipse cx="3.73785" cy="5.34713" rx="3.73785" ry="5.34713" transform="matrix(0.514222 0.857657 -0.782253 0.622961 11.3655 19.1988)" fill="#C1D139"/>
<ellipse cx="3.73785" cy="5.34713" rx="3.73785" ry="5.34713" transform="matrix(0.514222 0.857657 -0.782253 0.622961 11.7266 14.46)" fill="#DAE959"/>
<ellipse cx="3.45477" cy="5.76158" rx="3.45477" ry="5.76158" transform="matrix(0.91063 0.413224 -0.323292 0.946299 12.0203 24.8616)" fill="#BDC83A"/>
<ellipse cx="3.44015" cy="5.78133" rx="3.44015" ry="5.78133" transform="matrix(0.928584 0.371122 -0.288136 0.95759 22.2161 23.7521)" fill="#BCD256"/>
<ellipse cx="3.38658" cy="5.85241" rx="3.38658" ry="5.85241" transform="matrix(0.993427 -0.114466 0.0864242 0.996258 26.4658 33.5422)" fill="#829453"/>
<ellipse cx="3.38658" cy="5.85241" rx="3.38658" ry="5.85241" transform="matrix(0.993427 -0.114466 0.0864242 0.996258 23.5779 36.0386)" fill="#ABC34C"/>
<ellipse cx="3.49476" cy="5.70679" rx="3.49476" ry="5.70679" transform="matrix(0.860847 0.508863 -0.406592 0.91361 22.5625 32.7668)" fill="#98A741"/>
<ellipse cx="3.49476" cy="5.70679" rx="3.49476" ry="5.70679" transform="matrix(0.860847 0.508863 -0.406592 0.91361 35.4387 27.358)" fill="#B1C66F"/>
<ellipse cx="3.45322" cy="5.76369" rx="3.45322" ry="5.76369" transform="matrix(-0.912541 -0.408985 0.319715 -0.947514 40.2292 51.784)" fill="#A7BA31"/>
<ellipse cx="3.39426" cy="5.84235" rx="3.39426" ry="5.84235" transform="matrix(-0.984216 0.176973 -0.134152 -0.990961 37.1216 49.3387)" fill="#92A450"/>
<ellipse cx="4.10809" cy="5.34583" rx="4.10809" ry="5.34583" transform="matrix(0.928584 0.371122 -0.288136 0.95759 28.9448 25.2777)" fill="#C1D448"/>
<ellipse cx="3.73785" cy="4.36408" rx="3.73785" ry="4.36408" transform="matrix(0.514222 0.857657 -0.782253 0.622961 17.9429 15.8119)" fill="#D0E177"/>
<ellipse cx="3.39375" cy="4.07323" rx="3.39375" ry="4.07323" transform="matrix(0.446322 -0.894872 0.833662 0.552274 29.2336 15.8185)" fill="#E0EC8D"/>
<ellipse cx="3.49409" cy="4.7333" rx="3.49409" ry="4.7333" transform="matrix(0.1243 -0.992245 0.986438 0.164134 35.3926 25.2491)" fill="#C3CC52"/>
<ellipse cx="3.66142" cy="5.46541" rx="3.66142" ry="5.46541" transform="matrix(-0.635697 0.771939 -0.674747 -0.73805 61 51.5134)" fill="#D5DE36"/>
<ellipse cx="3.41552" cy="5.81427" rx="3.41552" ry="5.81427" transform="matrix(-0.958568 0.284864 -0.218339 -0.975873 53.002 55.2099)" fill="#BBC552"/>
<ellipse cx="3.73785" cy="5.34713" rx="3.73785" ry="5.34713" transform="matrix(0.514222 0.857657 -0.782253 0.622961 20.5112 23.7521)" fill="#BAD273"/>
<ellipse cx="3.40146" cy="5.83287" rx="3.40146" ry="5.83287" transform="matrix(0.97555 0.219779 -0.167225 0.985919 22.2444 29.6142)" fill="#A7BD30"/>
<ellipse cx="3.60887" cy="4.52466" rx="3.60887" ry="4.52466" transform="matrix(0.710868 0.703325 -0.597372 0.801964 20.9148 16.0319)" fill="#D0E44A"/>
<ellipse cx="3.5177" cy="3.81731" rx="3.5177" ry="3.81731" transform="matrix(0.180963 -0.98349 0.971409 0.237411 36.5742 28.591)" fill="#C7D54E"/>
<ellipse cx="3.5177" cy="4.89931" rx="3.5177" ry="4.89931" transform="matrix(0.180963 -0.98349 0.971409 0.237411 26.8267 26.7881)" fill="#D1E668"/>
<ellipse cx="3.38239" cy="4.78094" rx="3.38239" ry="4.78094" transform="matrix(0.99845 0.0556511 -0.0419264 0.999121 21.6919 21.0316)" fill="#C7D90F"/>
<ellipse cx="3.43971" cy="5.63581" rx="3.43971" ry="5.63581" transform="matrix(0.929123 -0.36977 0.28702 0.957925 21.7727 14.2504)" fill="#DCEC82"/>
<ellipse cx="3.83925" cy="5.18214" rx="3.83925" ry="5.18214" transform="matrix(-0.303061 0.952971 -0.92119 -0.389114 58.918 41.7925)" fill="#E5E350"/>
<ellipse cx="3.50028" cy="5.69913" rx="3.50028" ry="5.69913" transform="matrix(-0.853885 0.520462 -0.417076 -0.908872 50.4346 46.4549)" fill="#B1C52F"/>
<ellipse cx="3.88585" cy="5.10299" rx="3.88585" ry="5.10299" transform="matrix(-0.130494 -0.991449 0.98506 -0.17221 44.4473 40.8428)" fill="#C2D363"/>
<ellipse cx="4.09059" cy="4.22059" rx="4.09059" ry="4.22059" transform="matrix(0.796305 -0.604895 0.49645 0.868065 35.0098 36.7448)" fill="#CADA24"/>
</svg>
