<svg width="64" height="64" viewBox="0 0 64 64" fill="none" xmlns="http://www.w3.org/2000/svg">
<path d="M8.25292 32.856C8.51418 33.1492 8.82605 33.6973 8.82605 33.6973C8.82605 33.6973 10.8979 29.5007 9.27182 28.79C9.10355 28.7164 8.82605 28.6498 8.82605 28.6498C8.82605 28.6498 8.93089 28.9427 8.95341 29.1405C9.01897 29.7161 8.91408 30.1733 8.50764 30.5426C7.90199 31.0928 7.18655 30.602 6.53352 30.122C4.93292 28.9453 3.73481 27.2492 3.15841 25.1445C2.96246 24.4291 3.41313 23.2517 3.41313 23.2517L3.54049 22.4104C3.2346 22.0939 3.00221 22.1376 2.52159 22.4805C2.52159 22.4805 1.76249 24.1445 2.07582 25.1445C2.8762 27.699 4.27939 29.5795 5.76934 31.6643C6.42356 32.5797 7.5119 32.0247 8.25292 32.856Z" fill="url(#paint0_linear_185_171)"/>
<path d="M13.6024 27.7384C13.6024 27.7384 12.1033 27.1105 11.1825 27.2476C9.66389 27.4739 9.45254 28.1062 8.95362 29.7013C8.40818 31.4451 8.64968 32.8262 9.27199 34.5385C9.52678 35.2396 9.33568 35.7303 11.5646 36.7819C11.5646 36.7819 17.232 36.4469 20.7984 35.7303C23.5694 35.1735 27.8033 33.8375 27.8033 33.8375L35.9546 31.7344C35.9546 31.7344 40.3138 30.648 43.1505 30.2621C46.4131 29.8184 48.2845 30.1204 51.5565 29.7714C55.0326 29.4007 59.0708 29.0003 60.4082 28.3693C61.7456 27.7384 61.4271 25.7754 61.4271 25.7754C61.4271 25.7754 61.1723 26.3363 60.4082 27.0373C59.6441 27.7384 50.9363 24.3911 44.7426 24.3032C39.7171 24.232 31.9426 25.7754 31.9426 25.7754L24.2372 27.0373C24.2372 27.0373 23.1863 26.9685 22.5178 27.0373C21.4728 27.1449 19.9068 27.7384 19.9068 27.7384H16.9775H13.6024Z" fill="url(#paint1_linear_185_171)"/>
<rect x="11.6914" y="28.5796" width="9.29748" height="1.82273" rx="0.911363" fill="url(#paint2_radial_185_171)"/>
<path d="M20.0979 37.9036C20.0979 37.9036 21.0196 36.7583 21.6899 36.5716C22.4852 36.3501 23.7277 37.1324 23.7277 37.1324C23.7277 37.1324 24.7051 36.312 25.4471 36.151C25.9595 36.0398 26.7845 36.151 26.7845 36.151L29.0133 35.3798L37.2919 32.5055C37.2919 32.5055 38.9482 31.661 40.0302 31.1735C41.3556 30.5764 42.157 30.4035 43.469 29.7714C45.9388 28.5816 47.1032 27.4368 49.455 25.9858C52.2703 24.2488 53.586 22.5107 56.7147 21.6393C58.2937 21.1995 60.854 21.0784 60.854 21.0784C60.854 21.0784 61.4248 21.2953 61.5545 21.6393C61.7556 22.1727 60.854 22.9012 60.854 22.9012C60.854 22.9012 60.7106 22.6353 60.5993 22.4805C59.2598 20.6181 55.6958 25.2847 55.6958 25.2847C55.6958 25.2847 51.4223 31.1893 48.1177 34.3283C45.7187 36.607 41.5585 39.5861 41.5585 39.5861L35.063 42.5305C35.063 42.5305 32.1059 43.7163 30.1596 44.2831C29.0982 44.5923 28.5178 44.924 27.4213 44.9842C26.5735 45.0307 25.2561 44.7739 25.2561 44.7739C25.2561 44.7739 23.4196 45.1881 22.2631 44.9842C21.4632 44.8432 20.2253 43.9326 20.2253 43.9326L19.7158 40.9882L20.0979 37.9036Z" fill="url(#paint3_linear_185_171)"/>
<ellipse cx="1.67482" cy="1.04146" rx="1.67482" ry="1.04146" transform="matrix(0.932894 0.360152 -0.303525 0.952823 22.5449 39.9535)" fill="url(#paint4_radial_185_171)"/>
<ellipse cx="1.10585" cy="0.797266" rx="1.10585" ry="0.797266" transform="matrix(0.932894 0.360152 -0.303525 0.952823 26.4404 40.8226)" fill="url(#paint5_radial_185_171)"/>
<path d="M23.4084 25.495C23.5994 24.4434 24.3 22.7609 24.3 22.7609C24.3 22.7609 27.6114 20.7279 28.7577 20.9382C29.9039 21.1485 35.5705 30.7874 40.6024 36.4313C46.2481 42.7638 49.2288 46.9017 56.268 51.2235L61.9993 54.1679C60.6679 59.3011 43.4955 52.8856 35.9537 44.3532C28.4118 35.8208 23.2174 26.5466 23.4084 25.495Z" fill="url(#paint6_linear_185_171)"/>
<ellipse cx="1.39048" cy="5.58684" rx="1.39048" ry="5.58684" transform="matrix(0.755642 -0.654985 0.581745 0.813371 26.9746 23.3906)" fill="url(#paint7_radial_185_171)"/>
<ellipse cx="0.55944" cy="0.950945" rx="0.55944" ry="0.950945" transform="matrix(0.755642 -0.654985 0.581745 0.813371 34.7441 32.5373)" fill="url(#paint8_radial_185_171)"/>
<path d="M23.5999 23.8826C23.524 24.2567 23.5999 24.8641 23.5999 24.8641L23.8546 24.0228C23.8546 24.0228 24.0801 24.1793 24.2367 24.163C24.519 24.1337 24.6824 23.5321 24.6824 23.5321C24.6824 23.5321 25.0002 23.5906 25.1919 23.5321C25.4651 23.4487 25.765 23.0413 25.765 23.0413C25.765 23.0413 26.3857 22.9678 26.6566 22.6908C26.9174 22.424 27.0387 21.7795 27.0387 21.7795C27.0387 21.7795 27.6627 21.3482 27.9302 20.9382C28.0472 20.7589 28.2221 20.6644 28.1849 20.4475C28.1453 20.216 27.945 20.161 27.7392 20.0969C27.4716 20.0138 27.0387 20.2372 27.0387 20.2372C27.0387 20.2372 27.3398 20.3933 27.4207 20.5877C27.5967 21.01 26.6566 21.4289 26.6566 21.4289C26.6566 21.4289 25.231 19.1239 24.2367 17.7134C23.7271 16.9905 23.4938 16.5302 22.8994 15.8907C22.2129 15.152 21.6743 14.9392 20.9252 14.2782C20.1549 13.5985 19.0148 12.4555 19.0148 12.4555C19.0148 12.4555 18.2191 11.7367 17.9322 12.105C17.6846 12.4229 18.1233 13.1566 18.1233 13.1566C18.1233 13.1566 19.6327 14.1645 20.4795 14.9793C21.8101 16.2597 22.5881 17.077 23.3451 18.8351C23.9497 20.2391 24.2367 22.6908 24.2367 22.6908C24.2367 22.6908 23.7068 23.3556 23.5999 23.8826Z" fill="url(#paint9_linear_185_171)"/>
<path d="M18.6971 39.0252C19.1401 38.936 19.8433 38.885 19.8433 38.885C19.8433 38.885 19.7647 38.4437 19.8433 38.184C19.922 37.9242 20.2254 37.6231 20.2254 37.6231C20.2254 37.6231 20.1405 37.9087 20.2254 38.0437C20.3149 38.1861 20.4963 38.0615 20.6075 38.184C20.8434 38.4437 20.2254 39.0252 20.2254 39.0252C20.2254 39.0252 20.4665 39.5205 20.4801 39.8665C20.4959 40.2647 20.2254 40.8479 20.2254 40.8479C20.2254 40.8479 20.6619 41.2354 20.6075 41.549C20.5506 41.8773 19.9707 42.0397 19.9707 42.0397C19.9707 42.0397 20.4745 42.3411 20.4801 42.6707C20.4837 42.8791 20.2891 43.1614 20.2891 43.1614L20.6075 44.2831C20.6075 44.2831 19.7661 44.0498 19.716 43.582C19.6919 43.3578 19.8673 43.2454 19.8433 43.0212C19.8043 42.6554 19.2702 42.3201 19.2702 42.3201C19.2702 42.3201 16.6862 41.3219 15.0035 40.7778C12.4745 39.9602 10.7702 40.3907 8.44435 39.0252C7.14078 38.2599 5.89745 38.098 5.38764 36.5715C5.18008 35.95 5.1966 34.889 5.1966 34.889L6.08814 34.3282C6.08814 34.3282 6.26629 35.805 6.72495 36.5715C7.58783 38.0135 8.86756 37.9157 10.3548 38.4644C13.0812 39.4703 14.8611 39.9407 17.6782 39.3056C18.08 39.215 18.2936 39.1065 18.6971 39.0252Z" fill="url(#paint10_linear_185_171)"/>
<defs>
<linearGradient id="paint0_linear_185_171" x1="2.01219" y1="23.3218" x2="9.44831" y2="30.4589" gradientUnits="userSpaceOnUse">
<stop stop-color="#729650"/>
<stop offset="1" stop-color="#2B5E17"/>
</linearGradient>
<linearGradient id="paint1_linear_185_171" x1="30.4143" y1="26.4064" x2="33.0365" y2="32.2592" gradientUnits="userSpaceOnUse">
<stop stop-color="#D20006"/>
<stop offset="1" stop-color="#74010E"/>
</linearGradient>
<radialGradient id="paint2_radial_185_171" cx="0" cy="0" r="1" gradientUnits="userSpaceOnUse" gradientTransform="translate(16.3401 29.491) scale(4.64874 0.911363)">
<stop stop-color="#FFE6D5"/>
<stop offset="1" stop-color="#D20005"/>
</radialGradient>
<linearGradient id="paint3_linear_185_171" x1="21.2442" y1="40.7779" x2="60.9569" y2="24.9435" gradientUnits="userSpaceOnUse">
<stop stop-color="#D30009"/>
<stop offset="1" stop-color="#8D030B"/>
</linearGradient>
<radialGradient id="paint4_radial_185_171" cx="0" cy="0" r="1" gradientUnits="userSpaceOnUse" gradientTransform="translate(1.67482 1.04146) rotate(90) scale(1.04146 1.67482)">
<stop stop-color="#FEE8D7"/>
<stop offset="1" stop-color="#D00008"/>
</radialGradient>
<radialGradient id="paint5_radial_185_171" cx="0" cy="0" r="1" gradientUnits="userSpaceOnUse" gradientTransform="translate(1.10585 0.797266) rotate(90) scale(0.797266 1.10585)">
<stop stop-color="#FEE8D7"/>
<stop offset="1" stop-color="#D00008"/>
</radialGradient>
<linearGradient id="paint6_linear_185_171" x1="32.6422" y1="30.5425" x2="52.6649" y2="48.0359" gradientUnits="userSpaceOnUse">
<stop stop-color="#DA020D"/>
<stop offset="1" stop-color="#8D010E"/>
</linearGradient>
<radialGradient id="paint7_radial_185_171" cx="0" cy="0" r="1" gradientUnits="userSpaceOnUse" gradientTransform="translate(1.39048 5.58684) rotate(90) scale(5.58684 1.39048)">
<stop stop-color="#FDF5DE"/>
<stop offset="1" stop-color="#DA010C"/>
</radialGradient>
<radialGradient id="paint8_radial_185_171" cx="0" cy="0" r="1" gradientUnits="userSpaceOnUse" gradientTransform="translate(0.55944 0.950945) rotate(90) scale(0.950945 0.55944)">
<stop stop-color="#E68468"/>
<stop offset="1" stop-color="#CC000C"/>
</radialGradient>
<linearGradient id="paint9_linear_185_171" x1="18.8874" y1="12.4555" x2="27.1507" y2="21.7735" gradientUnits="userSpaceOnUse">
<stop stop-color="#3D530B"/>
<stop offset="1" stop-color="#567D20"/>
</linearGradient>
<linearGradient id="paint10_linear_185_171" x1="6.40661" y1="35.0993" x2="20.7214" y2="40.5025" gradientUnits="userSpaceOnUse">
<stop stop-color="#4B5413"/>
<stop offset="1" stop-color="#3B630D"/>
</linearGradient>
</defs>
</svg>
