<svg width="64" height="64" viewBox="0 0 64 64" fill="none" xmlns="http://www.w3.org/2000/svg">
<path fill-rule="evenodd" clip-rule="evenodd" d="M11.4908 48.0971C8.64297 46.7247 4.74228 43.3721 4.74228 43.3721L11.4908 48.0971ZM21.2185 50.4596C17.3359 50.5676 15.0694 49.8217 11.4908 48.0971L21.2185 50.4596ZM32.4661 46.9159C28.3102 49.3143 25.8728 50.3303 21.2185 50.4596L32.4661 46.9159ZM32.4661 46.9159C36.3177 44.6931 38.4599 42.3988 41.5659 39.0722L32.4661 46.9159ZM41.5659 39.0722C41.6329 39.0004 41.7003 38.9282 41.7682 38.8555L41.5659 39.0722ZM50.0975 26.5566C47.5546 31.8898 45.6464 34.703 41.7682 38.8555L50.0975 26.5566ZM54.1389 14.5356C54.1389 14.5356 52.203 22.1406 50.0975 26.5566L54.1389 14.5356Z" fill="#B11717"/>
<path d="M29.6086 35.8677C20.6713 47.4718 4.3775 37.6048 4.74228 43.3721C4.74228 43.3721 8.64297 46.7247 11.4908 48.0971C15.0694 49.8217 17.3359 50.5676 21.2185 50.4596C25.8728 50.3303 28.3102 49.3143 32.4661 46.9159C36.3177 44.6931 38.4599 42.3988 41.5659 39.0722L41.7682 38.8555C45.6464 34.703 47.5546 31.8898 50.0975 26.5566C52.203 22.1406 54.1389 14.5356 54.1389 14.5356C53.4275 12.7849 52.133 11.5946 50.5231 10.9223C36.2964 3.97377 39.9442 24.1246 29.6086 35.8677Z" fill="#C21E1E"/>
<path d="M4.74228 43.3721C14.2267 54.9762 23.5896 56.5049 38.6675 45.3872C53.3053 29.59 56.2215 19.661 54.1389 14.5356C54.1389 14.5356 52.203 22.1406 50.0975 26.5566C47.5546 31.8898 45.6464 34.703 41.7682 38.8555L41.5659 39.0722C38.4599 42.3988 36.3177 44.6931 32.4661 46.9159C28.3102 49.3143 25.8728 50.3303 21.2185 50.4596C17.3359 50.5676 15.0694 49.8217 11.4908 48.0971C8.64297 46.7247 4.74228 43.3721 4.74228 43.3721Z" fill="#B11717"/>
<path d="M54.8397 16.2032C54.4164 17.5433 51.3023 14.4006 49.3117 13.5794C47.321 12.7582 43.5944 11.0117 44.0177 9.67159C44.4409 8.33149 48.8537 7.9053 50.8443 8.72648C52.835 9.54767 55.2629 14.8631 54.8397 16.2032Z" fill="#207D26"/>
<path d="M56.3351 3.29589C58.7307 5.36348 56.128 6.28689 54.4132 8.49837C52.6984 10.7099 50.7786 11.9662 50.1252 11.3044C49.4719 10.6426 50.3323 8.31339 52.0472 6.1019C53.762 3.89042 54.6032 1.54177 56.3351 3.29589Z" fill="#207D26"/>
<ellipse cx="1.16185" cy="6.74812" rx="1.16185" ry="6.74812" transform="matrix(0.894284 0.4475 -0.357741 0.933821 41.8542 10.9918)" fill="#DC2D2D"/>
<path d="M36.973 28.7937C36.4285 30.215 35.3098 31.1099 34.9586 30.9341C34.6074 30.7584 35.1568 29.5786 35.7013 28.1573C36.2458 26.736 36.9719 25.7262 37.3231 25.9019C37.6743 26.0777 37.5175 27.3723 36.973 28.7937Z" fill="#DC2D2D"/>
</svg>
