<svg width="64" height="64" viewBox="0 0 64 64" fill="none" xmlns="http://www.w3.org/2000/svg">
<path d="M60.2642 33.2813C57.7926 39.9509 49.1292 44.8462 40.9738 41.8529C32.8184 38.8597 26.2688 30.8805 28.7403 24.2109C31.2119 17.5413 39.6169 14.4943 47.9348 17.4885C56.5477 19.602 62.6238 25.2382 60.2642 33.2813Z" fill="url(#paint0_linear_192_918)"/>
<path d="M8.82392 42.0291C8.82392 42.0291 8.5861 42.9325 8.94191 43.262C9.23307 43.5316 9.79122 43.073 9.94477 43.4381C10.0442 43.6746 9.11888 44.0839 9.82679 44.0839C10.5347 44.0839 10.5478 43.5879 11.0066 43.7317C11.4945 43.8846 11.312 44.5689 11.7735 44.7884C12.1892 44.9862 12.5256 44.6181 12.9534 44.7884C13.3176 44.9334 13.3601 45.2795 13.7203 45.4342C14.4591 45.7516 15.726 44.9646 15.726 44.9646L14.4872 44.0839L8.82392 42.0291Z" fill="#744F40"/>
<path d="M30.9038 30.8275C28.4342 40.1499 20.5192 46.1559 13.2252 44.2421C4.48953 41.9502 1.62653 33.2814 4.48952 23.8972C7.12033 13.9659 12.0681 7.44919 22.1681 10.4825C30.9038 12.6743 33.3733 21.505 30.9038 30.8275Z" fill="url(#paint1_linear_192_918)"/>
<path d="M56.8431 31.2265C56.0374 30.9496 54.7784 31.9311 54.7784 31.9311L54.3837 33.3988C54.3837 33.3988 56.5538 32.3111 56.4302 33.1052C56.3908 33.3586 56.1645 33.4377 56.1352 33.6923C56.0531 34.4076 57.964 33.3988 57.964 33.3988C57.964 33.3988 57.7489 31.5378 56.8431 31.2265Z" fill="#834D2D"/>
<path d="M54.7784 31.9311C54.7784 31.9311 52.1466 32.3857 51.6518 33.6923C51.2738 34.6906 51.6518 36.0994 52.0648 36.393C52.4777 36.6865 52.5662 35.982 52.5662 35.982L53.0676 35.571L53.6576 36.0994L54.1627 34.2207L54.3837 33.3988L54.7784 31.9311Z" fill="#6E4A2F"/>
<path d="M53.6576 36.0994L53.0676 35.571L52.5662 35.982C52.5662 35.982 52.6017 37.1131 53.0676 37.5672C53.759 38.2408 55.5453 37.5672 55.5453 37.5672C55.5453 37.5672 54.8139 36.9387 54.7784 36.393C54.7325 35.6864 55.8403 34.9198 55.8403 34.9198L54.1627 34.2207L53.6576 36.0994Z" fill="#492B1C"/>
<path d="M56.1352 35.0427C56.0164 35.0044 55.8403 34.9198 55.8403 34.9198C55.8403 34.9198 54.7325 35.6864 54.7784 36.393C54.8139 36.9387 55.5453 37.5672 55.5453 37.5672C55.5453 37.5672 56.7617 37.7353 57.2561 37.2736C57.8947 36.6773 57.3151 35.0427 57.3151 35.0427C57.3151 35.0427 56.5736 35.1838 56.1352 35.0427Z" fill="#422616"/>
<path d="M57.964 33.3988C57.964 33.3988 56.0531 34.4076 56.1352 33.6923C56.1645 33.4377 56.3908 33.3586 56.4302 33.1052C56.5538 32.3111 54.3837 33.3988 54.3837 33.3988L54.1627 34.2207L55.8403 34.9198C55.8403 34.9198 56.0164 35.0044 56.1352 35.0427C56.5736 35.1838 57.3151 35.0427 57.3151 35.0427C57.3151 35.0427 58.3441 35.4759 58.4949 35.0427C58.6204 34.6821 58.0627 34.5895 57.964 34.2207C57.881 33.9106 57.964 33.3988 57.964 33.3988Z" fill="#8E6847"/>
<path d="M57.2561 37.2736C56.7617 37.7353 55.5453 37.5672 55.5453 37.5672C55.5453 37.5672 55.5488 38.8342 56.1352 39.0936C56.9093 39.436 57.2971 38.3246 57.669 37.5672C58.0166 36.8592 57.964 35.571 57.964 35.571L57.3151 35.0427C57.3151 35.0427 57.8947 36.6773 57.2561 37.2736Z" fill="#592E14"/>
<path d="M33.6591 56.9793C43.6372 57.4605 48.1122 49.4926 48.1122 40.2574C48.1122 31.0222 41.6413 23.5356 33.6591 23.5356C26.3419 23.5356 19.2061 33.2198 19.2061 40.2574C19.2061 49.4605 23.5601 54.5733 33.6591 56.9793Z" fill="#7D5133"/>
<path d="M35.3114 35.8646C35.3114 35.8646 34.9783 35.9264 34.7805 35.8646C34.556 35.7944 34.446 35.5464 34.3944 35.2775C34.3827 35.216 34.3739 35.1535 34.3676 35.0917C34.3337 34.7624 34.3676 34.4556 34.3676 34.4556C34.3676 34.4556 34.2975 34.494 34.1906 34.5406C34.139 34.563 34.0787 34.5874 34.0136 34.6103C33.9183 34.6438 33.8126 34.674 33.7081 34.6904C33.6089 34.7059 33.5108 34.709 33.4237 34.6904C33.2738 34.6584 33.1079 34.5521 32.9814 34.4556C32.86 34.363 32.7748 34.2794 32.7748 34.2794C32.7748 34.2794 32.6794 34.5358 32.5978 34.6904C32.5514 34.7783 32.486 34.8777 32.4208 34.9694C32.3023 35.1362 32.1849 35.2775 32.1849 35.2775C32.1849 35.2775 32.3388 35.4523 32.4208 35.6392C32.4758 35.7644 32.4984 35.895 32.4208 35.982C32.2947 36.1234 31.9489 36.0994 31.9489 36.0994C31.9489 36.0994 32.3982 36.6944 32.1849 36.9801C32.062 37.1447 31.7129 37.2149 31.7129 37.2149C31.7916 37.4106 32.0767 37.6588 31.9489 37.9194C31.9256 37.9669 31.8951 38.0058 31.8602 38.0384C31.7647 38.1276 31.6367 38.17 31.5359 38.213C31.5359 38.213 31.5563 38.6111 31.418 38.8001C31.388 38.841 31.3468 38.8773 31.3 38.909C31.1101 39.038 30.828 39.0936 30.828 39.0936C30.828 39.0936 30.9069 39.2894 30.946 39.5126C30.9626 39.6071 30.9721 39.7065 30.9655 39.7981C30.9625 39.8392 30.9563 39.8787 30.946 39.9155C30.9182 40.0153 30.8544 40.1169 30.7804 40.2091C30.699 40.3103 30.6052 40.4002 30.5331 40.4639C30.4643 40.5245 30.4151 40.5613 30.4151 40.5613C30.4151 40.5613 30.5632 40.6182 30.7101 40.7095C30.801 40.7661 30.8915 40.8359 30.946 40.9136C31.0126 41.0084 31.0397 41.1349 31.0448 41.2659C31.0479 41.3445 31.043 41.4247 31.0341 41.5007C31.0079 41.7246 30.946 41.9117 30.946 41.9117C30.946 41.9117 30.9878 41.9162 31.0448 41.9281C31.1245 41.9448 31.2339 41.9759 31.3 42.0291C31.606 42.2756 30.946 42.9684 30.946 42.9684C30.946 42.9684 31.3443 42.8413 31.5359 42.9684C31.8235 43.1592 31.5359 43.8491 31.5359 43.8491C31.5359 43.8491 31.7362 43.7646 31.9489 43.7276C32.1446 43.6935 32.3508 43.6997 32.4208 43.8491C32.489 43.9945 32.4208 44.26 32.4208 44.26C32.4667 44.3 32.529 44.3517 32.5978 44.4047C32.7647 44.5336 32.9695 44.671 33.0697 44.671C33.2113 44.671 33.3647 44.8667 33.4237 44.9646C33.443 44.9965 33.4497 45.0892 33.4499 45.1994C33.4504 45.4263 33.4237 45.7278 33.4237 45.7278C33.4237 45.7278 33.5393 45.6523 33.6908 45.5862C33.8279 45.5265 33.9945 45.4744 34.1316 45.4929C34.2105 45.5036 34.2911 45.5391 34.3676 45.5862C34.4346 45.6275 34.4984 45.6777 34.555 45.7278C34.6878 45.8455 34.7805 45.9626 34.7805 45.9626C34.7805 45.9626 34.9424 45.7911 35.0755 45.7278C35.2013 45.6679 35.3522 45.6806 35.5018 45.7278C35.8524 45.8384 36.1963 46.1387 36.1963 46.1387V45.6691V45.4342V45.1994C36.1963 45.1994 36.1782 45.0929 36.1728 44.9646C36.1688 44.867 36.1721 44.7568 36.1963 44.671C36.2208 44.5842 36.2776 44.4843 36.3293 44.4047C36.3836 44.3212 36.4323 44.26 36.4323 44.26C36.4323 44.26 35.7845 43.7638 35.9604 43.4381C36.0632 43.2476 36.4323 43.1446 36.4323 43.1446V42.8804V42.6162V42.3226C36.4323 42.3226 36.2337 42.1711 36.1963 42.0291C36.1722 41.9375 36.2098 41.8297 36.2616 41.7355C36.3334 41.6052 36.4323 41.5007 36.4323 41.5007C36.4323 41.5007 36.0664 41.4417 35.9604 41.2659C35.9009 41.1672 35.9257 41.036 35.9773 40.9136C36.0558 40.7273 36.1963 40.5613 36.1963 40.5613C36.1963 40.5613 35.786 40.2213 35.7244 39.9155C35.6927 39.7583 35.7493 39.5908 35.8424 39.4348C35.7935 39.4955 35.8821 39.3682 35.8424 39.4348C36.0471 39.1805 36.4323 38.8001 36.4323 38.8001C36.4323 38.8001 36.1133 38.7862 35.8424 38.6822C35.6827 38.621 35.5397 38.5285 35.4884 38.3891C35.3604 38.0413 35.8424 37.5084 35.8424 37.5084C35.8424 37.5084 35.5088 37.5716 35.3114 37.5084C35.1026 37.4416 35.0358 37.2301 35.0386 36.9801C35.0398 36.8718 35.0541 36.7563 35.0755 36.6422C35.15 36.245 35.3114 35.8646 35.3114 35.8646Z" fill="#E1D9AA"/>
<path d="M35.0755 45.7278C34.9424 45.7911 34.7805 45.9626 34.7805 45.9626C34.7805 45.9626 34.6878 45.8455 34.555 45.7278L34.3676 50.8942L35.0755 52.8316L35.7244 50.6594L35.0755 45.7278Z" fill="#4B6F1C"/>
<path d="M37.4352 50.1897L36.1963 46.1387C36.1963 46.1387 35.8524 45.8384 35.5018 45.7278L35.9604 50.1897L37.4352 52.8316V50.1897Z" fill="#436210"/>
<path d="M36.1963 45.6691L38.0251 50.1897L39.9718 52.0097L39.3229 49.5439L36.1963 45.6691Z" fill="#416514"/>
<path d="M36.1963 45.1994V45.4342L39.6179 49.3091L41.8596 50.1897L40.6207 48.0762L36.1963 45.1994Z" fill="#4D7218"/>
<path d="M36.1963 44.671C36.1721 44.7568 36.1688 44.867 36.1728 44.9646L40.0308 47.1955L42.2135 47.7826L41.1517 46.1387L36.3293 44.4047C36.2776 44.4843 36.2208 44.5842 36.1963 44.671Z" fill="#4C6D0F"/>
<path d="M36.4323 43.1446C36.4323 43.1446 36.0632 43.2476 35.9604 43.4381C35.7845 43.7638 36.4323 44.26 36.4323 44.26L41.3286 45.5862L43.6293 45.7278L41.6826 44.4047L36.4323 43.1446Z" fill="#507213"/>
<path d="M36.4323 42.6162V42.8804L41.5056 44.0839L43.3934 43.8491L42.0955 43.0271L36.4323 42.6162Z" fill="#476913"/>
<path d="M36.1963 42.0291C36.2337 42.1711 36.4323 42.3226 36.4323 42.3226L41.1517 42.6162L42.2135 42.3226L41.1517 41.7355H36.2616C36.2098 41.8297 36.1722 41.9375 36.1963 42.0291Z" fill="#496A1A"/>
<path d="M35.9604 41.2659C36.0664 41.4417 36.4323 41.5007 36.4323 41.5007L40.9157 41.2659L43.3934 40.9136L41.3286 40.3265L35.9773 40.9136C35.9257 41.036 35.9009 41.1672 35.9604 41.2659Z" fill="#53761D"/>
<path d="M35.7244 39.9155C35.786 40.2213 36.1963 40.5613 36.1963 40.5613L40.0308 40.2091L42.0955 39.7981L40.3237 39.1369L39.3504 39.1606L35.8424 39.4348C35.7493 39.5908 35.6927 39.7583 35.7244 39.9155Z" fill="#486B21"/>
<path d="M36.4323 38.8001C36.4323 38.8001 36.0471 39.1805 35.8424 39.4348L39.3504 39.1606L40.2078 39.1397L40.3237 39.1369L42.0955 39.0936L44.2782 37.9194H41.1517L36.4323 38.8001Z" fill="#5F8023"/>
<path d="M36.4323 38.8001L40.8567 37.391L43.3934 36.393L40.9157 36.6865L35.8424 38.6822C36.1133 38.7862 36.4323 38.8001 36.4323 38.8001Z" fill="#688B31"/>
<path d="M34.3676 45.5862C34.2911 45.5391 34.2105 45.5036 34.1316 45.4929C33.9945 45.4744 33.8279 45.5265 33.6908 45.5862L32.5978 50.1897L33.0697 52.8316L33.8956 50.6594L34.3676 45.5862Z" fill="#3C5C06"/>
<path d="M32.1849 50.1897L33.4237 45.7278C33.4237 45.7278 33.4504 45.4263 33.4499 45.1994L30.828 49.72V52.0097L32.1849 50.1897Z" fill="#4F6C29"/>
<path d="M33.4237 44.9646C33.3647 44.8667 33.2113 44.671 33.0697 44.671C32.9695 44.671 32.7647 44.5336 32.5978 44.4047L29.4122 48.6045L28.9993 50.4832L30.828 49.1329L33.4237 44.9646Z" fill="#446015"/>
<path d="M32.4208 44.26C32.4208 44.26 32.489 43.9945 32.4208 43.8491C32.3508 43.6997 32.1446 43.6935 31.9489 43.7276L27.9964 47.7826L27.4065 49.72L29.2353 48.311L32.4208 44.26Z" fill="#5A7A22"/>
<path d="M31.5359 43.8491C31.5359 43.8491 31.8235 43.1592 31.5359 42.9684L27.4065 45.9626L26.1677 47.7826L27.9964 47.0781L31.5359 43.8491Z" fill="#4B6F1D"/>
<path d="M30.946 42.9684C30.946 42.9684 31.606 42.2756 31.3 42.0291C31.2339 41.9759 31.1245 41.9448 31.0448 41.9281L28.77 43.6132L28.4684 43.8491L28.4463 43.853L27.7015 44.4047L25.9317 46.08L28.4684 44.9646L30.946 42.9684Z" fill="#698B38"/>
<path d="M30.946 41.9117C30.946 41.9117 31.0079 41.7246 31.0341 41.5007L27.6425 43.1446L26.1677 44.26L28.4463 43.853L28.77 43.6132L30.946 41.9117Z" fill="#4D692C"/>
<path d="M30.946 40.9136L26.9346 41.9117L24.2799 43.7276L27.6425 42.7336L31.0448 41.2659C31.0397 41.1349 31.0126 41.0084 30.946 40.9136Z" fill="#7B8C54"/>
<path d="M30.4151 40.5613C30.4151 40.5613 30.4643 40.5245 30.5331 40.4639H26.3446L23.985 41.5007H26.5216L30.7101 40.7095C30.5632 40.6182 30.4151 40.5613 30.4151 40.5613Z" fill="#4E6236"/>
<path d="M30.946 39.9155C30.9563 39.8787 30.9625 39.8392 30.9655 39.7981L27.2885 38.9762L24.2799 39.0936L27.4065 39.7981L30.7804 40.2091C30.8544 40.1169 30.9182 40.0153 30.946 39.9155Z" fill="#809B55"/>
<path d="M30.828 39.0936L28.4684 37.9194L25.5188 37.6846L27.9964 38.6822L30.946 39.5126C30.9069 39.2894 30.828 39.0936 30.828 39.0936Z" fill="#60764C"/>
<path d="M31.418 38.8001C31.5563 38.6111 31.5359 38.213 31.5359 38.213L28.7043 36.6865L26.0497 36.2168L28.4684 37.6846L31.3 38.909C31.3468 38.8773 31.388 38.841 31.418 38.8001Z" fill="#708839"/>
<path d="M31.9489 37.9194C32.0767 37.6588 31.7916 37.4106 31.7129 37.2149L29.0583 35.2775L26.3446 34.4556L28.2324 36.393L31.8602 38.0384C31.8951 38.0058 31.9256 37.9669 31.9489 37.9194Z" fill="#66813C"/>
<path d="M35.8424 37.5084C35.8424 37.5084 35.3604 38.0413 35.4884 38.3891L39.7358 36.6865L41.3286 35.2775L39.2049 35.8646L35.8424 37.5084Z" fill="#4E6C27"/>
<path d="M35.3114 37.5084L39.4409 35.4536L41.5056 33.3988L39.4409 34.1033L35.0386 36.9801C35.0358 37.2301 35.1026 37.4416 35.3114 37.5084Z" fill="#82A147"/>
<path d="M35.3114 35.8646C35.3114 35.8646 35.15 36.245 35.0755 36.6422L39.2049 33.8098L41.1517 31.931L38.615 32.9878L35.3114 35.8646Z" fill="#799745"/>
<path d="M34.7805 35.8646L37.4941 33.3988L40.0308 30.4046L36.4323 32.9878L34.3944 35.2775C34.446 35.5464 34.556 35.7944 34.7805 35.8646Z" fill="#648430"/>
<path d="M34.3676 34.4556C34.3676 34.4556 34.3337 34.7624 34.3676 35.0917L36.9632 31.931L38.615 29.6414L36.4323 31.4027L34.3676 34.4556Z" fill="#658329"/>
<path d="M34.3676 34.4556L36.9632 30.4046L37.4941 28.1736L35.4884 29.9936L34.1906 34.5406C34.2975 34.494 34.3676 34.4556 34.3676 34.4556Z" fill="#6D9135"/>
<path d="M34.0136 34.6103L35.3114 29.8762V27.4104L34.0136 29.6414L33.7081 34.6904C33.8126 34.674 33.9183 34.6438 34.0136 34.6103Z" fill="#77973B"/>
<path d="M33.4237 34.6904L33.7081 29.6414L33.1287 27.4104L32.1849 29.8762L32.9814 34.4556C33.1079 34.5521 33.2738 34.6584 33.4237 34.6904Z" fill="#678627"/>
<path d="M32.7748 34.2794L31.9489 29.6414L30.946 27.9975L30.7101 30.2872L32.7748 34.2794Z" fill="#86A549"/>
<path d="M32.5978 34.6904L30.5331 30.6394L29.0583 29.4652L30.0022 32.1072L32.4208 34.9694C32.486 34.8777 32.5514 34.7783 32.5978 34.6904Z" fill="#67822E"/>
<path d="M32.1849 35.2775L29.7662 32.342L28.2324 31.5788L29.5892 33.8098L32.4208 35.6392C32.3388 35.4523 32.1849 35.2775 32.1849 35.2775Z" fill="#86A150"/>
<path d="M32.1849 36.9801C32.3982 36.6944 31.9489 36.0994 31.9489 36.0994C31.9489 36.0994 32.2947 36.1234 32.4208 35.982L29.7662 34.1033L27.7015 33.3988L29.2353 35.0917L32.1849 36.9801Z" fill="#4C621D"/>
<path fill-rule="evenodd" clip-rule="evenodd" d="M47.7588 40.2091C47.7588 49.2231 43.3934 57 33.6597 56.5303C23.808 54.1819 19.5605 49.1916 19.5605 40.2091C19.5605 33.3401 26.5216 23.8878 33.6597 23.8878C41.4464 23.8878 47.7588 31.1951 47.7588 40.2091ZM34.7805 35.8646C34.9783 35.9264 35.3114 35.8646 35.3114 35.8646L38.615 32.9878L41.1517 31.931L39.2049 33.8098L35.0755 36.6422C35.0541 36.7563 35.0398 36.8718 35.0386 36.9801L39.4409 34.1033L41.5056 33.3988L39.4409 35.4536L35.3114 37.5084C35.5088 37.5716 35.8424 37.5084 35.8424 37.5084L39.2049 35.8646L41.3286 35.2775L39.7358 36.6865L35.4884 38.3891C35.5397 38.5285 35.6827 38.621 35.8424 38.6822L40.9157 36.6865L43.3934 36.393L40.8567 37.391L36.4323 38.8001L41.1517 37.9194H44.2782L42.0955 39.0936L40.3237 39.1369L42.0955 39.7981L40.0308 40.2091L36.1963 40.5613C36.1963 40.5613 36.0558 40.7273 35.9773 40.9136L41.3286 40.3265L43.3934 40.9136L40.9157 41.2659L36.4323 41.5007C36.4323 41.5007 36.3334 41.6052 36.2616 41.7355H41.1517L42.2135 42.3226L41.1517 42.6162L36.4323 42.3226V42.6162L42.0955 43.0271L43.3934 43.8491L41.5056 44.0839L36.4323 42.8804V43.1446L41.6826 44.4047L43.6293 45.7278L41.3286 45.5862L36.4323 44.26C36.4323 44.26 36.3836 44.3212 36.3293 44.4047L41.1517 46.1387L42.2135 47.7826L40.0308 47.1955L36.1728 44.9646C36.1782 45.0929 36.1963 45.1994 36.1963 45.1994L40.6207 48.0762L41.8596 50.1897L39.6179 49.3091L36.1963 45.4342V45.6691L39.3229 49.5439L39.9718 52.0097L38.0251 50.1897L36.1963 45.6691V46.1387L37.4352 50.1897V52.8316L35.9604 50.1897L35.5018 45.7278C35.3522 45.6806 35.2013 45.6679 35.0755 45.7278L35.7244 50.6594L35.0755 52.8316L34.3676 50.8942L34.555 45.7278C34.4984 45.6777 34.4346 45.6275 34.3676 45.5862L33.8956 50.6594L33.0697 52.8316L32.5978 50.1897L33.6908 45.5862C33.5393 45.6523 33.4237 45.7278 33.4237 45.7278L32.1849 50.1897L30.828 52.0097V49.72L33.4499 45.1994C33.4497 45.0892 33.443 44.9965 33.4237 44.9646L30.828 49.1329L28.9993 50.4832L29.4122 48.6045L32.5978 44.4047C32.529 44.3517 32.4667 44.3 32.4208 44.26L29.2353 48.311L27.4065 49.72L27.9964 47.7826L31.9489 43.7276C31.7362 43.7646 31.5359 43.8491 31.5359 43.8491L27.9964 47.0781L26.1677 47.7826L27.4065 45.9626L31.5359 42.9684C31.3443 42.8413 30.946 42.9684 30.946 42.9684L28.4684 44.9646L25.9317 46.08L27.7015 44.4047L28.4463 43.853L26.1677 44.26L27.6425 43.1446L31.0341 41.5007C31.043 41.4247 31.0479 41.3445 31.0448 41.2659L27.6425 42.7336L24.2799 43.7276L26.9346 41.9117L30.946 40.9136C30.8915 40.8359 30.801 40.7661 30.7101 40.7095L26.5216 41.5007H23.985L26.3446 40.4639H30.5331C30.6052 40.4002 30.699 40.3103 30.7804 40.2091L27.4065 39.7981L24.2799 39.0936L27.2885 38.9762L30.9655 39.7981C30.9721 39.7065 30.9626 39.6071 30.946 39.5126L27.9964 38.6822L25.5188 37.6846L28.4684 37.9194L30.828 39.0936C30.828 39.0936 31.1101 39.038 31.3 38.909L28.4684 37.6846L26.0497 36.2168L28.7043 36.6865L31.5359 38.213C31.6367 38.17 31.7647 38.1276 31.8602 38.0384L28.2324 36.393L26.3446 34.4556L29.0583 35.2775L31.7129 37.2149C31.7129 37.2149 32.062 37.1447 32.1849 36.9801L29.2353 35.0917L27.7015 33.3988L29.7662 34.1033L32.4208 35.982C32.4984 35.895 32.4758 35.7644 32.4208 35.6392L29.5892 33.8098L28.2324 31.5788L29.7662 32.342L32.1849 35.2775C32.1849 35.2775 32.3023 35.1362 32.4208 34.9694L30.0022 32.1072L29.0583 29.4652L30.5331 30.6394L32.5978 34.6904C32.6794 34.5358 32.7748 34.2794 32.7748 34.2794L30.7101 30.2872L30.946 27.9975L31.9489 29.6414L32.7748 34.2794C32.7748 34.2794 32.86 34.363 32.9814 34.4556L32.1849 29.8762L33.1287 27.4104L33.7081 29.6414L33.4237 34.6904C33.5108 34.709 33.6089 34.7059 33.7081 34.6904L34.0136 29.6414L35.3114 27.4104V29.8762L34.0136 34.6103C34.0787 34.5874 34.139 34.563 34.1906 34.5406L35.4884 29.9936L37.4941 28.1736L36.9632 30.4046L34.3676 34.4556L36.4323 31.4027L38.615 29.6414L36.9632 31.931L34.3676 35.0917C34.3739 35.1535 34.3827 35.216 34.3944 35.2775L36.4323 32.9878L40.0308 30.4046L37.4941 33.3988L34.7805 35.8646Z" fill="url(#paint2_linear_192_918)"/>
<path d="M28.5267 31.9311C28.1865 31.9278 27.7598 32.342 27.7598 32.342C27.7598 32.342 28.2708 32.8277 28.6446 32.753C28.9339 32.6952 29.255 32.5762 29.2346 32.2833C29.2132 31.9765 28.8357 31.9341 28.5267 31.9311Z" fill="#211D05"/>
<path d="M27.2616 37.5655C26.9762 37.3812 26.3928 37.5031 26.3928 37.5031C26.3928 37.5031 26.5624 38.1857 26.9183 38.3222C27.1935 38.4278 27.5286 38.4987 27.6693 38.2406C27.8166 37.9702 27.5208 37.7329 27.2616 37.5655Z" fill="#211D05"/>
<path d="M28.4382 36.5979C28.6764 36.8396 29.2725 36.847 29.2725 36.847C29.2725 36.847 29.2562 36.1439 28.9388 35.9337C28.6932 35.771 28.3816 35.6292 28.1879 35.8506C27.985 36.0827 28.2218 36.3783 28.4382 36.5979Z" fill="#211D05"/>
<path d="M29.4997 36.9501C29.7379 37.1918 30.334 37.1992 30.334 37.1992C30.334 37.1992 30.3177 36.4962 30.0003 36.2859C29.7547 36.1232 29.4431 35.9814 29.2494 36.2029C29.0465 36.4349 29.2833 36.7305 29.4997 36.9501Z" fill="#211D05"/>
<path d="M29.4997 38.2417C29.7379 38.4834 30.334 38.4908 30.334 38.4908C30.334 38.4908 30.3177 37.7878 30.0003 37.5775C29.7547 37.4148 29.4431 37.273 29.2494 37.4945C29.0465 37.7265 29.2833 38.0221 29.4997 38.2417Z" fill="#211D05"/>
<path d="M30.5613 35.7759C30.7994 36.0176 31.3955 36.025 31.3955 36.025C31.3955 36.025 31.3793 35.322 31.0618 35.1117C30.8162 34.949 30.5047 34.8072 30.311 35.0287C30.108 35.2607 30.3448 35.5563 30.5613 35.7759Z" fill="#211D05"/>
<path d="M30.6794 34.4843C30.9176 34.726 31.5137 34.7334 31.5137 34.7334C31.5137 34.7334 31.4974 34.0304 31.18 33.8201C30.9344 33.6574 30.6228 33.5156 30.4291 33.7371C30.2262 33.9691 30.463 34.2647 30.6794 34.4843Z" fill="#211D05"/>
<path d="M31.6469 31.3577C31.7336 31.6851 32.2479 31.9852 32.2479 31.9852C32.2479 31.9852 32.5834 31.3663 32.4122 31.0272C32.2797 30.7649 32.0796 30.4882 31.8011 30.5852C31.5094 30.6868 31.5681 31.0603 31.6469 31.3577Z" fill="#211D05"/>
<path d="M33.7036 32.8612C33.5739 33.1741 33.8012 33.7225 33.8012 33.7225C33.8012 33.7225 34.4444 33.4315 34.514 33.0583C34.5678 32.7696 34.5765 32.4288 34.2957 32.3385C34.0016 32.244 33.8215 32.5768 33.7036 32.8612Z" fill="#211D05"/>
<path d="M34.9646 32.6131C34.8084 32.9139 34.9878 33.4796 34.9878 33.4796C34.9878 33.4796 35.6537 33.2444 35.7551 32.8785C35.8335 32.5955 35.8714 32.2566 35.5995 32.1428C35.3146 32.0236 35.1065 32.3398 34.9646 32.6131Z" fill="#211D05"/>
<path d="M37.4375 35.5055C37.1358 35.6618 36.955 36.2271 36.955 36.2271C36.955 36.2271 37.6355 36.4165 37.9301 36.1755C38.1581 35.9891 38.3851 35.7338 38.2287 35.4849C38.0648 35.2241 37.7116 35.3634 37.4375 35.5055Z" fill="#211D05"/>
<path d="M36.2822 37.2532C35.9805 37.4095 35.7997 37.9749 35.7997 37.9749C35.7997 37.9749 36.4802 38.1642 36.7748 37.9233C37.0028 37.7369 37.2299 37.4816 37.0734 37.2327C36.9095 36.9719 36.5564 37.1111 36.2822 37.2532Z" fill="#211D05"/>
<path d="M37.6982 37.8403C37.3965 37.9966 37.2157 38.562 37.2157 38.562C37.2157 38.562 37.8962 38.7513 38.1909 38.5104C38.4188 38.324 38.6459 38.0687 38.4894 37.8197C38.3255 37.559 37.9724 37.6982 37.6982 37.8403Z" fill="#211D05"/>
<path d="M39.6038 38.2752C39.2671 38.3232 38.9082 38.797 38.9082 38.797C38.9082 38.797 39.4872 39.2001 39.8454 39.0699C40.1225 38.9692 40.4218 38.8032 40.3571 38.5168C40.2893 38.2167 39.9097 38.2316 39.6038 38.2752Z" fill="#211D05"/>
<path d="M38.0569 39.61C37.717 39.6244 37.3125 40.0602 37.3125 40.0602C37.3125 40.0602 37.8483 40.5187 38.2178 40.4247C38.5036 40.352 38.818 40.2165 38.7823 39.9251C38.7448 39.6197 38.3657 39.597 38.0569 39.61Z" fill="#211D05"/>
<path d="M39.5283 42.7239C39.2407 42.5431 38.6589 42.6722 38.6589 42.6722C38.6589 42.6722 38.837 43.3527 39.1945 43.4848C39.4711 43.587 39.807 43.6538 39.9444 43.3939C40.0884 43.1217 39.7897 42.8881 39.5283 42.7239Z" fill="#211D05"/>
<path d="M38.2305 43.7807C37.9429 43.5999 37.361 43.729 37.361 43.729C37.361 43.729 37.5391 44.4095 37.8966 44.5416C38.1732 44.6437 38.5092 44.7105 38.6466 44.4507C38.7905 44.1785 38.4918 43.9449 38.2305 43.7807Z" fill="#211D05"/>
<path d="M39.5283 45.7768C39.2407 45.596 38.6589 45.7251 38.6589 45.7251C38.6589 45.7251 38.837 46.4056 39.1945 46.5377C39.4711 46.6399 39.807 46.7067 39.9444 46.4468C40.0884 46.1746 39.7897 45.941 39.5283 45.7768Z" fill="#211D05"/>
<path d="M38.1953 46.5603C37.9682 46.3084 37.373 46.2746 37.373 46.2746C37.373 46.2746 37.3578 46.9776 37.6656 47.2017C37.9036 47.3751 38.2085 47.5306 38.4119 47.3179C38.625 47.0951 38.4017 46.7893 38.1953 46.5603Z" fill="#211D05"/>
<path d="M36.9469 48.9984C36.9127 48.6616 36.4519 48.2852 36.4519 48.2852C36.4519 48.2852 36.0232 48.8442 36.1391 49.2058C36.2288 49.4855 36.383 49.79 36.6733 49.7375C36.9774 49.6825 36.9781 49.3044 36.9469 48.9984Z" fill="#211D05"/>
<path d="M38.1101 48.284C37.9167 48.0055 37.3305 47.8973 37.3305 47.8973C37.3305 47.8973 37.2264 48.5928 37.5033 48.8538C37.7175 49.0557 38.0003 49.2481 38.229 49.0627C38.4686 48.8684 38.2858 48.537 38.1101 48.284Z" fill="#211D05"/>
<path d="M34.0539 48.696C34.1432 48.3694 33.8485 47.8537 33.8485 47.8537C33.8485 47.8537 33.2471 48.2227 33.2251 48.6016C33.2081 48.8948 33.2425 49.234 33.5324 49.2885C33.8361 49.3456 33.9728 48.9929 34.0539 48.696Z" fill="#211D05"/>
<path d="M35.5305 47.9677C35.6198 47.6411 35.3251 47.1254 35.3251 47.1254C35.3251 47.1254 34.7236 47.4944 34.7016 47.8733C34.6846 48.1665 34.719 48.5057 35.0089 48.5602C35.3126 48.6173 35.4494 48.2646 35.5305 47.9677Z" fill="#211D05"/>
<path d="M32.6985 48.5548C32.7877 48.2282 32.4931 47.7125 32.4931 47.7125C32.4931 47.7125 31.8916 48.0815 31.8696 48.4604C31.8526 48.7536 31.887 49.0928 32.1769 49.1473C32.4806 49.2044 32.6174 48.8517 32.6985 48.5548Z" fill="#211D05"/>
<path d="M31.7908 47.4043C31.9993 47.1368 31.9261 46.548 31.9261 46.548C31.9261 46.548 31.2284 46.659 31.0619 47.0005C30.9331 47.2646 30.834 47.591 31.0807 47.7521C31.3391 47.9208 31.6014 47.6474 31.7908 47.4043Z" fill="#211D05"/>
<path d="M31.6248 45.0762C31.8332 44.8087 31.7601 44.2199 31.7601 44.2199C31.7601 44.2199 31.0624 44.3309 30.8959 44.6724C30.7671 44.9365 30.668 45.2629 30.9146 45.424C31.1731 45.5927 31.4354 45.3193 31.6248 45.0762Z" fill="#211D05"/>
<path d="M29.6361 44.6905C29.918 44.5012 30.0333 43.9191 30.0333 43.9191C30.0333 43.9191 29.3356 43.8077 29.0703 44.0803C28.8651 44.2913 28.6685 44.5705 28.8523 44.8002C29.0449 45.0408 29.3799 44.8626 29.6361 44.6905Z" fill="#211D05"/>
<path d="M28.8753 43.6738C29.1573 43.4844 29.2725 42.9023 29.2725 42.9023C29.2725 42.9023 28.5749 42.7909 28.3096 43.0636C28.1043 43.2745 27.9078 43.5538 28.0916 43.7834C28.2841 44.0241 28.6191 43.8458 28.8753 43.6738Z" fill="#211D05"/>
<path d="M27.8986 42.6703C28.2315 42.6005 28.5583 42.1043 28.5583 42.1043C28.5583 42.1043 27.954 41.7399 27.6052 41.8931C27.3353 42.0117 27.0476 42.1968 27.131 42.4784C27.2184 42.7735 27.5962 42.7338 27.8986 42.6703Z" fill="#211D05"/>
<path d="M28.0966 40.5971C28.4355 40.6258 28.8923 40.2446 28.8923 40.2446C28.8923 40.2446 28.4194 39.7221 28.041 39.7687C27.7482 39.8047 27.419 39.8993 27.4173 40.1929C27.4154 40.5005 27.7886 40.571 28.0966 40.5971Z" fill="#211D05"/>
<path d="M38.6135 40.5982C38.2737 40.6134 37.8635 40.9398 37.8635 40.9398C37.8635 40.9398 38.3925 41.2699 38.763 41.1957C39.0496 41.1382 39.3657 41.0342 39.334 40.8201C39.3009 40.5959 38.9223 40.5843 38.6135 40.5982Z" fill="#211D05"/>
<path d="M35.8337 31.2106C35.6786 31.5118 35.7342 32.0154 35.7342 32.0154C35.7342 32.0154 36.2549 31.7073 36.3786 31.3526C36.4744 31.0783 36.5478 30.7573 36.3634 30.6874C36.1701 30.6142 35.9747 30.9368 35.8337 31.2106Z" fill="#211D05"/>
<defs>
<linearGradient id="paint0_linear_192_918" x1="38.4961" y1="16.6666" x2="48.1084" y2="30.5066" gradientUnits="userSpaceOnUse">
<stop stop-color="#C79363"/>
<stop offset="1" stop-color="#875632"/>
</linearGradient>
<linearGradient id="paint1_linear_192_918" x1="12.835" y1="11.735" x2="27.1013" y2="26.0699" gradientUnits="userSpaceOnUse">
<stop stop-color="#AA7B4D"/>
<stop offset="1" stop-color="#643F16"/>
</linearGradient>
<linearGradient id="paint2_linear_192_918" x1="27.5245" y1="26.5298" x2="45.5243" y2="50.5077" gradientUnits="userSpaceOnUse">
<stop stop-color="#ABBB5A"/>
<stop offset="1" stop-color="#708A1D"/>
</linearGradient>
</defs>
</svg>
