<svg width="64" height="64" viewBox="0 0 64 64" fill="none" xmlns="http://www.w3.org/2000/svg">
<path d="M20.9179 17.071C21.851 16.068 23.7815 15.0636 23.7815 15.0636C23.7815 15.0636 27.5605 13.0892 30.1906 12.9178C33.8556 12.6788 36.0222 13.8013 39.1907 15.6866C42.3426 17.5621 43.6475 19.3752 45.9407 22.2626C48.3628 25.3122 50.194 27.0272 51.0543 30.846C51.6659 33.5603 51.8115 35.2996 51.0543 37.9758C50.5711 39.6839 49.0771 41.6445 49.0771 42.0598C49.0771 42.4751 49.4862 44.0672 49.4862 44.621C49.4862 45.1748 49.672 46.2817 49.0771 46.9745C48.3947 47.7692 46.418 46.9745 46.418 46.9745C46.418 46.9745 45.0316 46.7438 43.4861 47.2514C41.9407 47.759 40.1426 48.6411 37.8952 48.6358C35.9053 48.6311 32.9179 47.5283 32.9179 47.5283C32.9179 47.5283 23.6724 42.6967 23.2361 42.4751C22.7997 42.2536 20.0088 35.2762 18.6679 31.8151C17.3269 28.3541 18.1034 26.785 18.6679 23.647C19.1489 20.9726 19.0792 19.0475 20.9179 17.071Z" fill="url(#paint0_linear_192_914)"/>
<path d="M18.585 25.8143C27.21 25.8143 34.6709 32.0584 34.6709 41.6571C34.6709 51.2215 26.2724 57.4998 17.6094 57.4998C9.00474 57.4997 2.5 51.2144 2.5 42.6473C2.50019 34.0409 10.0191 25.8146 18.585 25.8143Z" fill="#FCFAFB" stroke="#FDDE3D"/>
<path d="M23.2364 15.0636C23.0665 15.4069 22.4864 15.6866 22.4864 15.6866H23.2364L23.3728 16.1019L23.9864 15.4789L24.6683 15.2713L24.5319 14.856L25.0773 14.3714C25.0773 14.3714 24.5399 14.6466 24.191 14.5791C23.5124 14.4478 23.3728 12.987 23.3728 12.987C23.3728 12.987 23.1219 12.4184 22.8955 12.0015C22.8724 11.959 22.8496 11.918 22.8273 11.8795C22.6918 11.6446 22.5158 11.3914 22.3285 11.1441C21.775 10.4131 21.1228 9.7336 21.1228 9.7336L20.6455 10.0797C20.6455 10.0797 21.4815 11.2742 21.941 12.0871C22.2255 12.5905 22.6228 13.4023 22.6228 13.4023C22.6228 13.4023 23.5429 14.4445 23.2364 15.0636Z" fill="#56921F"/>
<path d="M54.8047 16.6557C57.5594 16.1247 61.9638 16.1019 61.9638 16.1019C61.9638 16.1019 55.7924 14.2973 51.7365 13.6792C47.0421 12.9637 44.3047 13.3562 39.6001 12.987C34.8956 12.6178 25.7189 11.9094 25.3916 11.9094C25.3916 11.9094 25.1771 12.0074 25.3542 12.2256C26.0956 13.1391 28.1919 15.6338 29.9865 16.9326C32.3534 18.6455 33.9001 19.4716 36.7365 20.1168C40.4594 20.9635 42.7478 20.2655 46.4865 19.4938C49.8448 18.8006 51.4379 17.3048 54.8047 16.6557Z" fill="url(#paint1_linear_192_914)"/>
<path d="M34.2819 6.41099C30.379 7.38035 28.2319 9.87247 25.3916 11.6837C25.2878 11.7499 25.4974 11.8451 25.3916 11.9094C25.7189 11.9094 34.8956 12.6178 39.6001 12.987C44.3047 13.3562 47.0421 12.9637 51.7365 13.6792C55.7924 14.2973 61.9638 16.1019 61.9638 16.1019C62.898 15.0285 45.532 7.1032 44.3729 6.75709C43.2138 6.41099 38.112 5.45973 34.2819 6.41099Z" fill="url(#paint2_linear_192_914)"/>
<path d="M25.3916 11.9094C25.4974 11.8451 25.2878 11.7499 25.3916 11.6837C25.3038 11.6742 24.0546 11.6256 23.441 11.6026C22.8273 11.5795 22.3285 11.1441 22.3285 11.1441C22.5158 11.3914 22.6918 11.6446 22.8273 11.8795C22.8496 11.918 22.8724 11.959 22.8955 12.0015C22.9637 12.0179 23.674 12.2573 24.191 12.2948C24.6449 12.3277 24.9892 12.2486 25.3542 12.2256C25.1771 12.0074 25.3916 11.9094 25.3916 11.9094Z" fill="#56921F"/>
<path d="M17.0993 38.3219L17.7129 38.9449C17.8948 39.1295 18.2584 38.1834 18.2584 38.1834C18.2584 38.1834 18.47 38.9566 18.872 39.0833C19.2829 39.2128 19.8948 38.668 19.8948 38.668C19.8039 39.1525 19.3763 39.6823 19.6902 40.1908C20.0263 40.7353 20.7584 40.4908 21.2584 40.6062C21.2584 40.6062 20.3415 40.9398 20.3039 41.4368C20.2634 41.9705 21.2584 42.4059 21.2584 42.4059C21.2584 42.4059 20.3276 42.1181 19.963 42.4751C19.6839 42.7483 19.6902 43.4442 19.6902 43.4442C19.6902 43.4442 19.0959 42.8543 18.6675 42.9597C18.2828 43.0543 17.9857 43.7211 17.9857 43.7211C17.9857 43.7211 17.8156 42.9795 17.4402 42.8212C17.1943 42.7176 16.7584 42.8212 16.7584 42.8212C16.7584 42.8212 16.918 42.2716 16.7584 41.9906C16.5918 41.6971 16.0084 41.5753 16.0084 41.5753C16.0084 41.5753 16.5757 41.1985 16.6902 40.8138C16.8693 40.2119 16.0084 39.3602 16.0084 39.3602C16.0084 39.3602 16.5756 39.4296 16.8266 39.2218C17.1072 38.9893 17.0993 38.3219 17.0993 38.3219Z" fill="#FCFAFA"/>
<path fill-rule="evenodd" clip-rule="evenodd" d="M33.5312 40.9523C33.5312 49.2864 25.9972 56.5962 17.7129 56.5962C9.42864 56.5962 3.46289 51.1553 3.46289 42.8212C3.46289 34.4872 10.315 26.762 18.5993 26.762C26.8836 26.762 33.5312 32.6182 33.5312 40.9523ZM17.7129 38.9449L17.0993 38.3219C17.0993 38.3219 17.1072 38.9893 16.8266 39.2218C16.5756 39.4296 16.0084 39.3602 16.0084 39.3602C16.0084 39.3602 16.8693 40.2119 16.6902 40.8138C16.5757 41.1985 16.0084 41.5753 16.0084 41.5753C16.0084 41.5753 16.5918 41.6971 16.7584 41.9906C16.918 42.2716 16.7584 42.8212 16.7584 42.8212C16.7584 42.8212 17.1943 42.7176 17.4402 42.8212C17.8156 42.9795 17.9857 43.7211 17.9857 43.7211C17.9857 43.7211 18.2828 43.0543 18.6675 42.9597C19.0959 42.8543 19.6902 43.4442 19.6902 43.4442C19.6902 43.4442 19.6839 42.7483 19.963 42.4751C20.3276 42.1181 21.2584 42.4059 21.2584 42.4059C21.2584 42.4059 20.2634 41.9705 20.3039 41.4368C20.3415 40.9398 21.2584 40.6062 21.2584 40.6062C20.7584 40.4908 20.0263 40.7353 19.6902 40.1908C19.3763 39.6823 19.8039 39.1525 19.8948 38.668C19.8948 38.668 19.2829 39.2128 18.872 39.0833C18.47 38.9566 18.2584 38.1834 18.2584 38.1834C18.2584 38.1834 17.8948 39.1295 17.7129 38.9449Z" fill="#FFE280"/>
<path d="M18.5996 26.8616C26.8356 26.8617 33.4316 32.6805 33.4316 40.9524C33.4316 49.2296 25.9436 56.4963 17.7129 56.4963C13.5928 56.4963 10.0557 55.1439 7.5498 52.762C5.04447 50.3806 3.56257 46.9635 3.5625 42.8215C3.5625 34.5351 10.3778 26.8616 18.5996 26.8616ZM18.165 38.1477L18.1641 38.1497C18.1634 38.1513 18.1624 38.1542 18.1611 38.1575C18.1585 38.1641 18.1544 38.1744 18.1494 38.1868C18.1394 38.2117 18.1244 38.2475 18.1064 38.2893C18.0701 38.3736 18.0207 38.4831 17.9658 38.5862C17.9097 38.6916 17.8525 38.7829 17.8027 38.8352C17.791 38.8476 17.7805 38.8557 17.7725 38.8616H17.7715L17.1709 38.2512L16.9961 38.0745L16.999 38.3235V38.3489C16.9987 38.3665 16.9978 38.3925 16.9961 38.4241C16.9926 38.4877 16.9855 38.5749 16.9697 38.6682C16.9539 38.7618 16.9296 38.8594 16.8945 38.9456C16.868 39.0108 16.837 39.0659 16.8008 39.1077L16.7627 39.1448C16.6644 39.2262 16.4896 39.2603 16.3184 39.2688C16.2363 39.2729 16.161 39.2709 16.1064 39.2678C16.0796 39.2663 16.0579 39.2643 16.043 39.2629C16.0355 39.2622 16.0291 39.2624 16.0254 39.262L16.0215 39.261H16.0205L15.7295 39.2258L15.9385 39.4309V39.4319L15.9404 39.4329C15.9418 39.4343 15.9435 39.4369 15.9463 39.4397C15.9522 39.4457 15.9615 39.4552 15.9727 39.467C15.995 39.4906 16.0267 39.5253 16.0645 39.5686C16.1405 39.6557 16.2396 39.7777 16.333 39.9172C16.4266 40.0572 16.5128 40.2115 16.5645 40.3645C16.6033 40.4796 16.6211 40.5893 16.6123 40.6887L16.5947 40.7854C16.5459 40.9495 16.3938 41.1241 16.2393 41.2649C16.1641 41.3334 16.0922 41.3909 16.0391 41.4309C16.0125 41.4509 15.9905 41.4663 15.9756 41.4768C15.9682 41.482 15.9618 41.4859 15.958 41.4885C15.9563 41.4897 15.9549 41.4909 15.9541 41.4915H15.9531V41.4924L15.7539 41.6243L15.9883 41.6731H15.9893L15.9932 41.6741C15.997 41.6749 16.0031 41.6762 16.0107 41.678C16.026 41.6816 16.048 41.688 16.0752 41.6956C16.13 41.7109 16.2043 41.7341 16.2832 41.7659C16.3625 41.7978 16.4443 41.8376 16.5146 41.885C16.5503 41.9091 16.582 41.9342 16.6084 41.9602L16.6719 42.0403C16.7342 42.1506 16.7385 42.3295 16.7188 42.5002C16.7093 42.582 16.6955 42.6558 16.6836 42.7092C16.6777 42.7358 16.6718 42.7572 16.668 42.7717C16.6661 42.7789 16.6651 42.7847 16.6641 42.7883C16.6636 42.79 16.6633 42.7914 16.6631 42.7922L16.6621 42.7932L16.6143 42.9583L16.7812 42.9182H16.7822C16.7829 42.9181 16.7838 42.9175 16.7852 42.9172C16.788 42.9166 16.7931 42.9165 16.7988 42.9153C16.8104 42.9128 16.8276 42.9093 16.8486 42.9055C16.8913 42.8978 16.9505 42.8882 17.0166 42.8821C17.1199 42.8725 17.2295 42.8712 17.3193 42.8889L17.4014 42.9133C17.4725 42.9433 17.5406 43.0042 17.6035 43.0881C17.666 43.1715 17.7188 43.272 17.7617 43.3704C17.8045 43.4684 17.8364 43.5626 17.8574 43.6321C17.8678 43.6665 17.8758 43.6947 17.8809 43.7141C17.8834 43.7239 17.8855 43.7316 17.8867 43.7366C17.8873 43.739 17.8874 43.7413 17.8877 43.7424V43.7434H17.8887L17.9551 44.0354L18.0771 43.762V43.761C18.0776 43.7599 18.079 43.7574 18.0801 43.7551C18.0821 43.7507 18.0848 43.744 18.0889 43.7356C18.0973 43.7182 18.1107 43.6931 18.127 43.6624C18.1595 43.6008 18.2063 43.518 18.2646 43.4329C18.3233 43.3472 18.3922 43.2607 18.4668 43.1917C18.5232 43.1395 18.5799 43.0996 18.6357 43.0754L18.6914 43.0569C18.7725 43.0369 18.8688 43.0483 18.9746 43.0852C19.0798 43.1219 19.1871 43.1809 19.2842 43.2454C19.3809 43.3096 19.4651 43.3781 19.5254 43.4299C19.5554 43.4557 19.5795 43.4773 19.5957 43.4924C19.6038 43.4999 19.6102 43.5061 19.6143 43.51L19.6191 43.5149H19.6201L19.792 43.6868L19.79 43.4436V43.4153C19.7904 43.3968 19.7912 43.3694 19.793 43.3362C19.7966 43.2693 19.8044 43.1777 19.8203 43.0784C19.8363 42.9783 19.8609 42.8721 19.8965 42.7766C19.9234 42.7046 19.9555 42.6417 19.9932 42.592L20.0332 42.5461C20.1044 42.4767 20.2088 42.4337 20.3359 42.4124C20.4625 42.3912 20.6032 42.3934 20.7373 42.4065C20.871 42.4196 20.9948 42.4434 21.085 42.4641C21.1299 42.4745 21.1664 42.4836 21.1914 42.4905C21.2038 42.4939 21.2133 42.4964 21.2197 42.4983C21.2228 42.4992 21.225 42.5008 21.2266 42.5012H21.2285L21.2988 42.3147L21.2979 42.3137H21.2959C21.2943 42.313 21.2922 42.3112 21.2891 42.3098C21.2823 42.3067 21.2718 42.3023 21.2588 42.2961C21.2328 42.2837 21.1953 42.2653 21.1504 42.2415C21.0603 42.1937 20.9412 42.1246 20.8242 42.0403C20.7066 41.9555 20.5948 41.8579 20.5156 41.7532C20.456 41.6743 20.418 41.5962 20.4062 41.5198L20.4033 41.4446C20.4104 41.3505 20.46 41.2563 20.543 41.1643C20.6255 41.0728 20.7351 40.9902 20.8477 40.9202C20.9596 40.8505 21.0714 40.7949 21.1553 40.7571C21.197 40.7383 21.2318 40.7238 21.2559 40.7141C21.2679 40.7093 21.278 40.7057 21.2842 40.7034C21.2871 40.7023 21.2896 40.701 21.291 40.7004H21.293L21.6104 40.5842L21.2812 40.509L21.1768 40.4895C21.0706 40.4744 20.9593 40.4704 20.8506 40.469C20.7023 40.4671 20.5595 40.4696 20.4199 40.4592C20.1437 40.4387 19.918 40.3689 19.7754 40.1379L19.7314 40.0559C19.6463 39.8636 19.6702 39.6643 19.7363 39.4495C19.7745 39.3255 19.8249 39.2032 19.874 39.0745C19.8981 39.0114 19.9216 38.947 19.9424 38.8821L19.9932 38.6868L20.0469 38.3987L19.8281 38.593L19.8223 38.5989C19.8181 38.6025 19.8118 38.6077 19.8037 38.6145C19.7871 38.6284 19.7621 38.6485 19.7314 38.6721C19.67 38.7194 19.5846 38.781 19.4873 38.8381C19.3893 38.8957 19.2819 38.9471 19.1777 38.9768C19.0991 38.9993 19.0267 39.0076 18.9629 39.0002L18.9023 38.9875L18.8457 38.9641C18.7898 38.9342 18.735 38.8864 18.6826 38.8245C18.6134 38.7426 18.5534 38.6415 18.5039 38.5413C18.4547 38.4415 18.4178 38.3445 18.3926 38.2727C18.3801 38.2371 18.3705 38.208 18.3643 38.1877C18.3612 38.1777 18.3589 38.1695 18.3574 38.1643C18.3567 38.1617 18.3558 38.1597 18.3555 38.1584L18.3545 38.1575L18.2744 37.8635L18.165 38.1477ZM18.248 38.4573C18.2696 38.5109 18.2955 38.5699 18.3252 38.6301C18.3788 38.7387 18.4469 38.8548 18.5303 38.9534C18.5925 39.0269 18.666 39.0951 18.752 39.1409L18.8418 39.179C18.9701 39.2194 19.1071 39.205 19.2324 39.1692C19.3586 39.1332 19.4816 39.0724 19.5879 39.01C19.6321 38.9841 19.6734 38.9568 19.7119 38.9309C19.7033 38.9545 19.6958 38.979 19.6865 39.0032C19.6398 39.1258 19.5857 39.2585 19.5449 39.3909C19.4729 39.6249 19.436 39.8795 19.5479 40.134L19.6055 40.2434C19.7989 40.5566 20.1067 40.6372 20.4053 40.6594C20.5531 40.6704 20.7087 40.6674 20.8486 40.6692C20.8601 40.6693 20.8715 40.67 20.8828 40.6702C20.8376 40.6945 20.7897 40.7207 20.7422 40.7502C20.621 40.8257 20.4943 40.9199 20.3945 41.0305C20.3198 41.1133 20.2565 41.2095 20.2246 41.3176L20.2041 41.429C20.1915 41.5955 20.2607 41.7466 20.3564 41.8733C20.4524 42.0002 20.582 42.1116 20.708 42.2024C20.7092 42.2032 20.7107 42.2035 20.7119 42.2043C20.5801 42.1939 20.4375 42.1925 20.3027 42.2151C20.1902 42.2339 20.0783 42.2696 19.9824 42.3323L19.8926 42.4036C19.8084 42.486 19.7504 42.5963 19.709 42.7073C19.6674 42.819 19.6403 42.9382 19.623 43.0461C19.6123 43.1135 19.6074 43.1777 19.6025 43.2336C19.5448 43.1864 19.4737 43.1319 19.3945 43.0793C19.2896 43.0096 19.1676 42.9409 19.041 42.8967C18.9466 42.8638 18.8451 42.8426 18.7441 42.8479L18.6436 42.8625C18.5248 42.8918 18.4196 42.9633 18.3311 43.0452C18.2418 43.1278 18.1633 43.2267 18.0996 43.3196C18.0664 43.368 18.0366 43.4155 18.0107 43.4592C17.9924 43.4072 17.9711 43.3493 17.9453 43.2903C17.8988 43.1837 17.8385 43.069 17.7637 42.969C17.6893 42.8697 17.5958 42.7779 17.4795 42.7288L17.3613 42.6936C17.2387 42.6688 17.1043 42.673 16.998 42.6829C16.9583 42.6865 16.921 42.6926 16.8877 42.6975C16.8976 42.6473 16.9105 42.5876 16.918 42.5227C16.9381 42.3488 16.9424 42.1124 16.8457 41.9417L16.8008 41.8762C16.752 41.8143 16.6908 41.7621 16.627 41.719C16.5412 41.6611 16.4457 41.6155 16.3584 41.5803C16.312 41.5616 16.2663 41.5478 16.2256 41.5344C16.2698 41.4991 16.3223 41.4595 16.374 41.4124C16.512 41.2866 16.6737 41.1131 16.7559 40.9241L16.7861 40.842C16.8389 40.6646 16.813 40.4761 16.7539 40.301C16.6946 40.1253 16.5991 39.954 16.5 39.8059C16.4112 39.6731 16.3169 39.5566 16.2412 39.468C16.2689 39.4678 16.2981 39.4705 16.3281 39.469C16.4812 39.4614 16.6796 39.4334 16.8291 39.342L16.8906 39.2991C16.9783 39.2264 17.038 39.1242 17.0801 39.0208C17.1225 38.9165 17.1497 38.8036 17.167 38.7014C17.1761 38.6477 17.1789 38.5958 17.1836 38.5491L17.6416 39.0149C17.6637 39.0373 17.6915 39.0553 17.7246 39.0637C17.7576 39.072 17.7894 39.0692 17.8174 39.0608C17.8696 39.0451 17.9134 39.0084 17.9473 38.9729C18.0168 38.8997 18.0851 38.7879 18.1426 38.6799C18.1825 38.605 18.2167 38.5265 18.248 38.4573Z" stroke="url(#paint3_radial_192_914)" stroke-width="0.2"/>
<defs>
<linearGradient id="paint0_linear_192_914" x1="24.3952" y1="14.8559" x2="45.4595" y2="42.8626" gradientUnits="userSpaceOnUse">
<stop stop-color="#FDD803"/>
<stop offset="0.5" stop-color="#F1BD11"/>
<stop offset="1" stop-color="#E8A902"/>
</linearGradient>
<linearGradient id="paint1_linear_192_914" x1="26.1001" y1="12.5024" x2="61.9758" y2="16.2646" gradientUnits="userSpaceOnUse">
<stop stop-color="#5B9933"/>
<stop offset="1" stop-color="#65A942"/>
</linearGradient>
<linearGradient id="paint2_linear_192_914" x1="25.6228" y1="11.9487" x2="56.6502" y2="14.0981" gradientUnits="userSpaceOnUse">
<stop stop-color="#8DBB7A"/>
<stop offset="1" stop-color="#68A44C"/>
</linearGradient>
<radialGradient id="paint3_radial_192_914" cx="0" cy="0" r="1" gradientUnits="userSpaceOnUse" gradientTransform="translate(18.497 41.6791) rotate(90) scale(14.9171 15.0341)">
<stop stop-color="#FCFAFB"/>
<stop offset="1" stop-color="#FFFCF7"/>
</radialGradient>
</defs>
</svg>
