<svg width="64" height="64" viewBox="0 0 64 64" fill="none" xmlns="http://www.w3.org/2000/svg">
<path d="M31.9655 23.4176C31.9655 23.4176 30.5108 17.9395 28.3229 15.2252C25.6145 11.8652 23.1803 10.4159 19.0445 9.34356C14.6616 8.20719 7.49815 10.2538 7.49815 10.2538C7.49815 10.2538 9.04891 16.6611 11.4844 19.9166C13.9 23.1455 15.8501 24.714 19.4936 26.3584L24.1305 27.2687L28.8727 27.9689L30.4191 25.6932L31.9655 23.4176Z" fill="url(#paint0_linear_192_882)"/>
<path d="M28.8727 27.9689L24.1305 27.2687L19.4936 26.3584C16.5 27.2061 14.5816 27.0627 11.828 28.529C9.04134 30.013 7.65172 31.3163 5.64248 33.7805C3.98065 35.8186 2.20605 39.5922 2.20605 39.5922H11.4844L22.5497 36.9314L28.8727 27.9689Z" fill="url(#paint1_linear_192_882)"/>
<path d="M28.8727 27.9689L24.1305 27.2687L19.4936 26.3584M28.8727 27.9689L22.5497 36.9314L11.4844 39.5922H2.20605M28.8727 27.9689L30.4191 25.6932M28.8727 27.9689C28.8727 27.9689 20.5464 30.2697 15.4707 32.4501C10.0719 34.7694 2.20605 39.5922 2.20605 39.5922M19.4936 26.3584C15.8501 24.714 13.9 23.1455 11.4844 19.9166C9.04891 16.6611 7.49815 10.2538 7.49815 10.2538C7.49815 10.2538 14.6616 8.20719 19.0445 9.34356C23.1803 10.4159 25.6145 11.8652 28.3229 15.2252C30.5108 17.9395 31.9655 23.4176 31.9655 23.4176L30.4191 25.6932M19.4936 26.3584C16.5 27.2061 14.5816 27.0627 11.828 28.529C9.04134 30.013 7.65172 31.3163 5.64248 33.7805C3.98065 35.8186 2.20605 39.5922 2.20605 39.5922M7.22324 10.1138C7.22324 10.1138 14.3718 13.2289 18.5634 15.9254C23.5981 19.1644 30.4191 25.6932 30.4191 25.6932" stroke="#85A526" stroke-width="0.2"/>
<path fill-rule="evenodd" clip-rule="evenodd" d="M41.7939 16.2055C42.2521 16.2989 43.1823 16.4856 43.2372 16.4856L43.5681 16.33L43.3747 16.6256L42.5499 17.0458C42.5499 17.0458 42.8936 17.886 43.0998 17.956C43.306 18.026 44.0323 18.1113 44.1994 18.026C44.3666 17.9407 44.5431 17.6759 44.6118 17.4659C44.6805 17.2558 44.5431 16.6957 44.5431 16.6957L44.5305 16.6663L45.2991 16.4856L44.9554 17.3258L45.4365 17.6759L44.6805 18.0961L44.7493 18.6562L43.8558 18.5862L43.0998 19.1464L42.7561 18.2361H41.4503L41.9314 17.1858L41.7939 16.2055Z" fill="url(#paint2_linear_192_882)"/>
<path fill-rule="evenodd" clip-rule="evenodd" d="M41.7939 16.2055C42.2521 16.2989 43.1823 16.4856 43.2372 16.4856L43.5681 16.33L43.3747 16.6256L42.5499 17.0458C42.5499 17.0458 42.8936 17.886 43.0998 17.956C43.306 18.026 44.0323 18.1113 44.1994 18.026C44.3666 17.9407 44.5431 17.6759 44.6118 17.4659C44.6805 17.2558 44.5431 16.6957 44.5431 16.6957L44.5305 16.6663L45.2991 16.4856L44.9554 17.3258L45.4365 17.6759L44.6805 18.0961L44.7493 18.6562L43.8558 18.5862L43.0998 19.1464L42.7561 18.2361H41.4503L41.9314 17.1858L41.7939 16.2055Z" fill="#957E36"/>
<path fill-rule="evenodd" clip-rule="evenodd" d="M62.0001 29.7894C62.0001 39.3411 53.8531 46.6642 43.7183 46.6642C33.5836 46.6642 24.8867 39.3411 24.8867 29.7894C24.8867 20.2377 34.4084 12.3544 44.5431 12.3544C54.6778 12.3544 62.0001 20.2377 62.0001 29.7894ZM43.2372 16.4856C43.1823 16.4856 42.2521 16.2989 41.7939 16.2055L41.9314 17.1858L41.4503 18.2361H42.7561L43.0998 19.1464L43.8558 18.5862L44.7493 18.6562L44.6805 18.0961L45.4365 17.6759L44.9554 17.3258L45.2991 16.4856L44.5305 16.6663L44.062 15.5753L43.5681 16.33L43.2372 16.4856Z" fill="url(#paint3_linear_192_882)"/>
<path d="M44.4056 16.6957L44.1307 16.0655L43.5681 16.33L43.3747 16.6256L42.5499 17.0458C42.5499 17.0458 42.8936 17.886 43.0998 17.956C43.306 18.026 44.0323 18.1113 44.1994 18.026C44.3666 17.9407 44.5431 17.6759 44.6118 17.4659C44.6805 17.2558 44.5431 16.6957 44.5431 16.6957L44.5305 16.6663L44.4056 16.6957Z" fill="#594316"/>
<path d="M44.1307 16.0655L44.4056 16.6957L44.5305 16.6663L44.062 15.5753L43.5681 16.33L44.1307 16.0655Z" fill="#594316"/>
<path d="M15.6082 40.8525C13.6006 43.4361 11.3248 43.7713 9.35394 46.3841C8.24604 47.8529 6.73567 48.6056 6.94844 50.4452C7.14433 52.139 8.37132 52.7934 9.76631 53.7362C11.8149 55.1207 13.4981 55.0792 15.9519 54.9265C18.868 54.7451 20.6754 54.1181 22.9622 52.2658C24.08 51.3603 24.8339 50.5131 25.45 49.535C25.9807 48.6922 26.4091 47.7523 26.8797 46.5941C27.8806 44.1309 27.989 42.5375 28.0481 39.8722C28.0727 38.7627 28.1887 37.8275 28.1743 36.9314C28.1591 35.9842 27.9982 35.0806 27.4295 34.0606C26.6797 32.7155 25.9058 31.4932 24.7491 30.9393C24.29 30.7194 23.7706 30.6048 23.1684 30.6296C21.4501 30.7004 20.7672 31.938 19.5258 33.1503C17.1253 35.4947 17.6722 38.1963 15.6082 40.8525Z" fill="url(#paint4_radial_192_882)"/>
<path d="M9.35394 46.3841C11.3248 43.7713 13.6006 43.4361 15.6082 40.8525C17.6722 38.1963 17.1253 35.4947 19.5258 33.1503C20.7672 31.938 21.4501 30.7004 23.1684 30.6296C23.7706 30.6048 24.29 30.7194 24.7491 30.9393C24.7491 30.9393 23.3153 29.1135 22 28.8091C19.5868 28.2505 19.0061 31.3134 16.9141 32.6602C15.0562 33.8563 14.0055 34.5575 11.9656 35.391C9.85063 36.2551 8.45082 36.0825 6.32988 36.9314C5.201 37.3832 4.27852 37.3042 3.51201 38.2618C2.58838 39.4157 2.59806 40.6207 3.03091 42.0429C3.57158 43.8192 4.9546 44.2647 6.53607 45.1937C7.56809 45.8 9.35394 46.3841 9.35394 46.3841Z" fill="url(#paint5_radial_192_882)"/>
<path d="M28.0481 39.8722C27.989 42.5375 27.8806 44.1309 26.8797 46.5941C26.4091 47.7523 25.9807 48.6922 25.45 49.535L29.2165 52.8259C29.2322 52.8216 29.2611 52.8245 29.3017 52.8333C30.8043 52.9564 31.8156 52.6702 33.0653 51.7756C34.5342 50.7241 34.7519 49.4605 35.4708 47.7845C36.4198 45.5721 36.3085 44.1144 36.8453 41.7628C36.1914 40.994 35.6998 40.6266 34.7835 40.2223C33.5214 39.6654 32.5493 40.4079 31.2783 39.8722C29.7487 39.2276 28.1743 36.9314 28.1743 36.9314C28.1887 37.8275 28.0727 38.7627 28.0481 39.8722Z" fill="url(#paint6_radial_192_882)"/>
<path d="M36.8453 41.7628C36.3085 44.1144 36.4198 45.5721 35.4708 47.7845C34.7519 49.4605 34.5342 50.7241 33.0653 51.7756C31.8156 52.6702 30.8043 52.9564 29.3017 52.8333C29.7939 52.9397 32.0069 53.9142 33.3402 53.5261C34.7835 53.106 36.2726 52.3358 37.6014 51.7756C38.9301 51.2155 39.3025 49.9633 39.5258 48.4847C39.7814 46.7917 38.9951 45.8378 38.2886 44.2835C37.8186 43.2493 37.409 42.7472 36.8453 41.7628Z" fill="#FBC167"/>
<path d="M9.35394 46.3841C11.3248 43.7713 13.6006 43.4361 15.6082 40.8525C17.6722 38.1963 17.1253 35.4947 19.5258 33.1503C20.7672 31.938 21.4501 30.7004 23.1684 30.6296C23.7706 30.6048 24.29 30.7194 24.7491 30.9393M9.35394 46.3841C8.24604 47.8529 6.73567 48.6056 6.94844 50.4452C7.14433 52.139 8.37132 52.7934 9.76631 53.7362C11.8149 55.1207 13.4981 55.0792 15.9519 54.9265C18.868 54.7451 20.6754 54.1181 22.9622 52.2658C24.08 51.3603 24.8339 50.5131 25.45 49.535M9.35394 46.3841C9.35394 46.3841 7.56809 45.8 6.53607 45.1937C4.9546 44.2647 3.57158 43.8192 3.03091 42.0429C2.59806 40.6207 2.58838 39.4157 3.51201 38.2618C4.27852 37.3042 5.201 37.3832 6.32988 36.9314C8.45082 36.0825 9.85063 36.2551 11.9656 35.391C14.0055 34.5575 15.0562 33.8563 16.9141 32.6602C19.0061 31.3134 19.5868 28.2505 22 28.8091C23.3153 29.1135 24.7491 30.9393 24.7491 30.9393M28.1743 36.9314C28.1887 37.8275 28.0727 38.7627 28.0481 39.8722C27.989 42.5375 27.8806 44.1309 26.8797 46.5941C26.4091 47.7523 25.9807 48.6922 25.45 49.535M28.1743 36.9314C28.1591 35.9842 27.9982 35.0806 27.4295 34.0606C26.6797 32.7155 25.9058 31.4932 24.7491 30.9393M28.1743 36.9314C28.1743 36.9314 29.7487 39.2276 31.2783 39.8722C32.5493 40.4079 33.5214 39.6654 34.7835 40.2223C35.6998 40.6266 36.1914 40.994 36.8453 41.7628M36.8453 41.7628C36.3085 44.1144 36.4198 45.5721 35.4708 47.7845C34.7519 49.4605 34.5342 50.7241 33.0653 51.7756C31.8156 52.6702 30.8043 52.9564 29.3017 52.8333M36.8453 41.7628C37.409 42.7472 37.8186 43.2493 38.2886 44.2835C38.9951 45.8378 39.7814 46.7917 39.5258 48.4847C39.3025 49.9633 38.9301 51.2155 37.6014 51.7756C36.2726 52.3358 34.7835 53.106 33.3402 53.5261C32.0069 53.9142 29.7939 52.9397 29.3017 52.8333M29.2165 52.8259C27.7456 51.5407 25.45 49.535 25.45 49.535M29.2165 52.8259L25.45 49.535M29.2165 52.8259C29.2322 52.8216 29.2611 52.8245 29.3017 52.8333M29.2165 52.8259C29.2451 52.8285 29.2735 52.831 29.3017 52.8333" stroke="#FCF6E1" stroke-width="0.2"/>
<path d="M11.8969 44.0034L12.4468 46.5241L12.1031 49.465M11.8969 44.0034L14.5774 42.0429M11.8969 44.0034L10.4536 46.6642L9.62891 48.8348V51.5656L11.5533 54.0863M12.1031 49.465C12.5384 50.5386 13.4502 52.7419 13.6152 52.966C13.7801 53.19 14.6919 54.413 15.1272 54.9965M12.1031 49.465C11.9199 50.8187 11.5533 53.6381 11.5533 54.0863M15.1272 54.9965L14.5774 52.966L14.921 50.1652C15.2417 49.6984 15.8832 48.7368 15.8832 48.6247M15.1272 54.9965C14.5545 54.9965 13.3677 54.9965 13.2028 54.9965C13.0378 54.9965 12.0344 54.3897 11.5533 54.0863M15.1272 54.9965L15.8832 53.176M15.1272 54.9965L18.5636 54.5764L22.0688 53.036M15.8832 48.6247C15.8832 48.5127 16.0665 47.0376 16.1581 46.3141M15.8832 48.6247C16.1581 49.2782 16.7079 50.6273 16.7079 50.7953C16.7079 51.0054 16.9829 52.1957 16.9829 52.3358C16.9829 52.4478 16.2498 52.9426 15.8832 53.176M16.1581 46.3141L15.5396 43.7933L14.5774 42.0429M16.1581 46.3141L17.8076 48.4847L17.8787 48.6247M14.5774 42.0429L15.4021 41.2026M15.8832 53.176C16.1031 53.176 17.441 53.7829 18.0825 54.0863L19.2509 53.036M15.4021 41.2026L15.7732 41.8328M15.4021 41.2026L15.8832 40.8525M19.5945 48.0646C19.5396 47.7845 18.5636 46.2674 18.0825 45.5438L16.433 42.9531L15.7732 41.8328M19.5945 48.0646C19.6633 48.4147 19.4571 49.535 19.732 49.9551C20.0069 50.3752 20.6942 50.9354 21.1753 51.1454M19.5945 48.0646L20.2475 48.4497M21.1753 51.1454C21.5602 51.3135 22.8477 51.6823 23.4433 51.8456M21.1753 51.1454C20.4126 50.9592 18.8775 50.5725 18.8385 50.5153M23.4433 51.8456L22.2062 50.3752L20.9004 48.8348L20.2475 48.4497M23.4433 51.8456L22.0688 53.036M23.4433 51.8456L24.4055 50.7953M18.8385 50.5153C19.2509 51.1221 20.1031 52.3358 20.2131 52.3358C20.3231 52.3358 21.496 52.8026 22.0688 53.036M18.8385 50.5153L17.8787 48.6247M22.0688 53.036H19.2509M15.7732 41.8328L18.2887 43.1632L20.0069 45.1937M20.0069 45.1937L20.2131 47.1543L20.2475 48.4497M20.0069 45.1937L21.5189 45.0537M20.0069 45.1937C20.2818 45.3338 23.3059 46.8742 23.4433 46.9442C23.5073 46.9768 24.1012 47.3267 24.7492 47.7102M20.2475 47.1543C20.488 47.2943 21.9313 48.6247 22.0688 48.6247M22.0688 48.6247C22.2062 48.6247 23.6495 49.465 23.7183 49.465C23.7732 49.465 24.1994 50.3519 24.4055 50.7953M22.0688 48.6247C22.4536 48.6247 24.0161 48.015 24.7492 47.7102M24.4055 50.7953L26.055 48.4847M15.8832 40.8525C16.1031 40.9085 18.22 42.2763 19.2509 42.9531M15.8832 40.8525L16.433 39.8022M19.2509 42.9531L21.5877 43.3732L24.4743 44.1434L26.3299 43.7933M19.2509 42.9531C19.5258 43.1212 20.8775 44.4235 21.5189 45.0537M26.3299 43.7933L27.7045 44.0034M26.3299 43.7933L25.3677 42.9531C24.8179 42.7664 23.6633 42.3789 23.4433 42.3229C23.1684 42.2529 19.5945 41.8328 19.3884 41.6928M26.3299 43.7933C26.1467 43.2098 25.7801 42.0008 25.7801 41.8328M27.7045 44.0034L27.2921 45.7539M27.7045 44.0034L27.9794 42.0429M27.2921 45.7539L26.055 48.4847M27.2921 45.7539C27.1272 45.7539 25.299 45.6139 24.4055 45.5438M26.055 48.4847C25.7099 48.2796 25.2155 47.9862 24.7492 47.7102M24.4055 45.5438L21.5189 45.0537M24.4055 45.5438L24.7492 47.7102M19.2509 53.036L18.0825 51.5656L17.8787 48.6247M16.433 39.8022C17.3494 40.3857 19.2234 41.5807 19.3884 41.6928M16.433 39.8022L16.8454 39.032M19.3884 41.6928C19.211 41.647 20.0916 41.4149 21.0527 41.1887M27.9794 42.0429L25.7801 41.8328M27.9794 42.0429C27.2463 41.5527 25.7114 40.4884 25.4365 40.1523M27.9794 42.0429L28.1856 40.0123M25.7801 41.8328L22.5499 40.8525C22.1351 40.9414 21.5817 41.0642 21.0527 41.1887M17.1203 38.3318C17.3402 38.3318 19.732 38.9386 20.9004 39.2421L21.0527 39.2M17.1203 38.3318L16.8454 39.032M17.1203 38.3318C18.0167 38.1492 19.7132 37.8077 20.2131 37.7217M24.1994 38.3318L26.9485 39.8022L28.1856 40.0123M24.1994 38.3318L21.0527 39.2M24.1994 38.3318C22.9622 38.1217 20.4605 37.7016 20.3506 37.7016C20.3362 37.7016 20.2881 37.7088 20.2131 37.7217M24.1994 38.3318L26.6736 37.9817L28.1856 36.7213M24.1994 38.3318L22.4124 36.2312M28.1856 40.0123L25.4365 40.1523M25.4365 40.1523L22.5499 39.8022L21.0527 39.2M16.8454 39.032C17.0653 39.1664 19.1822 39.9749 20.2131 40.3624L21.0527 41.1887M28.1856 39.9423C28.1856 39.5501 28.1856 37.6316 28.1856 36.7213M28.1856 36.7213L26.9829 35.9511M28.1856 36.7213L27.7732 34.6908M17.6014 36.7213C17.9967 36.5488 18.515 36.3257 19.0447 36.1028M21.5189 35.1809C21.5739 35.2929 23.2372 36.4879 24.0619 37.0714M21.5189 35.1809L22.4124 36.2312M21.5189 35.1809C21.4809 35.1034 20.2342 35.6024 19.0447 36.1028M24.0619 37.0714C24.5567 37.1835 26.2154 36.3712 26.9829 35.9511M24.0619 37.0714L24.571 36.5113M25.7801 35.1809L26.9829 35.9511M25.7801 35.1809L24.571 36.5113M25.7801 35.1809C25.9451 35.1809 27.1776 34.8541 27.7732 34.6908M20.2131 37.7217L22.4124 36.2312M18.9073 33.9205L21.1066 33.7805C21.2929 33.8804 21.5184 34.0017 21.7573 34.1306M23.6495 35.1809C23.5945 35.1809 21.5648 34.9008 20.5567 34.7608L19.0447 36.1028M23.6495 35.1809C23.6495 35.2369 24.2638 36.0912 24.571 36.5113M23.6495 35.1809C23.6927 35.1809 22.6348 34.6041 21.7573 34.1306M21.7573 34.1306C22 34.1306 24.3775 33.5704 24.4743 33.5704M24.4743 33.5704C24.5517 33.5704 25.5145 34.1773 25.9863 34.4807M24.4743 33.5704L26.3987 32.4501M25.9863 34.4807L27.7732 34.6908M25.9863 34.4807L23.787 35.1809M19.1822 33.5704C19.6633 33.4304 21.4502 32.1 21.6564 32.17C21.6986 32.1844 21.8506 32.2234 22.0688 32.2771M26.3987 32.4501L24.571 32.8702C23.899 32.7139 22.7039 32.4334 22.0688 32.2771M26.3987 32.4501L24.8179 30.9797C24.0161 31.3998 22.3437 32.2475 22.0688 32.2771" stroke="url(#paint7_radial_192_882)" stroke-width="0.2"/>
<path d="M35.5198 44.0727L36.0025 41.5378L34.4179 40.6557M35.5198 44.0727L35.5 45.6764L34 48.2234M35.5198 44.0727L34.3315 43.9259M32.6358 51.8693C33.0554 51.274 34.1725 50.3196 34.3315 50.0911C34.3315 49.8875 34.1743 48.9123 34 48.2234M32.6358 51.8693L33.561 50.5709L33.1431 47.7806M32.6358 51.8693L32.7566 51.0996M32.6358 51.8693L29.3864 52.6159L27.0172 50.8536M33.1431 47.7806C32.8101 47.3228 32.6387 46.662 32.6358 46.55M33.1431 47.7806C33.192 46.9202 33.2833 45.1717 33.2573 45.0608M32.6358 46.55C32.6328 46.438 32.4104 44.9685 32.2996 44.2477M32.6358 46.55C32.3783 47.2108 31.8645 48.5745 31.8689 48.7425C31.8745 48.9525 31.6313 50.15 31.635 50.29C31.638 50.402 32.384 50.8764 32.7566 51.0996M32.2996 44.2477L32.851 41.7109L33.2573 40.0096L34.4179 40.6557M32.2996 44.2477L30.7083 46.463L30.641 46.605M32.7566 51.0996C32.5367 51.1057 31.2154 51.7491 30.5822 52.0701L29.3864 51.0524M28.9109 46.0923C28.9584 45.8108 29.8937 44.2674 30.3555 43.5308L31.9356 40.8956L31.635 40.2223L30.0862 41.1567L28.4225 43.2339L28.2684 45.1994L28.2684 46.4952M28.9109 46.0923C28.8515 46.4441 29.0873 47.5584 28.8237 47.9859C28.56 48.4135 27.8879 48.9923 27.4125 49.2156M28.9109 46.0923L28.2684 46.4952M27.4125 49.2156C27.0322 49.3942 26.3712 49.3706 25.7801 49.5503M27.4125 49.2156C28.17 49.0084 29.6943 48.5795 29.7317 48.5213M25.7801 49.5503L26.3615 48.4741L27.626 46.8982L28.2684 46.4952M25.7801 49.5503L27.0172 50.8536M29.7317 48.5213C29.3356 49.1392 28.5159 50.3759 28.406 50.379C28.296 50.382 27.5835 50.6045 27.0172 50.8536M29.7317 48.5213L30.641 46.605M27.0172 50.8536L29.3864 51.0524M28.2341 45.2003C27.9973 45.347 26.5899 46.7166 26.4525 46.7204M29.3864 51.0524L30.5153 49.5503L30.641 46.605M34 48.2234L33.2573 45.0608M34.4179 40.6557L33.1431 43.7792L34.3315 43.9259M34.3315 43.9259L33.2573 45.0608" stroke="url(#paint8_radial_192_882)" stroke-width="0.2"/>
<path d="M8.49192 36.3217L7.58546 38.0831L5.99205 39.6952M8.49192 36.3217L10.8877 36.3489M8.49192 36.3217L6.43426 37.2713L4.9475 38.2045L3.64149 39.8449L3.48277 42.2242M5.99205 39.6952C5.71536 40.5359 5.15762 42.2693 5.14019 42.478C5.12275 42.6868 5.03384 43.8313 4.99156 44.3775M5.99205 39.6952C5.24492 40.4261 3.69709 41.955 3.48277 42.2242M4.99156 44.3775L5.6636 42.9105L7.19004 41.3826C7.58777 41.2463 8.39661 40.957 8.45019 40.8897M4.99156 44.3775C4.68 44.12 4.03445 43.5866 3.94472 43.5124C3.85499 43.4383 3.59937 42.6227 3.48277 42.2242M4.99156 44.3775L6.2735 43.6237M4.99156 44.3775L7.27354 45.378M8.45019 40.8897C8.50377 40.8224 10.4049 39.2183 10.8008 38.8249M8.45019 40.8897C8.28719 41.4059 7.94109 42.4634 7.86072 42.5644C7.76026 42.6906 7.34052 43.5292 7.27354 43.6133C7.21996 43.6806 6.58452 43.6483 6.2735 43.6237M10.8008 38.8249L11.6698 37.0326L10.8877 36.3489M10.8008 38.8249L10.6599 40.8703L10.6316 40.9864M10.8877 36.3489L11.7382 36.2149M6.2735 43.6237C6.39313 43.7226 6.83071 44.6886 7.03454 45.1592L8.17244 45.0535L8.2401 43.645L10.6316 40.9864M11.7382 36.2149L11.6387 36.7603M11.7382 36.2149L12.1673 36.2209M11.8329 41.4212C11.937 41.2282 12.1316 39.8782 12.216 39.2273L11.4618 37.7299L11.6387 36.7603M11.8329 41.4212C11.7029 41.6624 9.95898 43.0431 9.9076 43.419C9.85622 43.795 9.96219 44.4404 10.1234 44.7829C9.79762 44.3281 9.14751 43.4058 9.15367 43.3539M11.8329 41.4212L10.908 42.7464M11.0526 44.7836L11.079 43.2712L10.908 42.7464M9.15367 43.3539C9.08776 43.9038 8.97091 45.0159 9.03073 45.0654M9.15367 43.3539L10.6316 40.9864M11.6387 36.7603L13.4667 37.8898L13.4302 39.882M13.4302 39.882L12.6047 41.1524L10.908 42.7464M13.4302 39.882L14.3197 40.4776M12.6234 41.1679C12.6873 41.3601 11.7402 43.6085 11.815 43.6703M12.1673 36.2209C12.2602 36.3534 13.8535 37.3262 14.0906 38.1962C14.1598 38.4207 14.2722 39.8107 14.3197 40.4776M12.1673 36.2209L12.9687 35.8371M14.3197 40.4776L13.5614 42.5644M14.3197 40.4776L14.7681 37.5009M12.9687 35.8371C13.1882 36.5996 14.732 37.3594 14.7681 37.5009M12.9687 35.8371L13.5614 35.5598M14.7681 37.5009C14.6936 37.3937 15.2836 37.6501 15.9145 37.9462M14.0458 35.2628C14.1655 35.3616 17.7778 33.3313 18.2683 34.0388L18.3712 34.082M14.0458 35.2628L13.5614 35.5598M14.0458 35.2628C14.6208 35.556 18.3085 32.6435 18.6215 32.8165C18.6685 32.8425 18.6981 32.8598 18.7059 32.8663M13.5614 35.5598C13.6168 35.7394 15.4775 36.3763 15.853 37.0724L15.9145 37.9462M15.9145 37.9462L14.7681 40.2224L15.3339 40.9864M15.0778 34.5116C15.3753 34.5856 18.3655 31.2146 18.7602 31.3189L20.2246 31.1924M19.7291 29.9461L20.9925 30.8506C21.046 30.9944 21.1107 31.1686 21.179 31.3535M20.0461 29.8594C20.3748 29.9915 21.9831 29.9956 22.0618 30.1304C22.0779 30.1579 22.1419 30.2498 22.2349 30.38C22.3986 30.4858 23.7138 30.7284 24.3509 30.8365" stroke="url(#paint9_radial_192_882)" stroke-width="0.2"/>
<defs>
<linearGradient id="paint0_linear_192_882" x1="7.91052" y1="10.3939" x2="30.9025" y2="24.78" gradientUnits="userSpaceOnUse">
<stop stop-color="#A3BE43"/>
<stop offset="1" stop-color="#7B9304"/>
</linearGradient>
<linearGradient id="paint1_linear_192_882" x1="3.23698" y1="39.5221" x2="15.6244" y2="27.5693" gradientUnits="userSpaceOnUse">
<stop stop-color="#A3BE43"/>
<stop offset="1" stop-color="#7B9304"/>
</linearGradient>
<linearGradient id="paint2_linear_192_882" x1="43.5121" y1="21.1014" x2="43.5121" y2="37.9172" gradientUnits="userSpaceOnUse">
<stop stop-color="#FBAA2A"/>
<stop offset="1" stop-color="#F65300"/>
</linearGradient>
<linearGradient id="paint3_linear_192_882" x1="43.5121" y1="20.2667" x2="43.5121" y2="37.6316" gradientUnits="userSpaceOnUse">
<stop stop-color="#FBAA2A"/>
<stop offset="1" stop-color="#F65300"/>
</linearGradient>
<radialGradient id="paint4_radial_192_882" cx="0" cy="0" r="1" gradientUnits="userSpaceOnUse" gradientTransform="translate(15.8831 40.6425) rotate(38.3601) scale(10.6056 12.5112)">
<stop stop-color="#F4B77A"/>
<stop offset="1" stop-color="#FE8E17"/>
</radialGradient>
<radialGradient id="paint5_radial_192_882" cx="0" cy="0" r="1" gradientUnits="userSpaceOnUse" gradientTransform="translate(14.0962 34.6908) rotate(65.4195) scale(7.93075 9.20249)">
<stop stop-color="#F4B77A"/>
<stop offset="1" stop-color="#FE8E17"/>
</radialGradient>
<radialGradient id="paint6_radial_192_882" cx="0" cy="0" r="1" gradientUnits="userSpaceOnUse" gradientTransform="translate(30.0412 39.3121) rotate(101.29) scale(8.42539 9.72681)">
<stop stop-color="#F4B77A"/>
<stop offset="1" stop-color="#FE8E17"/>
</radialGradient>
<radialGradient id="paint7_radial_192_882" cx="0" cy="0" r="1" gradientUnits="userSpaceOnUse" gradientTransform="translate(16.1581 40.7125) rotate(28.4062) scale(12.6581 10.0674)">
<stop stop-color="#F9C07D"/>
<stop offset="1" stop-color="#FFA44F"/>
</radialGradient>
<radialGradient id="paint8_radial_192_882" cx="0" cy="0" r="1" gradientUnits="userSpaceOnUse" gradientTransform="translate(32.151 38.6482) rotate(150.029) scale(12.6635 10.063)">
<stop stop-color="#F9C07D"/>
<stop offset="1" stop-color="#FFA44F"/>
</radialGradient>
<radialGradient id="paint9_radial_192_882" cx="0" cy="0" r="1" gradientUnits="userSpaceOnUse" gradientTransform="translate(12.3838 36.2603) rotate(69.7743) scale(9.18889 7.5133)">
<stop stop-color="#F9C07D"/>
<stop offset="1" stop-color="#FFA44F"/>
</radialGradient>
</defs>
</svg>
