<svg width="64" height="64" viewBox="0 0 64 64" fill="none" xmlns="http://www.w3.org/2000/svg">
<path d="M53.7696 9.8138C50.105 6.73947 46.914 6.04445 42.1891 6.18777C35.5538 6.38904 27.2226 14.4858 27.2226 14.4858C27.2226 14.4858 20.5516 21.9039 15.8453 27.0374C11.3707 31.9182 4.66792 33.3944 4.06169 40.0772C3.6952 44.1171 4.97633 46.7367 7.51551 49.8396C12.1511 55.5042 18.4148 53.8863 25.5973 53.4656C34.4143 52.9491 39.8052 50.8155 46.7265 45.1676C52.667 40.3201 56.3128 36.6591 58.307 29.1294L58.3197 29.0812C59.4624 24.7667 60.2214 21.9009 58.9165 17.6237C57.8436 14.1073 56.5447 12.142 53.7696 9.8138Z" fill="url(#paint0_linear_192_881)"/>
<path d="M31.489 25.4336C31.489 25.4336 35.1366 26.7937 37.5163 26.5493C41.5963 26.1302 43.8196 23.951 46.2524 20.5524C48.1056 17.9634 47.2326 15.4093 49.1644 12.882C51.0165 10.4591 55.3949 8.27971 55.3949 8.27971C55.3949 8.27971 51.5633 7.74462 49.3676 8.62836C47.1631 9.51566 45.9971 10.5679 44.6948 12.603C43.3216 14.749 43.6693 17.1356 43.0017 18.9486C42.3342 20.7616 41.0822 22.1621 39.2093 23.4811C36.6468 25.2859 33.9947 24.8758 31.489 25.4336Z" fill="url(#paint1_linear_192_881)"/>
<path d="M55.3949 8.27971C55.3949 8.27971 50.6932 5.61158 47.5391 6.04831C44.5221 6.46606 42.8916 7.77827 40.7669 10.023C37.7744 13.1845 39.3898 17.0566 36.7713 20.5524C35.0786 22.8124 31.489 25.4336 31.489 25.4336C33.9947 24.8758 36.6468 25.2859 39.2093 23.4811C41.0822 22.1621 42.3342 20.7616 43.0017 18.9486C43.6693 17.1356 43.3216 14.749 44.6948 12.603C45.9971 10.5679 47.1631 9.51566 49.3676 8.62836C51.5633 7.74462 55.3949 8.27971 55.3949 8.27971Z" fill="url(#paint2_linear_192_881)"/>
<path d="M55.3271 8.00079C53.8924 9.09352 53.2051 10.4181 52.415 11.6268V12.3939C52.415 12.3939 54.7346 10.6513 56.3429 9.74407C57.7231 8.96548 59.9999 8.00079 59.9999 8.00079L59.5936 6.18777C58.352 6.79211 56.7762 6.89707 55.3271 8.00079Z" fill="#965C17"/>
<path d="M56.8848 20.6919C56.8848 23.1325 55.1868 30.3148 53.0923 30.3148C50.9978 30.3148 53.0923 23.5509 51.2638 20.2038C51.2638 18.0471 50.9978 15.0437 53.0923 15.0437C55.1868 15.0437 56.2075 16.3686 56.8848 20.6919Z" fill="#FAA5A8"/>
<path d="M21.1276 24.3179C21.1276 24.3179 18.2613 25.1391 17.132 26.5493C15.8629 28.1342 15.8316 29.5856 15.8453 31.6397C15.8586 33.6411 16.1899 34.8399 17.132 36.5906C18.4585 39.0554 20.2265 39.6395 22.4144 41.3323C25.1486 43.448 27.3067 43.7353 29.8638 46.0741C31.5863 47.6495 32.2258 48.8664 33.7916 50.6066C36.0287 53.0928 38.329 55.9062 39.8866 56.3943C41.4442 56.8824 42.8723 58.0529 45.0335 57.9981C47.5771 57.9336 49.5031 56.6035 51.1285 55.9062L50.5867 51.6526L21.1276 24.3179Z" fill="url(#paint3_linear_192_881)"/>
<path d="M26.5454 19.2275L22.4821 23.8995L17.6061 26.3401L21.2631 21.9471L26.5454 19.2275Z" fill="#FFE32C"/>
<path d="M19.0282 27.2466L17.1997 26.7585L15.7776 31.5002C16.2516 33.1738 17.1997 36.4372 17.1997 36.1025C17.1997 35.7678 18.4187 30.0591 19.0282 27.2466Z" fill="#FFE465"/>
<path d="M21.2631 29.1294L26.2068 34.429L22.4821 41.2626L17.6061 36.5906L17.8453 36.1025L21.2631 29.1294Z" fill="#FFC000"/>
<path d="M29.2543 36.1025L34.198 42.2389L29.8638 45.7952L24.0397 41.8902L25.0449 40.7745L29.2543 36.1025Z" fill="#FFD700"/>
<path d="M35.9587 43.773L40.4961 49.7699L35.9587 52.6986L31.76 47.8174L35.9587 43.773Z" fill="#FFC900"/>
<path d="M40.9024 50.1882L44.5594 57.789L39.9543 56.2549L36.2296 52.9775L40.9024 50.1882Z" fill="#FFB800"/>
<path d="M49.774 47.8174C47.9681 48.5844 44.2614 50.1325 43.8822 50.1882L44.9657 57.789L51.0607 55.4878L50.6396 52.9775L49.774 47.8174Z" fill="#FFC500"/>
<path d="M42.0537 41.2626L46.5234 38.055L48.9613 44.6097L47.4037 45.5934L47.0843 45.7952L43.8822 47.8174L42.0537 41.2626Z" fill="#FFB600"/>
<path d="M40.9024 27.8742L38.1936 29.7741L37.1777 30.4866L36.2296 31.1516L39.9543 37.7063L44.9657 34.0106L40.9024 27.8742Z" fill="#FFD600"/>
<path d="M31.76 20.134L28.577 22.1771L26.5454 23.4811L32.5049 26.7585L36.7714 23.4811L34.2657 21.8076L31.76 20.134Z" fill="#FFDC00"/>
<path d="M35.6878 19.7854L41.3088 23.8995L43.0018 24.3877L38.1936 20.6222L35.6878 19.7854Z" fill="#FEF281"/>
<path d="M43.8822 25.9217H45.9139L50.1126 31.5002H48.2841L43.8822 25.9217Z" fill="#FBE452"/>
<path d="M49.774 36.9393L51.8057 36.1025L53.1601 43.3546H51.0607L49.774 36.9393Z" fill="#FFE201"/>
<path d="M53.1601 46.2833L51.8057 47.8174L50.6396 52.9775L53.1601 48.0963V46.2833Z" fill="#FFD53D"/>
<path d="M19.0282 27.2466C18.4187 30.0591 17.1997 35.7678 17.1997 36.1025H17.8453L21.2631 29.1294H25.665L19.0282 27.2466Z" fill="#FFC700"/>
<path d="M22.4821 23.8995L17.6061 26.3401L17.1997 26.7585L19.0282 27.2466L25.665 29.1294L22.4821 23.8995Z" fill="#FFC200"/>
<path d="M26.5454 19.2275L22.4821 23.8995L25.665 29.1294L26.5454 23.4811L28.577 22.1771L26.5454 19.2275Z" fill="#FFC400"/>
<path d="M26.2068 34.429L22.4821 41.2626L25.0449 40.7745L29.2543 36.1025L31.2859 34.429H26.2068Z" fill="#FF9600"/>
<path d="M21.2631 29.1294L26.2068 34.429H31.2859L25.665 29.1294H21.2631Z" fill="#FFD100"/>
<path d="M32.5049 26.7585L26.5454 23.4811L25.665 29.1294L31.2859 34.429L32.5049 26.7585Z" fill="#FFCA00"/>
<path d="M36.7714 23.4811L32.5049 26.7585L31.2859 34.429L36.2296 31.1516L37.1777 30.4866L36.7714 23.4811Z" fill="#FF9700"/>
<path d="M41.3088 23.8995L35.6878 19.7854L34.2657 21.8076L36.7714 23.4811L37.1777 30.4866L38.1936 29.7741L41.3088 23.8995Z" fill="#FFCD00"/>
<path d="M43.0018 24.3877L41.3088 23.8995L38.1936 29.7741L40.9024 27.8742L43.0018 24.3877Z" fill="#FFB900"/>
<path d="M29.2543 36.1025L34.198 42.2389L36.2296 40.7745L31.2859 34.429L29.2543 36.1025Z" fill="#FFA700"/>
<path d="M39.9543 37.7063L36.2296 31.1516L31.2859 34.429L36.2296 40.7745L39.9543 37.7063Z" fill="#FFC900"/>
<path d="M44.9657 34.0106L39.9543 37.7063L36.2296 40.7745L42.0537 37.3577L44.9657 34.0106Z" fill="#FFAC00"/>
<path d="M40.9024 27.8742L44.9657 34.0106L42.0537 37.3577L44.9657 36.5209L48.2841 31.5002L43.8822 25.9217L40.9024 27.8742Z" fill="#FFC000"/>
<path d="M50.1126 31.5002H48.2841L44.9657 36.5209L46.5234 36.1025L50.1126 31.5002Z" fill="#FFB100"/>
<path d="M34.198 42.2389L29.8638 45.7952L31.76 45.3768L36.2296 40.7745L34.198 42.2389Z" fill="#E56700"/>
<path d="M31.76 47.8174L35.9587 43.773L36.2296 40.7745L31.76 45.3768V47.8174Z" fill="#FF9C00"/>
<path d="M35.9587 43.773L40.4961 49.7699L40.9024 48.7936L36.2296 40.7745L35.9587 43.773Z" fill="#FF9300"/>
<path d="M43.8822 47.8174L42.0537 41.2626L36.2296 40.7745L40.9024 48.7936L43.8822 47.8174Z" fill="#FFB400"/>
<path d="M42.0537 41.2626L46.5234 38.055L42.0537 37.3577L36.2296 40.7745L42.0537 41.2626Z" fill="#FF8300"/>
<path d="M46.5234 38.055L48.9613 44.6097L51.0607 43.3546L49.774 36.9393L44.9657 36.5209L42.0537 37.3577L46.5234 38.055Z" fill="#FFBA00"/>
<path d="M49.774 36.9393L51.8057 36.1025H46.5234L44.9657 36.5209L49.774 36.9393Z" fill="#FFCF00"/>
<path d="M40.4961 49.7699L35.9587 52.6986L36.2296 52.9775L40.9024 50.1882V48.7936L40.4961 49.7699Z" fill="#D87300"/>
<path d="M40.9024 50.1882L44.5594 57.789H44.9657L40.9024 48.7936V50.1882Z" fill="#A94E00"/>
<path d="M44.9657 57.789L43.8822 50.1882L40.9024 48.7936L44.9657 57.789Z" fill="#FF9300"/>
<path d="M43.8822 50.1882C44.2614 50.1325 47.9681 48.5844 49.774 47.8174L47.0843 45.7952L43.8822 47.8174L40.9024 48.7936L43.8822 50.1882Z" fill="#FF8E00"/>
<path d="M49.774 47.8174L50.6396 52.9775L51.8057 47.8174L47.4037 45.5934L47.0843 45.7952L49.774 47.8174Z" fill="#FFA100"/>
<path d="M51.8057 47.8174L53.1601 46.2833L50.1126 44.2656L48.9613 44.6097L47.4037 45.5934L51.8057 47.8174Z" fill="#FFB000"/>
<path d="M53.1601 43.3546H51.0607L48.9613 44.6097L50.1126 44.2656L53.1601 43.3546Z" fill="#FEAF03"/>
<defs>
<linearGradient id="paint0_linear_192_881" x1="54.8531" y1="11.6965" x2="6.25877" y2="46.8739" gradientUnits="userSpaceOnUse">
<stop stop-color="#AD1F16"/>
<stop offset="0.596552" stop-color="#EA2A22"/>
<stop offset="1" stop-color="#CE5201"/>
</linearGradient>
<linearGradient id="paint1_linear_192_881" x1="54.9885" y1="8.4889" x2="31.5745" y2="24.923" gradientUnits="userSpaceOnUse">
<stop stop-color="#3C4E19"/>
<stop offset="1" stop-color="#587126"/>
</linearGradient>
<linearGradient id="paint2_linear_192_881" x1="54.8531" y1="8.07051" x2="31.0902" y2="24.8424" gradientUnits="userSpaceOnUse">
<stop stop-color="#446605"/>
<stop offset="1" stop-color="#597A0F"/>
</linearGradient>
<linearGradient id="paint3_linear_192_881" x1="18.4865" y1="25.7125" x2="51.9217" y2="55.2814" gradientUnits="userSpaceOnUse">
<stop stop-color="#C53702"/>
<stop offset="1" stop-color="#102D10"/>
</linearGradient>
</defs>
</svg>
