<svg width="64" height="64" viewBox="0 0 64 64" fill="none" xmlns="http://www.w3.org/2000/svg">
<path d="M61.421 29.7974C61.421 42.6288 50.9842 53.5291 38.1099 53.5291C25.2355 53.5291 14.7988 43.1271 14.7988 30.2957C14.7988 17.4642 24.3653 7 37.2396 7C50.114 7 61.421 16.9659 61.421 29.7974Z" fill="url(#paint0_radial_192_915)"/>
<path d="M61.2347 25.6864C61.1153 25.7625 61.2969 25.9148 61.0482 25.9978C61.0068 26.1016 60.9239 26.3217 60.9239 26.3715C60.9239 26.4027 60.9861 26.465 61.0482 26.5273C61.1104 26.5896 61.1725 26.6518 61.1725 26.683C61.1725 26.7328 61.0897 27.036 61.0482 27.1813C61.4239 27.1025 61.8632 27.236 61.9807 26.8699C62.0252 26.7309 61.9807 26.4961 61.9807 26.4961C61.9185 26.4754 61.7818 26.4214 61.732 26.3715C61.6823 26.3217 61.7942 26.1016 61.8563 25.9978C61.9185 25.894 61.4637 25.5404 61.2347 25.6864Z" fill="#9E8645"/>
<path d="M57.0076 24.8766C56.7176 24.586 56.1125 24.0046 56.013 24.0046C55.9136 24.0046 55.4773 24.5938 55.3293 25.0635C55.1611 25.597 55.1611 25.9626 55.3293 26.4961C55.3515 26.5668 55.3747 26.648 55.3992 26.7338C55.5376 27.2188 55.7182 27.8514 56.013 27.555C56.0913 27.4764 56.1048 27.3879 56.1188 27.2967C56.131 27.2172 56.1435 27.1356 56.1995 27.0567C56.4197 26.7464 56.6914 26.6557 57.0698 26.6207C57.3328 26.5964 57.5094 26.6958 57.7009 26.8036C57.8268 26.8745 57.9591 26.949 58.1266 26.9944C58.7199 27.1553 59.0668 27.2131 59.6806 27.2436L59.7417 27.2466C60.239 27.2715 60.5452 27.2868 61.0482 27.1813C61.0897 27.036 61.1725 26.7328 61.1725 26.683C61.1725 26.6518 61.1104 26.5896 61.0482 26.5273C60.9861 26.465 60.9239 26.4027 60.9239 26.3715C60.9239 26.3217 61.0068 26.1016 61.0482 25.9978C60.9735 26.0228 60.8987 26.0553 60.8222 26.0885C60.6444 26.1658 60.4574 26.247 60.2401 26.247C60.0228 26.247 59.5724 26.1454 59.144 26.0489C58.9598 26.0074 58.7797 25.9668 58.6239 25.9355C58.1059 25.8317 57.0076 24.8766 57.0076 24.8766Z" fill="url(#paint1_linear_192_915)"/>
<path d="M47.3097 43.7499C47.9082 42.4244 48.6152 40.2617 48.6152 40.2617C48.6152 40.2617 48.5103 40.1044 48.3447 39.888C48.3447 39.888 47.5466 42.2828 46.8746 43.7499C45.7527 46.1991 45.1891 47.7186 43.3313 49.6672C41.5314 51.5551 40.0831 52.1482 37.7988 53.4045C35.3677 54.7415 33.9818 55.618 31.2717 56.2074C27.3975 57.0501 24.9908 56.5254 21.1392 55.5846C17.5468 54.707 15.5451 53.8534 12.4364 51.8473C10.0322 50.2958 8.6113 49.3643 6.84175 47.1134C5.06146 44.8488 4.48694 43.2355 3.54712 40.5109C2.75835 38.2242 2.17954 34.469 2.17954 34.469C1.48012 36.8482 3.04982 40.76 3.04982 40.76C3.04982 40.76 4.76536 45.1483 6.5931 47.4871C8.33081 49.7107 9.60368 50.7645 11.9391 52.3456C15.1668 54.5308 17.3337 55.374 21.1392 56.2074C25.0068 57.0545 27.3945 57.3204 31.2717 56.5189C33.9432 55.9666 35.4001 55.3285 37.7988 54.0274C40.3181 52.6609 41.7807 51.7943 43.7043 49.6672C45.5187 47.6609 46.1959 46.2166 47.3097 43.7499Z" fill="#DCB054"/>
<path d="M47.3097 38.8291C46.3773 38.2091 44.5124 38.2062 44.5124 38.2062C44.5124 38.2062 43.5593 40.1787 42.3367 40.5109C41.1142 40.8431 38.607 41.5075 38.3583 41.5075C38.0475 41.5075 37.3123 41.9025 36.6177 42.0681C35.0797 42.4347 33.7583 42.2342 32.5772 42.3172C32.5772 42.3172 31.8214 42.4202 31.3339 42.4418C30.9459 42.459 30.7216 42.3729 30.3393 42.4418C29.9841 42.5058 29.842 42.8571 29.469 42.7532C29.096 42.6494 28.6217 42.3543 28.0393 42.3172C27.6005 42.2893 27.169 42.4418 26.9203 42.4418C26.6717 42.4418 26.499 42.0952 26.1744 42.0681C25.7836 42.0354 25.6295 42.502 25.2419 42.4418C24.8175 42.3759 24.5333 41.7442 24.4338 41.6944C24.3344 41.6445 23.5221 41.549 23.1284 41.5075C22.7347 41.466 18.5098 40.1751 16.2905 38.2062C14.2891 36.4306 12.4364 32.538 12.4364 32.538C12.4364 32.538 10.613 32.1643 9.7634 32.102C8.91385 32.0397 7.14013 31.9027 6.84175 31.8529C6.54337 31.803 5.3084 32.2889 4.72822 32.538C4.14803 32.7872 3.62528 32.2236 3.04982 32.538C2.32485 32.9341 2.41286 33.6753 2.17954 34.469C2.17954 34.469 2.75835 38.2242 3.54712 40.5109C4.48694 43.2355 5.06146 44.8488 6.84175 47.1134C8.6113 49.3643 10.0322 50.2958 12.4364 51.8473C15.5451 53.8534 17.5468 54.707 21.1392 55.5846C24.9908 56.5254 27.3975 57.0501 31.2717 56.2074C33.9818 55.618 35.3677 54.7415 37.7988 53.4045C40.0831 52.1482 41.5314 51.5551 43.3313 49.6672C45.1891 47.7186 45.7527 46.1991 46.8746 43.7499C47.5466 42.2828 48.3447 39.888 48.3447 39.888C48.09 39.5552 47.6915 39.0829 47.3097 38.8291Z" fill="url(#paint2_radial_192_915)"/>
<path d="M12.4364 32.538C12.4364 32.538 14.2891 36.4306 16.2905 38.2062C18.5098 40.1751 22.7347 41.466 23.1284 41.5075C23.5221 41.549 24.3344 41.6445 24.4338 41.6944C24.5333 41.7442 24.8175 42.3759 25.2419 42.4418C25.6295 42.502 25.7836 42.0354 26.1744 42.0681C26.499 42.0952 26.6717 42.4418 26.9203 42.4418C27.169 42.4418 27.6005 42.2893 28.0393 42.3172C28.6217 42.3543 29.096 42.6494 29.469 42.7532C29.842 42.8571 29.9841 42.5058 30.3393 42.4418C30.7216 42.3729 30.9459 42.459 31.3339 42.4418C31.8214 42.4202 32.5772 42.3172 32.5772 42.3172C33.7583 42.2342 35.0797 42.4347 36.6177 42.0681C37.3123 41.9025 38.0475 41.5075 38.3583 41.5075C38.607 41.5075 41.1142 40.8431 42.3367 40.5109C43.5593 40.1787 44.5124 38.2062 44.5124 38.2062C44.5124 38.2062 43.7465 38.0049 43.3313 38.2062C42.8943 38.4182 43.0651 39.1276 42.5854 39.2028C42.2201 39.2601 42.0744 38.7415 41.7151 38.8291C41.4792 38.8866 41.4494 39.13 41.2178 39.2028C41.0093 39.2684 40.8749 39.1742 40.6583 39.2028C40.0878 39.2782 39.9282 39.8738 39.3529 39.888C39.0291 39.896 38.8683 39.6863 38.5448 39.7011C38.0568 39.7235 37.8444 40.5143 37.4259 40.2617C37.2634 40.1637 37.2868 39.9684 37.115 39.888C36.8369 39.7577 36.6727 40.0913 36.3691 40.1372C36.105 40.177 35.9519 40.1222 35.6853 40.1372C35.3185 40.1577 35.1157 40.3196 34.7529 40.2617C34.4096 40.2069 34.2846 39.815 33.9447 39.888C33.7074 39.939 33.6873 40.2245 33.4474 40.2617C33.2496 40.2924 33.148 40.1065 32.9501 40.1372C32.6092 40.1899 32.6771 40.6296 32.3907 40.8223C31.7629 41.2446 31.0246 41.1434 30.4636 40.6355C30.2835 40.4724 30.3257 40.1979 30.0906 40.1372C29.7896 40.0593 29.7789 40.6602 29.469 40.6355C29.227 40.6162 29.2039 40.3327 28.9717 40.2617C28.6113 40.1515 28.4084 40.587 28.0393 40.5109C27.8266 40.467 27.7467 40.3341 27.542 40.2617C27.3085 40.1792 27.154 40.2192 26.9203 40.1372C26.6021 40.0254 26.5102 39.732 26.1744 39.7011C25.7742 39.6644 25.6222 40.0069 25.2419 40.1372C24.0934 40.5305 23.1599 40.7869 22.1338 40.1372C21.6547 39.8338 21.6441 39.3362 21.1392 39.0783C20.6376 38.822 19.5851 39.1198 19.7095 38.8914C19.8338 38.663 20.0078 38.2062 19.7095 38.2062C19.4111 38.2062 18.5905 37.9156 18.2175 37.7702C18.2175 37.7702 18.0932 37.2719 17.9067 37.2719H17.2851C17.2354 37.2719 17.0986 36.5245 17.0986 36.5245C17.0986 36.5245 16.7337 36.461 16.5392 36.3376C16.1978 36.121 16.104 35.4656 15.9797 35.4656C15.8554 35.4656 15.2903 35.4002 15.0472 35.0918C14.8318 34.8185 14.9229 34.4482 14.8608 34.2198C14.7986 33.9914 14.0692 33.8986 13.6175 33.5969C13.1025 33.2529 12.4364 32.538 12.4364 32.538Z" fill="#F6E297"/>
<defs>
<radialGradient id="paint0_radial_192_915" cx="0" cy="0" r="1" gradientUnits="userSpaceOnUse" gradientTransform="translate(37.1153 6.93771) rotate(95.872) scale(32.811 32.878)">
<stop stop-color="#FEF26E"/>
<stop offset="1" stop-color="#EBB04E"/>
</radialGradient>
<linearGradient id="paint1_linear_192_915" x1="59.1212" y1="25.0012" x2="58.5998" y2="27.6306" gradientUnits="userSpaceOnUse">
<stop stop-color="#D69D45"/>
<stop offset="1" stop-color="#7E3B07"/>
</linearGradient>
<radialGradient id="paint2_radial_192_915" cx="0" cy="0" r="1" gradientUnits="userSpaceOnUse" gradientTransform="translate(23.9365 42.2549) rotate(102.071) scale(13.3762 24.7963)">
<stop stop-color="#FCEEB4"/>
<stop offset="1" stop-color="#EEE59E"/>
</radialGradient>
</defs>
</svg>
