<svg width="64" height="64" viewBox="0 0 64 64" fill="none" xmlns="http://www.w3.org/2000/svg">
<path fill-rule="evenodd" clip-rule="evenodd" d="M5.84079 46.1692L4.93262 45.8107L6.95854 48.1052L7.37769 48.5354L8.35573 48.8222L9.40362 49.4675L10.1022 49.3958C10.3816 49.6587 10.9685 50.1989 11.0802 50.2562C11.192 50.3136 11.6391 50.2801 11.8487 50.2562L11.9884 49.9407L12.0932 49.7041L12.198 49.4675H12.687H13.665L9.89263 47.5316L5.84079 46.1692Z" fill="#987356"/>
<path d="M16.1101 52.479L15.1321 53.1243L14.7633 52.9167M7.37769 48.5354L6.95854 48.1052L4.93262 45.8107L5.84079 46.1692L9.89263 47.5316L13.665 49.4675H12.687M7.37769 48.5354L8.70502 49.8977L10.8008 50.4493M7.37769 48.5354L8.35573 48.8222L9.40362 49.4675L10.1022 49.3958C10.3816 49.6587 10.9685 50.1989 11.0802 50.2562C11.192 50.3136 11.6391 50.2801 11.8487 50.2562L11.9884 49.9407M11.9884 49.9407L13.2459 50.9733L14.0143 52.0488L15.3417 51.9054L16.3896 52.479M11.9884 49.9407L12.0932 49.7041M12.687 49.4675H12.198L12.0932 49.7041M12.687 49.4675L14.0842 50.543L14.534 51.1779M16.7388 52.479L15.9005 51.8337L14.6431 51.3318L14.534 51.1779M10.8008 50.4493L11.4295 50.6147L12.9664 51.9054L13.7662 52.3555M10.8008 50.4493C10.9126 50.4787 11.7788 50.524 12.198 50.543L13.4555 51.8337L13.7662 52.3555M15.3417 52.6941L14.7633 52.9167M12.0932 49.7041L13.665 50.4493L14.0842 51.3318L14.534 51.1779M16.5293 51.6186L15.1321 50.9733L14.534 51.1779M13.7662 52.3555L14.7633 52.9167M13.7662 52.3555L14.2239 53.1243L14.7633 52.9167" stroke="#39231B" stroke-width="0.3"/>
<path d="M40.2393 35.3181C40.2393 35.3181 44.3859 28.26 41.0784 22.4356C37.771 16.6111 30.8185 13.3273 30.8185 13.3273C30.8185 13.3273 30.5402 12.2455 30.6721 11.5701C30.8446 10.686 31.8899 9.62879 31.8899 9.62879C31.5682 8.89357 31.271 8.64154 30.5383 8.46012C30.5383 8.46012 28.8285 10.1778 27.867 11.398C27.4433 11.9357 26.8244 12.809 26.8244 12.809C26.8244 12.809 20.1908 11.8466 15.1722 16.3422C10.1536 20.8379 10.3783 27.6731 10.3783 27.6731L12.7557 28.2818L15.1332 28.8905L17.9862 29.6209L19.8488 30.0978L21.9803 30.6435L24.0042 31.1616L26.7583 31.8667L29.5125 32.5719L32.8216 33.419L35.0088 33.979L37.6241 34.6486L40.2393 35.3181Z" fill="url(#paint0_radial_185_165)"/>
<path d="M17.9862 29.6209C17.9862 29.6209 16.3152 24.3322 17.3334 21.2053C18.5697 17.4083 24.6194 14.1934 24.6194 14.1934M17.9862 29.6209L19.8488 30.0978M17.9862 29.6209L15.1332 28.8905M19.8488 30.0978C19.8488 30.0978 18.6991 24.9041 19.675 21.8365C20.8836 18.0375 26.3813 14.264 26.3813 14.264M19.8488 30.0978L21.9803 30.6435M21.9803 30.6435C22.0609 27.9873 21.5026 25.39 22.4702 22.2669C23.539 18.8171 25.8647 16.9698 27.4378 14.5253M21.9803 30.6435L24.0042 31.1616M35.0088 33.979C35.2425 33.6978 38.2607 28.5204 37.9466 24.738C37.5378 19.8162 30.8156 14.4218 30.8156 14.4218M35.0088 33.979L32.8216 33.419M35.0088 33.979L37.6241 34.6486M32.8216 33.419C32.8216 33.419 35.2905 28.3159 35.0721 24.8617C34.7959 20.4937 29.9813 14.9456 29.9813 14.9456M32.8216 33.419L29.5125 32.5719M24.0042 31.1616C24.2336 28.4321 24.0241 25.9384 24.8945 22.7621C25.7694 19.5698 27.3154 17.5719 28.4249 15.0823M24.0042 31.1616L26.7583 31.8667M29.5125 32.5719C29.5125 32.5719 32.5609 28.4139 32.9429 25.2739C33.4878 20.7946 29.0903 14.4124 29.0903 14.4124M29.5125 32.5719L26.7583 31.8667M26.7583 31.8667C26.7583 31.8667 28.841 26.6756 29.223 23.1545C29.5743 19.9163 28.8421 14.8204 28.8421 14.8204M37.6241 34.6486L40.2393 35.3181C40.2393 35.3181 44.3859 28.26 41.0784 22.4356C37.771 16.6111 30.8185 13.3273 30.8185 13.3273C30.8185 13.3273 30.5402 12.2455 30.6721 11.5701C30.8446 10.686 31.8899 9.62879 31.8899 9.62879C31.5682 8.89357 31.271 8.64154 30.5383 8.46012C30.5383 8.46012 28.8285 10.1778 27.867 11.398C27.4433 11.9357 26.8244 12.809 26.8244 12.809C26.8244 12.809 20.1908 11.8466 15.1722 16.3422C10.1536 20.8379 10.3783 27.6731 10.3783 27.6731L12.7557 28.2818M37.6241 34.6486C37.6241 34.6486 40.6854 28.9295 40.2019 25.0872C39.5461 19.8754 31.9318 14.6457 31.9318 14.6457M15.1332 28.8905C15.1332 28.8905 13.7482 22.8034 15.3823 19.5724C17.2299 15.9192 23.9934 13.83 23.9934 13.83M15.1332 28.8905L12.7557 28.2818M12.7557 28.2818C12.7557 28.2818 12.1967 21.8803 14.2095 18.7118C16.4607 15.168 23.3905 13.368 23.3905 13.368" stroke="url(#paint1_radial_185_165)" stroke-width="0.3"/>
<path d="M49.7128 53.8413L49.4333 54.3432L48.8046 54.4866L48.5252 54.9169L48.106 55.4188H47.8266L47.617 55.9924L47.3725 56.2075C47.3725 56.2075 49.6679 56.0629 50.9004 55.3471C51.8587 54.7905 52.9962 53.4111 52.9962 53.4111H52.7167L52.5071 53.0526L52.1578 53.1243L51.6688 53.0526L51.4592 53.4111H51.2497L50.9702 53.6979L50.5511 53.5545L50.2716 54.0564L49.7128 53.8413Z" fill="url(#paint2_linear_185_165)"/>
<path d="M53.2756 53.6979L52.9962 53.4111C52.9962 53.4111 51.8587 54.7905 50.9004 55.3471C49.6679 56.0629 47.3725 56.2075 47.3725 56.2075L47.128 56.4226H46.5691L46.9882 56.7811L46.8485 57.0679H46.0801L46.8485 57.4264L46.0801 57.7849H46.8485L46.5691 58H47.8266L49.0142 57.4264H50.1319L50.2716 57.6415H51.2497L52.2976 56.566L52.9962 55.4905L52.8564 54.9169L53.1359 54.4866L53.4153 54.0564L53.8345 54.3432V54.0564L54.1139 53.9847L53.8345 53.6979H53.2756Z" fill="url(#paint3_linear_185_165)"/>
<path d="M37.2079 20.8585C37.2079 20.8585 36.8586 23.5832 36.5791 24.8738C36.537 25.0686 36.3533 25.3861 36.0715 25.8059C35.5785 26.5404 34.7854 27.5882 33.9245 28.8407C33.208 29.8831 32.4446 31.0673 31.7682 32.3308C30.6443 34.4305 29.7608 36.749 29.7329 38.999C29.6616 44.7564 31.137 48.7978 35.3915 52.5507C38.2692 55.089 43.8866 56.1277 46.08 56.448C46.6495 56.5312 46.9882 56.5659 46.9882 56.5659L47.5296 56.3241L48.071 56.0822L49.1538 55.5984L49.7826 55.3175L50.6907 54.9117L51.8085 54.4124L52.3674 54.1627L52.9262 53.913C52.9262 53.913 53.2025 53.7063 53.653 53.3394C55.3088 51.9904 59.3183 48.4751 60.6108 45.0937C62.3344 40.5841 62.5877 37.0881 60.6108 32.6893C59.6857 30.6311 58.5648 29.2097 57.1877 28.0414C55.9783 27.0154 54.5715 26.1844 52.9262 25.2886C52.6757 25.1521 52.4195 25.0142 52.1578 24.8738C50.8064 24.1492 49.546 23.9517 48.3155 23.7949C47.3522 23.6721 46.4072 23.5741 45.4513 23.2676C44.8072 23.0611 44.1582 22.7599 43.4952 22.2925C42.0001 21.2386 40.142 18.9943 40.142 18.9943L37.6969 16.8432C37.6969 16.8432 36.6097 16.738 36.7189 17.13C36.7719 17.3204 37.0682 17.4885 37.0682 17.4885C37.0682 17.4885 35.452 17.1866 35.7408 17.6319C35.805 17.7308 35.9504 17.847 35.9504 17.847C35.9504 17.847 35.3819 18.0343 35.2518 18.349C35.1559 18.5809 35.2518 18.9943 35.2518 18.9943C35.2518 18.9943 34.9852 18.9334 34.8327 18.9943C34.4187 19.1594 35.0422 20.1415 35.0422 20.1415L35.6011 20.3566V20.8585H37.2079Z" fill="url(#paint4_radial_185_165)"/>
<path d="M46.9882 56.5659L47.5296 56.3241M46.9882 56.5659C46.9882 56.5659 39.1407 53.3689 36.0715 49.1807C33.3085 45.4103 32.322 42.4956 32.178 37.7801C32.0903 34.9087 33.2811 30.8513 33.7444 29.391M46.9882 56.5659C46.9882 56.5659 46.6495 56.5312 46.08 56.448M52.9262 53.913L52.3674 54.1627M52.9262 53.913C52.9262 53.913 55.8269 48.5353 56.3493 44.7352C57.0161 39.8846 56.4617 36.8116 54.533 32.3308C53.1096 29.0241 49.6185 25.0415 48.595 24.0348M52.9262 53.913C52.9262 53.913 57.3377 48.7982 58.3054 44.7352C59.2132 40.9236 58.8771 38.4866 57.8862 34.6969C57.0239 31.3987 54.257 27.2058 53.2755 25.7849M52.9262 53.913C52.9262 53.913 53.2025 53.7063 53.653 53.3394M49.1538 55.5984C49.1538 55.5984 44.468 50.8624 42.2377 47.2447C39.4773 42.767 37.6829 39.9732 37.2079 34.6969C36.8769 31.0205 38.116 25.8059 38.2558 25.304C38.3599 24.9298 38.0176 23.8783 37.8366 23.3672C37.7748 23.1927 37.7318 23.0813 37.7318 23.0813M49.1538 55.5984L48.071 56.0822M49.1538 55.5984L49.7826 55.3175M48.071 56.0822C48.071 56.0822 42.3591 51.8903 39.8625 48.1768C36.8337 43.6717 35.5013 40.4514 35.2518 34.9837C35.0574 30.7222 37.2097 24.5223 37.6529 23.2964M48.071 56.0822L47.5296 56.3241M47.5296 56.3241C47.5296 56.3241 40.5392 52.3175 37.6969 48.1768C34.9878 44.2303 33.7678 41.3848 33.5752 36.5612C33.4358 33.0711 35.1557 28.189 35.8178 26.4512M46.08 56.448C43.8866 56.1277 38.2692 55.089 35.3915 52.5507C31.137 48.7978 29.6616 44.7564 29.7329 38.999C29.7608 36.749 30.6443 34.4305 31.7682 32.3308C32.4446 31.0673 33.208 29.8831 33.9245 28.8407C34.7854 27.5882 35.5785 26.5404 36.0715 25.8059C36.3533 25.3861 36.537 25.0686 36.5791 24.8738C36.8586 23.5832 37.2079 20.8585 37.2079 20.8585H35.6011V20.3566L35.0422 20.1415C35.0422 20.1415 34.4187 19.1594 34.8327 18.9943C34.9852 18.9334 35.2518 18.9943 35.2518 18.9943C35.2518 18.9943 35.1559 18.5809 35.2518 18.349C35.3819 18.0343 35.9504 17.847 35.9504 17.847C35.9504 17.847 35.805 17.7308 35.7408 17.6319C35.452 17.1866 37.0682 17.4885 37.0682 17.4885C37.0682 17.4885 36.7719 17.3204 36.7189 17.13C36.6097 16.738 37.6969 16.8432 37.6969 16.8432L40.142 18.9943C40.142 18.9943 42.0001 21.2386 43.4952 22.2925C44.1582 22.7599 44.8072 23.0611 45.4513 23.2676C46.4072 23.5741 47.3522 23.6721 48.3155 23.7949C49.546 23.9517 50.8064 24.1492 52.1578 24.8738C52.4196 25.0142 52.6757 25.1521 52.9262 25.2886C54.5715 26.1844 55.9784 27.0154 57.1877 28.0413C58.5648 29.2097 59.6857 30.6311 60.6108 32.6893C62.5877 37.0881 62.3344 40.5841 60.6108 45.0937C59.3183 48.4751 55.3088 51.9904 53.653 53.3394M46.08 56.448C46.08 56.448 37.6748 54.2906 34.4834 50.1845C31.8362 46.7786 31.178 43.9932 30.9205 39.6443C30.7877 37.4007 31.3802 34.1972 31.6455 32.9044M39.0941 23.0813C39.0941 23.0813 39.5871 29.8581 40.631 34.0516C41.8048 38.7673 43.0864 41.2287 45.0321 45.6673C46.7201 49.5178 49.7826 55.3175 49.7826 55.3175M49.7826 55.3175L50.6907 54.9117M39.8625 23.5832C39.8625 23.5832 43.0177 28.7617 44.5431 32.3308C46.5817 37.1006 46.9842 40.0676 48.3155 45.0937C49.3253 48.9059 50.6907 54.9117 50.6907 54.9117M50.6907 54.9117L51.8085 54.4124M40.631 21.4321C41.3016 21.7189 45.9462 26.9601 48.071 31.327C50.4819 36.2818 50.7219 39.5979 51.3893 45.0937C51.8283 48.7088 51.8085 54.4124 51.8085 54.4124M51.8085 54.4124L52.3674 54.1627M52.3674 54.1627C52.3674 54.1627 53.668 49.828 53.9043 46.9579C54.3393 41.6736 53.6937 38.4873 51.8085 33.5497C50.392 29.8399 47.0826 25.1867 45.8822 23.7266M53.653 53.3394C53.653 53.3394 59.493 47.9378 59.6327 45.0937C59.7724 42.2495 60.5476 39.6849 60.0519 36.2744C59.5845 33.0589 58.2757 30.9035 57.3274 28.4178" stroke="url(#paint5_radial_185_165)" stroke-width="0.3"/>
<path d="M25.9604 43.4446C20.2319 49.611 11.22 48.1052 11.22 48.1052L10.9406 48.2486V47.8901L10.0324 48.392C10.5913 48.392 15.8412 51.2032 19.6731 50.6865C23.2779 50.2004 27.9863 46.3844 27.9863 46.3844C27.9863 46.3844 31.3224 43.1154 32.1779 40.3614C33.3118 36.7112 32.979 33.9382 31.13 30.61C30.3427 29.1929 29.5679 28.6322 28.5452 27.3834C27.9226 26.6232 26.9384 25.4475 26.9384 25.4475C26.9384 25.4475 27.0978 25.1075 27.148 24.8739C27.2602 24.3515 27.0244 24.0463 27.0083 23.5116C27.0015 23.2876 27.0083 22.9379 27.0083 22.9379L25.4714 24.372C25.4714 24.372 25.4875 23.7008 25.6111 23.2964C25.761 22.806 26.2398 22.1492 26.2398 22.1492C26.2398 22.1492 25.7509 22.418 25.4714 22.2926C24.9938 22.0784 25.6111 20.9303 25.6111 20.9303L25.0522 20.3567C25.0522 20.3567 24.5632 20.1177 24.0043 20.5718C23.4455 21.0259 22.2998 21.9341 22.188 21.9341C22.0762 21.9341 19.3936 22.2926 19.3936 22.2926C19.3936 22.2926 17.1138 21.7998 15.6911 22.0775C14.6584 22.2791 13.2879 23.027 13.1761 23.0624C16.5633 21.9535 21.8387 22.9379 21.8387 22.9379L24.4933 20.6435L25.2618 20.9303L24.7728 25.0173C24.7728 25.0173 30.5711 28.9609 30.7108 31.7572C30.7871 33.2847 31.0719 34.7908 30.381 36.8481C29.807 38.5571 28.5598 40.6465 25.9604 43.4446Z" fill="url(#paint6_linear_185_165)"/>
<path d="M11.22 48.1052C11.22 48.1052 20.2319 49.611 25.9604 43.4446C28.5598 40.6465 29.807 38.5571 30.381 36.8481C31.0719 34.7908 30.7871 33.2847 30.7108 31.7572C30.5711 28.9609 24.7728 25.0173 24.7728 25.0173L25.2618 20.9303L24.4933 20.6435L21.8387 22.9379C21.8387 22.9379 16.5633 21.9535 13.1761 23.0624C12.9068 23.1506 12.6495 23.252 12.4077 23.3681C9.12424 24.9456 6.88877 26.0928 3.18622 32.6177C-0.51633 39.1425 5.6313 45.1655 5.6313 45.1655C5.72444 45.763 5.92471 46.958 5.98059 46.958H6.67919L6.88877 47.3165H7.5175L7.58736 47.7467L8.21609 47.6033L8.28595 48.1052L8.91469 47.9618C8.98455 48.0335 9.12426 48.1913 9.12426 48.2486C9.12426 48.306 9.72971 47.9379 10.0324 47.7467V48.392L10.9406 47.8901V48.2486L11.22 48.1052Z" fill="url(#paint7_radial_185_165)"/>
<defs>
<radialGradient id="paint0_radial_185_165" cx="0" cy="0" r="1" gradientUnits="userSpaceOnUse" gradientTransform="translate(31.1878 17.3822) rotate(123.792) scale(16.745 16.4796)">
<stop stop-color="#FBC6A3"/>
<stop offset="1" stop-color="#EE8846"/>
</radialGradient>
<radialGradient id="paint1_radial_185_165" cx="0" cy="0" r="1" gradientUnits="userSpaceOnUse" gradientTransform="translate(30.9957 17.3347) rotate(124.265) scale(15.2836 15.0475)">
<stop stop-color="#FECFA4"/>
<stop offset="1" stop-color="#F9AD7B"/>
</radialGradient>
<linearGradient id="paint2_linear_185_165" x1="50.097" y1="53.0526" x2="50.097" y2="58" gradientUnits="userSpaceOnUse">
<stop stop-color="#BD7350"/>
<stop offset="1" stop-color="#7A4A38"/>
</linearGradient>
<linearGradient id="paint3_linear_185_165" x1="50.097" y1="53.0526" x2="50.097" y2="58" gradientUnits="userSpaceOnUse">
<stop stop-color="#7F5744"/>
<stop offset="1" stop-color="#704A31"/>
</linearGradient>
<radialGradient id="paint4_radial_185_165" cx="0" cy="0" r="1" gradientUnits="userSpaceOnUse" gradientTransform="translate(53.9741 31.1836) rotate(134.379) scale(22.9734 19.1446)">
<stop stop-color="#FFEBCD"/>
<stop offset="1" stop-color="#B96632"/>
</radialGradient>
<radialGradient id="paint5_radial_185_165" cx="0" cy="0" r="1" gradientUnits="userSpaceOnUse" gradientTransform="translate(52.5769 31.327) rotate(132.972) scale(24.5968 20.4713)">
<stop stop-color="#FCC282"/>
<stop offset="1" stop-color="#AE4A17"/>
</radialGradient>
<linearGradient id="paint6_linear_185_165" x1="22.2578" y1="20.285" x2="25.7138" y2="47.1509" gradientUnits="userSpaceOnUse">
<stop stop-color="#FF9553"/>
<stop offset="1" stop-color="#A14B1B"/>
</linearGradient>
<radialGradient id="paint7_radial_185_165" cx="0" cy="0" r="1" gradientUnits="userSpaceOnUse" gradientTransform="translate(15.9705 35.4857) rotate(124.317) scale(14.4979 4.76223)">
<stop stop-color="#FAF1D3"/>
<stop offset="0.201232" stop-color="#F1DDBF"/>
<stop offset="0.409614" stop-color="#F7EEDE"/>
<stop offset="0.623858" stop-color="#F3E6C8"/>
<stop offset="0.82413" stop-color="#F6EDDC"/>
<stop offset="0.912065" stop-color="#FBECD8"/>
<stop offset="1" stop-color="#F5EEE5"/>
</radialGradient>
</defs>
</svg>
