<svg width="64" height="64" viewBox="0 0 64 64" fill="none" xmlns="http://www.w3.org/2000/svg">
<path d="M21.2284 54.825C31.8479 54.825 40.4568 46.2973 40.4568 35.778C40.4568 26.9545 34.4 19.5323 26.1802 17.3685L17.2412 25.813C17.2412 25.813 13.427 29.6039 12.2251 32.6875C10.5303 37.0358 10.6729 40.2085 12.2251 44.6077C13.9836 49.5913 21.2284 54.825 21.2284 54.825Z" fill="url(#paint0_linear_192_876)"/>
<path d="M2 35.778C2 46.2973 10.6088 54.825 21.2284 54.825C21.2284 54.825 13.9836 49.5913 12.2251 44.6077C10.6729 40.2085 10.5303 37.0358 12.2251 32.6875C13.427 29.6039 17.2412 25.813 17.2412 25.813L26.1802 17.3685C24.6003 16.9526 22.9405 16.7309 21.2284 16.7309C10.6088 16.7309 2 25.2586 2 35.778Z" fill="url(#paint1_linear_192_876)"/>
<path d="M18.3984 21.9026L19.4917 23.6055L20.9065 22.2811L19.9419 20.8305L18.3984 21.9026Z" fill="#904C31"/>
<path d="M37.1772 15.1542C39.7444 11.9127 39.9425 5 39.9425 5C39.9425 5 36.98 11.0766 33.3829 12.9468C31.2947 14.0325 29.6466 13.4274 27.5308 14.4604C24.0329 16.1684 20.5 22 20.5 22C20.5 22 27.1263 21.3134 30.8106 19.6321C33.5846 18.3662 35.3003 17.524 37.1772 15.1542Z" fill="#619A4B"/>
<path d="M24.1224 11.2439C20.7706 13.9173 20.5 22 20.5 22C20.5 22 24.0329 16.1684 27.5308 14.4604C29.6466 13.4274 31.2947 14.0325 33.3829 12.9468C36.98 11.0766 39.9425 5 39.9425 5C39.9425 5 35.4953 7.86717 32.354 9.09952C29.2658 10.311 26.7029 9.18574 24.1224 11.2439Z" fill="#62A659"/>
<path d="M43.7365 33.0029C45.5313 32.4426 45.0869 28.4619 45.0869 28.4619C43.5845 30.5711 42.3793 30.5367 40.0065 29.7233C40.0065 29.7233 41.8723 33.5848 43.7365 33.0029Z" fill="#DA5C38"/>
<path d="M45.0869 28.4619C45.0869 28.4619 45.5313 32.4426 43.7365 33.0029C41.8723 33.5848 40.0065 29.7233 40.0065 29.7233C40.0065 29.7233 33.9725 31.6399 31.9679 34.7058C29.8285 37.9778 30.4487 40.7506 30.939 44.6077C31.4721 48.8016 31.9505 51.6417 34.9261 54.6988C37.5784 57.4237 39.903 58.7485 43.7365 58.9876C46.3466 59.1503 49.7815 57.6631 50.296 57.6631C50.8104 57.6631 51.6465 58.1046 51.6465 58.1046C51.6465 58.1046 51.2606 57.3477 52.6111 57.2216C53.9616 57.0955 56.1725 55.8699 57.8844 54.2573C60.0804 52.1889 60.8481 50.4145 61.5501 47.5089C62.7539 42.5255 61.4585 39.0272 58.6561 34.7058C56.5483 31.4553 55.0822 28.9106 51.2606 28.0204C48.9087 27.4725 45.0869 28.4619 45.0869 28.4619Z" fill="#FCE9A1"/>
<path d="M45.0869 28.4619C45.0869 28.4619 45.5313 32.4426 43.7365 33.0029C41.8723 33.5848 40.0065 29.7233 40.0065 29.7233M45.0869 28.4619C45.0869 28.4619 48.9087 27.4725 51.2606 28.0204C55.0822 28.9106 56.5483 31.4553 58.6561 34.7058C61.4585 39.0272 62.7539 42.5255 61.5501 47.5089C60.8481 50.4145 60.0804 52.1889 57.8844 54.2573C56.1725 55.8699 53.9616 57.0955 52.6111 57.2216C51.2606 57.3477 51.6465 58.1046 51.6465 58.1046C51.6465 58.1046 50.8104 57.6631 50.296 57.6631C49.7815 57.6631 46.3466 59.1503 43.7365 58.9876C39.903 58.7485 37.5784 57.4237 34.9261 54.6988C31.9505 51.6417 31.4721 48.8016 30.939 44.6077C30.4487 40.7506 29.8285 37.9778 31.9679 34.7058C33.9725 31.6399 40.0065 29.7233 40.0065 29.7233M45.0869 28.4619C43.5845 30.5711 42.3793 30.5367 40.0065 29.7233" stroke="#DA5C38" stroke-width="0.5" stroke-linejoin="round"/>
<path d="M42.4504 32.6875L44.7012 31.9938C44.7012 31.9938 48.4595 34.7027 50.1674 37.0393C52.2081 39.8311 53.723 41.7433 53.5758 45.1753C53.4422 48.2914 50.1674 52.4283 50.1674 52.4283C50.1674 52.4283 45.3887 51.7196 43.2864 49.7794C40.672 47.3665 40.415 44.7827 40.2638 41.265C40.1156 37.8152 42.4504 32.6875 42.4504 32.6875Z" fill="#6B2C19"/>
<ellipse cx="0.449496" cy="2.02133" rx="0.449496" ry="2.02133" transform="matrix(0.961841 0.27361 -0.283611 0.958939 42.5913 34.4735)" fill="#470F17"/>
<ellipse cx="0.447564" cy="2.03027" rx="0.447564" ry="2.03027" transform="matrix(0.84054 -0.54175 0.556677 0.830729 43.9292 33.614)" fill="#470F17"/>
<ellipse cx="0.447564" cy="2.03027" rx="0.447564" ry="2.03027" transform="matrix(0.84054 -0.54175 0.556677 0.830729 43.415 36.5152)" fill="#470F17"/>
<ellipse cx="0.449919" cy="2.01936" rx="0.449919" ry="2.01936" transform="matrix(0.986248 -0.165271 0.171641 0.98516 42.0569 40.3214)" fill="#470F17"/>
<ellipse cx="0.446122" cy="2.03689" rx="0.446122" ry="2.03689" transform="matrix(0.735851 -0.677143 0.691305 0.722563 42.9834 46.8893)" fill="#470F17"/>
<ellipse cx="0.446122" cy="2.03689" rx="0.446122" ry="2.03689" transform="matrix(0.735851 -0.677143 0.691305 0.722563 46.8875 48.6176)" fill="#470F17"/>
<ellipse cx="0.449774" cy="2.02004" rx="0.449774" ry="2.02004" transform="matrix(0.977983 -0.208685 0.216586 0.976263 44.7886 43.3681)" fill="#470F17"/>
<ellipse cx="0.449774" cy="2.02004" rx="0.449774" ry="2.02004" transform="matrix(0.977983 -0.208685 0.216586 0.976263 47.7881 36.4702)" fill="#470F17"/>
<ellipse cx="0.449774" cy="2.02004" rx="0.449774" ry="2.02004" transform="matrix(0.977983 -0.208685 0.216586 0.976263 50.3601 39.7498)" fill="#470F17"/>
<ellipse cx="0.449097" cy="2.02318" rx="0.449097" ry="2.02318" transform="matrix(0.938233 0.346003 -0.358005 0.93372 51.5408 45.2599)" fill="#470F17"/>
<ellipse cx="0.446458" cy="2.03535" rx="0.446458" ry="2.03535" transform="matrix(0.761669 -0.647966 0.662518 0.749046 43.4412 39.9492)" fill="#470F17"/>
<ellipse cx="0.448573" cy="2.02561" rx="0.448573" ry="2.02561" transform="matrix(0.906131 -0.422996 0.436634 0.899639 46.7708 39.7434)" fill="#470F17"/>
<ellipse cx="0.449032" cy="2.02348" rx="0.449032" ry="2.02348" transform="matrix(0.934304 0.356478 -0.368735 0.929535 49.7202 43.363)" fill="#470F17"/>
<defs>
<linearGradient id="paint0_linear_192_876" x1="39.1706" y1="43.4094" x2="12.4986" y2="32.5831" gradientUnits="userSpaceOnUse">
<stop stop-color="#E23F2B"/>
<stop offset="1" stop-color="#F7995F"/>
</linearGradient>
<linearGradient id="paint1_linear_192_876" x1="3.15756" y1="30.7324" x2="34.2828" y2="30.2078" gradientUnits="userSpaceOnUse">
<stop stop-color="#F79E66"/>
<stop offset="1" stop-color="#E23F2B"/>
</linearGradient>
</defs>
</svg>
