<svg width="64" height="64" viewBox="0 0 64 64" fill="none" xmlns="http://www.w3.org/2000/svg">
<path d="M13.2887 51.0155C16.1212 54.4274 23.3639 57.6373 23.3639 57.6373L32.2204 23.535C32.2204 23.535 33.3406 16.2122 31.3266 12.013C29.9746 9.19388 29.45 4.17262 26.1265 5.52362C24.7119 6.09865 23.6077 8.10613 23.6077 8.10613C23.6077 8.10613 23.001 6.38998 21.9014 5.92093C20.1035 5.15402 18.7413 6.70226 17.27 7.84125C14.8036 9.75056 14.5887 14.5955 14.5887 14.5955C14.5887 14.5955 13.7969 12.4593 12.3949 12.013C9.94385 11.2328 9.5094 14.5531 8.65728 16.5821C7.29533 19.8249 9.63231 25.3229 9.63231 25.3229C9.63231 25.3229 7.81922 24.259 6.46347 24.0647C1.6195 23.3705 5.19475 30.4559 6.46347 34.3285C7.68385 38.0536 12.3949 42.9369 12.3949 42.9369C12.3949 42.9369 10.6739 42.7079 9.63231 42.9369C5.64855 43.8126 10.9765 48.2304 13.2887 51.0155Z" fill="#639616"/>
<path d="M33.5917 57.7264C32.8191 58.4974 28.4585 58.7311 28.4585 58.7311C28.4585 58.7311 25.0382 59.3602 24.3924 58.9738C24.1284 58.8158 23.6084 57.9752 23.0172 56.8092C22.1623 55.1228 21.1587 52.756 20.5658 50.7897C19.9126 48.6233 19.7368 46.8369 19.7043 45.0795C19.6639 42.8953 19.8449 40.7558 19.6055 37.987C19.4508 36.1984 19.1647 34.6184 18.8532 33.1358C18.0086 29.1155 16.9778 25.8111 17.8786 21.005C18.5152 17.609 20.7742 12.537 20.7742 12.537C20.6827 14.5307 20.1255 16.8265 20.4519 19.5556C20.8917 23.2327 22.5664 25.9558 23.6474 28.6372C24.7285 31.3185 29.3441 39.4452 29.3441 39.4452C29.3441 39.4452 32.7208 46.1037 33.4015 50.6311L33.4179 50.7404C33.8292 53.4749 34.3542 56.9657 33.5917 57.7264Z" fill="#F1F3E6"/>
<path d="M33.4015 50.6311C33.8149 53.3811 34.3644 56.9555 33.5917 57.7264C32.8191 58.4974 28.4585 58.7311 28.4585 58.7311C28.4585 58.7311 25.0382 59.3602 24.3924 58.9738C24.1284 58.8158 23.6084 57.9752 23.0172 56.8092M33.4015 50.6311C32.7208 46.1037 29.3441 39.4452 29.3441 39.4452M33.4015 50.6311C33.5678 47.5391 34.0265 45.9149 35.3659 43.1737M29.3441 39.4452C29.3441 39.4452 24.7285 31.3185 23.6474 28.6372M29.3441 39.4452C30.1465 35.6965 31.1638 33.631 33.3917 29.9734M23.6474 28.6372C22.5664 25.9558 20.8917 23.2327 20.4519 19.5556C20.1255 16.8265 20.6827 14.5307 20.7742 12.537C20.7742 12.537 18.5152 17.609 17.8786 21.005C16.9778 25.8111 18.0086 29.1155 18.8532 33.1358M23.6474 28.6372C23.544 24.543 24.2711 22.4808 26.2282 18.9983M23.0172 56.8092C22.1623 55.1228 21.1587 52.756 20.5658 50.7897C19.9126 48.6233 19.7368 46.8369 19.7043 45.0795M23.0172 56.8092C22.4218 57.2709 18.7065 53.0862 17.5725 50.1483M19.7043 45.0795C19.6639 42.8953 19.8449 40.7558 19.6055 37.987C19.4508 36.1984 19.1647 34.6184 18.8532 33.1358M19.7043 45.0795C17.7956 41.8342 16.5263 40.6059 14.1945 38.6165M18.8532 33.1358C17.0181 30.3439 15.6379 29.1559 12.7904 27.4504" stroke="#F1F3E6" stroke-linecap="round" stroke-linejoin="round"/>
<path d="M21.3325 43.9964C21.8788 49.7612 26.8577 58.1009 26.8577 58.1009L37.0955 59.7563C37.0955 59.7563 46.269 57.4709 49.6083 53.7305C52.076 50.9663 57.0685 46.5652 53.1021 45.4532C51.8119 45.0915 49.6083 45.4532 49.6083 45.4532C49.6083 45.4532 54.2449 42.3589 55.7835 39.626C57.3347 36.8704 60.8331 32.4489 57.1648 31.9447C55.925 31.7743 53.9959 32.4082 53.9959 32.4082C53.9959 32.4082 57.5833 29.2101 58.4648 26.6472C59.2955 24.2319 61.4587 20.8062 58.4648 20.2241C57.139 19.9663 55.0522 20.82 55.0522 20.82C55.0522 20.82 58.6823 13.8107 55.0522 12.8738C53.9027 12.5772 51.9646 12.8738 51.9646 12.8738C51.9646 12.8738 53.9929 5.44487 50.4208 5.52362C49.0295 5.5543 47.1707 6.71555 47.1707 6.71555C47.1707 6.71555 45.2159 4.04669 43.1894 4.0006C40.3056 3.93502 39.533 9.23184 39.533 9.23184C39.533 9.23184 37.9819 7.76515 36.608 7.51017C33.6327 6.95799 31.8141 10.8211 31.0828 12.013C30.3515 13.2049 29.214 20.82 29.214 20.82C29.214 20.82 28.0645 19.2965 26.8577 18.8997C23.7768 17.8869 23.9541 22.5389 23.2826 25.1904C22.3255 28.9694 24.8264 34.9907 24.8264 34.9907C24.8264 34.9907 23.3731 34.195 22.3076 33.9974C17.6209 33.1283 20.9625 40.0909 21.3325 43.9964Z" fill="#94AD2B"/>
<path d="M26.858 58.2333C27.6705 59.0941 32.4644 59.4914 32.4644 59.4914C32.4644 59.4914 36.202 60.286 36.9332 59.8887C37.2322 59.7263 37.8478 58.8327 38.5583 57.5889C39.5858 55.79 40.8117 53.2588 41.5646 51.1479C42.3941 48.8223 42.6783 46.8927 42.803 44.9896C42.9581 42.6244 42.867 40.3003 43.2709 37.3083C43.5318 35.3756 43.9272 33.6732 44.3455 32.0771C45.4798 27.7491 46.783 24.2029 46.0335 18.9659C45.5039 15.2654 43.2709 9.69534 43.2709 9.69534C43.2709 11.8585 43.7688 14.3644 43.2709 17.3104C42.6001 21.28 40.6167 24.1751 39.2895 27.0445C37.9624 29.914 32.4644 38.5665 32.4644 38.5665C32.4644 38.5665 28.406 45.6691 27.4267 50.552L27.4031 50.6699C26.8114 53.619 26.0562 57.3838 26.858 58.2333Z" fill="#ECEFE1"/>
<path d="M27.4267 50.552C26.8319 53.5178 26.0454 57.3724 26.858 58.2333C27.6705 59.0941 32.4644 59.4914 32.4644 59.4914C32.4644 59.4914 36.202 60.286 36.9332 59.8887C37.2322 59.7263 37.8478 58.8327 38.5583 57.5889M27.4267 50.552C28.406 45.6691 32.4644 38.5665 32.4644 38.5665M27.4267 50.552C27.3999 47.1963 26.9766 45.4214 25.6392 42.4071M32.4644 38.5665C32.4644 38.5665 37.9624 29.914 39.2895 27.0445M32.4644 38.5665C31.7698 34.4783 30.7532 32.2068 28.483 28.1702M39.2895 27.0445C40.6167 24.1751 42.6001 21.28 43.2709 17.3104C43.7688 14.3644 43.2709 11.8585 43.2709 9.69534C43.2709 9.69534 45.5039 15.2654 46.0335 18.9659C46.783 24.2029 45.4798 27.7491 44.3455 32.0771M39.2895 27.0445C39.6107 22.612 38.9138 20.3536 36.9332 16.5158M38.5583 57.5889C39.5858 55.79 40.8117 53.2588 41.5646 51.1479C42.3941 48.8223 42.6783 46.8927 42.803 44.9896M38.5583 57.5889C39.1911 58.1088 43.4975 53.6976 44.8959 50.552M42.803 44.9896C42.9581 42.6244 42.867 40.3003 43.2709 37.3083C43.5318 35.3756 43.9272 33.6732 44.3455 32.0771M42.803 44.9896C45.0709 41.5365 46.5318 40.2476 49.2023 38.1692M44.3455 32.0771C46.5092 29.1128 48.0904 27.8712 51.3149 26.1175" stroke="#ECEFE1" stroke-linecap="round" stroke-linejoin="round"/>
</svg>
