<svg width="64" height="64" viewBox="0 0 64 64" fill="none" xmlns="http://www.w3.org/2000/svg">
<path d="M29.3412 3.59413C28.5983 3.92815 28.7 5.56644 28.7 5.56644L32.4828 9.95642L34.7269 8.30223L33.9575 4.42123C33.9575 4.42123 32.3099 2.90534 31.3288 3.40326C31.1058 3.5164 30.8158 3.785 30.8158 3.785C30.8158 3.785 29.8702 3.35628 29.3412 3.59413Z" fill="#A8C937"/>
<path d="M44.6001 51.5021L40.689 58.3098L35.5598 57.6099L33.1875 28.8524L36.2009 8.93842L42.869 17.6548L44.6001 36.678V51.5021Z" fill="url(#paint0_radial_185_396)"/>
<path d="M31.5849 61.0456C31.5849 61.0456 33.8187 61.9734 35.3036 61.8727C37.9295 61.6947 40.8816 58.119 40.8816 58.119C40.8816 58.119 41.0728 53.3823 40.8816 50.357C40.6682 46.9797 39.5678 45.1481 39.7275 41.7679C39.7949 40.3426 40.1763 38.1414 40.1763 38.1414C40.7711 36.5099 41.2544 35.8185 42.2922 34.833C40.9804 35.6967 40.3689 36.4032 39.5352 38.1414C39.5352 38.1414 39.715 37.0595 39.7275 36.3599C39.765 34.2646 40.4988 31.4006 40.9211 30.5192C39.7164 32.0473 39.4011 33.2698 39.0223 35.4692C39.0223 35.4692 38.4235 34.0721 39.0223 32.3517C39.621 30.6312 40.0667 29.8911 41.0099 28.8524C39.7041 29.7942 39.1091 30.4542 38.2529 31.8427C38.2529 31.8427 38.6163 28.2181 39.5352 26.1166C40.4115 24.1127 42.6769 21.4722 42.6769 21.4722C42.6769 21.4722 39.4496 24.0503 38.2529 26.3075C37.3975 27.921 36.8423 30.7611 36.8423 30.7611L31.0078 36.3599L31.5849 61.0456Z" fill="url(#paint1_linear_185_396)"/>
<path d="M41.9721 55.8922C41.3109 56.4673 40.7539 58.119 40.7539 58.119L43.1903 55.9558L45.1778 50.9296C45.1778 50.9296 45.7862 41.6623 46.9731 35.8509C47.3302 34.1024 47.9633 33.1811 47.9989 31.3973C48.038 29.4437 47.0289 28.4516 46.9731 26.4984C46.9259 24.8472 47.486 22.2993 47.486 22.2993C47.486 22.2993 47.9866 18.6444 47.2295 16.5096C46.7605 15.1869 45.4343 13.392 45.4343 13.392C45.4343 13.392 45.0448 12.3456 44.6008 11.8015C44.0018 11.0675 43.2898 11.0661 42.6132 10.4018C41.6302 9.43665 41.6527 8.45424 40.7539 7.41149C39.1694 5.57341 35.5605 3.97585 35.5605 3.97585C35.5605 3.97585 35.1366 2.55205 34.4064 2.51253C33.9698 2.48889 33.3806 2.95789 33.3806 2.95789C33.3806 2.95789 32.9451 1.93233 32.4188 2.00354C31.8051 2.08659 32.0341 3.53049 32.0341 3.53049C32.0341 3.53049 31.498 3.92011 31.393 4.29397C31.199 4.98432 32.4188 5.82092 32.4188 5.82092C32.4188 5.82092 32.5901 6.80881 32.8035 7.41149C33.6259 9.73421 37.0993 12.056 37.0993 12.056L38.7022 14.3464C38.7022 14.3464 37.6829 15.576 37.6763 16.5096C37.6647 18.1443 40.7539 19.3726 40.7539 19.3726C40.7539 19.3726 40.1243 20.4154 40.1127 21.154C40.092 22.477 42.0362 23.9534 42.0362 23.9534C42.0362 23.9534 41.3528 24.5251 41.2668 25.035C41.1349 25.8169 42.3567 26.7529 42.3567 26.7529C42.3567 26.7529 40.4776 27.9467 40.7539 28.9797C40.8913 29.4936 41.5874 30.0612 41.5874 30.0612C41.5874 30.0612 41.1867 31.0624 41.2668 31.7154C41.3507 32.3994 42.0362 33.306 42.0362 33.306C42.0362 33.306 41.5896 34.0921 41.5874 34.6421C41.5831 35.6907 43.1903 36.8053 43.1903 36.8053C43.1903 36.8053 42.588 37.7567 42.8056 38.3322C42.9487 38.7109 43.5108 39.0957 43.5108 39.0957C43.5108 39.0957 43.2196 39.6982 43.1903 40.1137C43.1284 40.9896 44.152 42.1496 44.152 42.1496C44.152 42.1496 43.4933 43.1119 43.5108 43.8038C43.5377 44.8669 44.6008 46.1578 44.6008 46.1578C44.6008 46.1578 44.3501 47.258 44.152 48.1938C43.9666 49.0691 44.152 50.4842 44.152 50.4842C44.152 50.4842 43.14 51.4196 42.8056 52.202C42.2971 53.3914 42.2926 55.1287 42.2926 55.1287C42.2926 55.1287 42.2336 55.6646 41.9721 55.8922Z" fill="url(#paint2_linear_185_396)"/>
<path d="M40.7532 58.119C40.7532 58.119 42.3636 57.0081 43.1255 56.083C45.8311 52.7977 45.5638 49.8107 46.3954 45.6489C47.477 40.2356 46.7578 37.0425 46.8442 31.5246C46.9282 26.1584 46.8442 20.0725 46.8442 17.782C46.8442 15.4916 46.0642 14.05 44.4719 12.3741C43.2082 11.044 40.4326 9.95642 40.4326 9.95642C41.9497 10.8675 42.8311 11.349 43.959 12.6286C42.2029 12.2155 41.5208 12.4679 40.5191 13.1425C41.0054 12.9268 43.3867 12.5166 44.4719 13.5829C45.8365 14.9237 46.3313 18.1002 46.3313 18.1002V20.5178C45.3795 17.6189 44.4794 16.4783 42.8049 14.5373C44.3887 16.7826 45.2166 18.1905 46.3313 21.5994L46.6518 25.9258L46.5236 32.4789C46.5236 32.4789 46.4671 35.4338 46.2671 37.3143C46.0542 39.3169 45.7916 40.4219 45.4336 42.4041C45.1096 44.198 44.8797 45.1947 44.536 46.985C43.9929 49.8142 44.3575 51.6013 43.1896 54.238C42.4655 55.8727 40.7532 58.119 40.7532 58.119Z" fill="#E5E2BC"/>
<path d="M17.4794 45.1398C17.4036 46.2727 18.6335 47.812 18.6335 47.812L30.9437 61.5546C30.9437 61.5546 31.9966 61.6399 32.1619 61.1728C32.3102 60.7534 31.6489 60.1549 31.6489 60.1549C31.6489 60.1549 32.4226 59.9258 32.6107 59.5186C32.8515 58.9972 32.1619 58.1189 32.1619 58.1189C32.1619 58.1189 34.0835 56.6657 33.3159 56.4011C33.0558 56.3114 32.6107 56.4011 32.6107 56.4011C32.6107 56.4011 33.1603 55.2905 33.0595 54.556C32.931 53.6202 31.6489 52.5837 31.6489 52.5837C31.6489 52.5837 32.816 51.7298 32.6107 51.0568C32.4926 50.6697 31.9054 50.2933 31.9054 50.2933C31.9054 50.2933 32.5942 49.3404 32.6107 48.6391C32.6247 48.0419 32.1619 47.1758 32.1619 47.1758C32.1619 47.1758 33.3523 46.526 33.3159 45.8397C33.3005 45.5493 33.0595 45.1398 33.0595 45.1398C33.0595 45.1398 33.6333 44.4189 33.7006 43.8674C33.831 42.8002 32.1619 41.577 32.1619 41.577C32.1619 41.577 34.3007 40.8089 34.4059 39.6683C34.4886 38.7717 33.3159 37.6323 33.3159 37.6323C33.3159 37.6323 34.2916 37.3138 34.5983 36.8052C35.0879 35.9934 34.0212 34.4512 34.0212 34.4512C34.0212 34.4512 36.4858 34.9182 37.1629 33.8786C37.7819 32.9283 36.7141 31.0156 36.7141 31.0156C36.7141 31.0156 37.7771 30.1004 37.6758 29.3614C37.5756 28.6302 36.3294 28.0253 36.3294 28.0253C36.3294 28.0253 37.3135 27.7433 37.6758 27.2618C38.4149 26.2796 36.7141 24.2715 36.7141 24.2715C36.7141 24.2715 38.2209 24.0408 38.6375 23.3172C39.3094 22.1505 36.7141 20.4542 36.7141 20.4542C36.7141 20.4542 37.628 18.7625 37.4193 17.6548C37.2979 17.01 36.7141 16.1278 36.7141 16.1278C36.7141 16.1278 37.5759 15.171 37.6758 14.41C37.7545 13.8105 37.4193 12.883 37.4193 12.883C37.4193 12.883 38.4545 11.7326 38.1887 10.9743C37.8739 10.0761 35.8806 10.1472 35.8806 10.1472C35.8806 10.1472 36.0537 8.55732 35.4318 7.92045C34.6633 7.13353 32.6107 7.72958 32.6107 7.72958C32.6107 7.72958 32.8153 7.01834 32.6107 6.64799C32.3097 6.10335 31.0719 6.20263 31.0719 6.20263C31.0719 6.20263 30.808 5.61584 30.4949 5.37553C29.861 4.88918 28.4432 5.37553 28.4432 5.37553C28.4432 5.37553 27.8889 4.27458 27.225 4.16669C26.142 3.99072 25.9426 6.64799 25.9426 6.64799C25.9426 6.64799 24.5372 6.52621 24.0192 7.09335C23.6787 7.46613 23.5704 8.30218 23.5704 8.30218C23.5704 8.30218 22.5999 8.32298 22.1598 8.68392C21.6758 9.08089 21.5187 10.1472 21.5187 10.1472L19.7875 10.9743C19.7875 10.9743 16.5956 14.7284 16.2612 17.6548C15.9606 20.2843 17.7358 24.2715 17.7358 24.2715L17.4794 32.8606C17.4794 32.8606 16.5335 33.3237 16.2612 33.8786C15.8967 34.6211 16.5176 35.9781 16.5176 35.9781C16.5176 35.9781 15.7749 37.1792 16.0688 37.8868C16.2781 38.3906 17.0947 38.8412 17.0947 38.8412C17.0947 38.8412 16.6722 39.265 16.5176 39.6047C15.8869 40.991 18.954 42.6586 18.954 42.6586C18.954 42.6586 17.5545 44.0174 17.4794 45.1398Z" fill="url(#paint3_radial_185_396)"/>
<path d="M31.8411 61.3637C30.5905 62.0042 29.8216 62.0849 28.3789 61.9363C24.3302 60.8705 22.8201 59.4212 20.685 56.2103C18.5797 50.3125 17.7636 46.8518 17.7998 40.0501C17.7998 40.0501 17.1445 38.4969 17.0304 37.4415C16.9422 36.6259 17.0945 35.342 17.0945 35.342C17.0945 35.342 17.2642 36.51 17.4151 37.2506C17.5836 38.0776 17.928 39.3502 17.928 39.3502V38.205C17.928 38.205 17.5392 36.9009 17.4151 36.0418C17.2161 34.6645 17.4151 32.4789 17.4151 32.4789C17.4151 32.4789 17.3905 34.4454 17.6716 35.6601C17.8063 36.2423 18.1204 37.1234 18.1204 37.1234C18.1204 37.1234 18.2508 35.8415 18.1845 35.0238C18.0958 33.9305 17.6419 33.3806 17.5433 32.2881C17.4472 31.2228 17.6716 29.5523 17.6716 29.5523C17.6716 29.5523 17.7915 31.0689 17.928 32.0336C18.1124 33.3365 18.5692 35.342 18.5692 35.342C18.5692 35.342 18.7016 34.9974 18.7615 34.7694C19.1334 33.3543 18.2884 32.532 18.1204 31.0792C17.8918 29.1031 17.928 25.9894 17.928 25.9894C17.928 25.9894 18.1733 28.9995 18.5692 30.8884C18.8648 32.2986 19.5309 34.4512 19.5309 34.4512C19.5309 34.4512 19.8134 30.8017 19.6591 28.4707C19.5832 27.3235 19.4027 26.7317 19.3386 25.544C19.2778 24.4186 19.1595 22.238 19.1472 22.0561C19.1466 22.0503 19.1462 22.0465 19.1462 22.0448C19.1462 22.0421 19.1466 22.0461 19.1472 22.0561C19.1665 22.2199 19.4505 23.9634 19.595 24.8442C19.7446 25.7561 19.8515 25.8621 19.8515 25.8621C19.8515 25.8621 20.3125 23.2731 20.3003 21.5994C20.2834 19.2834 19.3277 18.0621 19.3386 15.7461C19.344 14.5989 19.2537 13.9155 19.595 12.8194C20.1038 11.1858 22.1597 9.25656 22.1597 9.25656C22.1597 9.25656 20.0252 12.5118 19.9797 14.8554C19.9454 16.6207 20.9367 17.4846 21.0697 19.2454C21.1296 20.0382 21.0697 21.2813 21.0697 21.2813C21.0697 21.2813 23.0597 16.7725 23.6984 13.7102C23.9704 12.406 24.2114 10.3382 24.2114 10.3382C24.1784 11.6749 24.15 12.4039 24.019 13.5193C25.3243 11.1617 26.0955 9.87925 27.6095 7.72961C26.637 9.29876 26.1194 10.1832 25.4296 11.8015C25.4296 11.8015 26.2872 11.0513 26.9683 10.9108C27.6343 10.7734 28.6994 11.1016 28.6994 11.1016C28.6994 11.1016 27.5291 11.108 26.8401 11.3561C25.7851 11.7361 24.596 13.1376 24.596 13.1376C24.596 13.1376 25.0809 12.8116 25.4296 12.8194C25.8214 12.8282 26.3272 13.2648 26.3272 13.2648C26.3272 13.2648 25.6932 13.0413 25.3013 13.1376C24.6633 13.2942 24.2114 14.41 24.2114 14.41L22.1597 20.3906C22.1597 20.3906 25.0442 17.7198 26.5836 15.7461C27.8461 14.1275 29.4688 11.3561 29.4688 11.3561C29.4688 11.3561 28.169 14.5459 26.9683 16.3823C25.4812 18.6569 22.352 21.5994 22.352 21.5994L21.262 26.2439C21.262 26.2439 22.4532 22.8727 23.8908 21.154C25.0252 19.7979 27.353 18.2274 27.353 18.2274C27.353 18.2274 25.2448 20.1281 24.2114 21.5994C22.6848 23.7727 21.5185 27.8345 21.5185 27.8345V28.916L23.3137 25.9894C24.4661 23.9342 25.2436 22.9122 26.8401 21.2813C27.9276 19.4932 28.3181 18.5713 28.5712 17.0822C29.3936 15.5149 29.9949 14.7437 31.2641 13.5193C30.1615 14.8662 29.6229 15.6438 28.8277 17.0822C28.728 17.7634 28.7177 18.1157 28.8277 18.6728C31.4316 17.2035 32.9373 16.8508 35.6239 16.2551C32.9458 17.1672 31.445 17.6979 28.8277 19.4362L26.3272 22.8082C26.3272 22.8082 24.5866 25.0718 23.7625 26.6892C22.0774 29.9968 21.5185 35.9146 21.5185 35.9146C23.4544 33.0378 24.5589 31.4471 26.9042 29.0433C29.0617 26.8078 29.9725 25.5538 31.5847 23.3172C29.8463 26.2415 28.7968 27.8317 26.5836 30.443C24.6683 32.5181 22.865 34.833 22.352 36.0418C21.839 37.2506 22.1597 38.6504 22.1597 38.6504C23.1509 36.9525 23.9208 36.0597 25.3654 34.5785C27.3905 32.406 28.6002 31.4608 30.7511 29.7431C28.7217 31.5755 27.5687 32.5569 25.7501 35.0238C24.0101 36.9868 23.1214 39.0957 22.8649 40.4954C22.6084 41.8951 23.0573 42.3405 23.0573 42.3405C23.0573 42.3405 25.41 38.333 27.9301 37.1234C29.2586 36.4857 31.5847 36.1691 31.5847 36.1691C31.5847 36.1691 29.2413 36.9239 27.9301 37.7596C25.5855 39.2539 23.2496 43.104 23.2496 43.104L23.5061 44.8218C23.5061 44.8218 24.8072 43.081 25.8784 42.2132C26.9994 41.305 29.0841 40.3682 29.0841 40.3682C29.0841 40.3682 26.7119 41.6852 25.6219 42.9767C24.9573 43.7642 24.4374 44.2012 24.2114 45.2035C24.0637 45.8582 24.2114 46.9213 24.2114 46.9213C24.2114 46.9213 28.3789 44.3552 29.4047 44.1855C30.4306 44.0159 32.4438 43.6893 32.2899 43.7402C32.136 43.7911 30.3023 44.2704 29.4047 44.5037C28.5071 44.7369 24.6602 47.4303 24.6602 47.4303C24.6602 47.4303 24.6418 48.3722 24.6602 48.8936C24.7587 51.6947 25.0178 53.3689 26.84 55.5104C27.7285 56.5546 28.0856 56.9234 29.0841 57.8645C30.3516 59.059 31.8411 61.3637 31.8411 61.3637Z" fill="#FBF7E2"/>
<defs>
<radialGradient id="paint0_radial_185_396" cx="0" cy="0" r="1" gradientUnits="userSpaceOnUse" gradientTransform="translate(40.8814 46.0306) rotate(-96.8673) scale(36.463 8.42687)">
<stop stop-color="#BECE63"/>
<stop offset="1" stop-color="#648B18"/>
</radialGradient>
<linearGradient id="paint1_linear_185_396" x1="31.0719" y1="45.3944" x2="36.841" y2="46.105" gradientUnits="userSpaceOnUse">
<stop stop-color="#D2D5A7"/>
<stop offset="1" stop-color="#EBE9CC"/>
</linearGradient>
<linearGradient id="paint2_linear_185_396" x1="39.686" y1="2" x2="39.686" y2="58.0553" gradientUnits="userSpaceOnUse">
<stop stop-color="#84A730"/>
<stop offset="1" stop-color="#A9C041"/>
</linearGradient>
<radialGradient id="paint3_radial_185_396" cx="0" cy="0" r="1" gradientUnits="userSpaceOnUse" gradientTransform="translate(23.7628 48.5119) rotate(-77.6071) scale(43.3186 25.5598)">
<stop offset="0.624455" stop-color="#BACD49"/>
<stop offset="0.974043" stop-color="#52760C"/>
</radialGradient>
</defs>
</svg>
