<svg width="64" height="64" viewBox="0 0 64 64" fill="none" xmlns="http://www.w3.org/2000/svg">
<path d="M20.9863 45.7172C17.7845 46.6113 15.0045 44.5119 14.0146 43.3505L18.9852 29.0187L32.0893 26.2575C30.9274 30.2897 24.1881 44.8231 20.9863 45.7172Z" fill="#B37E2E"/>
<path d="M32.1539 25.7315L29.8945 24.6139L30.2818 18.1712C30.3894 15.5415 30.6562 10.5319 30.8628 11.5312C31.0694 12.5305 31.8096 16.5495 32.1539 18.4341C32.1323 15.9578 32.1797 11.163 32.5412 11.7942C32.9027 12.4253 33.4664 14.2924 33.7031 15.147C34.0689 13.8322 34.8005 11.3208 34.8005 11.7942V13.9637C34.9942 13.4596 35.4073 12.5042 35.5106 12.7146C35.6139 12.9249 35.7258 13.635 35.7688 13.9637L37.0599 21.3268L32.1539 25.7315Z" fill="url(#paint0_linear_808_877)"/>
<path d="M51.2614 18.2369C51.455 17.448 49.9893 15.9415 48.6793 15.0156C46.7988 13.6864 42.9341 13.8322 42.9341 13.8322L40.7652 15.9359C40.7652 15.9359 46.4084 16.3638 47.5819 19.0916C48.0896 20.2718 47.9692 22.3674 47.9692 22.3674C49.4405 20.6961 51.1521 18.682 51.2614 18.2369Z" fill="url(#paint1_radial_808_877)"/>
<path d="M37.5117 19.0916C38.5661 20.9762 40.7652 24.7454 41.1267 24.7454H43.3214H45.839C45.839 24.7454 46.8324 23.6588 47.9692 22.3674C47.9692 22.3674 48.0896 20.2718 47.5819 19.0916C46.4084 16.3638 40.7652 15.9359 40.7652 15.9359L37.5117 19.0916Z" fill="url(#paint2_radial_808_877)"/>
<path d="M47.9692 22.3674C46.8324 23.6588 45.839 24.7454 45.839 24.7454H43.3214L45.1289 28.4927C45.1289 28.4927 52.1491 27.8029 51.9069 24.7454C51.818 23.6229 50.6153 23.2341 50.745 22.1157C50.8484 21.2237 51.8421 21.0392 51.9069 20.1435C51.9638 19.358 51.2614 18.2369 51.2614 18.2369C51.1521 18.682 49.4405 20.6961 47.9692 22.3674Z" fill="url(#paint3_radial_808_877)"/>
<path d="M10.2709 25.2713C9.0764 26.1415 7.88249 28.2298 7.88249 28.2298C7.88249 28.2298 7.03459 27.6615 6.46233 27.7696C5.5611 27.9397 5.34214 28.8804 5.23584 29.8076C5.05685 31.3687 7.68883 32.9632 7.68883 32.9632L18.7919 30.202C18.7919 30.202 17.3464 24.2546 14.4023 23.8908C14.1049 23.854 13.8269 23.8419 13.5631 23.8524C12.3312 23.9012 11.4084 24.4427 10.2709 25.2713Z" fill="url(#paint4_radial_808_877)"/>
<path d="M7.88249 28.2298C7.88249 28.2298 9.0764 26.1415 10.2709 25.2713C11.4084 24.4427 12.3312 23.9012 13.5631 23.8524C13.5631 23.8524 8.14071 23.3209 6.26864 24.1537C4.39658 24.9865 3.56293 27.4074 3.81565 29.8076C4.00444 31.6005 5.23581 32.6564 5.94588 33.8836L7.68883 32.9632C7.68883 32.9632 5.05685 31.3687 5.23584 29.8076C5.34214 28.8804 5.5611 27.9397 6.46233 27.7696C7.03459 27.6615 7.88249 28.2298 7.88249 28.2298Z" fill="url(#paint5_linear_808_877)"/>
<path d="M57.0712 31.6483C57.486 31.7581 57.7538 31.7581 58.1686 31.6483C58.1105 30.7157 57.9575 30.1705 57.523 29.3474C56.9995 28.3554 55.5865 27.2436 55.5865 27.2436C55.5865 27.2436 55.5081 28.1308 55.5865 28.6899C55.7665 29.9744 55.8381 31.3221 57.0712 31.6483Z" fill="url(#paint6_radial_808_877)"/>
<path d="M59.0077 35.7901L58.1686 31.6483C57.7538 31.7581 57.486 31.7581 57.0712 31.6483C55.8381 31.3221 55.7665 29.9744 55.5865 28.6899C55.5081 28.1308 55.5865 27.2436 55.5865 27.2436C55.5865 27.2436 52.2489 26.8657 50.1641 27.2436C48.4374 27.5566 45.9036 28.6899 45.9036 28.6899L44.0316 31.6483C44.0316 31.6483 46.6237 33.6363 48.4857 34.541C50.7457 35.6391 52.1157 36.3603 54.6182 36.4475C56.3498 36.5079 59.0077 35.7901 59.0077 35.7901Z" fill="url(#paint7_radial_808_877)"/>
<path d="M58.1686 31.6483L59.0077 35.7901C59.0077 35.7901 59.2254 34.6903 59.4596 34.0151C59.7976 33.0407 60.49 32.673 60.6216 31.6483C60.9576 29.0307 55.5865 27.2436 55.5865 27.2436C55.5865 27.2436 56.9995 28.3554 57.523 29.3474C57.9575 30.1705 58.1105 30.7157 58.1686 31.6483Z" fill="url(#paint8_radial_808_877)"/>
<path d="M60.6216 34.0151C59.7042 33.8752 59.0077 35.7901 59.0077 35.7901C59.0077 35.7901 56.3498 36.5079 54.6182 36.4475C52.1157 36.3603 50.7457 35.6391 48.4857 34.541C46.6237 33.6363 44.0316 31.6483 44.0316 31.6483L42.5469 33.0289C42.5469 33.0289 44.8101 34.949 46.4846 35.7901C47.0528 36.0755 47.9729 36.4475 47.9729 36.4475C47.9729 36.4475 50.2355 37.7884 51.8424 38.1568C54.2574 38.7105 55.6981 37.9092 58.1686 37.7505C58.4961 37.7745 58.6858 37.7623 59.0077 37.6966C60.5365 37.3849 60.5421 35.7734 61.5253 34.541C61.2693 34.2194 61.0236 34.0764 60.6216 34.0151Z" fill="url(#paint9_radial_808_877)"/>
<path d="M59.0077 35.7901C59.0077 35.7901 59.7042 33.8752 60.6216 34.0151C61.0236 34.0764 61.2693 34.2194 61.5253 34.541C62.1577 33.1135 62.1577 31.9583 61.5253 30.5307C60.8323 28.9665 59.7341 28.4045 58.1686 27.7695C57.2132 27.3821 55.5865 27.2436 55.5865 27.2436C55.5865 27.2436 60.9576 29.0307 60.6216 31.6483C60.49 32.673 59.7976 33.0407 59.4596 34.0151C59.2254 34.6903 59.0077 35.7901 59.0077 35.7901Z" fill="url(#paint10_radial_808_877)"/>
<path d="M51.8424 38.1568C50.2355 37.7884 47.9729 36.4475 47.9729 36.4475C47.9729 36.4475 49.8343 39.6227 51.8424 40.1948C54.3871 40.9198 55.6981 38.7051 58.1686 37.7505C55.6981 37.9092 54.2574 38.7105 51.8424 38.1568Z" fill="url(#paint11_radial_808_877)"/>
<path d="M15.6788 36.7615C15.6335 35.8952 16.3846 33.2298 15.8225 32.0428C14.9137 30.1234 12.2312 30.9008 10.4647 32.0428C9.67499 32.5534 9.35116 36.4604 10.4647 37.0392C11.6539 37.6574 14.8868 35.8728 15.6788 36.7615Z" fill="url(#paint12_radial_808_877)"/>
<path d="M16.9845 41.1153L15.8225 37.0392C15.73 37.0391 15.688 36.9374 15.6788 36.7615C14.8868 35.8728 11.6539 37.6574 10.4647 37.0392C9.35116 36.4604 9.67499 32.5534 10.4647 32.0428L8.85088 30.5641L5.49416 33.0947C5.49416 33.0947 2.10674 38.0659 3.23482 41.1153C4.01414 43.2218 5.17897 44.3702 7.23707 45.1913C9.82651 46.2243 11.9547 45.6376 14.2733 44.0737C15.567 43.201 16.2188 42.4898 16.9845 41.1153Z" fill="url(#paint13_radial_808_877)"/>
<path d="M15.8225 37.0392L16.9845 41.1153C19.8799 39.8891 21.3102 36.7237 20.3412 33.6864C19.8156 32.0388 18.9702 31.2448 17.5655 30.2678C15.257 28.6622 13.0944 28.3819 10.4647 29.3474L8.85088 30.5641L10.4647 32.0428C12.2312 30.9008 14.9137 30.1234 15.8225 32.0428C16.3846 33.2298 15.6335 35.8952 15.6788 36.7615C15.7442 36.8349 15.793 36.9265 15.8225 37.0392Z" fill="url(#paint14_radial_808_877)"/>
<path d="M16.9845 41.1153C16.2188 42.4898 15.567 43.201 14.2733 44.0737C11.9547 45.6376 9.82651 46.2243 7.23707 45.1913C5.17897 44.3702 4.01414 43.2218 3.23482 41.1153C2.10674 38.0659 5.49416 33.0947 5.49416 33.0947C5.49416 33.0947 1.40942 37.7678 2.07288 41.1153C2.58166 43.6824 3.80532 45.2096 6.07513 46.4404C8.90542 47.9751 11.4246 47.4791 14.2733 45.9802C16.0963 45.021 16.7128 43.8594 18.1464 42.3644C19.3941 41.0632 20.3582 40.4945 21.1804 38.88C22.4845 36.3192 23.2629 33.963 21.7614 31.5169C20.4585 29.3945 18.5726 29.0168 16.1453 28.6242C13.9373 28.2671 12.5184 28.4477 10.4647 29.3474C13.0944 28.3819 15.257 28.6622 17.5655 30.2678C18.9702 31.2448 19.8156 32.0388 20.3412 33.6864C21.3102 36.7237 19.8799 39.8891 16.9845 41.1153Z" fill="url(#paint15_radial_808_877)"/>
<path d="M45.9687 35.5929C45.9687 35.5929 47.0016 38.2883 47.0016 39.6689C47.0016 41.0495 48.3572 41.0495 48.3572 41.0495C48.3572 41.0495 48.685 39.3137 48.3572 38.2883C47.9261 36.9401 45.9687 35.5929 45.9687 35.5929Z" fill="url(#paint16_linear_808_877)"/>
<path d="M49.5837 43.6135C49.9481 43.9215 50.1001 44.7311 50.1001 44.7311C50.1001 44.7311 50.7523 43.5764 50.9393 42.7588C51.2903 41.2235 50.4874 38.7485 50.4874 38.7485C50.4874 38.7485 49.153 35.9736 47.6471 34.8697C46.1201 33.7504 43.0639 33.3577 43.0639 33.3577L35.834 36.4476L36.4795 45.0598C36.4795 45.0598 38.4477 45.8274 39.7717 45.9144C40.8832 45.9875 41.4982 45.6494 42.612 45.6515C44.3447 45.6547 45.3026 46.6552 47.0016 46.3089C48.3281 46.0385 50.1001 44.7311 50.1001 44.7311C50.1001 44.7311 49.9481 43.9215 49.5837 43.6135C49.3315 43.4003 49.048 43.5131 48.809 43.2848C48.3127 42.8104 49.1834 42.0887 48.809 41.5097C48.6718 41.2974 48.3572 41.0495 48.3572 41.0495C48.3572 41.0495 47.0016 41.0495 47.0016 39.6689C47.0016 38.2883 45.9687 35.5929 45.9687 35.5929C45.9687 35.5929 47.9261 36.9401 48.3572 38.2883C48.685 39.3137 48.3572 41.0495 48.3572 41.0495C48.3572 41.0495 48.6718 41.2974 48.809 41.5097C49.1834 42.0887 48.3127 42.8104 48.809 43.2848C49.048 43.5131 49.3315 43.4003 49.5837 43.6135Z" fill="url(#paint17_radial_808_877)"/>
<path d="M50.9393 42.7588C50.7523 43.5764 50.1001 44.7311 50.1001 44.7311C50.1001 44.7311 48.3281 46.0385 47.0016 46.3089C45.3026 46.6552 44.3447 45.6547 42.612 45.6515C41.4982 45.6494 40.8832 45.9875 39.7717 45.9144C38.4477 45.8274 36.4795 45.0598 36.4795 45.0598V46.3089C36.4795 46.3089 39.1907 47.5118 41.5792 48.0182C43.9676 48.5246 45.2586 48.3469 47.6471 48.0182C50.0355 47.6895 51.3103 46.7238 52.424 44.7311C53.1408 43.4483 53.7479 42.4405 53.2631 41.0495C52.7956 39.708 50.4874 38.7485 50.4874 38.7485C50.4874 38.7485 51.2903 41.2235 50.9393 42.7588Z" fill="url(#paint18_radial_808_877)"/>
<path d="M28.8618 47.3608C28.6445 46.8911 28.0466 47.3716 27.5707 47.558C27.1656 47.7167 26.734 48.1095 26.4421 48.4126C26.2292 48.6337 26.0905 48.8071 26.0905 48.8071C25.5101 48.7353 25.285 50.2279 25.8924 50.6479C26.4997 51.0678 27.8518 51.604 29.1845 51.5683C29.6675 51.5553 29.9414 51.5184 30.411 51.403C31.6463 51.2365 32.4565 51.5377 33.5741 50.9766C34.6454 50.4387 35.011 49.7474 35.7689 48.8071C37.429 46.7475 38.1937 45.2582 38.6092 42.6273C38.8494 41.1064 39.0142 40.167 38.6092 38.6828C38.096 36.8022 37.1591 35.9504 35.7689 34.6068C34.3636 33.2486 33.4371 32.4488 31.573 31.9113C29.778 31.3938 28.618 31.503 26.7961 31.9113C25.0987 32.2918 24.1699 32.762 22.7293 33.7521C21.2369 34.7779 20.3624 35.4662 19.4371 37.0392C18.2455 39.0651 17.9697 40.6072 18.2106 42.956C18.397 44.7733 18.7471 45.8526 19.7599 47.3608C20.8823 49.0322 22.0411 49.5278 23.6976 50.6479C25.2011 51.6645 27.7644 52.8831 27.7644 52.8831C27.7644 52.8831 30.2174 53.1461 30.411 52.8831C30.6046 52.6202 30.411 51.981 30.411 51.403C29.9414 51.5184 29.6675 51.5553 29.1845 51.5683C27.8518 51.604 26.4997 51.0678 25.8924 50.6479C25.285 50.2279 25.5101 48.7353 26.0905 48.8071C26.0905 48.8071 25.0673 48.5323 24.4722 48.2154C23.0339 47.4496 22.3607 46.6025 21.6319 45.1255C20.8634 43.5679 20.5845 42.4298 20.9218 40.7208C21.2705 38.9544 22.0757 38.065 23.3748 36.842C24.7328 35.5636 25.7464 34.9149 27.5707 34.6068C28.9422 34.3751 29.8015 34.4245 31.1211 34.8697C32.8633 35.4575 33.7594 36.2706 34.8652 37.7624C35.9144 39.1779 36.5505 40.1964 36.5435 41.9699C36.536 43.8886 35.796 45.0081 34.5424 46.4404C33.7037 47.3986 33.1837 48.1037 31.9603 48.4126C30.7734 48.7124 28.8618 47.9525 28.8618 47.9525C28.8618 47.9525 28.9585 47.5698 28.8618 47.3608Z" fill="url(#paint19_radial_808_877)"/>
<path d="M27.5707 47.558C28.0466 47.3716 28.6445 46.8911 28.8618 47.3608C28.8618 47.3608 29.8828 46.3412 30.411 45.5857C31.2089 44.4446 31.9256 43.7647 31.9603 42.3644C32.0004 40.7458 31.4754 39.4739 30.0883 38.6828C28.5297 37.7939 26.9477 38.2485 25.5696 39.406C24.0496 40.6827 23.8813 42.3486 24.1495 44.3366C24.3947 46.154 26.4421 48.4126 26.4421 48.4126C26.734 48.1095 27.1656 47.7167 27.5707 47.558Z" fill="url(#paint20_radial_808_877)"/>
<path d="M28.8618 47.3608C28.9585 47.5698 28.8618 47.9525 28.8618 47.9525C28.8618 47.9525 30.7734 48.7124 31.9603 48.4126C33.1837 48.1037 33.7037 47.3986 34.5424 46.4404C35.796 45.0081 36.536 43.8886 36.5435 41.9699C36.5505 40.1964 35.9144 39.1779 34.8652 37.7624C33.7594 36.2706 32.8633 35.4575 31.1211 34.8697C29.8015 34.4245 28.9422 34.3751 27.5707 34.6068C25.7464 34.9149 24.7328 35.5636 23.3748 36.842C22.0757 38.065 21.2705 38.9544 20.9218 40.7208C20.5845 42.4298 20.8634 43.5679 21.6319 45.1255C22.3607 46.6025 23.0339 47.4496 24.4722 48.2154C25.0673 48.5323 26.0905 48.8071 26.0905 48.8071C26.0905 48.8071 26.2292 48.6337 26.4421 48.4126C26.4421 48.4126 24.3947 46.154 24.1495 44.3366C23.8813 42.3486 24.0496 40.6827 25.5696 39.406C26.9477 38.2485 28.5297 37.7939 30.0883 38.6828C31.4754 39.4739 32.0004 40.7458 31.9603 42.3644C31.9256 43.7647 31.2089 44.4446 30.411 45.5857C29.8828 46.3412 28.8618 47.3608 28.8618 47.3608Z" fill="url(#paint21_radial_808_877)"/>
<path d="M25.8276 19.4203C25.9118 19.8752 25.8195 20.2804 25.7314 20.6669C25.6142 21.1807 25.5047 21.6613 25.8276 22.1815C26.0939 22.6103 26.4285 22.7766 26.8028 22.9625C27.0056 23.0632 27.22 23.1698 27.4414 23.327C27.4414 22.1864 27.7521 21.5022 27.4414 20.4064C27.1847 19.5008 26.8605 19.0364 26.2795 18.3027C25.8206 17.7231 25.6549 16.9943 24.9239 16.9878C24.3433 16.9827 24.6825 17.4698 25.1037 18.0746C25.406 18.5086 25.7504 19.0033 25.8276 19.4203Z" fill="url(#paint22_linear_808_877)"/>
<path fill-rule="evenodd" clip-rule="evenodd" d="M30.3463 27.4408C29.3389 29.3525 28.8335 30.8959 26.8605 31.7141C24.7108 32.6056 20.9862 30.7937 20.9862 30.7937C20.9862 30.7937 16.6361 29.6032 15.0474 27.4408C13.3976 25.1953 12.5713 22.9966 13.6272 20.4064C14.4702 18.3386 15.958 17.7317 17.8877 16.6591C19.9333 15.5221 21.3051 14.9019 23.6329 15.0155C25.6235 15.1128 26.8362 15.5031 28.4743 16.6591C30.3558 17.9869 31.5194 19.1707 31.9601 21.4583C32.4182 23.8359 31.4713 25.306 30.3463 27.4408ZM28.4743 27.4408C28.4743 27.4408 28.4097 28.7557 27.4414 29.1501C26.4732 29.5446 23.1762 29.7854 20.728 28.8214C18.2081 27.8293 16.059 26.9622 15.4347 24.2852C14.7651 21.4143 16.5285 19.436 18.7269 17.5138C20.4674 15.9918 21.8583 15.091 24.1493 15.2128C26.3677 15.3307 27.7453 16.1848 29.1844 17.9082C30.606 19.6108 31.3288 21.1185 30.9918 23.327C30.7064 25.1976 28.4743 27.4408 28.4743 27.4408Z" fill="url(#paint23_radial_808_877)"/>
<path d="M28.4743 27.4408C28.4743 27.4408 27.9108 26.6081 27.7642 25.9945C27.6709 25.6041 27.8195 25.2353 27.9594 24.8882C28.1335 24.4563 28.294 24.0581 27.9579 23.6935C27.7896 23.511 27.6678 23.4246 27.4414 23.327C27.22 23.1698 27.0056 23.0632 26.8028 22.9625C26.4285 22.7766 26.0939 22.6103 25.8276 22.1815C25.5047 21.6613 25.6142 21.1807 25.7314 20.6669C25.8195 20.2804 25.9118 19.8752 25.8276 19.4203C25.7504 19.0033 25.406 18.5086 25.1037 18.0746C24.6825 17.4698 24.3433 16.9827 24.9239 16.9878L24.1493 15.2128C21.8583 15.091 20.4674 15.9918 18.7269 17.5138C16.5285 19.436 14.7651 21.4143 15.4347 24.2852C16.059 26.9622 18.2081 27.8293 20.728 28.8214C23.1762 29.7854 26.4732 29.5446 27.4414 29.1501C28.4097 28.7557 28.4743 27.4408 28.4743 27.4408Z" fill="url(#paint24_linear_808_877)"/>
<path d="M27.7642 25.9945C27.9108 26.6081 28.4743 27.4408 28.4743 27.4408C28.4743 27.4408 30.7064 25.1976 30.9918 23.327C31.3288 21.1185 30.606 19.6108 29.1844 17.9082C27.7453 16.1848 26.3677 15.3307 24.1493 15.2128L24.9239 16.9878C25.6549 16.9943 25.8206 17.7231 26.2795 18.3027C26.8605 19.0364 27.1847 19.5008 27.4414 20.4064C27.7521 21.5022 27.4414 22.1864 27.4414 23.327C27.6678 23.4246 27.7896 23.511 27.9579 23.6935C28.294 24.0581 28.1335 24.4563 27.9594 24.8882C27.8195 25.2353 27.6709 25.6041 27.7642 25.9945Z" fill="url(#paint25_linear_808_877)"/>
<path d="M35.7043 14.1609C35.3944 13.6876 35.5752 18.1712 35.7043 20.4722L38.3509 19.6175C39.2762 17.974 41.1396 14.6211 41.1912 14.3581C41.2429 14.0952 40.6103 14.3362 40.2875 14.4896C40.7394 14.0513 41.6689 13.0959 41.7722 12.7803C41.8755 12.4647 41.0406 13.0871 40.6103 13.4377C40.8685 12.8899 41.3849 11.6495 41.3849 11.071C41.3849 10.4925 39.7496 13.5911 38.9319 15.2128C38.9965 14.5773 39.1256 13.1616 39.1256 12.5831C39.1256 12.0045 38.2218 13.9637 37.77 15.0156C37.6624 14.2924 37.3956 12.7935 37.189 12.5831C36.9824 12.3727 36.6726 14.2924 36.5435 15.2785C36.3929 15.1032 36.0141 14.6342 35.7043 14.1609Z" fill="url(#paint26_linear_808_877)"/>
<path d="M42.3534 13.7664C41.9661 14.2924 36.7373 19.8147 36.7373 19.8147L38.6739 22.313C38.6739 22.313 45.3228 20.4722 46.3556 20.2749C47.3885 20.0777 45.9683 19.486 45.9683 19.486C45.9683 19.486 46.872 19.2231 46.6138 18.8286C46.3556 18.4342 44.4113 18.7352 44.3545 18.2369C44.3545 18.2369 48.3567 17.1193 48.2276 16.7906C48.0985 16.4619 47.0657 15.8702 47.0657 15.8702C47.0657 15.8702 48.8732 15.3443 49.1959 15.0156C49.5187 14.6868 48.8732 14.7526 48.8732 14.7526C48.8732 14.7526 50.9426 13.0449 50.0997 12.9118C49.5759 12.8291 48.8732 13.5035 48.8732 13.5035C48.8732 13.5035 48.9485 13.1297 48.8732 12.9118C48.6658 12.3122 47.7112 14.0294 47.7112 14.0294C47.7112 14.0294 47.8296 13.486 47.7112 13.1748C47.4762 12.5566 46.733 13.9739 46.4587 14.5357C46.3972 14.6679 46.3556 14.7526 46.3556 14.7526C46.3556 14.7526 46.3942 14.6678 46.4587 14.5357C46.7252 13.9628 47.3656 12.4981 46.6138 13.1748C45.6886 14.0075 43.7477 15.7124 43.3862 15.8702C43.0247 16.028 44.3545 14.8841 45.0646 14.2924C45.7746 13.7007 44.3545 14.2924 44.3545 14.2924C44.3545 14.2924 45.1625 13.9094 45.0646 13.5035C44.9503 13.0298 43.8381 13.5035 43.8381 13.5035C43.8381 13.5035 43.8815 13.1386 43.8381 12.9118C43.6632 11.9987 42.3534 14.7526 42.3534 14.7526C42.3534 14.7526 42.7407 13.2405 42.3534 13.7664Z" fill="url(#paint27_linear_808_877)"/>
<path d="M37.1893 17.9082C36.4793 18.6314 34.0908 23.8908 34.0908 23.8908L38.1576 24.4167C38.1576 24.4167 42.9345 22.7731 43.3864 22.3787C43.8382 21.9842 41.1916 22.3787 41.1916 22.3787C41.1916 22.3787 43.7091 21.1296 44.2901 20.3407C44.8711 19.5518 39.3067 21.9185 38.9968 21.9185C38.687 21.9185 41.3852 18.6314 40.417 18.8286C39.4656 19.0224 37.2678 19.927 37.1914 20.0084C37.19 20.0124 37.1893 20.0136 37.1893 20.012C37.1893 20.0111 37.19 20.0099 37.1914 20.0084C37.2326 19.8868 37.8771 17.2078 37.1893 17.9082Z" fill="url(#paint28_linear_808_877)"/>
<path d="M38.6091 34.0808C38.6091 34.0808 38.7648 31.5597 39.5128 30.202C40.0896 29.1552 41.1799 29.0522 41.514 27.901C41.8233 26.8352 41.8767 25.9389 41.1912 25.0741C40.423 24.1051 39.3796 24.3192 38.1572 24.2852C36.3322 24.2344 34.8993 24.3268 33.7031 25.7315C32.8932 26.6828 32.5312 27.4989 32.6057 28.7557C32.696 30.277 33.4334 31.1865 34.6714 32.0428C35.6282 32.7046 36.5779 32.2025 37.5117 32.8975C38.0157 33.2725 38.6091 34.0808 38.6091 34.0808Z" fill="url(#paint29_linear_808_877)"/>
<path d="M39.5128 30.202C38.7648 31.5597 38.6091 34.0808 38.6091 34.0808C38.6091 34.0808 41.7559 33.2045 42.9341 31.6484C43.9077 30.3625 44.3419 29.3232 44.2252 27.7038C44.1405 26.5291 43.9159 25.7959 43.1923 24.8769C42.2962 23.7387 39.9647 23.1019 39.9647 23.1019C39.9647 23.1019 36.9458 22.5893 35.1233 23.1019C33.6995 23.5023 32.8149 23.8172 31.7666 24.8769C30.4603 26.1973 29.8945 29.2816 29.8945 29.2816C29.8945 29.2816 30.2443 31.786 31.2501 32.8975C32.4879 34.2653 33.8151 34.4579 35.6397 34.541C36.8115 34.5944 38.6091 34.0808 38.6091 34.0808C38.6091 34.0808 38.0157 33.2725 37.5117 32.8975C36.5779 32.2025 35.6282 32.7046 34.6714 32.0428C33.4334 31.1865 32.696 30.277 32.6057 28.7557C32.5312 27.4989 32.8932 26.6828 33.7031 25.7315C34.8993 24.3268 36.3322 24.2344 38.1572 24.2852C39.3796 24.3192 40.423 24.1051 41.1912 25.0741C41.8767 25.9389 41.8233 26.8352 41.514 27.901C41.1799 29.0522 40.0896 29.1552 39.5128 30.202Z" fill="url(#paint30_linear_808_877)"/>
<path d="M42.9341 31.6484C41.7559 33.2045 38.6091 34.0808 38.6091 34.0808C38.6091 34.0808 42.0303 33.1604 42.7405 33.1604C43.4506 33.1604 43.5273 33.521 44.0315 33.7521C45.1659 32.7508 46.1973 32.5189 46.9364 31.1882C47.6913 29.8288 47.9892 28.7492 47.5819 27.2436C47.1504 25.6485 46.1934 24.949 44.8061 24.088C43.1596 23.0661 39.9647 23.1019 39.9647 23.1019C39.9647 23.1019 42.2962 23.7387 43.1923 24.8769C43.9159 25.7959 44.1405 26.5291 44.2252 27.7038C44.3419 29.3232 43.9077 30.3625 42.9341 31.6484Z" fill="url(#paint31_linear_808_877)"/>
<path d="M31.2501 32.8975C30.2443 31.786 29.8945 29.2816 29.8945 29.2816C29.8945 29.2816 29.6511 32.0621 30.411 33.5549C31.761 36.2072 34.321 36.6358 37.2535 36.7105C39.4794 36.7672 41.0093 36.5587 42.7405 35.1327C43.3089 34.6645 43.6 34.3531 44.0315 33.7521C43.5273 33.521 43.4506 33.1604 42.7405 33.1604C42.0303 33.1604 38.6091 34.0808 38.6091 34.0808C38.6091 34.0808 36.8115 34.5944 35.6397 34.541C33.8151 34.4579 32.4879 34.2653 31.2501 32.8975Z" fill="url(#paint32_linear_808_877)"/>
<defs>
<linearGradient id="paint0_linear_808_877" x1="33.6708" y1="11.4013" x2="33.6708" y2="25.2713" gradientUnits="userSpaceOnUse">
<stop stop-color="#4F8800"/>
<stop offset="1" stop-color="#084200"/>
</linearGradient>
<radialGradient id="paint1_radial_808_877" cx="0" cy="0" r="1" gradientUnits="userSpaceOnUse" gradientTransform="translate(48.2274 22.05) rotate(-88.393) scale(6.90566 6.78157)">
<stop stop-color="#E0C187"/>
<stop offset="1" stop-color="#EEE3C9"/>
</radialGradient>
<radialGradient id="paint2_radial_808_877" cx="0" cy="0" r="1" gradientUnits="userSpaceOnUse" gradientTransform="translate(46.2263 23.825) rotate(-103.932) scale(6.43481 6.33262)">
<stop stop-color="#E0C187"/>
<stop offset="1" stop-color="#EEE3C9"/>
</radialGradient>
<radialGradient id="paint3_radial_808_877" cx="0" cy="0" r="1" gradientUnits="userSpaceOnUse" gradientTransform="translate(46.7427 24.8112) rotate(-39.0924) scale(7.40232 7.43201)">
<stop stop-color="#ECD9B7"/>
<stop offset="1" stop-color="#F1DECB"/>
</radialGradient>
<radialGradient id="paint4_radial_808_877" cx="0" cy="0" r="1" gradientUnits="userSpaceOnUse" gradientTransform="translate(18.7273 30.0705) rotate(-155.095) scale(9.67921 14.6922)">
<stop stop-color="#D8B25A"/>
<stop offset="1" stop-color="#FEF1D8"/>
</radialGradient>
<linearGradient id="paint5_linear_808_877" x1="14.7251" y1="23.6278" x2="5.85203" y2="29.2653" gradientUnits="userSpaceOnUse">
<stop stop-color="#E7BD62"/>
<stop offset="1" stop-color="#F7DFB2"/>
</linearGradient>
<radialGradient id="paint6_radial_808_877" cx="0" cy="0" r="1" gradientUnits="userSpaceOnUse" gradientTransform="translate(58.8786 32.8317) rotate(-120.162) scale(7.45163 11.0324)">
<stop stop-color="#D0A950"/>
<stop offset="1" stop-color="#EED9AC"/>
</radialGradient>
<radialGradient id="paint7_radial_808_877" cx="0" cy="0" r="1" gradientUnits="userSpaceOnUse" gradientTransform="translate(44.6126 31.8456) rotate(-11.9351) scale(6.99374 10.6235)">
<stop stop-color="#AF813D"/>
<stop offset="1" stop-color="#EBDBBE"/>
</radialGradient>
<radialGradient id="paint8_radial_808_877" cx="0" cy="0" r="1" gradientUnits="userSpaceOnUse" gradientTransform="translate(63.01 37.4994) rotate(-130.186) scale(8.00315 11.9205)">
<stop stop-color="#D0A950"/>
<stop offset="1" stop-color="#EED9AC"/>
</radialGradient>
<radialGradient id="paint9_radial_808_877" cx="0" cy="0" r="1" gradientUnits="userSpaceOnUse" gradientTransform="translate(38.8028 32.3715) rotate(9.72525) scale(20.2375 30.7564)">
<stop stop-color="#D0A950"/>
<stop offset="1" stop-color="#EED9AC"/>
</radialGradient>
<radialGradient id="paint10_radial_808_877" cx="0" cy="0" r="1" gradientUnits="userSpaceOnUse" gradientTransform="translate(56.9421 25.9288) rotate(77.5693) scale(9.89612 14.5402)">
<stop stop-color="#D0A950"/>
<stop offset="1" stop-color="#EED9AC"/>
</radialGradient>
<radialGradient id="paint11_radial_808_877" cx="0" cy="0" r="1" gradientUnits="userSpaceOnUse" gradientTransform="translate(58.8786 32.8317) rotate(-120.162) scale(7.45163 11.0324)">
<stop stop-color="#D0A950"/>
<stop offset="1" stop-color="#EED9AC"/>
</radialGradient>
<radialGradient id="paint12_radial_808_877" cx="0" cy="0" r="1" gradientUnits="userSpaceOnUse" gradientTransform="translate(15.8871 36.842) rotate(-140.998) scale(6.89445 7.66731)">
<stop stop-color="#C0995E"/>
<stop offset="1" stop-color="#EBE1CE"/>
</radialGradient>
<radialGradient id="paint13_radial_808_877" cx="0" cy="0" r="1" gradientUnits="userSpaceOnUse" gradientTransform="translate(15.5643 40.3264) rotate(-122.765) scale(9.30359 10.2294)">
<stop stop-color="#C0995E"/>
<stop offset="1" stop-color="#EBE1CE"/>
</radialGradient>
<radialGradient id="paint14_radial_808_877" cx="0" cy="0" r="1" gradientUnits="userSpaceOnUse" gradientTransform="translate(17.8237 38.7485) rotate(-139.43) scale(9.60287 10.6689)">
<stop stop-color="#C0995E"/>
<stop offset="1" stop-color="#EBE1CE"/>
</radialGradient>
<radialGradient id="paint15_radial_808_877" cx="0" cy="0" r="1" gradientUnits="userSpaceOnUse" gradientTransform="translate(17.1781 35.7901) rotate(-153.693) scale(7.41708 8.30845)">
<stop stop-color="#C0995E"/>
<stop offset="1" stop-color="#EBE1CE"/>
</radialGradient>
<linearGradient id="paint16_linear_808_877" x1="46.4206" y1="39.0772" x2="49.0169" y2="37.9938" gradientUnits="userSpaceOnUse">
<stop stop-color="#DBB781"/>
<stop offset="0.584918" stop-color="#E6CEA4"/>
</linearGradient>
<radialGradient id="paint17_radial_808_877" cx="0" cy="0" r="1" gradientUnits="userSpaceOnUse" gradientTransform="translate(45.9687 38.6828) rotate(160.535) scale(14.9939 18.2059)">
<stop stop-color="#E8D7BD"/>
<stop offset="0.584918" stop-color="#CFB68D"/>
</radialGradient>
<radialGradient id="paint18_radial_808_877" cx="0" cy="0" r="1" gradientUnits="userSpaceOnUse" gradientTransform="translate(42.031 40.8523) rotate(-45.6619) scale(19.027 22.7697)">
<stop stop-color="#E0B764"/>
<stop offset="0.584918" stop-color="#F5E6D4"/>
</radialGradient>
<radialGradient id="paint19_radial_808_877" cx="0" cy="0" r="1" gradientUnits="userSpaceOnUse" gradientTransform="translate(28.5391 41.0495) rotate(90) scale(11.8994 11.5036)">
<stop stop-color="#CBA154"/>
<stop offset="1" stop-color="#E4CFA4"/>
</radialGradient>
<radialGradient id="paint20_radial_808_877" cx="0" cy="0" r="1" gradientUnits="userSpaceOnUse" gradientTransform="translate(27.6999 47.821) rotate(80.7059) scale(5.19611 5.02817)">
<stop stop-color="#C4A675"/>
<stop offset="1" stop-color="#E9DCBC"/>
</radialGradient>
<radialGradient id="paint21_radial_808_877" cx="0" cy="0" r="1" gradientUnits="userSpaceOnUse" gradientTransform="translate(28.5391 45.6515) rotate(90) scale(7.2974 7.05469)">
<stop stop-color="#CFB285"/>
<stop offset="1" stop-color="#E9DCBC"/>
</radialGradient>
<linearGradient id="paint22_linear_808_877" x1="27.3769" y1="23.4963" x2="26.4419" y2="20.0863" gradientUnits="userSpaceOnUse">
<stop stop-color="#9E6D1C"/>
<stop offset="1" stop-color="#E1BF8C"/>
</linearGradient>
<radialGradient id="paint23_radial_808_877" cx="0" cy="0" r="1" gradientUnits="userSpaceOnUse" gradientTransform="translate(23.9557 22.5102) rotate(-131.114) scale(11.7803 12.1946)">
<stop stop-color="#EDC779"/>
<stop offset="1" stop-color="#FEEDCD"/>
</radialGradient>
<linearGradient id="paint24_linear_808_877" x1="28.1516" y1="24.1537" x2="17.7318" y2="18.3348" gradientUnits="userSpaceOnUse">
<stop stop-color="#DCC697"/>
<stop offset="1" stop-color="#F4E9D5"/>
</linearGradient>
<linearGradient id="paint25_linear_808_877" x1="27.3769" y1="23.4963" x2="26.4419" y2="20.0863" gradientUnits="userSpaceOnUse">
<stop stop-color="#E8CA9D"/>
<stop offset="1" stop-color="#ECDFBF"/>
</linearGradient>
<linearGradient id="paint26_linear_808_877" x1="38.6571" y1="11" x2="38.6571" y2="20.4722" gradientUnits="userSpaceOnUse">
<stop stop-color="#8BBE76"/>
<stop offset="1" stop-color="#3A6C09"/>
</linearGradient>
<linearGradient id="paint27_linear_808_877" x1="39.5131" y1="20.2092" x2="49.8869" y2="13.6107" gradientUnits="userSpaceOnUse">
<stop stop-color="#498A07"/>
<stop offset="1" stop-color="#76BC27"/>
</linearGradient>
<linearGradient id="paint28_linear_808_877" x1="35.9628" y1="24.4167" x2="41.9779" y2="20.0513" gradientUnits="userSpaceOnUse">
<stop stop-color="#5F890E"/>
<stop offset="1" stop-color="#528706"/>
</linearGradient>
<linearGradient id="paint29_linear_808_877" x1="38.8673" y1="33.8179" x2="35.9312" y2="24.7105" gradientUnits="userSpaceOnUse">
<stop stop-color="#A57435"/>
<stop offset="0.529776" stop-color="#E9D3B2"/>
</linearGradient>
<linearGradient id="paint30_linear_808_877" x1="38.3509" y1="34.0808" x2="35.9458" y2="24.7005" gradientUnits="userSpaceOnUse">
<stop stop-color="#D3B987"/>
<stop offset="0.335876" stop-color="#F1EAD1"/>
</linearGradient>
<linearGradient id="paint31_linear_808_877" x1="41.5785" y1="28.427" x2="45.9693" y2="28.0466" gradientUnits="userSpaceOnUse">
<stop stop-color="#D6B67A"/>
<stop offset="0.529776" stop-color="#F7EAD5"/>
</linearGradient>
<linearGradient id="paint32_linear_808_877" x1="37.2535" y1="36.7763" x2="38.3898" y2="31.657" gradientUnits="userSpaceOnUse">
<stop stop-color="#A57435"/>
<stop offset="0.529776" stop-color="#E9D3B2"/>
</linearGradient>
</defs>
</svg>
