<svg width="64" height="64" viewBox="0 0 64 64" fill="none" xmlns="http://www.w3.org/2000/svg">
<ellipse cx="26.8136" cy="15.7192" rx="6.29088" ry="5.95119" fill="#86110F"/>
<ellipse cx="39.3283" cy="16.1073" rx="7.42859" ry="5.95119" fill="#86110F"/>
<path d="M34.7773 10.2209C33.0373 13.7139 32.8236 18.8889 31.8996 18.8889C30.9755 18.8889 30.4272 13.8765 30.4272 9.76805C30.4272 5.65961 34.3218 3.1053 35.2458 3.1053C38.0566 2.45843 40.0643 4.78716 34.7773 10.2209Z" fill="#5D7F28"/>
<path d="M57.9999 30.5972C57.9999 42.1366 49.227 59.7206 42.4066 59.4475C31.0964 58.9947 37.7888 42.1366 37.7888 30.5972C37.7888 19.0579 42.521 14.5549 48.0282 14.5549C53.5354 14.5549 57.9999 19.0579 57.9999 30.5972Z" fill="#A7100F"/>
<path d="M5.99988 32.9906C6.40143 41.8527 7.00373 54.5313 18.9832 59.3182C29.4444 63.4983 28.0155 41.6838 28.0155 30.1444C28.0155 18.6051 23.2833 14.1021 17.7761 14.1021C12.2689 14.1021 6.53527 21.4117 5.99988 32.9906Z" fill="#A7100F"/>
<path d="M41.6706 33.2494C41.6706 44.7887 38.5252 61 31.6989 61C24.2034 61 21.4595 44.7887 21.4595 33.2494C21.4595 21.71 26.1917 17.207 31.6989 17.207C37.2061 17.207 41.6706 21.71 41.6706 33.2494Z" fill="#B11013"/>
<path d="M25.274 34.0903C25.7066 40.8396 25.7278 47.1665 24.8055 47.2217C23.8833 47.2769 22.7978 39.3299 23.1993 32.4731C24.0693 25.681 26.9618 20.4966 27.884 20.4414C28.8063 20.3861 24.8414 27.3409 25.274 34.0903Z" fill="#F7AAAF"/>
</svg>
