<svg width="64" height="64" viewBox="0 0 64 64" fill="none" xmlns="http://www.w3.org/2000/svg">
<path d="M9.57586 15.3828C8.68464 17.1917 8.61083 19.1657 9.89415 20.874C10.0028 21.0187 10.1319 21.1542 10.276 21.2811C11.5092 22.3663 13.8409 22.8121 13.8409 22.8121C13.8409 22.8121 12.3074 25.316 12.5678 27.0113C12.719 27.9959 13.1835 28.8131 13.7536 29.4662C14.197 29.9741 14.7043 30.3828 15.1778 30.6937C16.2599 31.4043 22.3629 29.5783 26.7635 28.1095C31.0772 26.6698 36.3122 24.4918 37.3944 23.3289C37.6635 23.0398 37.9602 22.6107 38.2531 22.1015C39.138 20.563 39.9885 18.2923 39.9407 16.9333C39.8771 15.1244 38.5711 12.2556 36.3122 10.473C35.2439 9.62997 33.8103 9.19587 32.4291 8.97264C30.4415 8.65139 28.5625 8.76684 28.0367 8.72873C27.1455 8.66413 20.5477 9.18999 16.2599 11.119C13.4414 12.3871 10.4671 13.5739 9.57586 15.3828Z" fill="url(#paint0_linear_185_154)"/>
<path d="M37.3944 23.3289C36.3122 24.4918 31.0772 26.6698 26.7635 28.1095C22.3629 29.5783 16.2599 31.4043 15.1778 30.6937C14.7043 30.3828 14.197 29.9741 13.7536 29.4662C13.7536 29.4662 12.6315 34.699 15.1778 36.2495C17.724 37.8 20.9706 38.9628 23.0077 38.6398C24.1031 38.4661 25.53 37.9187 26.7635 37.3292C27.8237 36.8226 28.7411 36.2848 29.1825 35.9265C30.1373 35.1512 36.3122 30.0476 37.3944 28.6264C38.4766 27.2051 38.9858 25.0086 38.9858 24.4918C38.9858 23.975 38.2531 22.1015 38.2531 22.1015C37.9602 22.6107 37.6635 23.0398 37.3944 23.3289Z" fill="url(#paint1_linear_185_154)"/>
<path d="M15.1778 36.2495C12.6315 34.699 13.7536 29.4662 13.7536 29.4662C13.7536 29.4662 11.8039 30.7583 11.04 31.3397C10.276 31.9211 9.89415 34.1176 9.89415 36.7663C9.89415 37.6891 10.3577 38.5178 11.04 39.2196C12.3159 40.5322 14.3567 41.401 15.5597 41.6115C17.4058 41.9345 20.4058 41.9577 23.0077 40.5779C24.7157 39.672 26.7635 37.3292 26.7635 37.3292C25.53 37.9187 24.1031 38.4661 23.0077 38.6398C20.9706 38.9628 17.724 37.8 15.1778 36.2495Z" fill="url(#paint2_linear_185_154)"/>
<path d="M9.89415 36.7663C9.89415 34.1176 10.276 31.9211 11.04 31.3397L8.23901 27.0113C8.23901 27.0113 4.92879 26.4299 4.22856 27.2697C3.52832 28.1095 3.37006 29.7342 3.52832 31.3397C3.76773 33.7684 4.81879 35.1084 6.5839 36.7663C8.03685 38.1311 11.04 39.2196 11.04 39.2196C10.3577 38.5178 9.89415 37.6891 9.89415 36.7663Z" fill="url(#paint3_linear_185_154)"/>
<path d="M10.276 21.2811C8.51483 20.3702 6.52011 20.1634 4.92877 18.1607C4.12281 17.1464 3.8393 16.0493 3.90463 14.9952C3.90463 14.9952 1.96432 18.5794 2.0005 21.0678C2.03798 23.6455 4.02483 27.063 4.22856 27.2697C4.92879 26.4299 8.23901 27.0113 8.23901 27.0113L10.276 21.2811Z" fill="url(#paint4_linear_185_154)"/>
<path d="M9.89415 20.874C8.61083 19.1657 8.68464 17.1917 9.57586 15.3828C10.4671 13.5739 13.4414 12.3871 16.2599 11.119C20.5477 9.18999 27.1455 8.66413 28.0367 8.72873C28.5625 8.76684 30.4415 8.65139 32.4291 8.97264C32.4291 8.97264 30.7103 6.66144 26.7635 6.08001C22.8167 5.49859 19.5065 8.27651 18.488 8.27651C17.4696 8.27651 12.5678 8.97264 11.613 9.18095C10.6581 9.38926 6.07466 10.473 4.92877 12.1527C4.36323 12.9817 3.9683 13.968 3.90463 14.9952C3.8393 16.0493 4.12281 17.1464 4.92877 18.1607C6.52011 20.1634 8.51483 20.3702 10.276 21.2811C10.1319 21.1542 10.0028 21.0187 9.89415 20.874Z" fill="url(#paint5_linear_185_154)"/>
<path d="M2.38281 21.2617C2.38281 21.2617 3.30538 21.8815 3.97426 21.9077C4.51052 21.9286 5.31108 21.5847 5.31108 21.5847C5.31108 21.5847 4.52774 21.1449 3.97426 21.0678C3.35411 20.9815 2.38281 21.2617 2.38281 21.2617Z" fill="#C2CC96"/>
<path d="M11.4222 29.4016C12.0372 29.493 13.0137 29.4016 13.0137 29.4016V28.368C13.0137 28.368 12.5887 27.4575 12.5681 26.8175C12.5367 25.8432 13.0773 24.4272 13.0773 24.4272C13.0773 24.4272 12.395 23.8204 11.9315 23.5873C10.595 22.9152 8.11203 23.5873 8.11203 23.5873C8.11203 23.5873 7.64284 23.6343 7.34813 23.5873C6.25395 23.413 5.31108 21.5847 5.31108 21.5847C5.31108 21.5847 4.51052 21.9286 3.97426 21.9077C3.30538 21.8815 2.38281 21.2617 2.38281 21.2617C2.38281 21.2617 3.46745 23.9132 4.73816 25.1378C5.71758 26.0817 7.66642 27.0058 7.66642 27.0058C7.66642 27.0058 9.70809 29.1469 11.4222 29.4016Z" fill="url(#paint6_linear_185_154)"/>
<path d="M11.9315 23.5873C12.395 23.8204 13.0773 24.4272 13.0773 24.4272L13.8412 22.8121C13.8412 22.8121 12.2326 22.2378 11.2949 21.9077C11.0721 21.8292 10.7857 21.6493 10.7857 21.6493L10.0218 21.0678C10.0218 21.0678 9.66104 21.6923 9.19421 21.5847C8.72739 21.477 7.76828 21.2617 7.66642 21.2617C7.56457 21.2617 8.01713 21.8653 8.11203 22.2953C8.22071 22.7877 8.11203 23.4323 8.11203 23.5873C8.11203 23.5873 10.595 22.9152 11.9315 23.5873Z" fill="url(#paint7_linear_185_154)"/>
<path d="M13.0137 29.4016C13.0137 29.4016 12.0372 29.493 11.4222 29.4016C9.70809 29.1469 7.66642 27.0058 7.66642 27.0058L7.15716 27.3343C7.15716 27.3343 8.54823 28.2941 9.19421 29.1432C9.90095 30.0722 10.4674 31.8565 10.4674 31.8565C10.4674 31.8565 11.1696 31.3791 11.6769 31.2105C12.2717 31.0127 13.2683 31.0167 13.2683 31.0167L13.7776 29.4662L13.0137 28.368V29.4016Z" fill="url(#paint8_linear_185_154)"/>
<path d="M44.5243 31.0167C45.2218 30.8202 45.5828 31.5335 46.3067 31.5335C47.0306 31.5335 47.485 30.6119 48.0891 31.0167C48.1998 31.0908 48.3437 31.2447 48.3437 31.2447L48.9167 29.7892L46.816 30.0476L46.1157 29.2724C45.7974 29.5523 45.1481 30.1122 45.0972 30.1122C45.0463 30.1122 44.7365 29.94 44.5879 29.8538L44.2696 30.1122L42.2326 29.5954L43.9832 31.2751C43.9832 31.2751 44.2992 31.0801 44.5243 31.0167Z" fill="url(#paint9_linear_185_154)"/>
<path d="M43.4421 31.5335C43.9514 31.5335 43.9832 31.2751 43.9832 31.2751L42.2326 29.5954L44.2696 30.1122C44.2696 30.1122 43.9689 29.7947 43.5229 29.4016C42.9643 28.9094 42.1779 28.2987 41.4687 28.0449C39.9847 27.514 37.4394 28.0449 37.4394 28.0449C38.5177 28.7346 39.581 29.6317 40.9594 30.306C41.7568 30.6961 42.5747 31.2728 43.1238 31.467C43.2437 31.5093 43.3508 31.5335 43.4421 31.5335Z" fill="url(#paint10_linear_185_154)"/>
<path d="M49.1713 31.9857C49.6805 31.9211 50.2535 31.7919 50.8264 30.6937C51.1983 29.9806 50.8995 28.9681 50.9925 28.0449C50.9925 28.0449 50.4444 27.7435 49.9988 27.9157C49.5532 28.088 48.9167 28.4326 48.5347 28.4326C48.1527 28.4326 47.4363 27.9341 46.6886 27.9157C45.3269 27.8822 43.5229 29.4016 43.5229 29.4016C43.9689 29.7947 44.2696 30.1122 44.2696 30.1122L44.5879 29.8538C44.7365 29.94 45.0463 30.1122 45.0972 30.1122C45.1481 30.1122 45.7974 29.5523 46.1157 29.2724L46.816 30.0476L48.9167 29.7892L48.3437 31.2447C48.3437 31.2447 48.662 32.0503 49.1713 31.9857Z" fill="url(#paint11_linear_185_154)"/>
<path d="M50.8264 56.0825C47.7537 57.8617 44.1423 54.6613 42.2326 53.1754C40.3229 51.6896 35.7394 42.5806 34.0207 38.2522C32.5909 34.6515 31.6346 29.3964 32.9385 27.6199C31.2705 29.0229 30.7273 30.1902 30.2012 32.6963C29.8875 38.9634 30.762 42.1825 34.0207 47.4258C37.0544 53.4261 39.367 55.7648 44.8425 57.633C46.4325 57.9089 47.467 58.2984 48.9167 57.633C49.7869 57.2336 50.8264 56.0825 50.8264 56.0825Z" fill="url(#paint12_linear_185_154)"/>
<path d="M50.8264 30.6937C50.2535 31.7919 49.6805 31.9211 49.1713 31.9857C49.5828 32.5887 50.4645 33.7688 50.6991 33.6654C50.9338 33.562 51.7306 33.5362 52.0996 33.5362L52.5452 32.2441V30.0476L52.9272 28.3034L53.7547 29.1432L54.5823 29.8538L54.7733 31.2447L55.3462 31.6627L55.9191 32.2441V33.2778L56.683 33.9496L56.9376 35.1513L57.4468 35.7327L57.6379 36.8309L58.4654 37.3477L58.7837 38.6398L58.5927 39.8026L59.0383 40.1903V41.6761L59.6749 42.2576L59.4203 43.485L60.0569 44.1956V44.9709V46.0691L59.4203 47.1674H58.7837L57.4468 47.8134C56.9376 48.0933 55.8554 48.6532 55.6008 48.6532C55.3462 48.6532 54.0013 48.3517 53.3606 48.201L52.0996 48.3948L50.9925 50.0745L49.9988 51.3665V52.4002L48.0891 53.6922L46.816 52.4002L46.3067 52.8524L45.8611 51.5604L44.8425 51.8834L44.5243 51.3665L44.0151 51.6896L43.5229 50.4621H42.8692L42.2326 49.2993L41.2778 48.6532L41.1505 47.6842L40.1319 46.8443V45.6815L39.559 44.9709L39.0497 43.8726L38.2858 43.485L38.0312 42.0637L37.4583 41.4823L37.14 40.1903L36.5671 39.1566L36.2488 37.9938L35.6122 36.9601L35.3576 35.4097L35.1029 34.376V33.5362L34.4027 32.6317L34.5937 31.7273L33.8934 30.7583L34.5937 29.7892L34.4027 29.1432L35.2303 28.8202L37.0127 30.4353L39.1134 31.5335C39.4741 32.2011 40.2083 33.5362 40.2592 33.5362C40.3102 33.5362 41.0019 33.8118 41.3414 33.9496L42.8692 33.0194L43.1238 31.467C42.5747 31.2728 41.7568 30.6961 40.9594 30.306C39.581 29.6317 38.5177 28.7346 37.4394 28.0449C36.4094 27.3862 35.3658 26.9167 34.0207 27.0113C33.5578 27.0439 33.202 27.2608 32.9385 27.6199C31.6346 29.3964 32.5909 34.6515 34.0207 38.2522C35.7394 42.5806 40.3229 51.6896 42.2326 53.1754C44.1423 54.6613 47.7537 57.8617 50.8264 56.0825C52.1477 55.3175 52.9296 53.407 53.3606 51.8834C53.6951 50.7009 53.8183 49.7515 53.8183 49.7515C53.8183 49.7515 57.1996 50.6067 59.4203 49.7989C59.8593 49.6392 60.2529 49.4145 60.5661 49.1054C62.2752 47.4186 62.1299 45.4254 61.7756 43.0328C61.1271 38.6543 58.0197 32.5671 57.4468 31.5335C56.8739 30.4999 52.9271 25.59 51.6539 26.6883C51.2074 27.0735 51.0428 27.5462 50.9925 28.0449C50.8995 28.9681 51.1983 29.9806 50.8264 30.6937Z" fill="url(#paint13_radial_185_154)"/>
<path d="M46.3067 31.5335C45.5828 31.5335 45.2218 30.8202 44.5243 31.0167C44.2992 31.0801 43.9832 31.2751 43.9832 31.2751C43.9832 31.2751 43.9514 31.5335 43.4421 31.5335C43.3508 31.5335 43.2437 31.5093 43.1238 31.467L42.8692 33.0194L41.3414 33.9496L40.9594 34.1822L40.5775 35.7327L41.4687 37.4123L42.6146 37.6708V38.446L43.5229 38.2522L43.9832 39.1566H44.779L46.1157 40.1903H47.198L47.8345 40.9655H48.5347L49.617 43.8726L50.8264 47.8134L49.9989 48.6532L48.9167 49.1054L49.1713 51.1727L48.3437 51.5604L48.9167 52.594L48.0891 53.6922L49.9988 52.4002V51.3665L50.9925 50.0745L52.0996 48.3948L53.3606 48.201C54.0013 48.3517 55.3462 48.6532 55.6008 48.6532C55.8554 48.6532 56.9376 48.0933 57.4468 47.8134L56.492 46.8443L54.7733 47.6842L54.3276 46.8443L52.0996 47.1674L50.8264 44.3894V40.9655L51.6539 39.8026L52.8635 39.1566L52.3543 38.446L53.3606 38.0584L53.1818 37.1539L52.8635 35.7327L52.0996 34.376V33.5362C51.7306 33.5362 50.9338 33.562 50.6991 33.6654C50.4645 33.7688 49.5828 32.5887 49.1713 31.9857C48.662 32.0503 48.3437 31.2447 48.3437 31.2447C48.3437 31.2447 48.1998 31.0908 48.0891 31.0167C47.485 30.6119 47.0306 31.5335 46.3067 31.5335Z" fill="url(#paint14_linear_185_154)"/>
<path d="M40.5775 35.7327L40.9594 34.1822L41.3414 33.9496C41.0019 33.8118 40.3102 33.5362 40.2592 33.5362C40.2083 33.5362 39.4741 32.2011 39.1134 31.5335L37.0127 30.4353L35.2303 28.8202L34.4027 29.1432L34.5937 29.7892L33.8934 30.7583L34.5937 31.7273L34.4027 32.6317L35.1029 33.5362V34.376L35.3576 35.4097L35.6122 36.9601L36.2488 37.9938L36.5671 39.1566L37.14 40.1903L37.4583 41.4823L38.0312 42.0637L38.2858 43.485L39.0497 43.8726L39.559 44.9709L40.1319 45.6815V46.8443L41.1505 47.6842L41.2778 48.6532L42.2326 49.2993L42.8692 50.4621H43.5229L44.0151 51.6896L44.5243 51.3665L44.8425 51.8834L45.8611 51.5604L46.3067 52.8524L46.816 52.4002L48.0891 53.6922L48.9167 52.594L48.3437 51.5604L49.1713 51.1727L48.9167 49.1054L49.9989 48.6532L50.8264 47.8134L49.617 43.8726L48.5347 40.9655H47.8345L47.198 40.1903H46.1157L44.779 39.1566H43.9832L43.5229 38.2522L42.6146 38.446V37.6708L41.4687 37.4123L40.5775 35.7327Z" fill="url(#paint15_linear_185_154)"/>
<path d="M52.0996 33.5362V34.376L52.8635 35.7327L53.1818 37.1539L53.3606 38.0584L52.3543 38.446L52.8635 39.1566L51.6539 39.8026L50.8264 40.9655V44.3894L52.0996 47.1674L54.3276 46.8443L54.7733 47.6842L56.492 46.8443L57.4468 47.8134L58.7837 47.1674H59.4203L60.0569 46.0691V44.9709V44.1956L59.4203 43.485L59.6749 42.2576L59.0383 41.6761V40.1903L58.5927 39.8026L58.7837 38.6398L58.4654 37.3477L57.6379 36.8309L57.4468 35.7327L56.9376 35.1513L56.683 33.9496L55.9191 33.2778V32.2441L55.3462 31.6627L54.7733 31.2447L54.5823 29.8538L53.7547 29.1432L52.9272 28.3034L52.5452 30.0476V32.2441L52.0996 33.5362Z" fill="url(#paint16_linear_185_154)"/>
<path d="M53.8183 49.7515C53.8183 49.7515 53.6951 50.7009 53.3606 51.8834C54.2771 51.9049 55.1059 52.1454 56.1737 51.8834C57.632 51.5255 58.3593 50.4722 59.4203 49.7989C57.1996 50.6067 53.8183 49.7515 53.8183 49.7515Z" fill="#8D1B01"/>
<path d="M39.878 35.668C40.2411 35.5355 40.8965 36.1849 40.8965 36.1849C40.8965 36.1849 40.9223 37.3212 40.3236 37.4123C39.8935 37.4778 39.5213 37.2442 39.3687 36.8309C39.1969 36.3655 39.4172 35.8362 39.878 35.668Z" fill="url(#paint17_linear_185_154)"/>
<path d="M40.361 33.9996C40.7432 34.0542 41.0248 34.9387 41.0248 34.9387C41.0248 34.9387 40.5257 35.9562 39.9542 35.7536C39.5436 35.6081 39.3216 35.2254 39.3764 34.7876C39.4381 34.2946 39.8761 33.9304 40.361 33.9996Z" fill="url(#paint18_linear_185_154)"/>
<path d="M40.4893 37.4121C40.7216 37.0994 41.6204 37.2784 41.6204 37.2784C41.6204 37.2784 42.2552 38.2148 41.8035 38.6238C41.479 38.9176 41.0415 38.9291 40.6908 38.6681C40.2959 38.3742 40.1945 37.8089 40.4893 37.4121Z" fill="url(#paint19_linear_185_154)"/>
<path d="M41.8451 38.3713C42.0523 38.0409 42.9622 38.1471 42.9622 38.1471C42.9622 38.1471 43.6682 39.0295 43.2498 39.4735C42.9493 39.7925 42.5141 39.8391 42.1441 39.6072C41.7275 39.346 41.5823 38.7906 41.8451 38.3713Z" fill="url(#paint20_linear_185_154)"/>
<path d="M43.0111 39.4161C43.2183 39.0856 44.1283 39.1918 44.1283 39.1918C44.1283 39.1918 44.8342 40.0742 44.4159 40.5183C44.1153 40.8373 43.6801 40.8839 43.3101 40.6519C42.8935 40.3907 42.7483 39.8354 43.0111 39.4161Z" fill="url(#paint21_linear_185_154)"/>
<path d="M44.0297 39.2869C44.2369 38.9564 45.1468 39.0626 45.1468 39.0626C45.1468 39.0626 45.8528 39.945 45.4344 40.3891C45.1339 40.708 44.6986 40.7546 44.3287 40.5227C43.9121 40.2615 43.7668 39.7062 44.0297 39.2869Z" fill="url(#paint22_linear_185_154)"/>
<path d="M42.6283 38.3825C42.8355 38.052 43.7454 38.1582 43.7454 38.1582C43.7454 38.1582 44.4514 39.0406 44.033 39.4846C43.7325 39.8036 43.2973 39.8502 42.9273 39.6183C42.5107 39.3571 42.3655 38.8017 42.6283 38.3825Z" fill="url(#paint23_linear_185_154)"/>
<path d="M41.3559 37.478C41.563 37.1475 42.473 37.2537 42.473 37.2537C42.473 37.2537 43.1789 38.1361 42.7606 38.5802C42.46 38.8991 42.0248 38.9457 41.6548 38.7138C41.2382 38.4526 41.093 37.8973 41.3559 37.478Z" fill="url(#paint24_linear_185_154)"/>
<path d="M40.3468 36.3397C40.6641 36.1168 41.4621 36.5731 41.4621 36.5731C41.4621 36.5731 41.7751 37.6644 41.2197 37.9088C40.8207 38.0844 40.4018 37.9559 40.1496 37.5964C39.8655 37.1916 39.9442 36.6225 40.3468 36.3397Z" fill="url(#paint25_linear_185_154)"/>
<path d="M39.7941 35.1761C40.1114 34.9532 40.9094 35.4095 40.9094 35.4095C40.9094 35.4095 41.2224 36.5008 40.667 36.7452C40.268 36.9208 39.8491 36.7923 39.5968 36.4328C39.3128 36.028 39.3914 35.4589 39.7941 35.1761Z" fill="url(#paint26_linear_185_154)"/>
<path d="M47.1875 42.2481C47.2628 41.864 48.1489 41.6288 48.1489 41.6288C48.1489 41.6288 49.1217 42.1922 48.89 42.7598C48.7235 43.1675 48.3344 43.3708 47.9068 43.2904C47.4253 43.1999 47.0919 42.7355 47.1875 42.2481Z" fill="url(#paint27_linear_185_154)"/>
<path d="M45.914 41.8606C45.9893 41.4765 46.8755 41.2413 46.8755 41.2413C46.8755 41.2413 47.8482 41.8047 47.6165 42.3723C47.4501 42.78 47.061 42.9833 46.6333 42.9029C46.1519 42.8124 45.8185 42.348 45.914 41.8606Z" fill="url(#paint28_linear_185_154)"/>
<path d="M44.7685 41.3438C44.8438 40.9596 45.73 40.7245 45.73 40.7245C45.73 40.7245 46.7027 41.2879 46.471 41.8554C46.3046 42.2632 45.9154 42.4664 45.4878 42.3861C45.0063 42.2956 44.6729 41.8312 44.7685 41.3438Z" fill="url(#paint29_linear_185_154)"/>
<path d="M44.9203 39.9329C45.1275 39.6025 46.0374 39.7086 46.0374 39.7086C46.0374 39.7086 46.7434 40.5911 46.325 41.0351C46.0245 41.3541 45.5893 41.4007 45.2193 41.1688C44.8027 40.9076 44.6575 40.3522 44.9203 39.9329Z" fill="url(#paint30_linear_185_154)"/>
<path d="M46.1738 41.0031C46.2491 40.619 47.1352 40.3838 47.1352 40.3838C47.1352 40.3838 48.108 40.9472 47.8763 41.5148C47.7098 41.9225 47.3207 42.1258 46.8931 42.0454C46.4116 41.9549 46.0782 41.4905 46.1738 41.0031Z" fill="url(#paint31_linear_185_154)"/>
<path d="M47.5693 41.473C47.6446 41.0888 48.5307 40.8537 48.5307 40.8537C48.5307 40.8537 49.5035 41.4171 49.2718 41.9847C49.1054 42.3924 48.7162 42.5957 48.2886 42.5153C47.8071 42.4248 47.4737 41.9604 47.5693 41.473Z" fill="url(#paint32_linear_185_154)"/>
<path d="M51.1455 41.0519C50.9131 40.7391 51.33 39.9115 51.33 39.9115C51.33 39.9115 52.3918 39.5497 52.6549 40.103C52.844 40.5004 52.7345 40.9304 52.3908 41.2008C52.0037 41.5052 51.4403 41.4486 51.1455 41.0519Z" fill="url(#paint33_linear_185_154)"/>
<path d="M51.7822 40.0182C51.5498 39.7054 51.9667 38.8778 51.9667 38.8778C51.9667 38.8778 53.0285 38.516 53.2917 39.0693C53.4807 39.4667 53.3712 39.8967 53.0275 40.1671C52.6405 40.4716 52.077 40.4149 51.7822 40.0182Z" fill="url(#paint34_linear_185_154)"/>
<path d="M52.4189 39.1137C52.1866 38.801 52.6034 37.9733 52.6034 37.9733C52.6034 37.9733 53.6652 37.6115 53.9284 38.1648C54.1174 38.5622 54.0079 38.9923 53.6642 39.2626C53.2772 39.5671 52.7137 39.5105 52.4189 39.1137Z" fill="url(#paint35_linear_185_154)"/>
<path d="M59.0489 41.6663C59.3765 41.8734 59.2807 42.7978 59.2807 42.7978C59.2807 42.7978 58.418 43.5227 57.9765 43.1025C57.6593 42.8006 57.6091 42.3594 57.8341 41.9817C58.0874 41.5564 58.6332 41.4036 59.0489 41.6663Z" fill="url(#paint36_linear_185_154)"/>
<path d="M51.5316 44.0058C51.1457 44.0002 50.7572 43.1585 50.7572 43.1585C50.7572 43.1585 51.1269 42.0855 51.7189 42.2139C52.1442 42.3061 52.4117 42.6576 52.4113 43.0989C52.4109 43.5959 52.0213 44.0128 51.5316 44.0058Z" fill="url(#paint37_linear_185_154)"/>
<path d="M39.4281 47.8202C39.4816 47.4323 40.353 47.1459 40.353 47.1459C40.353 47.1459 41.356 47.6518 41.1568 48.2319C41.0136 48.6486 40.6366 48.8742 40.2052 48.8189C39.7194 48.7566 39.3603 48.3123 39.4281 47.8202Z" fill="url(#paint38_linear_185_154)"/>
<defs>
<linearGradient id="paint0_linear_185_154" x1="21.7345" y1="9.56856" x2="28.3356" y2="28.6315" gradientUnits="userSpaceOnUse">
<stop stop-color="#D04018"/>
<stop offset="1" stop-color="#600400"/>
</linearGradient>
<linearGradient id="paint1_linear_185_154" x1="13.3953" y1="30.6937" x2="27.6629" y2="32.7021" gradientUnits="userSpaceOnUse">
<stop stop-color="#A01A00"/>
<stop offset="1" stop-color="#2D0201"/>
</linearGradient>
<linearGradient id="paint2_linear_185_154" x1="12.1221" y1="30.4352" x2="23.2894" y2="40.9304" gradientUnits="userSpaceOnUse">
<stop stop-color="#8B1600"/>
<stop offset="1" stop-color="#690E00"/>
</linearGradient>
<linearGradient id="paint3_linear_185_154" x1="9.32116" y1="28.9494" x2="4.01289" y2="35.0093" gradientUnits="userSpaceOnUse">
<stop stop-color="#941900"/>
<stop offset="1" stop-color="#992103"/>
</linearGradient>
<linearGradient id="paint4_linear_185_154" x1="9.76677" y1="23.9104" x2="1.89993" y2="20.5071" gradientUnits="userSpaceOnUse">
<stop stop-color="#950A03"/>
<stop offset="1" stop-color="#AD1A05"/>
</linearGradient>
<linearGradient id="paint5_linear_185_154" x1="6.52021" y1="17.3209" x2="29.4793" y2="7.49014" gradientUnits="userSpaceOnUse">
<stop stop-color="#B81800"/>
<stop offset="1" stop-color="#D74622"/>
</linearGradient>
<linearGradient id="paint6_linear_185_154" x1="4.13071" y1="21.9723" x2="12.9901" y2="27.2212" gradientUnits="userSpaceOnUse">
<stop stop-color="#5F6823"/>
<stop offset="1" stop-color="#161805"/>
</linearGradient>
<linearGradient id="paint7_linear_185_154" x1="8.11203" y1="21.0513" x2="13.8346" y2="24.6317" gradientUnits="userSpaceOnUse">
<stop stop-color="#232C00"/>
<stop offset="1" stop-color="#1E2108"/>
</linearGradient>
<linearGradient id="paint8_linear_185_154" x1="7.6265" y1="28.4972" x2="13.8387" y2="30.5722" gradientUnits="userSpaceOnUse">
<stop stop-color="#31480C"/>
<stop offset="1" stop-color="#151704"/>
</linearGradient>
<linearGradient id="paint9_linear_185_154" x1="45.6702" y1="29.337" x2="46.1288" y2="32.2421" gradientUnits="userSpaceOnUse">
<stop stop-color="#375601"/>
<stop offset="1" stop-color="#879A5B"/>
</linearGradient>
<linearGradient id="paint10_linear_185_154" x1="38.4768" y1="27.7219" x2="43.4869" y2="31.0131" gradientUnits="userSpaceOnUse">
<stop stop-color="#5A1207"/>
<stop offset="1" stop-color="#993E2D"/>
</linearGradient>
<linearGradient id="paint11_linear_185_154" x1="47.5162" y1="27.5927" x2="47.844" y2="31.8558" gradientUnits="userSpaceOnUse">
<stop stop-color="#D65228"/>
<stop offset="1" stop-color="#AF4208"/>
</linearGradient>
<linearGradient id="paint12_linear_185_154" x1="32.7476" y1="28.2388" x2="48.0601" y2="57.8381" gradientUnits="userSpaceOnUse">
<stop stop-color="#8D0F00"/>
<stop offset="1" stop-color="#B8390B"/>
</linearGradient>
<radialGradient id="paint13_radial_185_154" cx="0" cy="0" r="1" gradientUnits="userSpaceOnUse" gradientTransform="translate(50.5718 44.3248) rotate(64.4402) scale(17.115 17.4224)">
<stop stop-color="#CDB09A"/>
<stop offset="1" stop-color="#AB370F"/>
</radialGradient>
<linearGradient id="paint14_linear_185_154" x1="46.1158" y1="30.8229" x2="52.3238" y2="48.2731" gradientUnits="userSpaceOnUse">
<stop stop-color="#DFDED5"/>
<stop offset="1" stop-color="#C1876B"/>
</linearGradient>
<linearGradient id="paint15_linear_185_154" x1="46.1158" y1="37.6062" x2="36.4815" y2="40.3724" gradientUnits="userSpaceOnUse">
<stop stop-color="#6C1B05"/>
<stop offset="1" stop-color="#3A0200"/>
</linearGradient>
<linearGradient id="paint16_linear_185_154" x1="56.6193" y1="37.3477" x2="51.0493" y2="40.0605" gradientUnits="userSpaceOnUse">
<stop stop-color="#8D2C1F"/>
<stop offset="1" stop-color="#4A1106"/>
</linearGradient>
<linearGradient id="paint17_linear_185_154" x1="40.6419" y1="36.2495" x2="39.5516" y2="36.8815" gradientUnits="userSpaceOnUse">
<stop stop-color="#D9BDA4"/>
<stop offset="1" stop-color="#D9AF7F"/>
</linearGradient>
<linearGradient id="paint18_linear_185_154" x1="40.7699" y1="34.8754" x2="39.5156" y2="34.9333" gradientUnits="userSpaceOnUse">
<stop stop-color="#D9BDA4"/>
<stop offset="1" stop-color="#D9AF7F"/>
</linearGradient>
<linearGradient id="paint19_linear_185_154" x1="41.4422" y1="37.4739" x2="40.8721" y2="38.6093" gradientUnits="userSpaceOnUse">
<stop stop-color="#D9BDA4"/>
<stop offset="1" stop-color="#D9AF7F"/>
</linearGradient>
<linearGradient id="paint20_linear_185_154" x1="42.7999" y1="38.3564" x2="42.3221" y2="39.5347" gradientUnits="userSpaceOnUse">
<stop stop-color="#D9BDA4"/>
<stop offset="1" stop-color="#D9AF7F"/>
</linearGradient>
<linearGradient id="paint21_linear_185_154" x1="43.9659" y1="39.4011" x2="43.4881" y2="40.5795" gradientUnits="userSpaceOnUse">
<stop stop-color="#D9BDA4"/>
<stop offset="1" stop-color="#D9AF7F"/>
</linearGradient>
<linearGradient id="paint22_linear_185_154" x1="44.9845" y1="39.2719" x2="44.5067" y2="40.4503" gradientUnits="userSpaceOnUse">
<stop stop-color="#D9BDA4"/>
<stop offset="1" stop-color="#D9AF7F"/>
</linearGradient>
<linearGradient id="paint23_linear_185_154" x1="43.5831" y1="38.3675" x2="43.1053" y2="39.5458" gradientUnits="userSpaceOnUse">
<stop stop-color="#D9BDA4"/>
<stop offset="1" stop-color="#D9AF7F"/>
</linearGradient>
<linearGradient id="paint24_linear_185_154" x1="42.3106" y1="37.463" x2="41.8329" y2="38.6414" gradientUnits="userSpaceOnUse">
<stop stop-color="#D9BDA4"/>
<stop offset="1" stop-color="#D9AF7F"/>
</linearGradient>
<linearGradient id="paint25_linear_185_154" x1="41.2324" y1="36.702" x2="40.3373" y2="37.5957" gradientUnits="userSpaceOnUse">
<stop stop-color="#D9BDA4"/>
<stop offset="1" stop-color="#D9AF7F"/>
</linearGradient>
<linearGradient id="paint26_linear_185_154" x1="40.6797" y1="35.5384" x2="39.7846" y2="36.4322" gradientUnits="userSpaceOnUse">
<stop stop-color="#D9BDA4"/>
<stop offset="1" stop-color="#D9AF7F"/>
</linearGradient>
<linearGradient id="paint27_linear_185_154" x1="48.0722" y1="41.8835" x2="48.0594" y2="43.1576" gradientUnits="userSpaceOnUse">
<stop stop-color="#D9BDA4"/>
<stop offset="1" stop-color="#D9AF7F"/>
</linearGradient>
<linearGradient id="paint28_linear_185_154" x1="46.7988" y1="41.496" x2="46.786" y2="42.7701" gradientUnits="userSpaceOnUse">
<stop stop-color="#D9BDA4"/>
<stop offset="1" stop-color="#D9AF7F"/>
</linearGradient>
<linearGradient id="paint29_linear_185_154" x1="45.6532" y1="40.9792" x2="45.6405" y2="42.2533" gradientUnits="userSpaceOnUse">
<stop stop-color="#D9BDA4"/>
<stop offset="1" stop-color="#D9AF7F"/>
</linearGradient>
<linearGradient id="paint30_linear_185_154" x1="45.8751" y1="39.9179" x2="45.3973" y2="41.0963" gradientUnits="userSpaceOnUse">
<stop stop-color="#D9BDA4"/>
<stop offset="1" stop-color="#D9AF7F"/>
</linearGradient>
<linearGradient id="paint31_linear_185_154" x1="47.0585" y1="40.6385" x2="47.0457" y2="41.9126" gradientUnits="userSpaceOnUse">
<stop stop-color="#D9BDA4"/>
<stop offset="1" stop-color="#D9AF7F"/>
</linearGradient>
<linearGradient id="paint32_linear_185_154" x1="48.454" y1="41.1084" x2="48.4413" y2="42.3825" gradientUnits="userSpaceOnUse">
<stop stop-color="#D9BDA4"/>
<stop offset="1" stop-color="#D9AF7F"/>
</linearGradient>
<linearGradient id="paint33_linear_185_154" x1="51.4662" y1="40.1391" x2="52.4073" y2="40.9827" gradientUnits="userSpaceOnUse">
<stop stop-color="#D9BDA4"/>
<stop offset="1" stop-color="#D9AF7F"/>
</linearGradient>
<linearGradient id="paint34_linear_185_154" x1="52.103" y1="39.1054" x2="53.0441" y2="39.949" gradientUnits="userSpaceOnUse">
<stop stop-color="#D9BDA4"/>
<stop offset="1" stop-color="#D9AF7F"/>
</linearGradient>
<linearGradient id="paint35_linear_185_154" x1="52.7397" y1="38.2009" x2="53.6808" y2="39.0446" gradientUnits="userSpaceOnUse">
<stop stop-color="#D9BDA4"/>
<stop offset="1" stop-color="#D9AF7F"/>
</linearGradient>
<linearGradient id="paint36_linear_185_154" x1="59.0729" y1="42.6351" x2="57.8981" y2="42.1855" gradientUnits="userSpaceOnUse">
<stop stop-color="#D9BDA4"/>
<stop offset="1" stop-color="#D9AF7F"/>
</linearGradient>
<linearGradient id="paint37_linear_185_154" x1="51.018" y1="43.1889" x2="52.256" y2="42.9765" gradientUnits="userSpaceOnUse">
<stop stop-color="#D9BDA4"/>
<stop offset="1" stop-color="#D9AF7F"/>
</linearGradient>
<linearGradient id="paint38_linear_185_154" x1="40.2908" y1="47.4047" x2="40.3522" y2="48.6773" gradientUnits="userSpaceOnUse">
<stop stop-color="#D9BDA4"/>
<stop offset="1" stop-color="#D9AF7F"/>
</linearGradient>
</defs>
</svg>
