<svg width="64" height="64" viewBox="0 0 64 64" fill="none" xmlns="http://www.w3.org/2000/svg">
<path d="M9.99401 50.0712C9.37195 49.9301 8.502 50.7567 8.502 50.7567C8.502 50.7567 9.27945 50.8035 9.75529 50.9436C10.2974 51.1033 10.5262 51.4069 11.0683 51.5668C11.5218 51.7006 11.8211 51.5794 12.2619 51.7537C12.9428 52.0229 13.6942 53 13.6942 53L13.0377 51.7537C13.0377 51.7537 12.7484 51.3928 12.5006 51.2552C12.0067 50.9809 11.0683 51.2552 11.0683 51.2552C11.0683 51.2552 10.5901 50.2065 9.99401 50.0712Z" fill="#E5A66A"/>
<path d="M24.9737 48.1395L26.4658 48.451C26.4658 48.451 25.9147 47.5356 25.3915 47.1424C24.6794 46.6074 23.243 46.457 23.243 46.457L24.9737 48.1395Z" fill="#9F6050"/>
<path d="M22.7656 49.4481C23.3073 48.8753 24.2252 48.3141 24.9737 48.1395L23.243 46.457L22.0494 45.7715C22.0494 45.7715 22.7507 47.2885 22.7656 47.9525C22.7779 48.5013 22.4746 48.7535 22.2881 49.2668C22.4746 49.3376 22.6262 49.5955 22.7656 49.4481Z" fill="#73402F"/>
<path d="M6.35352 47.1424C6.35352 47.1424 6.89064 49.7596 7.18904 49.8843C7.48744 50.0089 7.82569 49.1472 8.26328 49.3234C8.77091 49.5279 8.502 50.7567 8.502 50.7567C8.502 50.7567 9.37195 49.9301 9.99401 50.0712C10.5901 50.2065 11.0683 51.2552 11.0683 51.2552C11.0683 51.2552 12.0067 50.9809 12.5006 51.2552C12.7484 51.3928 13.0377 51.7537 13.0377 51.7537L14.7087 49.4481C14.4103 48.7626 11.9038 46.457 11.9038 46.457L6.35352 47.1424Z" fill="#8F573B"/>
<path d="M14.7087 49.4481C15.9906 49.4481 16.7473 49.7717 17.9912 49.4481C18.8821 49.2163 19.2219 48.4789 20.1396 48.451C21.0321 48.4239 21.6208 48.6475 22.2881 49.2668C22.4746 48.7535 22.7779 48.5013 22.7656 47.9525C22.7507 47.2885 22.0494 45.7715 22.0494 45.7715L11.9038 46.457C11.9038 46.457 14.4103 48.7626 14.7087 49.4481Z" fill="#AB412C"/>
<path d="M21.751 21.4065C21.751 21.4065 23.7041 17.0809 25.7496 14.9881C28.0107 12.6747 32.0757 11 32.8515 11C33.6273 11 37.2685 12.0069 39.5357 13.9288C41.6528 15.7234 42.5221 17.1939 43.773 19.724C44.7266 21.6528 45.5634 24.9585 45.5634 24.9585L29.4497 38.543L21.751 21.4065Z" fill="url(#paint0_linear_192_917)"/>
<path d="M14.4697 47.1424C16.7972 45.9584 16.1226 47.8764 17.0956 48.1395C19.6022 47.454 18.528 47.5163 20.02 48.0148C20.8375 48.288 21.614 45.926 22.2281 46.2566C22.2281 46.2566 21.4547 44.9171 20.9152 44.089C19.9895 42.6684 19.0634 42.1472 18.3489 40.5994C17.5015 38.7636 17.3344 35.4896 17.3344 35.4896C17.3344 35.4896 17.1181 30.2409 17.3344 26.8902C17.4431 25.2063 16.1631 22.2813 17.7521 22.5905C18.1011 22.6584 18.5876 22.9644 18.5876 22.9644C18.5876 22.9644 18.4184 21.454 17.7521 21.4065C17.2219 21.3687 16.6779 22.2789 16.6779 22.2789C16.6779 22.2789 16.0084 21.3317 15.4246 21.4065C14.647 21.5061 14.6487 23.3383 14.6487 23.3383C14.6487 23.3383 15.3095 22.7028 15.8423 22.5905C17.4292 22.2559 16.1956 25.2048 16.3198 26.8902C16.5666 30.2386 16.6078 32.1448 16.3198 35.4896C16.1149 37.8686 16.0468 39.2356 15.4246 41.5341C14.8564 43.6329 13.4064 46.7062 13.4064 46.7062C13.976 46.1699 13.6151 47.5771 14.4697 47.1424Z" fill="#F9870E"/>
<path d="M7.99012 48.3477C7.31484 47.9914 6.86709 47.3947 6.23383 46.7062C4.67995 45.0167 4.36323 43.5158 3.9063 41.2225C3.3549 38.4551 3.75818 36.7709 4.26438 33.9941C4.78946 31.1137 5.39988 29.545 6.59191 26.8902C7.77285 24.2601 8.57093 22.8162 10.2921 20.5341C11.4637 18.9807 11.9373 17.7293 13.5576 16.8082C12.9989 17.1196 10.8565 18.3445 9.63561 19.4748C7.7033 21.2636 6.95116 22.6639 5.69672 25.0208C4.16747 27.894 3.64142 29.7276 2.95143 32.9347C2.32977 35.8242 1.67928 37.5589 2.17558 40.4748C2.62448 43.1121 2.98432 44.9494 4.92087 46.7062C5.73427 47.4441 7.09969 48.0229 7.99012 48.3477Z" fill="url(#paint1_linear_192_917)"/>
<path d="M20.199 17.4807C18.7867 16.6455 17.9422 15.8724 16.3198 15.9228C15.251 15.9561 14.6452 16.2231 13.6939 16.7329C13.6939 16.7329 13.6452 16.7593 13.5576 16.8082C11.9373 17.7293 11.4637 18.9807 10.2921 20.5341C8.57093 22.8162 7.77285 24.2601 6.59191 26.8902C5.39988 29.545 4.78946 31.1137 4.26438 33.9941C3.75818 36.7709 3.3549 38.4551 3.9063 41.2225C4.36323 43.5158 4.67995 45.0167 6.23383 46.7062C6.86709 47.3947 7.31484 47.9914 7.99012 48.3477C8.50406 48.5351 8.85976 48.638 8.85976 48.638C9.99722 48.8359 10.6536 48.3371 11.7244 47.8902C12.4504 47.5872 12.938 47.1474 13.4064 46.7062C13.4064 46.7062 14.8564 43.6329 15.4246 41.5341C16.0468 39.2356 16.1149 37.8686 16.3198 35.4896C16.6078 32.1448 16.5666 30.2386 16.3198 26.8902C16.1956 25.2048 17.4292 22.2559 15.8423 22.5905C15.3095 22.7028 14.6487 23.3383 14.6487 23.3383C14.6487 23.3383 14.647 21.5061 15.4246 21.4065C16.0084 21.3317 16.6779 22.2789 16.6779 22.2789C16.6779 22.2789 17.2219 21.3687 17.7521 21.4065C18.4184 21.454 18.5876 22.9644 18.5876 22.9644C18.5876 22.9644 18.1011 22.6584 17.7521 22.5905C16.1631 22.2813 17.4431 25.2063 17.3344 26.8902C17.1181 30.2409 17.3344 35.4896 17.3344 35.4896C17.3344 35.4896 17.5015 38.7636 18.3489 40.5994C19.0634 42.1472 19.9895 42.6684 20.9152 44.089C21.4547 44.9171 22.2281 46.2566 22.2281 46.2566C22.6953 46.5081 23.1866 46.7077 23.8395 46.7062C24.9475 46.7036 25.6492 46.5781 26.5848 45.9584C28.1515 44.9208 28.1567 43.3754 28.7333 41.5341C29.6482 38.6123 29.5917 36.7382 29.2704 33.6825C28.869 29.865 28.0583 27.6915 26.167 24.3976L26.1548 24.3763C24.3714 21.2702 23.222 19.2683 20.199 17.4807Z" fill="url(#paint2_linear_192_917)"/>
<path d="M61.1995 37.9822C61.1995 46.3451 55.6712 52.813 48.1892 52.813C39.5952 53.3116 28.1963 47.5786 28.1963 37.9822C28.1963 28.3857 39.9533 22.8398 48.1892 22.8398C55.6712 22.8398 61.1995 29.6192 61.1995 37.9822Z" fill="url(#paint3_linear_192_917)"/>
<path d="M56.4846 32.6231L59.2896 31.8131L58.8121 28.5104L59.2896 26.9525C59.2896 26.9525 57.8589 24.8911 56.4846 24.6469C56.0021 24.5611 55.682 24.8461 55.2313 24.6469C54.6816 24.4039 54.7918 23.7151 54.2764 23.4006C53.552 22.9586 52.1279 23.4006 52.1279 23.4006C52.1279 23.4006 52.9384 23.5937 53.1425 24.0237C53.308 24.3726 53.0893 24.6354 53.1425 25.0208C53.2444 25.7594 53.8885 26.7656 53.8885 26.7656C53.8885 26.7656 54.3407 27.8301 54.6345 28.5104C54.866 29.0465 55.2587 29.2939 55.2313 29.8813C55.1996 30.5623 54.2764 31.3145 54.2764 31.3145L56.4846 32.6231Z" fill="url(#paint4_linear_192_917)"/>
<path d="M59.2896 31.8131L56.4846 32.6231L54.2764 31.3145L55.8281 33.3086V36.2997L54.6345 38.7923H56.4846L58.275 38.4807L60.1848 40.5371L60.9009 40.724C60.9009 40.724 60.7004 39.8458 60.9009 39.3531C61.0751 38.9252 61.6768 38.4807 61.6768 38.4807C61.6768 38.4807 61.0216 36.6997 61.3187 35.6142C61.4705 35.0595 61.8773 34.8734 61.9752 34.3056C62.1266 33.4269 61.5453 32.9855 61.3187 32.1246C61.04 31.0658 60.7219 29.3828 60.7219 29.3828C60.7219 29.3828 60.3378 29.6171 60.0654 29.632C59.4217 29.6674 59.3016 28.9484 58.8121 28.5104L59.2896 31.8131Z" fill="url(#paint5_linear_192_917)"/>
<path d="M58.275 38.4807C58.275 38.4807 58.5164 39.5564 58.275 40.1632C58.0348 40.7671 57.3938 40.7489 57.1411 41.3472C56.8588 42.0151 57.1411 42.4866 57.1411 43.2166C56.525 43.8665 56.2731 44.4254 56.1862 45.3353C56.0953 46.2868 56.4357 46.8184 56.783 47.7033C56.9806 48.2068 57.3798 48.9496 57.3798 48.9496C57.3798 48.9496 58.5134 48.089 58.8121 47.2671C59.1098 46.448 58.5848 45.867 58.8121 45.0237C59.0244 44.2363 59.7196 44.027 59.8267 43.2166C59.8649 42.9273 59.744 42.7478 59.8267 42.4688C59.9342 42.1057 60.4235 41.7211 60.4235 41.7211L60.1848 40.5371L58.275 38.4807Z" fill="url(#paint6_linear_192_917)"/>
<path d="M55.8281 33.3086L54.2764 31.3145L53.2917 33.7448C53.2917 33.7448 52.48 35.1605 52.307 36.1751C52.0764 37.5272 52.9786 38.3171 52.7247 39.6647C52.5952 40.3522 52.1279 41.3472 52.1279 41.3472C52.1279 41.3472 53.0589 41.6811 53.6796 41.7211C54.5286 41.7758 55.8281 41.3472 55.8281 41.3472L57.1411 43.2166C57.1411 42.4866 56.8588 42.0151 57.1411 41.3472C57.3938 40.7489 58.0348 40.7671 58.275 40.1632C58.5164 39.5564 58.275 38.4807 58.275 38.4807L56.4846 38.7923H54.6345L55.8281 36.2997V33.3086Z" fill="url(#paint7_linear_192_917)"/>
<path d="M55.2313 29.8813C55.2587 29.2939 54.866 29.0465 54.6345 28.5104C54.3407 27.8301 53.8885 26.7656 53.8885 26.7656C53.8885 26.7656 53.9149 28.387 53.6796 29.3828C53.4816 30.2208 52.9935 30.5811 52.9038 31.4392C52.8087 32.348 53.2917 33.7448 53.2917 33.7448L54.2764 31.3145C54.2764 31.3145 55.1996 30.5623 55.2313 29.8813Z" fill="url(#paint8_linear_192_917)"/>
<defs>
<linearGradient id="paint0_linear_192_917" x1="25.5705" y1="16.9199" x2="32.9401" y2="24.5163" gradientUnits="userSpaceOnUse">
<stop stop-color="#FF4F27"/>
<stop offset="1" stop-color="#FE361C"/>
</linearGradient>
<linearGradient id="paint1_linear_192_917" x1="4.8015" y1="46.0208" x2="12.6913" y2="17.9635" gradientUnits="userSpaceOnUse">
<stop stop-color="#FF5300"/>
<stop offset="1" stop-color="#FF6B00"/>
</linearGradient>
<linearGradient id="paint2_linear_192_917" x1="7.30807" y1="28.1988" x2="29.6706" y2="34.8197" gradientUnits="userSpaceOnUse">
<stop stop-color="#FF7504"/>
<stop offset="1" stop-color="#FC1E0B"/>
</linearGradient>
<linearGradient id="paint3_linear_192_917" x1="44.668" y1="22.8398" x2="43.8223" y2="44.5225" gradientUnits="userSpaceOnUse">
<stop stop-color="#FF9B57"/>
<stop offset="1" stop-color="#FF4201"/>
</linearGradient>
<linearGradient id="paint4_linear_192_917" x1="57.064" y1="23.2041" x2="56.3676" y2="32.4942" gradientUnits="userSpaceOnUse">
<stop stop-color="#A8945A"/>
<stop offset="1" stop-color="#5D4137"/>
</linearGradient>
<linearGradient id="paint5_linear_192_917" x1="62.3333" y1="34.1187" x2="57.0794" y2="34.4618" gradientUnits="userSpaceOnUse">
<stop stop-color="#A8945A"/>
<stop offset="1" stop-color="#5D4137"/>
</linearGradient>
<linearGradient id="paint6_linear_192_917" x1="58.6331" y1="48.3264" x2="56.9467" y2="39.8785" gradientUnits="userSpaceOnUse">
<stop stop-color="#A8945A"/>
<stop offset="1" stop-color="#5D4137"/>
</linearGradient>
<linearGradient id="paint7_linear_192_917" x1="52.1876" y1="38.4184" x2="56.2094" y2="36.2007" gradientUnits="userSpaceOnUse">
<stop stop-color="#A8945A"/>
<stop offset="1" stop-color="#5D4137"/>
</linearGradient>
<linearGradient id="paint8_linear_192_917" x1="57.064" y1="23.2041" x2="54.3775" y2="30.4311" gradientUnits="userSpaceOnUse">
<stop stop-color="#A8945A"/>
<stop offset="1" stop-color="#5D4137"/>
</linearGradient>
</defs>
</svg>
