<svg width="64" height="64" viewBox="0 0 64 64" fill="none" xmlns="http://www.w3.org/2000/svg">
<path fill-rule="evenodd" clip-rule="evenodd" d="M12.0638 27.8708C3.9438 32.8476 2.63649 40.6722 5.15036 47.2809C5.15036 47.2809 9.26485 51.9071 12.8004 53.4295C16.262 54.92 18.6084 55.12 22.3753 54.8159C25.9495 54.5274 27.9664 53.7805 31.1524 52.1636C35.0676 50.1767 39.8067 45.0506 39.8067 45.0506L48.2154 34.5619C48.2154 34.5619 53.1069 28.8727 54.967 24.5554C56.4527 21.1071 57.4097 15.2723 57.4097 15.2723C57.0338 8.66127 53.2679 4 45.3307 4C39.6167 4 36.6248 7.97608 33.509 12.1167C31.8722 14.2919 30.2012 16.5126 28.0835 18.226C24.5634 21.0741 19.5866 23.7803 12.7276 27.5099C12.5083 27.6291 12.287 27.7494 12.0638 27.8708Z" fill="#DCA75A"/>
<path d="M21.3932 59.3972C35.8338 59.3972 40.4204 50.2949 50.2408 36.6717C55.1592 29.3097 57.7606 21.4419 57.4097 15.2723C57.4097 15.2723 56.4527 21.1071 54.967 24.5554C53.1069 28.8727 48.2154 34.5619 48.2154 34.5619L39.8067 45.0506C39.8067 45.0506 35.0676 50.1767 31.1524 52.1636C27.9664 53.7805 25.9495 54.5274 22.3753 54.8159C18.6084 55.12 16.262 54.92 12.8004 53.4295C9.26485 51.9071 5.15036 47.2809 5.15036 47.2809C7.69102 53.9601 14.1347 59.3972 21.3932 59.3972Z" fill="#9D6625"/>
<path d="M59.4999 45.8342C59.4999 53.3692 53.2236 59.5 45.4533 59.5C37.683 59.5 31.4067 53.3692 31.4067 45.8342C31.4067 38.2993 37.683 32.1685 45.4533 32.1685C53.2236 32.1685 59.4999 38.2993 59.4999 45.8342Z" fill="#F5E397" stroke="#B78837"/>
<path d="M42.7189 11.1672C43.0525 10.9747 43.4222 10.8572 43.8034 10.8225C44.1846 10.7877 44.5686 10.8366 44.93 10.9658C45.2915 11.0951 45.622 11.3017 45.8998 11.572C46.1775 11.8423 46.3962 12.1701 46.5412 12.5338L45.9193 12.7952C45.8104 12.5221 45.6462 12.2758 45.4375 12.0727C45.2289 11.8697 44.9806 11.7145 44.7091 11.6174C44.4376 11.5203 44.1491 11.4836 43.8627 11.5097C43.5764 11.5358 43.2987 11.624 43.0481 11.7686L42.7189 11.1672Z" fill="#7C5524"/>
<path d="M44.9286 22.4998C45.2622 22.3073 45.6319 22.1898 46.0131 22.1551C46.3943 22.1204 46.7783 22.1693 47.1398 22.2985C47.5012 22.4277 47.8317 22.6343 48.1095 22.9046C48.3872 23.1749 48.6059 23.5028 48.7509 23.8664L48.129 24.1279C48.0201 23.8547 47.8559 23.6084 47.6472 23.4054C47.4386 23.2023 47.1903 23.0471 46.9188 22.95C46.6473 22.853 46.3588 22.8163 46.0725 22.8423C45.7861 22.8684 45.5084 22.9567 45.2578 23.1013L44.9286 22.4998Z" fill="#7C5524"/>
<path d="M27.7248 23.4976C28.0227 23.1604 28.4286 22.9202 28.8837 22.8116C29.3388 22.7031 29.8194 22.7319 30.2556 22.894C30.6918 23.0561 31.0609 23.3429 31.3094 23.7128C31.5579 24.0828 31.6727 24.5165 31.6373 24.9512L31.0891 24.9127C31.1157 24.5862 31.0294 24.2604 30.8428 23.9825C30.6561 23.7046 30.3788 23.4891 30.0511 23.3674C29.7235 23.2456 29.3625 23.224 29.0206 23.3055C28.6788 23.387 28.3738 23.5675 28.1501 23.8208L27.7248 23.4976Z" fill="#7C5524"/>
<path d="M30.0134 33.2057C30.3797 32.9326 30.8302 32.7749 31.2997 32.7555C31.7691 32.7362 32.233 32.8561 32.6239 33.098C33.0148 33.3398 33.3125 33.691 33.4735 34.1004C33.6346 34.5099 33.6508 34.9563 33.5197 35.3748L32.9918 35.2326C33.0902 34.9181 33.0781 34.5828 32.9571 34.2752C32.8361 33.9677 32.6125 33.7039 32.3188 33.5222C32.0252 33.3405 31.6767 33.2504 31.3241 33.265C30.9715 33.2795 30.633 33.398 30.3579 33.6031L30.0134 33.2057Z" fill="#7C5524"/>
<path d="M12.0908 34.6524C12.4571 34.3793 12.9076 34.2216 13.3771 34.2022C13.8465 34.1829 14.3104 34.3028 14.7013 34.5447C15.0922 34.7865 15.3898 35.1377 15.5509 35.5471C15.712 35.9566 15.7282 36.403 15.5971 36.8215L15.0691 36.6793C15.1676 36.3649 15.1555 36.0295 15.0345 35.7219C14.9135 35.4144 14.6899 35.1506 14.3962 34.9689C14.1026 34.7873 13.7541 34.6972 13.4015 34.7117C13.0489 34.7262 12.7104 34.8447 12.4353 35.0498L12.0908 34.6524Z" fill="#7C5524"/>
<path d="M23.0166 47.9139C23.3828 47.6409 23.8334 47.4832 24.3028 47.4638C24.7723 47.4445 25.2361 47.5644 25.6271 47.8063C26.018 48.0481 26.3156 48.3992 26.4767 48.8087C26.6378 49.2181 26.654 49.6646 26.5229 50.0831L25.9949 49.9408C26.0934 49.6264 26.0813 49.2911 25.9602 48.9835C25.8392 48.6759 25.6157 48.4122 25.322 48.2305C25.0284 48.0488 24.6799 47.9587 24.3273 47.9733C23.9746 47.9878 23.6362 48.1063 23.3611 48.3114L23.0166 47.9139Z" fill="#7C5524"/>
</svg>
