<svg width="64" height="64" viewBox="0 0 64 64" fill="none" xmlns="http://www.w3.org/2000/svg">
<path d="M59.1613 31.1736C56.4091 40.5129 42.7593 37.349 34.2175 32.6217C25.8991 28.018 19.1153 20.6232 25.2129 13.3461C31.3105 6.06891 42.1506 9.06225 48.1992 14.6277C54.2478 20.1931 61.5417 23.0957 59.1613 31.1736Z" fill="url(#paint0_linear_185_117)"/>
<path d="M58.6574 31.1174C58.7469 30.9391 59.2912 30.3374 59.5522 30.0589L59.1607 30.7831L59.9996 30.226C59.9064 30.4117 59.7088 30.7943 59.6641 30.8388C59.6082 30.8945 58.9929 31.2845 58.937 31.3402C58.8923 31.3848 59.1794 31.3588 59.3285 31.3402C59.4777 31.2474 59.7871 31.0505 59.8319 31.006C59.8766 30.9614 59.5895 31.3588 59.4404 31.5631H58.7133L58.8252 32.2873L58.6574 31.8973L58.21 32.3987C58.3218 32.0459 58.5679 31.2957 58.6574 31.1174Z" fill="#906B42"/>
<path d="M28.7386 25.2546C31.3854 32.8069 29.9671 40.1686 25.5706 41.6974C21.1741 43.2263 15.4644 38.3433 12.8175 30.791C10.5808 24.409 11.2471 18.163 14.1604 15.458C14.6946 14.9621 15.3043 14.5851 15.9855 14.3482C20.382 12.8194 26.0918 17.7024 28.7386 25.2546Z" fill="url(#paint1_radial_185_117)"/>
<path d="M25.5706 41.6974C21.1741 43.2263 15.4644 38.3433 12.8175 30.791C10.5808 24.409 11.2471 18.163 14.1604 15.458C12.9629 16.2149 11.4547 17.1864 10.5039 17.8028C8.80747 18.9026 5.41448 22.5381 5.41452 27.4406C5.41457 32.343 4.50682 34.9712 6.9245 38.6939C9.00828 41.9025 11.1719 43.5711 14.9222 44.3763C18.0869 45.0557 20.2597 44.7829 23.1436 43.3178C24.16 42.8014 25.5706 41.6974 25.5706 41.6974Z" fill="url(#paint2_linear_185_117)"/>
<path d="M26.2753 27.9419C24.314 29.2408 24.6213 30.0032 24.4856 32.5658C24.2204 37.5789 26.9755 41.5662 30.3021 45.2119C33.5993 48.8253 38.3557 51.0486 40.1454 50.1701C41.9351 49.2915 43.2525 51.2566 44.1163 50.7272C44.572 50.4478 45.267 49.6307 45.8 48.8619C47.3431 46.636 45.4839 41.4413 45.2004 40.0218C44.9169 38.6024 42.302 34.1255 39.1711 31.5964C36.1735 29.1751 32.3642 26.6968 28.6243 27.2177C28.1033 27.2903 26.7195 27.6478 26.2753 27.9419Z" fill="url(#paint3_radial_185_117)"/>
<path d="M24.4856 32.5658C24.6213 30.0032 24.314 29.2408 26.2753 27.9419C26.7195 27.6478 28.1033 27.2903 28.6243 27.2177C28.6243 27.2177 26.4685 27.0678 24.6213 28.281C21.9581 30.0301 21.3391 33.5746 21.8011 36.744C22.582 42.1006 25.1453 44.4299 28.1242 48.0334C31.1701 51.7181 36.0367 53.276 39.1711 53.1784C42.3054 53.0807 44.1163 50.7272 44.1163 50.7272C43.2525 51.2566 41.9351 49.2915 40.1454 50.1701C38.3557 51.0486 33.5993 48.8253 30.3021 45.2119C26.9755 41.5662 24.2204 37.5789 24.4856 32.5658Z" fill="url(#paint4_linear_185_117)"/>
<path d="M35.448 31.6745C33.9333 33.325 33.6865 34.898 33.7142 37.134C33.7728 41.8621 37.8686 43.5744 41.8797 46.1033C45.8553 48.6097 52.3195 50.5229 53.4008 49.613C54.1086 49.0173 54.8484 48.8912 55.526 48.2031C55.8835 47.84 56.2237 47.3206 56.5327 46.4932C57.4276 44.0977 54.4075 39.8081 53.7923 38.5825C53.1771 37.3569 49.6269 33.9012 46.0743 32.343C42.6729 30.8512 40.0488 29.4727 36.6784 30.8382C36.2089 31.0284 35.791 31.3007 35.448 31.6745Z" fill="url(#paint5_radial_185_117)"/>
<path d="M33.7142 37.134C33.6865 34.898 33.9333 33.325 35.448 31.6745C35.791 31.3007 36.2089 31.0284 36.6784 30.8382C36.6784 30.8382 33.0739 31.2434 31.6449 32.7887C29.5846 35.0166 29.9838 37.7549 31.1975 40.5323C33.2487 45.2263 36.5265 47.0397 40.2018 49.613C43.9599 52.2443 48.6469 53.5126 51.5552 52.677C54.4634 51.8414 55.526 48.2031 55.526 48.2031C54.8484 48.8912 54.1086 49.0173 53.4008 49.613C52.3195 50.5229 45.8553 48.6097 41.8797 46.1033C37.8686 43.5744 33.7728 41.8621 33.7142 37.134Z" fill="url(#paint6_linear_185_117)"/>
<path d="M52.6855 50.4596V50.8577" stroke="#9D7046" stroke-width="0.7" stroke-linecap="round"/>
<defs>
<linearGradient id="paint0_linear_185_117" x1="49.9329" y1="14.962" x2="31.7896" y2="31.4324" gradientUnits="userSpaceOnUse">
<stop stop-color="#E1BA79"/>
<stop offset="0.899302" stop-color="#824917"/>
</linearGradient>
<radialGradient id="paint1_radial_185_117" cx="0" cy="0" r="1" gradientUnits="userSpaceOnUse" gradientTransform="translate(20.778 28.0228) rotate(70.686) scale(14.4901 8.42809)">
<stop stop-color="#FCE28B"/>
<stop offset="0.281905" stop-color="#FFE598"/>
<stop offset="0.572312" stop-color="#FFEB93"/>
<stop offset="1" stop-color="#FFEA97"/>
</radialGradient>
<linearGradient id="paint2_linear_185_117" x1="18.2779" y1="28.1648" x2="5.21327" y2="35.115" gradientUnits="userSpaceOnUse">
<stop stop-color="#DBAC64"/>
<stop offset="1" stop-color="#83450A"/>
</linearGradient>
<radialGradient id="paint3_radial_185_117" cx="0" cy="0" r="1" gradientUnits="userSpaceOnUse" gradientTransform="translate(36.5678 39.6601) rotate(47.9924) scale(11.1953 6.86317)">
<stop stop-color="#FBE27D"/>
<stop offset="0.406943" stop-color="#FDE899"/>
<stop offset="0.606975" stop-color="#F9E086"/>
<stop offset="1" stop-color="#FCE896"/>
</radialGradient>
<linearGradient id="paint4_linear_185_117" x1="25.6091" y1="29.099" x2="41.9254" y2="51.9136" gradientUnits="userSpaceOnUse">
<stop stop-color="#EBB056"/>
<stop offset="1" stop-color="#CBA05C"/>
</linearGradient>
<radialGradient id="paint5_radial_185_117" cx="0" cy="0" r="1" gradientUnits="userSpaceOnUse" gradientTransform="translate(45.6268 40.3095) rotate(32.5977) scale(10.7544 6.50901)">
<stop stop-color="#FBE27D"/>
<stop offset="0.406943" stop-color="#FDE899"/>
<stop offset="0.606975" stop-color="#F9E086"/>
<stop offset="1" stop-color="#FCE896"/>
</radialGradient>
<linearGradient id="paint6_linear_185_117" x1="32.8193" y1="33.3474" x2="53.6466" y2="50.6707" gradientUnits="userSpaceOnUse">
<stop stop-color="#EBB056"/>
<stop offset="1" stop-color="#CBA05C"/>
</linearGradient>
</defs>
</svg>
