<svg width="64" height="64" viewBox="0 0 64 64" fill="none" xmlns="http://www.w3.org/2000/svg">
<path d="M36.563 32.7041C36.8608 32.7041 39.4794 31.0008 41.0308 30.6223C42.5821 30.2437 45.4662 28.8622 45.0021 30.3699C44.782 31.085 44.092 31.3793 43.699 31.7578C43.699 31.7578 46.3658 31.5582 47.9806 32.0101C49.1311 32.3322 51.407 32.244 50.773 33.2719C50.3658 33.9319 48.9114 33.9027 48.9114 33.9027C48.9114 33.9027 51.0184 34.4443 52.0761 35.2906C53.1653 36.1622 54.8859 36.9763 54.1858 38.1926C53.6023 39.2063 52.4158 38.8431 51.2694 38.6973C50.4107 38.588 49.47 37.9771 48.7572 37.4076C49.0822 37.8113 49.3114 38.2766 49.1596 38.6973C48.702 39.9651 47.0763 38.3815 45.8708 37.8141C44.4107 37.1268 42.5821 35.2906 42.5821 35.2906C42.5821 35.2906 43.2846 36.5834 42.8923 37.2463C42.2885 38.2666 41.1649 36.5997 40.162 35.9846C38.5457 34.9931 36.563 32.7041 36.563 32.7041Z" fill="#C0C762"/>
<path d="M35.8186 27.0264C35.8186 27.0264 37.1719 22.5791 38.9212 20.2762C40.721 17.9068 44.3874 12.4482 44.7541 15.4185C44.8797 16.4353 44.3198 18.0051 44.3198 18.0051C45.6229 16.8695 46.5983 15.5992 48.4152 14.5984C50.5195 13.4394 54.9223 10.5428 54.3102 12.8951C53.9682 14.2092 51.9522 15.4185 51.9522 15.4185C51.9522 15.4185 55.4781 14.413 57.661 14.9138C59.5007 15.3359 61.5483 15.3099 61.9426 17.1849C62.3052 18.909 60.8881 19.8834 59.5226 20.9701C58.357 21.8976 56.3487 22.1412 54.9467 22.1891C55.6317 22.2745 56.3619 22.4889 56.7302 22.9889C57.9712 24.6734 53.9571 24.7986 51.9522 25.323C50.3477 25.7428 48.118 25.6315 46.607 25.4781C47.5937 25.6997 48.6735 26.143 48.7875 27.0264C49.0358 28.9499 46.0205 28.2508 44.1336 28.5404C41.0218 29.0181 36.1289 27.5941 36.1289 27.5941L35.8186 27.0264Z" fill="#C0C762"/>
<path fill-rule="evenodd" clip-rule="evenodd" d="M14.0958 45.1115C13.9773 44.9694 13.8724 44.8217 13.7855 44.669L12.1101 41.5778C11.577 43.0085 11.2638 43.8881 10.8227 44.6954C9.98014 46.2375 8.67122 47.5162 4.47313 51.8701C4.47313 51.8701 6.45689 50.6965 7.70438 49.9051C8.05458 49.683 8.37109 49.4866 8.66841 49.302C9.64435 48.6963 10.4136 48.2189 11.4896 47.3817C12.5539 46.5536 14.0958 45.1115 14.0958 45.1115Z" fill="#F1F1F1"/>
<path d="M4.47313 51.8701C13.9762 48.7696 11.4275 47.6971 17.2604 47.1924C17.2604 47.1924 15.1467 46.3722 14.0958 45.1115C14.0958 45.1115 12.5539 46.5536 11.4896 47.3817C10.4136 48.2189 9.64435 48.6963 8.66841 49.302C8.37109 49.4866 8.05458 49.683 7.70438 49.9051C6.45689 50.6965 4.47313 51.8701 4.47313 51.8701Z" fill="#E5E5E5"/>
<path d="M55.3027 18.1943C55.563 18.604 46.3749 20.7986 39.2932 25.4492C32.2116 30.0998 27.2052 35.3218 26.9448 34.9121C26.6845 34.5024 31.6531 29.3427 38.7348 24.6922C45.8164 20.0416 55.0424 17.7846 55.3027 18.1943Z" fill="#699566"/>
<path d="M48.9735 35.4168C48.9721 35.9046 42.9122 33.2244 37.8729 33.2097C32.8337 33.1949 28.1846 34.0751 28.186 33.5873C28.1874 33.0995 32.8337 32.3748 37.873 32.3895C42.9122 32.4043 48.9749 34.929 48.9735 35.4168Z" fill="#699566"/>
<path fill-rule="evenodd" clip-rule="evenodd" d="M11.0596 38.3187C11.0596 41.0003 12.0937 43.4436 13.7899 45.2817C13.7899 45.2817 16.7459 46.1477 18.692 46.2044C21.3526 46.2821 23.102 46.3191 25.3936 44.9427C27.7072 43.5532 28.7244 42.0477 29.7373 39.5173C30.7195 37.0636 30.3972 32.7671 30.3972 32.7671C28.5358 29.8846 25.2674 27.9726 21.5464 27.9726C15.7547 27.9726 11.0596 32.6047 11.0596 38.3187Z" fill="#DE2758"/>
<path d="M21.5464 48.6648C27.3381 48.6648 32.0332 44.0327 32.0332 38.3187C32.0332 36.2758 31.4331 34.3712 30.3972 32.7671C30.3972 32.7671 30.7195 37.0636 29.7373 39.5173C28.7244 42.0477 27.7072 43.5532 25.3936 44.9427C23.102 46.3191 21.3526 46.2821 18.692 46.2044C16.7459 46.1477 13.7899 45.2817 13.7899 45.2817C15.708 47.3602 18.4728 48.6648 21.5464 48.6648Z" fill="#BE0020"/>
<ellipse cx="2.98251" cy="1.57509" rx="2.98251" ry="1.57509" transform="matrix(0.95781 -0.287402 0.278798 0.96035 15.4795 29.9039)" fill="#F98AAA"/>
<ellipse cx="0.868703" cy="0.612098" rx="0.868703" ry="0.612098" transform="matrix(0.821163 -0.570693 0.557985 0.829851 14.1621 32.8755)" fill="#F98AAA"/>
</svg>
