<svg width="64" height="64" viewBox="0 0 64 64" fill="none" xmlns="http://www.w3.org/2000/svg">
<path d="M31.2621 38.1283C33.7805 38.6809 35.1667 38.7167 37.5883 38.1283L39.4761 35.4027L41.3638 32.677L42.5633 30.9452L43.5336 29.5442L45.0091 27.4138L46.187 25.7131L47.5075 23.8065L48.828 21.8999C48.828 21.8999 44.7737 15.1548 40.475 14.1304C36.7783 13.2494 31.2007 16.1354 30.955 16.1354C30.7093 16.1354 27.4332 16.8678 25.6115 15.8221C24.9423 15.438 24.0761 14.569 24.0761 14.569L22.1721 12.7519L21.0051 12V12.7519L20.0838 12L19.4082 12.188L19.8996 13.2532H19.4082L20.3295 14.1304L19.4082 13.8171V14.569C19.4082 14.569 22.3775 16.265 23.5847 18.0151C24.4312 19.2424 24.9448 20.034 25.1202 21.524C25.3843 23.7678 23.3682 24.7206 23.2162 26.9752C22.8524 32.3704 31.2621 38.1283 31.2621 38.1283Z" fill="url(#paint0_radial_185_169)"/>
<path d="M25.1202 18.2658C27.3927 19.8531 29.5256 21.2831 32.3062 23.2784C36.3679 26.1929 39.2671 28.4732 42.5633 30.9452M42.5633 30.9452L43.5336 29.5442M42.5633 30.9452L41.3638 32.6771M25.8572 17.6392C26.2012 17.7394 32.8423 19.5568 36.5442 22.2132C39.7462 24.5109 43.5336 29.5442 43.5336 29.5442M43.5336 29.5442L45.0091 27.4138M27.7612 17.3259C28.0069 17.6392 33.3826 17.5604 36.5442 19.0803C40.6998 21.0782 42.5355 24.7822 45.0091 27.4138M45.0091 27.4138L46.187 25.7131M30.3408 17.3259C31.0779 17.3259 36.7693 16.1768 40.1679 18.0151C43.4982 19.8165 46.187 25.7131 46.187 25.7131M46.187 25.7131L47.5075 23.8065M32.3062 16.386C32.3062 16.386 37.4449 14.7808 40.475 15.8221C44.3691 17.1603 47.5075 23.8065 47.5075 23.8065M47.5075 23.8065L48.828 21.8999C48.828 21.8999 44.7737 15.1548 40.475 14.1304C36.7783 13.2494 31.2007 16.1354 30.955 16.1354C30.7093 16.1354 27.4332 16.8678 25.6115 15.8221C24.9423 15.438 24.0761 14.569 24.0761 14.569L22.1721 12.7519L21.0051 12V12.7519L20.0838 12L19.4082 12.188L19.8996 13.2532H19.4082L20.3295 14.1304L19.4082 13.8171V14.569C19.4082 14.569 22.3775 16.265 23.5847 18.0151C24.4312 19.2424 24.9448 20.034 25.1202 21.524C25.3843 23.7678 23.3682 24.7206 23.2162 26.9752C22.8524 32.3704 31.2621 38.1283 31.2621 38.1283C33.7805 38.6809 35.1667 38.7167 37.5883 38.1283L39.4761 35.4027M26.3486 21.524C26.3977 21.524 29.1547 24.863 31.2621 26.6619C34.7653 29.6523 41.3638 32.6771 41.3638 32.6771M41.3638 32.6771L39.4761 35.4027M26.0415 23.9676C25.8941 24.3185 28.4299 28.9117 30.955 31.1733C33.736 33.664 39.4761 35.4027 39.4761 35.4027" stroke="url(#paint1_radial_185_169)" stroke-width="0.3"/>
<path d="M6.41474 35.4736C6.41474 35.4736 6.90781 36.2483 7.59423 37.1653C8.28065 38.0823 7.95574 38.8882 7.95574 38.8882C7.95574 38.8882 8.3119 41.1513 9.11719 42.1153C9.7874 42.9176 10.6596 44.3679 11.5126 45.1855C12.9302 46.5443 14.2505 47.5446 16.0577 47.8798C20.7871 48.757 24.7178 47.4412 28.8997 45.2009C31.6764 43.7133 33.9368 39.3033 34.6539 37.604C34.84 37.1627 35.0465 36.7537 35.0465 36.7537L34.9704 36.2651L34.8944 35.7765L34.7422 34.7992L34.6539 34.2318L34.5262 33.4121L34.3692 32.4034L34.3692 31.9021L34.4835 31.3382C34.4835 31.3382 34.6775 30.2767 34.4835 29.8344C33.7706 28.2087 30.7528 25.0324 28.3602 23.2615C25.1694 20.8999 21.6468 19.4958 17.7764 19.1826C15.9395 19.0339 14.1798 19.8679 12.9669 20.7263C11.9018 21.4801 10.9487 22.4353 9.89396 23.5686C9.73332 23.7412 9.03735 25.7764 8.96276 26.0122C8.62583 27.0774 8.7779 27.2471 8.39366 28.2053C8.09284 28.9555 8.39984 28.4405 7.95574 29.1451C7.65651 29.6199 7.41668 30.0967 6.90781 30.5305C5.76021 31.5087 5.24778 30.7116 5.24778 30.7116L2.66821 33.3972C2.66821 33.3972 2.35504 34.251 2.68725 34.2475C2.84858 34.2458 3.04389 34.0432 3.04389 34.0432C3.04389 34.0432 2.46362 35.2811 2.8759 35.1442C2.96745 35.1138 3.08988 35.0216 3.08988 35.0216C3.08988 35.0216 3.11719 35.5203 3.33771 35.693C3.5003 35.8204 3.84653 35.8321 3.84653 35.8321C3.84653 35.8321 3.74209 36.0339 3.75777 36.17C3.80032 36.5393 4.70673 36.2483 4.70673 36.2483L4.99468 35.8441L5.55487 37.1653L6.41474 35.4736Z" fill="url(#paint2_radial_185_169)"/>
<path d="M35.0465 36.7537L34.9704 36.2651M35.0465 36.7537C35.0465 36.7537 30.3388 42.3546 26.3865 43.9263C22.8285 45.3412 20.3214 45.5084 16.5728 44.6081C14.2901 44.0599 11.3431 42.2254 10.2898 41.5371M35.0465 36.7537C35.0465 36.7537 34.84 37.1627 34.6539 37.604M34.4835 31.3382L34.3692 31.9021M34.4835 31.3382C34.4835 31.3382 30.0609 27.8601 27.1752 26.6199C23.4917 25.0368 20.9513 24.8215 17.0098 25.4107C14.1011 25.8455 10.2216 27.8017 9.21111 28.4099M34.4835 31.3382C34.4835 31.3382 30.5881 26.6988 27.5894 25.0429C24.7762 23.4894 22.7835 23.2352 19.5856 23.2172C16.8023 23.2016 12.9104 24.5286 11.5822 25.0136M34.4835 31.3382C34.4835 31.3382 34.6775 30.2767 34.4835 29.8344M34.7422 34.7992C34.7422 34.7992 29.4905 37.5194 26.1657 38.5377C22.0506 39.7981 19.4677 40.6426 15.2068 39.8884C12.2379 39.3629 8.38868 37.2399 8.02251 37.0191C7.74955 36.8544 8.28319 34.6549 7.8419 34.6907C7.69124 34.7029 7.59423 34.7136 7.59423 34.7136M34.7422 34.7992L34.8944 35.7765M34.7422 34.7992L34.6539 34.2318M34.8944 35.7765C34.8944 35.7765 29.8544 39.4412 26.3977 40.6536C22.2041 42.1245 19.3828 42.5046 15.0188 41.5272C11.6174 40.7655 8.61992 35.4451 7.74713 34.8235M34.8944 35.7765L34.9704 36.2651M34.9704 36.2651C34.9704 36.2651 29.8059 41.0005 25.9391 42.3995C22.2537 43.733 19.7517 44.1033 15.9075 43.2189C13.1261 42.5791 9.64083 40.1402 8.41084 39.2319M34.6539 37.604C33.9368 39.3033 31.6764 43.7133 28.8997 45.2009C24.7178 47.4412 20.7871 48.757 16.0577 47.8798C14.2505 47.5446 12.9302 46.5443 11.5126 45.1855C10.6596 44.3679 9.7874 42.9176 9.11719 42.1153C8.3119 41.1513 7.95574 38.8882 7.95574 38.8882C7.95574 38.8882 8.28065 38.0823 7.59423 37.1653C6.90781 36.2483 6.41474 35.4736 6.41474 35.4736L5.55487 37.1653L4.99468 35.8441L4.70673 36.2483C4.70673 36.2483 3.80032 36.5393 3.75777 36.17C3.74209 36.0339 3.84653 35.8321 3.84653 35.8321C3.84653 35.8321 3.5003 35.8204 3.33771 35.693C3.11719 35.5203 3.08988 35.0216 3.08988 35.0216C3.08988 35.0216 2.96745 35.1138 2.8759 35.1442C2.46362 35.2811 3.04389 34.0432 3.04389 34.0432C3.04389 34.0432 2.84858 34.2458 2.68725 34.2475C2.35504 34.251 2.66821 33.3972 2.66821 33.3972L5.24778 30.7116C5.24778 30.7116 5.76021 31.5087 6.90781 30.5305C7.41668 30.0967 7.65651 29.6199 7.95574 29.1451C8.39984 28.4405 8.09284 28.9555 8.39366 28.2053C8.7779 27.2471 8.62583 27.0774 8.96276 26.0122C9.03735 25.7764 9.73332 23.7412 9.89396 23.5686C10.9487 22.4353 11.9018 21.4801 12.9669 20.7263C14.1798 19.8679 15.9395 19.0339 17.7764 19.1826C21.6468 19.4958 25.1694 20.8999 28.3602 23.2615C30.7528 25.0324 33.7706 28.2087 34.4835 29.8344M34.6539 37.604C34.6539 37.604 30.7551 43.7351 26.8417 45.4231C23.5956 46.8232 21.26 46.7534 17.7764 46.0237C15.9792 45.6472 13.5788 44.4791 12.6156 43.9865M7.8827 33.6153C7.8827 33.6153 11.8953 36.9273 15.4229 36.9896C19.3897 37.0596 21.6019 36.5569 25.5137 35.9449C28.9072 35.4139 34.6539 34.2318 34.6539 34.2318M34.6539 34.2318L34.5262 33.4121M8.44117 33.1039C8.44117 33.1039 11.7572 33.9252 14.8944 33.4646C19.087 32.8492 21.5117 33.1642 25.7566 33.1741C28.9764 33.1817 34.5262 33.4121 34.5262 33.4121M34.5262 33.4121L34.3692 32.4034M6.90781 32.0208C7.27597 31.5419 10.9568 31.1759 14.85 30.404C19.2673 29.5283 21.9328 30.0495 26.4075 30.696C29.3509 31.1212 34.3692 32.4034 34.3692 32.4034M34.3692 32.4034L34.3692 31.9021M34.3692 31.9021C34.3692 31.9021 30.623 29.8793 28.41 29.0702C24.3355 27.5805 21.6864 27.4143 17.394 27.8699C14.1689 28.2123 9.79912 29.8775 8.39366 30.5305M34.4835 29.8344C34.4835 29.8344 30.3661 24.7757 28.1531 24.05C25.9401 23.3244 24.0821 22.1466 21.2879 21.8112C18.6536 21.495 16.6769 22.0856 14.5162 22.3144" stroke="url(#paint3_radial_185_169)" stroke-width="0.3"/>
<path d="M32.9826 31.4239L33.5353 32.4264L33.7196 32.6144V32.9903L34.2724 33.8049L33.5353 34.6194L34.2724 35.1207L33.9039 35.3713L34.2724 36.3112L32.9826 36.4365L32.4912 37.627L33.2897 37.5017L33.5353 37.9403L34.5795 37.627L34.8251 37.9403L35.9307 37.0004L34.5795 29.4815L33.9039 28.7922L33.7196 29.2308H33.1054L33.4125 30.2334L32.9826 30.5467L33.2897 31.4239H32.9826Z" fill="url(#paint4_linear_185_169)" stroke="#39231B" stroke-width="0.3"/>
<path d="M35.746 38.3789C30.7711 26.8499 42.8092 18.8923 42.8092 18.8923L52.0835 48.4668C52.0835 48.4668 40.7209 49.9079 35.746 38.3789Z" fill="url(#paint5_linear_185_169)"/>
<path d="M39.7381 36.3112C37.4272 29.499 38.8169 20.8348 43.5461 18.2658C48.2754 15.6968 56.4742 22.6623 58.9623 29.8575C61.3662 36.8089 59.4537 46.4618 54.663 48.2162C49.8723 49.9706 42.1578 43.444 39.7381 36.3112Z" fill="#EDD0DC" stroke="#B47B97" stroke-width="0.3"/>
<path d="M40.9293 36.7602C38.8025 30.4651 40.0815 22.4586 44.434 20.0847C48.7865 17.7107 56.3322 24.1474 58.6222 30.7964C60.8345 37.2201 59.0744 46.1402 54.6653 47.7614C50.2562 49.3827 43.1563 43.3515 40.9293 36.7602Z" fill="#E1B9D2" stroke="#B47B97" stroke-width="0.3"/>
<path d="M41.5902 35.8709C39.6228 30.2691 40.8059 23.1443 44.832 21.0318C48.8581 18.9193 55.8379 24.6471 57.956 30.5638C60.0025 36.2801 58.3744 44.2178 54.2959 45.6605C50.2175 47.1032 43.6501 41.7363 41.5902 35.8709Z" fill="#ECD2E4" stroke="#B47B97" stroke-width="0.3"/>
<path d="M42.9201 35.3761C41.2585 30.8281 42.2577 25.0437 45.6581 23.3286C49.0585 21.6135 54.9536 26.2638 56.7426 31.0675C58.471 35.7084 57.0959 42.1528 53.6513 43.3241C50.2067 44.4954 44.6599 40.1381 42.9201 35.3761Z" fill="#E9CCDC" stroke="#B47B97" stroke-width="0.3"/>
<path d="M44.2365 34.8838C42.9072 31.251 43.7066 26.6305 46.4269 25.2605C49.1472 23.8905 53.8633 27.6051 55.2945 31.4422C56.6772 35.1492 55.5771 40.297 52.8215 41.2326C50.0658 42.1682 45.6283 38.6876 44.2365 34.8838Z" fill="#F8DEEE" stroke="#B47B97" stroke-width="0.3"/>
<path d="M46.0199 34.1148C45.0761 31.4526 45.6436 28.0666 47.5751 27.0626C49.5065 26.0587 52.8549 28.7808 53.8711 31.5927C54.8528 34.3093 54.0717 38.0817 52.1152 38.7673C50.1587 39.453 47.0081 36.9024 46.0199 34.1148Z" fill="#EFCCDF" stroke="#B47B97" stroke-width="0.3"/>
<path d="M47.2321 33.5729C46.5807 31.7981 46.9724 29.5408 48.3054 28.8715C49.6383 28.2022 51.9492 30.0169 52.6505 31.8915C53.328 33.7026 52.789 36.2175 51.4387 36.6746C50.0884 37.1317 47.9141 35.4313 47.2321 33.5729Z" fill="#EFD3E3" stroke="#B47B97" stroke-width="0.3"/>
<path d="M48.0959 32.9342C47.6972 31.8527 47.937 30.4771 48.7531 30.0692C49.5692 29.6614 50.984 30.7672 51.4133 31.9096C51.8282 33.0132 51.4981 34.5457 50.6714 34.8243C49.8447 35.1028 48.5135 34.0666 48.0959 32.9342Z" fill="#EFD3E3" stroke="#B47B97" stroke-width="0.3"/>
<defs>
<radialGradient id="paint0_radial_185_169" cx="0" cy="0" r="1" gradientUnits="userSpaceOnUse" gradientTransform="translate(38.2639 23.717) rotate(103.506) scale(9.73041 10.8036)">
<stop stop-color="#DA7A8E"/>
<stop offset="1" stop-color="#5E0F19"/>
</radialGradient>
<radialGradient id="paint1_radial_185_169" cx="0" cy="0" r="1" gradientUnits="userSpaceOnUse" gradientTransform="translate(37.4655 23.0278) rotate(107.686) scale(10.9172 12.1398)">
<stop stop-color="#C25E77"/>
<stop offset="1" stop-color="#B5586E"/>
</radialGradient>
<radialGradient id="paint2_radial_185_169" cx="0" cy="0" r="1" gradientUnits="userSpaceOnUse" gradientTransform="translate(18.9445 29.7091) rotate(10.7782) scale(13.0671 12.516)">
<stop stop-color="#CB7B84"/>
<stop offset="1" stop-color="#8F102B"/>
</radialGradient>
<radialGradient id="paint3_radial_185_169" cx="0" cy="0" r="1" gradientUnits="userSpaceOnUse" gradientTransform="translate(15.8042 26.7713) rotate(58.5484) scale(20.3922 16.8236)">
<stop stop-color="#B23D52"/>
<stop offset="1" stop-color="#A44C55"/>
</radialGradient>
<linearGradient id="paint4_linear_185_169" x1="32.5526" y1="33.3663" x2="35.2551" y2="33.3663" gradientUnits="userSpaceOnUse">
<stop stop-color="#B78A81"/>
<stop offset="1" stop-color="#2E1417"/>
</linearGradient>
<linearGradient id="paint5_linear_185_169" x1="47.4157" y1="33.1156" x2="34.4733" y2="37.0424" gradientUnits="userSpaceOnUse">
<stop stop-color="#B54176"/>
<stop offset="1" stop-color="#7E0225"/>
</linearGradient>
</defs>
</svg>
