<svg width="64" height="64" viewBox="0 0 64 64" fill="none" xmlns="http://www.w3.org/2000/svg">
<path d="M32.8191 14.8213L32.6533 15.459H33.897C33.897 15.459 35.0853 14.4584 35.5761 13.6095C36.1681 12.5855 36.3845 10.6759 36.3845 10.6759C36.3845 10.6759 35.6027 12.0678 34.9542 12.8443C34.2234 13.7192 32.8191 14.8213 32.8191 14.8213Z" fill="url(#paint0_linear_808_1143)"/>
<path d="M30.6962 14.1835L30.6012 16.3518L32.6533 15.459L32.8191 14.8213C32.8191 14.8213 33.8801 12.3513 33.897 10.6759C33.9209 8.32054 31.9071 5 31.9071 5C31.9071 5 32.7483 7.8343 32.5289 9.65553C32.3001 11.5557 30.6962 14.1835 30.6962 14.1835Z" fill="url(#paint1_linear_808_1143)"/>
<path d="M26.6834 11.6325C26.9323 14.8213 28.4868 15.9054 28.4868 15.9054L30.6012 16.3518L30.6962 14.1835C30.6962 14.1835 31.1344 12.0157 30.8499 10.6759C30.3398 8.27363 26.9321 5.82907 26.9321 5.82907C26.9321 5.82907 26.4345 8.44382 26.6834 11.6325Z" fill="url(#paint2_linear_808_1143)"/>
<path d="M28.2381 15.9054C28.2381 15.9054 26.2477 14.0497 25.3153 12.5892C24.6728 11.5827 24.7764 10.6977 23.9472 9.84686C22.9554 8.82911 20.6513 8.38004 20.6513 8.38004C20.6513 8.38004 20.7642 9.27414 20.8379 9.84686C21.0269 11.317 20.5706 12.3511 21.3354 13.6095C22.0888 14.8493 24.3508 15.7141 24.3508 15.7141L25.8128 16.7345L28.2381 15.9054Z" fill="url(#paint3_linear_808_1143)"/>
<path d="M25.8128 16.7345L24.3508 15.7141C24.3508 15.7141 21.8928 15.171 20.4026 14.5662C18.4922 13.7908 15.8008 11.9514 15.8008 11.9514C15.8008 11.9514 16.2609 15.6558 17.9151 16.9258C19.3619 18.0365 22.4547 17.8477 22.4547 17.8477L24.196 18.2013L25.8128 16.7345Z" fill="url(#paint4_linear_808_1143)"/>
<path d="M24.196 18.2013L22.4547 17.8477C22.4547 17.8477 20.9831 18.2682 20.1538 18.7753C19.0325 19.461 18.9553 21.5931 17.7286 21.1349C17.2902 20.9712 16.7958 20.3696 16.7958 20.3696C16.7958 20.3696 16.5611 22.3731 17.4176 22.8568C18.2991 23.3547 19.8429 21.964 19.8429 21.964L24.196 18.2013Z" fill="url(#paint5_linear_808_1143)"/>
<path d="M43.1629 29.1705L32.5912 37.7801L19.3454 28.469C19.3454 28.469 18.1913 25.0508 18.6614 22.9206C19.055 21.1369 19.4112 19.8455 20.9001 18.8391C21.7145 18.2886 22.3831 18.4412 23.2632 18.01C24.5827 17.3635 24.8659 16.0118 26.3103 15.7779C26.8141 15.6963 27.1134 15.8651 27.6163 15.7779C28.1236 15.6899 28.3461 15.303 28.86 15.3315C29.3058 15.3561 29.476 15.8483 29.9172 15.7779C30.4612 15.6911 30.3395 14.9053 30.8499 14.6937C31.2777 14.5164 31.5985 14.8572 32.0315 14.6937C32.4053 14.5526 31.534 14.4386 32.8399 14.056C34.1459 13.6733 37.4463 15.7779 38.4367 16.6707C39.4271 17.5636 41.1509 19.6662 42.1057 22.0278C43.1594 24.634 43.1629 29.1705 43.1629 29.1705Z" fill="url(#paint6_linear_808_1143)"/>
<path d="M33.7725 38.2902C33.7725 38.2902 29.9144 33.337 26.8076 30.8924C23.7628 28.4966 19.9049 25.918 18.2259 25.9818C16.5468 26.0456 14.9172 26.7713 13.935 28.469C13.1126 29.8906 13.935 31.4664 13.4997 32.6781C13.0644 33.8898 10.6898 34.4896 10.3282 36.377C9.94732 38.3649 11.1366 39.8846 12.1316 41.2239C13.1266 42.5631 16.3967 44.3362 19.5318 45.3692C23.2223 46.5853 29.4195 46.262 29.4195 46.262L33.7725 38.2902Z" fill="url(#paint7_radial_808_1143)"/>
<path d="M12.1316 41.2239C11.1366 39.8846 9.94732 38.3649 10.3282 36.377C10.3282 36.377 8.95672 38.1449 8.77359 39.502C8.49292 41.5819 9.19052 43.1323 10.7636 44.4764C12.8828 46.2871 16.2359 46.8988 18.2259 47.0911C20.2158 47.2834 24.1958 47.0911 26.8076 47.0911C29.4195 47.0911 29.4195 46.262 29.4195 46.262C29.4195 46.262 23.2223 46.5853 19.5318 45.3692C16.3967 44.3362 13.1266 42.5631 12.1316 41.2239Z" fill="url(#paint8_linear_808_1143)"/>
<path d="M10.9502 35.1015L15.0545 38.5454L13.2511 41.3514C13.2511 41.3514 14.3698 40.7813 14.8058 40.1397C15.1747 39.5968 15.3654 38.5454 15.3654 38.5454L16.2361 38.9918C16.2361 38.9918 16.3651 40.3119 16.3604 41.1601C16.3561 41.9338 16.2361 43.1371 16.2361 43.1371C16.2361 43.1371 16.8007 41.9668 16.9823 41.1601C17.1253 40.525 17.1688 39.502 17.1688 39.502L19.1588 40.2673L20.4647 44.2851L20.0294 40.5224L21.2732 40.6499L22.7656 44.03L21.8328 40.6499L23.9472 40.905C23.9472 40.905 24.9139 42.2087 25.3775 43.1371C25.7249 43.8328 26.1237 44.9866 26.1237 44.9866C26.1237 44.9866 26.0914 43.6626 25.8128 42.882C25.5048 42.0192 24.569 40.905 24.569 40.905L26.1237 41.1601C26.1237 41.1601 26.8352 42.1708 27.1809 42.882C27.4384 43.4118 27.7406 44.2851 27.7406 44.2851C27.7406 44.2851 27.5908 43.2508 27.3674 42.6269C27.2102 42.1877 26.8699 41.5428 26.8699 41.5428H30.1036L30.9121 40.6499L28.6734 37.8438H30.1036L27.9893 37.525L25.1287 35.548C25.1287 35.548 26.4619 35.613 27.1809 35.2291C27.7301 34.9359 28.3624 34.1449 28.3624 34.1449C28.3624 34.1449 27.2941 34.9304 26.4968 35.1015C25.855 35.2393 24.8178 35.1015 24.8178 35.1015L23.3253 34.3362C23.3253 34.3362 24.5064 34.0222 25.1287 33.5709C25.6758 33.1743 26.3103 32.2955 26.3103 32.2955C26.3103 32.2955 25.0769 33.302 24.1337 33.5709C23.6142 33.7191 22.7656 33.7623 22.7656 33.7623L21.8328 33.2521L23.3253 32.1041L21.2732 32.6143L20.9 31.4026L22.6413 28.9792L20.4647 30.8924L19.6563 30.5098C19.6563 30.5098 20.4297 29.5811 20.5891 28.8516C20.7059 28.317 20.5891 27.4486 20.5891 27.4486C20.5891 27.4486 20.3018 28.3297 20.0294 28.8516C19.6605 29.5588 18.8479 30.5098 18.8479 30.5098L18.3504 29.8083C18.3504 29.8083 18.6898 28.9154 18.5991 28.3414C18.4946 27.6795 17.7285 26.8746 17.7285 26.8746C17.7285 26.8746 17.9769 28.1228 17.7285 28.8516C17.6102 29.1988 17.2932 29.6807 17.2932 29.6807L14.8058 27.7037L13.8108 28.8516L13.0024 31.7853L10.9502 35.1015Z" fill="url(#paint9_radial_808_1143)"/>
<path d="M12.8154 27.321L13.7482 30.3822C13.7482 30.3822 14.2977 27.6368 13.997 25.918C13.7182 24.3246 13.7833 22.9456 12.4423 22.0915C11.2251 21.3163 8.77332 22.0915 8.77332 22.0915C8.77332 22.0915 10.6811 22.7076 11.5095 23.6221C12.5291 24.7477 12.8154 27.321 12.8154 27.321Z" fill="url(#paint10_linear_808_1143)"/>
<path d="M7.71615 27.0659C7.71615 27.0659 9.89191 28.1756 10.9498 29.298C11.3233 29.6943 11.8308 30.3822 11.8308 30.3822L13.1264 31.9766L13.7482 30.3822L12.8154 27.321C12.8154 27.321 11.7384 25.0288 10.7011 25.4078C10.519 25.4743 10.2658 25.6496 10.2658 25.6496L8.33801 26.7205L7.71615 27.0659Z" fill="url(#paint11_linear_808_1143)"/>
<path d="M7.96489 26.911L8.33801 26.7205L10.2658 25.6496C10.2658 25.6496 9.52565 25.0297 8.95988 24.8338C7.96808 24.4904 6.28586 25.0252 6.28586 25.0252L7.96489 26.911Z" fill="url(#paint12_linear_808_1143)"/>
<path d="M10.9498 29.298C9.89191 28.1756 7.71615 27.0659 7.71615 27.0659L8.33801 26.7205L7.96489 26.911C7.12681 26.9821 6.59775 27.2522 6.03711 27.895C5.63888 28.3516 5.35306 29.298 5.35306 29.298C5.35306 29.298 5.75466 29.0449 6.28586 28.8235C6.80642 28.6066 7.45144 28.4203 7.96489 28.5328C8.88163 28.7336 9.02636 29.6323 9.89267 29.9996C10.605 30.3016 11.8308 30.3822 11.8308 30.3822C11.8308 30.3822 11.3233 29.6943 10.9498 29.298Z" fill="url(#paint13_linear_808_1143)"/>
<path d="M12.8154 32.8694L13.1264 31.9766L11.8308 30.3822C11.8308 30.3822 10.605 30.3016 9.89267 29.9996C9.02636 29.6323 8.88163 28.7336 7.96489 28.5328C7.45144 28.4203 6.80642 28.6066 6.28586 28.8235C6.28586 28.8235 6.40561 29.838 6.72116 30.3822C7.02999 30.9148 7.81848 31.5009 7.81848 31.5009C8.17027 31.5327 8.39759 31.5415 8.77332 31.5939C10.4098 31.8221 12.8154 32.8694 12.8154 32.8694Z" fill="url(#paint14_linear_808_1143)"/>
<path d="M12.8154 32.8694C12.8154 32.8694 10.4098 31.8221 8.77332 31.5939C8.39759 31.5415 8.17027 31.5327 7.81848 31.5009C7.78553 31.498 7.7515 31.4948 7.71615 31.4914L5.35306 31.2621L4.17151 31.1475C4.17151 31.1475 5.43378 34.5561 7.28084 35.4204C7.83319 35.6789 8.77332 35.8668 8.77332 35.8668L10.2658 36.3132L11.8205 34.8464L12.8154 32.8694Z" fill="url(#paint15_linear_808_1143)"/>
<path d="M7.28084 35.4204C5.43378 34.5561 4.17151 31.1475 4.17151 31.1475L5.35306 31.2621C5.35306 31.2621 5.01479 31.0328 4.85557 30.8286C4.59639 30.4963 4.48245 29.8082 4.48245 29.8082C4.48245 29.8082 3.76661 30.3432 3.48746 30.8286C2.81719 31.9942 3.86058 34.2725 3.86058 34.2725L3.92277 34.8464L7.21865 36.7597L8.77332 35.8668C8.77332 35.8668 7.83319 35.6789 7.28084 35.4204Z" fill="url(#paint16_linear_808_1143)"/>
<path d="M5.04212 37.9076C5.99043 37.785 7.21865 36.7597 7.21865 36.7597L3.92277 34.8464L3.86058 34.2725L3.11434 33.2521C3.11434 33.2521 2.40821 34.153 2.24373 34.8464C2.02284 35.7776 2.55466 37.2797 2.55466 37.2797C2.55466 37.2797 4.04956 38.0359 5.04212 37.9076Z" fill="url(#paint17_linear_808_1143)"/>
<path d="M7.71615 39.1193C8.98466 38.3769 10.2658 36.3132 10.2658 36.3132L8.77332 35.8668L7.21865 36.7597C7.21865 36.7597 5.99043 37.785 5.04212 37.9076C4.04956 38.0359 2.55466 37.2797 2.55466 37.2797L1 36.8872C1 36.8872 3.48087 40.0739 5.6018 39.8846C6.47413 39.8067 6.95566 39.5644 7.71615 39.1193Z" fill="url(#paint18_linear_808_1143)"/>
<path d="M10.0792 39.1193C10.5219 38.1191 10.2658 36.3132 10.2658 36.3132C10.2658 36.3132 9.51269 37.5379 9.08425 38.354C8.77534 38.9424 8.97502 39.7437 8.33801 39.8846C7.91004 39.9792 7.28084 39.502 7.28084 39.502C7.28084 39.502 7.80802 40.8137 8.52457 40.905C9.42921 41.0202 9.7025 39.9706 10.0792 39.1193Z" fill="url(#paint19_linear_808_1143)"/>
<path d="M49.6922 32.2316L50.0031 29.8401L49.6922 29.4256C49.6922 29.4256 47.9061 28.4835 47.2047 27.4486C46.2588 26.0528 46.3963 23.1757 46.3963 23.1757C46.3963 23.1757 45.4505 25.2828 45.5878 26.6833C45.7194 28.0256 46.9559 29.8401 46.9559 29.8401L49.6922 32.2316Z" fill="url(#paint20_linear_808_1143)"/>
<path d="M50.1896 28.4052C50.1353 27.735 50.1353 27.3534 50.1896 26.6833C50.3196 25.0809 51.309 22.7292 51.309 22.7292C51.309 22.7292 48.9376 23.4393 48.2619 24.7063C47.8459 25.4862 47.6911 26.0603 47.8266 26.9384C48.0133 28.1487 49.6922 29.4256 49.6922 29.4256L50.0031 29.8401L50.1896 28.4052Z" fill="url(#paint21_linear_808_1143)"/>
<path d="M51.0603 33.252C51.0603 33.252 52.5206 31.5892 53.3612 30.446C54.708 28.6142 56.4083 25.4715 56.4083 25.4715C56.4083 25.4715 53.8975 25.2592 52.5527 25.9817C51.3967 26.6029 50.7953 27.2196 50.1896 28.4052L50.0031 29.8401L49.6922 32.2316L51.0603 33.252Z" fill="url(#paint22_linear_808_1143)"/>
<path d="M55.973 32.2316C54.0465 32.5877 51.0603 33.252 51.0603 33.252L51.9931 35.3566H53.983C53.983 35.3566 55.787 35.5884 56.9058 35.3566C59.4007 34.8396 62.0673 31.275 62.0673 31.275C62.0673 31.275 58.3425 31.7936 55.973 32.2316Z" fill="url(#paint23_linear_808_1143)"/>
<path d="M53.983 35.3566H51.9931L53.983 37.206L55.1024 37.7427C55.1024 37.7427 57.1899 39.475 58.7714 39.5019C60.6397 39.5337 63.0001 37.206 63.0001 37.206C63.0001 37.206 59.8379 37.6796 57.9008 37.206C56.2624 36.8055 53.983 35.3566 53.983 35.3566Z" fill="url(#paint24_linear_808_1143)"/>
<path d="M53.983 37.206L51.9931 35.3566L53.3612 39.6932C53.3612 39.6932 53.8008 41.0759 54.1696 41.9254C54.6071 42.9331 54.6349 43.7242 55.4755 44.4126C55.9593 44.8088 56.9058 45.1141 56.9058 45.1141C56.9058 45.1141 56.1797 44.4667 55.973 43.9024C55.5516 42.7521 56.9972 42.1301 56.9058 40.905C56.7994 39.4785 55.1024 37.7427 55.1024 37.7427L53.983 37.206Z" fill="url(#paint25_linear_808_1143)"/>
<path d="M51.4334 47.9839C46.7694 51.8104 31.977 52.7939 28.984 48.4505C25.8126 41.9892 35.0096 32.3036 39.2448 29.2343C43.4801 26.1649 48.4404 29.0362 51.4334 33.3796C54.4263 37.723 55.6686 44.9146 51.4334 47.9839Z" fill="url(#paint26_linear_808_1143)"/>
<ellipse cx="9.98967" cy="4.60152" rx="9.98967" ry="4.60152" transform="matrix(0.739571 -0.673078 0.654356 0.756187 27.6777 40.3223)" fill="url(#paint27_radial_808_1143)"/>
<ellipse cx="0.599096" cy="0.829699" rx="0.599096" ry="0.829699" transform="matrix(0.572616 0.819824 -0.805923 0.592021 42.0742 36.3132)" fill="#C90515"/>
<ellipse cx="0.185785" cy="0.53057" rx="0.185785" ry="0.53057" transform="matrix(0.572616 0.819824 -0.805923 0.592021 41.9658 36.8234)" fill="#F78D6C"/>
<ellipse cx="0.597458" cy="0.831999" rx="0.597458" ry="0.831999" transform="matrix(0.660206 0.751084 -0.734294 0.678831 43.8311 36.6647)" fill="#C90515"/>
<ellipse cx="0.185277" cy="0.532041" rx="0.185277" ry="0.532041" transform="matrix(0.660206 0.751084 -0.734294 0.678831 43.7783 37.1842)" fill="#F78D6C"/>
<ellipse cx="0.597458" cy="0.831999" rx="0.597458" ry="0.831999" transform="matrix(0.660206 0.751084 -0.734294 0.678831 44.5713 34.7827)" fill="#C90515"/>
<ellipse cx="0.185277" cy="0.532041" rx="0.185277" ry="0.532041" transform="matrix(0.660206 0.751084 -0.734294 0.678831 44.5186 35.3022)" fill="#F78D6C"/>
<ellipse cx="0.597458" cy="0.831999" rx="0.597458" ry="0.831999" transform="matrix(0.660206 0.751084 -0.734294 0.678831 42.332 34.5276)" fill="#C90515"/>
<ellipse cx="0.185277" cy="0.532041" rx="0.185277" ry="0.532041" transform="matrix(0.660206 0.751084 -0.734294 0.678831 42.2793 35.0471)" fill="#F78D6C"/>
<ellipse cx="0.597458" cy="0.831999" rx="0.597458" ry="0.831999" transform="matrix(0.660206 0.751084 -0.734294 0.678831 43.3271 32.7419)" fill="#C90515"/>
<ellipse cx="0.185277" cy="0.532041" rx="0.185277" ry="0.532041" transform="matrix(0.660206 0.751084 -0.734294 0.678831 43.2744 33.2614)" fill="#F78D6C"/>
<ellipse cx="0.597458" cy="0.831999" rx="0.597458" ry="0.831999" transform="matrix(0.660206 0.751084 -0.734294 0.678831 45.0684 33.1245)" fill="#C90515"/>
<ellipse cx="0.185277" cy="0.532041" rx="0.185277" ry="0.532041" transform="matrix(0.660206 0.751084 -0.734294 0.678831 45.0156 33.644)" fill="#F78D6C"/>
<ellipse cx="0.597458" cy="0.831999" rx="0.597458" ry="0.831999" transform="matrix(0.660206 0.751084 -0.734294 0.678831 45.9395 31.4664)" fill="#C90515"/>
<ellipse cx="0.185277" cy="0.532041" rx="0.185277" ry="0.532041" transform="matrix(0.660206 0.751084 -0.734294 0.678831 45.8867 31.9859)" fill="#F78D6C"/>
<ellipse cx="0.597392" cy="0.832092" rx="0.597392" ry="0.832092" transform="matrix(0.494553 0.87495 -0.855201 0.508392 46.7598 29.6209)" fill="#C90515"/>
<ellipse cx="0.185256" cy="0.5321" rx="0.185256" ry="0.5321" transform="matrix(0.494553 0.87495 -0.855201 0.508392 46.6035 30.118)" fill="#F78D6C"/>
<ellipse cx="0.597392" cy="0.832092" rx="0.597392" ry="0.832092" transform="matrix(0.494553 0.87495 -0.855201 0.508392 48.8086 30.45)" fill="#C90515"/>
<ellipse cx="0.185256" cy="0.5321" rx="0.185256" ry="0.5321" transform="matrix(0.494553 0.87495 -0.855201 0.508392 48.6523 30.9471)" fill="#F78D6C"/>
<ellipse cx="0.59744" cy="0.832024" rx="0.59744" ry="0.832024" transform="matrix(0.577051 0.819997 -0.801618 0.593294 48.5908 32.1979)" fill="#C90515"/>
<ellipse cx="0.185271" cy="0.532057" rx="0.185271" ry="0.532057" transform="matrix(0.577051 0.819997 -0.801618 0.593294 48.4834 32.7085)" fill="#F78D6C"/>
<ellipse cx="0.59744" cy="0.832024" rx="0.59744" ry="0.832024" transform="matrix(0.577051 0.819997 -0.801618 0.593294 48.0117 33.7704)" fill="#C90515"/>
<ellipse cx="0.185271" cy="0.532057" rx="0.185271" ry="0.532057" transform="matrix(0.577051 0.819997 -0.801618 0.593294 47.9043 34.281)" fill="#F78D6C"/>
<ellipse cx="0.59744" cy="0.832024" rx="0.59744" ry="0.832024" transform="matrix(0.577051 0.819997 -0.801618 0.593294 47.0166 35.6836)" fill="#C90515"/>
<ellipse cx="0.185271" cy="0.532057" rx="0.185271" ry="0.532057" transform="matrix(0.577051 0.819997 -0.801618 0.593294 46.9092 36.1942)" fill="#F78D6C"/>
<ellipse cx="0.59744" cy="0.832024" rx="0.59744" ry="0.832024" transform="matrix(0.577051 0.819997 -0.801618 0.593294 48.7578 36.0663)" fill="#C90515"/>
<ellipse cx="0.185271" cy="0.532057" rx="0.185271" ry="0.532057" transform="matrix(0.577051 0.819997 -0.801618 0.593294 48.6504 36.5769)" fill="#F78D6C"/>
<ellipse cx="0.59744" cy="0.832024" rx="0.59744" ry="0.832024" transform="matrix(0.577051 0.819997 -0.801618 0.593294 49.7529 34.2806)" fill="#C90515"/>
<ellipse cx="0.185271" cy="0.532057" rx="0.185271" ry="0.532057" transform="matrix(0.577051 0.819997 -0.801618 0.593294 49.6455 34.7912)" fill="#F78D6C"/>
<ellipse cx="0.59744" cy="0.832024" rx="0.59744" ry="0.832024" transform="matrix(0.577051 0.819997 -0.801618 0.593294 51.2451 34.9183)" fill="#C90515"/>
<ellipse cx="0.185271" cy="0.532057" rx="0.185271" ry="0.532057" transform="matrix(0.577051 0.819997 -0.801618 0.593294 51.1377 35.4289)" fill="#F78D6C"/>
<ellipse cx="0.59744" cy="0.832024" rx="0.59744" ry="0.832024" transform="matrix(0.577051 0.819997 -0.801618 0.593294 50.251 36.9591)" fill="#C90515"/>
<ellipse cx="0.185271" cy="0.532057" rx="0.185271" ry="0.532057" transform="matrix(0.577051 0.819997 -0.801618 0.593294 50.1436 37.4697)" fill="#F78D6C"/>
<ellipse cx="0.597439" cy="0.832025" rx="0.597439" ry="0.832025" transform="matrix(0.736416 0.672496 -0.657423 0.757142 51.4033 37.5486)" fill="#C90515"/>
<ellipse cx="0.185271" cy="0.532057" rx="0.185271" ry="0.532057" transform="matrix(0.736416 0.672496 -0.657423 0.757142 51.4062 38.0709)" fill="#F78D6C"/>
<ellipse cx="0.597439" cy="0.832025" rx="0.597439" ry="0.832025" transform="matrix(0.736416 0.672496 -0.657423 0.757142 45.9326 37.4221)" fill="#C90515"/>
<ellipse cx="0.185271" cy="0.532057" rx="0.185271" ry="0.532057" transform="matrix(0.736416 0.672496 -0.657423 0.757142 45.9346 37.9444)" fill="#F78D6C"/>
<ellipse cx="0.597439" cy="0.832025" rx="0.597439" ry="0.832025" transform="matrix(0.736416 0.672496 -0.657423 0.757142 47.5488 38.1874)" fill="#C90515"/>
<ellipse cx="0.185271" cy="0.532057" rx="0.185271" ry="0.532057" transform="matrix(0.736416 0.672496 -0.657423 0.757142 47.5518 38.7097)" fill="#F78D6C"/>
<ellipse cx="0.597439" cy="0.832025" rx="0.597439" ry="0.832025" transform="matrix(0.736416 0.672496 -0.657423 0.757142 49.165 38.9527)" fill="#C90515"/>
<ellipse cx="0.185271" cy="0.532057" rx="0.185271" ry="0.532057" transform="matrix(0.736416 0.672496 -0.657423 0.757142 49.167 39.475)" fill="#F78D6C"/>
<ellipse cx="0.597439" cy="0.832025" rx="0.597439" ry="0.832025" transform="matrix(0.736416 0.672496 -0.657423 0.757142 51.1562 39.5904)" fill="#C90515"/>
<ellipse cx="0.185271" cy="0.532057" rx="0.185271" ry="0.532057" transform="matrix(0.736416 0.672496 -0.657423 0.757142 51.1582 40.1127)" fill="#F78D6C"/>
<ellipse cx="0.597439" cy="0.832025" rx="0.597439" ry="0.832025" transform="matrix(0.736416 0.672496 -0.657423 0.757142 43.1963 38.9527)" fill="#C90515"/>
<ellipse cx="0.185271" cy="0.532057" rx="0.185271" ry="0.532057" transform="matrix(0.736416 0.672496 -0.657423 0.757142 43.1982 39.475)" fill="#F78D6C"/>
<ellipse cx="0.597439" cy="0.832025" rx="0.597439" ry="0.832025" transform="matrix(0.736416 0.672496 -0.657423 0.757142 44.8125 39.463)" fill="#C90515"/>
<ellipse cx="0.185271" cy="0.532057" rx="0.185271" ry="0.532057" transform="matrix(0.736416 0.672496 -0.657423 0.757142 44.8154 39.9852)" fill="#F78D6C"/>
<ellipse cx="0.597439" cy="0.832025" rx="0.597439" ry="0.832025" transform="matrix(0.736416 0.672496 -0.657423 0.757142 46.5537 40.1007)" fill="#C90515"/>
<ellipse cx="0.185271" cy="0.532057" rx="0.185271" ry="0.532057" transform="matrix(0.736416 0.672496 -0.657423 0.757142 46.5566 40.623)" fill="#F78D6C"/>
<ellipse cx="0.597439" cy="0.832025" rx="0.597439" ry="0.832025" transform="matrix(0.736416 0.672496 -0.657423 0.757142 48.6689 40.6108)" fill="#C90515"/>
<ellipse cx="0.185271" cy="0.532057" rx="0.185271" ry="0.532057" transform="matrix(0.736416 0.672496 -0.657423 0.757142 48.6709 41.1331)" fill="#F78D6C"/>
<ellipse cx="0.597439" cy="0.832025" rx="0.597439" ry="0.832025" transform="matrix(0.736416 0.672496 -0.657423 0.757142 38.4697 39.718)" fill="#C90515"/>
<ellipse cx="0.185271" cy="0.532057" rx="0.185271" ry="0.532057" transform="matrix(0.736416 0.672496 -0.657423 0.757142 38.4727 40.2403)" fill="#F78D6C"/>
<ellipse cx="0.597439" cy="0.832025" rx="0.597439" ry="0.832025" transform="matrix(0.736416 0.672496 -0.657423 0.757142 40.0859 40.2281)" fill="#C90515"/>
<ellipse cx="0.185271" cy="0.532057" rx="0.185271" ry="0.532057" transform="matrix(0.736416 0.672496 -0.657423 0.757142 40.0879 40.7505)" fill="#F78D6C"/>
<ellipse cx="0.597439" cy="0.832025" rx="0.597439" ry="0.832025" transform="matrix(0.736416 0.672496 -0.657423 0.757142 41.8271 40.866)" fill="#C90515"/>
<ellipse cx="0.185271" cy="0.532057" rx="0.185271" ry="0.532057" transform="matrix(0.736416 0.672496 -0.657423 0.757142 41.8291 41.3883)" fill="#F78D6C"/>
<ellipse cx="0.597439" cy="0.832025" rx="0.597439" ry="0.832025" transform="matrix(0.736416 0.672496 -0.657423 0.757142 43.9414 41.3761)" fill="#C90515"/>
<ellipse cx="0.185271" cy="0.532057" rx="0.185271" ry="0.532057" transform="matrix(0.736416 0.672496 -0.657423 0.757142 43.9434 41.8984)" fill="#F78D6C"/>
<ellipse cx="0.597439" cy="0.832025" rx="0.597439" ry="0.832025" transform="matrix(0.736416 0.672496 -0.657423 0.757142 37.9727 41.7588)" fill="#C90515"/>
<ellipse cx="0.185271" cy="0.532057" rx="0.185271" ry="0.532057" transform="matrix(0.736416 0.672496 -0.657423 0.757142 37.9746 42.2811)" fill="#F78D6C"/>
<ellipse cx="0.597439" cy="0.832025" rx="0.597439" ry="0.832025" transform="matrix(0.736416 0.672496 -0.657423 0.757142 39.5889 42.269)" fill="#C90515"/>
<ellipse cx="0.185271" cy="0.532057" rx="0.185271" ry="0.532057" transform="matrix(0.736416 0.672496 -0.657423 0.757142 39.5918 42.7913)" fill="#F78D6C"/>
<ellipse cx="0.597439" cy="0.832025" rx="0.597439" ry="0.832025" transform="matrix(0.736416 0.672496 -0.657423 0.757142 41.3301 42.9067)" fill="#C90515"/>
<ellipse cx="0.185271" cy="0.532057" rx="0.185271" ry="0.532057" transform="matrix(0.736416 0.672496 -0.657423 0.757142 41.333 43.429)" fill="#F78D6C"/>
<ellipse cx="0.597439" cy="0.832025" rx="0.597439" ry="0.832025" transform="matrix(0.736416 0.672496 -0.657423 0.757142 43.4443 43.4169)" fill="#C90515"/>
<ellipse cx="0.185271" cy="0.532057" rx="0.185271" ry="0.532057" transform="matrix(0.736416 0.672496 -0.657423 0.757142 43.4473 43.9392)" fill="#F78D6C"/>
<ellipse cx="0.597439" cy="0.832025" rx="0.597439" ry="0.832025" transform="matrix(0.736416 0.672496 -0.657423 0.757142 37.1016 43.7996)" fill="#C90515"/>
<ellipse cx="0.185271" cy="0.532057" rx="0.185271" ry="0.532057" transform="matrix(0.736416 0.672496 -0.657423 0.757142 37.1035 44.3219)" fill="#F78D6C"/>
<ellipse cx="0.597439" cy="0.832025" rx="0.597439" ry="0.832025" transform="matrix(0.736416 0.672496 -0.657423 0.757142 38.7188 44.3098)" fill="#C90515"/>
<ellipse cx="0.185271" cy="0.532057" rx="0.185271" ry="0.532057" transform="matrix(0.736416 0.672496 -0.657423 0.757142 38.7207 44.8321)" fill="#F78D6C"/>
<ellipse cx="0.597439" cy="0.832025" rx="0.597439" ry="0.832025" transform="matrix(0.736416 0.672496 -0.657423 0.757142 40.46 44.9475)" fill="#C90515"/>
<ellipse cx="0.185271" cy="0.532057" rx="0.185271" ry="0.532057" transform="matrix(0.736416 0.672496 -0.657423 0.757142 40.4619 45.4698)" fill="#F78D6C"/>
<ellipse cx="0.597439" cy="0.832025" rx="0.597439" ry="0.832025" transform="matrix(0.736416 0.672496 -0.657423 0.757142 42.5732 45.4577)" fill="#C90515"/>
<ellipse cx="0.185271" cy="0.532057" rx="0.185271" ry="0.532057" transform="matrix(0.736416 0.672496 -0.657423 0.757142 42.5752 45.98)" fill="#F78D6C"/>
<ellipse cx="0.597439" cy="0.832025" rx="0.597439" ry="0.832025" transform="matrix(0.736416 0.672496 -0.657423 0.757142 36.3555 45.5853)" fill="#C90515"/>
<ellipse cx="0.185271" cy="0.532057" rx="0.185271" ry="0.532057" transform="matrix(0.736416 0.672496 -0.657423 0.757142 36.3584 46.1075)" fill="#F78D6C"/>
<ellipse cx="0.597439" cy="0.832025" rx="0.597439" ry="0.832025" transform="matrix(0.736416 0.672496 -0.657423 0.757142 37.9727 46.0955)" fill="#C90515"/>
<ellipse cx="0.185271" cy="0.532057" rx="0.185271" ry="0.532057" transform="matrix(0.736416 0.672496 -0.657423 0.757142 37.9746 46.6178)" fill="#F78D6C"/>
<ellipse cx="0.597439" cy="0.832025" rx="0.597439" ry="0.832025" transform="matrix(0.736416 0.672496 -0.657423 0.757142 39.7139 46.7332)" fill="#C90515"/>
<ellipse cx="0.185271" cy="0.532057" rx="0.185271" ry="0.532057" transform="matrix(0.736416 0.672496 -0.657423 0.757142 39.7158 47.2555)" fill="#F78D6C"/>
<ellipse cx="0.597439" cy="0.832025" rx="0.597439" ry="0.832025" transform="matrix(0.736416 0.672496 -0.657423 0.757142 41.8271 47.2434)" fill="#C90515"/>
<ellipse cx="0.185271" cy="0.532057" rx="0.185271" ry="0.532057" transform="matrix(0.736416 0.672496 -0.657423 0.757142 41.8291 47.7657)" fill="#F78D6C"/>
<ellipse cx="0.597439" cy="0.832025" rx="0.597439" ry="0.832025" transform="matrix(0.736416 0.672496 -0.657423 0.757142 35.6084 47.1158)" fill="#C90515"/>
<ellipse cx="0.185271" cy="0.532057" rx="0.185271" ry="0.532057" transform="matrix(0.736416 0.672496 -0.657423 0.757142 35.6104 47.6381)" fill="#F78D6C"/>
<ellipse cx="0.597439" cy="0.832025" rx="0.597439" ry="0.832025" transform="matrix(0.736416 0.672496 -0.657423 0.757142 37.2266 47.626)" fill="#C90515"/>
<ellipse cx="0.185271" cy="0.532057" rx="0.185271" ry="0.532057" transform="matrix(0.736416 0.672496 -0.657423 0.757142 37.2285 48.1483)" fill="#F78D6C"/>
<ellipse cx="0.597439" cy="0.832025" rx="0.597439" ry="0.832025" transform="matrix(0.736416 0.672496 -0.657423 0.757142 38.9678 48.2638)" fill="#C90515"/>
<ellipse cx="0.185271" cy="0.532057" rx="0.185271" ry="0.532057" transform="matrix(0.736416 0.672496 -0.657423 0.757142 38.9697 48.7861)" fill="#F78D6C"/>
<ellipse cx="0.597439" cy="0.832025" rx="0.597439" ry="0.832025" transform="matrix(0.736416 0.672496 -0.657423 0.757142 41.082 48.774)" fill="#C90515"/>
<ellipse cx="0.185271" cy="0.532057" rx="0.185271" ry="0.532057" transform="matrix(0.736416 0.672496 -0.657423 0.757142 41.084 49.2963)" fill="#F78D6C"/>
<ellipse cx="0.597458" cy="0.831999" rx="0.597458" ry="0.831999" transform="matrix(0.660206 0.751084 -0.734294 0.678831 44.1982 30.9562)" fill="#C90515"/>
<ellipse cx="0.185277" cy="0.532041" rx="0.185277" ry="0.532041" transform="matrix(0.660206 0.751084 -0.734294 0.678831 44.1455 31.4757)" fill="#F78D6C"/>
<ellipse cx="0.597458" cy="0.831999" rx="0.597458" ry="0.831999" transform="matrix(0.660206 0.751084 -0.734294 0.678831 41.959 31.849)" fill="#C90515"/>
<ellipse cx="0.185277" cy="0.532041" rx="0.185277" ry="0.532041" transform="matrix(0.660206 0.751084 -0.734294 0.678831 41.9062 32.3686)" fill="#F78D6C"/>
<ellipse cx="0.597458" cy="0.831999" rx="0.597458" ry="0.831999" transform="matrix(0.660206 0.751084 -0.734294 0.678831 40.9639 33.8898)" fill="#C90515"/>
<ellipse cx="0.185277" cy="0.532041" rx="0.185277" ry="0.532041" transform="matrix(0.660206 0.751084 -0.734294 0.678831 40.9111 34.4093)" fill="#F78D6C"/>
<ellipse cx="0.597458" cy="0.831999" rx="0.597458" ry="0.831999" transform="matrix(0.660206 0.751084 -0.734294 0.678831 39.8447 35.8031)" fill="#C90515"/>
<ellipse cx="0.185277" cy="0.532041" rx="0.185277" ry="0.532041" transform="matrix(0.660206 0.751084 -0.734294 0.678831 39.792 36.3225)" fill="#F78D6C"/>
<ellipse cx="0.597458" cy="0.831999" rx="0.597458" ry="0.831999" transform="matrix(0.660206 0.751084 -0.734294 0.678831 39.2227 37.9714)" fill="#C90515"/>
<ellipse cx="0.185277" cy="0.532041" rx="0.185277" ry="0.532041" transform="matrix(0.660206 0.751084 -0.734294 0.678831 39.1699 38.4909)" fill="#F78D6C"/>
<ellipse cx="0.597458" cy="0.831999" rx="0.597458" ry="0.831999" transform="matrix(0.660206 0.751084 -0.734294 0.678831 41.2129 38.2264)" fill="#C90515"/>
<ellipse cx="0.185277" cy="0.532041" rx="0.185277" ry="0.532041" transform="matrix(0.660206 0.751084 -0.734294 0.678831 41.1602 38.746)" fill="#F78D6C"/>
<ellipse cx="0.597458" cy="0.831999" rx="0.597458" ry="0.831999" transform="matrix(0.660206 0.751084 -0.734294 0.678831 37.4814 37.9714)" fill="#C90515"/>
<ellipse cx="0.185277" cy="0.532041" rx="0.185277" ry="0.532041" transform="matrix(0.660206 0.751084 -0.734294 0.678831 37.4287 38.4909)" fill="#F78D6C"/>
<ellipse cx="0.597458" cy="0.831999" rx="0.597458" ry="0.831999" transform="matrix(0.660206 0.751084 -0.734294 0.678831 37.9795 35.9306)" fill="#C90515"/>
<ellipse cx="0.185277" cy="0.532041" rx="0.185277" ry="0.532041" transform="matrix(0.660206 0.751084 -0.734294 0.678831 37.9268 36.4501)" fill="#F78D6C"/>
<ellipse cx="0.597458" cy="0.831999" rx="0.597458" ry="0.831999" transform="matrix(0.660206 0.751084 -0.734294 0.678831 39.0986 33.8898)" fill="#C90515"/>
<ellipse cx="0.185277" cy="0.532041" rx="0.185277" ry="0.532041" transform="matrix(0.660206 0.751084 -0.734294 0.678831 39.0459 34.4093)" fill="#F78D6C"/>
<ellipse cx="0.597458" cy="0.831999" rx="0.597458" ry="0.831999" transform="matrix(0.660206 0.751084 -0.734294 0.678831 39.9688 32.2317)" fill="#C90515"/>
<ellipse cx="0.185277" cy="0.532041" rx="0.185277" ry="0.532041" transform="matrix(0.660206 0.751084 -0.734294 0.678831 39.916 32.7512)" fill="#F78D6C"/>
<ellipse cx="0.597458" cy="0.831999" rx="0.597458" ry="0.831999" transform="matrix(0.660206 0.751084 -0.734294 0.678831 40.5908 30.7011)" fill="#C90515"/>
<ellipse cx="0.185277" cy="0.532041" rx="0.185277" ry="0.532041" transform="matrix(0.660206 0.751084 -0.734294 0.678831 40.5381 31.2206)" fill="#F78D6C"/>
<ellipse cx="0.597458" cy="0.831999" rx="0.597458" ry="0.831999" transform="matrix(0.660206 0.751084 -0.734294 0.678831 42.332 30.1909)" fill="#C90515"/>
<ellipse cx="0.185277" cy="0.532041" rx="0.185277" ry="0.532041" transform="matrix(0.660206 0.751084 -0.734294 0.678831 42.2793 30.7104)" fill="#F78D6C"/>
<ellipse cx="0.597458" cy="0.831999" rx="0.597458" ry="0.831999" transform="matrix(0.660206 0.751084 -0.734294 0.678831 44.3223 29.5531)" fill="#C90515"/>
<ellipse cx="0.185277" cy="0.532041" rx="0.185277" ry="0.532041" transform="matrix(0.660206 0.751084 -0.734294 0.678831 44.2695 30.0727)" fill="#F78D6C"/>
<ellipse cx="0.597458" cy="0.831999" rx="0.597458" ry="0.831999" transform="matrix(0.660206 0.751084 -0.734294 0.678831 43.5752 28.5328)" fill="#C90515"/>
<ellipse cx="0.185277" cy="0.532041" rx="0.185277" ry="0.532041" transform="matrix(0.660206 0.751084 -0.734294 0.678831 43.5225 29.0522)" fill="#F78D6C"/>
<ellipse cx="0.595958" cy="0.834093" rx="0.595958" ry="0.834093" transform="matrix(0.845647 -0.52497 0.510661 0.865141 26.9121 17.8479)" fill="#BA182F"/>
<ellipse cx="0.184812" cy="0.53338" rx="0.184812" ry="0.53338" transform="matrix(0.845647 -0.52497 0.510661 0.865141 27.4004 17.9988)" fill="#C64D25"/>
<ellipse cx="0.595958" cy="0.834093" rx="0.595958" ry="0.834093" transform="matrix(0.845647 -0.52497 0.510661 0.865141 24.2998 19.3785)" fill="#BA182F"/>
<ellipse cx="0.184812" cy="0.53338" rx="0.184812" ry="0.53338" transform="matrix(0.845647 -0.52497 0.510661 0.865141 24.7881 19.5293)" fill="#C64D25"/>
<ellipse cx="0.595958" cy="0.834093" rx="0.595958" ry="0.834093" transform="matrix(0.845647 -0.52497 0.510661 0.865141 23.9268 21.6744)" fill="#BA182F"/>
<ellipse cx="0.184812" cy="0.53338" rx="0.184812" ry="0.53338" transform="matrix(0.845647 -0.52497 0.510661 0.865141 24.415 21.8253)" fill="#C64D25"/>
<ellipse cx="0.596134" cy="0.833848" rx="0.596134" ry="0.833848" transform="matrix(0.932184 -0.336426 0.327448 0.954235 22.2881 20.9778)" fill="#BA182F"/>
<ellipse cx="0.184866" cy="0.533223" rx="0.184866" ry="0.533223" transform="matrix(0.932184 -0.336426 0.327448 0.954235 22.7354 21.2277)" fill="#C64D25"/>
<ellipse cx="0.596134" cy="0.833848" rx="0.596134" ry="0.833848" transform="matrix(0.932184 -0.336426 0.327448 0.954235 23.0488 19.2031)" fill="#BA182F"/>
<ellipse cx="0.184866" cy="0.533223" rx="0.184866" ry="0.533223" transform="matrix(0.932184 -0.336426 0.327448 0.954235 23.4961 19.453)" fill="#C64D25"/>
<ellipse cx="0.596134" cy="0.833848" rx="0.596134" ry="0.833848" transform="matrix(0.932184 -0.336426 0.327448 0.954235 25.1631 17.2899)" fill="#BA182F"/>
<ellipse cx="0.184866" cy="0.533223" rx="0.184866" ry="0.533223" transform="matrix(0.932184 -0.336426 0.327448 0.954235 25.6104 17.5398)" fill="#C64D25"/>
<ellipse cx="0.597383" cy="0.832103" rx="0.597383" ry="0.832103" transform="matrix(0.804657 0.584669 -0.571457 0.82715 22.2559 18.1229)" fill="#BA182F"/>
<ellipse cx="0.185254" cy="0.532107" rx="0.185254" ry="0.532107" transform="matrix(0.804657 0.584669 -0.571457 0.82715 22.3154 18.6416)" fill="#C64D25"/>
<ellipse cx="0.597383" cy="0.832103" rx="0.597383" ry="0.832103" transform="matrix(0.804657 0.584669 -0.571457 0.82715 21.1592 19.5264)" fill="#BA182F"/>
<ellipse cx="0.185254" cy="0.532107" rx="0.185254" ry="0.532107" transform="matrix(0.804657 0.584669 -0.571457 0.82715 21.2188 20.0452)" fill="#C64D25"/>
<ellipse cx="0.596541" cy="0.83328" rx="0.596541" ry="0.83328" transform="matrix(0.986805 -0.0392527 0.0382573 1.01153 19.9219 21.6577)" fill="#BA182F"/>
<ellipse cx="0.184993" cy="0.53286" rx="0.184993" ry="0.53286" transform="matrix(0.986805 -0.0392527 0.0382573 1.01153 20.2773 22.0319)" fill="#C64D25"/>
<ellipse cx="0.596203" cy="0.833752" rx="0.596203" ry="0.833752" transform="matrix(0.949797 -0.279432 0.272038 0.97249 21.5723 22.3143)" fill="#BA182F"/>
<ellipse cx="0.184888" cy="0.533162" rx="0.184888" ry="0.533162" transform="matrix(0.949797 -0.279432 0.272038 0.97249 22.0039 22.5909)" fill="#C64D25"/>
<ellipse cx="0.596203" cy="0.833752" rx="0.596203" ry="0.833752" transform="matrix(0.949797 -0.279432 0.272038 0.97249 19.6318 24.2854)" fill="#BA182F"/>
<ellipse cx="0.184888" cy="0.533162" rx="0.184888" ry="0.533162" transform="matrix(0.949797 -0.279432 0.272038 0.97249 20.0635 24.5619)" fill="#C64D25"/>
<ellipse cx="0.596203" cy="0.833752" rx="0.596203" ry="0.833752" transform="matrix(0.949797 -0.279432 0.272038 0.97249 21.373 24.7956)" fill="#BA182F"/>
<ellipse cx="0.184888" cy="0.533162" rx="0.184888" ry="0.533162" transform="matrix(0.949797 -0.279432 0.272038 0.97249 21.8047 25.0721)" fill="#C64D25"/>
<ellipse cx="0.596133" cy="0.833849" rx="0.596133" ry="0.833849" transform="matrix(0.932056 -0.336799 0.327812 0.954103 23.5762 23.5695)" fill="#BA182F"/>
<ellipse cx="0.184866" cy="0.533224" rx="0.184866" ry="0.533224" transform="matrix(0.932056 -0.336799 0.327812 0.954103 24.0234 23.8192)" fill="#C64D25"/>
<ellipse cx="0.596133" cy="0.833849" rx="0.596133" ry="0.833849" transform="matrix(0.932056 -0.336799 0.327812 0.954103 23.1729 25.9633)" fill="#BA182F"/>
<ellipse cx="0.184866" cy="0.533224" rx="0.184866" ry="0.533224" transform="matrix(0.932056 -0.336799 0.327812 0.954103 23.6201 26.213)" fill="#C64D25"/>
<ellipse cx="0.596133" cy="0.833849" rx="0.596133" ry="0.833849" transform="matrix(0.932056 -0.336799 0.327811 0.954103 25.9092 26.3461)" fill="#BA182F"/>
<ellipse cx="0.184866" cy="0.533224" rx="0.184866" ry="0.533224" transform="matrix(0.932056 -0.336799 0.327811 0.954103 26.3564 26.5958)" fill="#C64D25"/>
<ellipse cx="0.596133" cy="0.833849" rx="0.596133" ry="0.833849" transform="matrix(0.932056 -0.336799 0.327812 0.954103 26.0342 28.8969)" fill="#BA182F"/>
<ellipse cx="0.184866" cy="0.533224" rx="0.184866" ry="0.533224" transform="matrix(0.932056 -0.336799 0.327812 0.954103 26.4814 29.1466)" fill="#C64D25"/>
<ellipse cx="0.596133" cy="0.833849" rx="0.596133" ry="0.833849" transform="matrix(0.932056 -0.336799 0.327812 0.954103 24.293 27.6214)" fill="#BA182F"/>
<ellipse cx="0.184866" cy="0.533224" rx="0.184866" ry="0.533224" transform="matrix(0.932056 -0.336799 0.327812 0.954103 24.7402 27.8712)" fill="#C64D25"/>
<ellipse cx="0.596133" cy="0.833849" rx="0.596133" ry="0.833849" transform="matrix(0.932056 -0.336799 0.327812 0.954103 25.9092 24.1776)" fill="#BA182F"/>
<ellipse cx="0.184866" cy="0.533224" rx="0.184866" ry="0.533224" transform="matrix(0.932056 -0.336799 0.327812 0.954103 26.3564 24.4273)" fill="#C64D25"/>
<ellipse cx="0.596133" cy="0.833849" rx="0.596133" ry="0.833849" transform="matrix(0.932056 -0.336799 0.327812 0.954103 25.9092 22.0092)" fill="#BA182F"/>
<ellipse cx="0.184866" cy="0.533224" rx="0.184866" ry="0.533224" transform="matrix(0.932056 -0.336799 0.327812 0.954103 26.3564 22.259)" fill="#C64D25"/>
<ellipse cx="0.596133" cy="0.833849" rx="0.596133" ry="0.833849" transform="matrix(0.932056 -0.336799 0.327811 0.954103 28.0234 22.1368)" fill="#BA182F"/>
<ellipse cx="0.184866" cy="0.533224" rx="0.184866" ry="0.533224" transform="matrix(0.932056 -0.336799 0.327811 0.954103 28.4707 22.3865)" fill="#C64D25"/>
<ellipse cx="0.596133" cy="0.833849" rx="0.596133" ry="0.833849" transform="matrix(0.932056 -0.336799 0.327812 0.954103 27.7754 24.1776)" fill="#BA182F"/>
<ellipse cx="0.184866" cy="0.533224" rx="0.184866" ry="0.533224" transform="matrix(0.932056 -0.336799 0.327812 0.954103 28.2227 24.4273)" fill="#C64D25"/>
<ellipse cx="0.596133" cy="0.833849" rx="0.596133" ry="0.833849" transform="matrix(0.932056 -0.336799 0.327812 0.954103 26.2822 19.7133)" fill="#BA182F"/>
<ellipse cx="0.184866" cy="0.533224" rx="0.184866" ry="0.533224" transform="matrix(0.932056 -0.336799 0.327812 0.954103 26.7295 19.963)" fill="#C64D25"/>
<ellipse cx="0.596133" cy="0.833849" rx="0.596133" ry="0.833849" transform="matrix(0.932056 -0.336799 0.327812 0.954103 28.0234 19.9685)" fill="#BA182F"/>
<ellipse cx="0.184866" cy="0.533224" rx="0.184866" ry="0.533224" transform="matrix(0.932056 -0.336799 0.327812 0.954103 28.4707 20.2182)" fill="#C64D25"/>
<ellipse cx="0.596133" cy="0.833849" rx="0.596133" ry="0.833849" transform="matrix(0.932056 -0.336799 0.327812 0.954103 29.0186 18.693)" fill="#BA182F"/>
<ellipse cx="0.184866" cy="0.533224" rx="0.184866" ry="0.533224" transform="matrix(0.932056 -0.336799 0.327812 0.954103 29.4658 18.9427)" fill="#C64D25"/>
<ellipse cx="0.596133" cy="0.833849" rx="0.596133" ry="0.833849" transform="matrix(0.932056 -0.336799 0.327812 0.954103 27.7754 16.0146)" fill="#BA182F"/>
<ellipse cx="0.184866" cy="0.533224" rx="0.184866" ry="0.533224" transform="matrix(0.932056 -0.336799 0.327812 0.954103 28.2227 16.2643)" fill="#C64D25"/>
<ellipse cx="0.596133" cy="0.833849" rx="0.596133" ry="0.833849" transform="matrix(0.932056 -0.336799 0.327812 0.954103 29.6396 16.7798)" fill="#BA182F"/>
<ellipse cx="0.184866" cy="0.533224" rx="0.184866" ry="0.533224" transform="matrix(0.932056 -0.336799 0.327812 0.954103 30.0869 17.0295)" fill="#C64D25"/>
<ellipse cx="0.596133" cy="0.833849" rx="0.596133" ry="0.833849" transform="matrix(0.932056 -0.336799 0.327812 0.954103 30.6357 15.2492)" fill="#BA182F"/>
<ellipse cx="0.184866" cy="0.533224" rx="0.184866" ry="0.533224" transform="matrix(0.932056 -0.336799 0.327812 0.954103 31.083 15.4989)" fill="#C64D25"/>
<ellipse cx="0.596133" cy="0.833849" rx="0.596133" ry="0.833849" transform="matrix(0.932056 -0.336799 0.327812 0.954103 32.1279 17.0349)" fill="#BA182F"/>
<ellipse cx="0.184866" cy="0.533224" rx="0.184866" ry="0.533224" transform="matrix(0.932056 -0.336799 0.327812 0.954103 32.5752 17.2846)" fill="#C64D25"/>
<ellipse cx="0.596133" cy="0.833849" rx="0.596133" ry="0.833849" transform="matrix(0.932056 -0.336799 0.327812 0.954103 33.1221 16.0145)" fill="#BA182F"/>
<ellipse cx="0.184866" cy="0.533224" rx="0.184866" ry="0.533224" transform="matrix(0.932056 -0.336799 0.327812 0.954103 33.5693 16.2643)" fill="#C64D25"/>
<ellipse cx="0.596133" cy="0.833849" rx="0.596133" ry="0.833849" transform="matrix(0.932056 -0.336799 0.327812 0.954103 34.6152 15.3767)" fill="#BA182F"/>
<ellipse cx="0.184866" cy="0.533224" rx="0.184866" ry="0.533224" transform="matrix(0.932056 -0.336799 0.327812 0.954103 35.0625 15.6265)" fill="#C64D25"/>
<ellipse cx="0.596133" cy="0.833849" rx="0.596133" ry="0.833849" transform="matrix(0.932056 -0.336799 0.327812 0.954103 34.9883 17.0349)" fill="#BA182F"/>
<ellipse cx="0.184866" cy="0.533224" rx="0.184866" ry="0.533224" transform="matrix(0.932056 -0.336799 0.327812 0.954103 35.4355 17.2846)" fill="#C64D25"/>
<ellipse cx="0.596133" cy="0.833849" rx="0.596133" ry="0.833849" transform="matrix(0.932056 -0.336799 0.327812 0.954103 36.9775 17.1624)" fill="#BA182F"/>
<ellipse cx="0.184866" cy="0.533224" rx="0.184866" ry="0.533224" transform="matrix(0.932056 -0.336799 0.327812 0.954103 37.4248 17.4121)" fill="#C64D25"/>
<ellipse cx="0.596133" cy="0.833849" rx="0.596133" ry="0.833849" transform="matrix(0.932056 -0.336799 0.327812 0.954103 34.3672 18.693)" fill="#BA182F"/>
<ellipse cx="0.184866" cy="0.533224" rx="0.184866" ry="0.533224" transform="matrix(0.932056 -0.336799 0.327812 0.954103 34.8145 18.9427)" fill="#C64D25"/>
<ellipse cx="0.596133" cy="0.833849" rx="0.596133" ry="0.833849" transform="matrix(0.932056 -0.336799 0.327812 0.954103 32.0039 18.8206)" fill="#BA182F"/>
<ellipse cx="0.184866" cy="0.533224" rx="0.184866" ry="0.533224" transform="matrix(0.932056 -0.336799 0.327812 0.954103 32.4512 19.0703)" fill="#C64D25"/>
<ellipse cx="0.596133" cy="0.833849" rx="0.596133" ry="0.833849" transform="matrix(0.932056 -0.336799 0.327812 0.954103 31.1328 20.6062)" fill="#BA182F"/>
<ellipse cx="0.184866" cy="0.533224" rx="0.184866" ry="0.533224" transform="matrix(0.932056 -0.336799 0.327812 0.954103 31.5801 20.8559)" fill="#C64D25"/>
<ellipse cx="0.596133" cy="0.833849" rx="0.596133" ry="0.833849" transform="matrix(0.932056 -0.336799 0.327812 0.954103 30.2627 22.7746)" fill="#BA182F"/>
<ellipse cx="0.184866" cy="0.533224" rx="0.184866" ry="0.533224" transform="matrix(0.932056 -0.336799 0.327812 0.954103 30.71 23.0243)" fill="#C64D25"/>
<ellipse cx="0.596133" cy="0.833849" rx="0.596133" ry="0.833849" transform="matrix(0.932056 -0.336799 0.327812 0.954103 33.3721 22.1369)" fill="#BA182F"/>
<ellipse cx="0.184866" cy="0.533224" rx="0.184866" ry="0.533224" transform="matrix(0.932056 -0.336799 0.327812 0.954103 33.8193 22.3866)" fill="#C64D25"/>
<ellipse cx="0.596133" cy="0.833849" rx="0.596133" ry="0.833849" transform="matrix(0.932056 -0.336799 0.327812 0.954103 33.8691 20.6062)" fill="#BA182F"/>
<ellipse cx="0.184866" cy="0.533224" rx="0.184866" ry="0.533224" transform="matrix(0.932056 -0.336799 0.327812 0.954103 34.3164 20.8559)" fill="#C64D25"/>
<ellipse cx="0.596133" cy="0.833849" rx="0.596133" ry="0.833849" transform="matrix(0.932056 -0.336799 0.327812 0.954103 35.9834 19.7133)" fill="#BA182F"/>
<ellipse cx="0.184866" cy="0.533224" rx="0.184866" ry="0.533224" transform="matrix(0.932056 -0.336799 0.327812 0.954103 36.4307 19.963)" fill="#C64D25"/>
<ellipse cx="0.596133" cy="0.833849" rx="0.596133" ry="0.833849" transform="matrix(0.932056 -0.336799 0.327812 0.954103 36.9775 18.693)" fill="#BA182F"/>
<ellipse cx="0.184866" cy="0.533224" rx="0.184866" ry="0.533224" transform="matrix(0.932056 -0.336799 0.327812 0.954103 37.4248 18.9427)" fill="#C64D25"/>
<ellipse cx="0.596133" cy="0.833849" rx="0.596133" ry="0.833849" transform="matrix(0.932056 -0.336799 0.327812 0.954103 38.3457 19.2032)" fill="#BA182F"/>
<ellipse cx="0.184866" cy="0.533224" rx="0.184866" ry="0.533224" transform="matrix(0.932056 -0.336799 0.327812 0.954103 38.793 19.4529)" fill="#C64D25"/>
<ellipse cx="0.596133" cy="0.833849" rx="0.596133" ry="0.833849" transform="matrix(0.932056 -0.336799 0.327812 0.954103 37.4756 21.1164)" fill="#BA182F"/>
<ellipse cx="0.184866" cy="0.533224" rx="0.184866" ry="0.533224" transform="matrix(0.932056 -0.336799 0.327812 0.954103 37.9238 21.3661)" fill="#C64D25"/>
<ellipse cx="0.596133" cy="0.833849" rx="0.596133" ry="0.833849" transform="matrix(0.932056 -0.336799 0.327812 0.954103 35.4863 22.0092)" fill="#BA182F"/>
<ellipse cx="0.184866" cy="0.533224" rx="0.184866" ry="0.533224" transform="matrix(0.932056 -0.336799 0.327812 0.954103 35.9336 22.259)" fill="#C64D25"/>
<ellipse cx="0.596133" cy="0.833849" rx="0.596133" ry="0.833849" transform="matrix(0.932056 -0.336799 0.327812 0.954103 34.7402 23.6674)" fill="#BA182F"/>
<ellipse cx="0.184866" cy="0.533224" rx="0.184866" ry="0.533224" transform="matrix(0.932056 -0.336799 0.327812 0.954103 35.1875 23.9172)" fill="#C64D25"/>
<ellipse cx="0.596133" cy="0.833849" rx="0.596133" ry="0.833849" transform="matrix(0.932056 -0.336799 0.327812 0.954103 36.9775 22.9021)" fill="#BA182F"/>
<ellipse cx="0.184866" cy="0.533224" rx="0.184866" ry="0.533224" transform="matrix(0.932056 -0.336799 0.327812 0.954103 37.4248 23.1518)" fill="#C64D25"/>
<ellipse cx="0.596372" cy="0.833516" rx="0.596372" ry="0.833516" transform="matrix(0.976378 -0.15379 0.149805 1.00027 36.2295 24.6681)" fill="#BA182F"/>
<ellipse cx="0.18494" cy="0.533011" rx="0.18494" ry="0.533011" transform="matrix(0.976378 -0.15379 0.149805 1.00027 36.624 24.9985)" fill="#C64D25"/>
<ellipse cx="0.596372" cy="0.833516" rx="0.596372" ry="0.833516" transform="matrix(0.976378 -0.15379 0.149805 1.00027 35.3145 26.4029)" fill="#BA182F"/>
<ellipse cx="0.18494" cy="0.533011" rx="0.18494" ry="0.533011" transform="matrix(0.976378 -0.15379 0.149805 1.00027 35.709 26.7333)" fill="#C64D25"/>
<ellipse cx="0.596372" cy="0.833516" rx="0.596372" ry="0.833516" transform="matrix(0.976378 -0.15379 0.149805 1.00027 33.6963 25.2549)" fill="#BA182F"/>
<ellipse cx="0.18494" cy="0.533011" rx="0.18494" ry="0.533011" transform="matrix(0.976378 -0.15379 0.149805 1.00027 34.0908 25.5854)" fill="#C64D25"/>
<ellipse cx="0.596372" cy="0.833516" rx="0.596372" ry="0.833516" transform="matrix(0.976378 -0.15379 0.149805 1.00027 32.3281 24.107)" fill="#BA182F"/>
<ellipse cx="0.18494" cy="0.533011" rx="0.18494" ry="0.533011" transform="matrix(0.976378 -0.15379 0.149805 1.00027 32.7227 24.4374)" fill="#C64D25"/>
<ellipse cx="0.596372" cy="0.833516" rx="0.596372" ry="0.833516" transform="matrix(0.976378 -0.15379 0.149805 1.00027 30.7119 25.1274)" fill="#BA182F"/>
<ellipse cx="0.18494" cy="0.533011" rx="0.18494" ry="0.533011" transform="matrix(0.976378 -0.15379 0.149805 1.00027 31.1064 25.4578)" fill="#C64D25"/>
<ellipse cx="0.596372" cy="0.833516" rx="0.596372" ry="0.833516" transform="matrix(0.976378 -0.15379 0.149805 1.00027 28.4727 26.5304)" fill="#BA182F"/>
<ellipse cx="0.18494" cy="0.533011" rx="0.18494" ry="0.533011" transform="matrix(0.976378 -0.15379 0.149805 1.00027 28.8672 26.8608)" fill="#C64D25"/>
<ellipse cx="0.596006" cy="0.834025" rx="0.596006" ry="0.834025" transform="matrix(0.880029 -0.461545 0.449038 0.900463 27.7842 28.7097)" fill="#BA182F"/>
<ellipse cx="0.184827" cy="0.533337" rx="0.184827" ry="0.533337" transform="matrix(0.880029 -0.461545 0.449038 0.900463 28.2598 28.896)" fill="#C64D25"/>
<ellipse cx="0.596006" cy="0.834025" rx="0.596006" ry="0.834025" transform="matrix(0.880029 -0.461545 0.449038 0.900463 29.8584 27.2737)" fill="#BA182F"/>
<ellipse cx="0.184827" cy="0.533337" rx="0.184827" ry="0.533337" transform="matrix(0.880029 -0.461545 0.449038 0.900463 30.334 27.4599)" fill="#C64D25"/>
<ellipse cx="0.596006" cy="0.834025" rx="0.596006" ry="0.834025" transform="matrix(0.880029 -0.461545 0.449038 0.900463 32.3467 26.891)" fill="#BA182F"/>
<ellipse cx="0.184827" cy="0.533337" rx="0.184827" ry="0.533337" transform="matrix(0.880029 -0.461545 0.449038 0.900463 32.8213 27.0772)" fill="#C64D25"/>
<ellipse cx="0.596006" cy="0.834025" rx="0.596006" ry="0.834025" transform="matrix(0.880029 -0.461545 0.449038 0.900463 31.4766 28.5491)" fill="#BA182F"/>
<ellipse cx="0.184827" cy="0.533337" rx="0.184827" ry="0.533337" transform="matrix(0.880029 -0.461545 0.449038 0.900463 31.9521 28.7354)" fill="#C64D25"/>
<ellipse cx="0.596006" cy="0.834025" rx="0.596006" ry="0.834025" transform="matrix(0.880029 -0.461545 0.449038 0.900463 29.7354 29.1869)" fill="#BA182F"/>
<ellipse cx="0.184827" cy="0.533337" rx="0.184827" ry="0.533337" transform="matrix(0.880029 -0.461545 0.449038 0.900463 30.2109 29.3731)" fill="#C64D25"/>
<ellipse cx="0.596006" cy="0.834025" rx="0.596006" ry="0.834025" transform="matrix(0.880029 -0.461545 0.449038 0.900463 27.6201 30.7175)" fill="#BA182F"/>
<ellipse cx="0.184827" cy="0.533337" rx="0.184827" ry="0.533337" transform="matrix(0.880029 -0.461545 0.449038 0.900463 28.0957 30.9037)" fill="#C64D25"/>
<ellipse cx="0.596006" cy="0.834025" rx="0.596006" ry="0.834025" transform="matrix(0.880029 -0.461545 0.449038 0.900463 29.9834 31.3552)" fill="#BA182F"/>
<ellipse cx="0.184827" cy="0.533337" rx="0.184827" ry="0.533337" transform="matrix(0.880029 -0.461545 0.449038 0.900463 30.459 31.5414)" fill="#C64D25"/>
<ellipse cx="0.596006" cy="0.834025" rx="0.596006" ry="0.834025" transform="matrix(0.880029 -0.461545 0.449038 0.900463 29.1123 32.3756)" fill="#BA182F"/>
<ellipse cx="0.184827" cy="0.533337" rx="0.184827" ry="0.533337" transform="matrix(0.880029 -0.461545 0.449038 0.900463 29.5879 32.5618)" fill="#C64D25"/>
<ellipse cx="0.596006" cy="0.834025" rx="0.596006" ry="0.834025" transform="matrix(0.880029 -0.461545 0.449038 0.900463 31.7246 30.5898)" fill="#BA182F"/>
<ellipse cx="0.184827" cy="0.533337" rx="0.184827" ry="0.533337" transform="matrix(0.880029 -0.461545 0.449038 0.900463 32.2002 30.7761)" fill="#C64D25"/>
<ellipse cx="0.596006" cy="0.834025" rx="0.596006" ry="0.834025" transform="matrix(0.880029 -0.461545 0.449038 0.900463 31.5996 32.8858)" fill="#BA182F"/>
<ellipse cx="0.184827" cy="0.533337" rx="0.184827" ry="0.533337" transform="matrix(0.880029 -0.461545 0.449038 0.900463 32.0752 33.072)" fill="#C64D25"/>
<ellipse cx="0.597458" cy="0.831999" rx="0.597458" ry="0.831999" transform="matrix(0.660206 0.751084 -0.734294 0.678831 41.71 28.7879)" fill="#C90515"/>
<ellipse cx="0.185277" cy="0.532041" rx="0.185277" ry="0.532041" transform="matrix(0.660206 0.751084 -0.734294 0.678831 41.6572 29.3074)" fill="#F78D6C"/>
<ellipse cx="0.597458" cy="0.831999" rx="0.597458" ry="0.831999" transform="matrix(0.660206 0.751084 -0.734294 0.678831 40.0938 29.1705)" fill="#C90515"/>
<ellipse cx="0.185277" cy="0.532041" rx="0.185277" ry="0.532041" transform="matrix(0.660206 0.751084 -0.734294 0.678831 40.041 29.69)" fill="#F78D6C"/>
<ellipse cx="0.597458" cy="0.831999" rx="0.597458" ry="0.831999" transform="matrix(0.660206 0.751084 -0.734294 0.678831 38.9736 30.8286)" fill="#C90515"/>
<ellipse cx="0.185277" cy="0.532041" rx="0.185277" ry="0.532041" transform="matrix(0.660206 0.751084 -0.734294 0.678831 38.9219 31.3481)" fill="#F78D6C"/>
<ellipse cx="0.597458" cy="0.831999" rx="0.597458" ry="0.831999" transform="matrix(0.660206 0.751084 -0.734294 0.678831 38.8496 29.5531)" fill="#C90515"/>
<ellipse cx="0.185277" cy="0.532041" rx="0.185277" ry="0.532041" transform="matrix(0.660206 0.751084 -0.734294 0.678831 38.7969 30.0727)" fill="#F78D6C"/>
<ellipse cx="0.597458" cy="0.831999" rx="0.597458" ry="0.831999" transform="matrix(0.660206 0.751084 -0.734294 0.678831 37.7305 30.9562)" fill="#C90515"/>
<ellipse cx="0.185277" cy="0.532041" rx="0.185277" ry="0.532041" transform="matrix(0.660206 0.751084 -0.734294 0.678831 37.6777 31.4757)" fill="#F78D6C"/>
<ellipse cx="0.597458" cy="0.831999" rx="0.597458" ry="0.831999" transform="matrix(0.660206 0.751084 -0.734294 0.678831 36.6113 32.8694)" fill="#C90515"/>
<ellipse cx="0.185277" cy="0.532041" rx="0.185277" ry="0.532041" transform="matrix(0.660206 0.751084 -0.734294 0.678831 36.5586 33.3889)" fill="#F78D6C"/>
<ellipse cx="0.597458" cy="0.831999" rx="0.597458" ry="0.831999" transform="matrix(0.660206 0.751084 -0.734294 0.678831 38.1035 32.6143)" fill="#C90515"/>
<ellipse cx="0.185277" cy="0.532041" rx="0.185277" ry="0.532041" transform="matrix(0.660206 0.751084 -0.734294 0.678831 38.0508 33.1339)" fill="#F78D6C"/>
<ellipse cx="0.597458" cy="0.831999" rx="0.597458" ry="0.831999" transform="matrix(0.660206 0.751084 -0.734294 0.678831 37.1084 34.7826)" fill="#C90515"/>
<ellipse cx="0.185277" cy="0.532041" rx="0.185277" ry="0.532041" transform="matrix(0.660206 0.751084 -0.734294 0.678831 37.0557 35.3021)" fill="#F78D6C"/>
<ellipse cx="0.597458" cy="0.831999" rx="0.597458" ry="0.831999" transform="matrix(0.660206 0.751084 -0.734294 0.678831 35.4922 35.1653)" fill="#C90515"/>
<ellipse cx="0.185277" cy="0.532041" rx="0.185277" ry="0.532041" transform="matrix(0.660206 0.751084 -0.734294 0.678831 35.4395 35.6848)" fill="#F78D6C"/>
<ellipse cx="0.597458" cy="0.831999" rx="0.597458" ry="0.831999" transform="matrix(0.660206 0.751084 -0.734294 0.678831 34.3721 36.8234)" fill="#C90515"/>
<ellipse cx="0.185277" cy="0.532041" rx="0.185277" ry="0.532041" transform="matrix(0.660206 0.751084 -0.734294 0.678831 34.3193 37.343)" fill="#F78D6C"/>
<ellipse cx="0.597458" cy="0.831999" rx="0.597458" ry="0.831999" transform="matrix(0.660206 0.751084 -0.734294 0.678831 35.8652 36.6959)" fill="#C90515"/>
<ellipse cx="0.185277" cy="0.532041" rx="0.185277" ry="0.532041" transform="matrix(0.660206 0.751084 -0.734294 0.678831 35.8125 37.2154)" fill="#F78D6C"/>
<ellipse cx="0.597458" cy="0.831999" rx="0.597458" ry="0.831999" transform="matrix(0.660206 0.751084 -0.734294 0.678831 35.7402 38.2265)" fill="#C90515"/>
<ellipse cx="0.185277" cy="0.532041" rx="0.185277" ry="0.532041" transform="matrix(0.660206 0.751084 -0.734294 0.678831 35.6875 38.746)" fill="#F78D6C"/>
<ellipse cx="0.597458" cy="0.831999" rx="0.597458" ry="0.831999" transform="matrix(0.660206 0.751084 -0.734294 0.678831 33.999 38.7367)" fill="#C90515"/>
<ellipse cx="0.185277" cy="0.532041" rx="0.185277" ry="0.532041" transform="matrix(0.660206 0.751084 -0.734294 0.678831 33.9463 39.2562)" fill="#F78D6C"/>
<ellipse cx="0.597458" cy="0.831999" rx="0.597458" ry="0.831999" transform="matrix(0.660206 0.751084 -0.734294 0.678831 33.999 40.1397)" fill="#C90515"/>
<ellipse cx="0.185277" cy="0.532041" rx="0.185277" ry="0.532041" transform="matrix(0.660206 0.751084 -0.734294 0.678831 33.9463 40.6592)" fill="#F78D6C"/>
<ellipse cx="0.597458" cy="0.831999" rx="0.597458" ry="0.831999" transform="matrix(0.660206 0.751084 -0.734294 0.678831 35.8652 39.8846)" fill="#C90515"/>
<ellipse cx="0.185277" cy="0.532041" rx="0.185277" ry="0.532041" transform="matrix(0.660206 0.751084 -0.734294 0.678831 35.8125 40.4041)" fill="#F78D6C"/>
<ellipse cx="0.597458" cy="0.831999" rx="0.597458" ry="0.831999" transform="matrix(0.660206 0.751084 -0.734294 0.678831 33.377 41.9254)" fill="#C90515"/>
<ellipse cx="0.185277" cy="0.532041" rx="0.185277" ry="0.532041" transform="matrix(0.660206 0.751084 -0.734294 0.678831 33.3242 42.4449)" fill="#F78D6C"/>
<ellipse cx="0.597458" cy="0.831999" rx="0.597458" ry="0.831999" transform="matrix(0.660206 0.751084 -0.734294 0.678831 35.6152 41.9254)" fill="#C90515"/>
<ellipse cx="0.185277" cy="0.532041" rx="0.185277" ry="0.532041" transform="matrix(0.660206 0.751084 -0.734294 0.678831 35.5625 42.4449)" fill="#F78D6C"/>
<ellipse cx="0.597458" cy="0.831999" rx="0.597458" ry="0.831999" transform="matrix(0.660206 0.751084 -0.734294 0.678831 34.8701 43.9662)" fill="#C90515"/>
<ellipse cx="0.185277" cy="0.532041" rx="0.185277" ry="0.532041" transform="matrix(0.660206 0.751084 -0.734294 0.678831 34.8174 44.4857)" fill="#F78D6C"/>
<ellipse cx="0.597458" cy="0.831999" rx="0.597458" ry="0.831999" transform="matrix(0.660206 0.751084 -0.734294 0.678831 32.5059 44.0937)" fill="#C90515"/>
<ellipse cx="0.185277" cy="0.532041" rx="0.185277" ry="0.532041" transform="matrix(0.660206 0.751084 -0.734294 0.678831 32.4531 44.6132)" fill="#F78D6C"/>
<ellipse cx="0.597458" cy="0.831999" rx="0.597458" ry="0.831999" transform="matrix(0.660206 0.751084 -0.734294 0.678831 30.1436 44.6039)" fill="#C90515"/>
<ellipse cx="0.185277" cy="0.532041" rx="0.185277" ry="0.532041" transform="matrix(0.660206 0.751084 -0.734294 0.678831 30.0908 45.1234)" fill="#F78D6C"/>
<ellipse cx="0.597458" cy="0.831999" rx="0.597458" ry="0.831999" transform="matrix(0.660206 0.751084 -0.734294 0.678831 29.5215 46.262)" fill="#C90515"/>
<ellipse cx="0.185277" cy="0.532041" rx="0.185277" ry="0.532041" transform="matrix(0.660206 0.751084 -0.734294 0.678831 29.4688 46.7816)" fill="#F78D6C"/>
<ellipse cx="0.468514" cy="0.683741" rx="0.468514" ry="0.683741" transform="matrix(0.445693 -0.899175 0.618901 0.781287 10.6289 42.0892)" fill="#C90515"/>
<ellipse cx="0.145291" cy="0.437234" rx="0.145291" ry="0.437234" transform="matrix(0.445693 -0.899175 0.618901 0.781287 10.9443 42.0911)" fill="#F78D6C"/>
<ellipse cx="0.468514" cy="0.683741" rx="0.468514" ry="0.683741" transform="matrix(0.445693 -0.899175 0.618901 0.781287 10.1309 40.0679)" fill="#C90515"/>
<ellipse cx="0.145291" cy="0.437234" rx="0.145291" ry="0.437234" transform="matrix(0.445693 -0.899175 0.618901 0.781287 10.4463 40.0698)" fill="#F78D6C"/>
<ellipse cx="0.468514" cy="0.683741" rx="0.468514" ry="0.683741" transform="matrix(0.445693 -0.899175 0.618901 0.781287 9.13574 40.4506)" fill="#C90515"/>
<ellipse cx="0.145291" cy="0.437234" rx="0.145291" ry="0.437234" transform="matrix(0.445693 -0.899175 0.618901 0.781287 9.45117 40.4525)" fill="#F78D6C"/>
<ellipse cx="0.468514" cy="0.683741" rx="0.468514" ry="0.683741" transform="matrix(0.445693 -0.899175 0.618901 0.781287 9.0127 41.7261)" fill="#C90515"/>
<ellipse cx="0.145291" cy="0.437234" rx="0.145291" ry="0.437234" transform="matrix(0.445693 -0.899175 0.618901 0.781287 9.32812 41.728)" fill="#F78D6C"/>
<ellipse cx="0.467055" cy="0.680466" rx="0.467055" ry="0.680466" transform="matrix(-0.0744907 -1.00894 0.928921 0.339873 10.7871 43.9922)" fill="#C90515"/>
<ellipse cx="0.144838" cy="0.43514" rx="0.144838" ry="0.43514" transform="matrix(-0.0744907 -1.00894 0.928921 0.339873 11.0586 43.8258)" fill="#F78D6C"/>
<ellipse cx="0.467055" cy="0.680466" rx="0.467055" ry="0.680466" transform="matrix(-0.0744908 -1.00894 0.928921 0.339873 11.8662 42.422)" fill="#C90515"/>
<ellipse cx="0.144838" cy="0.43514" rx="0.144838" ry="0.43514" transform="matrix(-0.0744908 -1.00894 0.928921 0.339873 12.1377 42.2556)" fill="#F78D6C"/>
<ellipse cx="0.467055" cy="0.680466" rx="0.467055" ry="0.680466" transform="matrix(-0.0744907 -1.00894 0.928921 0.339873 13.3594 44.2077)" fill="#C90515"/>
<ellipse cx="0.144838" cy="0.43514" rx="0.144838" ry="0.43514" transform="matrix(-0.0744907 -1.00894 0.928921 0.339873 13.6309 44.0413)" fill="#F78D6C"/>
<ellipse cx="0.467055" cy="0.680466" rx="0.467055" ry="0.680466" transform="matrix(-0.0744907 -1.00894 0.928921 0.339873 13.3594 45.3557)" fill="#C90515"/>
<ellipse cx="0.144838" cy="0.43514" rx="0.144838" ry="0.43514" transform="matrix(-0.0744907 -1.00894 0.928921 0.339873 13.6309 45.1893)" fill="#F78D6C"/>
<ellipse cx="0.465844" cy="0.677745" rx="0.465844" ry="0.677745" transform="matrix(-0.393705 -0.930649 0.990189 0.0090643 16.2051 46.3084)" fill="#C90515"/>
<ellipse cx="0.144463" cy="0.433399" rx="0.144463" ry="0.433399" transform="matrix(-0.393705 -0.930649 0.990189 0.0090643 16.4072 46.0602)" fill="#F78D6C"/>
<ellipse cx="0.465844" cy="0.677745" rx="0.465844" ry="0.677745" transform="matrix(-0.393705 -0.930649 0.990189 0.0090643 17.873 45.94)" fill="#C90515"/>
<ellipse cx="0.144463" cy="0.433399" rx="0.144463" ry="0.433399" transform="matrix(-0.393705 -0.930649 0.990189 0.0090643 18.0762 45.6918)" fill="#F78D6C"/>
<ellipse cx="0.465844" cy="0.677745" rx="0.465844" ry="0.677745" transform="matrix(-0.393705 -0.930649 0.990189 0.0090643 20.9824 46.7053)" fill="#C90515"/>
<ellipse cx="0.144463" cy="0.433399" rx="0.144463" ry="0.433399" transform="matrix(-0.393705 -0.930649 0.990189 0.0090643 21.1855 46.4571)" fill="#F78D6C"/>
<ellipse cx="0.465844" cy="0.677745" rx="0.465844" ry="0.677745" transform="matrix(-0.393705 -0.930649 0.990189 0.0090643 19.2412 46.8329)" fill="#C90515"/>
<ellipse cx="0.144463" cy="0.433399" rx="0.144463" ry="0.433399" transform="matrix(-0.393705 -0.930649 0.990189 0.0090643 19.4443 46.5847)" fill="#F78D6C"/>
<ellipse cx="0.465844" cy="0.677745" rx="0.465844" ry="0.677745" transform="matrix(-0.393705 -0.930649 0.990189 0.0090643 23.4707 46.8329)" fill="#C90515"/>
<ellipse cx="0.144463" cy="0.433399" rx="0.144463" ry="0.433399" transform="matrix(-0.393705 -0.930649 0.990189 0.0090643 23.6729 46.5847)" fill="#F78D6C"/>
<ellipse cx="0.597458" cy="0.831999" rx="0.597458" ry="0.831999" transform="matrix(0.660206 0.751084 -0.734294 0.678831 31.6357 46.1346)" fill="#C90515"/>
<ellipse cx="0.185277" cy="0.532041" rx="0.185277" ry="0.532041" transform="matrix(0.660206 0.751084 -0.734294 0.678831 31.583 46.654)" fill="#F78D6C"/>
<ellipse cx="0.597458" cy="0.831999" rx="0.597458" ry="0.831999" transform="matrix(0.660206 0.751084 -0.734294 0.678831 33.874 45.7519)" fill="#C90515"/>
<ellipse cx="0.185277" cy="0.532041" rx="0.185277" ry="0.532041" transform="matrix(0.660206 0.751084 -0.734294 0.678831 33.8213 46.2714)" fill="#F78D6C"/>
<ellipse cx="0.597458" cy="0.831999" rx="0.597458" ry="0.831999" transform="matrix(0.660206 0.751084 -0.734294 0.678831 32.8799 47.7926)" fill="#C90515"/>
<ellipse cx="0.185277" cy="0.532041" rx="0.185277" ry="0.532041" transform="matrix(0.660206 0.751084 -0.734294 0.678831 32.8271 48.3121)" fill="#F78D6C"/>
<ellipse cx="0.597458" cy="0.831999" rx="0.597458" ry="0.831999" transform="matrix(0.660206 0.751084 -0.734294 0.678831 34.124 48.6855)" fill="#C90515"/>
<ellipse cx="0.185277" cy="0.532041" rx="0.185277" ry="0.532041" transform="matrix(0.660206 0.751084 -0.734294 0.678831 34.0713 49.205)" fill="#F78D6C"/>
<ellipse cx="0.597458" cy="0.831999" rx="0.597458" ry="0.831999" transform="matrix(0.660206 0.751084 -0.734294 0.678831 31.1377 47.5376)" fill="#C90515"/>
<ellipse cx="0.185277" cy="0.532041" rx="0.185277" ry="0.532041" transform="matrix(0.660206 0.751084 -0.734294 0.678831 31.085 48.0571)" fill="#F78D6C"/>
<ellipse cx="0.597458" cy="0.831999" rx="0.597458" ry="0.831999" transform="matrix(0.660206 0.751084 -0.734294 0.678831 43.7002 48.558)" fill="#C90515"/>
<ellipse cx="0.185277" cy="0.532041" rx="0.185277" ry="0.532041" transform="matrix(0.660206 0.751084 -0.734294 0.678831 43.6475 49.0775)" fill="#F78D6C"/>
<ellipse cx="0.597458" cy="0.831999" rx="0.597458" ry="0.831999" transform="matrix(0.660206 0.751084 -0.734294 0.678831 43.8252 47.1549)" fill="#C90515"/>
<ellipse cx="0.185277" cy="0.532041" rx="0.185277" ry="0.532041" transform="matrix(0.660206 0.751084 -0.734294 0.678831 43.7725 47.6744)" fill="#F78D6C"/>
<ellipse cx="0.597458" cy="0.831999" rx="0.597458" ry="0.831999" transform="matrix(0.660206 0.751084 -0.734294 0.678831 44.5713 45.7519)" fill="#C90515"/>
<ellipse cx="0.185277" cy="0.532041" rx="0.185277" ry="0.532041" transform="matrix(0.660206 0.751084 -0.734294 0.678831 44.5186 46.2714)" fill="#F78D6C"/>
<ellipse cx="0.597458" cy="0.831999" rx="0.597458" ry="0.831999" transform="matrix(0.660206 0.751084 -0.734294 0.678831 45.1924 44.0938)" fill="#C90515"/>
<ellipse cx="0.185277" cy="0.532041" rx="0.185277" ry="0.532041" transform="matrix(0.660206 0.751084 -0.734294 0.678831 45.1396 44.6133)" fill="#F78D6C"/>
<ellipse cx="0.597458" cy="0.831999" rx="0.597458" ry="0.831999" transform="matrix(0.660206 0.751084 -0.734294 0.678831 45.9395 42.0529)" fill="#C90515"/>
<ellipse cx="0.185277" cy="0.532041" rx="0.185277" ry="0.532041" transform="matrix(0.660206 0.751084 -0.734294 0.678831 45.8867 42.5724)" fill="#F78D6C"/>
<ellipse cx="0.597458" cy="0.831999" rx="0.597458" ry="0.831999" transform="matrix(0.660206 0.751084 -0.734294 0.678831 48.0537 42.9458)" fill="#C90515"/>
<ellipse cx="0.185277" cy="0.532041" rx="0.185277" ry="0.532041" transform="matrix(0.660206 0.751084 -0.734294 0.678831 48.001 43.4653)" fill="#F78D6C"/>
<ellipse cx="0.597458" cy="0.831999" rx="0.597458" ry="0.831999" transform="matrix(0.660206 0.751084 -0.734294 0.678831 47.0576 44.9866)" fill="#C90515"/>
<ellipse cx="0.185277" cy="0.532041" rx="0.185277" ry="0.532041" transform="matrix(0.660206 0.751084 -0.734294 0.678831 47.0049 45.5061)" fill="#F78D6C"/>
<ellipse cx="0.597458" cy="0.831999" rx="0.597458" ry="0.831999" transform="matrix(0.660206 0.751084 -0.734294 0.678831 47.0576 44.9866)" fill="#C90515"/>
<ellipse cx="0.185277" cy="0.532041" rx="0.185277" ry="0.532041" transform="matrix(0.660206 0.751084 -0.734294 0.678831 47.0049 45.5061)" fill="#F78D6C"/>
<ellipse cx="0.597458" cy="0.831999" rx="0.597458" ry="0.831999" transform="matrix(0.660206 0.751084 -0.734294 0.678831 47.0576 46.1346)" fill="#C90515"/>
<ellipse cx="0.185277" cy="0.532041" rx="0.185277" ry="0.532041" transform="matrix(0.660206 0.751084 -0.734294 0.678831 47.0049 46.654)" fill="#F78D6C"/>
<ellipse cx="0.597458" cy="0.831999" rx="0.597458" ry="0.831999" transform="matrix(0.660206 0.751084 -0.734294 0.678831 45.6895 47.41)" fill="#C90515"/>
<ellipse cx="0.185277" cy="0.532041" rx="0.185277" ry="0.532041" transform="matrix(0.660206 0.751084 -0.734294 0.678831 45.6367 47.9295)" fill="#F78D6C"/>
<ellipse cx="0.597458" cy="0.831999" rx="0.597458" ry="0.831999" transform="matrix(0.660206 0.751084 -0.734294 0.678831 46.4365 48.1753)" fill="#C90515"/>
<ellipse cx="0.185277" cy="0.532041" rx="0.185277" ry="0.532041" transform="matrix(0.660206 0.751084 -0.734294 0.678831 46.3838 48.6948)" fill="#F78D6C"/>
<ellipse cx="0.597458" cy="0.831999" rx="0.597458" ry="0.831999" transform="matrix(0.660206 0.751084 -0.734294 0.678831 48.1777 47.0273)" fill="#C90515"/>
<ellipse cx="0.185277" cy="0.532041" rx="0.185277" ry="0.532041" transform="matrix(0.660206 0.751084 -0.734294 0.678831 48.125 47.5468)" fill="#F78D6C"/>
<ellipse cx="0.597458" cy="0.831999" rx="0.597458" ry="0.831999" transform="matrix(0.660206 0.751084 -0.734294 0.678831 49.7949 46.8998)" fill="#C90515"/>
<ellipse cx="0.185277" cy="0.532041" rx="0.185277" ry="0.532041" transform="matrix(0.660206 0.751084 -0.734294 0.678831 49.7422 47.4193)" fill="#F78D6C"/>
<ellipse cx="0.597458" cy="0.831999" rx="0.597458" ry="0.831999" transform="matrix(0.660206 0.751084 -0.734294 0.678831 50.416 45.6243)" fill="#C90515"/>
<ellipse cx="0.185277" cy="0.532041" rx="0.185277" ry="0.532041" transform="matrix(0.660206 0.751084 -0.734294 0.678831 50.3633 46.1439)" fill="#F78D6C"/>
<ellipse cx="0.597458" cy="0.831999" rx="0.597458" ry="0.831999" transform="matrix(0.660206 0.751084 -0.734294 0.678831 49.2969 45.1141)" fill="#C90515"/>
<ellipse cx="0.185277" cy="0.532041" rx="0.185277" ry="0.532041" transform="matrix(0.660206 0.751084 -0.734294 0.678831 49.2441 45.6336)" fill="#F78D6C"/>
<ellipse cx="0.597458" cy="0.831999" rx="0.597458" ry="0.831999" transform="matrix(0.660206 0.751084 -0.734294 0.678831 49.7949 43.456)" fill="#C90515"/>
<ellipse cx="0.185277" cy="0.532041" rx="0.185277" ry="0.532041" transform="matrix(0.660206 0.751084 -0.734294 0.678831 49.7422 43.9755)" fill="#F78D6C"/>
<ellipse cx="0.597458" cy="0.831999" rx="0.597458" ry="0.831999" transform="matrix(0.660206 0.751084 -0.734294 0.678831 50.292 41.6703)" fill="#C90515"/>
<ellipse cx="0.185277" cy="0.532041" rx="0.185277" ry="0.532041" transform="matrix(0.660206 0.751084 -0.734294 0.678831 50.2393 42.1898)" fill="#F78D6C"/>
<ellipse cx="0.597169" cy="0.832403" rx="0.597169" ry="0.832403" transform="matrix(0.911987 0.385742 -0.376754 0.936805 51.959 40.5257)" fill="#C90515"/>
<ellipse cx="0.185187" cy="0.532299" rx="0.185187" ry="0.532299" transform="matrix(0.911987 0.385742 -0.376754 0.936805 52.1299 41.0177)" fill="#F78D6C"/>
<ellipse cx="0.597169" cy="0.832403" rx="0.597169" ry="0.832403" transform="matrix(0.911987 0.385742 -0.376754 0.936805 51.417 42.2744)" fill="#C90515"/>
<ellipse cx="0.185187" cy="0.532299" rx="0.185187" ry="0.532299" transform="matrix(0.911987 0.385742 -0.376754 0.936805 51.5879 42.7664)" fill="#F78D6C"/>
<ellipse cx="0.597169" cy="0.832403" rx="0.597169" ry="0.832403" transform="matrix(0.911987 0.385742 -0.376754 0.936805 51.0439 43.805)" fill="#C90515"/>
<ellipse cx="0.185187" cy="0.532299" rx="0.185187" ry="0.532299" transform="matrix(0.911987 0.385742 -0.376754 0.936805 51.2148 44.297)" fill="#F78D6C"/>
<ellipse cx="0.597169" cy="0.832403" rx="0.597169" ry="0.832403" transform="matrix(0.911987 0.385742 -0.376754 0.936805 51.541 44.9529)" fill="#C90515"/>
<ellipse cx="0.185187" cy="0.532299" rx="0.185187" ry="0.532299" transform="matrix(0.911987 0.385742 -0.376754 0.936805 51.7119 45.4449)" fill="#F78D6C"/>
<ellipse cx="0.597169" cy="0.832403" rx="0.597169" ry="0.832403" transform="matrix(0.911987 0.385742 -0.376754 0.936805 52.5352 43.5499)" fill="#C90515"/>
<ellipse cx="0.185187" cy="0.532299" rx="0.185187" ry="0.532299" transform="matrix(0.911987 0.385742 -0.376754 0.936805 52.7061 44.0419)" fill="#F78D6C"/>
<ellipse cx="0.597169" cy="0.832403" rx="0.597169" ry="0.832403" transform="matrix(0.911987 0.385742 -0.376754 0.936805 53.0332 41.7642)" fill="#C90515"/>
<ellipse cx="0.185187" cy="0.532299" rx="0.185187" ry="0.532299" transform="matrix(0.911987 0.385742 -0.376754 0.936805 53.2041 42.2562)" fill="#F78D6C"/>
<ellipse cx="0.596669" cy="0.833102" rx="0.596669" ry="0.833102" transform="matrix(0.986376 0.0446129 -0.0435004 1.01152 52.8369 39.8643)" fill="#C90515"/>
<ellipse cx="0.185032" cy="0.532746" rx="0.185032" ry="0.532746" transform="matrix(0.986376 0.0446129 -0.0435004 1.01152 53.1611 40.2674)" fill="#F78D6C"/>
<ellipse cx="0.597458" cy="0.831999" rx="0.597458" ry="0.831999" transform="matrix(0.660206 0.751084 -0.734294 0.678831 31.1377 42.5631)" fill="#C90515"/>
<ellipse cx="0.185277" cy="0.532041" rx="0.185277" ry="0.532041" transform="matrix(0.660206 0.751084 -0.734294 0.678831 31.085 43.0826)" fill="#F78D6C"/>
<ellipse cx="0.597458" cy="0.831999" rx="0.597458" ry="0.831999" transform="matrix(0.660206 0.751084 -0.734294 0.678831 29.6465 42.308)" fill="#C90515"/>
<ellipse cx="0.185277" cy="0.532041" rx="0.185277" ry="0.532041" transform="matrix(0.660206 0.751084 -0.734294 0.678831 29.5938 42.8275)" fill="#F78D6C"/>
<ellipse cx="0.597458" cy="0.831999" rx="0.597458" ry="0.831999" transform="matrix(0.660206 0.751084 -0.734294 0.678831 30.2676 40.3948)" fill="#C90515"/>
<ellipse cx="0.185277" cy="0.532041" rx="0.185277" ry="0.532041" transform="matrix(0.660206 0.751084 -0.734294 0.678831 30.2148 40.9142)" fill="#F78D6C"/>
<ellipse cx="0.597458" cy="0.831999" rx="0.597458" ry="0.831999" transform="matrix(0.660206 0.751084 -0.734294 0.678831 31.8848 40.6499)" fill="#C90515"/>
<ellipse cx="0.185277" cy="0.532041" rx="0.185277" ry="0.532041" transform="matrix(0.660206 0.751084 -0.734294 0.678831 31.832 41.1694)" fill="#F78D6C"/>
<ellipse cx="0.597458" cy="0.831999" rx="0.597458" ry="0.831999" transform="matrix(0.660206 0.751084 -0.734294 0.678831 32.3828 38.7367)" fill="#C90515"/>
<ellipse cx="0.185277" cy="0.532041" rx="0.185277" ry="0.532041" transform="matrix(0.660206 0.751084 -0.734294 0.678831 32.3301 39.2562)" fill="#F78D6C"/>
<ellipse cx="0.597458" cy="0.831999" rx="0.597458" ry="0.831999" transform="matrix(0.660206 0.751084 -0.734294 0.678831 32.8799 37.0785)" fill="#C90515"/>
<ellipse cx="0.185277" cy="0.532041" rx="0.185277" ry="0.532041" transform="matrix(0.660206 0.751084 -0.734294 0.678831 32.8271 37.598)" fill="#F78D6C"/>
<ellipse cx="0.597458" cy="0.831999" rx="0.597458" ry="0.831999" transform="matrix(0.660206 0.751084 -0.734294 0.678831 31.2627 38.9917)" fill="#C90515"/>
<ellipse cx="0.185277" cy="0.532041" rx="0.185277" ry="0.532041" transform="matrix(0.660206 0.751084 -0.734294 0.678831 31.21 39.5112)" fill="#F78D6C"/>
<ellipse cx="0.597458" cy="0.831999" rx="0.597458" ry="0.831999" transform="matrix(0.660206 0.751084 -0.734294 0.678831 33.874 35.5479)" fill="#C90515"/>
<ellipse cx="0.185277" cy="0.532041" rx="0.185277" ry="0.532041" transform="matrix(0.660206 0.751084 -0.734294 0.678831 33.8213 36.0674)" fill="#F78D6C"/>
<ellipse cx="0.597458" cy="0.831999" rx="0.597458" ry="0.831999" transform="matrix(0.660206 0.751084 -0.734294 0.678831 34.9941 34.0173)" fill="#C90515"/>
<ellipse cx="0.185277" cy="0.532041" rx="0.185277" ry="0.532041" transform="matrix(0.660206 0.751084 -0.734294 0.678831 34.9414 34.5369)" fill="#F78D6C"/>
<ellipse cx="0.596006" cy="0.834025" rx="0.596006" ry="0.834025" transform="matrix(0.880029 -0.461545 0.449038 0.900463 33.4658 31.3552)" fill="#BA182F"/>
<ellipse cx="0.184827" cy="0.533337" rx="0.184827" ry="0.533337" transform="matrix(0.880029 -0.461545 0.449038 0.900463 33.9414 31.5414)" fill="#C64D25"/>
<ellipse cx="0.596006" cy="0.834025" rx="0.596006" ry="0.834025" transform="matrix(0.880029 -0.461545 0.449038 0.900463 30.6055 34.1612)" fill="#BA182F"/>
<ellipse cx="0.184827" cy="0.533337" rx="0.184827" ry="0.533337" transform="matrix(0.880029 -0.461545 0.449038 0.900463 31.0811 34.3474)" fill="#C64D25"/>
<ellipse cx="0.596351" cy="0.833545" rx="0.596351" ry="0.833545" transform="matrix(0.974085 -0.168605 0.164225 0.997853 33.5215 29.0591)" fill="#BA182F"/>
<ellipse cx="0.184934" cy="0.53303" rx="0.184934" ry="0.53303" transform="matrix(0.974085 -0.168605 0.164225 0.997853 33.9219 29.3835)" fill="#C64D25"/>
<ellipse cx="0.596351" cy="0.833545" rx="0.596351" ry="0.833545" transform="matrix(0.974085 -0.168605 0.164225 0.997853 34.3037 27.5573)" fill="#BA182F"/>
<ellipse cx="0.184934" cy="0.53303" rx="0.184934" ry="0.53303" transform="matrix(0.974085 -0.168605 0.164225 0.997853 34.7041 27.8817)" fill="#C64D25"/>
<ellipse cx="0.596351" cy="0.833545" rx="0.596351" ry="0.833545" transform="matrix(0.974085 -0.168605 0.164225 0.997853 35.1738 30.6185)" fill="#BA182F"/>
<ellipse cx="0.184934" cy="0.53303" rx="0.184934" ry="0.53303" transform="matrix(0.974085 -0.168605 0.164225 0.997853 35.5742 30.9429)" fill="#C64D25"/>
<ellipse cx="0.596351" cy="0.833545" rx="0.596351" ry="0.833545" transform="matrix(0.974085 -0.168605 0.164225 0.997853 35.7959 28.8328)" fill="#BA182F"/>
<ellipse cx="0.184934" cy="0.53303" rx="0.184934" ry="0.53303" transform="matrix(0.974085 -0.168605 0.164225 0.997853 36.1953 29.1572)" fill="#C64D25"/>
<ellipse cx="0.596351" cy="0.833545" rx="0.596351" ry="0.833545" transform="matrix(0.974085 -0.168605 0.164225 0.997853 36.915 27.8124)" fill="#BA182F"/>
<ellipse cx="0.184934" cy="0.53303" rx="0.184934" ry="0.53303" transform="matrix(0.974085 -0.168605 0.164225 0.997853 37.3154 28.1368)" fill="#C64D25"/>
<ellipse cx="0.596351" cy="0.833545" rx="0.596351" ry="0.833545" transform="matrix(0.974085 -0.168605 0.164225 0.997853 37.5371 25.8992)" fill="#BA182F"/>
<ellipse cx="0.184934" cy="0.53303" rx="0.184934" ry="0.53303" transform="matrix(0.974085 -0.168605 0.164225 0.997853 37.9365 26.2236)" fill="#C64D25"/>
<ellipse cx="0.596351" cy="0.833545" rx="0.596351" ry="0.833545" transform="matrix(0.974085 -0.168605 0.164225 0.997853 38.4092 27.6848)" fill="#BA182F"/>
<ellipse cx="0.184934" cy="0.53303" rx="0.184934" ry="0.53303" transform="matrix(0.974085 -0.168605 0.164225 0.997853 38.8076 28.0092)" fill="#C64D25"/>
<ellipse cx="0.596351" cy="0.833545" rx="0.596351" ry="0.833545" transform="matrix(0.974085 -0.168605 0.164225 0.997853 39.2783 26.4093)" fill="#BA182F"/>
<ellipse cx="0.184934" cy="0.53303" rx="0.184934" ry="0.53303" transform="matrix(0.974085 -0.168605 0.164225 0.997853 39.6777 26.7337)" fill="#C64D25"/>
<ellipse cx="0.596351" cy="0.833545" rx="0.596351" ry="0.833545" transform="matrix(0.974085 -0.168605 0.164225 0.997853 38.5312 23.8584)" fill="#BA182F"/>
<ellipse cx="0.184934" cy="0.53303" rx="0.184934" ry="0.53303" transform="matrix(0.974085 -0.168605 0.164225 0.997853 38.9316 24.1827)" fill="#C64D25"/>
<ellipse cx="0.596351" cy="0.833545" rx="0.596351" ry="0.833545" transform="matrix(0.974085 -0.168605 0.164225 0.997853 39.1533 21.8176)" fill="#BA182F"/>
<ellipse cx="0.184934" cy="0.53303" rx="0.184934" ry="0.53303" transform="matrix(0.974085 -0.168605 0.164225 0.997853 39.5537 22.1419)" fill="#C64D25"/>
<ellipse cx="0.596351" cy="0.833545" rx="0.596351" ry="0.833545" transform="matrix(0.974085 -0.168605 0.164225 0.997853 39.7764 20.4146)" fill="#BA182F"/>
<ellipse cx="0.184934" cy="0.53303" rx="0.184934" ry="0.53303" transform="matrix(0.974085 -0.168605 0.164225 0.997853 40.1748 20.739)" fill="#C64D25"/>
<ellipse cx="0.596351" cy="0.833545" rx="0.596351" ry="0.833545" transform="matrix(0.974085 -0.168605 0.164225 0.997853 40.1494 23.4758)" fill="#BA182F"/>
<ellipse cx="0.184934" cy="0.53303" rx="0.184934" ry="0.53303" transform="matrix(0.974085 -0.168605 0.164225 0.997853 40.5498 23.8001)" fill="#C64D25"/>
<ellipse cx="0.596351" cy="0.833545" rx="0.596351" ry="0.833545" transform="matrix(0.974085 -0.168605 0.164225 0.997853 39.7764 24.8788)" fill="#BA182F"/>
<ellipse cx="0.184934" cy="0.53303" rx="0.184934" ry="0.53303" transform="matrix(0.974085 -0.168605 0.164225 0.997853 40.1748 25.2031)" fill="#C64D25"/>
<ellipse cx="0.596351" cy="0.833545" rx="0.596351" ry="0.833545" transform="matrix(0.974085 -0.168605 0.164225 0.997853 41.1445 25.2614)" fill="#BA182F"/>
<ellipse cx="0.184934" cy="0.53303" rx="0.184934" ry="0.53303" transform="matrix(0.974085 -0.168605 0.164225 0.997853 41.543 25.5858)" fill="#C64D25"/>
<ellipse cx="0.596351" cy="0.833545" rx="0.596351" ry="0.833545" transform="matrix(0.974085 -0.168605 0.164225 0.997853 40.7705 26.6645)" fill="#BA182F"/>
<ellipse cx="0.184934" cy="0.53303" rx="0.184934" ry="0.53303" transform="matrix(0.974085 -0.168605 0.164225 0.997853 41.1709 26.9888)" fill="#C64D25"/>
<ellipse cx="0.596351" cy="0.833545" rx="0.596351" ry="0.833545" transform="matrix(0.974085 -0.168605 0.164225 0.997853 40.7705 22.2003)" fill="#BA182F"/>
<ellipse cx="0.184934" cy="0.53303" rx="0.184934" ry="0.53303" transform="matrix(0.974085 -0.168605 0.164225 0.997853 41.1709 22.5246)" fill="#C64D25"/>
<defs>
<linearGradient id="paint0_linear_808_1143" x1="36.3845" y1="10.8672" x2="33.3556" y2="15.5174" gradientUnits="userSpaceOnUse">
<stop stop-color="#5D862E"/>
<stop offset="1" stop-color="#527A02"/>
</linearGradient>
<linearGradient id="paint1_linear_808_1143" x1="32.5911" y1="5.57397" x2="32.0026" y2="15.7762" gradientUnits="userSpaceOnUse">
<stop stop-color="#B0AE5B"/>
<stop offset="1" stop-color="#77A135"/>
</linearGradient>
<linearGradient id="paint2_linear_808_1143" x1="27.3675" y1="6.59436" x2="29.91" y2="16.1933" gradientUnits="userSpaceOnUse">
<stop stop-color="#84A71E"/>
<stop offset="1" stop-color="#58970E"/>
</linearGradient>
<linearGradient id="paint3_linear_808_1143" x1="21.4598" y1="9.27289" x2="26.6649" y2="16.291" gradientUnits="userSpaceOnUse">
<stop stop-color="#6A9C0F"/>
<stop offset="1" stop-color="#80A500"/>
</linearGradient>
<linearGradient id="paint4_linear_808_1143" x1="15.863" y1="12.8443" x2="25.5328" y2="17.4976" gradientUnits="userSpaceOnUse">
<stop stop-color="#67AA0A"/>
<stop offset="1" stop-color="#296303"/>
</linearGradient>
<linearGradient id="paint5_linear_808_1143" x1="16.547" y1="21.39" x2="23.7419" y2="18.7668" gradientUnits="userSpaceOnUse">
<stop stop-color="#514802"/>
<stop offset="1" stop-color="#627500"/>
</linearGradient>
<linearGradient id="paint6_linear_808_1143" x1="26.3726" y1="16.2881" x2="37.4747" y2="34.7295" gradientUnits="userSpaceOnUse">
<stop stop-color="#ED673F"/>
<stop offset="0.136982" stop-color="#CF001B"/>
<stop offset="1" stop-color="#AF021C"/>
</linearGradient>
<radialGradient id="paint7_radial_808_1143" cx="0" cy="0" r="1" gradientUnits="userSpaceOnUse" gradientTransform="translate(20.278 36.0581) rotate(28.5533) scale(13.8763 11.3451)">
<stop stop-color="#FC965F"/>
<stop offset="1" stop-color="#D5001A"/>
</radialGradient>
<linearGradient id="paint8_linear_808_1143" x1="8.7735" y1="40.2672" x2="29.3932" y2="46.8475" gradientUnits="userSpaceOnUse">
<stop stop-color="#E21D39"/>
<stop offset="1" stop-color="#B12137"/>
</linearGradient>
<radialGradient id="paint9_radial_808_1143" cx="0" cy="0" r="1" gradientUnits="userSpaceOnUse" gradientTransform="translate(15.6764 33.3796) rotate(25.369) scale(19.2017 7.23916)">
<stop stop-color="#FCE9E0"/>
<stop offset="1" stop-color="#FDAA8A"/>
</radialGradient>
<linearGradient id="paint10_linear_808_1143" x1="10.2658" y1="21.7727" x2="14.2859" y2="30.4977" gradientUnits="userSpaceOnUse">
<stop stop-color="#94BD66"/>
<stop offset="1" stop-color="#BFB949"/>
</linearGradient>
<linearGradient id="paint11_linear_808_1143" x1="8.58676" y1="26.3644" x2="13.5596" y2="31.2134" gradientUnits="userSpaceOnUse">
<stop stop-color="#84BE68"/>
<stop offset="1" stop-color="#7C8E02"/>
</linearGradient>
<linearGradient id="paint12_linear_808_1143" x1="10.2658" y1="21.7727" x2="14.2859" y2="30.4977" gradientUnits="userSpaceOnUse">
<stop stop-color="#87CA35"/>
<stop offset="1" stop-color="#BFB949"/>
</linearGradient>
<linearGradient id="paint13_linear_808_1143" x1="5.97492" y1="27.4486" x2="12.0523" y2="29.9534" gradientUnits="userSpaceOnUse">
<stop stop-color="#ADD0A4"/>
<stop offset="1" stop-color="#329C01"/>
</linearGradient>
<linearGradient id="paint14_linear_808_1143" x1="6.96991" y1="29.0429" x2="13.3102" y2="32.0423" gradientUnits="userSpaceOnUse">
<stop stop-color="#A5DB54"/>
<stop offset="1" stop-color="#ADE571"/>
</linearGradient>
<linearGradient id="paint15_linear_808_1143" x1="4.66901" y1="31.849" x2="8.31165" y2="33.625" gradientUnits="userSpaceOnUse">
<stop stop-color="#DDECD5"/>
<stop offset="1" stop-color="#9DB71E"/>
</linearGradient>
<linearGradient id="paint16_linear_808_1143" x1="4.04714" y1="30.3822" x2="5.73122" y2="33.7928" gradientUnits="userSpaceOnUse">
<stop stop-color="#D7E1D2"/>
<stop offset="1" stop-color="#407D21"/>
</linearGradient>
<linearGradient id="paint17_linear_808_1143" x1="2.30592" y1="34.0174" x2="6.91796" y2="37.0976" gradientUnits="userSpaceOnUse">
<stop stop-color="#9EC687"/>
<stop offset="1" stop-color="#59A10D"/>
</linearGradient>
<linearGradient id="paint18_linear_808_1143" x1="1.99498" y1="37.0148" x2="9.4576" y2="36.8328" gradientUnits="userSpaceOnUse">
<stop stop-color="#BEC792"/>
<stop offset="1" stop-color="#AD992A"/>
</linearGradient>
<linearGradient id="paint19_linear_808_1143" x1="10.2658" y1="21.7727" x2="14.2859" y2="30.4977" gradientUnits="userSpaceOnUse">
<stop stop-color="#94BD66"/>
<stop offset="1" stop-color="#BFB949"/>
</linearGradient>
<linearGradient id="paint20_linear_808_1143" x1="45.5878" y1="23.941" x2="49.8563" y2="31.8239" gradientUnits="userSpaceOnUse">
<stop stop-color="#7DC06E"/>
<stop offset="1" stop-color="#509A0C"/>
</linearGradient>
<linearGradient id="paint21_linear_808_1143" x1="51.2468" y1="22.6655" x2="49.2948" y2="28.3756" gradientUnits="userSpaceOnUse">
<stop stop-color="#8BCD7E"/>
<stop offset="1" stop-color="#6AB83B"/>
</linearGradient>
<linearGradient id="paint22_linear_808_1143" x1="55.8486" y1="24.6425" x2="50.6993" y2="32.1114" gradientUnits="userSpaceOnUse">
<stop stop-color="#91C655"/>
<stop offset="1" stop-color="#3C8000"/>
</linearGradient>
<linearGradient id="paint23_linear_808_1143" x1="61.5076" y1="31.7852" x2="52.4066" y2="33.7911" gradientUnits="userSpaceOnUse">
<stop stop-color="#71A24F"/>
<stop offset="1" stop-color="#8EC114"/>
</linearGradient>
<linearGradient id="paint24_linear_808_1143" x1="63.0001" y1="38.0351" x2="52.5989" y2="36.2132" gradientUnits="userSpaceOnUse">
<stop stop-color="#59B349"/>
<stop offset="1" stop-color="#346801"/>
</linearGradient>
<linearGradient id="paint25_linear_808_1143" x1="57.0301" y1="45.7518" x2="52.6877" y2="36.5879" gradientUnits="userSpaceOnUse">
<stop stop-color="#416801"/>
<stop offset="1" stop-color="#8BAD00"/>
</linearGradient>
<linearGradient id="paint26_linear_808_1143" x1="51.3091" y1="32.0403" x2="29.2221" y2="47.9617" gradientUnits="userSpaceOnUse">
<stop stop-color="#DEB27F"/>
<stop offset="0.161307" stop-color="#CF0124"/>
</linearGradient>
<radialGradient id="paint27_radial_808_1143" cx="0" cy="0" r="1" gradientUnits="userSpaceOnUse" gradientTransform="translate(9.98967 4.60152) rotate(90) scale(4.60152 9.98967)">
<stop stop-color="#FCA7B8"/>
<stop offset="1" stop-color="#CF0023"/>
</radialGradient>
</defs>
</svg>
