<svg width="64" height="64" viewBox="0 0 64 64" fill="none" xmlns="http://www.w3.org/2000/svg">
<path d="M37.963 28.663C37.963 38.4238 30.8174 45.1253 21.182 45.1253C11.5466 45.1253 4.62274 39.8807 3.07031 28.663C3.07031 19.6917 5.73162 13.1373 20.5167 12.4191C31.0141 11.9092 37.963 18.1737 37.963 28.663Z" fill="url(#paint0_linear_183_91)"/>
<path d="M61.9998 36.0612C61.9998 44.7992 55.7539 50.7985 47.3319 50.7985C38.9099 50.7985 32.8579 46.1034 31.501 36.0612C31.501 28.03 33.8272 22.1624 46.7504 21.5195C55.9259 21.063 61.9998 26.671 61.9998 36.0612Z" fill="url(#paint1_linear_183_91)"/>
<path d="M28.3996 34.3657C28.3996 34.3657 28.5099 30.4844 27.2365 28.562C25.219 25.5165 22.0818 25.5076 18.4583 25.4974L18.3841 25.4972C13.1246 25.4822 9.81749 27.6971 6.43007 31.7573C2.88701 36.0041 1.1315 41.4083 2.42387 45.3861C3.71624 49.3639 8.69163 55.1675 11.7286 57.9715C11.7286 57.9715 12.3402 58.5317 13.4663 59.1702C16.4085 60.6451 20.2952 60.3003 24.3287 59.6017C27.1492 59.1133 29.4569 58.5488 31.5012 57.426C33.0607 56.5695 34.4669 55.3881 35.8304 53.6677C37.9935 50.9385 39.4757 48.869 39.1905 45.3861C38.928 42.1814 37.8133 40.0298 35.1843 38.213C34.2988 37.6012 32.9912 37.1973 31.8889 36.9446C30.7444 36.6822 29.8211 36.5828 29.8211 36.5828L24.6519 40.1041L25.0396 42.3212C25.0396 42.3212 25.7143 41.4728 26.3319 41.3431C27.205 41.1597 28.3996 42.3212 28.3996 42.3212C28.3996 42.3212 30.981 42.4213 32.2766 43.2994C33.4708 44.1088 34.3589 44.7933 34.5381 46.2338C34.6609 47.2205 34.2821 47.7731 33.9566 48.7118C33.4117 50.283 31.8889 52.4287 31.8889 52.4287C31.8889 52.4287 29.3033 54.8156 27.2365 55.0371C26.1003 55.1588 25.453 54.5059 24.3287 54.711C23.1514 54.9259 22.8103 56.1967 21.6149 56.1456C20.5079 56.0984 20.3441 54.4937 19.1595 54.711C17.9749 54.9284 15.3471 55.3631 15.3471 55.3631C15.0887 55.3631 12.7625 53.0156 12.7625 53.0156C12.7625 53.0156 14.3994 49.8047 15.3471 48.1992C12.4922 50.0671 8.92052 52.3873 8.7563 52.4287C8.54953 52.4809 12.181 48.3205 12.181 48.3205C11.4702 48.6248 9.95816 49.2334 9.59631 49.2334C9.23446 49.2334 8.11014 47.7988 8.11014 47.7988L6.43007 42.3212C6.17158 42.3212 7.09779 38.7368 7.59321 36.9446C8.08863 35.1523 9.83406 33.7325 11.7286 32.1486C13.2652 30.8639 14.1437 29.9784 16.0579 29.4098C17.4671 28.9911 18.4038 28.6407 19.8057 29.0837C21.1257 29.5009 22.4255 29.9141 22.5842 31.3008C22.6649 32.0065 22.1672 32.3521 22.1318 33.0615C22.078 34.1412 23.1316 34.6941 22.8426 35.7351C22.6958 36.2639 22.1318 36.9446 22.1318 36.9446L23.2303 38.7347L28.5556 35.5395C28.4623 35.2341 28.4197 34.8504 28.3996 34.3657Z" fill="url(#paint2_linear_183_91)"/>
<path d="M29.8211 36.5828C29.0899 36.4135 28.7321 36.1166 28.5556 35.5395L23.2303 38.7347L22.1318 36.9446L20.0641 36.0611V32.7355H19.1595C19.1595 32.7355 19.0111 31.3832 18.3841 31.3008C17.7034 31.2115 17.3502 32.7355 17.3502 32.7355C17.3502 32.7355 16.3364 32.618 16.0579 33.0615C15.8418 33.4057 16.0579 34.1048 16.0579 34.1048C16.0579 34.1048 13.9116 33.2062 13.7317 34.1048C13.5897 34.8144 14.8948 35.5395 14.8948 35.5395C14.8948 35.5395 13.6629 35.0199 13.344 35.5395C13.0163 36.0734 14.1194 36.9446 14.1194 36.9446C14.1194 36.9446 12.9935 37.0762 12.7625 37.6262C12.4754 38.3097 13.7317 39.2564 13.7317 39.2564C13.7317 39.2564 10.2186 39.9392 10.8886 41.0823C11.1827 41.5839 11.9565 41.618 12.6029 41.5443C13.0913 41.384 13.6025 41.3431 13.6025 41.3431C13.6025 41.3431 13.148 41.482 12.6029 41.5443C12.1644 41.6881 11.7441 41.9282 11.7286 42.3212C11.6939 43.1976 13.7317 43.2994 13.7317 43.2994C13.7317 43.2994 9.8117 46.6685 11.2117 46.2338C12.6117 45.7991 15.3988 45.0209 15.3471 45.3861C15.2955 45.7512 12.181 48.3205 12.181 48.3205C12.181 48.3205 8.54953 52.4809 8.7563 52.4287C8.92052 52.3873 12.4922 50.0671 15.3471 48.1992C16.0869 47.7152 16.7785 47.2616 17.3502 46.8859C17.922 46.5102 17.8687 47.3891 18.061 47.7988C18.762 49.2921 14.5906 50.7827 16.0579 51.5158C16.8546 51.9138 18.1687 51.9288 18.3195 51.2549C18.4703 50.5811 18.8493 49.2334 19.1595 49.2334C19.4697 49.2334 20.4518 49.8855 20.9041 50.2116C20.7964 50.9506 20.4435 51.4656 20.9041 51.9722C21.5538 52.6867 21.8303 50.3855 22.1318 49.8203C22.1318 49.8203 23.3725 51.6186 24.3287 51.2549C25.2856 50.8911 25.0396 48.7118 25.0396 48.7118C25.0396 48.7118 26.2183 50.4037 27.2365 50.2116C27.8648 50.093 29.1031 49.3639 28.5556 49.2334C28.0082 49.103 26.978 48.7378 27.2365 48.3205C27.495 47.9032 28.4211 47.1902 28.8519 46.8859C29.2827 46.5816 27.2365 46.2338 27.2365 46.2338C27.7534 45.6469 28.3996 44.4731 28.3996 44.4731H25.5565C24.738 44.4731 25.0396 42.3212 25.0396 42.3212L24.6519 40.1041L29.8211 36.5828Z" fill="url(#paint3_linear_183_91)"/>
<path d="M18.061 47.7988C17.8687 47.3891 17.922 46.5102 17.3502 46.8859C16.7785 47.2616 16.0869 47.7152 15.3471 48.1992C14.3994 49.8047 12.7625 53.0156 12.7625 53.0156C12.7625 53.0156 15.0887 55.3631 15.3471 55.3631C15.3471 55.3631 17.9749 54.9284 19.1595 54.711C20.3441 54.4937 20.5079 56.0984 21.6149 56.1456C22.8103 56.1967 23.1514 54.9259 24.3287 54.711C25.453 54.5059 26.1003 55.1588 27.2365 55.0371C29.3033 54.8156 31.8889 52.4287 31.8889 52.4287C31.8889 52.4287 33.4117 50.283 33.9566 48.7118C34.2821 47.7731 34.6609 47.2205 34.5381 46.2338C34.3589 44.7933 33.4708 44.1088 32.2766 43.2994C30.981 42.4213 28.3996 42.3212 28.3996 42.3212C28.3996 42.3212 27.205 41.1597 26.3319 41.3431C25.7143 41.4728 25.0396 42.3212 25.0396 42.3212C25.0396 42.3212 24.738 44.4731 25.5565 44.4731H28.3996C28.3996 44.4731 27.7534 45.6469 27.2365 46.2338C27.2365 46.2338 29.2827 46.5816 28.8519 46.8859C28.4211 47.1902 27.495 47.9032 27.2365 48.3205C26.978 48.7378 28.0082 49.103 28.5556 49.2334C29.1031 49.3639 27.8648 50.093 27.2365 50.2116C26.2183 50.4037 25.0396 48.7118 25.0396 48.7118C25.0396 48.7118 25.2856 50.8911 24.3287 51.2549C23.3725 51.6186 22.1318 49.8203 22.1318 49.8203C21.8303 50.3855 21.5538 52.6867 20.9041 51.9722C20.4435 51.4656 20.7964 50.9506 20.9041 50.2116C20.4518 49.8855 19.4697 49.2334 19.1595 49.2334C18.8493 49.2334 18.4703 50.5811 18.3195 51.2549C18.1687 51.9288 16.8546 51.9138 16.0579 51.5158C14.5906 50.7827 18.762 49.2921 18.061 47.7988Z" fill="url(#paint4_linear_183_91)"/>
<path d="M20.0641 32.7355V36.0611L22.1318 36.9446C22.1318 36.9446 22.6958 36.2639 22.8426 35.7351C23.1316 34.6941 22.078 34.1412 22.1318 33.0615C22.1672 32.3521 22.6649 32.0065 22.5842 31.3008C22.4255 29.9141 21.1257 29.5009 19.8057 29.0837C18.4038 28.6407 17.4671 28.9911 16.0579 29.4098C14.1437 29.9784 13.2652 30.8639 11.7286 32.1486C9.83406 33.7325 8.08863 35.1523 7.59321 36.9446C7.09779 38.7368 6.17158 42.3212 6.43007 42.3212L8.11014 47.7988C8.11014 47.7988 9.23446 49.2334 9.59631 49.2334C9.95816 49.2334 11.4702 48.6248 12.181 48.3205C12.181 48.3205 15.2955 45.7512 15.3471 45.3861C15.3988 45.0209 12.6117 45.7991 11.2117 46.2338C9.8117 46.6685 13.7317 43.2994 13.7317 43.2994C13.7317 43.2994 11.6939 43.1976 11.7286 42.3212C11.7441 41.9282 12.1644 41.6881 12.6029 41.5443C11.9565 41.618 11.1827 41.5839 10.8886 41.0823C10.2186 39.9392 13.7317 39.2564 13.7317 39.2564C13.7317 39.2564 12.4754 38.3097 12.7625 37.6262C12.9935 37.0762 14.1194 36.9446 14.1194 36.9446C14.1194 36.9446 13.0163 36.0734 13.344 35.5395C13.6629 35.0199 14.8948 35.5395 14.8948 35.5395C14.8948 35.5395 13.5897 34.8144 13.7317 34.1048C13.9116 33.2062 16.0579 34.1048 16.0579 34.1048C16.0579 34.1048 15.8418 33.4057 16.0579 33.0615C16.3364 32.618 17.3502 32.7355 17.3502 32.7355C17.3502 32.7355 17.7034 31.2115 18.3841 31.3008C19.0111 31.3832 19.1595 32.7355 19.1595 32.7355H20.0641Z" fill="url(#paint5_linear_183_91)"/>
<path d="M31.5012 57.426C29.4569 58.5488 27.1492 59.1133 24.3287 59.6017C20.2952 60.3003 16.4085 60.6451 13.4663 59.1702C15.2915 60.2051 18.4683 61.4456 22.5842 60.8407C26.6713 60.1039 28.5325 59.2651 31.5012 57.426Z" fill="#C41B01"/>
<path d="M27.2365 28.562C28.5099 30.4844 28.3996 34.3657 28.3996 34.3657C28.4197 34.8504 28.4623 35.2341 28.5556 35.5395C28.7321 36.1166 29.0899 36.4135 29.8211 36.5828C29.8211 36.5828 30.7444 36.6822 31.8889 36.9446C31.8889 36.9446 30.135 35.4227 29.5627 34.1048C28.6676 32.0436 27.4847 28.4999 27.2365 28.562Z" fill="#C21F03"/>
<path d="M21.6148 8.67322C21.6148 8.67322 22.2264 7.92652 22.0025 7.49945C21.3171 6.19243 19.2279 3.3506 19.8055 3H18.1901L20.1932 7.1734C20.1932 7.1734 19.8506 7.53201 19.8055 7.8255C19.7365 8.27568 20.3225 8.86885 20.3225 8.86885L19.9976 12.1061C20.5268 12.8034 21.2574 13.7875 21.8461 14.5854C21.8461 14.5854 23.0228 14.3447 23.101 13.7596C23.1432 13.4438 22.8723 12.977 22.8723 12.977L21.6148 8.67322Z" fill="url(#paint6_linear_183_91)"/>
<path d="M19.3532 11.2816C19.3532 11.2816 17.4363 9.36879 16.704 8.67322C16.704 8.67322 17.5952 9.83426 17.7378 10.4339C17.8804 11.0335 18.0877 11.8536 18.3108 12.651C18.4182 13.0349 18.5293 13.4134 18.6386 13.7596C18.7573 14.1354 18.8738 14.4731 18.9813 14.7377C19.1282 15.0994 19.2784 15.2653 19.3532 15.3246C19.8475 15.716 21.6653 15.7337 22.3902 15.3246C22.235 15.1132 22.049 14.8604 21.8461 14.5854C21.2574 13.7875 20.5268 12.8034 19.9976 12.1061C19.6966 11.7095 19.3532 11.2816 19.3532 11.2816Z" fill="url(#paint7_linear_183_91)"/>
<path d="M14.0547 13.4335C15.627 13.8682 18.8136 14.7377 18.9813 14.7377C18.8738 14.4731 18.7573 14.1354 18.6386 13.7596C17.7783 13.4987 15.9157 12.977 15.347 12.977C15.0698 12.977 14.3111 12.8183 13.4732 12.6093C12.1626 12.2822 11.5948 12.2086 10.5008 11.6729C9.55004 11.2072 8.90696 10.586 8.23926 10.173C8.71311 10.7599 9.07688 11.3607 9.79005 11.9337C11.1699 13.0423 12.6762 12.9336 14.0547 13.4335Z" fill="url(#paint8_linear_183_91)"/>
<path d="M15.347 12.977C15.9157 12.977 17.7783 13.4987 18.6386 13.7596C18.5293 13.4134 18.4182 13.0349 18.3108 12.651C16.6121 12.2597 12.9562 11.4772 12.9562 11.4772C12.9562 11.4772 10.3716 9.60789 9.2085 8.67322C9.2085 8.67322 10.2265 10.201 11.0824 10.9848C11.9159 11.7481 13.4732 12.6093 13.4732 12.6093C14.3111 12.8183 15.0698 12.977 15.347 12.977Z" fill="url(#paint9_linear_183_91)"/>
<path d="M24.9102 9.45573L25.4918 11.6729L25.7465 13.1727C25.7985 13.4783 25.9281 13.649 25.8795 13.9552C25.8366 14.2247 25.5797 14.5854 25.5797 14.5854L25.1041 15.5854C25.7602 15.2544 26.3688 15.3479 26.7841 14.7377C27.2698 14.024 27.2698 13.2343 26.7841 12.5206C26.8939 12.2086 26.8939 11.9848 26.7841 11.6729C26.667 11.34 26.2025 10.9848 26.2025 10.9848L24.9102 9.45573Z" fill="url(#paint10_linear_183_91)"/>
<path d="M26.2025 10.9848C26.2025 10.9848 26.667 11.34 26.7841 11.6729C26.8939 11.9848 26.8939 12.2086 26.7841 12.5206C27.0364 12.1895 27.2264 12.0363 27.4303 11.6729C28.0053 10.6474 28.1673 9.77502 27.7533 8.67322C27.3089 7.49027 25.453 6.69085 25.2979 6.58652C25.1041 6.4561 27.1754 8.06089 27.0426 9.32531C26.9665 10.049 26.5041 10.4751 26.2025 10.9848Z" fill="url(#paint11_linear_183_91)"/>
<path d="M22.8723 12.977C22.8723 12.977 23.1432 13.4438 23.101 13.7596C23.0228 14.3447 21.8461 14.5854 21.8461 14.5854C22.049 14.8604 22.235 15.1132 22.3902 15.3246L25.1041 15.5854L25.5797 14.5854C25.3565 14.4188 24.7164 14.0856 24.7164 14.0856C24.7164 14.0856 25.3385 13.477 25.7465 13.1727L25.4918 11.6729L22.8723 12.977Z" fill="url(#paint12_linear_183_91)"/>
<path d="M43.8424 18.0634C43.8424 18.0634 44.4455 17.6287 44.5532 19.2372C44.6158 20.1713 44.7146 21.6567 44.7865 22.7585C44.8384 23.5539 44.8763 24.1493 44.8763 24.1931C44.8763 24.1931 45.5072 24.4693 45.9102 24.3887C46.288 24.3132 46.7502 23.867 46.7502 23.867C46.7502 23.867 46.493 22.9002 46.2056 21.8455C45.899 20.7204 45.5579 19.4952 45.4578 19.2372C45.264 18.7372 44.8763 17.6721 44.8763 17.4113C44.8763 17.1505 44.1871 17.7374 43.8424 18.0634Z" fill="url(#paint13_linear_183_91)"/>
<path d="M42.0978 26.2798C42.0978 26.2798 44.5862 27.5912 45.9102 26.8667C46.2766 26.6662 46.7502 26.2022 46.7502 26.2022C46.7502 26.2022 44.1755 25.1388 43.3902 24.9756C42.6048 24.8124 41.3908 24.5617 40.4178 24.3643C39.5763 24.1936 38.9149 24.0627 38.867 24.0627C38.8293 24.0627 39.0999 24.2593 39.5132 24.5449C39.8558 24.7817 40.2964 25.0796 40.7409 25.3775C41.2305 25.7056 41.7248 26.0337 42.0978 26.2798Z" fill="url(#paint14_linear_183_91)"/>
<path d="M45.9102 24.3887C45.5072 24.4693 44.8763 24.1931 44.8763 24.1931C44.8763 24.1493 44.8384 23.5539 44.7865 22.7585C43.5241 22.1933 41.6456 21.8455 40.7409 21.063C39.8362 20.2805 36.2178 19.2372 36.2178 19.2372C36.2178 19.2372 40.447 22.0748 40.4178 22.1716C41.8825 23.1497 42.8086 23.2149 42.744 23.4758C42.6795 23.7366 40.4178 24.3643 40.4178 24.3643C41.3908 24.5617 42.6048 24.8124 43.3902 24.9756C44.1755 25.1388 46.7502 26.2022 46.7502 26.2022C46.7502 26.2022 47.6458 25.3829 48.301 24.9756C50.2561 23.7599 52.6329 25.5589 54.0518 23.7366C55.0823 22.4131 55.6241 20.2805 54.8272 19.498C54.0941 18.7782 52.6647 17.363 52.36 17.0191C52.6803 17.4362 54.2536 19.5709 54.3103 20.0849C54.3749 20.6718 54.3749 22.302 53.4056 22.7585C52.4364 23.2149 49.0763 23.2802 48.5594 23.0193C48.0425 22.7585 48.6456 21.7151 48.8179 21.063C48.9902 20.4109 51.1656 17.3026 51.4671 16.9548C51.7687 16.6071 52.3847 15.8724 52.4364 15.7159C52.4881 15.5594 50.7779 16.4766 49.9164 16.9548C49.0548 17.433 48.7601 19.5052 47.5256 20.737C47.0487 21.2128 46.2056 21.8455 46.2056 21.8455C46.493 22.9002 46.7502 23.867 46.7502 23.867C46.7502 23.867 46.288 24.3132 45.9102 24.3887Z" fill="url(#paint15_radial_183_91)"/>
<path d="M38.027 25.1712C38.9205 25.7522 40.7409 25.3775 40.7409 25.3775C40.2964 25.0796 39.8558 24.7817 39.5132 24.5449C39.1255 24.4277 38.6755 24.4534 38.2209 24.1931C37.3061 23.6694 37.2732 22.6281 36.8639 21.8455C36.8639 21.8455 36.8798 24.4253 38.027 25.1712Z" fill="url(#paint16_linear_183_91)"/>
<ellipse cx="2.32922" cy="3.71216" rx="2.32922" ry="3.71216" transform="matrix(0.92515 -0.379601 0.373693 0.927553 53.9873 27.2004)" fill="url(#paint17_radial_183_91)"/>
<ellipse cx="3.15088" cy="4.99616" rx="3.15088" ry="4.99616" transform="matrix(0.758442 -0.65174 0.644871 0.764292 24.1348 17.8015)" fill="url(#paint18_radial_183_91)"/>
<defs>
<linearGradient id="paint0_linear_183_91" x1="32.4926" y1="16.7168" x2="8.28709" y2="39.6543" gradientUnits="userSpaceOnUse">
<stop stop-color="#EA2C16"/>
<stop offset="1" stop-color="#8F0200"/>
</linearGradient>
<linearGradient id="paint1_linear_183_91" x1="57.2182" y1="25.3668" x2="35.5831" y2="45.3845" gradientUnits="userSpaceOnUse">
<stop stop-color="#EA2C16"/>
<stop offset="1" stop-color="#8F0200"/>
</linearGradient>
<linearGradient id="paint2_linear_183_91" x1="30.2735" y1="34.8222" x2="7.61274" y2="54.115" gradientUnits="userSpaceOnUse">
<stop stop-color="#FFA182"/>
<stop offset="1" stop-color="#FF927E"/>
</linearGradient>
<linearGradient id="paint3_linear_183_91" x1="30.2735" y1="34.8222" x2="7.95123" y2="52.6207" gradientUnits="userSpaceOnUse">
<stop stop-color="#E5E8A4"/>
<stop offset="0.270864" stop-color="#FEBDAA"/>
<stop offset="1" stop-color="#FF937D"/>
</linearGradient>
<linearGradient id="paint4_linear_183_91" x1="21.2272" y1="43.2994" x2="29.7861" y2="53.8521" gradientUnits="userSpaceOnUse">
<stop stop-color="#E53A19"/>
<stop offset="1" stop-color="#CE1F0B"/>
</linearGradient>
<linearGradient id="paint5_linear_183_91" x1="11.3409" y1="33.0615" x2="21.5138" y2="43.2064" gradientUnits="userSpaceOnUse">
<stop stop-color="#F83E0D"/>
<stop offset="1" stop-color="#F26211"/>
</linearGradient>
<linearGradient id="paint6_linear_183_91" x1="18.112" y1="3" x2="18.112" y2="15.6248" gradientUnits="userSpaceOnUse">
<stop stop-color="#494E23"/>
<stop offset="1" stop-color="#4D640F"/>
</linearGradient>
<linearGradient id="paint7_linear_183_91" x1="18.0609" y1="9.2601" x2="18.1129" y2="15.6248" gradientUnits="userSpaceOnUse">
<stop stop-color="#96B672"/>
<stop offset="1" stop-color="#4D5217"/>
</linearGradient>
<linearGradient id="paint8_linear_183_91" x1="8.23926" y1="10.7599" x2="18.1465" y2="15.5534" gradientUnits="userSpaceOnUse">
<stop stop-color="#92AB6B"/>
<stop offset="1" stop-color="#928C55"/>
</linearGradient>
<linearGradient id="paint9_linear_183_91" x1="18.112" y1="3" x2="18.112" y2="15.6248" gradientUnits="userSpaceOnUse">
<stop stop-color="#494E23"/>
<stop offset="1" stop-color="#4D640F"/>
</linearGradient>
<linearGradient id="paint10_linear_183_91" x1="25.2333" y1="9.71657" x2="26.0885" y2="16.1703" gradientUnits="userSpaceOnUse">
<stop stop-color="#9FAC87"/>
<stop offset="1" stop-color="#49621E"/>
</linearGradient>
<linearGradient id="paint11_linear_183_91" x1="18.112" y1="3" x2="18.112" y2="15.6248" gradientUnits="userSpaceOnUse">
<stop stop-color="#494E23"/>
<stop offset="1" stop-color="#4D640F"/>
</linearGradient>
<linearGradient id="paint12_linear_183_91" x1="18.112" y1="3" x2="18.112" y2="15.6248" gradientUnits="userSpaceOnUse">
<stop stop-color="#494E23"/>
<stop offset="1" stop-color="#4D640F"/>
</linearGradient>
<linearGradient id="paint13_linear_183_91" x1="45.7136" y1="15.6981" x2="45.7136" y2="27.0849" gradientUnits="userSpaceOnUse">
<stop stop-color="#2F340E"/>
<stop offset="1" stop-color="#152F02"/>
</linearGradient>
<linearGradient id="paint14_linear_183_91" x1="39.384" y1="24.3235" x2="45.7317" y2="27.0427" gradientUnits="userSpaceOnUse">
<stop stop-color="#689441"/>
<stop offset="1" stop-color="#394912"/>
</linearGradient>
<radialGradient id="paint15_radial_183_91" cx="0" cy="0" r="1" gradientUnits="userSpaceOnUse" gradientTransform="translate(45.7163 23.9975) rotate(-42.468) scale(7.53332 12.6906)">
<stop stop-color="#2C420B"/>
<stop offset="1" stop-color="#537A4F"/>
</radialGradient>
<linearGradient id="paint16_linear_183_91" x1="45.7136" y1="15.6981" x2="45.7136" y2="27.0849" gradientUnits="userSpaceOnUse">
<stop stop-color="#2F340E"/>
<stop offset="1" stop-color="#152F02"/>
</linearGradient>
<radialGradient id="paint17_radial_183_91" cx="0" cy="0" r="1" gradientUnits="userSpaceOnUse" gradientTransform="translate(2.32922 3.71216) rotate(90) scale(3.71216 2.32922)">
<stop stop-color="#F3AEA5"/>
<stop offset="1" stop-color="#E42914"/>
</radialGradient>
<radialGradient id="paint18_radial_183_91" cx="0" cy="0" r="1" gradientUnits="userSpaceOnUse" gradientTransform="translate(3.15088 4.99616) rotate(90) scale(4.99616 3.15088)">
<stop stop-color="#F3AEA5"/>
<stop offset="1" stop-color="#E42914"/>
</radialGradient>
</defs>
</svg>
