<svg width="64" height="64" viewBox="0 0 64 64" fill="none" xmlns="http://www.w3.org/2000/svg">
<path d="M29.3641 11.1672C29.3641 11.1672 26.2573 10.8747 24.3016 11.1672C20.7271 11.7019 18.909 13.0264 15.8441 14.9616C12.7774 16.898 10.9399 18.0704 8.75646 20.9845C6.82146 23.5669 5.80398 25.2742 5.18287 28.4528C4.51337 31.879 5.89759 37.3666 5.89759 37.3666L11.0793 46.0997L23.8846 52.7249L31.8061 53.3874C31.8061 53.3874 36.4467 53.8158 39.3702 53.3874C42.8061 52.8839 44.8435 52.4112 47.8276 50.6169C47.8276 50.6169 42.5298 51.5896 39.3702 50.6169C35.8937 49.5466 34.6903 47.3716 31.8061 45.1361C28.4757 42.5547 26.2106 41.4721 23.5273 38.2098C21.2596 35.4528 19.9085 33.7523 18.8816 30.3199C17.9429 27.1825 17.4541 25.1162 18.286 21.9481C19.1205 18.7704 20.5321 17.1802 22.9317 14.9616C25.0779 12.9772 29.3641 11.1672 29.3641 11.1672Z" fill="#AC0200"/>
<path d="M47.8276 50.6169C50.5307 48.9915 51.7743 47.5825 53.7836 45.1361C56.0163 42.4178 57.4478 40.775 58.3697 37.3666C59.278 34.0089 59.1393 31.8457 58.3697 28.4528C57.6971 25.4873 56.8317 23.9106 55.2131 21.3458C53.256 18.2449 51.89 16.5145 48.8997 14.4195C46.3664 12.6447 44.715 11.7789 41.693 11.1672C39.0018 10.6225 34.6649 11.1672 34.6649 11.1672H29.3641C29.3641 11.1672 25.0779 12.9772 22.9317 14.9616C20.5321 17.1802 19.1205 18.7704 18.286 21.9481C17.4541 25.1162 17.9429 27.1825 18.8816 30.3199C19.9085 33.7523 21.2596 35.4528 23.5273 38.2098C26.2106 41.4721 28.4757 42.5547 31.8061 45.1361C34.6903 47.3716 35.8937 49.5466 39.3702 50.6169C42.5298 51.5896 47.8276 50.6169 47.8276 50.6169Z" fill="#DE1E1C"/>
<path d="M36.4516 55.134C37.583 53.9239 38.9532 51.701 38.9532 51.701L37.1664 50.2555C37.1664 50.2555 35.1837 53.2276 33.4141 54.592C31.4608 56.098 30.0933 56.6992 27.6964 57.242C25.177 57.8126 23.6189 57.7438 21.0852 57.242C18.4655 56.7232 16.9777 56.1123 14.7719 54.592C13.3833 53.6349 12.5921 53.0386 11.5557 51.701C9.72704 49.3409 9.54666 47.4194 8.9946 44.4736C8.33632 40.9609 8.12184 38.7833 8.9946 35.3188C9.59859 32.9213 11.5557 29.5369 11.5557 29.5369L9.47108 27.8505C9.47108 27.8505 7.12331 32.2393 6.49309 35.3188C5.77662 38.8198 5.84807 40.9584 6.49309 44.4736C7.03261 47.4137 7.40336 49.1805 8.9946 51.701C10.6678 54.3514 12.0993 55.6346 14.7719 57.242C17.6173 58.9534 19.5783 59.4333 22.872 59.7716C26.1026 60.1034 28.1487 60.2401 31.1508 58.9886C33.5082 58.006 34.7 57.0077 36.4516 55.134Z" fill="#C11919"/>
<path d="M11.5557 29.5369C11.5557 29.5369 9.59859 32.9213 8.9946 35.3188C8.12184 38.7833 8.33632 40.9609 8.9946 44.4736C9.54666 47.4194 9.72704 49.3409 11.5557 51.701C12.5921 53.0386 13.3833 53.6349 14.7719 54.592C16.9777 56.1123 18.4655 56.7232 21.0852 57.242C23.6189 57.7438 25.177 57.8126 27.6964 57.242C30.0933 56.6992 31.4608 56.098 33.4141 54.592C35.1837 53.2276 37.1664 50.2555 37.1664 50.2555L11.5557 29.5369Z" fill="#D31919"/>
<path d="M11.5557 29.5369L9.47108 27.8505C9.47108 27.8505 7.12331 32.2393 6.49309 35.3188C5.77662 38.8198 5.84807 40.9584 6.49309 44.4736C7.03261 47.4137 7.40336 49.1805 8.9946 51.701C10.6678 54.3514 12.0993 55.6346 14.7719 57.242C17.6173 58.9534 19.5783 59.4333 22.872 59.7716C26.1026 60.1034 28.1487 60.2401 31.1508 58.9886C33.5082 58.006 34.7 57.0077 36.4516 55.134C37.583 53.9239 38.9532 51.701 38.9532 51.701L37.1664 50.2555M11.5557 29.5369C11.5557 29.5369 9.59859 32.9213 8.9946 35.3188C8.12184 38.7833 8.33632 40.9609 8.9946 44.4736C9.54666 47.4194 9.72704 49.3409 11.5557 51.701C12.5921 53.0386 13.3833 53.6349 14.7719 54.592C16.9777 56.1123 18.4655 56.7232 21.0852 57.242C23.6189 57.7438 25.177 57.8126 27.6964 57.242C30.0933 56.6992 31.4608 56.098 33.4141 54.592C35.1837 53.2276 37.1664 50.2555 37.1664 50.2555M11.5557 29.5369L37.1664 50.2555" stroke="#C11919"/>
<path d="M18.6436 39.595L13.581 35.4393C13.581 35.4393 12.1887 37.8675 11.8537 39.595C11.536 41.2338 11.4446 42.2534 11.8537 43.8713C12.2456 45.4208 12.8568 46.1718 13.7597 47.485C14.6253 48.7439 15.246 49.3544 16.3207 50.4362C17.2667 51.3884 17.9774 51.8373 19.1796 52.4237C20.6348 53.1336 21.3781 53.3602 22.9914 53.4476C24.385 53.523 25.8551 53.3798 27.2202 53.0862C28.7871 52.7492 29.1553 52.5753 30.2577 51.3998C30.8126 50.8081 31.3893 49.6532 31.3893 49.6532L26.8628 46.0997C26.8628 46.0997 25.2547 47.485 24.2422 47.485C23.2297 47.485 22.2195 47.3542 21.3237 47.0031C20.1686 46.5504 18.9414 45.6179 18.6436 44.9554C18.3458 44.2929 18.1075 42.6667 18.1075 41.9439C18.1075 40.955 18.6436 39.595 18.6436 39.595Z" fill="#EC3131" stroke="#EC3131" stroke-linejoin="round"/>
<path d="M31.5677 11.0467L33.7119 12.5524L35.4391 11.5888L38.5958 11.0467C38.5958 11.0467 39.378 10.884 39.8465 10.6854C40.8118 10.2761 41.2595 9.81658 41.9907 9.05919C42.8694 8.14893 43.4125 7.56627 43.7775 6.34891C43.975 5.68997 44.0157 4.60229 44.0157 4.60229C44.0157 4.60229 42.6657 6.5296 41.5738 7.19211C40.4818 7.85462 38.2384 9.20374 38.0002 9.30011C38.0002 9.30011 35.7965 9.90239 34.8435 10.1433C33.8906 10.3842 33.4801 9.60036 32.6398 9.17965C31.8279 8.77316 31.3785 8.52807 30.6148 8.03531C29.3439 7.2153 28.5997 6.74641 27.5772 5.62617C27.0376 5.03498 26.3265 4 26.3265 4C26.3265 4 26.1063 5.17252 26.1478 5.92731C26.2214 7.26407 26.4445 8.09446 27.2199 9.17965C27.8879 10.1146 29.4831 11.0467 29.4831 11.0467H31.5677Z" fill="#048716" stroke="#048716" stroke-linejoin="round"/>
<path d="M32.1038 11.3479C32.9649 11.7041 34.0097 12.7934 34.0097 12.7934C34.0097 12.7934 34.9565 11.9404 35.6774 11.5888C36.6841 11.0978 37.359 10.9904 38.4767 10.9865C39.8193 10.9818 40.7459 11.0045 41.8121 11.8297C42.7498 12.5556 42.9963 13.3049 43.4202 14.4195C43.9991 15.9421 43.8371 18.5753 43.8371 18.5753C43.8371 18.5753 43.2399 16.95 42.4672 16.2264C41.8407 15.6396 41.3814 15.3832 40.5613 15.1423C39.4213 14.8073 38.6933 15.4686 37.5238 15.2627C37.0012 15.1708 36.2134 14.9014 36.2134 14.9014L35.2605 13.6968L34.0097 12.7934C34.0097 12.7934 33.2509 13.1322 32.759 13.3354C32.1592 13.5833 31.7638 13.5969 31.2104 13.9377C30.7729 14.2071 30.7339 14.9014 30.1979 14.7809C29.6619 14.6605 29.0663 14.9014 29.0663 14.9014L27.0412 15.9855L24.1824 17.6117C23.0659 18.2467 23.1103 18.756 23.1103 18.756C23.1103 18.756 22.9727 17.0028 23.3485 15.9855C23.6489 15.1726 23.9897 14.7844 24.5397 14.1184C25.7514 12.6512 26.7006 11.8285 28.5302 11.3479C29.881 10.9931 30.8121 10.8135 32.1038 11.3479Z" fill="#1AAD2E"/>
<path d="M34.0097 12.7934C34.0097 12.7934 32.9649 11.7041 32.1038 11.3479C30.8121 10.8135 29.881 10.9931 28.5302 11.3479C26.7006 11.8285 25.7514 12.6512 24.5397 14.1184C23.9897 14.7844 23.6489 15.1726 23.3485 15.9855C22.9727 17.0028 23.1103 18.756 23.1103 18.756C23.1103 18.756 23.0659 18.2467 24.1824 17.6117C25.2988 16.9766 25.9248 16.6205 27.0412 15.9855L29.0663 14.9014C29.0663 14.9014 29.6619 14.6605 30.1979 14.7809C30.7339 14.9014 30.7729 14.2071 31.2104 13.9377C31.7638 13.5969 32.1592 13.5833 32.759 13.3354C33.2509 13.1322 34.0097 12.7934 34.0097 12.7934ZM34.0097 12.7934C34.0097 12.7934 34.9565 11.9404 35.6774 11.5888C36.6841 11.0978 37.3591 10.9904 38.4767 10.9865C39.8193 10.9818 40.7459 11.0045 41.8121 11.8297C42.7498 12.5556 42.9963 13.3049 43.4202 14.4195C43.9991 15.9421 43.8371 18.5753 43.8371 18.5753C43.8371 18.5753 43.2399 16.95 42.4672 16.2264C41.8407 15.6396 41.3814 15.3832 40.5613 15.1423C39.4213 14.8073 38.6933 15.4686 37.5238 15.2627C37.0012 15.1708 36.2134 14.9014 36.2134 14.9014L35.2605 13.6968L34.0097 12.7934Z" stroke="#1AAD2E" stroke-linejoin="round"/>
<path d="M34.3671 13.215C34.3671 13.215 32.501 13.2497 31.5082 13.8172C30.0817 14.6328 29.767 15.7854 29.1258 17.3105C28.4673 18.8769 28.3944 19.8878 28.292 21.5867C28.2453 22.3615 28.292 23.5743 28.292 23.5743C28.292 23.5743 29.1043 22.5929 29.7214 22.0686C30.7662 21.1808 31.6863 21.1749 32.759 20.3219C33.7936 19.4992 34.3876 18.9833 35.0818 17.8526C35.6764 16.8841 36.3977 16.2552 36.1539 15.1423C35.9332 14.135 34.3671 13.215 34.3671 13.215Z" fill="#2EBF42"/>
<path d="M33.5333 11.2274C33.7052 12.0524 34.3671 13.215 34.3671 13.215C34.3671 13.215 34.8041 12.0041 35.0818 11.2274C35.4095 10.3109 35.6293 9.80911 35.9157 8.87851C36.1521 8.11032 36.2349 7.66506 36.4517 6.89097C36.6763 6.08894 37.0473 4.8432 37.0473 4.8432L35.0818 4.4216C35.0818 4.4216 34.1948 6.43 33.8906 7.7944C33.5974 9.10948 33.2584 9.90831 33.5333 11.2274Z" fill="#2EBF42"/>
<path d="M34.3671 13.215C34.3671 13.215 32.501 13.2497 31.5082 13.8172C30.0817 14.6328 29.767 15.7854 29.1258 17.3105C28.4673 18.8769 28.3944 19.8878 28.292 21.5867C28.2453 22.3615 28.292 23.5743 28.292 23.5743C28.292 23.5743 29.1043 22.5929 29.7214 22.0686C30.7662 21.1808 31.6863 21.1749 32.759 20.3219C33.7936 19.4992 34.3876 18.9833 35.0818 17.8526C35.6764 16.8841 36.3977 16.2552 36.1539 15.1423C35.9332 14.135 34.3671 13.215 34.3671 13.215ZM34.3671 13.215C34.3671 13.215 33.7052 12.0524 33.5333 11.2274C33.2584 9.90831 33.5974 9.10948 33.8906 7.7944C34.1948 6.43 35.0818 4.4216 35.0818 4.4216L37.0473 4.8432C37.0473 4.8432 36.6763 6.08894 36.4517 6.89097C36.2349 7.66506 36.1521 8.11032 35.9157 8.87851C35.6293 9.80911 35.4095 10.3109 35.0818 11.2274C34.8041 12.0041 34.3671 13.215 34.3671 13.215Z" stroke="#2EBF42" stroke-linejoin="round"/>
<ellipse cx="0.95468" cy="0.36073" rx="0.95468" ry="0.36073" transform="matrix(0.914649 0.404249 -0.39674 0.917931 15.948 38.8177)" fill="#D9BB46"/>
<ellipse cx="0.95412" cy="0.360939" rx="0.95412" ry="0.360939" transform="matrix(0.943158 -0.332345 0.325792 0.945441 16.6768 45.6483)" fill="#D9BB46"/>
<ellipse cx="0.961661" cy="0.358113" rx="0.961661" ry="0.358113" transform="matrix(-0.428867 -0.903368 0.899597 -0.436722 26.675 48.933)" fill="#D9BB46"/>
<ellipse cx="0.963569" cy="0.357392" rx="0.963569" ry="0.357392" transform="matrix(0.0895795 -0.99598 0.995797 0.0915857 21.1394 52.0871)" fill="#D9BB46"/>
<ellipse cx="4.00661" cy="6.05755" rx="4.00661" ry="6.05755" transform="matrix(0.922355 -0.386343 0.379048 0.925377 43.5159 20.0397)" fill="#F8806B"/>
<ellipse cx="2.67573" cy="2.72269" rx="2.67573" ry="2.72269" transform="matrix(0.922355 -0.386343 0.379048 0.925377 49 33.3706)" fill="#F8806B"/>
<ellipse cx="13.5" cy="40.9099" rx="0.5" ry="0.505614" fill="#F46F6F"/>
<ellipse cx="21.5" cy="47.9884" rx="0.5" ry="0.505614" fill="#F46F6F"/>
<ellipse cx="26.5" cy="52.0334" rx="0.5" ry="0.505614" fill="#F46F6F"/>
</svg>
