<svg width="64" height="64" viewBox="0 0 64 64" fill="none" xmlns="http://www.w3.org/2000/svg">
<path d="M61.6147 21.5604C61.6064 22.0006 61.2325 22.5842 61.2325 22.5842C61.2325 22.5842 61.7469 23.2427 61.742 23.7655C61.742 23.7655 62.0355 23.0592 61.9968 22.5842C61.961 22.1461 61.6147 21.5604 61.6147 21.5604Z" fill="#91A970"/>
<path d="M61.742 23.7655C61.7387 24.1255 61.4873 24.6318 61.4873 24.6318C61.4873 24.6318 61.7185 25.2876 61.742 25.7344C61.742 25.7344 62.0223 25.0785 61.9968 24.6318C61.9763 24.2727 61.742 23.7655 61.742 23.7655Z" fill="#D3E9B8"/>
<path d="M61.0415 20.3003C59.4101 19.77 58.456 19.8272 56.7109 20.3003L56.8633 22.5842H61.2325C61.2325 22.5842 61.6064 22.0006 61.6147 21.5604C61.6252 20.9959 61.0415 20.3003 61.0415 20.3003Z" fill="url(#paint0_linear_186_82)"/>
<path d="M61.742 23.7655C61.7469 23.2427 61.2325 22.5842 61.2325 22.5842H56.8633L57.0471 25.3406L61.4873 24.6318C61.4873 24.6318 61.7387 24.1255 61.742 23.7655Z" fill="url(#paint1_linear_186_82)"/>
<path d="M61.742 25.7344C61.7185 25.2876 61.4873 24.6318 61.4873 24.6318L57.0471 25.3406L57.2204 27.9396C58.9576 27.9911 59.9237 27.7765 61.6147 26.837C61.6147 26.837 61.7649 26.1685 61.742 25.7344Z" fill="url(#paint2_linear_186_82)"/>
<path d="M57.0928 20.3791C55.7753 18.8171 54.8582 18.4691 53.017 18.4889C53.017 18.4889 47.941 19.1862 44.6743 19.3552C41.4192 19.5237 36.3317 19.3552 36.3317 19.3552L17.3537 17.6789L11.3673 17.1501C9.72773 17.6763 8.64131 18.2843 7.80097 19.3842C11.7538 19.3703 13.6772 19.6462 16.7805 20.4578L39.5796 22.1905L43.7191 21.9944C48.8738 21.1718 51.7664 20.722 57.0928 21.3612C57.0456 21.2463 57.0176 21.1124 57.0292 20.9304C57.0458 20.6684 57.0928 20.3791 57.0928 20.3791Z" fill="url(#paint3_linear_186_82)"/>
<path d="M57.1565 23.4505C57.1179 22.6739 57.6034 22.9521 57.4749 22.1905C57.4065 21.7846 57.2001 21.6219 57.0928 21.3612C51.7664 20.722 48.8738 21.1718 43.7191 21.9944L39.5796 22.1905L16.7805 20.4578C13.6772 19.6462 11.7538 19.3703 7.80097 19.3842C7.17634 20.2017 6.68767 21.291 6.20885 22.8205C12.0648 23.0789 15.199 23.79 20.6016 25.7345L48.1133 25.1832L49.5781 24.9025C52.4531 23.4973 54.1184 23.246 57.1565 23.4505Z" fill="url(#paint4_linear_186_82)"/>
<path d="M57.6023 25.7345C57.7398 25.0109 57.1934 24.1924 57.1565 23.4505C54.1184 23.246 52.4531 23.4973 49.5781 24.9025L48.1133 25.1832L20.6016 25.7345C15.199 23.79 12.0648 23.0789 6.20885 22.8205C5.90897 24.4717 5.79635 25.7788 5.9291 26.9945C13.1398 28.6857 17.1334 28.9392 24.2316 28.9634L52.5076 27.8609L53.6539 27.3824C55.357 27.073 56.2 26.6676 57.6023 25.7345Z" fill="url(#paint5_linear_186_82)"/>
<path d="M7.80097 31.7986L30.1543 36.2877L55.8191 30.8536C56.7206 30.04 57.1184 29.4007 57.6023 27.8609C57.6023 27.8609 57.4219 27.2895 57.4749 26.837C57.5214 26.4402 57.5281 26.1248 57.6023 25.7345C56.2 26.6676 55.357 27.073 53.6539 27.3824L52.5076 27.8609L24.2316 28.9634C17.1334 28.9392 13.1398 28.6857 5.9291 26.9945C6.10077 28.5668 6.68283 29.9861 7.80097 31.7986Z" fill="url(#paint6_linear_186_82)"/>
<path d="M15.8245 9.98326C15.8245 9.98326 15.0402 9.03113 14.4235 8.64441C13.6918 8.18561 12.5129 7.93561 12.3856 8.01436C12.2582 8.09312 11.3029 10.4558 11.3029 10.4558C12.7339 11.0816 13.4686 11.5633 14.5508 12.8758L15.8245 9.98326Z" fill="url(#paint7_linear_186_82)"/>
<path d="M11.3029 10.4558C11.3029 10.4558 10.9208 10.2983 10.8572 10.4558C10.7935 10.6133 10.284 11.5584 10.2203 11.7159C10.1566 11.8734 10.4114 11.8734 10.4114 11.8734C11.489 13.6859 12.1758 14.4623 13.4364 15.4067L14.5508 12.8758C13.4686 11.5633 12.7339 11.0816 11.3029 10.4558Z" fill="url(#paint8_linear_186_82)"/>
<path d="M10.4114 11.8734C10.4114 11.8734 9.07398 14.0786 9.0103 14.3936C8.94661 14.7086 10.9208 16.835 10.9208 16.835C10.9208 16.835 11.2123 17.3994 11.494 17.6226C11.7788 17.8482 12.3219 17.9376 12.3219 17.9376L13.4364 15.4067C12.1758 14.4623 11.489 13.6859 10.4114 11.8734Z" fill="url(#paint9_linear_186_82)"/>
<path d="M58.1112 37.4689C57.792 37.2094 57.4086 37.6443 57.1237 38.0989C56.8813 38.4856 56.7101 38.8865 56.7101 38.8865C56.7101 38.8865 56.634 39.2377 56.5827 39.6741C56.5355 40.0754 56.5094 40.5489 56.5827 40.8876C56.6332 41.1207 56.7308 41.29 56.9012 41.3279C57.425 41.4447 57.9201 40.0678 57.9201 40.0678C57.9201 40.0678 58.0112 39.6697 58.1112 39.4378C58.2282 39.1664 58.4933 38.8077 58.4933 38.8077C58.4933 38.8077 58.4908 38.4537 58.4136 38.0989C58.3589 37.8473 58.2667 37.5953 58.1112 37.4689Z" fill="url(#paint10_radial_186_82)"/>
<path d="M58.8754 34.7125C58.6844 32.9011 57.028 29.9881 54.8633 27.4669C52.818 25.0848 47.5754 22.6612 42.503 20.3163L42.5023 20.316L42.5015 20.3156L42.4925 20.3115L42.49 20.3103C42.1982 20.1754 41.9069 20.0407 41.6169 19.9064C38.9549 18.6732 36.761 18.0497 34.5894 17.4327C32.2515 16.7683 29.9394 16.1113 27.0968 14.7085C24.1719 13.2651 19.7094 10.2982 19.7094 10.2982C17.733 9.2692 15.3152 9.98317 15.3152 9.98317C15.3152 9.98317 15.1134 10.1041 14.8526 10.2982L24.1036 15.5748L42.3174 22.7416C42.3174 22.7416 51.3558 25.0207 54.8633 30.1446C56.5676 32.6345 58.1112 37.4689 58.1112 37.4689C58.2667 37.5953 58.3589 37.8473 58.4136 38.0989C58.4136 38.0989 59.0665 36.5238 58.8754 34.7125Z" fill="url(#paint11_linear_186_82)"/>
<path d="M13.619 12.2671L24.6131 18.8826L42.8269 26.9156C42.8269 26.9156 50.2436 29.2498 53.717 33.1373C55.2409 34.843 57.1237 38.0989 57.1237 38.0989C57.4086 37.6443 57.792 37.2094 58.1112 37.4689C58.1112 37.4689 56.5676 32.6345 54.8633 30.1446C51.3558 25.0207 42.3174 22.7416 42.3174 22.7416L24.1036 15.5748L14.8526 10.2982C14.5136 10.5506 14.0749 10.9268 13.8504 11.322C13.6806 11.621 13.6535 11.9058 13.6254 12.2003C13.6233 12.2225 13.6212 12.2448 13.619 12.2671Z" fill="url(#paint12_linear_186_82)"/>
<path d="M12.3857 14.6297L28.0521 25.8131L48.4948 36.6813L56.5827 39.6741C56.634 39.2377 56.7101 38.8865 56.7101 38.8865C56.7101 38.8865 56.8813 38.4856 57.1237 38.0989C57.1237 38.0989 55.2409 34.843 53.717 33.1373C50.2436 29.2498 42.8269 26.9156 42.8269 26.9156L24.6131 18.8826L13.619 12.2671C13.5969 12.4931 13.5679 12.7258 13.4683 12.9759C13.3151 13.3603 13.1178 13.5942 12.9183 13.8306C12.731 14.0525 12.5418 14.2767 12.3857 14.6297Z" fill="url(#paint13_linear_186_82)"/>
<path d="M12.3857 14.6297C12.1506 15.1611 12.1309 16.0473 12.1309 16.0473C12.1309 16.0473 11.9103 16.6301 11.8125 16.9924L22.6389 26.6006L37.8595 37.4689C37.8595 37.4689 46.4856 43.3983 52.2522 42.3518C53.9869 42.0369 56.5827 40.8876 56.5827 40.8876C56.5094 40.5489 56.5355 40.0754 56.5827 39.6741L48.4948 36.6813L28.0521 25.8131L12.3857 14.6297Z" fill="url(#paint14_linear_186_82)"/>
<path d="M11.8125 16.9924C12.4079 18.9902 12.383 19.363 13.532 20.9302C13.532 20.9302 18.2231 24.5142 21.1741 26.9156C25.7849 30.6677 27.8808 33.7377 32.7647 36.9176C39.8224 41.5128 50.3882 44.6074 52.2522 44.4782C54.1162 44.349 54.7858 44.2059 56.9012 41.3279C56.7308 41.29 56.6332 41.1207 56.5827 40.8876C56.5827 40.8876 53.9869 42.0369 52.2522 42.3518C46.4856 43.3983 37.8595 37.4689 37.8595 37.4689L22.6389 26.6006L11.8125 16.9924Z" fill="url(#paint15_radial_186_82)"/>
<path d="M7.92825 29.5934C6.77666 29.0541 6.53179 28.4135 4.74402 28.4121L4.48928 29.0422C4.48928 29.0422 3.71358 29.0172 3.47032 29.4359C3.22151 29.8642 3.57107 30.6856 3.68877 30.9364L6.89794 32.5862L7.92825 29.5934Z" fill="url(#paint16_linear_186_82)"/>
<path d="M3.72506 31.011C3.72506 31.011 2.11337 31.2518 2.00558 32.1924C1.89944 33.1185 3.34296 33.925 3.34296 33.925L5.86764 35.5789L6.89794 32.5862L3.68877 30.9364C3.71108 30.984 3.72506 31.011 3.72506 31.011Z" fill="url(#paint17_linear_186_82)"/>
<path d="M3.34296 33.925C3.05959 34.4682 3.02521 34.8932 3.1519 35.8151C3.77698 36.6075 4.26317 36.9594 5.18981 37.5478L5.86764 35.5789L3.34296 33.925Z" fill="url(#paint18_linear_186_82)"/>
<path fill-rule="evenodd" clip-rule="evenodd" d="M28.7898 36.0598C28.5444 32.2361 26.725 28.8358 24.4297 29.077C24.3127 29.0893 24.2184 29.058 24.131 29.029C23.9972 28.9845 23.8798 28.9455 23.7226 29.077C23.1629 29.5453 22.6776 30.4427 22.2883 31.5625C21.7968 32.9764 21.4583 34.7449 21.3162 36.4522C21.2181 37.6292 21.2134 38.7771 21.3162 39.7597C21.3915 40.4801 21.5248 41.2287 21.7067 41.9582C22.2791 44.2543 23.3328 46.3615 24.5741 46.8045C24.9285 46.9309 25.2982 46.9217 25.6763 46.7426C27.7999 45.7366 29.0407 39.9686 28.7898 36.0598Z" fill="url(#paint19_radial_186_82)"/>
<path d="M23.7226 29.077C17.8594 30.1521 14.5624 30.1047 8.62929 28.806C7.79726 29.1866 7.49316 29.4745 7.29198 30.1449C12.9777 32.1357 16.2819 32.2629 22.2883 31.5625C22.6776 30.4427 23.1629 29.5453 23.7226 29.077Z" fill="url(#paint20_linear_186_82)"/>
<path d="M7.29198 30.1449C7.29198 30.1449 5.86789 30.9312 5.31774 31.7987C4.67353 32.8146 4.74459 34.7915 4.74459 34.7915C11.2019 36.251 14.8456 36.6029 21.3162 36.4522C21.4583 34.7449 21.7968 32.9764 22.2883 31.5625C16.2819 32.2629 12.9777 32.1357 7.29198 30.1449Z" fill="url(#paint21_linear_186_82)"/>
<path d="M4.74459 34.7915C4.74459 34.7915 4.53777 35.8249 4.61719 36.6028C4.71925 37.6024 5.50881 38.9655 5.50881 38.9655C11.9331 40.7567 15.489 41.4707 21.7067 41.9582C21.5248 41.2287 21.3915 40.4801 21.3162 39.7597C21.2134 38.7771 21.2181 37.6292 21.3162 36.4522C14.8456 36.6029 11.2019 36.251 4.74459 34.7915Z" fill="url(#paint22_linear_186_82)"/>
<path d="M5.50881 38.9655C6.37379 40.4638 6.97825 41.0788 8.31093 41.722L19.4557 45.266L24.5741 46.8045C23.3328 46.3615 22.2791 44.2543 21.7067 41.9582C15.489 41.4707 11.9331 40.7567 5.50881 38.9655Z" fill="url(#paint23_linear_186_82)"/>
<ellipse cx="1.09339" cy="0.766727" rx="1.09339" ry="0.766727" transform="matrix(0.350899 0.983281 -0.792071 0.561009 26.6113 34.5671)" fill="#DDDB85"/>
<ellipse cx="1.25313" cy="0.685034" rx="1.25313" ry="0.685034" transform="matrix(-0.290154 1.05171 -0.892213 -0.0499379 25.4443 35.5207)" fill="#E0E39C"/>
<ellipse cx="1.37139" cy="0.609153" rx="1.37139" ry="0.609153" transform="matrix(-0.735749 0.67002 -0.501344 -0.874233 27.0479 39.4232)" fill="#E1E39E"/>
<path fill-rule="evenodd" clip-rule="evenodd" d="M33.8467 36.6543C30.783 35.0733 27.0151 35.1242 25.7024 37.3267C25.6163 37.4712 25.5532 37.624 25.5114 37.7839C25.1409 39.2022 26.4474 41.1761 28.2442 42.8088C29.3327 43.7978 30.6011 44.6617 31.7857 45.201C31.9389 45.2707 32.096 45.3379 32.2564 45.4022C34.3403 46.2381 36.9647 46.5944 38.5611 45.9579C39.2532 45.6819 39.752 45.2195 39.93 44.5286C40.55 42.1216 36.9785 38.2705 33.8467 36.6543Z" fill="url(#paint24_radial_186_82)"/>
<path d="M25.5114 37.7839C25.5114 37.7839 24.4232 40.1466 24.4232 41.0917C24.4232 42.0367 27.0342 45.201 27.0342 45.201L28.2442 42.8088C26.4474 41.1761 25.1409 39.2022 25.5114 37.7839Z" fill="#A0AC47"/>
<path d="M27.0342 45.201L31.2374 48.3372L32.2564 45.4022C32.096 45.3379 31.9389 45.2707 31.7857 45.201C30.6011 44.6617 29.3327 43.7978 28.2442 42.8088L27.0342 45.201Z" fill="#A2B04C"/>
<path d="M31.2374 48.3372C33.2093 49.1071 34.3362 49.3804 36.4595 49.046L38.5611 45.9579C36.9647 46.5944 34.3403 46.2381 32.2564 45.4022L31.2374 48.3372Z" fill="#AAB54A"/>
<ellipse cx="1.08497" cy="0.755672" rx="1.08497" ry="0.755672" transform="matrix(0.982954 0.145828 -0.0914915 0.999903 31.293 37.9324)" fill="#DDDB85"/>
<ellipse cx="1.23785" cy="0.677259" rx="1.23785" ry="0.677259" transform="matrix(0.617089 0.769708 -0.626497 0.797357 31.2568 39.4443)" fill="#E0E39C"/>
<ellipse cx="1.35141" cy="0.604683" rx="1.35141" ry="0.604683" transform="matrix(0.029749 1.00025 -0.997943 0.0439753 35.2656 39.8271)" fill="#E1E39E"/>
<path fill-rule="evenodd" clip-rule="evenodd" d="M39.1687 37.9517C36.105 36.3706 32.3371 36.4215 31.0244 38.624C30.8896 38.8502 30.8112 39.0969 30.7827 39.359C30.6549 40.534 31.5289 42.0207 32.8176 43.3756C33.9852 44.6031 35.4932 45.7223 36.9047 46.4032C36.9726 46.4359 37.0403 46.4676 37.1077 46.4983C38.117 46.9578 39.296 47.3043 40.4408 47.4709C41.4014 47.6107 42.3379 47.6238 43.1295 47.4709C44.2059 47.2629 45.0146 46.7476 45.252 45.826C45.872 43.4189 42.3005 39.5679 39.1687 37.9517Z" fill="url(#paint25_radial_186_82)"/>
<path d="M30.7827 39.359C30.7827 39.359 30.2178 42.4305 30.3452 42.903C30.4726 43.3756 32.2558 46.2895 32.2558 46.2895L32.8176 43.3756C31.5289 42.0207 30.6549 40.534 30.7827 39.359Z" fill="#9CAC57"/>
<path d="M32.2558 46.2895L36.0768 49.1247L36.9047 46.4032C35.4932 45.7223 33.9852 44.6031 32.8176 43.3756L32.2558 46.2895Z" fill="#ACBE5F"/>
<path d="M36.0768 49.1247L39.9616 50.6211L40.4408 47.4709C39.296 47.3043 38.117 46.9578 37.1077 46.4983C37.0403 46.4676 36.9726 46.4359 36.9047 46.4032L36.0768 49.1247Z" fill="#B8C867"/>
<path d="M39.9616 50.6211L42.8911 50.3848L43.1295 47.4709C42.3379 47.6238 41.4014 47.6107 40.4408 47.4709L39.9616 50.6211Z" fill="#BECF68"/>
<path d="M42.8911 50.3848C42.8911 50.3848 44.7379 49.676 44.8653 48.9672C44.9927 48.2584 45.252 45.826 45.252 45.826C45.0146 46.7476 44.2059 47.2629 43.1295 47.4709L42.8911 50.3848Z" fill="#B4BE6E"/>
<ellipse cx="1.08497" cy="0.755672" rx="1.08497" ry="0.755672" transform="matrix(0.982954 0.145828 -0.0914915 0.999903 36.6152 39.2298)" fill="#DDDB85"/>
<ellipse cx="1.23785" cy="0.677259" rx="1.23785" ry="0.677259" transform="matrix(0.617089 0.769708 -0.626497 0.797357 36.5791 40.7417)" fill="#E0E39C"/>
<ellipse cx="1.35141" cy="0.604683" rx="1.35141" ry="0.604683" transform="matrix(0.029749 1.00025 -0.997943 0.0439753 40.5869 41.1245)" fill="#E1E39E"/>
<path fill-rule="evenodd" clip-rule="evenodd" d="M40.3817 39.391C41.7376 37.4445 45.3089 37.6863 48.1298 39.391C51.0133 41.1335 54.1992 44.987 53.4889 47.1768C53.4023 47.4438 53.2629 47.668 53.0799 47.8532C52.3 48.6426 50.7275 48.7232 49.0678 48.3838C47.923 48.1497 46.7368 47.7158 45.7408 47.1768C45.6402 47.1224 45.5392 47.0654 45.4378 47.006C44.4589 46.4322 43.4479 45.631 42.572 44.7458C41.9548 44.122 41.4046 43.4564 40.9799 42.7993C40.2992 41.746 39.9409 40.7143 40.1457 39.9105C40.1931 39.7242 40.2708 39.5502 40.3817 39.391Z" fill="url(#paint26_radial_186_82)"/>
<path d="M47.2846 51.0938L50.851 51.33C52.2863 50.1383 52.646 49.3393 53.0799 47.8532C52.3 48.6426 50.7275 48.7232 49.0678 48.3838L47.2846 51.0938Z" fill="#D7E591"/>
<path d="M44.2278 49.8337L47.2846 51.0938L49.0678 48.3838C47.923 48.1497 46.7368 47.7158 45.7408 47.1768C45.6402 47.1224 45.5392 47.0654 45.4378 47.006L44.2278 49.8337Z" fill="#CBDD80"/>
<path d="M40.9799 47.3923L44.2278 49.8337L45.4378 47.006C44.4589 46.4322 43.4479 45.631 42.572 44.7458L40.9799 47.3923Z" fill="#B3C468"/>
<path d="M39.4514 45.4234L40.9799 47.3923L42.572 44.7458C41.9548 44.122 41.4046 43.4564 40.9799 42.7993L39.4514 45.4234Z" fill="#9DA94F"/>
<path d="M40.1457 39.9105C39.5649 41.0789 39.3035 41.7218 39.0693 42.8244L39.4514 45.4234L40.9799 42.7993C40.2992 41.746 39.9409 40.7143 40.1457 39.9105Z" fill="#A4AC52"/>
<ellipse cx="1.02781" cy="0.704742" rx="1.02781" ry="0.704742" transform="matrix(0.974887 0.2227 -0.147733 0.989027 45.6465 40.3829)" fill="#DDDB85"/>
<ellipse cx="1.16053" cy="0.636213" rx="1.16053" ry="0.636213" transform="matrix(0.581428 0.813598 -0.675054 0.737768 45.5342 41.7854)" fill="#E0E39C"/>
<ellipse cx="1.25989" cy="0.573302" rx="1.25989" ry="0.573302" transform="matrix(-0.0246317 0.999697 -0.999291 -0.0376541 49.3115 42.4487)" fill="#E1E39E"/>
<defs>
<linearGradient id="paint0_linear_186_82" x1="57.3478" y1="21.4029" x2="61.9995" y2="21.5574" gradientUnits="userSpaceOnUse">
<stop stop-color="#4D701D"/>
<stop offset="1" stop-color="#4B7D19"/>
</linearGradient>
<linearGradient id="paint1_linear_186_82" x1="57.3478" y1="24.0018" x2="61.9968" y2="24.0018" gradientUnits="userSpaceOnUse">
<stop stop-color="#365C17"/>
<stop offset="1" stop-color="#3F660E"/>
</linearGradient>
<linearGradient id="paint2_linear_186_82" x1="57.3478" y1="26.9158" x2="62.0467" y2="26.2391" gradientUnits="userSpaceOnUse">
<stop stop-color="#598426"/>
<stop offset="1" stop-color="#7DB541"/>
</linearGradient>
<linearGradient id="paint3_linear_186_82" x1="9.71152" y1="18.6464" x2="56.2747" y2="19.5736" gradientUnits="userSpaceOnUse">
<stop stop-color="#9AA36B"/>
<stop offset="1" stop-color="#B9C46E"/>
</linearGradient>
<linearGradient id="paint4_linear_186_82" x1="7.86466" y1="22.0888" x2="52.3964" y2="22.7592" gradientUnits="userSpaceOnUse">
<stop stop-color="#B9C28B"/>
<stop offset="0.214309" stop-color="#4B560F"/>
<stop offset="1" stop-color="#D6E394"/>
</linearGradient>
<linearGradient id="paint5_linear_186_82" x1="5.82676" y1="27.6449" x2="56.7752" y2="27.8026" gradientUnits="userSpaceOnUse">
<stop stop-color="#C9D1A3"/>
<stop offset="0.331782" stop-color="#4A540A"/>
<stop offset="1" stop-color="#DDE8A7"/>
</linearGradient>
<linearGradient id="paint6_linear_186_82" x1="7.48256" y1="33.4068" x2="56.8399" y2="33.1703" gradientUnits="userSpaceOnUse">
<stop stop-color="#7B8C3D"/>
<stop offset="1" stop-color="#DCE7A5"/>
</linearGradient>
<linearGradient id="paint7_linear_186_82" x1="12.4167" y1="8" x2="15.3321" y2="10.4625" gradientUnits="userSpaceOnUse">
<stop stop-color="#89B34E"/>
<stop offset="1" stop-color="#576D2B"/>
</linearGradient>
<linearGradient id="paint8_linear_186_82" x1="12.4167" y1="8" x2="15.3321" y2="10.4625" gradientUnits="userSpaceOnUse">
<stop stop-color="#466B13"/>
<stop offset="1" stop-color="#274709"/>
</linearGradient>
<linearGradient id="paint9_linear_186_82" x1="12.4167" y1="8" x2="15.3321" y2="10.4625" gradientUnits="userSpaceOnUse">
<stop stop-color="#70901F"/>
<stop offset="1" stop-color="#0E2700"/>
</linearGradient>
<radialGradient id="paint10_radial_186_82" cx="0" cy="0" r="1" gradientUnits="userSpaceOnUse" gradientTransform="translate(57.538 39.2803) rotate(-148.27) scale(0.599005 1.67748)">
<stop stop-color="#A57435"/>
<stop offset="1" stop-color="#F6D18C"/>
</radialGradient>
<linearGradient id="paint11_linear_186_82" x1="58.9391" y1="36.5238" x2="12.6979" y2="17.6338" gradientUnits="userSpaceOnUse">
<stop stop-color="#BFCE7E"/>
<stop offset="0.58742" stop-color="#C1D093"/>
</linearGradient>
<linearGradient id="paint12_linear_186_82" x1="57.7928" y1="37.4689" x2="16.7769" y2="22.6613" gradientUnits="userSpaceOnUse">
<stop stop-color="#D6E394"/>
<stop offset="0.366506" stop-color="#B3C660"/>
</linearGradient>
<linearGradient id="paint13_linear_186_82" x1="18.2446" y1="16.6774" x2="59.5686" y2="32.2057" gradientUnits="userSpaceOnUse">
<stop offset="0.71503" stop-color="#AEBF53"/>
<stop offset="1" stop-color="#D2DE91"/>
</linearGradient>
<linearGradient id="paint14_linear_186_82" x1="12.513" y1="16.5199" x2="58.4072" y2="33.1354" gradientUnits="userSpaceOnUse">
<stop offset="0.674484" stop-color="#97A843"/>
<stop offset="1" stop-color="#D0E187"/>
</linearGradient>
<radialGradient id="paint15_radial_186_82" cx="0" cy="0" r="1" gradientUnits="userSpaceOnUse" gradientTransform="translate(56.2007 42.273) rotate(-153.227) scale(44.5823 128.37)">
<stop stop-color="#DEEAA6"/>
<stop offset="0.438681" stop-color="#7F8E31"/>
</radialGradient>
<linearGradient id="paint16_linear_186_82" x1="4.96412" y1="28.4121" x2="8.44643" y2="31.1326" gradientUnits="userSpaceOnUse">
<stop stop-color="#7BA34D"/>
<stop offset="1" stop-color="#4C652A"/>
</linearGradient>
<linearGradient id="paint17_linear_186_82" x1="2.0056" y1="31.8774" x2="7.03599" y2="33.5587" gradientUnits="userSpaceOnUse">
<stop stop-color="#93AD67"/>
<stop offset="1" stop-color="#475A2B"/>
</linearGradient>
<linearGradient id="paint18_linear_186_82" x1="4.96412" y1="28.4121" x2="8.44643" y2="31.1326" gradientUnits="userSpaceOnUse">
<stop stop-color="#7BA34D"/>
<stop offset="1" stop-color="#4C652A"/>
</linearGradient>
<radialGradient id="paint19_radial_186_82" cx="0" cy="0" r="1" gradientUnits="userSpaceOnUse" gradientTransform="translate(24.9884 37.8327) rotate(155.134) scale(4.16764 8.31833)">
<stop offset="0.811666" stop-color="#E1E5AF"/>
<stop offset="1" stop-color="#C6D170"/>
</radialGradient>
<linearGradient id="paint20_linear_186_82" x1="23.0221" y1="30.6174" x2="7.78818" y2="29.9989" gradientUnits="userSpaceOnUse">
<stop stop-color="#A4B25E"/>
<stop offset="1" stop-color="#9DAE62"/>
</linearGradient>
<linearGradient id="paint21_linear_186_82" x1="5.19037" y1="33.1376" x2="21.8527" y2="34.2733" gradientUnits="userSpaceOnUse">
<stop stop-color="#C0CC9F"/>
<stop offset="1" stop-color="#C0CD8C"/>
</linearGradient>
<linearGradient id="paint22_linear_186_82" x1="4.80826" y1="37.0754" x2="21.2932" y2="38.7251" gradientUnits="userSpaceOnUse">
<stop stop-color="#ABB771"/>
<stop offset="1" stop-color="#9EA955"/>
</linearGradient>
<linearGradient id="paint23_linear_186_82" x1="6.78249" y1="40.4619" x2="22.4157" y2="43.0738" gradientUnits="userSpaceOnUse">
<stop stop-color="#B7C37A"/>
<stop offset="1" stop-color="#ADB865"/>
</linearGradient>
<radialGradient id="paint24_radial_186_82" cx="0" cy="0" r="1" gradientUnits="userSpaceOnUse" gradientTransform="translate(32.7157 40.95) rotate(104.873) scale(4.41572 7.83964)">
<stop offset="0.811666" stop-color="#E1E5AF"/>
<stop offset="1" stop-color="#C6D170"/>
</radialGradient>
<radialGradient id="paint25_radial_186_82" cx="0" cy="0" r="1" gradientUnits="userSpaceOnUse" gradientTransform="translate(38.0375 42.2474) rotate(104.873) scale(4.41572 7.83964)">
<stop offset="0.811666" stop-color="#E1E5AF"/>
<stop offset="1" stop-color="#C6D170"/>
</radialGradient>
<radialGradient id="paint26_radial_186_82" cx="0" cy="0" r="1" gradientUnits="userSpaceOnUse" gradientTransform="translate(46.8389 43.297) rotate(108.414) scale(4.08922 7.48581)">
<stop offset="0.811666" stop-color="#E1E5AF"/>
<stop offset="1" stop-color="#C6D170"/>
</radialGradient>
</defs>
</svg>
