<svg width="64" height="64" viewBox="0 0 64 64" fill="none" xmlns="http://www.w3.org/2000/svg">
<path d="M56.8385 5.01316C56.2073 5.20145 51.1577 8.84174 51.1577 8.84174L54.5662 11.6033C54.5662 11.6033 59.1108 8.21411 59.3632 7.46094C59.6157 6.70778 57.4697 4.82487 56.8385 5.01316Z" fill="#7B9350"/>
<path d="M7.03721 48.0063C18.9036 59.0527 28.5609 44.9936 38.3444 33.8217C48.2587 24.0177 57.5076 17.3805 55.2833 12.1055C55.2833 12.1055 46.5519 20.6901 41.0586 26.2901C39.1126 28.2737 37.6093 30.0782 36.1828 31.7903C33.7363 34.7269 31.516 37.3918 27.6772 40.2236C26.9912 40.7297 26.3472 41.2169 25.7301 41.6837C22.0354 44.4786 19.3058 46.5435 14.2959 47.567C11.5141 48.1353 7.03721 48.0063 7.03721 48.0063Z" fill="#B9CE6D"/>
<path fill-rule="evenodd" clip-rule="evenodd" d="M53.4299 9.7832C54.3394 10.5299 54.9445 11.3019 55.2833 12.1055C55.2833 12.1055 46.5519 20.6901 41.0586 26.2901C39.1126 28.2737 37.6093 30.0782 36.1828 31.7903C33.7363 34.7269 31.516 37.3918 27.6772 40.2236C26.9912 40.7297 26.3472 41.2169 25.7301 41.6837C22.0354 44.4786 19.3058 46.5435 14.2959 47.567C11.5141 48.1353 7.03721 48.0063 7.03721 48.0063C7.03721 48.0063 7.61762 42.3516 9.43575 39.3449C12.0367 35.0437 15.1743 32.8566 19.0001 30.1898C19.7216 29.6868 20.4676 29.1668 21.2391 28.6123C23.6452 26.883 25.7142 25.9789 27.7635 25.0834C29.7968 24.1949 31.8108 23.3148 34.1154 21.6455C35.9385 20.3251 37.1741 19.0924 38.4224 17.8472C39.5895 16.6829 40.7676 15.5076 42.4472 14.2394C45.6981 11.7847 51.2208 8.58995 51.2208 8.58995C51.9518 8.85109 52.6871 9.24274 53.4299 9.7832Z" fill="#CDE080"/>
<path d="M28.8765 20.7041C27.6494 21.2854 26.3757 21.8704 25.0821 22.4644L25.082 22.4645C12.2696 28.3487 -2.47974 35.1225 7.03721 48.0063C7.03721 48.0063 7.61762 42.3516 9.43575 39.3449C12.0367 35.0437 15.1743 32.8566 19.0001 30.1898C19.7216 29.6868 20.4676 29.1668 21.2391 28.6123C23.6452 26.883 25.7142 25.9789 27.7635 25.0834C29.7968 24.1949 31.8108 23.3148 34.1154 21.6455C35.9385 20.3251 37.1741 19.0924 38.4224 17.8472C39.5895 16.6829 40.7676 15.5076 42.4472 14.2394C45.6981 11.7847 51.2208 8.58995 51.2208 8.58995C46.5485 6.92091 42.0498 10.5826 36.8732 14.7961C36.8732 14.7961 36.8731 14.7962 36.8731 14.7962C34.3942 16.8139 31.7598 18.9581 28.8765 20.7041Z" fill="#E1F29D"/>
<ellipse cx="1.00835" cy="0.188585" rx="1.00835" ry="0.188585" transform="matrix(0.85297 -0.52196 0.526256 0.850326 48.5571 11.8438)" fill="#DFEF93"/>
<ellipse cx="1.00835" cy="0.188585" rx="1.00835" ry="0.188585" transform="matrix(0.85297 -0.52196 0.526256 0.850326 48.6328 15.7314)" fill="#DFEF93"/>
<ellipse cx="1.00835" cy="0.188585" rx="1.00835" ry="0.188585" transform="matrix(0.85297 -0.52196 0.526256 0.850326 44.9719 16.359)" fill="#DFEF93"/>
<ellipse cx="1.00835" cy="0.188585" rx="1.00835" ry="0.188585" transform="matrix(0.85297 -0.52196 0.526256 0.850326 45.0476 20.2467)" fill="#DFEF93"/>
<ellipse cx="1.00835" cy="0.188585" rx="1.00835" ry="0.188585" transform="matrix(0.85297 -0.52196 0.526256 0.850326 40.6042 14.0995)" fill="#DFEF93"/>
<ellipse cx="1.00835" cy="0.188585" rx="1.00835" ry="0.188585" transform="matrix(0.85297 -0.52196 0.526256 0.850326 40.6799 17.9872)" fill="#DFEF93"/>
<ellipse cx="1.00835" cy="0.188585" rx="1.00835" ry="0.188585" transform="matrix(0.85297 -0.52196 0.526256 0.850326 37.0188 18.6148)" fill="#DFEF93"/>
<ellipse cx="1.00835" cy="0.188585" rx="1.00835" ry="0.188585" transform="matrix(0.85297 -0.52196 0.526256 0.850326 37.0945 22.5024)" fill="#DFEF93"/>
<ellipse cx="1.00758" cy="0.188729" rx="1.00758" ry="0.188729" transform="matrix(0.770346 -0.637626 0.641897 0.766791 40.6042 23.6436)" fill="#DFEF93"/>
<ellipse cx="1.00758" cy="0.188729" rx="1.00758" ry="0.188729" transform="matrix(0.770346 -0.637626 0.641897 0.766791 41.2346 27.4811)" fill="#DFEF93"/>
<ellipse cx="1.00758" cy="0.188729" rx="1.00758" ry="0.188729" transform="matrix(0.770346 -0.637626 0.641897 0.766791 37.7004 28.6195)" fill="#DFEF93"/>
<ellipse cx="1.00758" cy="0.188729" rx="1.00758" ry="0.188729" transform="matrix(0.770346 -0.637626 0.641897 0.766791 38.3306 32.457)" fill="#DFEF93"/>
<ellipse cx="1.00758" cy="0.188729" rx="1.00758" ry="0.188729" transform="matrix(0.770346 -0.637626 0.641897 0.766791 33.054 26.9998)" fill="#DFEF93"/>
<ellipse cx="1.00758" cy="0.188729" rx="1.00758" ry="0.188729" transform="matrix(0.770346 -0.637626 0.641897 0.766791 33.6843 30.8373)" fill="#DFEF93"/>
<ellipse cx="1.00758" cy="0.188729" rx="1.00758" ry="0.188729" transform="matrix(0.770346 -0.637626 0.641897 0.766791 30.1501 31.9756)" fill="#DFEF93"/>
<ellipse cx="1.00758" cy="0.188729" rx="1.00758" ry="0.188729" transform="matrix(0.770346 -0.637626 0.641897 0.766791 30.7803 35.8132)" fill="#DFEF93"/>
<ellipse cx="1.00758" cy="0.188729" rx="1.00758" ry="0.188729" transform="matrix(0.770346 -0.637626 0.641897 0.766791 27.2749 24.123)" fill="#DFEF93"/>
<ellipse cx="1.00758" cy="0.188729" rx="1.00758" ry="0.188729" transform="matrix(0.770346 -0.637626 0.641897 0.766791 27.905 27.9605)" fill="#DFEF93"/>
<ellipse cx="1.00758" cy="0.188729" rx="1.00758" ry="0.188729" transform="matrix(0.770346 -0.637626 0.641897 0.766791 24.3711 29.0989)" fill="#DFEF93"/>
<ellipse cx="1.00758" cy="0.188729" rx="1.00758" ry="0.188729" transform="matrix(0.770346 -0.637626 0.641897 0.766791 25.0012 32.9364)" fill="#DFEF93"/>
<ellipse cx="1.00758" cy="0.188729" rx="1.00758" ry="0.188729" transform="matrix(0.770346 -0.637626 0.641897 0.766791 19.7246 27.4792)" fill="#DFEF93"/>
<ellipse cx="1.00758" cy="0.188729" rx="1.00758" ry="0.188729" transform="matrix(0.770346 -0.637626 0.641897 0.766791 20.355 31.3167)" fill="#DFEF93"/>
<ellipse cx="1.00758" cy="0.188729" rx="1.00758" ry="0.188729" transform="matrix(0.770346 -0.637626 0.641897 0.766791 16.8208 32.455)" fill="#DFEF93"/>
<ellipse cx="1.00758" cy="0.188729" rx="1.00758" ry="0.188729" transform="matrix(0.770346 -0.637626 0.641897 0.766791 17.4509 36.2926)" fill="#DFEF93"/>
<ellipse cx="1.00758" cy="0.188729" rx="1.00758" ry="0.188729" transform="matrix(0.770346 -0.637626 0.641897 0.766791 25.2551 38.5586)" fill="#DFEF93"/>
<ellipse cx="1.00758" cy="0.188729" rx="1.00758" ry="0.188729" transform="matrix(0.770346 -0.637626 0.641897 0.766791 25.8853 42.3962)" fill="#DFEF93"/>
<ellipse cx="1.00758" cy="0.188729" rx="1.00758" ry="0.188729" transform="matrix(0.770346 -0.637626 0.641897 0.766791 22.3511 43.5345)" fill="#DFEF93"/>
<ellipse cx="1.00758" cy="0.188729" rx="1.00758" ry="0.188729" transform="matrix(0.770346 -0.637626 0.641897 0.766791 22.9814 47.372)" fill="#DFEF93"/>
<ellipse cx="1.00758" cy="0.188729" rx="1.00758" ry="0.188729" transform="matrix(0.770346 -0.637626 0.641897 0.766791 17.7048 41.9149)" fill="#DFEF93"/>
<ellipse cx="1.00758" cy="0.188729" rx="1.00758" ry="0.188729" transform="matrix(0.770346 -0.637626 0.641897 0.766791 18.335 45.7523)" fill="#DFEF93"/>
<ellipse cx="1.00758" cy="0.188729" rx="1.00758" ry="0.188729" transform="matrix(0.770346 -0.637626 0.641897 0.766791 14.801 46.8907)" fill="#DFEF93"/>
<ellipse cx="1.00758" cy="0.188729" rx="1.00758" ry="0.188729" transform="matrix(0.770346 -0.637626 0.641897 0.766791 15.4312 50.7282)" fill="#DFEF93"/>
<ellipse cx="1.00758" cy="0.188729" rx="1.00758" ry="0.188729" transform="matrix(0.770346 -0.637626 0.641897 0.766791 13.8933 37.3837)" fill="#DFEF93"/>
<ellipse cx="1.00758" cy="0.188729" rx="1.00758" ry="0.188729" transform="matrix(0.770346 -0.637626 0.641897 0.766791 14.5234 41.2212)" fill="#DFEF93"/>
<ellipse cx="1.00758" cy="0.188729" rx="1.00758" ry="0.188729" transform="matrix(0.770346 -0.637626 0.641897 0.766791 9.24683 35.764)" fill="#DFEF93"/>
<ellipse cx="1.00758" cy="0.188729" rx="1.00758" ry="0.188729" transform="matrix(0.770346 -0.637626 0.641897 0.766791 9.8772 39.6015)" fill="#DFEF93"/>
<ellipse cx="1.00758" cy="0.188729" rx="1.00758" ry="0.188729" transform="matrix(0.770346 -0.637626 0.641897 0.766791 6.34302 40.7399)" fill="#DFEF93"/>
<ellipse cx="1.00758" cy="0.188729" rx="1.00758" ry="0.188729" transform="matrix(0.770346 -0.637626 0.641897 0.766791 6.97314 44.5774)" fill="#DFEF93"/>
<ellipse cx="8.9434" cy="10.9837" rx="8.9434" ry="10.9837" transform="matrix(0.848387 0.529376 -0.533685 0.845683 44.825 27.3571)" fill="#D7DC86"/>
<path d="M51.2803 45.9508C48.4133 50.4937 43.1375 52.1362 39.546 49.8951C35.9544 47.6541 35.147 42.2159 38.014 37.6729C40.8809 33.1299 46.1567 31.4875 49.7482 33.7285C53.3398 35.9696 54.1472 41.4078 51.2803 45.9508Z" fill="#F4F1C8" stroke="#CFE569"/>
<path d="M47.1495 38.715C46.0289 40.0565 45.6825 41.1444 44.4102 40.9337C43.1379 40.7229 43.4451 39.8194 42.5421 37.9518C42.7827 36.5158 43.6876 37.4417 44.9599 37.6524C46.2322 37.8631 47.3901 37.2789 47.1495 38.715Z" fill="#E8EBAA"/>
<path d="M49.1051 45.6083C47.3698 44.8402 46.2157 44.893 45.8364 43.2733C45.4571 41.6535 46.4244 41.633 47.7315 39.7426C49.1575 39.4125 48.7152 40.8991 49.0945 42.5189C49.4738 44.1386 50.531 45.2781 49.1051 45.6083Z" fill="#E8EBAA"/>
<path d="M39.4333 41.2878C41.7913 41.013 42.9941 40.2236 44.451 41.7258C45.9078 43.2281 44.8844 43.8641 44.7091 46.7278C43.3948 47.9881 42.9048 46.1077 41.4479 44.6055C39.9911 43.1032 38.119 42.5481 39.4333 41.2878Z" fill="#E8EBAA"/>
<ellipse cx="8.95016" cy="10.9754" rx="8.95016" ry="10.9754" transform="matrix(0.923635 0.383273 -0.386979 0.922089 36.1943 31.8988)" fill="#D7DC86"/>
<path d="M45.6349 49.1852C43.558 54.134 38.6256 56.6168 34.7117 54.9927C30.7978 53.3686 29.1034 48.136 31.1803 43.1871C33.2572 38.2383 38.1896 35.7555 42.1035 37.3796C46.0174 39.0037 47.7118 44.2364 45.6349 49.1852Z" fill="#F4F1C8" stroke="#CFE569"/>
<path d="M40.3642 42.7226C39.4805 44.2289 39.3186 45.3586 38.0288 45.3586C36.739 45.3586 36.8926 44.4172 35.6934 42.7226C35.6934 41.2667 36.739 42.0322 38.0288 42.0322C39.3186 42.0322 40.3642 41.2667 40.3642 42.7226Z" fill="#E8EBAA"/>
<path d="M43.4323 49.2026C41.5937 48.7285 40.4639 48.9692 39.8221 47.4334C39.1803 45.8976 40.1311 45.7193 41.1081 43.6411C42.4601 43.0824 42.2696 44.6212 42.9114 46.1569C43.5531 47.6927 44.7843 48.6439 43.4323 49.2026Z" fill="#E8EBAA"/>
<path d="M33.1781 46.5211C35.4586 45.8648 36.5146 44.8896 38.1999 46.1334C39.8852 47.3772 38.9807 48.1718 39.2811 51.0252C38.1929 52.4831 37.3988 50.7083 35.7135 49.4645C34.0282 48.2208 32.0899 47.979 33.1781 46.5211Z" fill="#E8EBAA"/>
</svg>
