<svg width="40" height="40" viewBox="0 0 40 40" fill="none" xmlns="http://www.w3.org/2000/svg">
<path d="M16.25 18.3448V18.3448C16.25 19.5637 17.2381 20.5517 18.4569 20.5517H21.5431C22.7619 20.5517 23.75 19.5637 23.75 18.3448V18.3448M16.1865 18.3448V18.3448C13.4055 18.3448 11.0978 20.495 10.9014 23.269L10 36M23.833 18.3448V18.3448C26.603 18.3448 28.9016 20.4864 29.0973 23.2495L30 36M15 23.8621L13.75 36M25 23.8621L26.25 36M16.1678 16.0653V16.0653C18.3571 17.998 21.6429 17.998 23.8322 16.0653V16.0653C26.4435 13.7602 26.4435 9.68806 23.8322 7.38294V7.38294C21.6429 5.45029 18.3571 5.45029 16.1678 7.38294V7.38294C13.5565 9.68806 13.5565 13.7602 16.1678 16.0653Z" stroke="none" stroke-linecap="round" stroke-linejoin="round"/>
</svg>
